<?xml version="1.0" encoding="UTF-8"?>
<svg id="Capa_1" xmlns="http://www.w3.org/2000/svg" version="1.1" viewBox="0 0 1920 1407.1">
  <!-- Generator: Adobe Illustrator 29.3.1, SVG Export Plug-In . SVG Version: 2.1.0 Build 151)  -->
  <defs>
    <style>
      .st0 {
        isolation: isolate;
      }

      .st1 {
        fill: #82bf73;
      }
    </style>
  </defs>
  <g id="Capa_11" data-name="Capa_1">
    <g class="st0">
      <g id="Capa_1-2">
        <path class="st1" d="M0,106.6s27.8-7.4,104.6,8.8c76.8,16.2,95.7,7.2,180.4-12.3s320.3-14.8,320.3-14.8c0,0,95.4,30.7,193.7,14.7,30.4-4.9,54.5-9.1,73.5-12.5,32.2-5.8,65.3.2,93.9,16.1,14.9,8.2,34.4,15.8,58.5,18.7,61.7,7.3,25.8,27.9,96.3,9.9s18.9,11.9,70.6-18.1c51.7-29.9,173-51.9,189.2-58.5,16.1-6.6,31.5-4.1,60.9-14.2,29.4-10.1,88.2-31.1,137-22.5,48.8,8.6,34.2-5,87.9,7.9,53.7,13,66.3,17.1,111.3,7.2,45-9.8,115.2-9.7,122.9-9.1s19,2.7,19,2.7v1376.7H0V106.6h0Z"/>
      </g>
    </g>
  </g>
</svg>