<?xml version="1.0" encoding="utf-8"?>
<!-- Generator: Adobe Illustrator 25.4.8, SVG Export Plug-In . SVG Version: 6.00 Build 0)  -->
<svg version="1.1" id="Capa_1" xmlns="http://www.w3.org/2000/svg" xmlns:xlink="http://www.w3.org/1999/xlink" x="0px" y="0px"
	 viewBox="0 0 437.7 156.9" style="enable-background:new 0 0 437.7 156.9;" xml:space="preserve">
<style type="text/css">
	.st0{fill:#FFFFFF;}
</style>
<g>
	
		<image style="overflow:visible;opacity:0.5;" width="41" height="86" xlink:href="FF78C062.png"  transform="matrix(1 0 0 1 160.748 21.628)">
	</image>
	<g>
		<path class="st0" d="M163,38.9c0-10.2,5.1-15.4,15.1-15.4c10.1,0,15.2,5.1,15.2,15.4v17.9h-10.6V38.9c0-3.3-1.5-4.9-4.6-5h-0.1
			c-3,0-4.6,1.7-4.6,5v12.4c0,5.8,3.3,10.6,9.9,14.6c6.6,4.7,9.9,10.6,9.9,17.8c0,10.3-5,15.4-15.1,15.4c-10.1,0-15.2-5.1-15.2-15.4
			v-5.2h10.6v5.2c0,3.3,1.6,5,4.6,5s4.6-1.7,4.6-5c0-3.5-3.3-7.7-9.9-12.4c-6.6-4.7-9.9-11.3-9.9-19.8V38.9z"/>
	</g>
</g>
<g>
	
		<image style="overflow:visible;opacity:0.5;" width="41" height="83" xlink:href="FF78C066.png"  transform="matrix(1 0 0 1 236.748 22.628)">
	</image>
	<g>
		<path class="st0" d="M239,24.7h16.3c9.4,0,14.1,5.1,14.1,15.4v22.1c0,4.8-1.9,8.2-5.8,10.2c3.8,2,5.8,5.4,5.8,10.2
			c0,10.2-4.9,15.3-14.7,15.4H239V24.7z M249.6,35.1v32h3.3c1,0,2-0.1,3-0.3c1.9-0.8,2.9-2.3,2.9-4.7v-22c0-3.3-1.5-5-4.6-5H249.6z
			 M249.6,77.6v9.9h4.6c3.1,0,4.6-1.7,4.6-5c0-2.3-1-3.9-2.9-4.6c-1-0.3-2-0.4-3-0.3L249.6,77.6z"/>
	</g>
</g>
<g>
	
		<image style="overflow:visible;opacity:0.5;" width="40" height="86" xlink:href="FF78C061.png"  transform="matrix(1 0 0 1 275.748 21.628)">
	</image>
	<g>
		<path class="st0" d="M307.5,83.7c0,10.3-5.1,15.4-15.2,15.4s-15.2-5.1-15.1-15.4V38.9c0-10.2,5-15.4,15.1-15.4
			c10.1,0,15.2,5.1,15.2,15.4V83.7z M297,38.9c0-3.3-1.5-4.9-4.6-5h-0.1c-3,0-4.6,1.7-4.6,5v44.8c0,3.3,1.5,5,4.6,5s4.6-1.7,4.6-5
			V38.9z"/>
	</g>
</g>
<g>
	
		<image style="overflow:visible;opacity:0.5;" width="43" height="83" xlink:href="FF78C063.png"  transform="matrix(1 0 0 1 312.748 22.628)">
	</image>
	<g>
		<path class="st0" d="M337,76.6l11,21.3h-11.6L327,78.5h-1.5v19.4H315V24.7h15.4c9.4,0,14.1,5.1,14.1,15.4v23
			C344.4,69.6,341.9,74.1,337,76.6z M325.5,35.1v33.4h2.4c1,0,2-0.1,3-0.3c1.9-0.8,2.9-2.3,2.9-4.7V40.1c0-3.3-1.5-5-4.6-5H325.5z"
			/>
	</g>
</g>
<g>
	
		<image style="overflow:visible;opacity:0.5;" width="38" height="83" xlink:href="FF78C060.png"  transform="matrix(1 0 0 1 351.748 22.628)">
	</image>
	<g>
		<polygon class="st0" points="353.9,24.7 381.3,24.7 381.3,35.1 364.5,35.1 364.5,68.1 379,68.1 379,78.5 364.5,78.5 364.5,87.5 
			381.3,87.5 381.3,97.9 353.9,97.9 		"/>
	</g>
</g>
<g>
	
		<image style="overflow:visible;opacity:0.5;" width="40" height="86" xlink:href="FF78C06E.png"  transform="matrix(1 0 0 1 386.748 21.628)">
	</image>
	<g>
		<path class="st0" d="M388.4,38.9c0-10.2,5.1-15.4,15.2-15.4c10.1,0,15.2,5.1,15.2,15.4v17.9h-10.6V38.9c0-3.3-1.5-4.9-4.6-5h-0.1
			c-3,0-4.6,1.7-4.6,5v12.4c0,5.8,3.3,10.6,9.9,14.6c6.6,4.7,9.9,10.6,9.9,17.8c0,10.3-5.1,15.4-15.2,15.4
			c-10.1,0-15.2-5.1-15.2-15.4v-5.2H399v5.2c0,3.3,1.5,5,4.6,5s4.6-1.7,4.6-5c0-3.5-3.3-7.7-9.9-12.4c-6.6-4.7-9.9-11.3-9.9-19.8
			V38.9z"/>
	</g>
</g>
<g>
	
		<image style="overflow:visible;opacity:0.5;" width="41" height="70" xlink:href="FF78C065.png"  transform="matrix(1 0 0 1 198.748 36.628)">
	</image>
	<g>
		<path class="st0" d="M220.8,64.7V53.5c0-3.3-1.5-5-4.6-5h-0.1c-3.1,0-4.6,1.7-4.6,5v3.5H201v-3.5c0-10.2,5.1-15.4,15.2-15.4
			s15.2,5.1,15.2,15.4v43.8h-9.4l-0.7-4.5c-1.8,3.6-5.5,5.8-9.5,5.7c-3.1,0.2-6.1-1.3-7.8-3.9c-1.8-2.8-2.8-6.2-2.6-9.5
			C201.3,72.8,207.8,66,220.8,64.7z M220.8,74.7c-6,1.5-9,4.6-8.9,9.2c0,3.2,0.7,4.8,2.1,4.8c4.6-0.3,6.8-3.7,6.8-10.2V74.7z"/>
	</g>
</g>
<g>
	
		<image style="overflow:visible;opacity:0.5;" width="41" height="21" xlink:href="FF78C067.png"  transform="matrix(1 0 0 1 198.748 22.628)">
	</image>
	<g>
		<polygon class="st0" points="231.4,30 225.4,24.1 220.8,28.7 216.2,24.1 211.6,28.7 206.9,24.1 201,30 206.9,35.9 211.6,31.3 
			216.2,35.9 220.8,31.3 225.4,35.9 		"/>
	</g>
</g>
<g>
	
		<image style="overflow:visible;opacity:0.5;" width="32" height="37" xlink:href="FF78C064.png"  transform="matrix(1 0 0 1 161.748 105.628)">
	</image>
	<g>
		<path class="st0" d="M171.7,134.5c-0.4,0-0.5-0.2-0.5-0.6v-20.7h-6.8c-0.3,0-0.5-0.2-0.6-0.4c0-0.1,0-0.1,0-0.2v-4.8
			c0-0.3,0.2-0.5,0.4-0.6c0.1,0,0.1,0,0.2,0h20.4c0.4,0,0.5,0.2,0.5,0.6v4.8c0,0.4-0.2,0.6-0.5,0.6H178v20.7c0,0.3-0.2,0.5-0.4,0.6
			c-0.1,0-0.1,0-0.2,0H171.7z"/>
	</g>
</g>
<g>
	
		<image style="overflow:visible;opacity:0.5;" width="33" height="37" xlink:href="EC73CE75.png"  transform="matrix(1 0 0 1 187.748 105.628)">
	</image>
	<g>
		<path class="st0" d="M201.6,135c-3.8,0-6.7-0.9-8.6-2.6c-1.9-1.7-2.9-4.5-2.9-8.1v-16.4c0-0.3,0.2-0.5,0.4-0.6c0.1,0,0.1,0,0.2,0
			h5.7c0.4,0,0.5,0.2,0.5,0.6v16c-0.1,1.4,0.3,2.7,1.1,3.8c0.9,1,2.3,1.5,3.6,1.4c1.3,0.1,2.7-0.4,3.6-1.4c0.8-1.1,1.1-2.5,1.1-3.8
			v-16c0-0.3,0.2-0.5,0.4-0.6c0.1,0,0.1,0,0.2,0h5.7c0.3,0,0.5,0.2,0.6,0.4c0,0.1,0,0.1,0,0.2v16.4c0,3.6-1,6.4-2.9,8.1
			S205.3,135,201.6,135z"/>
	</g>
</g>
<g>
	
		<image style="overflow:visible;opacity:0.5;" width="34" height="38" xlink:href="EC73CE8B.png"  transform="matrix(1 0 0 1 216.748 104.628)">
	</image>
	<g>
		<path class="st0" d="M230.6,135c-3.7,0-6.6-0.9-8.6-2.7c-2.1-1.8-3.1-4.5-3.1-8.2v-6.4c0-3.8,1-6.5,3.1-8.3
			c2.1-1.8,4.9-2.7,8.6-2.7c2.3-0.1,4.6,0.4,6.8,1.2c1.7,0.7,3.1,1.9,4,3.5c0.9,1.6,1.2,3.5,0.9,5.3c0,0.2-0.1,0.3-0.2,0.4
			c-0.1,0.1-0.2,0.2-0.4,0.2H236c-0.4,0-0.5-0.2-0.5-0.6c0.1-1.1-0.3-2.2-1.1-3c-2.2-1.6-5.2-1.5-7.3,0.1c-1,1.1-1.4,2.5-1.3,4v5.8
			c-0.1,1.5,0.3,2.9,1.3,4.1c1,0.9,2.3,1.3,3.6,1.3c1.8,0,3-0.4,3.7-1.2c0.7-0.8,1.1-1.9,1-2.9c0-0.4,0.2-0.6,0.5-0.6h5.7
			c0.3,0,0.6,0.2,0.6,0.5c0,0,0,0,0,0c0.2,1.8-0.1,3.7-1,5.3c-0.9,1.6-2.3,2.8-4,3.5C235.2,134.6,232.9,135.1,230.6,135z"/>
	</g>
</g>
<g>
	
		<image style="overflow:visible;opacity:0.5;" width="33" height="37" xlink:href="EC73CE8D.png"  transform="matrix(1 0 0 1 245.748 105.628)">
	</image>
	<g>
		<path class="st0" d="M259.7,135c-3.8,0-6.7-0.9-8.6-2.6s-2.9-4.5-2.9-8.1v-16.4c0-0.3,0.2-0.5,0.4-0.6c0.1,0,0.1,0,0.2,0h5.7
			c0.4,0,0.5,0.2,0.5,0.6v16c-0.1,1.4,0.3,2.7,1.1,3.8c0.9,1,2.3,1.5,3.6,1.4c1.3,0.1,2.7-0.4,3.5-1.4c0.8-1.1,1.1-2.5,1.1-3.8v-16
			c0-0.3,0.2-0.5,0.4-0.6c0.1,0,0.1,0,0.2,0h5.7c0.3,0,0.5,0.2,0.6,0.4c0,0.1,0,0.1,0,0.2v16.4c0,3.6-1,6.4-2.9,8.1
			S263.4,135,259.7,135z"/>
	</g>
</g>
<g>
	
		<image style="overflow:visible;opacity:0.5;" width="40" height="37" xlink:href="EC73CE8F.png"  transform="matrix(1 0 0 1 274.748 105.628)">
	</image>
	<g>
		<path class="st0" d="M277.5,134.5c-0.3,0-0.5-0.2-0.6-0.4c0-0.1,0-0.1,0-0.2l0.6-26.1c0-0.4,0.2-0.6,0.5-0.6h6.6
			c0.3,0,0.5,0.2,0.6,0.4l6.5,13.6l6.5-13.6c0.1-0.3,0.4-0.4,0.7-0.4h6.6c0.3,0,0.5,0.2,0.6,0.4c0,0.1,0,0.1,0,0.2l0.5,26.1
			c0,0.4-0.2,0.6-0.5,0.6h-5.6c-0.3,0-0.5-0.2-0.6-0.4c0-0.1,0-0.1,0-0.2l-0.2-9.3c0-1.2,0-2.4,0-3.7s0.1-2.5,0.2-3.6h-0.2
			c-0.5,1.1-1,2.3-1.5,3.5s-1.1,2.4-1.8,3.5l-3.8,7.4c-0.1,0.3-0.4,0.4-0.7,0.4h-0.2c-0.3,0-0.6-0.1-0.7-0.4l-3.9-7.4
			c-0.6-1.1-1.1-2.3-1.7-3.5c-0.6-1.2-1.1-2.4-1.6-3.5h-0.2c0.1,1.2,0.1,2.4,0.2,3.7s0.1,2.5,0,3.7l-0.2,9.3c0,0.3-0.2,0.5-0.4,0.6
			c-0.1,0-0.1,0-0.2,0H277.5z"/>
	</g>
</g>
<g>
	
		<image style="overflow:visible;opacity:0.5;" width="37" height="37" xlink:href="EC73CE8C.png"  transform="matrix(1 0 0 1 307.748 105.628)">
	</image>
	<g>
		<path class="st0" d="M310.5,134.5c-0.4,0-0.6-0.2-0.5-0.7l8.6-26.1c0.1-0.3,0.4-0.5,0.7-0.5h7.4c0.3,0,0.6,0.2,0.7,0.5l8.7,26.1
			c0.1,0.4,0,0.7-0.5,0.7h-6.2c-0.3,0-0.6-0.2-0.7-0.5l-4.2-15c-0.3-1-0.5-2-0.8-3s-0.5-2-0.7-3H323c-0.2,1-0.5,2-0.7,3
			s-0.5,2-0.8,3l-4.1,15c-0.1,0.3-0.4,0.5-0.7,0.5L310.5,134.5z M317.6,129.6l1.1-5.4h8.6l1.1,5.4H317.6z"/>
	</g>
</g>
<g>
	
		<image style="overflow:visible;opacity:0.5;" width="34" height="37" xlink:href="EC73CE94.png"  transform="matrix(1 0 0 1 337.748 105.628)">
	</image>
	<g>
		<path class="st0" d="M340.7,134.5c-0.3,0-0.5-0.2-0.6-0.4c0-0.1,0-0.1,0-0.2v-26.1c0-0.3,0.2-0.5,0.4-0.6c0.1,0,0.1,0,0.2,0h7.3
			c0.3,0,0.6,0.2,0.7,0.4l5.2,10.4c0.4,0.8,0.8,1.6,1.2,2.5c0.4,0.9,0.8,1.8,1.1,2.6s0.6,1.6,0.9,2.3h0.1c-0.1-0.7-0.1-1.5-0.2-2.4
			s-0.1-1.8-0.1-2.8s0-1.7,0-2.4v-10c0-0.4,0.2-0.6,0.5-0.6h5.5c0.3,0,0.5,0.2,0.6,0.4c0,0.1,0,0.1,0,0.2v26.1
			c0,0.3-0.2,0.5-0.4,0.6c-0.1,0-0.1,0-0.2,0h-7.3c-0.3,0-0.5-0.2-0.7-0.4l-5-9.9c-0.4-0.8-0.8-1.6-1.1-2.5l-1.1-2.7
			c-0.4-0.9-0.7-1.7-1-2.4h-0.1c0.1,0.8,0.1,1.6,0.1,2.5s0,1.9,0,2.8v12c0,0.3-0.2,0.5-0.5,0.6c0,0-0.1,0-0.1,0L340.7,134.5z"/>
	</g>
</g>
<g>
	
		<image style="overflow:visible;opacity:0.5;" width="33" height="38" xlink:href="EC73CE95.png"  transform="matrix(1 0 0 1 367.748 104.628)">
	</image>
	<g>
		<path class="st0" d="M381.3,135c-3.9,0-6.8-0.9-8.8-2.7c-2-1.8-3-4.5-3-8.1v-6.5c0-3.6,1-6.3,3-8.1s4.9-2.7,8.8-2.7
			c3.9,0,6.8,0.9,8.8,2.7c2,1.8,3,4.5,3,8.1v6.5c0,3.6-1,6.3-3,8.1S385.2,135,381.3,135z M381.3,129c1.4,0.1,2.8-0.4,3.8-1.4
			c0.9-1.1,1.3-2.5,1.2-3.9V118c0.1-1.4-0.3-2.8-1.2-3.9c-1-1-2.4-1.5-3.8-1.4c-1.4-0.1-2.7,0.4-3.7,1.4c-0.9,1.1-1.3,2.5-1.2,3.9
			v5.6c-0.1,1.4,0.3,2.8,1.2,3.9C378.5,128.6,379.9,129.1,381.3,129z"/>
	</g>
</g>
<g>
	
		<image style="overflow:visible;opacity:0.5;" width="31" height="38" xlink:href="EC73CE97.png"  transform="matrix(1 0 0 1 395.748 104.628)">
	</image>
	<g>
		<path class="st0" d="M408,135c-3.7,0-6.5-0.7-8.2-2.1s-2.4-3.6-2.1-6.4c0-0.4,0.3-0.6,0.6-0.6h5.6c0.4,0,0.6,0.2,0.5,0.6
			c-0.1,0.8,0.3,1.6,0.9,2.1c0.9,0.6,1.9,0.8,2.9,0.7c1,0.1,2-0.1,2.9-0.5c0.6-0.3,0.9-0.9,0.9-1.6c0-0.3-0.1-0.6-0.2-0.8
			c-0.2-0.3-0.4-0.6-0.8-0.8c-0.5-0.3-1-0.5-1.5-0.7l-5.9-2.6c-1.2-0.5-2.4-1.2-3.4-2.1c-0.8-0.7-1.3-1.5-1.7-2.5
			c-0.3-1-0.5-2.1-0.5-3.2c-0.1-2.2,0.8-4.2,2.5-5.6c1.6-1.3,4.1-2,7.4-2c2.1-0.1,4.1,0.3,6.1,0.9c1.4,0.5,2.7,1.5,3.5,2.7
			c0.8,1.4,1.1,3,0.8,4.6c0,0.5-0.2,0.7-0.6,0.7h-5.6c-0.2,0-0.3-0.1-0.4-0.2c-0.1-0.2-0.1-0.3-0.1-0.5c0.1-0.7-0.3-1.4-0.9-1.9
			c-0.8-0.5-1.7-0.8-2.7-0.8c-0.8-0.1-1.6,0.1-2.4,0.5c-0.5,0.3-0.8,0.9-0.8,1.5c0,0.3,0.1,0.6,0.2,0.9c0.2,0.3,0.5,0.6,0.8,0.8
			c0.5,0.3,0.9,0.6,1.5,0.8l5.9,2.5c1.2,0.5,2.4,1.2,3.4,2c0.8,0.7,1.4,1.5,1.7,2.5c0.4,1.1,0.5,2.2,0.5,3.3
			c0.1,2.2-0.8,4.4-2.6,5.8C414.5,134.4,411.8,135,408,135z"/>
	</g>
</g>
<g>
	
		<image style="overflow:visible;opacity:0.5;" width="10" height="10" xlink:href="EC73CE93.png"  transform="matrix(1 0 0 1 134.748 26.628)">
	</image>
	<g>
		<path class="st0" d="M136.2,28.2c0.2,0.2,0.5,0.4,0.8,0.5C136.6,28.3,136.4,28.2,136.2,28.2z"/>
	</g>
</g>
<g>
	
		<image style="overflow:visible;opacity:0.5;" width="11" height="10" xlink:href="EC73CE9B.png"  transform="matrix(1 0 0 1 65.748 8.628)">
	</image>
	<g>
		<path class="st0" d="M68.5,10.6c-0.1,0.1-0.3,0.2-0.3,0.3C68.4,10.8,68.5,10.7,68.5,10.6z"/>
	</g>
</g>
<g>
	
		<image style="overflow:visible;opacity:0.5;" width="11" height="11" xlink:href="EC73CEB0.png"  transform="matrix(1 0 0 1 88.748 140.628)">
	</image>
	<g>
		<path class="st0" d="M91.1,143.2c0.2-0.1,0.4-0.2,0.5-0.3L91.1,143.2z"/>
	</g>
</g>
<g>
	
		<image style="overflow:visible;opacity:0.5;" width="11" height="10" xlink:href="EC73CEB3.png"  transform="matrix(1 0 0 1 107.748 134.628)">
	</image>
	<g>
		<path class="st0" d="M110.4,136.2l-0.2,0.2L110.4,136.2z"/>
	</g>
</g>
<g>
	
		<image style="overflow:visible;opacity:0.5;" width="145" height="149" xlink:href="EC73CEB1.png"  transform="matrix(1 0 0 1 12.748 6.628)">
	</image>
	<g>
		<path class="st0" d="M149.7,61.8c-0.8,0.7-0.1-2.8-1-2.7l0.3-1.8c-0.4-0.7-0.8-0.6-1.1-0.6s-0.6-0.2-1.1-1.7
			c-0.3-2.7,1.6-0.1,1.7-1.8l-0.7-0.5c0,0,0-0.4,0-0.7v-0.7l0.1,0.2c-0.4-0.7-0.7-2.2-0.4-2.3c0.2,0,0.5,0.9,0.8,1
			c-0.2-0.4-0.4-0.9-0.5-1.4c-0.1-0.6-0.3-1.3-0.4-1.9c-0.3-1.4-0.8-2.7-1.8-3c-0.1-0.8-0.9-2.3-0.4-2.3c-0.9-0.3-1.6-3.3-2.6-4
			c0.3,0,0-1.1-0.6-1.7c0.4,1.1-0.2,0.6-0.9,0.2c-0.2-1-2.1-3-1.8-3.8c-1.3-0.9-1.4-0.1-2,0c-0.2-1.1-2.4-3.2-1.4-3.4
			c0.5,0.7,1.6,2.1,1.8,1.5c-0.8-1.4-0.6-0.3-1.6-1.2c0.2,0-0.2-1,0.1-1c-0.7-0.6-1.4-1.3-2.1-2.1c1,1.5-1.2-0.3-0.7,0.7l1.6,0.6
			c1.4,1.4-0.1,0.6,0.3,1.3c-0.7-0.8-1.6-1.3-2.7-1.7c-1-0.3-1.9-0.7-2.7-1.2c-0.4-0.6-0.8-1.1-1.3-1.6c0.8,0.6,1.2-0.1,0.8-0.6
			c-1.9-0.5-2.3-2.3-3.5-3.3c1,0.9,0.1,0.9-0.4,0.9c-2.8-1.3-0.8-0.9-1.8-2c-4.1-2.4-6.5-4.6-10.3-5.6l0.7,0.7l0.7,0.7l0.8-0.4
			c1.1,1.1-0.9,1.4-1.8,1.5c-0.1-0.3-2.3-1-1.3-1l-2.2-0.5c0.2,0.4,1.6,0.8,0.5,0.7c-0.6-0.5-2.8-1.3-1.2-1.2
			c-1.1-0.4-2.6-0.6-2.5-0.1c-1.8-0.4,0.4-0.9,1.3-0.8c-1.4-0.5-1.1-1-0.6-1.1l-1-0.2l-1-0.2c0.5-0.1,0.6-0.4,1.1-0.4
			c-1.3-0.6-2.5-0.1-3.5-0.9l-0.7,0.5c-1.8-0.6-2.7-0.9-3.5-1.1C98.4,9.3,97.2,9.1,96,9l0.6,0.5c-2.8,0.5-1.9-0.9-5.6-0.8
			c-2.1,0.2-3.4,0.4-3.1,1.1c-0.7,0.2-1.4,0.1-2-0.4c-0.6,0.3-1.3,0.5-1.9,0.7c-0.7,0.3-1.5,0.3-2.3,0.2c0.9-0.3,1.7-0.5,2.6-0.7
			c-0.3-0.7-3.2,0-4.7-0.1c-1,0.4-4.3,1.7-6,2.6c0.9,0.4,0.7,1.3-0.8,2.2c0.2-0.5-2.3,0-3.4-0.1c0.5-0.5-2.7-0.4-0.4-1.2
			c0.7,0.1,1.2,0.6,2.1,0.1c-1.3-0.4-2.6-0.5-3.9-0.5c0.1-0.3,0.8-0.7,1.7-0.9c-0.4,0.3-0.1,0.4,0,0.5c2.8-1.1-0.8-0.9-0.5-1.5
			c-0.8,0.3-2.4,0.6-1.6,0.8c-0.9-0.3-2,0.1-3.1,0.6c-0.9,0.6-2,0.9-3.2,0.9c0,0.1,1,0.2,0,0.8c-1.6,0.7-1.7,0.1-2.4,0.2
			c-0.8,0.6-1.7,1.1-2.6,1.4c-1,0.7,1.5,0.5,0.2,1.6C54.7,18.3,53,18.3,52,19c-1.6,0.2,1.3-1,1.8-1.4l-2,1l-1.9,1.1
			c-1.3,0.3,0.2-0.9,1.4-1.4c-1.8,0.3-3.7,1.8-3.8,2.6c-1,0.5-1.5,0.8-2.5,1.2c0.7-0.9,0.1-1.7,1.5-2.7c2.5-1.3-0.5,1.1,1.6,0.2
			L48,19c1-0.2,1.5-0.9,2.5-1.4c0.6-0.1,0,0.2-0.3,0.5c1.7-0.9,3.2-1.2,4.3-2.4c-2.6,0.4-5.9,2.9-7.2,2.8c0,0-1.1,0.8-2.1,1.7
			s-2,1.8-2,1.8c0.2,0.2,2-0.3,0.9,0.8c-0.9-0.3-2.4,0.3-4.1,1.4c0.5,0.1,0,0.7-0.5,1.3s-1,1.2-0.4,1.1c0.3-0.5,0.8-0.8,1.4-0.7
			c-1.5,1.2,0.2,0.7-0.6,1.4c-2.8,2.1-0.2-0.5-3,1.6c0.6-1.5,1.5-2.9,2.6-4.1c-0.3-0.2-1.5,1.3-2.4,1.5c1.2-0.4-0.1,1.1,0.7,0.6
			c-1.7,2-3.2,4.1-4.6,6.3L32,34c0.3-0.8,0.6-1.5,1.1-2.1c0.7-1.1,1.2-2.1,0.3-2.2c-1.1,1.4-0.6,1.8-1.6,2.8c-1,0.4-2.1,2.2-3.1,4
			c-0.7,0.5-1.4,1.1-2,1.7c-0.5,0.5-1,1-1.6,1.6s-1.2,1.5-1.9,2.4l0.2-0.3c-0.5,0.8-1,1.9-1.6,2.9s-1.2,2.3-1.7,3.5
			c0.7-2.4-2.5,4-1.5,0.8c-0.3,1-0.6,1.9-0.8,2.9c-0.2,0.6-0.3,1.3-0.4,2c-0.1,0.6-0.1,1.3-0.1,1.9c0,0.4,0.1,0.7,0.2,1.3
			s0.2,1.4,0.4,2.8L16,60c0,0.2-0.1,0.5-0.1,0.7h-1c0.3,1.4,0.5,2.9,0.5,4.3l-0.5-0.8c0,1.2,0,2.2,0.6,2.8c-0.3,0.7-0.4,1.4-0.2,2.2
			c-0.2,0.7-0.3,1.5-0.1,2.2c0.3-0.2,0.4-0.3,0.6-0.5c0.1,0.5,0.2,0.9,0.3,1.4v0.3l0,0c0,0.5-0.1,1.1-0.3,1.5c0,0.5,0.1,1,0.2,1.4
			c-0.2,0.5-0.4,0.8,0.1,2c0.2-0.2-0.1-0.7,0-1.2c0,0,0.1-0.1,0.1-0.1c0.4,0.5,0.7,1.1,1,1.7l0.1,0.3c-0.1-0.1-0.2,0.1-0.1,0.3
			c-0.1,0-0.2,0-0.4,0c0-0.3-0.1-0.5-0.2-0.8v1c0,0.1,0,0.2,0,0.4l0.1,0.2v0.4v-0.2c0.4,1.6,0.7,3.2,1.1,4.7c0,0-0.1,0-0.1,0
			c0.1,0,0.1,0,0.1,0.1c0.4,1.6,0.8,3.1,1.2,4.7c-0.2,0-0.3,1.3-0.6,1c-0.7-0.6-0.6-2-0.7-3.2c-0.8,2.6,1.1,3.2,1,5.4
			c-0.3,0.1-0.6-0.1-0.8-1c-0.1,0.4,0.9,1.8,0.9,3.2c0.1-0.4,0.5-1.3,1,0l-0.1,1c-0.1,0.5-0.1,1-0.1,1c0.4,2.1,0.9,0.5,1.7,2.2
			l0.2-1.2c0.1,0,0.1,0,0.2,0.1c0.1,0.4,0.2,0.8,0.4,1.1c-0.1,0-0.3-0.4-0.4-0.5c0.4,1.3,0.9,2.6,1.6,3.9v0.5
			c-1,0.4-2.1-2.4-3.3-1.7c0.8,2.2,2.3,5.4,2.5,7c1.1,1.9,1.8,1.4,2.2,0.8c0.3,0.5,0.5,1.1,0.6,1.8l-0.7-0.8
			c1.3,2.3,2.3,3.4,3.5,5.8c0.9,1.2,1.1,0.4,1.4-0.1l0.9,1.4v-0.3c0.7,0,1.2,1.1,1.7,2c-0.3-0.3-0.6-0.6-0.9-0.9
			c0.3,0.4,0.7,0.8,1,1.2c-0.2,0.2-0.6-0.4-0.8-0.2c0.4,1,1,1.9,1.8,2.6c-0.2,0.2-1.2,0-1.6-1.1c0-0.1,0.1-0.1,0.1-0.3l-1.4-1.5
			c1.5,1.7,1.6,3.2,1,3.6c1.6,1.7-0.5-1.9,1.3,0.2c1,3.7,4.3,5.1,4.3,7.9c0.7,0.5,1.5,1,2.4,1.6c1,0.6,1.9,1.3,2.8,2.1
			c0.4-0.4,1.4,1,1.7,0.3c-0.7-1-1.6-1.7-2.7-2.2c-0.9-0.6-1.8-1.2-2.1-2.3c-0.9-0.6-1,0-1.6-0.2c-0.7-0.7-1.3-1.4-1.1-1.8
			c1.8,1.5,1.5-0.4,3.4,1.6c0.1-0.6-1.6-2.1-2.1-3c0.4,0.1,0.4-0.4,0.2-1c0.6,0.2,1.2,0.5,1.7,0.9l-0.1,0.6c0.7,0.6,0.1-0.5,0.8,0.1
			l0.3,0.2c0,0.1,0,0.2-0.2,0.2l1.3,0.8l0.3,0.2c0.3,0.3,0.6,0.6,1,0.8c0.1,0,0.1,0.1,0.1,0.1c0.2,0.6,0,0.9-0.4,0.8
			c1,1.2,3.5,2.4,3,3.1c1.7,1.2-0.2-0.8-0.2-1.1l0.2,0.1l-0.5-0.5c1,0.4,2,0.9,2.9,1.4c-0.2,0.1-0.6,0-0.7,0
			c0.7,0.5,1.4,0.9,2.1,1.3c0.2,0.2,0.4,0.4,0.6,0.5h-2.2l1.4,0.7c-1-0.1-1.5,0.6-3,0.2c1.7,1.4,4.1,3.4,5.5,3.9
			c0.3,0.6,0.3,1.1-0.2,1.4c2.3,0.4,2.9,2,4.7,2.9c2.1,0.4-1.7-1.4,0-1.4c0.6,0.5,1.4,0.8,2.2,0.8c-0.7,0-2.5-1.2-3.7-2.1
			c1,0.5,1.2-0.1,1.5-0.2l-1.6-0.9c0.5-0.7,2,0.9,3,0.9c-0.8,0.4-0.5,0.6-1.3,1c1.8,0.4,3.4,1.1,5,2.1c0.7,0.5-0.8,0.1-1.2,0.2
			c0.2,0.6,1.6,0.2,1.7,0.9c-0.4,0.4-1-0.3-1.5-0.3l0.7,0.3c0.4,0.2,1,0.4,1.5,0.6l2.3,0.7c-0.1,0.3-1.3,0.1-2-0.2
			c0.6,0.3,1.3,0.5,2,0.6c0.8,0,1.6-0.2,2.3-0.4c1.5,0.6,3.4,1.2,2.8,1.6c0.8-0.1,0.3-0.4,0.3-0.7c2.2,0.4,2.5-0.7,3.8-0.6l-1-0.6
			c2,0.7,0.5-0.8,2.3-0.4c-0.3,0.6-0.2,1.3,0.1,1.8c0.3-0.6,1.5,0,2.3-0.1c-0.5-0.5,1.7-0.6,0.4-1.1c0.7-0.2,1.5-0.3,2.2-0.3
			c0.6,0,1.3-0.2,1.8-0.6c-0.9,0,1.5-0.8,0.7-1.1c1.7-0.4,3,0,2.7,0.7c-0.6,0.1-1.6,0.1-1.5,0.5l1.6-0.4c0.4-0.1,0.7-0.2,1.1-0.3
			l0.5-0.1c0.8,0.1,1.9-0.1,2.2,0.5c0.8-1.1,3.2-0.6,3.6-1.8c-0.8,1-2,0.6-2.4,0.6l0.4-0.3l-0.3,0.1l0.5-0.8
			c0.2-0.4,0.4-0.8,0.4-0.8c-1.4,0.1,0.1,0.8-1.8,1.4c-0.8-0.2-0.3-0.8,0.4-1.4c0.7-0.1,1.4-0.2,2.2-0.4l3-0.6l3.1-0.8
			c0,0.1-0.2,0.2-0.3,0.3c0.7-0.1,1.4-0.3,2-0.6c0.7-0.3,1.3-0.6,1.9-0.9c1.1-0.6,2.3-1.1,3.6-1.4c0.4-0.3,1.5-1,0.9-1.4
			c-0.2,0-0.3,0-0.4-0.1c0.3-0.2,0.6-0.4,0.8-0.7l-0.2,0.6l1.6-0.2c-0.1,0.4-0.7,0.6-0.5,1.2l0.8-0.6l0.8-0.7c0.2,0,0.3-0.1,0.5-0.1
			l1.4-0.3c-0.7,0.4-0.4,0.6-1.1,1.2c1.1-0.8,2.3-1.5,3.6-2v-0.1c3.3-1.2,6.6-2.4,8.7-4.2h0.5h0.5c1.1-1.5,3.6-3.1,5.6-5
			c1-0.9,1.9-1.8,2.7-2.8c0.6-0.7,1-1.6,1.1-2.5c1.6-1.2,0.2,0.9,0.2,1.3c0.6-0.6,1.1-1.4,1.5-2.2c0.4-0.8,1-1.5,1.7-1.9
			c0.3,0.2-1,1.7-0.3,1.2c1.1-0.5,0.4-1.5,1.6-2.1c-0.8,0.1,0.1-2.2,0.8-3.7c-0.2,0.3-0.2,0.3-0.3,0.3c-0.5,0,0.2-1,0.5-1.7
			c0,0.1,0,0.2,0,0.3c1.4-3.3,2.4-6.7,3.2-10.2l0.5-1c0.2-0.3,0.3-0.6,0.5-0.9l0.2-0.4c0.2-1.2,0.6-2.4,0.9-3.6
			c0.3-1.1,0.3-2.2,0.2-3.2l0.6-0.4c-0.8-1.5-0.3-4.2-0.6-6.1l0.1-0.6c0,0,0.1,0.4,0.2,0.8s0.2,0.8,0.2,0.8
			c-0.1-1.4-0.1-2.8,0.2-4.2v0.2c0.3-0.8,0.3-1.7,0-2.5c0.2-0.2,0.3-0.4,0.4-0.7l-0.6-0.2c0-0.2,0-0.4,0.1-0.7
			c0.1-0.1,0.2-0.2,0.2-0.3l0.1,0.2v-0.3c0-0.1,0.1-0.2,0.1-0.3l-0.1,0.2c0-0.6,0-1.3,0.1-1.9c0.2-0.3,0.3-0.6,0.5-0.6
			c0.1,0.7-0.2,1.5,0,2.2c1-2.2,0.3-0.1,1.2-1.1c-0.9,0.1,0.2-2.2,0.3-3.5c0.4-0.1-0.1,0.9,0.1,1.3c2.1-2.2,0.6-3.8,1.2-7
			c0.1,0.2,0.2,0.4,0.2,0.7c-0.1-1.6,0.7-2.6,0.2-3.6C148.9,62.9,149.8,64.1,149.7,61.8z M16.9,60c0,0.2,0,0.4,0,0.7h-0.8
			c0-0.2,0-0.5,0-0.7h1.5l0,0L16.9,60z M22.5,60h-1.4l0,0H22.5C22.5,60,22.5,60,22.5,60z M23.6,55.8c0-0.1,0-0.3-0.1-0.4
			c-0.1,0.4-0.2,0.7-0.1,1.1c-0.1,0.4-0.2,0.9-0.4,1.3c-0.1-0.4-0.4-0.6-0.7,0.1l0.5,0.7c-0.1,0.3-0.1,0.6-0.2,0.9
			c0,0-0.1,0.1-0.1,0.2c0,0.1,0,0.1,0,0.2c0,0,0,0.1,0,0.1h-1.5c-0.1-3,0.4-5.9,1.6-8.6c-0.1,1.2-0.9,2.3-0.9,3.2l0.5-1
			c0.6,0.3,0,1.2-0.2,1.6l1-0.5c0.3-1.4-0.2-2.6,0.6-3.5c-0.2,2.1,0.2,2.2,0.2,3.7C23.8,55.1,23.7,55.5,23.6,55.8L23.6,55.8z
			 M25.8,46.6c-0.2,1.2-0.4,2.5-0.8,3.7l0.4-0.8c0,0.7-0.1,1.3-0.3,2c-0.3,0.7-0.6,1.5-0.8,2.2c-0.2-0.3-0.1-2.3-0.6-1.2
			c-0.3-1.1,0.6-2.7,0-3.1L23.2,50l-0.3,0.4c-0.2,0.2-0.5,0.3-0.5,0.2c-0.1-0.3,0-0.6,0.1-0.9c0.1-0.3,0.2-0.6,0.3-0.9
			c0.2-0.3,0.4-0.7,0.7-1.2c0.4,1,1.2-0.2,2.5-1.8C25.9,46,25.8,46.3,25.8,46.6L25.8,46.6z M44,130.2c0.1-0.2,0.2-0.2,0.3-0.2
			c0.2,0.2,0.3,0.5,0.4,0.7L44,130.2z M63.3,140.6c0.2-0.7,0.8-0.5,0.5-1.3c-0.9,0.3-2.2-0.3-3.3-0.2c-0.1-0.2,0-0.4,0.1-0.5
			c0.7,0.1,1.5,0.2,2.2,0.2c0.7,0.4,1.5,0.6,2.2,0.4h0.3c0.2,0.2-0.8,0.2-0.2,0.4c0.5,0.2,0.9,0.3,1.4,0.5c-0.6,0-1.2,0.1-1.8,0.1
			c0.7,0.6,1.4,1,2.2,1.4C65.3,142.4,65.4,140.6,63.3,140.6z M68.9,140.7c0.1-0.2,0.3-0.3,0.6-0.3c0.1,0.1,0.1,0.2,0.1,0.3
			C69.3,140.7,69.1,140.7,68.9,140.7L68.9,140.7z M51.5,107.1c-2.2,3.7-4.9,4.3-7,3s-2.8-4-0.6-7.7l22.3-37.2l-1.3-0.8
			c-2.8-1.7-3.5-5.5-1.6-8.7l15.8-26.2c0.6-1.2,2-1.7,3.1-1.1c1.2,0.6,1.7,2,1.1,3.1c-0.1,0.1-0.2,0.3-0.3,0.4L73,48.9
			c-0.6,1.1-0.3,2.5,0.8,3.1l0,0c1.1,0.7,2.5,0.4,3.2-0.7c0,0,0,0,0-0.1l10.1-16.9c0.7-1.1,2.1-1.5,3.2-0.8c0,0,0,0,0,0l0,0
			c1.1,0.7,1.5,2.1,0.8,3.2c0,0,0,0,0,0L81,53.7c-0.7,1.1-0.3,2.5,0.8,3.2s2.5,0.3,3.2-0.8l0,0l10.1-16.9c0.7-1.1,2.1-1.5,3.2-0.8
			c0,0,0,0,0,0l0,0c1.1,0.7,1.5,2.1,0.8,3.2L83.4,67.9c-1.9,3.1-5.7,4.3-8.4,2.7l-1.1-0.7L51.5,107.1z M88.4,142.7l-1.2,0.6
			c-0.2-0.3,0.5-0.8,0.5-0.8c-0.6,0.2-1.2,0.3-1.9,0.4c-0.5,0.1-1,0.1-1.4,0.1s-0.9,0-1.5,0.1s-1.2,0-2,0.1c0.2,0.1,1,1.1-0.4,1.5
			c-1,0.4-1.2-0.3-2.1-0.3c0.5-0.2,1-0.8,1.7-0.4l-0.1-0.8c0.5-0.2,1-0.6,1.4-1c0.8-0.1,1.6-0.3,2.2,0.4c1.6,0.2,1.7-0.8,2.9-1.1
			c0,0.3-0.3,0.9,0.3,0.9c1-0.2,2-0.3,2.9-0.5c-0.1,0.1-0.2,0.2-0.3,0.2l0.3-0.1C89.2,142.3,88.8,142.5,88.4,142.7z M112,134.9
			C112,134.9,112,134.9,112,134.9l0.4-0.2C112.4,134.8,112.3,135,112,134.9z M79.1,124.2c-2.1,3.4-4.6,4-6.6,2.8s-2.6-3.7-0.6-7.1
			L83.4,101L80,99l0,0c-2.1-1.3-2.7-4.4-1.2-6.8l3.6-6c15.6-26,31.3-38.5,36.9-35.1l2.8,1.7L79.1,124.2z M126,34.8l0.2,0.1V35
			L126,34.8z M143.1,64.9c-0.7,0.5-1.1,1.3-1.2,2.1c0.2,0.6,0,1.2-0.3,1.7c-0.3-3.4-0.8-6.7-1.7-10c-0.5-1.9-1.1-3.8-1.7-5.4
			c0.1-0.4,0.2-0.9,0.2-1.3c-0.2-0.4-0.6-0.7-1-0.7c-1.1-2.8-2.5-5.6-4.1-8.2c-1.2-1.4-2.5-2.9-3.7-4.4l-2-2.2l-0.3-0.4
			c0.6,0.3,1.2,0.7,1.8,1.2c0.9,0.8,1.8,1.6,2.6,2.5c0.8,0.9,1.6,1.7,2.3,2.5c0.6,0.6,1.3,1.1,2.1,1.4c0.5,1.7-0.9-0.1-1.3,0
			c0.4,0.6,0.9,1.2,1.5,1.8c0.6,0.5,0.9,1.2,0.9,2c-0.2,0.1-1-1.4-0.8-0.7c-0.1,1,1,0.9,0.9,2.1c0.1-0.3,0.6-0.1,1.1,0.4
			c0.5,0.6,1,1.3,1.3,2c-0.1-0.3-0.1-0.3-0.1-0.4c0.3-0.3,0.7,0.7,0.9,1.3c-0.1,0-0.2-0.1-0.2-0.2c1.8,3.9,2.7,8,2.9,12.3
			C143.1,64.4,143.1,64.7,143.1,64.9L143.1,64.9z M144.8,78c0-0.1,0-0.1,0.1-0.2v0.1L144.8,78z"/>
	</g>
</g>
</svg>
