<svg id="Capa_1" data-name="Capa 1" xmlns="http://www.w3.org/2000/svg" viewBox="0 0 437.68 156.88"><defs><style>.cls-1{fill:#f39200;}.cls-2{fill:#6859a3;}</style></defs><path class="cls-1" d="M163,38.89q0-15.37,15.15-15.37t15.19,15.37V56.81H182.77V38.89c0-3.28-1.53-4.94-4.59-5h-.07q-4.56,0-4.56,5V51.28q0,8.63,9.89,14.59,9.9,7.06,9.89,17.81,0,15.41-15.15,15.41T163,83.68V78.53h10.56v5.15c0,3.31,1.55,5,4.63,5s4.59-1.65,4.59-5q0-5.31-9.89-12.39T163,51.51Z"/><path class="cls-1" d="M239,24.69h16.27q14.07,0,14.07,15.41V62.16q0,7.2-5.78,10.19,5.77,3,5.78,10.19,0,15.33-14.74,15.38H239ZM249.55,35.1v32h3.32a10.21,10.21,0,0,0,3-.3q2.86-1.15,2.87-4.67V40.1q0-5-4.59-5Zm0,42.48V87.5h4.63q4.59,0,4.59-5,0-3.51-2.87-4.63a9.33,9.33,0,0,0-3-.33Z"/><path class="cls-1" d="M307.51,83.68q0,15.38-15.19,15.41T277.17,83.68V38.89q0-15.37,15.15-15.37t15.19,15.37ZM297,38.89c0-3.28-1.53-4.94-4.59-5h-.07q-4.56,0-4.56,5V83.68q0,5,4.59,5t4.63-5Z"/><path class="cls-1" d="M337,76.6,348,97.92H336.38L327,78.51h-1.45V97.92H315V24.69h15.38q14.07,0,14.07,15.41v23Q344.4,72.8,337,76.6ZM325.52,35.07V68.43h2.42a10.21,10.21,0,0,0,3-.3q2.86-1.16,2.87-4.66V40.07c0-3.34-1.53-5-4.59-5Z"/><path class="cls-1" d="M353.92,24.69h27.39V35.1H364.48v33H379V78.51H364.48v9h16.83V97.92H353.92Z"/><path class="cls-1" d="M388.4,38.89q0-15.37,15.16-15.37t15.19,15.37V56.81H408.18V38.89c0-3.28-1.53-4.94-4.59-5h-.07q-4.56,0-4.56,5V51.28q0,8.63,9.9,14.59,9.88,7.06,9.89,17.81,0,15.41-15.16,15.41T388.4,83.68V78.53H399v5.15c0,3.31,1.55,5,4.63,5s4.59-1.65,4.59-5q0-5.31-9.89-12.39T388.4,51.51Z"/><path class="cls-1" d="M220.79,64.7V53.49c0-3.31-1.51-5-4.55-5h-.07c-3.06,0-4.59,1.68-4.59,5v3.45H201V53.49q0-15.37,15.19-15.38t15.16,15.38V97.32h-9.45l-.74-4.52a10.35,10.35,0,0,1-9.48,5.71,8.77,8.77,0,0,1-7.78-3.88,16.53,16.53,0,0,1-2.64-9.52Q201.27,66.6,220.79,64.7Zm0,10q-9,2.24-8.95,9.25,0,4.79,2.12,4.78,6.84-.52,6.83-10.15Z"/><polygon class="cls-1" points="231.35 30.01 225.44 24.09 220.81 28.72 216.18 24.09 211.56 28.72 206.93 24.09 201.01 30.01 206.93 35.93 211.56 31.3 216.18 35.93 220.81 31.3 225.44 35.93 231.35 30.01"/><path class="cls-1" d="M171.72,134.46c-.36,0-.54-.19-.54-.58v-20.7h-6.82a.51.51,0,0,1-.58-.58v-4.78a.51.51,0,0,1,.58-.58h20.45c.36,0,.54.19.54.58v4.78c0,.39-.18.58-.54.58H178v20.7a.51.51,0,0,1-.58.58Z"/><path class="cls-1" d="M201.56,135q-5.7,0-8.6-2.62c-1.94-1.74-2.91-4.46-2.91-8.14V107.82a.51.51,0,0,1,.58-.58h5.73c.36,0,.54.19.54.58v16a6.18,6.18,0,0,0,1.06,3.83,4.3,4.3,0,0,0,3.6,1.37,4.22,4.22,0,0,0,3.55-1.37,6.12,6.12,0,0,0,1.06-3.83v-16a.51.51,0,0,1,.58-.58h5.7a.51.51,0,0,1,.58.58V124.2q0,5.47-2.91,8.12T201.56,135Z"/><path class="cls-1" d="M230.61,135q-5.54,0-8.62-2.66c-2.07-1.77-3.1-4.52-3.1-8.23v-6.36q0-5.65,3.1-8.31t8.62-2.66a16.31,16.31,0,0,1,6.77,1.25,8.44,8.44,0,0,1,4,3.51,8.32,8.32,0,0,1,.88,5.34.85.85,0,0,1-.19.42.5.5,0,0,1-.39.16H236c-.36,0-.54-.21-.54-.62a4,4,0,0,0-1.08-3,6.12,6.12,0,0,0-7.29.13,5.42,5.42,0,0,0-1.31,4v5.78a5.39,5.39,0,0,0,1.31,4.05,5,5,0,0,0,3.63,1.27c1.77,0,3-.41,3.74-1.23a3.94,3.94,0,0,0,1-2.93c0-.41.18-.62.54-.62h5.69a.59.59,0,0,1,.63.58,8.82,8.82,0,0,1-1,5.34,8.62,8.62,0,0,1-4,3.51A15.85,15.85,0,0,1,230.61,135Z"/><path class="cls-1" d="M259.66,135c-3.8,0-6.66-.87-8.6-2.62s-2.91-4.46-2.91-8.14V107.82a.51.51,0,0,1,.58-.58h5.73c.36,0,.54.19.54.58v16a6.18,6.18,0,0,0,1.06,3.83,4.3,4.3,0,0,0,3.6,1.37,4.22,4.22,0,0,0,3.55-1.37,6.12,6.12,0,0,0,1.06-3.83v-16a.51.51,0,0,1,.58-.58h5.7a.51.51,0,0,1,.58.58V124.2q0,5.47-2.91,8.12T259.66,135Z"/><path class="cls-1" d="M277.53,134.46a.51.51,0,0,1-.58-.58l.58-26.06c0-.39.18-.58.54-.58h6.61a.62.62,0,0,1,.62.42l6.49,13.63,6.48-13.63a.69.69,0,0,1,.66-.42h6.57a.51.51,0,0,1,.58.58l.54,26.06c0,.39-.18.58-.54.58h-5.57a.51.51,0,0,1-.58-.58l-.25-9.31c0-1.16,0-2.39,0-3.68s.11-2.5.17-3.63h-.17c-.47,1.1-1,2.27-1.53,3.49s-1.14,2.39-1.75,3.53l-3.82,7.4a.74.74,0,0,1-.71.41h-.25a.65.65,0,0,1-.66-.41l-3.87-7.44q-.83-1.67-1.68-3.51c-.57-1.24-1.09-2.39-1.56-3.47h-.17c.06,1.16.11,2.38.17,3.65s.07,2.5,0,3.66l-.25,9.31a.51.51,0,0,1-.58.58Z"/><path class="cls-1" d="M310.53,134.46c-.44,0-.6-.22-.46-.66l8.65-26.1a.64.64,0,0,1,.66-.46h7.4a.64.64,0,0,1,.66.46l8.69,26.1c.11.44,0,.66-.46.66h-6.23a.61.61,0,0,1-.67-.46l-4.19-15c-.28-1-.54-2-.79-3s-.49-2-.71-3H323c-.23,1-.46,2-.71,3s-.51,2-.79,3l-4.11,15a.63.63,0,0,1-.67.5Zm7.06-4.86,1.08-5.36h8.61l1.12,5.36Z"/><path class="cls-1" d="M340.7,134.46a.51.51,0,0,1-.58-.58V107.82a.51.51,0,0,1,.58-.58H348a.7.7,0,0,1,.67.42l5.24,10.43q.57,1.16,1.2,2.49c.42.89.8,1.76,1.14,2.62s.63,1.62.86,2.28h.12c-.08-.72-.15-1.53-.21-2.45s-.09-1.83-.12-2.76,0-1.74,0-2.43v-10c0-.39.18-.58.54-.58h5.48a.51.51,0,0,1,.58.58v26.06a.51.51,0,0,1-.58.58h-7.27a.77.77,0,0,1-.67-.41l-5-9.94c-.39-.75-.77-1.58-1.15-2.49l-1.1-2.72c-.36-.9-.69-1.7-1-2.39h-.13c.06.75.1,1.58.13,2.51s0,1.87,0,2.81v12a.52.52,0,0,1-.59.58Z"/><path class="cls-1" d="M381.3,135q-5.81,0-8.81-2.74t-3-8.11v-6.52q0-5.4,3-8.13t8.81-2.72q5.82,0,8.84,2.72c2,1.82,3,4.53,3,8.13v6.52c0,3.58-1,6.28-3,8.11S385.18,135,381.3,135Zm0-6a4.8,4.8,0,0,0,3.77-1.38,5.75,5.75,0,0,0,1.22-3.94V118a5.75,5.75,0,0,0-1.22-3.94,4.8,4.8,0,0,0-3.77-1.37,4.72,4.72,0,0,0-3.72,1.37,5.75,5.75,0,0,0-1.22,3.94v5.62a5.75,5.75,0,0,0,1.22,3.94A4.73,4.73,0,0,0,381.3,129Z"/><path class="cls-1" d="M408,135c-3.74,0-6.47-.71-8.17-2.12s-2.42-3.56-2.14-6.44c.05-.42.26-.63.62-.63h5.57c.39,0,.57.19.54.55a2.37,2.37,0,0,0,.9,2.09,4.62,4.62,0,0,0,2.88.73,6,6,0,0,0,2.85-.5,1.67,1.67,0,0,0,.89-1.58,1.93,1.93,0,0,0-.2-.85,2.22,2.22,0,0,0-.75-.75,8.84,8.84,0,0,0-1.5-.72l-5.94-2.62a12.79,12.79,0,0,1-3.37-2.06,6.14,6.14,0,0,1-1.7-2.49,9.59,9.59,0,0,1-.5-3.22,7,7,0,0,1,2.49-5.61q2.46-2,7.36-2a16.79,16.79,0,0,1,6.07.94,6.82,6.82,0,0,1,3.51,2.74,7.34,7.34,0,0,1,.81,4.63c0,.47-.22.71-.58.71h-5.57a.51.51,0,0,1-.44-.19.7.7,0,0,1-.1-.52,2.1,2.1,0,0,0-.85-1.87,4.21,4.21,0,0,0-2.68-.75,4.38,4.38,0,0,0-2.37.52,1.71,1.71,0,0,0-.79,1.52,1.59,1.59,0,0,0,.25.89,2.39,2.39,0,0,0,.79.75,10.85,10.85,0,0,0,1.45.77l5.9,2.54a12.91,12.91,0,0,1,3.37,2,5.81,5.81,0,0,1,1.74,2.52,9.12,9.12,0,0,1,.46,3.3,7,7,0,0,1-2.58,5.78Q413.67,135,408,135Z"/><path class="cls-2" d="M136.25,28.21a3.16,3.16,0,0,0,.79.51C136.62,28.34,136.38,28.21,136.25,28.21Z"/><path class="cls-2" d="M68.48,10.62a.75.75,0,0,0-.33.29C68.37,10.81,68.52,10.71,68.48,10.62Z"/><path class="cls-2" d="M91.05,143.22a2.54,2.54,0,0,0,.52-.34Z"/><path class="cls-1" d="M110.37,136.21l-.25.18Z"/><path class="cls-1" d="M149.73,61.75c-.83.74-.07-2.76-1-2.71,0,0,.3-1.84.3-1.84-.39-.74-.77-.56-1.14-.57s-.65-.24-1.06-1.65c-.29-2.7,1.62-.12,1.73-1.8l-.68-.52s0-.36,0-.7l0-.7.1.18c-.41-.72-.72-2.18-.45-2.28.25.05.52.9.77,1a3.47,3.47,0,0,1-.46-1.37c-.13-.59-.28-1.26-.42-1.94-.29-1.36-.82-2.65-1.79-3-.11-.84-.87-2.32-.38-2.34-.92-.33-1.62-3.3-2.61-4,.27,0,0-1.07-.61-1.66.4,1.07-.17.61-.88.22-.2-1-2.11-3-1.82-3.76-1.29-.87-1.36-.09-2,0-.22-1.06-2.39-3.16-1.38-3.39.49.66,1.61,2.11,1.81,1.47-.81-1.38-.64-.33-1.59-1.21.19,0-.21-1,.14-1a18,18,0,0,1-2.05-2.1c1,1.45-1.22-.29-.72.67l1.64.64c1.41,1.39-.06.64.3,1.34a6.24,6.24,0,0,0-2.66-1.66,10.41,10.41,0,0,1-2.71-1.25,16.67,16.67,0,0,0-1.26-1.59c.84.64,1.2-.13.83-.64-1.86-.53-2.3-2.31-3.48-3.26,1,.87.1.94-.4.85-2.84-1.27-.84-.92-1.77-2-4.11-2.39-6.51-4.63-10.33-5.55l.71.67.7.7.83-.41c1.09,1.07-.88,1.36-1.76,1.48-.09-.34-2.3-1-1.3-1l-2.21-.48c.22.41,1.61.78.52.73-.59-.49-2.75-1.26-1.24-1.25-1.13-.38-2.64-.59-2.5-.1-1.84-.44.43-.85,1.34-.84-1.45-.49-1.1-1-.6-1.09l-1-.24-1-.22c.5-.07.57-.35,1.08-.43-1.32-.6-2.47-.11-3.53-.91l-.65.48c-1.85-.64-2.7-.89-3.51-1.11A21.19,21.19,0,0,0,96,9l.56.51c-2.79.5-1.93-.93-5.63-.82-2.07.22-3.4.41-3.13,1.12a2.2,2.2,0,0,1-2-.39,11.46,11.46,0,0,1-1.94.71,4.68,4.68,0,0,1-2.33.19,21.39,21.39,0,0,1,2.64-.68c-.3-.69-3.16,0-4.69-.14-1,.41-4.29,1.7-6,2.64.92.42.73,1.31-.76,2.17.16-.48-2.26,0-3.43-.06.47-.54-2.73-.45-.4-1.16.74.06,1.18.57,2.07.15a12.35,12.35,0,0,0-3.94-.49c.06-.26.82-.71,1.65-.9-.41.29-.12.36,0,.52,2.8-1.15-.85-.85-.54-1.47-.76.3-2.45.63-1.56.83-.89-.32-2,.12-3.14.62a6,6,0,0,1-3.16.91c0,.13,1,.16,0,.78-1.63.67-1.68.14-2.43.18a8.69,8.69,0,0,1-2.64,1.41c-1,.68,1.55.52.21,1.56C54.65,18.27,53.05,18.31,52,19c-1.63.2,1.27-1,1.77-1.44l-1.95,1.05-1.93,1.12c-1.34.27.2-.92,1.44-1.39-1.82.33-3.69,1.81-3.85,2.59-1,.45-1.49.83-2.51,1.2.72-.85.14-1.7,1.52-2.69,2.45-1.27-.5,1.15,1.63.19L48,19c1-.16,1.54-.94,2.5-1.43.61-.12,0,.25-.34.51,1.72-.89,3.24-1.19,4.31-2.39-2.64.43-5.86,2.87-7.2,2.82,0,0-1.06.82-2.09,1.67s-2,1.75-2,1.75c.17.24,2-.32.93.81-.9-.29-2.4.27-4.13,1.41.54.09,0,.73-.53,1.32s-1,1.2-.4,1.12a1.28,1.28,0,0,1,1.41-.7c-1.5,1.23.24.73-.56,1.43-2.8,2.12-.25-.53-3,1.59a14,14,0,0,1,2.57-4.13c-.34-.21-1.52,1.29-2.43,1.52,1.18-.43-.14,1.09.72.61a51.35,51.35,0,0,0-4.6,6.28L32,34a9.34,9.34,0,0,1,1.07-2.15c.65-1.13,1.21-2.1.31-2.17-1.06,1.43-.63,1.79-1.6,2.8-1,.4-2.15,2.24-3.13,4a21,21,0,0,0-2,1.7c-.47.46-1,1-1.59,1.64s-1.19,1.49-1.91,2.44l.16-.31c-.47.85-1,1.86-1.59,2.89S20.52,47.09,20,48.29c.67-2.4-2.48,4-1.55.85a22.44,22.44,0,0,0-.83,2.91A12,12,0,0,0,17.24,54a13.35,13.35,0,0,0-.14,1.9c0,.39.1.7.17,1.3s.17,1.41.36,2.82L16,60c0,.23-.05.47-.07.72l-1,0a22.75,22.75,0,0,1,.49,4.34l-.48-.79c0,1.2,0,2.23.58,2.77a2.85,2.85,0,0,0-.19,2.15,4.37,4.37,0,0,0-.15,2.2c.28-.23.44-.3.55-.5A9.39,9.39,0,0,1,16,72.27v.35l0,0a3,3,0,0,1-.28,1.53,5.8,5.8,0,0,0,.21,1.44c-.22.47-.42.85.14,2,.23-.2-.11-.67,0-1.23a.23.23,0,0,1,.13-.08,16.16,16.16,0,0,1,1,1.69l.09.33c-.14-.06-.16.07-.15.29a.68.68,0,0,0-.37,0,1.37,1.37,0,0,0-.23-.77l0,1a1.22,1.22,0,0,0,0,.37l.06.24v.37l0-.21c.36,1.59.72,3.15,1.09,4.7a.3.3,0,0,1-.13,0,.55.55,0,0,1,.15.08c.37,1.57.76,3.13,1.18,4.71-.2,0-.27,1.32-.62,1-.74-.55-.64-2-.74-3.24-.77,2.56,1.13,3.24,1,5.39-.28.06-.65-.06-.75-1-.12.41.88,1.78.88,3.24.11-.41.51-1.31,1.05,0l-.15,1c-.08.49-.13,1-.13,1,.38,2.14.91.54,1.67,2.17l.19-1.24a.31.31,0,0,1,.19.09c.13.38.25.75.39,1.13-.12,0-.32-.36-.42-.52A24.93,24.93,0,0,0,23,102v.51c-1,.39-2.1-2.43-3.27-1.69.8,2.24,2.27,5.36,2.46,7,1.1,1.87,1.78,1.36,2.22.85a4.38,4.38,0,0,1,.59,1.76l-.69-.77c1.34,2.26,2.3,3.43,3.53,5.85.91,1.25,1.15.4,1.4-.14l.9,1.36v-.28c.67,0,1.18,1.09,1.69,2a7.81,7.81,0,0,1-.86-.9c.31.38.66.78,1,1.18-.24.15-.65-.37-.77-.22a5.85,5.85,0,0,0,1.84,2.62c-.22.16-1.16,0-1.62-1.11,0-.14.12-.14.11-.28l-1.35-1.46c1.47,1.74,1.62,3.25,1,3.58,1.59,1.69-.46-1.92,1.29.16,1,3.74,4.35,5.14,4.28,7.87.72.49,1.52,1,2.43,1.56a28.8,28.8,0,0,1,2.82,2.1c.39-.43,1.44,1,1.72.28a7,7,0,0,0-2.66-2.22c-.92-.6-1.83-1.17-2.11-2.26-.93-.63-1,0-1.6-.19-.71-.69-1.27-1.44-1.07-1.78,1.75,1.5,1.45-.45,3.37,1.64.12-.61-1.59-2.13-2.11-3,.39.06.44-.38.19-1a12.27,12.27,0,0,1,1.72.88l-.12.55c.74.55.11-.48.84.06l.29.23c0,.11,0,.22-.17.18l1.26.78.35.18c.31.27.64.55,1,.84a.86.86,0,0,1,.14.13c.15.57,0,.87-.44.78,1,1.25,3.55,2.43,3,3.07,1.68,1.19-.19-.8-.15-1.1l.15.08-.55-.46a15.55,15.55,0,0,1,2.88,1.45c-.23.13-.6,0-.71,0a22.73,22.73,0,0,0,2.06,1.31,2.26,2.26,0,0,0,.62.52l-2.18,0,1.41.67c-1-.1-1.51.61-3,.2,1.71,1.36,4.11,3.43,5.47,3.91.26.65.27,1.14-.16,1.4,2.34.41,2.9,2,4.71,2.87,2.11.37-1.65-1.43,0-1.41a3.81,3.81,0,0,0,2.16.81c-.68,0-2.53-1.23-3.72-2.11,1,.5,1.15-.13,1.53-.24l-1.57-.91c.47-.68,2,.94,2.95.88-.77.44-.51.59-1.3,1a18,18,0,0,1,5,2.06c.68.53-.75.13-1.23.17.2.59,1.62.24,1.74.91-.36.35-1-.27-1.54-.33l.7.27c.42.16,1,.39,1.55.56l2.3.71c-.06.28-1.26.07-2-.24a5.07,5.07,0,0,0,2,.61,6.83,6.83,0,0,0,2.35-.45c1.53.6,3.39,1.18,2.78,1.55.78-.08.3-.41.32-.69,2.19.4,2.51-.68,3.8-.6l-1-.59c2,.67.51-.83,2.32-.39a1.86,1.86,0,0,0,.12,1.79c.31-.57,1.51,0,2.33-.11-.53-.52,1.7-.63.37-1.09a6.7,6.7,0,0,1,2.2-.26,3,3,0,0,0,1.79-.55c-.86,0,1.47-.78.68-1.07,1.68-.36,3,0,2.68.7-.62.09-1.63.05-1.47.49l1.58-.39a8.57,8.57,0,0,0,1.08-.3l.49-.15c.85.06,1.91-.11,2.23.47.75-1.07,3.18-.56,3.59-1.75-.81,1-2,.55-2.38.63l.44-.29-.26.06.47-.76c.23-.38.44-.76.44-.76-1.4.06.06.76-1.75,1.4-.85-.2-.3-.79.36-1.38.72-.12,1.44-.24,2.15-.4l3-.58,3.07-.82c0,.12-.2.25-.3.32a11.18,11.18,0,0,0,2-.59c.65-.29,1.29-.61,1.9-.91a15.85,15.85,0,0,1,3.56-1.41c.36-.33,1.5-1,.94-1.35a.51.51,0,0,1-.44-.1,1.93,1.93,0,0,0,.84-.74l-.17.61,1.57-.25c-.06.38-.72.62-.49,1.21l.84-.65.79-.7a3,3,0,0,0,.51-.14l1.42-.28c-.7.4-.36.64-1.13,1.21a18.31,18.31,0,0,1,3.55-2l0-.06c3.31-1.16,6.6-2.37,8.72-4.21h.51l.52,0c1.13-1.54,3.56-3.11,5.61-5a22.58,22.58,0,0,0,2.69-2.83,5.5,5.5,0,0,0,1.15-2.54c1.56-1.15.16.92.22,1.27a7.31,7.31,0,0,0,1.46-2.21,4.06,4.06,0,0,1,1.71-1.9c.27.2-1,1.74-.32,1.15,1.11-.48.44-1.53,1.61-2.14-.75.1.11-2.17.76-3.73-.17.26-.17.26-.29.35-.49,0,.2-1,.47-1.68a.38.38,0,0,1,0,.29,59.57,59.57,0,0,0,3.18-10.19l.53-1a8.61,8.61,0,0,0,.46-.9l.19-.41c.24-1.22.63-2.41.93-3.55a8.64,8.64,0,0,0,.2-3.24l.56-.41c-.8-1.52-.32-4.16-.61-6.08l.06-.56s.09.4.17.81.16.82.16.82a15.06,15.06,0,0,1,.16-4.21l0,.19a3.17,3.17,0,0,0,0-2.47,3.16,3.16,0,0,0,.41-.68l-.59-.18a1.85,1.85,0,0,1,.12-.66,3.25,3.25,0,0,0,.23-.29l.05.19v-.31a.88.88,0,0,0,.1-.26l-.1.15a18.22,18.22,0,0,1,.12-1.89c.16-.3.33-.55.46-.56.09.7-.22,1.49,0,2.18,1-2.24.29-.1,1.25-1.06-.92.07.22-2.16.31-3.5.38-.06-.09.93.07,1.31,2.11-2.17.55-3.8,1.18-7a1.32,1.32,0,0,1,.19.69c-.13-1.55.74-2.6.24-3.62C148.93,62.88,149.81,64.09,149.73,61.75ZM16.91,60.05c0,.23,0,.44,0,.66l-.79,0c0-.22,0-.45,0-.71l1.46,0v0ZM22.5,60l-1.44,0v0l1.45,0A.43.43,0,0,1,22.5,60Zm1.13-4.19a.73.73,0,0,0-.09-.39,2.85,2.85,0,0,0-.13,1.1c-.14.44-.25.88-.37,1.32-.15-.42-.36-.56-.66.07l.45.72c-.08.3-.15.6-.22.89a.23.23,0,0,0-.06.15,1.54,1.54,0,0,0,0,.19.19.19,0,0,1,0,.08l-1.46,0a20,20,0,0,1,1.6-8.61c-.1,1.22-.88,2.34-.87,3.19l.5-1c.58.31,0,1.17-.16,1.64l1-.55c.32-1.43-.16-2.58.56-3.54-.21,2.1.25,2.24.25,3.74C23.82,55.14,23.72,55.45,23.63,55.76Zm2.13-9.21A31.83,31.83,0,0,1,25,50.29l.43-.85a7,7,0,0,1-.26,2c-.3.72-.56,1.45-.82,2.16-.23-.29-.1-2.26-.56-1.22-.3-1.1.64-2.69.05-3.13l-.62.7-.3.38c-.23.23-.45.33-.54.16a1.46,1.46,0,0,1,.08-.91,7.76,7.76,0,0,1,.32-.89c.17-.34.39-.74.66-1.19.4,1,1.25-.21,2.54-1.85C25.89,46,25.83,46.26,25.76,46.55ZM44,130.21c.09-.16.2-.2.32-.17a1.28,1.28,0,0,1,.36.74ZM63.3,140.56c.16-.73.77-.46.49-1.29-.94.26-2.23-.3-3.28-.19a.63.63,0,0,1,.07-.53,13.92,13.92,0,0,0,2.23.17,3.07,3.07,0,0,0,2.22.44l.34,0c.17.23-.75.24-.18.44a10.86,10.86,0,0,0,1.43.46c-.62,0-1.22.06-1.76.11a9.71,9.71,0,0,0,2.24,1.41C65.28,142.39,65.4,140.55,63.3,140.56Zm5.61.18a.86.86,0,0,1,.56-.28.41.41,0,0,1,.13.29C69.34,140.74,69.1,140.73,68.91,140.74Zm-17.4-33.61c-2.2,3.67-4.94,4.31-7,3s-2.83-4-.62-7.65L66.21,65.3l-1.3-.79c-2.76-1.65-3.47-5.55-1.59-8.69L79.13,29.59a2.35,2.35,0,1,1,4,2.42L73,48.91a2.29,2.29,0,0,0,.79,3.14l0,0A2.3,2.3,0,0,0,77,51.29L87.13,34.4a2.36,2.36,0,0,1,3.24-.81h0a2.36,2.36,0,0,1,.81,3.24L81,53.72A2.29,2.29,0,0,0,85,56.08L95.11,39.19a2.35,2.35,0,0,1,3.23-.81l0,0a2.37,2.37,0,0,1,.8,3.24L83.42,67.9C81.53,71,77.76,72.24,75,70.58l-1.11-.66ZM88.42,142.7l-1.18.56c-.21-.31.46-.79.46-.79a18,18,0,0,1-1.87.43c-.53.06-1,.08-1.45.1s-.94,0-1.49.07-1.21,0-2,.11c.25.1,1,1.09-.42,1.47-1,.37-1.24-.28-2.13-.28.53-.17,1-.8,1.69-.45l-.13-.75a4.21,4.21,0,0,0,1.4-1c.8-.15,1.61-.29,2.18.36,1.59.24,1.65-.82,2.86-1.05,0,.29-.34.85.31.93,1-.19,2-.33,2.93-.47a3.13,3.13,0,0,1-.26.25l.28-.08A13,13,0,0,1,88.42,142.7ZM112,134.94a.12.12,0,0,0,0-.09l.43-.15C112.43,134.84,112.35,135,112,134.94ZM79.13,124.23c-2.06,3.42-4.61,4-6.58,2.83s-2.63-3.72-.58-7.13L83.36,101,80,99v0c-2.14-1.32-2.68-4.36-1.2-6.82l3.62-6c15.63-26,31.3-38.51,36.91-35.14l2.78,1.68ZM126,34.77l.19.12,0,.1Zm17.07,30.15a3.41,3.41,0,0,0-1.23,2.14,2,2,0,0,1-.3,1.67,55.51,55.51,0,0,0-1.69-10c-.5-1.94-1.08-3.75-1.69-5.43a4.49,4.49,0,0,0,.19-1.31,1.33,1.33,0,0,0-1-.71,61.86,61.86,0,0,0-4.06-8.24c-1.18-1.41-2.48-2.87-3.73-4.4l-2-2.2-.34-.37A12.43,12.43,0,0,1,129,37.22a32.43,32.43,0,0,1,2.56,2.45c.78.9,1.61,1.74,2.31,2.46a4.93,4.93,0,0,0,2.08,1.42c.49,1.7-.85-.08-1.26,0a11.35,11.35,0,0,0,1.48,1.77,2.53,2.53,0,0,1,.92,2c-.24.11-1-1.43-.81-.66-.08,1,1,.92.93,2.08.15-.31.62-.08,1.1.42a9.11,9.11,0,0,1,1.32,2c-.09-.27-.09-.27-.07-.41.3-.35.68.74.9,1.33a.34.34,0,0,1-.21-.17,31.75,31.75,0,0,1,2.85,12.28C143.09,64.44,143.08,64.68,143.08,64.92ZM144.83,78a1.66,1.66,0,0,1,.06-.16l0,.06Z"/></svg>