<?xml version="1.0" encoding="utf-8"?>
<!-- Generator: Adobe Illustrator 26.0.0, SVG Export Plug-In . SVG Version: 6.00 Build 0)  -->
<svg version="1.1" id="Capa_1" xmlns="http://www.w3.org/2000/svg" xmlns:xlink="http://www.w3.org/1999/xlink" x="0px" y="0px"
	 viewBox="0 0 335 113.6" style="enable-background:new 0 0 335 113.6;" xml:space="preserve">
<style type="text/css">
	.st0{fill:#FFFFFF;}
	.st1{fill:#E96B00;}
</style>
<g>
	<g>
		<path class="st0" d="M142.5,26.2h-7.6v-2.9h18.5v2.9h-7.6v22.5h-3.3V26.2z"/>
		<path class="st0" d="M156.8,30.1v14.2c0,1.2,0.6,1.7,1.8,1.7c1.4,0,4.2-0.8,6.2-1.9V30.1h3.2v18.6h-2.6l-0.3-1.6
			c-2.1,1-5.3,2-7.5,2c-3,0-4.1-1.9-4.1-4.7V30.1H156.8z"/>
		<path class="st0" d="M172.4,42.4v-5.8c0-4.3,1.6-6.8,7.4-6.8c1.6,0,3.5,0.3,4.4,0.6L184,33c-1.4-0.3-2.8-0.4-4.1-0.4
			c-3.2,0-4.3,0.9-4.3,3.8v6.1c0,2.9,1.1,3.8,4.3,3.8c1.3,0,2.6-0.1,4.1-0.4l0.3,2.7c-1,0.3-2.8,0.6-4.5,0.6
			C173.9,49.1,172.4,46.7,172.4,42.4z"/>
		<path class="st0" d="M191.7,30.1v14.2c0,1.2,0.6,1.7,1.8,1.7c1.4,0,4.2-0.8,6.2-1.9V30.1h3.2v18.6h-2.6l-0.3-1.6
			c-2.1,1-5.3,2-7.5,2c-3,0-4.1-1.9-4.1-4.7V30.1H191.7z"/>
		<path class="st0" d="M230.9,48.8V34.5c0-1.2-0.6-1.7-1.8-1.7c-1.5,0-4.2,0.8-6.2,1.9v14h-3.2V34.5c0-1.2-0.6-1.7-1.8-1.7
			c-1.4,0-4.2,0.8-6.2,1.9v14h-3.2V30.1h2.6l0.3,1.6c2.1-1,5.3-2,7.5-2c1.9,0,3,0.7,3.6,2c2.2-1.1,5.4-2,7.7-2c3,0,4.1,1.9,4.1,4.7
			v14.2L230.9,48.8L230.9,48.8z"/>
		<path class="st0" d="M252.6,48.8h-2.7l-0.2-1.4c-1.6,1.2-3.8,1.8-6,1.8c-3.5,0-4.9-2.1-4.9-5.3c0-3.9,1.9-5.2,5.7-5.2h5v-2.9
			c0-2.3-1-3.1-4.1-3.1c-1.8,0-4.1,0.3-5.6,0.6l-0.3-2.6c1.8-0.5,4.1-0.8,6.1-0.8c5.3,0,7.1,2.1,7.1,6L252.6,48.8L252.6,48.8z
			 M249.4,41.2h-4.7c-2,0-2.7,0.6-2.7,2.5c0,1.9,0.3,2.7,2.6,2.7c1.6,0,3.4-0.6,4.8-1.5L249.4,41.2L249.4,41.2z M243.3,25.9
			c1.9-1.1,3.9-2.4,5.2-3.5l1.4,2.1c-1.8,1.3-3.4,2.3-5.3,3.3L243.3,25.9z"/>
		<path class="st0" d="M268.9,48.8V34.5c0-1.2-0.6-1.7-1.8-1.7c-1.4,0-4.2,0.8-6.2,1.9v14h-3.2V30.1h2.6l0.3,1.6c2.1-1,5.3-2,7.5-2
			c3,0,4,1.9,4,4.7v14.2L268.9,48.8L268.9,48.8z"/>
		<path class="st0" d="M141.2,73.2v0.5c0,2.1,0.8,2.7,3.4,2.7c1.7,0,4-0.3,5.6-0.8l0.8,4.1c-1.7,0.6-4.4,1.2-7,1.2
			c-6,0-8.3-3-8.3-7.6V69c0-4,1.8-7.5,8-7.5s7.5,3.7,7.5,7.7v3.9H141.2z M146,68.3c0-1.3-0.4-2.4-2.3-2.4c-1.9,0-2.5,1.1-2.5,2.4
			v0.8h4.8V68.3z"/>
		<path class="st0" d="M165.5,80.6V68.3c0-0.8-0.4-1.3-1.3-1.3c-1,0-2.8,0.7-4,1.3v12.3h-5.5V62h4.1l0.6,1.4
			c2.3-1.1,5.3-1.8,7.4-1.8c3.2,0,4.3,2.4,4.3,6v13H165.5z"/>
		<path class="st0" d="M193.2,60.2v20.4h-5.7V60.2h-6.8v-5.1H200v5.1H193.2z"/>
		<path class="st0" d="M205,62v12.3c0,0.8,0.4,1.3,1.3,1.3c1,0,2.8-0.7,4-1.3V62h5.5v18.6h-4.1l-0.6-1.4c-2.3,1.1-5.3,1.8-7.4,1.8
			c-3.2,0-4.3-2.4-4.3-6V62H205z"/>
		<path class="st0" d="M233.2,66.4l-0.4,14.1h-5.5l1.1-25.4h5.7l6.1,16.2l6.1-16.2h5.7l1.1,25.4h-5.5l-0.4-14.1l-4.4,10.8h-5.1
			L233.2,66.4z"/>
		<path class="st0" d="M261.7,73.2v0.5c0,2.1,0.8,2.7,3.4,2.7c1.7,0,4-0.3,5.6-0.8l0.8,4.1c-1.7,0.6-4.4,1.2-7,1.2
			c-6,0-8.3-3-8.3-7.6V69c0-4,1.8-7.5,8-7.5s7.5,3.7,7.5,7.7v3.9H261.7z M266.5,68.3c0-1.3-0.4-2.4-2.3-2.4s-2.5,1.1-2.5,2.4v0.8
			h4.8V68.3z"/>
		<path class="st0" d="M281,81c-2,0-4.9-0.5-6.8-1.1l0.9-4.1c1.5,0.5,3.5,0.8,5.6,0.8c1.6,0,1.9-0.5,1.9-1.6c0-1.2,0-1.3-3-2.1
			c-4.5-1.1-4.9-2.3-4.9-5.8c0-3.9,1.5-5.6,7.1-5.6c1.4,0,4,0.2,5.6,0.6l-0.5,4.3c-1.6-0.3-3.7-0.5-5.1-0.5c-1.6,0-2,0.4-2,1.3
			c0,1.2,0.1,1.3,2.4,1.8c5.3,1.2,5.7,2.3,5.7,6C287.9,78.9,286.3,81,281,81z"/>
		<path class="st0" d="M301.1,80.6l-0.4-1.2c-2.1,1.2-4,1.6-5.3,1.6c-3.4,0-4.9-2.5-4.9-5.7c0-3.7,1.7-5.2,5.5-5.2h4v-1.4
			c0-1.9-0.3-2.6-3.3-2.6c-1.6,0-3.3,0.2-5,0.5l-0.7-4.1c1.8-0.5,4.5-0.9,6.7-0.9c6.5,0,7.9,2,7.9,7.1v11.9
			C305.6,80.6,301.1,80.6,301.1,80.6z M300.1,73.9h-2.6c-1.2,0-1.6,0.3-1.6,1.3s0.4,1.4,1.5,1.4c1.1,0,2-0.3,2.8-0.7L300.1,73.9
			L300.1,73.9z"/>
	</g>
</g>
<circle class="st1" cx="56.8" cy="56.8" r="56.8"/>
<g>
	<g>
		<g>
			<path class="st0" d="M60.3,31.7c-4.9-2.5-10.7-2.6-15.8-0.1c-5.1,2.5-8.6,7.1-9.7,12.5c-0.2,0.9,0.4,1.7,1.3,1.9
				c0.9,0.2,1.7-0.4,1.9-1.3c0.8-4.4,3.6-8.2,7.9-10.3c4.3-2.1,9-1.9,13,0.1c0.8,0.4,1.8,0.1,2.2-0.7C61.5,33.1,61.1,32.1,60.3,31.7
				z"/>
		</g>
	</g>
	<path class="st0" d="M94,71.8c-0.2-0.2-0.3-0.7-0.2-1c1.1-5-0.8-9.5-5.1-12.3c-0.2-0.2-0.5-0.5-0.5-0.8c-0.5-2.8-1.9-5.3-4-7
		c0.4-0.2,0.8-0.5,1.3-0.7c0.1-0.1,0.1-0.2,0.2-0.3c6.5-5.3,5.2-15.3-2.3-18.9c-0.3-0.1-0.6-0.5-0.7-0.8c-1.5-4.9-5.4-7.9-10.5-8.2
		c-0.3,0-0.7-0.2-0.8-0.4c-3.1-3.9-8.1-5.3-12.7-3.6c-0.3,0.1-0.7,0.1-1,0c-4.6-2.4-9.4-1.9-13.3,1.6c-0.2,0.2-0.6,0.3-0.8,0.3
		c-5.1-0.5-9.4,1.9-11.6,6.5c-0.1,0.3-0.4,0.5-0.7,0.6c-4.9,1.5-7.9,5.4-8.2,10.5c0,0.3-0.2,0.7-0.4,0.8c-3.9,2.9-5.4,8.3-3.6,12.8
		c0.1,0.2,0.1,0.6-0.1,0.9c-2.2,4.1-2.1,8.1,0.6,11.9c1,1.3,1.3,2.6,1.3,4.1c0,1.3,0.5,2.6,0.7,3.8c0.1,0.2,0.3,0.5,0.4,0.8
		c-0.1,0.3-0.3,0.7-0.5,1c-0.6,1.1-0.9,2.4-1.2,3.7c0,0.9,0,1.9,0,2.8c0.1,0.5,0.2,0.9,0.4,1.4c1.4,4.5,4.4,7.2,9,8.1
		c0.1,0,0.2,0.1,0.3,0.1c18.9,0,37.8,0,56.7,0c0.1-0.1,0.2-0.1,0.3-0.1C95.1,88,98.9,78.6,94,71.8z M23.7,52.9c0.9-1,0.9-1,0.2-2.1
		c-2.3-3.7-1-8,2.8-9.9c1.1-0.6,1.1-0.6,0.9-1.8c-0.5-3.3,0.8-6,3.6-7.4c0.9-0.4,2-0.6,3-0.7c0.8-0.1,1.1-0.3,1.2-1.1
		c0.3-1.7,1-3.1,2.4-4.2c1.9-1.5,4-1.9,6.3-1.2c1.6,0.5,1.6,0.5,2.5-0.8c2.4-3.2,6.7-3.7,9.8-1.1c1.2,1,1.2,1,2.4,0.2
		c3.5-2.1,7.7-0.9,9.6,2.7c0.2,0.3,0.3,0.6,0.4,0.9c0.1,0.4,0.4,0.5,0.8,0.4c1-0.1,2.1-0.3,3.1-0.2c3,0.4,5.4,2.7,5.6,5.7
		c0.1,1.5,0.6,2.1,2.1,2.4c5,1.3,6.5,7.6,2.8,11.1c-0.5,0.5-1.2,0.9-1.8,1.3c-0.8,0.4-1.6,0.9-2.3,1.3c-0.1,0-0.2,0-0.4-0.1
		c-0.3,0-0.7-0.3-0.8-0.5c-2.8-4.4-7.3-6.2-12.3-5.1c-0.3,0.1-0.6,0-0.9-0.2c-4.2-3-9.2-3-13.3,0c-0.2,0.2-0.6,0.2-0.9,0.2
		c-4.9-1.1-9.5,0.8-12.3,5.1c-0.2,0.2-0.5,0.5-0.7,0.5c-4.8,0.6-8.8,4.6-9.4,9.4c0,0.3-0.3,0.6-0.5,0.7c-1.6,1-2.8,2.2-3.7,3.5
		C21.4,59.6,21.2,55.8,23.7,52.9z M86.7,84.9c-0.7,0.2-1.5,0.2-2.2,0.2c-8.8,0-17.6,0-26.3,0c-8.9,0-17.7,0-26.6,0
		c-3.3,0-6-2-6.7-5.1c-0.6-2.6,0.1-4.9,2.1-6.7c1-0.9,1-0.9,0.4-2.2c-1.8-3.9-0.1-7.9,3.9-9.4c1.2-0.5,1.2-0.5,1.2-1.8
		c-0.2-4.3,3-7.5,7.3-7.2c1.2,0.1,1.2,0.1,1.7-1.1c1.2-3.1,3.6-4.9,6.8-4.7c1,0.1,2,0.5,3,0.9c0.7,0.3,1.1,0.3,1.6-0.3
		c1.1-1.3,2.4-2.2,4.2-2.5c2.4-0.4,4.4,0.3,6.1,2c1.1,1.2,1.1,1.2,2.6,0.5c3.6-1.6,7.4,0,9,3.5c0,0,0,0,0,0c0,0.1,0.1,0.2,0.1,0.3
		c0.6,1.4,0.6,1.4,2,1.4c1.1,0,2.1,0.2,3,0.5c0,0,0,0,0,0c2.5,1,4.2,3.5,4.1,6.5c0,0.3,0,0.7-0.1,1c-0.1,0.4,0.1,0.6,0.5,0.8
		c0.9,0.4,2,0.8,2.8,1.4c2.4,1.8,3.3,5,2.1,7.8c-0.6,1.3-0.5,2.1,0.6,3.1C93.4,77.3,91.7,83.6,86.7,84.9z"/>
	<path class="st0" d="M58.6,53.4c-5.7-0.3-11,2-14.6,6.2c-0.6,0.7-0.5,1.7,0.2,2.2s1.7,0.5,2.2-0.2c2.9-3.4,7.2-5.4,11.9-5.1
		c4.8,0.3,8.8,2.8,11.3,6.5c0.5,0.7,1.5,0.9,2.2,0.5c0.7-0.5,0.9-1.5,0.4-2.2C69.2,56.7,64.2,53.8,58.6,53.4z"/>
</g>
</svg>
