<svg xmlns="http://www.w3.org/2000/svg" shape-rendering="geometricPrecision" text-rendering="geometricPrecision" image-rendering="optimizeQuality" fill-rule="evenodd" clip-rule="evenodd" viewBox="0 0 512 356.179">
    <path fill="#74ACDF" fill-rule="nonzero" d="M28.137 0H483.86C499.337 0 512 12.663 512 28.14v299.9c0 15.477-12.663 28.139-28.14 28.139H28.137C12.663 356.179 0 343.517 0 328.04V28.14C0 12.663 12.663 0 28.137 0z"></path>
    <path fill="#fff" fill-rule="nonzero" d="M0 237.459h512V118.728H0z"></path>
    <path fill="#F6B40E" fill-rule="nonzero" d="M253.749 179.023l20.27 44.162s.348.844.912.611c.563-.232.213-1.077.213-1.077l-16.894-45.56-4.501 1.864zm4.016 15.318c-.247 6.716 3.884 10.41 3.344 16.408-.539 5.998 2.755 9.389 3.519 11.721.764 2.333-.827 3.727-.141 4.059.686.332 2.187-1.511 1.697-4.827-.489-3.316-3.006-4.3-2.414-11.625.591-7.326-2.996-9.032-2.123-15.714l-3.882-.022zm0 0z"></path>
    <path fill="#85340A" fill-rule="nonzero" d="M254.108 178.859l7.135 15.547.012-.094.783.102c-.067.512-.107.995-.124 1.453l12.465 27.158c0 .001.207.486.401.406.202-.083.004-.551.003-.552l-.011-.022-16.894-45.561.743-.275 16.894 45.561c.06.169.416 1.228-.434 1.579-.901.371-1.388-.735-1.421-.813l-11.662-25.407c.176 1.462.58 2.693.993 3.953.721 2.203 1.473 4.494 1.173 8.213-.382 4.736.561 6.758 1.382 8.52.444.952.855 1.834 1.029 3.018.259 1.754-.017 3.13-.449 4.022a3.177 3.177 0 01-.594.867c-.242.24-.501.383-.745.419a.808.808 0 01-.472-.068c-.601-.291-.446-.744-.208-1.444.22-.647.55-1.614.145-2.849-.194-.591-.576-1.283-1.015-2.079-1.241-2.246-2.926-5.297-2.521-9.798.263-2.918-.625-5.305-1.545-7.781-.946-2.543-1.926-5.18-1.801-8.607l.789.028c-.12 3.272.832 5.833 1.751 8.304.952 2.561 1.87 5.03 1.592 8.123-.383 4.261 1.235 7.192 2.428 9.351.458.829.856 1.549 1.074 2.214.486 1.485.106 2.601-.149 3.348-.101.299-.226.464-.196.478l.013-.002c.079-.012.185-.079.304-.197.149-.149.302-.367.439-.651.374-.773.611-1.986.378-3.564-.157-1.066-.545-1.898-.965-2.799-.862-1.849-1.852-3.971-1.453-8.914.288-3.564-.438-5.779-1.136-7.907-.603-1.839-1.185-3.617-1.121-6.114l-7.728-16.838.718-.328z"></path>
    <path fill="#F6B40E" fill-rule="nonzero" d="M253.563 178.09l1.827 48.557s-.001.914.608.914c.609.001.609-.913.609-.913l1.827-48.558h-4.871zm-2.152 15.69c-2.798 6.11-.395 11.103-3.189 16.438-2.794 5.335-1.048 9.728-1.234 12.176-.187 2.447-2.19 3.127-1.684 3.696.507.569 2.598-.559 3.416-3.81.816-3.251-1.132-5.124 2.217-11.665 3.35-6.542.688-9.49 4.053-15.33l-3.579-1.505zm0 0z"></path>
    <path fill="#85340A" fill-rule="nonzero" d="M253.957 178.076l.643 17.096.048-.084.683.394c-.258.447-.479.878-.67 1.295l1.125 29.87c0 .002 0 .519.212.52.213 0 .213-.518.213-.519l1.829-48.572.789.028-1.827 48.544c.001.004.001 1.308-1.004 1.308-1.005-.002-1.004-1.305-1.004-1.309l-1.05-27.922c-.396 1.419-.494 2.709-.595 4.031-.175 2.31-.358 4.714-2.061 8.038-2.165 4.228-2.068 6.458-1.983 8.4.046 1.053.088 2.026-.202 3.182-.432 1.721-1.215 2.887-1.955 3.546a3.167 3.167 0 01-.88.572c-.316.13-.61.163-.848.103a.81.81 0 01-.412-.244c-.444-.5-.127-.859.361-1.415.452-.513 1.126-1.28 1.224-2.574.048-.624-.04-1.408-.142-2.31-.286-2.55-.676-6.014 1.422-10.019 1.358-2.593 1.452-5.138 1.548-7.778.1-2.712.203-5.523 1.631-8.641l.718.328c-1.363 2.976-1.463 5.706-1.56 8.341-.1 2.73-.197 5.362-1.638 8.115-1.985 3.789-1.61 7.117-1.335 9.568.106.942.198 1.761.145 2.455-.118 1.559-.897 2.445-1.419 3.038-.207.237-.385.341-.364.366l.013.003c.078.019.201-.002.356-.066.195-.08.419-.223.654-.433.642-.571 1.326-1.602 1.714-3.147.263-1.049.223-1.966.181-2.956-.09-2.038-.192-4.377 2.069-8.792 1.627-3.178 1.805-5.503 1.974-7.738.147-1.93.289-3.795 1.305-6.078l-.697-18.516.789-.028z"></path>
    <path fill="#F6B40E" fill-rule="nonzero" d="M253.748 177.158l-16.894 45.56s-.35.843.212 1.077c.563.233.912-.611.912-.611l20.27-44.162-4.5-1.864zm-7.992 13.671c-4.923 4.575-4.614 10.107-9.237 13.967-4.623 3.86-4.691 8.587-5.8 10.776-1.108 2.19-3.22 2.051-2.97 2.771.25.72 2.615.478 4.613-2.213 1.999-2.69.916-5.166 6.514-9.928 5.598-4.762 4.268-8.505 9.61-12.612l-2.73-2.761zm0 0z"></path>
    <path fill="#85340A" fill-rule="nonzero" d="M254.119 177.295l-5.947 16.039.073-.057.482.625c-.409.315-.778.627-1.114.939l-10.388 28.014-.011.022c0 .001-.199.469.004.553.193.08.4-.404.4-.406l20.271-44.166.718.328-20.27 44.162c-.033.077-.522 1.185-1.422.812-.849-.352-.493-1.411-.43-1.579l9.716-26.21c-.908 1.158-1.492 2.312-2.09 3.494-1.046 2.066-2.135 4.217-4.98 6.637-3.618 3.079-4.382 5.175-5.046 7-.36.99-.693 1.904-1.405 2.863-1.058 1.424-2.227 2.203-3.163 2.528a3.187 3.187 0 01-1.032.192c-.341 0-.625-.083-.823-.23a.798.798 0 01-.285-.382c-.219-.63.211-.842.874-1.168.613-.301 1.529-.752 2.116-1.911.284-.562.502-1.317.753-2.187.711-2.468 1.678-5.819 5.146-8.714 2.249-1.878 3.309-4.193 4.408-6.593 1.13-2.468 2.301-5.026 4.813-7.36l.538.578c-2.399 2.229-3.536 4.713-4.633 7.109-1.138 2.486-2.235 4.882-4.619 6.872-3.286 2.744-4.213 5.958-4.895 8.325-.265.914-.494 1.709-.806 2.326-.705 1.393-1.765 1.915-2.474 2.264-.283.138-.486.169-.476.199l.01.008c.065.048.187.075.353.075.214.001.476-.046.772-.148.812-.283 1.838-.974 2.788-2.253.644-.866.958-1.729 1.298-2.662.697-1.918 1.499-4.119 5.278-7.332 2.719-2.313 3.772-4.393 4.784-6.392.874-1.727 1.72-3.396 3.529-5.115l6.443-17.374.742.275z"></path>
    <path fill="#F6B40E" fill-rule="nonzero" d="M254.276 176.367l-33.043 35.627s-.646.645-.216 1.076c.431.432 1.077-.215 1.077-.215l35.627-33.043-3.445-3.445zm-12.615 9.573c-6.299 2.342-8.131 7.572-13.879 9.368-5.747 1.797-7.62 6.138-9.482 7.736-1.863 1.599-3.76.663-3.804 1.424-.045.761 2.232 1.442 5.109-.279 2.876-1.721 2.822-4.423 9.817-6.68 6.994-2.257 7.197-6.224 13.705-7.975l-1.466-3.594zm0 0z"></path>
    <path fill="#85340A" fill-rule="nonzero" d="M254.565 176.636l-11.632 12.541.092-.025.204.765a15.42 15.42 0 00-1.39.441l-20.326 21.916c-.001.001-.367.367-.216.518.149.15.516-.216.516-.217l35.639-33.053.538.579-35.617 33.034c-.002.002-.925.926-1.636.214-.709-.711.214-1.633.216-1.635l19-20.485c-1.283.722-2.265 1.565-3.271 2.429-1.758 1.509-3.587 3.08-7.14 4.227-4.522 1.458-6.029 3.103-7.341 4.535-.711.777-1.37 1.495-2.394 2.107-1.522.911-2.899 1.183-3.887 1.126a3.181 3.181 0 01-1.029-.217c-.314-.131-.545-.316-.672-.529a.798.798 0 01-.118-.461c.039-.667.517-.699 1.256-.746.682-.044 1.701-.11 2.686-.956.472-.405.964-1.022 1.531-1.732 1.601-2.007 3.777-4.733 8.091-6.082 2.795-.873 4.66-2.606 6.595-4.404 1.987-1.846 4.047-3.76 7.263-4.956l.275.739c-3.067 1.141-5.069 3.001-7 4.795-2.003 1.861-3.933 3.655-6.898 4.581-4.083 1.277-6.17 3.892-7.708 5.819-.59.741-1.104 1.384-1.635 1.84-1.186 1.018-2.363 1.094-3.151 1.145-.314.02-.514-.033-.516 0l.007.013c.04.068.142.139.297.204.197.082.457.14.769.158.859.05 2.072-.196 3.439-1.014.928-.555 1.548-1.231 2.218-1.962 1.378-1.505 2.961-3.232 7.681-4.755 3.399-1.097 5.168-2.616 6.868-4.075 1.469-1.262 2.889-2.481 5.219-3.376l12.599-13.584.578.538z"></path>
    <path fill="#85340A" fill-rule="nonzero" d="M259.07 195.479c.323 6.45 3.98 9.306 3.262 15.183 1.577-4.648-2.225-8.251-2.009-15.116l-1.253-.067zm-4.196-16.857l13.882 30.33-11.632-31.263-2.25.933zm0 0z"></path>
    <path fill="#85340A" fill-rule="nonzero" d="M252.182 195.33c-2.17 6.082.116 10.12-2.797 15.276 3.235-3.691 1.102-8.474 3.929-14.734l-1.132-.542zm2.574-17.179l1.218 33.334 1.218-33.336-2.436.002zm0 0z"></path>
    <path fill="#85340A" fill-rule="nonzero" d="M245.875 192.557c-4.332 4.789-3.766 9.394-8.43 13.042 4.401-2.171 4.261-7.408 9.268-12.109l-.838-.933zm8.953-14.887l-11.632 31.264 13.882-30.333-2.25-.931zm0 0z"></path>
    <path fill="#85340A" fill-rule="nonzero" d="M241.109 187.581c-5.835 2.766-7.074 7.238-12.779 8.824 4.898-.322 6.772-5.214 13.197-7.641l-.418-1.183zm13.968-10.327l-22.709 24.432 24.432-22.711-1.723-1.721zm0 0z"></path>
    <path fill="#F6B40E" fill-rule="nonzero" d="M255.066 175.839l-44.161 20.27s-.844.348-.612.912c.233.563 1.077.213 1.077.213l45.561-16.894-1.865-4.501zm-15.318 4.016c-6.715-.247-10.41 3.884-16.407 3.344-5.998-.54-9.389 2.755-11.721 3.519-2.333.764-3.728-.827-4.06-.141-.331.686 1.511 2.187 4.827 1.697 3.316-.489 4.301-3.006 11.626-2.414 7.326.591 9.032-2.996 15.714-2.123l.021-3.882zm0 0z"></path>
    <path fill="#85340A" fill-rule="nonzero" d="M255.23 176.197l-15.547 7.136.095.012-.103.783a15.668 15.668 0 00-1.453-.124l-27.158 12.465c-.001 0-.486.207-.405.401.083.202.551.004.552.003l.022-.011 45.56-16.894.275.743-45.56 16.894c-.169.06-1.228.416-1.58-.434-.371-.901.736-1.388.813-1.421l25.408-11.662c-1.462.176-2.693.58-3.954.993-2.202.722-4.494 1.473-8.213 1.173-4.736-.382-6.758.56-8.519 1.382-.953.444-1.834.855-3.019 1.03-1.753.258-3.129-.018-4.022-.45a3.177 3.177 0 01-.867-.594c-.241-.242-.383-.501-.419-.745a.8.8 0 01.069-.472c.29-.601.744-.446 1.443-.208.647.22 1.614.55 2.849.145.592-.194 1.283-.576 2.079-1.015 2.247-1.241 5.297-2.926 9.799-2.521 2.918.263 5.304-.625 7.781-1.545 2.543-.946 5.18-1.926 8.606-1.801l-.028.789c-3.272-.12-5.833.832-8.303 1.751-2.562.952-5.031 1.87-8.124 1.592-4.261-.383-7.192 1.235-9.35 2.428-.829.458-1.55.856-2.215 1.073-1.484.487-2.6.107-3.348-.148-.298-.102-.464-.226-.478-.197l.002.014c.012.08.079.185.197.303.15.15.368.303.651.44.773.374 1.987.611 3.564.378 1.066-.157 1.899-.545 2.799-.966 1.849-.861 3.972-1.851 8.915-1.452 3.563.288 5.778-.438 7.907-1.136 1.838-.603 3.617-1.185 6.113-1.121l16.838-7.728.328.717z"></path>
    <path fill="#F6B40E" fill-rule="nonzero" d="M255.999 175.653l-48.557 1.827s-.913-.001-.914.609c0 .608.913.608.913.608l48.558 1.827v-4.871zm-15.689-2.152c-6.111-2.798-11.104-.395-16.438-3.189-5.335-2.794-9.729-1.048-12.176-1.234-2.448-.187-3.127-2.19-3.696-1.684-.57.507.559 2.598 3.809 3.416 3.251.816 5.124-1.132 11.666 2.217 6.541 3.35 9.49.688 15.329 4.053l1.506-3.579zm0 0z"></path>
    <path fill="#85340A" fill-rule="nonzero" d="M256.013 176.047l-17.095.643.083.048-.393.683c-.448-.258-.879-.48-1.295-.67l-29.871 1.125c-.001 0-.519 0-.519.212 0 .213.517.213.518.213l48.572 1.829-.028.789-48.544-1.827c-.003.001-1.308.001-1.307-1.004.001-1.005 1.304-1.004 1.308-1.004l27.922-1.05c-1.418-.396-2.709-.494-4.031-.595-2.31-.175-4.714-.358-8.038-2.06-4.228-2.165-6.458-2.068-8.399-1.984-1.053.046-2.027.088-3.183-.202-1.721-.432-2.887-1.214-3.546-1.955a3.19 3.19 0 01-.572-.88c-.13-.316-.162-.61-.103-.848a.811.811 0 01.245-.412c.499-.443.859-.127 1.414.362.514.451 1.281 1.125 2.574 1.224.625.047 1.408-.041 2.31-.143 2.551-.286 6.014-.676 10.019 1.422 2.593 1.358 5.139 1.452 7.779 1.548 2.711.1 5.522.203 8.641 1.632l-.328.717c-2.977-1.363-5.707-1.463-8.341-1.559-2.731-.101-5.363-.197-8.116-1.639-3.789-1.984-7.117-1.61-9.567-1.335-.942.106-1.762.198-2.455.145-1.559-.118-2.446-.897-3.039-1.418-.236-.208-.341-.386-.365-.365l-.003.013c-.02.078.002.201.065.356.08.195.223.419.433.654.572.642 1.602 1.326 3.147 1.714 1.049.263 1.966.223 2.957.181 2.037-.089 4.376-.191 8.792 2.07 3.178 1.627 5.503 1.804 7.738 1.974 1.929.146 3.795.288 6.077 1.304l18.516-.697.028.789z"></path>
    <path fill="#F6B40E" fill-rule="nonzero" d="M256.932 175.838l-45.56-16.894s-.844-.35-1.077.213c-.234.562.611.911.611.911l44.162 20.27 1.864-4.5zm-13.672-7.992c-4.574-4.923-10.107-4.614-13.966-9.237-3.861-4.623-8.588-4.691-10.777-5.8-2.19-1.108-2.051-3.22-2.77-2.97-.72.25-.478 2.615 2.212 4.614 2.691 1.998 5.167.915 9.929 6.513 4.761 5.598 8.505 4.268 12.612 9.61l2.76-2.73zm0 0z"></path>
    <path fill="#85340A" fill-rule="nonzero" d="M256.794 176.209l-16.039-5.947.057.073-.625.482a15.54 15.54 0 00-.939-1.114l-28.014-10.387-.022-.011c0-.001-.468-.2-.552.003-.08.193.404.4.405.4l44.167 20.271-.328.718-44.163-20.27c-.077-.033-1.185-.521-.812-1.422.353-.849 1.411-.493 1.58-.43l26.209 9.716c-1.158-.907-2.311-1.492-3.493-2.09-2.067-1.046-4.218-2.135-6.638-4.98-3.078-3.618-5.174-4.381-7-5.046-.989-.359-1.904-.693-2.863-1.405-1.424-1.058-2.202-2.227-2.527-3.163a3.186 3.186 0 01-.193-1.031c.001-.341.084-.626.23-.823a.798.798 0 01.383-.286c.629-.219.841.211 1.167.875.301.612.752 1.528 1.911 2.115.562.284 1.318.502 2.187.753 2.468.712 5.82 1.678 8.715 5.146 1.878 2.249 4.192 3.309 6.593 4.408 2.467 1.13 5.025 2.301 7.359 4.814l-.578.537c-2.229-2.398-4.713-3.536-7.109-4.633-2.486-1.138-4.881-2.235-6.872-4.619-2.743-3.286-5.958-4.213-8.324-4.895-.915-.264-1.709-.493-2.327-.806-1.393-.705-1.914-1.765-2.263-2.474-.139-.283-.17-.486-.199-.476l-.008.011c-.048.064-.076.186-.076.353 0 .213.046.475.149.771.282.812.973 1.838 2.252 2.789.866.643 1.73.958 2.662 1.297 1.918.698 4.119 1.499 7.333 5.278 2.312 2.719 4.392 3.773 6.392 4.785 1.726.873 3.396 1.719 5.115 3.528l17.373 6.443-.275.742z"></path>
    <path fill="#F6B40E" fill-rule="nonzero" d="M257.722 176.366l-35.627-33.043s-.645-.646-1.076-.216c-.431.431.215 1.077.215 1.077l33.044 35.627 3.444-3.445zm-9.572-12.615c-2.342-6.299-7.572-8.131-9.368-13.879-1.798-5.747-6.139-7.62-7.737-9.482-1.599-1.863-.663-3.76-1.423-3.804-.761-.045-1.442 2.232.278 5.109 1.722 2.876 4.424 2.822 6.68 9.817 2.258 6.994 6.225 7.197 7.975 13.705l3.595-1.466zm0 0z"></path>
    <path fill="#85340A" fill-rule="nonzero" d="M257.453 176.655l-12.541-11.632.025.092-.764.204c-.134-.5-.282-.961-.442-1.391l-21.916-20.325s-.367-.367-.517-.216c-.15.149.216.516.216.516l33.053 35.639-.578.538-33.034-35.617c-.003-.002-.926-.925-.214-1.636.71-.709 1.632.214 1.634.216l20.485 19c-.722-1.283-1.565-2.265-2.429-3.27-1.509-1.758-3.08-3.588-4.226-7.14-1.459-4.523-3.104-6.03-4.535-7.342-.777-.711-1.495-1.37-2.108-2.394-.911-1.522-1.182-2.899-1.125-3.887.023-.408.102-.756.216-1.028.131-.315.317-.545.529-.672a.801.801 0 01.461-.119c.667.039.699.517.747 1.256.043.682.11 1.701.955 2.686.405.472 1.022.965 1.732 1.531 2.007 1.602 4.733 3.776 6.082 8.091.874 2.795 2.606 4.66 4.404 6.595 1.846 1.987 3.761 4.047 4.957 7.264l-.74.275c-1.14-3.068-3-5.07-4.795-7.001-1.861-2.003-3.655-3.933-4.581-6.898-1.276-4.083-3.892-6.17-5.819-7.707-.74-.591-1.384-1.105-1.84-1.636-1.018-1.186-1.094-2.363-1.144-3.151-.021-.314.032-.514-.001-.516l-.013.007c-.068.041-.139.143-.204.298-.082.196-.14.456-.158.768-.049.859.196 2.072 1.014 3.44.555.927 1.232 1.547 1.962 2.217 1.505 1.378 3.233 2.961 4.755 7.681 1.098 3.4 2.616 5.168 4.076 6.868 1.261 1.469 2.48 2.889 3.375 5.219l13.584 12.599-.538.578z"></path>
    <path fill="#85340A" fill-rule="nonzero" d="M238.611 181.16c-6.45.323-9.306 3.98-15.184 3.262 4.648 1.577 8.252-2.225 15.117-2.009l.067-1.253zm16.857-4.196l-30.331 13.882 31.264-11.632-.933-2.25zm0 0z"></path>
    <path fill="#85340A" fill-rule="nonzero" d="M238.759 174.272c-6.082-2.17-10.12.116-15.276-2.797 3.691 3.235 8.475 1.102 14.735 3.929l.541-1.132zm17.18 2.574l-33.334 1.218 33.335 1.218-.001-2.436zm0 0z"></path>
    <path fill="#85340A" fill-rule="nonzero" d="M241.533 167.965c-4.789-4.332-9.394-3.766-13.043-8.43 2.172 4.401 7.408 4.261 12.11 9.268l.933-.838zm14.886 8.953l-31.263-11.631 30.332 13.881.931-2.25zm0 0z"></path>
    <path fill="#85340A" fill-rule="nonzero" d="M246.509 163.199c-2.767-5.835-7.238-7.074-8.824-12.779.322 4.898 5.213 6.772 7.64 13.197l1.184-.418zm10.327 13.968l-24.432-22.709 22.71 24.432 1.722-1.723zm0 0z"></path>
    <path fill="#F6B40E" fill-rule="nonzero" d="M258.251 177.156l-20.27-44.161s-.349-.844-.912-.612c-.563.233-.213 1.077-.213 1.077l16.894 45.561 4.501-1.865zm-4.016-15.318c.246-6.715-3.885-10.409-3.345-16.407.54-5.998-2.754-9.389-3.518-11.721-.765-2.333.826-3.728.141-4.059-.686-.332-2.187 1.51-1.698 4.826.489 3.316 3.007 4.301 2.415 11.626-.591 7.326 2.996 9.032 2.123 15.714l3.882.021zm0 0z"></path>
    <path fill="#85340A" fill-rule="nonzero" d="M257.892 177.321l-7.136-15.547-.012.094-.782-.102c.067-.513.106-.995.123-1.453l-12.464-27.158c-.001-.001-.208-.487-.402-.406-.202.083-.003.551-.003.552l.011.022 16.894 45.56-.742.275-16.894-45.56c-.061-.169-.417-1.228.434-1.579.901-.372 1.388.735 1.42.813l11.663 25.406c-.177-1.461-.58-2.692-.993-3.953-.722-2.202-1.474-4.494-1.174-8.213.383-4.736-.56-6.758-1.381-8.519-.444-.953-.855-1.834-1.03-3.018-.259-1.754.018-3.13.449-4.022.177-.367.384-.658.594-.868.242-.24.501-.383.746-.419a.81.81 0 01.472.069c.6.291.446.744.208 1.443-.221.648-.55 1.614-.145 2.85.193.591.575 1.282 1.015 2.078 1.24 2.247 2.925 5.297 2.521 9.799-.264 2.918.624 5.304 1.545 7.781.946 2.543 1.926 5.18 1.8 8.607l-.789-.029c.12-3.272-.832-5.832-1.751-8.303-.952-2.562-1.87-5.03-1.591-8.124.383-4.26-1.236-7.192-2.428-9.35-.458-.829-.856-1.55-1.074-2.215-.486-1.484-.107-2.6.148-3.348.102-.298.226-.464.197-.478l-.013.003c-.08.011-.185.078-.304.196-.15.15-.303.368-.44.651-.374.774-.61 1.987-.378 3.564.157 1.066.546 1.899.966 2.799.862 1.849 1.852 3.972 1.452 8.915-.287 3.563.439 5.778 1.136 7.907.603 1.839 1.186 3.616 1.121 6.113l7.729 16.838-.718.329z"></path>
    <path fill="#F6B40E" fill-rule="nonzero" d="M258.437 178.089l-1.827-48.557s0-.913-.609-.914c-.609 0-.609.913-.609.913l-1.827 48.558h4.872zm2.151-15.689c2.798-6.111.395-11.104 3.19-16.438 2.793-5.335 1.047-9.729 1.234-12.176.186-2.448 2.19-3.127 1.684-3.696-.507-.569-2.599.559-3.416 3.809-.817 3.251 1.132 5.124-2.218 11.666-3.349 6.541-.688 9.49-4.052 15.329l3.578 1.506zm0 0z"></path>
    <path fill="#85340A" fill-rule="nonzero" d="M258.042 178.103l-.643-17.095-.047.083-.684-.393c.258-.448.48-.879.671-1.295l-1.125-29.87c0-.002 0-.52-.213-.52-.212 0-.213.517-.213.518l-1.829 48.572-.788-.028 1.826-48.544c-.001-.003-.001-1.307 1.004-1.307 1.005.001 1.005 1.305 1.005 1.309l1.049 27.921c.396-1.418.494-2.709.595-4.031.176-2.31.359-4.713 2.061-8.038 2.165-4.228 2.068-6.457 1.983-8.399-.045-1.053-.088-2.026.202-3.182.432-1.722 1.215-2.887 1.955-3.546.303-.269.605-.46.881-.573.315-.13.609-.162.848-.102a.8.8 0 01.411.244c.444.499.127.859-.361 1.414-.451.514-1.125 1.281-1.224 2.575-.048.624.041 1.408.142 2.309.287 2.551.676 6.014-1.421 10.019-1.359 2.594-1.452 5.139-1.549 7.779-.1 2.711-.203 5.522-1.631 8.641l-.718-.328c1.363-2.977 1.464-5.707 1.56-8.341.1-2.731.197-5.363 1.639-8.116 1.984-3.789 1.61-7.117 1.334-9.567-.105-.942-.197-1.761-.145-2.455.119-1.559.898-2.445 1.419-3.038.208-.237.386-.342.364-.366l-.012-.003c-.078-.02-.201.002-.356.065-.195.08-.419.224-.655.434-.642.571-1.325 1.601-1.713 3.146-.264 1.05-.224 1.966-.181 2.957.089 2.038.191 4.377-2.07 8.792-1.627 3.178-1.804 5.503-1.974 7.738-.147 1.929-.289 3.795-1.305 6.077l.697 18.516-.789.028z"></path>
    <path fill="#F6B40E" fill-rule="nonzero" d="M258.251 179.022l16.895-45.56s.35-.844-.213-1.077c-.563-.234-.912.611-.912.611l-20.27 44.162 4.5 1.864zm7.992-13.672c4.924-4.574 4.614-10.107 9.237-13.966 4.623-3.86 4.691-8.588 5.8-10.777s3.22-2.051 2.97-2.77c-.25-.72-2.614-.478-4.613 2.212-1.999 2.691-.915 5.167-6.513 9.929-5.598 4.761-4.268 8.504-9.61 12.612l2.729 2.76zm0 0z"></path>
    <path fill="#85340A" fill-rule="nonzero" d="M257.88 178.884l5.947-16.038-.072.056-.483-.624c.41-.315.778-.627 1.114-.939l10.388-28.014.011-.022c.001-.001.2-.469-.003-.553-.193-.08-.4.404-.401.405l-20.271 44.167-.718-.328 20.27-44.162c.034-.078.522-1.186 1.423-.812.849.352.492 1.411.429 1.579l-9.716 26.209c.908-1.157 1.492-2.311 2.09-3.493 1.047-2.067 2.135-4.217 4.98-6.637 3.619-3.079 4.382-5.175 5.046-7.001.36-.989.693-1.904 1.406-2.863 1.058-1.424 2.227-2.202 3.162-2.527a3.223 3.223 0 011.032-.193c.341.001.625.084.823.23.136.101.233.23.286.383.219.629-.211.841-.875 1.167-.613.302-1.528.752-2.115 1.911-.284.562-.503 1.318-.753 2.187-.712 2.468-1.679 5.82-5.146 8.715-2.25 1.878-3.309 4.192-4.408 6.593-1.13 2.467-2.301 5.025-4.814 7.36l-.538-.579c2.399-2.229 3.537-4.712 4.634-7.109 1.137-2.485 2.235-4.881 4.619-6.871 3.285-2.744 4.212-5.958 4.895-8.325.264-.915.493-1.709.805-2.327.706-1.392 1.766-1.914 2.475-2.263.282-.139.486-.17.476-.199l-.011-.008c-.065-.048-.187-.076-.353-.076-.213 0-.476.046-.772.149-.812.283-1.838.973-2.788 2.252-.643.867-.958 1.73-1.297 2.663-.698 1.917-1.5 4.118-5.278 7.332-2.72 2.312-3.773 4.393-4.785 6.392-.874 1.727-1.719 3.396-3.529 5.115l-6.442 17.373-.743-.275z"></path>
    <path fill="#F6B40E" fill-rule="nonzero" d="M257.723 179.812l33.043-35.627s.647-.645.217-1.076c-.431-.431-1.077.215-1.077.215l-35.627 33.044 3.444 3.444zm12.616-9.572c6.299-2.342 8.131-7.572 13.878-9.368 5.748-1.798 7.62-6.139 9.483-7.737 1.862-1.599 3.76-.663 3.804-1.423.044-.761-2.232-1.442-5.109.279s-2.823 4.423-9.817 6.679c-6.994 2.258-7.198 6.225-13.705 7.975l1.466 3.595zm0 0z"></path>
    <path fill="#85340A" fill-rule="nonzero" d="M257.434 179.543l11.631-12.541-.09.025-.204-.764c.499-.134.96-.282 1.39-.441l20.325-21.916c.001-.001.367-.367.216-.518-.149-.15-.515.216-.516.217l-35.638 33.052-.538-.578 35.617-33.034c.002-.003.924-.926 1.636-.214.709.71-.214 1.632-.217 1.635l-19 20.485c1.283-.723 2.265-1.566 3.271-2.429 1.758-1.51 3.588-3.081 7.14-4.227 4.523-1.459 6.03-3.104 7.341-4.535.712-.777 1.37-1.495 2.394-2.108 1.523-.911 2.9-1.182 3.888-1.125.407.024.755.103 1.028.216.314.131.545.317.672.529a.802.802 0 01.118.462c-.038.667-.517.698-1.255.746-.682.044-1.701.11-2.686.955-.473.406-.965 1.022-1.531 1.732-1.602 2.008-3.777 4.734-8.091 6.082-2.796.874-4.661 2.607-6.595 4.404-1.987 1.847-4.047 3.761-7.264 4.957l-.275-.74c3.067-1.14 5.07-3 7.001-4.795 2.002-1.861 3.933-3.654 6.898-4.581 4.083-1.276 6.17-3.892 7.707-5.818.591-.741 1.105-1.385 1.636-1.841 1.185-1.017 2.363-1.094 3.15-1.144.315-.02.515.032.517-.001l-.007-.012c-.041-.068-.143-.14-.298-.205a2.384 2.384 0 00-.769-.157c-.859-.05-2.071.196-3.439 1.014-.928.555-1.548 1.231-2.217 1.962-1.379 1.504-2.962 3.232-7.681 4.755-3.4 1.097-5.169 2.615-6.869 4.075-1.468 1.261-2.889 2.48-5.219 3.376l-12.598 13.583-.579-.538z"></path>
    <path fill="#85340A" fill-rule="nonzero" d="M252.93 160.701c-.324-6.45-3.98-9.306-3.262-15.184-1.577 4.648 2.225 8.252 2.009 15.117l1.253.067zm4.195 16.857l-13.882-30.331 11.633 31.264 2.249-.933zm0 0z"></path>
    <path fill="#85340A" fill-rule="nonzero" d="M259.818 160.849c2.17-6.082-.116-10.12 2.797-15.276-3.236 3.691-1.103 8.475-3.929 14.735l1.132.541zm-2.575 17.18l-1.218-33.334-1.217 33.335 2.435-.001zm0 0z"></path>
    <path fill="#85340A" fill-rule="nonzero" d="M266.125 163.623c4.332-4.789 3.766-9.394 8.43-13.043-4.402 2.172-4.262 7.408-9.269 12.11l.839.933zm-8.953 14.886l11.631-31.263-13.882 30.332 2.251.931zm0 0z"></path>
    <path fill="#85340A" fill-rule="nonzero" d="M270.89 168.599c5.835-2.767 7.075-7.238 12.78-8.824-4.898.322-6.772 5.213-13.197 7.641l.417 1.183zm-13.968 10.327l22.71-24.432-24.433 22.71 1.723 1.722zm0 0z"></path>
    <path fill="#F6B40E" fill-rule="nonzero" d="M256.933 180.341l44.161-20.27s.844-.349.612-.912c-.233-.563-1.077-.213-1.077-.213l-45.56 16.894 1.864 4.501zm15.318-4.016c6.716.246 10.41-3.885 16.407-3.345 5.999.54 9.39-2.754 11.722-3.518 2.333-.765 3.727.826 4.059.141.332-.686-1.511-2.187-4.827-1.698-3.315.489-4.3 3.007-11.626 2.415-7.325-.591-9.031 2.996-15.713 2.123l-.022 3.882zm0 0z"></path>
    <path fill="#85340A" fill-rule="nonzero" d="M256.769 179.982l15.546-7.136-.093-.012.102-.782c.512.067.995.106 1.453.123l27.158-12.464c.001-.001.486-.208.406-.402-.083-.202-.551-.003-.553-.002l-.021.011-45.561 16.893-.275-.742 45.561-16.894c.169-.061 1.227-.417 1.579.434.371.901-.736 1.388-.813 1.42l-25.408 11.663c1.463-.177 2.694-.58 3.954-.993 2.203-.722 4.494-1.474 8.213-1.173 4.736.382 6.758-.561 8.52-1.382.952-.444 1.834-.855 3.018-1.03 1.754-.258 3.13.018 4.022.45.366.176.658.383.867.593.24.243.383.501.42.746a.809.809 0 01-.069.472c-.291.6-.744.446-1.443.208-.648-.22-1.615-.55-2.85-.145-.591.193-1.283.575-2.079 1.015-2.246 1.24-5.296 2.925-9.799 2.521-2.917-.263-5.304.624-7.78 1.545-2.544.946-5.18 1.926-8.607 1.8l.028-.789c3.272.12 5.833-.832 8.304-1.75 2.561-.953 5.03-1.871 8.124-1.592 4.26.383 7.191-1.236 9.35-2.428.829-.458 1.549-.856 2.215-1.074 1.484-.486 2.6-.106 3.347.149.299.101.464.225.478.196l-.002-.013c-.012-.08-.079-.185-.197-.304a2.384 2.384 0 00-.65-.439c-.774-.374-1.987-.611-3.564-.378-1.066.157-1.899.545-2.8.965-1.849.862-3.971 1.852-8.915 1.453-3.563-.288-5.778.438-7.906 1.135-1.839.604-3.617 1.186-6.114 1.121l-16.838 7.729-.328-.718z"></path>
    <path fill="#F6B40E" fill-rule="nonzero" d="M256.001 180.527l48.556-1.827s.914 0 .914-.609c.001-.609-.913-.609-.913-.609l-48.557-1.827v4.872zm15.689 2.151c6.11 2.798 11.103.395 16.438 3.19 5.335 2.793 9.728 1.047 12.176 1.234 2.447.186 3.127 2.19 3.696 1.684.569-.507-.559-2.599-3.81-3.416-3.251-.817-5.124 1.132-11.665-2.218-6.542-3.349-9.49-.688-15.33-4.052l-1.505 3.578zm0 0z"></path>
    <path fill="#85340A" fill-rule="nonzero" d="M255.986 180.132l17.096-.643-.083-.047.393-.684c.447.258.878.48 1.295.671l29.87-1.125c.002 0 .52 0 .52-.213s-.518-.213-.519-.213l-48.572-1.829.028-.789 48.544 1.827c.004-.001 1.308-.001 1.308 1.004-.001 1.006-1.305 1.004-1.309 1.004l-27.922 1.05c1.419.396 2.71.494 4.031.595 2.311.175 4.714.359 8.039 2.061 4.228 2.165 6.457 2.068 8.399 1.983 1.053-.046 2.026-.088 3.182.202 1.721.433 2.887 1.215 3.546 1.955.269.302.459.605.573.881.129.316.162.609.102.848a.8.8 0 01-.244.411c-.499.444-.859.127-1.415-.361-.513-.451-1.28-1.126-2.574-1.224-.624-.047-1.408.041-2.31.142-2.55.287-6.013.676-10.019-1.421-2.593-1.359-5.138-1.453-7.778-1.549-2.712-.099-5.523-.203-8.641-1.631l.328-.718c2.976 1.363 5.706 1.463 8.341 1.56 2.73.1 5.362.197 8.115 1.639 3.79 1.984 7.117 1.61 9.568 1.334.942-.105 1.761-.198 2.455-.145 1.559.119 2.445.898 3.038 1.419.237.208.341.386.366.364l.003-.012c.019-.079-.002-.201-.065-.356a2.416 2.416 0 00-.434-.655c-.571-.642-1.601-1.325-3.147-1.713-1.049-.264-1.966-.224-2.956-.181-2.038.089-4.377.191-8.792-2.07-3.178-1.627-5.503-1.804-7.738-1.974-1.93-.147-3.795-.289-6.078-1.305l-18.516.697-.028-.789z"></path>
    <path fill="#F6B40E" fill-rule="nonzero" d="M255.068 180.341l45.559 16.894s.844.351 1.078-.212c.233-.563-.611-.912-.611-.912l-44.162-20.27-1.864 4.5zm13.671 7.992c4.575 4.924 10.108 4.614 13.967 9.237 3.86 4.623 8.587 4.691 10.776 5.801 2.19 1.108 2.051 3.219 2.771 2.969.72-.25.478-2.614-2.212-4.613-2.691-1.999-5.167-.915-9.929-6.513-4.762-5.598-8.505-4.268-12.612-9.61l-2.761 2.729zm0 0z"></path>
    <path fill="#85340A" fill-rule="nonzero" d="M255.206 179.97l16.038 5.947-.056-.072.624-.483c.314.41.627.778.939 1.114l28.014 10.388.022.011c.001 0 .469.199.553-.003.08-.193-.404-.4-.405-.401L256.768 176.2l.328-.718 44.162 20.27c.077.034 1.186.522.812 1.423-.353.848-1.411.492-1.579.429l-26.21-9.716c1.158.908 2.312 1.492 3.494 2.091 2.067 1.046 4.217 2.134 6.637 4.979 3.079 3.619 5.175 4.382 7.001 5.046.989.36 1.903.693 2.862 1.406 1.424 1.058 2.203 2.227 2.528 3.162.133.386.193.737.192 1.032 0 .341-.083.625-.23.823a.807.807 0 01-.382.286c-.63.219-.842-.212-1.168-.875-.301-.613-.752-1.528-1.911-2.115-.562-.284-1.317-.503-2.187-.753-2.468-.712-5.819-1.679-8.714-5.146-1.878-2.25-4.193-3.309-6.593-4.408-2.468-1.13-5.026-2.301-7.36-4.814l.578-.538c2.229 2.399 4.713 3.537 7.11 4.634 2.485 1.138 4.881 2.235 6.871 4.618 2.744 3.286 5.958 4.214 8.325 4.896.915.264 1.709.493 2.326.806 1.393.705 1.915 1.765 2.263 2.474.139.282.17.486.2.476l.008-.011c.048-.065.075-.186.076-.353 0-.213-.047-.476-.149-.772-.283-.812-.973-1.838-2.253-2.788-.866-.643-1.729-.958-2.662-1.297-1.917-.698-4.119-1.5-7.333-5.278-2.311-2.72-4.392-3.773-6.391-4.785-1.727-.874-3.396-1.72-5.115-3.529l-17.374-6.442.276-.743z"></path>
    <path fill="#F6B40E" fill-rule="nonzero" d="M254.277 179.813l35.627 33.043s.645.647 1.076.217c.431-.431-.215-1.077-.215-1.077l-33.043-35.627-3.445 3.444zm9.573 12.615c2.342 6.3 7.572 8.132 9.368 13.879 1.797 5.748 6.138 7.62 7.736 9.483 1.599 1.862.663 3.76 1.424 3.804.761.044 1.442-2.233-.279-5.109-1.721-2.877-4.423-2.823-6.68-9.817-2.257-6.994-6.224-7.198-7.975-13.705l-3.594 1.465zm0 0z"></path>
    <path fill="#85340A" fill-rule="nonzero" d="M254.546 179.524l12.542 11.632-.026-.091.765-.204c.134.499.282.96.441 1.39l21.916 20.325c.001.001.367.367.518.216.15-.149-.216-.515-.217-.516l-33.052-35.638.578-.538 33.034 35.616c.003.002.925.925.214 1.637-.711.709-1.633-.214-1.635-.217l-20.485-19c.722 1.283 1.566 2.265 2.429 3.271 1.509 1.758 3.08 3.587 4.227 7.14 1.458 4.523 3.103 6.029 4.535 7.341.777.712 1.495 1.37 2.107 2.394.911 1.523 1.183 2.899 1.126 3.888a3.175 3.175 0 01-.217 1.028c-.131.314-.316.545-.529.672a.798.798 0 01-.461.118c-.667-.038-.699-.517-.746-1.255-.044-.682-.11-1.701-.956-2.686-.405-.473-1.022-.965-1.732-1.531-2.007-1.602-4.733-3.777-6.082-8.091-.873-2.796-2.606-4.661-4.403-6.595-1.847-1.987-3.761-4.048-4.957-7.264l.739-.275c1.141 3.067 3.001 5.069 4.796 7.001 1.86 2.002 3.654 3.933 4.58 6.898 1.277 4.083 3.892 6.17 5.819 7.707.741.591 1.384 1.105 1.84 1.636 1.018 1.185 1.094 2.362 1.145 3.15.02.314-.033.515 0 .517l.013-.007c.068-.041.14-.143.204-.298.082-.197.14-.457.158-.768.05-.86-.196-2.072-1.014-3.44-.555-.928-1.231-1.548-1.962-2.217-1.504-1.379-3.232-2.962-4.755-7.682-1.097-3.399-2.616-5.168-4.075-6.868-1.261-1.469-2.481-2.889-3.376-5.219l-13.584-12.598.538-.579z"></path>
    <path fill="#85340A" fill-rule="nonzero" d="M273.389 175.019c6.45-.323 9.306-3.979 15.183-3.261-4.648-1.577-8.251 2.225-15.116 2.009l-.067 1.252zm-16.857 4.196l30.33-13.882-31.263 11.633.933 2.249zm0 0z"></path>
    <path fill="#85340A" fill-rule="nonzero" d="M273.24 181.908c6.082 2.17 10.121-.116 15.276 2.797-3.691-3.236-8.474-1.103-14.734-3.929l-.542 1.132zm-17.18-2.575l33.335-1.218-33.336-1.217.001 2.435zm0 0z"></path>
    <path fill="#85340A" fill-rule="nonzero" d="M270.467 188.215c4.789 4.332 9.394 3.766 13.042 8.43-2.171-4.402-7.408-4.262-12.109-9.269l-.933.839zm-14.887-8.953l31.264 11.631-30.333-13.882-.931 2.251zm0 0z"></path>
    <path fill="#85340A" fill-rule="nonzero" d="M265.491 192.98c2.766 5.835 7.238 7.075 8.824 12.78-.322-4.898-5.214-6.772-7.641-13.197l-1.183.417zm-10.327-13.968l24.432 22.71-22.711-24.433-1.721 1.723zm0 0z"></path>
    <circle fill="#F6B40E" fill-rule="nonzero" cx="256" cy="178.09" r="19.788"></circle>
    <path fill="#85340A" fill-rule="nonzero" d="M275.254 178.09a19.195 19.195 0 00-5.639-13.615A19.196 19.196 0 00256 158.836a19.195 19.195 0 00-13.615 5.639 19.195 19.195 0 00-5.639 13.615c0 5.316 2.155 10.13 5.639 13.615A19.195 19.195 0 00256 197.344c5.317 0 10.13-2.155 13.615-5.639a19.198 19.198 0 005.639-13.615zm-4.884-14.37a20.255 20.255 0 015.952 14.37 20.259 20.259 0 01-5.952 14.37 20.26 20.26 0 01-14.37 5.953 20.26 20.26 0 01-14.371-5.953 20.263 20.263 0 01-5.952-14.37 20.26 20.26 0 015.952-14.37A20.26 20.26 0 01256 157.767a20.26 20.26 0 0114.37 5.953z"></path>
    <path fill="#843511" fill-rule="nonzero" d="M262.746 173.858c-1.351 0-2.645.586-3.406 1.803 1.522 1.37 4.884 1.519 7.168-.155a5.222 5.222 0 00-3.762-1.648zm-.022.312c1.315-.024 2.544.58 2.715 1.18-1.522 1.674-3.954 1.529-5.476.311.666-1.065 1.738-1.473 2.761-1.491z"></path>
    <path fill="#85340A" fill-rule="nonzero" d="M263.003 172.918c-1.979 0-2.436.457-3.349 1.218-.914.761-1.37.608-1.522.761-.152.153 0 .609.304.456.304-.153.914-.456 1.826-1.217.914-.762 1.826-.761 2.74-.761 2.74 0 4.262 2.283 4.566 2.13.304-.152-1.522-2.588-4.566-2.588l.001.001z"></path>
    <path fill="#85340A" fill-rule="nonzero" d="M268.48 173.83c-3.5-3.044-7.914-3.501-10.35-1.217-.597.798-.979 1.652-1.135 2.543-.307 1.733.235 3.605 1.593 5.525-.153-.001-.459.151-.61.304-1.209-2.311-1.637-4.685-1.24-6.943a9.85 9.85 0 01.477-1.735c3.349-2.739 7.914-3.044 11.263 1.523h.002z"></path>
    <circle fill="#85340A" fill-rule="nonzero" cx="262.697" cy="175.347" r="1.37"></circle>
    <path fill="#85340A" fill-rule="nonzero" d="M266.657 176.266c-2.588 1.979-5.176 1.827-6.698.914-1.522-.914-1.522-1.218-1.217-1.218.304 0 .607.304 1.826.913 1.218.61 3.044.61 6.087-.609h.002zM252.972 180.825a1.37 1.37 0 00.267 2.716c.447 0 .857-.211 1.113-.579.527.396 1.257.438 1.648.445.06.002.137 0 .178 0 .39-.007 1.12-.049 1.647-.445.256.367.666.579 1.113.579a1.37 1.37 0 00.267-2.716.916.916 0 01.601.868.911.911 0 01-.913.913.92.92 0 01-.913-.868c-.148.297-.736 1.179-1.892 1.225-1.155-.046-1.743-.928-1.892-1.225a.92.92 0 01-.913.868.91.91 0 01-.912-.913c0-.386.235-.739.6-.868h.001zM254.461 184.879c-1.523 0-2.125 1.379-3.495 2.292.761-.303 1.36-.904 2.427-1.513 1.065-.609 1.974.134 2.582.134h.022c.608 0 1.517-.743 2.583-.134 1.066.61 1.687 1.21 2.448 1.513-1.37-.913-1.994-2.292-3.517-2.292-.304 0-.906.164-1.514.467h-.022c-.608-.304-1.21-.467-1.514-.467z"></path>
    <path fill="#85340A" fill-rule="nonzero" d="M253.948 186.681c-.601.027-1.396.147-2.538.49 2.741-.609 3.346.312 4.564.312l.022-.001c1.218 0 1.823-.92 4.564-.311-3.045-.914-3.65-.312-4.564-.312h-.022c-.571 0-1.024-.223-2.026-.178z"></path>
    <path fill="#85340A" fill-rule="nonzero" d="M251.548 187.151c-.177.002-.37.004-.579.022 3.197.305 1.66 2.138 5.008 2.138H256c3.348 0 1.834-1.833 5.031-2.138-3.349-.304-2.29 1.67-5.031 1.67h-.023c-2.569 0-1.778-1.725-4.43-1.692h.001z"></path>
    <path fill="#85340A" fill-rule="nonzero" d="M258.742 192.095a2.741 2.741 0 00-5.48 0 2.817 2.817 0 015.48 0zM243.697 173.83c3.501-3.044 7.914-3.501 10.351-1.217.596.798.978 1.652 1.135 2.543.306 1.733-.236 3.605-1.594 5.525.154-.001.459.151.611.304 1.209-2.311 1.636-4.685 1.239-6.943a9.847 9.847 0 00-.476-1.735c-3.349-2.739-7.915-3.044-11.264 1.523h-.002z"></path>
    <path fill="#85340A" fill-rule="nonzero" d="M249.175 172.918c1.979 0 2.435.457 3.349 1.218.914.761 1.37.608 1.522.761.151.153 0 .609-.304.456-.304-.153-.914-.456-1.826-1.217-.914-.762-1.826-.761-2.74-.761-2.74 0-4.262 2.283-4.566 2.13-.304-.152 1.522-2.588 4.566-2.588l-.001.001z"></path>
    <path fill="#843511" fill-rule="nonzero" d="M249.082 173.858c-1.351 0-2.645.586-3.406 1.803 1.522 1.37 4.884 1.519 7.168-.155a5.222 5.222 0 00-3.762-1.648zm-.022.312c1.315-.024 2.544.58 2.716 1.18-1.522 1.674-3.955 1.529-5.477.311.666-1.065 1.738-1.473 2.761-1.491z"></path>
    <circle fill="#85340A" fill-rule="nonzero" cx="249.261" cy="175.347" r="1.37"></circle>
    <path fill="#85340A" fill-rule="nonzero" d="M245.521 176.266c2.588 1.979 5.175 1.827 6.697.914 1.522-.914 1.522-1.218 1.218-1.218-.304 0-.607.304-1.826.913-1.218.61-3.044.61-6.088-.609h-.001z"></path>
</svg>