<?xml version="1.0" encoding="UTF-8"?>
<svg xmlns="http://www.w3.org/2000/svg" version="1.1" viewBox="0 0 631.8 100.7">
  <defs>
    <style>
      .cls-1 {
        fill: #fff;
      }
    </style>
  </defs>
  <!-- Generator: Adobe Illustrator 28.6.0, SVG Export Plug-In . SVG Version: 1.2.0 Build 709)  -->
  <g>
    <g id="Capa_1">
      <g id="Capa_1-2" data-name="Capa_1">
        <g>
          <g>
            <path class="cls-1" d="M39.7,2.8v13.6h-12.9v44.3c0,3-2.4,4.1,0,6.4,0,.2,0,.5,0,.8,0,1.4-.8,2.4-.8,3.8s.8.9.8,1.1v3c-.1.6-.7,1.1-1.2,1.6l.4,2.2c0,.2.8,1.5.8,1.8v17.1h-8.9s-2-.7-2.6-.7c-.3,0-.7.7-.7.7h-1.6s0,.1,0-1.4c.9-1.9.7-2.3,0-3.5v-52.8c0-.2.5-1.2.5-1.4.9-.8-.5-2.5-.5-3.7,0-.2,0-8.1,0-8.3,0-2.6,0-11.1,0-11.1H0V2.8h39.7Z"/>
            <path class="cls-1" d="M84,60.3c0,13.4-6.6,20.1-19.9,20.2-13.2,0-19.8-6.7-19.8-20.2v-8.4c0-.2,0-.4.1-.6,2.4-1.5.5-1.6.5-3.5,0-.7-.5-1.2-.6-1.5V2.6h13.8s-.1,24.5-.1,25.5c-.3.7-1,.5-1,2.3,0,0-.9,1.1-.7,1.7.2.8,2,1.2,2,1.5,0,14.7-.2,26.6-.2,26.6,0,4.3,2,6.5,6,6.5s6.1-2.2,6.1-6.5v-15.2c0-.3,0-5.3,0-7.2,0-1.7,1.4-2.4,1.4-3.9,0-2.5-1.4-4.7-1.4-4.7V2.6h13.8v57.6h0Z"/>
            <path class="cls-1" d="M129.3,79.8c0,7.4-2,12.8-6.1,16.1-.2.2-1.8.2-2.2.7-.4.5-.7.6-.8,1.2-2.9,1.4-6.5,2.2-10.8,2.2-13.2,0-19.8-6.7-19.8-20.2V21.2c0-13.4,6.6-20.1,19.8-20.1s19.9,6.7,19.9,20.1v23.4h-13.8v-8.2c0-1.9,1.1-2.9.8-3.9-.6-1-.8-2.3-.8-2.3v-6.1s.7-1,.8-1.4c0-.5-.8-1.7-.8-1.7,0-4.3-2-6.5-6-6.5h0c-4,0-6,2.2-6,6.5v17c-.2.2-.6.6-.6.6,0,0-.6.3-.7,1.2.3.6,1,.2,1.3.9v16.3s-1.4,3.5-1.4,4,.8.7.8.7c0,0,.5.6.6.9v17c0,4.3,2,6.5,6,6.5s6.1-2.2,6.1-6.5v-15.6h13.8v15.6h0Z"/>
            <path class="cls-1" d="M174.2,79.8c0,13.4-6.6,20.1-19.9,20.2-13.2,0-19.8-6.7-19.8-20.2V11.5s.6-1.8.6-2.1-.6-1.2-.6-1.2V2.6h1.2s.7.7.9.7c1.6,0,4-.7,4-.7h7.7v8.4c-.4,2.2-.8,4.8-.8,4.8,0,0,0,1.8,0,3,.2,2,1,2.1.8,2.7,0,.2,0,42.6,0,46s-.7.6-1.4,2.5c0,.7.8,1.6,1.3,2.3-.1,1.5-1.2,2.9-1.2,2.9.2,1.4,1.4,3.3,1.4,4.6,0,.4,0,.7,0,1,.3,3.6,2.3,5.4,6,5.4s6.1-2.2,6.1-6.5v-21.2c.4-1.5,1.4-2.5,1.2-4-.2-.3-1.2-4.3-1.2-4.5V2.7h13.8v77.2h0Z"/>
            <path class="cls-1" d="M205,51.8l-1.1-1.9c-.1-.2.3-.9,0-1.5-.3-.5-1.3-.8-1.4-1l-.8-1.4c-.2-.3,0-.8-.4-1.9-.3-.8-2.2-2.7-2.3-3-1.7-2.9-6.1-10.1-6.1-10.1,0,0,0,29.4,0,29.7-.4,1-1.3,1.6-1.3,2.6,0,.9.7,4.1.7,4.1,0,0,.6,1.2.6,1.8v29.2h-13.3V2.7h10.9l2.4,4.1s.6,2.7.9,3c.4.5.7,1.2,1,1.6.1.2,1.3.5,1.4.7.4.8,1.6,2.7,1.6,2.7,0,0,.1.4,0,.8.3,1,1.3,2.3,1.6,2.4.3.2.6.6.6.6l5.2,8.8,14.6-24.7h10.9v95.8h-13.3v-2.9s1.2-2.9,1-3.5c-.2-.5-.7-1.3-1-1.9v-24.1c0-.3.9-3.4.9-3.7,0-1.4-.3-.5-.6-2.4-.2-.3-.3-28.9-.3-28.9,0,0-6.2,10.6-9,15.4-.2.4,0-.2-1,.9-.4.5-.6,1.8-.9,2.3l-1.3,2.2h0Z"/>
            <path class="cls-1" d="M262.6,55.7v-8.6c.2-.8.7-2.4.6-2.8-.1-.5-.6-.8-.6-1.5,0-.2,0,0,0-1.1s.7-1.9.7-2.1c0-.3-.7-.8-.7-1,0-.2,0-.4,0-.6-.4-2.6-1.8-4.1-4.2-4.5-.3,0-.5-.5-.9-.6-.2,0-.4-.4-1-.3-.3,0-.8.8-.8.8-2.2.2-3.7,1.3-4.5,3.1-.1.3-.7.6-.9,1.9,0,.2.4,1.5.4,1.9v4.3h-13.8v-4.8c0-13.4,6.6-20.1,19.9-20.1s19.8,6.7,19.8,20.1v58.6h-12.3l-1-5.9c-2.8,5-6.9,7.4-12.4,7.5-4.5,0-7.9-1.7-10.2-5.1-2.3-3.4-3.4-7.5-3.4-12.4,0-16.1,8.5-25,25.5-26.7h0ZM262.6,68.9c-5.3,1.3-8.8,3.6-10.5,6.9-.2.5-1.1.2-1.1,1.2,0,.5.2,1.4.2,1.6-.3,1.3-.3,1.4-.3,2.5,0,.3-.8,1.2-.6,1.6s.8.4.9,1c.3,2.5,1.2,3.7,2.6,3.7,6-.4,8.9-4.9,8.9-13.3v-5.1h0ZM276.4,0l-23.5,3.2-.8.6h-.5c0,.1-.4,1.7-.9,1.8-.7.1-3.6-1.7-3.6-1.7l-8.8,1.2v9.3h38.2V0h0Z"/>
            <path class="cls-1" d="M282.6,2.6h11.4l2.3,4.1c0,.2-.4,1.8-.3,2,.7.4-.2,1.3.9,1.9.2.2,1.9.8,2.1,1,4.4,7.7,10,17.3,10,17.3V2.6h13.3v54.2l-.9,1.4c-.4.3-.3,1.4-.7,1.9.5,2,1.5,3.5,1.5,3.5v25.1c0,0-.5,2.9-.8,3.3-.7,1.3.7,4.5.7,4.5v1.9c0,0-1.3.1-1.7,0-.3,0-.9-.9-1.2-.9-.4,0-2.9.9-2.9.9h-7.6v-44.5l-2.5-4.3s.2-3.2-.4-3.6c-1.7-1-2-2.9-2.4-2.8,0,0-.9-.4-1.3-.7-.1-.2-6.5-12-6.5-12v53.4c0,0-.5,1.4-.5,1.4-.7.4-1.1,2.6-1.1,2.7.4,1.1.9,3.1.9,3.1l.7,1.7v5.7h-13.3V2.7h0Z"/>
            <path class="cls-1" d="M84,90.6l-7.7-7.7-6.1,6.1-6.1-6.1-6.1,6.1-.8-.8c0,0-.6-.2-.7-.4-.3-.3-.3-.7-.4-.8-1-.3-1.6-.7-1.9-.9-.1-.1-.4-1.3-.5-1.5l-1.7-1.7-1.3,1.3s0,.4-.1.5c0,.1-.3.1-.4.2-.8,2.1-1.3,1-3.5,3.3-.2.2-.3.3-.4.4-1.1,1.1-2,2-2,2l7.7,7.7,2.1-2.1s.1-.7.3-.9c.1-.1.8-.2.8-.2l2.9-2.9,6.1,6.1,6.1-6.1,6.1,6.1,2.2-2.2c.6-.7,1-1.1,1.1-1.3.7-2.1.9-.8,2.1-2.1,1-1,1.5-1.7,1.7-1.9.4-.4.7-.4.7-.4h0Z"/>
          </g>
          <g>
            <path class="cls-1" d="M612,2c-13.2,0-19.8,6.7-19.8,20.1v58.6c0,13.4,6.6,20.2,19.8,20.2s7.9-.7,10.8-2.2c0-.6.3-.7.8-1.2.4-.5,1.9-.5,2.2-.7,4.1-3.3,6.1-8.7,6.1-16.1V22.1c0-13.4-6.6-20.1-19.9-20.1h0ZM618,66.6v14.1c0,4.3-2,6.5-6.1,6.5s-6-2.2-6-6.5v-17c-.1-.3-.6-.9-.6-.9,0,0-.8-.4-.8-.7,0-.5,1.4-4,1.4-4v-16.3c-.3-.7-1.1-.3-1.3-.9.1-.9.7-1.2.7-1.2,0,0,.4-.4.6-.6v-17c0-4.3,2-6.5,6-6.5h0c4,0,6,2.2,6,6.5,0,0,.8,1.1.8,1.7,0,.4-.8,1.4-.8,1.4v6.1s.1,1.3.8,2.3c.3,1-.8,2-.8,3.9v29.2h0Z"/>
            <path class="cls-1" d="M561.7,52.6l-1.1-1.9c-.1-.2.3-.9,0-1.5-.3-.5-1.3-.8-1.4-1l-.8-1.4c-.2-.3,0-.8-.4-1.9-.3-.8-2.2-2.7-2.3-3-1.7-2.9-6.1-10.1-6.1-10.1,0,0,0,29.4,0,29.7-.4,1-1.3,1.6-1.3,2.6,0,.9.7,4.1.7,4.1,0,0,.6,1.2.6,1.8v29.2h-13.3V3.5h10.9l2.4,4.1s.6,2.7.9,3c.4.5.7,1.2,1,1.6.1.2,1.3.5,1.4.7.4.8,1.6,2.7,1.6,2.7,0,0,.1.4,0,.8.3,1,1.3,2.3,1.6,2.4.3.2.7.6.7.6l5.2,8.8,14.6-24.7h10.9v95.8h-13.3v-2.9s1.2-2.9,1-3.5c-.2-.5-.7-1.3-1-1.9v-24.1c0-.3.9-3.4.9-3.7,0-1.4-.3-.5-.6-2.4-.2-.3-.3-28.9-.3-28.9,0,0-6.2,10.6-9,15.4-.2.4,0-.2-1,.9-.4.5-.6,1.8-.9,2.3l-1.3,2.2h0Z"/>
            <path class="cls-1" d="M381,3.5v13.6h-12.9v44.3c0,3-2.4,4.1,0,6.4,0,.2,0,.5,0,.8,0,1.4-.8,2.4-.8,3.8s.8.9.8,1.1v3c-.1.6-.7,1.1-1.2,1.6l.4,2.2c0,.2.8,1.5.8,1.8v17.1h-8.9s-2-.7-2.6-.7c-.3,0-.7.7-.7.7h-1.6s0,.1,0-1.4c.9-1.9.7-2.3,0-3.5v-52.8c0-.2.5-1.2.5-1.4.9-.8-.5-2.5-.5-3.7,0-.2,0-8.1,0-8.3,0-2.6,0-11.1,0-11.1h-12.9V3.5h39.7Z"/>
            <g>
              <path class="cls-1" d="M425.3,61.1c0,13.4-6.6,20.1-19.9,20.2-13.2,0-19.8-6.7-19.8-20.2v-8.4c0-.2,0-.4.1-.6,2.4-1.5.5-1.6.5-3.5,0-.7-.5-1.2-.7-1.5V3.5h13.8s-.1,24.5-.1,25.5c-.3.7-1,.5-1,2.3,0,0-.9,1.1-.7,1.7.2.8,2,1.2,2,1.5,0,14.7-.2,26.6-.2,26.6,0,4.3,2,6.5,6,6.5s6.1-2.2,6.1-6.5v-15.2c0-.3,0-5.3,0-7.2,0-1.7,1.4-2.4,1.4-3.9,0-2.5-1.4-4.7-1.4-4.7V3.5h13.8v57.6h0Z"/>
              <path class="cls-1" d="M425.3,91.4l-7.7-7.7-6.1,6.1-6.1-6.1-6.1,6.1-.8-.8c0,0-.6-.2-.7-.4-.3-.3-.3-.7-.4-.8-1-.3-1.6-.7-1.9-.9-.1-.1-.4-1.3-.5-1.5l-1.7-1.7-1.3,1.3s0,.4-.1.5c0,.1-.3.1-.4.2-.8,2.1-1.3,1-3.5,3.3-.2.2-.3.3-.4.4-1.1,1.1-2,2-2,2l7.7,7.7,2.1-2.1s.1-.7.3-.9c.1-.1.8-.2.8-.2l2.9-2.9,6.1,6.1,6.1-6.1,6.1,6.1,2.2-2.2c.6-.7,1-1.1,1.1-1.3.7-2.1.9-.8,2.1-2.1,1-1,1.5-1.7,1.7-1.9.4-.4.7-.4.7-.4h0Z"/>
            </g>
            <path class="cls-1" d="M458.9,71.3s1.6,3.1,3.7,7.2c4.2,8.2,10.6,20.6,10.6,20.6h-15.1s-1.4-2.8-3.2-6.6c-2.2-3.7-4-8.4-5.9-12.2-1.6-3.7-3.4-6.6-3.2-6.6s-2.1,0-1.9,0-.7,2.8,0,6.6c0,3.7.2,8.4,0,12.2-.3,3.7.4,6.6,0,6.6.2,0-3.8,0-6.9,0h-6.9v-14.9c0-4.5,0-9.7,0-15.3,0-5.6.7-11.6,0-17.5.3-6,.3-11.9,0-17.5,0-5.6.6-10.8,0-15.3-.5-4.5,0-8.2,0-10.8V3.6h18.8c0,0,.9,0,1.2,0,.3,0,.7,0,1,0,1.7,0,3.2.2,4.6.6,1.7.4,3.2.9,4.6,1.7,1.9.7,2.2,1.7,3.6,2.8,1.5,1.1,2,2.4,2.5,3.9.7,1.5,1.2,3.2,1.4,5,.2,1.9,0,3.9.6,6.1-.1,0-.2.8,0,2.2-.1,1.4,0,3.3,0,5.6.1,2.2,0,4.7,0,7.2-.2,2.5-.3,5,0,7.2.4,2.2,0,4.2,0,5.6,0,1.4.2,2.2,0,2.2,0,1.4.4,2.7-.3,4-.7,1.3-.6,2.5-.8,3.6-1,2.2-1.6,4.2-3.2,5.9-1.1,1.7-3.5,3.1-5.4,4.2h0ZM443.9,17.2c.2,0-.2,2.7,0,6.8,0,4.1.5,9.5,0,14.9.2,2.7,0,5.4,0,8,0,2.6-.2,4.9,0,7-.3,4.1.9,6.8,0,6.8s2.8,0,3.2,0c1.6,0,3-.1,3.9-.4,1.3-.5,2.2-1.3,2.8-2.3.6-1,.9-2.3.9-3.8v-30.5c0-3.6-1.4-5.7-4.2-6.3-.1,0-.3,0-.4-.3-.3-1.5.6-3.3-1.3-5.2,0,1.8,0,3.6-.9,5.2-.2,0-.5,0-.8,0h-3.4Z"/>
            <path class="cls-1" d="M473.4,3.3v33.2c0,1.2,1.4,2.8.5,3.7,0,.2-.5,1.2-.5,1.4v57.5h13.8v-16.9c0-.2-.8-1.5-.8-1.8l-.4-2.2c.5-.5,1.1-1.1,1.2-1.6v-3c0-.3-.8-.9-.8-1.1,0-1.3.8-2.4.8-3.8s0-.5,0-.8c-2.4-2.4,0-3.5,0-6.4V17.1h0V3.3h-13.8Z"/>
            <path class="cls-1" d="M517.8,45.3h13.8v-24c-.1-9.1-3.5-15.1-10-17.8-2.7-1.1-6-1.7-9.9-1.7s-7.1.6-9.9,1.7c-6.5,2.7-9.8,8.6-10,17.8v17.5c0,10.9,4.4,19.4,12.9,25.5.4.3.7.5,1.1.8.6.4,1.1.8,1.6,1.2.1.1.2.2.4.3,6.6,5.2,9.8,9.8,9.8,13.9v.2c0,4.2-2.1,6.3-6,6.3s-5.5-1.6-5.9-4.9c0-.4,0-.9-.1-1.4v-7h-13.8v2.6c.1.3.7.7.7,1.5,0,1.9,1.9,2-.5,3.5,0,.2,0,.3,0,.5.4,12.6,7,18.9,19.9,18.9,13,0,19.6-6.5,19.8-19.5v-1.2c0-3.1-.6-6.1-1.7-8.8-2-5.3-5.7-9.9-11.3-13.9-.3-.2-.6-.4-.9-.5-7-4.4-10.9-9.7-11.8-15.7-.1-.9-.2-1.9-.2-2.8v-16.2c0-4.3,2-6.5,6-6.5h0c4,0,6,2.2,6,6.5v8.2s.6,1.1,1,2.5c.2.7.3,1.4.4,2.2,0,1.4-1.3,2.2-1.4,3.9v6.7h0Z"/>
          </g>
        </g>
      </g>
    </g>
  </g>
</svg>