<svg id="Capa_1" data-name="Capa 1" xmlns="http://www.w3.org/2000/svg" viewBox="0 0 430.87 156.88"><defs><style>.cls-1{fill:#731a13;}</style></defs><path class="cls-1" d="M218.61,38.51v-.08A5.71,5.71,0,0,0,222,35.91a8.18,8.18,0,0,0,1.07-4.31,7.61,7.61,0,0,0-2.36-6q-2.37-2.09-7.75-2.09h-8.81a.47.47,0,0,0-.53.53V48a.47.47,0,0,0,.53.53h5.23A.47.47,0,0,0,210,48V39.38h2.48l5.19,8.78a.73.73,0,0,0,.65.34h5.87a.43.43,0,0,0,.42-.19c.08-.13.05-.28-.07-.46Zm-2.74-4.71a5.07,5.07,0,0,1-2.87.66H210v-5.6h3.21a4.65,4.65,0,0,1,2.8.66,2.53,2.53,0,0,1,.86,2.12A2.47,2.47,0,0,1,215.87,33.8Z"/><path class="cls-1" d="M248,23.52h-5.23a.46.46,0,0,0-.53.53V38.77a5.61,5.61,0,0,1-1,3.51A3.86,3.86,0,0,1,238,43.54a3.92,3.92,0,0,1-3.3-1.26,5.61,5.61,0,0,1-1-3.51V24.05c0-.36-.17-.53-.5-.53h-5.26a.46.46,0,0,0-.53.53v15c0,3.38.88,5.87,2.67,7.48S234.47,49,238,49s6.08-.81,7.86-2.42,2.67-4.1,2.67-7.46v-15A.47.47,0,0,0,248,23.52Z"/><path class="cls-1" d="M271.83,28.44V24.05c0-.36-.17-.53-.5-.53H252.56a.46.46,0,0,0-.53.53v4.39a.47.47,0,0,0,.53.53h6.26V48c0,.35.16.53.49.53h5.23a.47.47,0,0,0,.53-.53V29h6.26C271.66,29,271.83,28.79,271.83,28.44Z"/><path class="cls-1" d="M286.85,23.94a.58.58,0,0,0-.61-.42h-6.79a.59.59,0,0,0-.61.42l-7.93,24c-.13.41,0,.61.42.61H277a.56.56,0,0,0,.61-.46l1.1-4H287l1.13,4a.54.54,0,0,0,.6.42h5.73c.38,0,.52-.2.42-.61Zm-6.77,15.18,1.32-4.81c.25-.92.5-1.83.72-2.75s.45-1.83.65-2.74h.08c.2.89.42,1.79.65,2.71s.47,1.83.72,2.74l1.35,4.85Z"/><path class="cls-1" d="M315.39,23.52h-9a.47.47,0,0,0-.53.53V48a.47.47,0,0,0,.53.53h9c4,0,7-1,8.92-2.84s2.9-4.7,2.9-8.41V34.46c0-3.61-1-6.33-2.9-8.18S319.4,23.52,315.39,23.52ZM320.92,37a6.54,6.54,0,0,1-1.43,4.52A5.84,5.84,0,0,1,315,43.12h-2.79V28.89H315a6,6,0,0,1,4.52,1.51,6,6,0,0,1,1.43,4.29Z"/><path class="cls-1" d="M348.19,23.52H332.32a.47.47,0,0,0-.53.53V48a.47.47,0,0,0,.53.53h15.87c.33,0,.5-.18.5-.53V43.58c0-.36-.17-.53-.5-.53H338.08V38.51h9.2c.33,0,.49-.18.49-.54V33.89c0-.35-.16-.53-.49-.53h-9.2V29h10.11c.33,0,.5-.18.5-.53V24.05C348.69,23.69,348.52,23.52,348.19,23.52Z"/><path class="cls-1" d="M368.41,43.05H359v-19c0-.36-.14-.53-.42-.53h-5.34a.47.47,0,0,0-.53.53V48a.47.47,0,0,0,.53.53h15.22c.33,0,.5-.18.5-.53V43.58C368.91,43.22,368.74,43.05,368.41,43.05Z"/><path class="cls-1" d="M163.73,114.47l-1.87,14.67H151.4l10.71-72h14.24l10.67,72H176.53l-1.87-14.67Zm9.68-9.91-4.22-33.45L165,104.56Z"/><path class="cls-1" d="M211.93,108.19l10.75,20.95H211.31l-9.24-19.08h-1.44v19.08H190.25v-72h15.12q13.83,0,13.83,15.15V94.91Q219.2,104.45,211.93,108.19ZM200.63,67.4v32.76H203a10.27,10.27,0,0,0,3-.29,4.47,4.47,0,0,0,2.83-4.59v-23q0-4.92-4.52-4.92Z"/><path class="cls-1" d="M250.71,57.17V67.4H241v61.74H230.61V67.4h-9.72V57.17Z"/><path class="cls-1" d="M285.2,71.14Q285.2,56,300.1,56T315,71.14V88.75H304.65V71.14c0-3.23-1.51-4.85-4.52-4.88h-.07c-3,0-4.48,1.63-4.48,4.88V83.32q0,8.48,9.73,14.35Q315,104.6,315,115.16q0,15.16-14.9,15.15T285.2,115.16V110.1h10.38v5.06c0,3.26,1.52,4.88,4.55,4.88s4.52-1.62,4.52-4.88q0-5.2-9.73-12.18T285.2,83.54Z"/><path class="cls-1" d="M339.54,97.08V71.14c0-3.25-1.5-4.88-4.48-4.88H335c-3,0-4.52,1.65-4.52,4.88V88.75H320.09V71.14Q320.09,56,335,56t14.9,15.11v58h-9.28l-.74-4.44a10.16,10.16,0,0,1-9.31,5.61,8.64,8.64,0,0,1-7.65-3.81,16.24,16.24,0,0,1-2.59-9.36Q320.35,98.95,339.54,97.08Zm0,9.87c-5.87,1.46-8.81,4.5-8.81,9.09,0,3.14.7,4.7,2.09,4.7q6.72-.51,6.72-10Z"/><path class="cls-1" d="M355.72,57.17h8.54L375.53,77V57.17h10v72h-10V95.68l-9.8-17.6v51.06h-10Z"/><path class="cls-1" d="M421.17,115.16q0,15.12-14.93,15.15t-14.9-15.15v-44q0-15.11,14.9-15.11t14.93,15.11Zm-10.39-44c0-3.23-1.5-4.85-4.51-4.88h-.07q-4.49,0-4.48,4.88v44c0,3.26,1.51,4.88,4.52,4.88s4.54-1.62,4.54-4.88Z"/><path class="cls-1" d="M254.31,57.17h26.93V67.4H264.69V84.3h14.24V94.57H264.69v8.84h16.55v10.23H254.31Z"/><polygon class="cls-1" points="283.48 123.01 277.36 116.89 272.56 121.68 267.77 116.89 262.98 121.68 258.19 116.89 252.06 123.01 258.19 129.14 262.98 124.35 267.77 129.14 272.56 124.35 277.36 129.14 283.48 123.01"/><path class="cls-1" d="M128.58,33.21a2.73,2.73,0,0,0,.7.46C128.9,33.33,128.69,33.21,128.58,33.21Z"/><path class="cls-1" d="M67.67,17.4a.81.81,0,0,0-.3.26C67.57,17.58,67.71,17.49,67.67,17.4Z"/><path class="cls-1" d="M88,136.56c.19-.06.25-.16.47-.3Z"/><path class="cls-1" d="M98,67V52.37H83.46a2.93,2.93,0,0,1-2.93-2.93V33.72H64.32V49.44a2.93,2.93,0,0,1-2.92,2.93H46.82V67a2.93,2.93,0,0,1-2.93,2.93H28.17V86.09H43.89A2.93,2.93,0,0,1,46.82,89V103.6H61.4a2.92,2.92,0,0,1,2.92,2.92v15.72H80.53V106.52a2.93,2.93,0,0,1,2.93-2.92H98V89A2.93,2.93,0,0,1,101,86.09h15.72V69.88H101A2.93,2.93,0,0,1,98,67ZM96.9,83.06a2.75,2.75,0,0,1-2.75,2.75H88.32v5.31a2.75,2.75,0,0,1-2.75,2.75H80.26V99.7a2.75,2.75,0,0,1-2.75,2.75H67.35A2.75,2.75,0,0,1,64.6,99.7V93.87H59.29a2.75,2.75,0,0,1-2.75-2.75V85.81H50.71A2.75,2.75,0,0,1,48,83.06V72.91a2.75,2.75,0,0,1,2.75-2.75h5.83V64.85a2.75,2.75,0,0,1,2.75-2.75H64.6V56.26a2.75,2.75,0,0,1,2.75-2.75H77.51a2.75,2.75,0,0,1,2.75,2.75V62.1h5.31a2.75,2.75,0,0,1,2.75,2.75v5.31h5.83a2.75,2.75,0,0,1,2.75,2.75Z"/><path class="cls-1" d="M82.82,72.91V67.59H77.51a2.75,2.75,0,0,1-2.75-2.74V59H70.1v5.84a2.75,2.75,0,0,1-2.75,2.74H62v5.32a2.75,2.75,0,0,1-2.75,2.74H53.46v4.66h5.83A2.75,2.75,0,0,1,62,83.06v5.31h5.31a2.75,2.75,0,0,1,2.75,2.75V97h4.66V91.12a2.75,2.75,0,0,1,2.75-2.75h5.31V83.06a2.75,2.75,0,0,1,2.75-2.75H91.4V75.65H85.57A2.75,2.75,0,0,1,82.82,72.91Z"/><path class="cls-1" d="M139.66,61.83c-.83.74-.07-2.73-1-2.68,0,0,.3-1.83.3-1.83-.39-.73-.77-.55-1.13-.57s-.66-.24-1.06-1.63c-.28-2.68,1.61-.12,1.72-1.79l-.67-.51s0-.36,0-.7l0-.69.11.18c-.41-.72-.72-2.16-.46-2.27.25.06.53.9.77.95a3.35,3.35,0,0,1-.46-1.36c-.12-.58-.27-1.25-.42-1.92-.28-1.35-.8-2.63-1.77-2.95-.1-.84-.86-2.3-.37-2.33-.91-.32-1.61-3.27-2.59-3.92.26,0,0-1.06-.61-1.65.4,1.06-.16.61-.87.22-.2-1-2.1-3-1.81-3.73-1.28-.87-1.34-.09-2,0-.21-1.05-2.37-3.13-1.37-3.37.49.66,1.6,2.1,1.8,1.47-.81-1.37-.64-.34-1.58-1.2.18,0-.21-1,.14-1a18.46,18.46,0,0,1-2-2.08c1,1.44-1.21-.29-.71.66l1.62.64c1.41,1.38,0,.64.31,1.33a6.16,6.16,0,0,0-2.64-1.64,10.57,10.57,0,0,1-2.69-1.25,17.86,17.86,0,0,0-1.25-1.58c.83.63,1.19-.12.82-.63-1.84-.53-2.28-2.29-3.45-3.23,1,.86.1.92-.4.84-2.81-1.27-.83-.91-1.76-2-4.07-2.37-6.45-4.6-10.25-5.51l.72.66.69.7.82-.41c1.09,1.07-.87,1.35-1.75,1.47-.08-.33-2.28-1-1.28-1l-2.19-.48c.21.41,1.59.77.51.73-.59-.49-2.73-1.26-1.23-1.25-1.12-.37-2.62-.58-2.48-.1-1.82-.43.42-.84,1.32-.83-1.43-.49-1.08-1-.58-1.08,0,0-.52-.13-1-.23l-1-.22c.5-.08.57-.35,1.07-.43-1.31-.59-2.45-.11-3.5-.91l-.65.48c-1.83-.64-2.67-.89-3.48-1.1a19.87,19.87,0,0,0-3.39-.6l.55.5c-2.76.5-1.91-.93-5.58-.81-2.06.22-3.37.4-3.1,1.11a2.17,2.17,0,0,1-2-.39,11.49,11.49,0,0,1-1.92.71,4.63,4.63,0,0,1-2.32.18,21.48,21.48,0,0,1,2.62-.67c-.3-.68-3.13,0-4.65-.14-1,.41-4.25,1.69-6,2.62.92.41.73,1.3-.76,2.16.17-.49-2.23,0-3.39-.07.46-.53-2.71-.44-.4-1.14.73.06,1.16.56,2,.15a11.9,11.9,0,0,0-3.91-.49c.06-.26.82-.71,1.64-.9-.4.29-.12.36,0,.52,2.77-1.14-.84-.85-.54-1.46-.75.3-2.42.63-1.55.82-.88-.32-2,.12-3.11.62a5.89,5.89,0,0,1-3.14.9c0,.13,1,.16,0,.78-1.62.66-1.67.13-2.42.18a8.59,8.59,0,0,1-2.62,1.39c-1,.68,1.54.52.21,1.55-.73,1.07-2.32,1.1-3.41,1.82-1.62.2,1.25-1,1.75-1.44l-1.94,1.05-1.91,1.11c-1.33.27.2-.91,1.43-1.38-1.81.33-3.66,1.8-3.82,2.57-1,.45-1.48.83-2.49,1.19.71-.84.13-1.68,1.51-2.67,2.43-1.26-.5,1.15,1.62.19l-.11-.64c1-.15,1.53-.92,2.47-1.42.61-.11,0,.26-.34.51,1.71-.88,3.22-1.18,4.28-2.37C42.5,16.58,39.31,19,38,19c0,0-1,.82-2.07,1.66s-2,1.75-2,1.75c.16.23,1.93-.33.91.8-.89-.29-2.38.26-4.09,1.4.54.09,0,.71-.53,1.3s-1,1.19-.4,1.12a1.27,1.27,0,0,1,1.4-.7c-1.48,1.22.24.73-.55,1.42-2.78,2.1-.24-.53-3,1.57a13.87,13.87,0,0,1,2.54-4.09c-.34-.21-1.5,1.28-2.4,1.51,1.17-.43-.14,1.08.71.61a49.78,49.78,0,0,0-4.56,6.23l-1.07.78a10.28,10.28,0,0,1,1.06-2.13c.65-1.12,1.2-2.08.32-2.15-1.06,1.42-.63,1.78-1.59,2.78-1,.39-2.14,2.22-3.11,4a19.18,19.18,0,0,0-2,1.68c-.47.46-1,1-1.58,1.63s-1.18,1.48-1.9,2.42l.16-.31c-.46.85-1,1.85-1.57,2.87s-1.18,2.17-1.7,3.36c.66-2.38-2.46,3.92-1.54.84a24,24,0,0,0-.83,2.89,11.26,11.26,0,0,0-.35,1.89A12.27,12.27,0,0,0,8.09,56a12.73,12.73,0,0,0,.17,1.28c.06.56.17,1.41.36,2.81L7,60.11,7,60.82l-1,0a21.71,21.71,0,0,1,.48,4.31l-.47-.79c0,1.19,0,2.21.57,2.75a2.85,2.85,0,0,0-.18,2.13,4.09,4.09,0,0,0-.15,2.18c.28-.22.43-.29.54-.49A10.91,10.91,0,0,1,7,72.27c0,.12,0,.23,0,.34l0,0a2.84,2.84,0,0,1-.28,1.51,6.15,6.15,0,0,0,.22,1.43c-.23.47-.42.84.13,2,.23-.2-.11-.67,0-1.22a.16.16,0,0,1,.13-.08,15.77,15.77,0,0,1,1,1.67c0,.11.07.23.09.33-.13-.06-.16.07-.15.29a.64.64,0,0,0-.36,0,1.46,1.46,0,0,0-.23-.75l0,1a1.83,1.83,0,0,0,0,.37l.06.24v.37l0-.21c.37,1.58.72,3.13,1.08,4.66a.27.27,0,0,1-.13,0,.37.37,0,0,1,.16.09c.37,1.55.75,3.1,1.17,4.67-.2,0-.27,1.3-.62,1-.73-.55-.63-2-.73-3.22-.77,2.54,1.12,3.22,1,5.35-.28,0-.64-.06-.75-1-.11.4.88,1.76.88,3.21.11-.41.5-1.3,1,0l-.15,1c-.08.49-.13,1-.13,1,.38,2.12.91.53,1.66,2.15l.19-1.24a.27.27,0,0,1,.18.1c.14.37.26.74.4,1.12-.13,0-.33-.36-.42-.52a25.53,25.53,0,0,0,1.54,3.83c0,.15,0,.31,0,.5-1,.4-2.09-2.4-3.25-1.67.79,2.22,2.26,5.32,2.44,6.91,1.09,1.86,1.77,1.36,2.2.85a4.29,4.29,0,0,1,.59,1.75l-.69-.77c1.33,2.24,2.29,3.4,3.51,5.8.9,1.24,1.14.4,1.38-.14l.9,1.36v-.28c.67,0,1.17,1.08,1.67,2a9.79,9.79,0,0,1-.85-.89c.31.37.66.76,1,1.17-.24.14-.64-.37-.76-.23a5.71,5.71,0,0,0,1.83,2.6c-.23.17-1.15,0-1.61-1.09,0-.14.11-.15.11-.29l-1.34-1.44c1.46,1.72,1.61,3.22,1,3.56,1.58,1.67-.45-1.91,1.28.15,1,3.71,4.31,5.1,4.24,7.8.71.49,1.52,1,2.42,1.55a29.73,29.73,0,0,1,2.8,2.09c.38-.43,1.42,1,1.7.28a6.93,6.93,0,0,0-2.64-2.21,4.08,4.08,0,0,1-2.09-2.24c-.92-.62-1,0-1.59-.19-.71-.68-1.26-1.43-1.06-1.76,1.73,1.48,1.44-.44,3.34,1.63.12-.61-1.58-2.12-2.09-3,.39.06.43-.37.19-1a11.53,11.53,0,0,1,1.71.87l-.12.55c.73.54.1-.48.83.06l.29.22c0,.11,0,.22-.17.18l1.25.77.34.18c.32.27.64.55.94.83l.15.13c.14.57,0,.87-.44.78,1,1.24,3.52,2.41,3,3,1.67,1.17-.19-.8-.15-1.09l.16.08-.55-.47a17,17,0,0,1,2.86,1.44c-.23.13-.6,0-.71,0A22.54,22.54,0,0,0,40,133.44a1.91,1.91,0,0,0,.61.51l-2.16,0,1.4.67c-1-.11-1.5.6-2.94.2,1.7,1.34,4.07,3.4,5.43,3.87.25.65.27,1.14-.17,1.39,2.33.41,2.89,2,4.68,2.85,2.1.37-1.63-1.42,0-1.4a3.85,3.85,0,0,0,2.14.81c-.67,0-2.51-1.23-3.69-2.11,1,.51,1.14-.12,1.52-.23l-1.55-.91c.46-.66,2,.94,2.92.88-.77.44-.51.59-1.29,1a17.37,17.37,0,0,1,4.91,2c.67.52-.74.12-1.22.17.2.58,1.61.23,1.73.9-.37.34-1-.27-1.54-.32l.7.26c.42.16,1,.39,1.54.55l2.28.71c-.06.28-1.25.06-1.95-.24a4.8,4.8,0,0,0,1.93.6,6.65,6.65,0,0,0,2.33-.44c1.52.6,3.36,1.17,2.76,1.54.77-.08.29-.41.32-.69,2.17.4,2.49-.67,3.77-.59l-.95-.59c2,.67.51-.82,2.3-.39a1.87,1.87,0,0,0,.13,1.78c.3-.57,1.49,0,2.3-.11-.52-.51,1.7-.62.38-1.08a6.84,6.84,0,0,1,2.18-.26,3,3,0,0,0,1.77-.54c-.86-.06,1.46-.77.67-1.07,1.68-.36,3,0,2.66.7-.61.08-1.61,0-1.46.48l1.58-.38a8.87,8.87,0,0,0,1.07-.3l.48-.15c.85.06,1.89-.1,2.21.47.75-1.06,3.16-.56,3.56-1.74-.8,1-1.94.55-2.35.62l.43-.28-.26.06.47-.76.44-.75c-1.4.06.05.76-1.74,1.39-.84-.19-.3-.79.35-1.37.72-.11,1.43-.23,2.14-.4l2.92-.57,3-.81c0,.11-.2.25-.3.31a11.05,11.05,0,0,0,2-.58c.64-.29,1.27-.6,1.88-.91a16.08,16.08,0,0,1,3.53-1.4c.36-.32,1.49-1,.94-1.34a.54.54,0,0,1-.45-.09,1.87,1.87,0,0,0,.84-.74l-.17.61,1.57-.25c-.06.38-.72.62-.49,1.2l.82-.64.8-.7a2.75,2.75,0,0,0,.49-.14l1.41-.27c-.76.43-.28.67-1.37,1.37a18.19,18.19,0,0,1,3.78-2.12s0,0,0-.05c3.28-1.16,6.54-2.36,8.65-4.19h.51a4.78,4.78,0,0,0,.5,0c1.12-1.53,3.54-3.09,5.57-5a21.51,21.51,0,0,0,2.67-2.8,5.61,5.61,0,0,0,1.15-2.52c1.54-1.14.16.91.21,1.26a7.31,7.31,0,0,0,1.45-2.19,4,4,0,0,1,1.69-1.88c.27.19-1,1.72-.31,1.13,1.1-.48.44-1.51,1.6-2.12-.75.1.1-2.15.75-3.7-.17.26-.17.26-.29.34-.48,0,.2-1,.47-1.65a.38.38,0,0,1,0,.28,58.05,58.05,0,0,0,3.16-10.11l.53-.94c.18-.32.34-.64.45-.89l.2-.41c.23-1.21.62-2.39.92-3.52a8.69,8.69,0,0,0,.19-3.21l.56-.42c-.79-1.5-.32-4.12-.6-6,0-.19,0-.38.05-.56l.18.8c.09.41.15.82.15.82a15.23,15.23,0,0,1,.16-4.18l0,.18a3.17,3.17,0,0,0,0-2.45,2.54,2.54,0,0,0,.4-.67l-.58-.18a1.84,1.84,0,0,1,.12-.65,2.26,2.26,0,0,0,.23-.29l.05.19c0-.11,0-.2,0-.31a.61.61,0,0,0,.09-.26.6.6,0,0,1-.09.15,17.94,17.94,0,0,1,.11-1.87c.17-.3.34-.54.46-.56.09.7-.22,1.48,0,2.17,1-2.23.29-.1,1.24-1.06-.91.07.22-2.14.31-3.47.38-.05-.09.93.07,1.3,2.09-2.15.55-3.77,1.17-6.9.11.07.18.48.19.68-.13-1.53.73-2.58.24-3.59C138.87,63,139.74,64.15,139.66,61.83ZM7.9,60.15c0,.22,0,.44,0,.66H7.14c0-.22,0-.45,0-.71l1.45,0v0Zm5.55-.1-1.43,0v0l1.44,0A.43.43,0,0,1,13.45,60.05Zm1.12-4.16a.73.73,0,0,0-.09-.39,3.05,3.05,0,0,0-.13,1.1c-.13.44-.25.87-.37,1.3-.15-.41-.35-.56-.65.08l.45.71c-.08.3-.15.59-.22.89,0,0-.05.06-.06.14a1.54,1.54,0,0,0,0,.19.24.24,0,0,1,0,.08L12,60a19.57,19.57,0,0,1,1.58-8.55c-.1,1.22-.87,2.33-.86,3.17l.49-1c.58.3,0,1.16-.16,1.63l1-.55c.32-1.42-.15-2.56.56-3.51-.21,2.08.24,2.22.25,3.71C14.76,55.27,14.66,55.58,14.57,55.89Zm2.12-9.13a33.46,33.46,0,0,1-.78,3.7l.42-.84a6.39,6.39,0,0,1-.26,2c-.29.71-.55,1.43-.81,2.14-.22-.29-.09-2.24-.55-1.22-.29-1.08.63-2.66,0-3.1l-.6.69-.31.39c-.22.22-.44.32-.53.15a1.42,1.42,0,0,1,.08-.9,6.22,6.22,0,0,1,.32-.89c.17-.33.38-.73.65-1.18.4,1,1.24-.2,2.52-1.83C16.82,46.19,16.75,46.47,16.69,46.76Zm99.63-11.57,0,.1-.22-.22ZM34.75,129.74a.26.26,0,0,1,.32-.17,1.28,1.28,0,0,1,.35.74ZM53.92,140c.16-.73.77-.46.49-1.28-.93.25-2.21-.3-3.25-.2a.57.57,0,0,1,.07-.52,14.72,14.72,0,0,0,2.21.17,3.06,3.06,0,0,0,2.2.43l.34,0c.16.22-.75.23-.18.43a9.4,9.4,0,0,0,1.42.45c-.62,0-1.21.06-1.75.11a9.23,9.23,0,0,0,2.22,1.4C55.89,141.82,56,140,53.92,140Zm5.56.17a.91.91,0,0,1,.57-.28.47.47,0,0,1,.12.29C59.92,140.19,59.68,140.18,59.48,140.19Zm19.36,1.94-1.17.56c-.21-.3.45-.79.45-.79a17.78,17.78,0,0,1-1.85.43c-.52.06-1,.08-1.44.1s-.93,0-1.48.07-1.2,0-2,.11c.24.1,1,1.08-.43,1.46-1,.37-1.23-.28-2.11-.28.52-.17.94-.79,1.68-.45l-.13-.74a4,4,0,0,0,1.39-1c.8-.14,1.59-.28,2.16.37,1.58.24,1.64-.82,2.84-1.05,0,.29-.34.84.3.93,1-.19,2-.33,2.91-.47a1.56,1.56,0,0,1-.26.25l.28-.08A10.81,10.81,0,0,1,78.84,142.13Zm23.38-7.7a.08.08,0,0,0,0-.08l.43-.15C102.66,134.33,102.58,134.44,102.22,134.43ZM122.55,89A2.93,2.93,0,0,1,119.62,92H103.9v14.57a2.93,2.93,0,0,1-2.93,2.93H86.39v15.72a2.93,2.93,0,0,1-2.93,2.93H61.4a2.93,2.93,0,0,1-2.93-2.93V109.45H43.89A2.93,2.93,0,0,1,41,106.52V92H25.24A2.93,2.93,0,0,1,22.31,89V67A2.93,2.93,0,0,1,25.24,64H41V49.44a2.93,2.93,0,0,1,2.93-2.93H58.47V30.79a2.93,2.93,0,0,1,2.93-2.92H83.46a2.93,2.93,0,0,1,2.93,2.92V46.51H101a2.93,2.93,0,0,1,2.93,2.93V64h15.72A2.93,2.93,0,0,1,122.55,67Zm10.51-24a3.48,3.48,0,0,0-1.22,2.13,2,2,0,0,1-.29,1.66,55.5,55.5,0,0,0-1.68-9.91c-.49-1.93-1.07-3.72-1.67-5.38a5,5,0,0,0,.18-1.3,1.29,1.29,0,0,0-.95-.71,60.13,60.13,0,0,0-4-8.17c-1.17-1.4-2.46-2.85-3.7-4.37-.66-.72-1.32-1.45-2-2.18l-.33-.37a11.63,11.63,0,0,1,1.7,1.13,33.8,33.8,0,0,1,2.55,2.43c.77.9,1.6,1.73,2.29,2.44A4.94,4.94,0,0,0,126,43.78c.49,1.69-.85-.08-1.25,0a11.76,11.76,0,0,0,1.47,1.75,2.5,2.5,0,0,1,.91,2c-.24.11-1-1.42-.8-.65-.09,1,1,.91.92,2.06.15-.31.61-.08,1.09.42a9.05,9.05,0,0,1,1.31,2c-.09-.27-.09-.27-.07-.4.3-.36.67.73.9,1.31a.38.38,0,0,1-.22-.16,31.38,31.38,0,0,1,2.84,12.18C133.07,64.5,133.06,64.74,133.06,65Zm1.74,13a1,1,0,0,1,.06-.16v0Z"/></svg>