<?xml version="1.0" encoding="utf-8"?>
<!-- Generator: Adobe Illustrator 26.0.0, SVG Export Plug-In . SVG Version: 6.00 Build 0)  -->
<svg version="1.1" id="Capa_1" xmlns="http://www.w3.org/2000/svg" xmlns:xlink="http://www.w3.org/1999/xlink" x="0px" y="0px"
	 viewBox="0 0 329.3 114" style="enable-background:new 0 0 329.3 114;" xml:space="preserve">
<style type="text/css">
	.st0{fill:#731A13;}
	.st1{fill:#FFFFFF;}
	.st2{fill:#3C3C3B;}
</style>
<g>
	<circle class="st0" cx="57" cy="57" r="57"/>
	<path class="st1" d="M60.4,78.7h-6.8c-1.9,0-3.4-1.5-3.4-3.4v-3.9l-4.2,0c-1.9,0-3.4-1.5-3.4-3.4v-3.9l-4.2,0c0,0,0,0,0,0
		c-0.9,0-1.7-0.3-2.4-1c-0.6-0.6-1-1.5-1-2.4v-7.7c0-0.9,0.4-1.7,1-2.4c0.6-0.6,1.5-1,2.4-1c0,0,0,0,0,0l4.2,0v-3.9
		c0-1.9,1.5-3.4,3.4-3.4l4.2,0v-3.9c0-1.9,1.5-3.4,3.4-3.4h6.8c1.9,0,3.4,1.5,3.4,3.4v3.9l4.2,0c1.9,0,3.4,1.5,3.4,3.4v3.9l4.2,0
		c0,0,0,0,0,0c0.9,0,1.7,0.3,2.4,1c0.6,0.6,1,1.5,1,2.4v7.7c0,0.9-0.4,1.7-1,2.4c-0.6,0.6-1.5,1-2.4,1c0,0,0,0,0,0l-4.2,0v3.9
		c0,1.9-1.5,3.4-3.4,3.4l-4.2,0v3.9C63.7,77.2,62.2,78.7,60.4,78.7z M55,73.9H59V70c0-1.9,1.5-3.4,3.4-3.4l4.2,0v-3.9
		c0-1.9,1.5-3.4,3.4-3.4l4.2,0v-4.8l-4.2,0c-1.9,0-3.4-1.5-3.4-3.4v-3.9l-4.2,0c-1.9,0-3.4-1.5-3.4-3.4v-3.9H55V44
		c0,1.9-1.5,3.4-3.4,3.4l-4.2,0v3.9c0,1.9-1.5,3.4-3.4,3.4l-4.2,0v4.8l4.2,0c1.9,0,3.4,1.5,3.4,3.4v3.9l4.2,0c1.9,0,3.4,1.5,3.4,3.4
		V73.9z M75.5,59.4L75.5,59.4C75.5,59.4,75.5,59.4,75.5,59.4z M38.5,59.4C38.5,59.4,38.5,59.4,38.5,59.4L38.5,59.4L38.5,59.4z
		 M75.5,54.6L75.5,54.6C75.5,54.6,75.5,54.6,75.5,54.6L75.5,54.6z M38.5,54.6C38.5,54.6,38.5,54.6,38.5,54.6L38.5,54.6z"/>
	<path class="st1" d="M64.1,99.8H49.9c-2.4,0-4.4-2-4.4-4.4V84.6l-11.4,0c-2.4,0-4.4-2-4.4-4.4V69.4l-11.4,0c0,0,0,0,0,0
		c-1.2,0-2.3-0.5-3.1-1.3c-0.8-0.8-1.3-2-1.3-3.1V49c0-1.2,0.5-2.3,1.3-3.1c0.8-0.8,2-1.3,3.1-1.3c0,0,0,0,0,0l11.4,0V33.8
		c0-2.4,2-4.4,4.4-4.4l11.4,0V18.7c0-2.4,2-4.4,4.4-4.4h14.2c2.4,0,4.4,2,4.4,4.4l0,10.7l11.4,0c2.4,0,4.4,2,4.4,4.4v10.7l11.4,0
		c0,0,0,0,0,0c1.2,0,2.3,0.5,3.1,1.3c0.8,0.8,1.3,2,1.3,3.1V65c0,1.2-0.5,2.3-1.3,3.1c-0.8,0.8-1.9,1.3-3.1,1.3c0,0,0,0,0,0l-11.4,0
		v10.7c0,2.4-2,4.4-4.4,4.4l-11.4,0l0,10.7C68.5,97.8,66.5,99.8,64.1,99.8z M50.3,95h13.5l0-10.7c0-2.4,2-4.4,4.4-4.4l11.4,0V69.1
		c0-2.4,2-4.4,4.4-4.4l11.4,0V49.3l-11.4,0c-2.4,0-4.4-2-4.4-4.4V34.2l-11.4,0c-2.4,0-4.4-2-4.4-4.4l0-10.7H50.3v10.7
		c0,2.4-2,4.4-4.4,4.4l-11.4,0v10.7c0,2.4-2,4.4-4.4,4.4l-11.4,0v15.4l11.4,0c2.4,0,4.4,2,4.4,4.4v10.7l11.4,0c2.4,0,4.4,2,4.4,4.4
		V95z M95.7,64.7L95.7,64.7L95.7,64.7L95.7,64.7z M18.3,64.7L18.3,64.7L18.3,64.7L18.3,64.7z"/>
	<g>
		<g>
			<path class="st2" d="M143.4,43.4H140v7.9h-5.8V25.8h10.6c6.2,0,8.5,2.5,8.5,7.2v3.1c0,3.2-1.2,5.3-3.7,6.4l6.2,8.7H149
				L143.4,43.4z M147.6,33.6c0-1.9-0.7-2.7-3.1-2.7H140v7.5h4.6c2.5,0,3.1-0.9,3.1-2.8V33.6z"/>
			<path class="st2" d="M163.6,32.7V45c0,0.8,0.4,1.3,1.3,1.3c1,0,2.8-0.7,4-1.3V32.7h5.5v18.7h-4.1l-0.6-1.4
				c-2.3,1.1-5.3,1.8-7.4,1.8c-3.2,0-4.3-2.4-4.3-6V32.7H163.6z"/>
			<path class="st2" d="M185.2,51.7c-3.6,0-5.6-1.3-5.6-4.8v-9.8H177v-4.4h2.5v-4.5l5.5-0.8v5.3h4.3l-0.3,4.4h-3.9v9
				c0,0.8,0.5,1,1.2,1c0.6,0,1.5-0.1,2.3-0.3l0.7,4.2C187.9,51.4,186.4,51.7,185.2,51.7z"/>
			<path class="st2" d="M202.2,51.3l-0.4-1.2c-2.1,1.2-4.1,1.6-5.3,1.6c-3.5,0-4.9-2.5-4.9-5.7c0-3.8,1.7-5.3,5.6-5.3h4v-1.4
				c0-1.9-0.3-2.6-3.3-2.6c-1.6,0-3.3,0.2-5.1,0.5l-0.7-4.1c1.8-0.5,4.6-0.9,6.7-0.9c6.5,0,7.9,2,7.9,7.1v11.9H202.2z M201.2,44.6
				h-2.6c-1.2,0-1.6,0.3-1.6,1.3c0,1,0.4,1.5,1.5,1.5c1.2,0,2-0.3,2.8-0.7V44.6z"/>
			<path class="st2" d="M133.3,71.1c0-4.4,1.9-6.9,6.3-6.9c1.5,0,3.5,0.2,4.8,0.5V57l5.5-0.8v27.1h-4.3l-0.6-1.5
				c-1.3,0.8-3.7,1.9-5.8,1.9c-3.8,0-5.9-2.3-5.9-6.9V71.1z M144.3,69.5c-1-0.2-2.4-0.5-3.5-0.5c-1.5,0-2,0.9-2,2.1v5.6
				c0,1.3,0.5,2.1,2,2.1c1.3,0,2.7-0.8,3.5-1.5V69.5z"/>
			<path class="st2" d="M158.8,75.9v0.5c0,2.1,0.8,2.7,3.4,2.7c1.7,0,4-0.3,5.7-0.8l0.8,4.1c-1.7,0.6-4.4,1.2-7,1.2
				c-6.1,0-8.4-3-8.4-7.6v-4.4c0-4,1.8-7.5,8-7.5c6.2,0,7.6,3.7,7.6,7.7v3.9H158.8z M163.6,70.9c0-1.3-0.4-2.4-2.3-2.4
				c-1.9,0-2.5,1.1-2.5,2.4v0.8h4.8V70.9z"/>
			<path class="st2" d="M172.3,83.3V57l5.5-0.8v27.1H172.3z"/>
			<path class="st2" d="M210.9,83.3h-6l-1.4-5H195l-1.4,5h-6l7.8-25.5h7.7L210.9,83.3z M196.3,73.5h5.9l-2.9-10.7L196.3,73.5z"/>
			<path class="st2" d="M218.7,71.9v11.4h-5.5V64.6h4.6l0.4,1.8c1.2-0.8,3.5-1.9,5-2.2l0.5,5.2C222,70.1,219.9,71,218.7,71.9z"/>
			<path class="st2" d="M232.5,83.7c-3.6,0-5.6-1.3-5.6-4.8v-9.8h-2.5v-4.4h2.5v-4.5l5.5-0.8v5.3h4.3l-0.3,4.4h-3.9v9
				c0,0.8,0.5,1,1.2,1c0.6,0,1.5-0.1,2.3-0.3l0.7,4.2C235.2,83.4,233.7,83.7,232.5,83.7z"/>
			<path class="st2" d="M244,75.9v0.5c0,2.1,0.8,2.7,3.4,2.7c1.7,0,4-0.3,5.7-0.8l0.8,4.1c-1.7,0.6-4.4,1.2-7,1.2
				c-6.1,0-8.4-3-8.4-7.6v-4.4c0-4,1.8-7.5,8-7.5s7.6,3.7,7.6,7.7v3.9H244z M248.8,70.9c0-1.3-0.4-2.4-2.3-2.4
				c-1.9,0-2.5,1.1-2.5,2.4v0.8h4.8V70.9z"/>
			<path class="st2" d="M263.3,83.7c-2,0-4.9-0.5-6.8-1.1l0.9-4.1c1.5,0.5,3.6,0.8,5.6,0.8c1.6,0,1.9-0.5,1.9-1.6c0-1.2,0-1.3-3-2.1
				c-4.5-1.1-4.9-2.3-4.9-5.8c0-3.9,1.5-5.6,7.1-5.6c1.4,0,4,0.2,5.7,0.6l-0.5,4.3c-1.6-0.3-3.7-0.5-5.1-0.5c-1.6,0-2,0.4-2,1.3
				c0,1.2,0.2,1.3,2.4,1.8c5.3,1.2,5.7,2.3,5.7,6.1C270.3,81.6,268.7,83.7,263.3,83.7z"/>
			<path class="st2" d="M283.5,83.3l-0.4-1.2c-2.1,1.2-4.1,1.6-5.3,1.6c-3.5,0-4.9-2.5-4.9-5.7c0-3.8,1.7-5.3,5.6-5.3h4v-1.4
				c0-1.9-0.3-2.6-3.3-2.6c-1.6,0-3.3,0.2-5.1,0.5l-0.7-4.1c1.8-0.5,4.6-0.9,6.7-0.9c6.5,0,7.9,2,7.9,7.1v11.9H283.5z M282.5,76.6
				h-2.6c-1.2,0-1.6,0.3-1.6,1.3c0,1,0.4,1.5,1.5,1.5c1.2,0,2-0.3,2.8-0.7V76.6z"/>
			<path class="st2" d="M303,83.3V70.9c0-0.8-0.4-1.3-1.3-1.3c-1,0-2.8,0.7-4,1.3v12.3h-5.5V64.6h4.1l0.6,1.4
				c2.3-1.1,5.3-1.8,7.4-1.8c3.2,0,4.3,2.4,4.3,6v13.1H303z"/>
			<path class="st2" d="M311.8,76.1v-4.3c0-3.8,1.8-7.6,8.4-7.6s8.4,3.7,8.4,7.6v4.3c0,3.8-1.8,7.6-8.4,7.6S311.8,79.9,311.8,76.1z
				 M323.1,76.3v-4.6c0-1.8-0.9-2.8-2.9-2.8s-2.9,1-2.9,2.8v4.6c0,1.8,0.9,2.8,2.9,2.8S323.1,78,323.1,76.3z"/>
		</g>
	</g>
</g>
</svg>
