<?xml version="1.0" encoding="UTF-8"?>
<svg id="Capa_1" xmlns="http://www.w3.org/2000/svg" xmlns:xlink="http://www.w3.org/1999/xlink" viewBox="0 0 526.1 255.39">
  <defs>
    <style>
      .cls-1 {
        fill: #fff;
      }

      .cls-2 {
        fill: none;
      }

      .cls-3 {
        fill: #434041;
      }

      .cls-4 {
        fill: #749013;
      }

      .cls-5 {
        clip-path: url(#clippath);
      }
    </style>
    <clipPath id="clippath">
      <circle class="cls-2" cx="124.04" cy="127.7" r="89.44"/>
    </clipPath>
  </defs>
  <g>
    <circle class="cls-4" cx="124.04" cy="127.7" r="89.44"/>
    <g class="cls-5">
      <g>
        <path class="cls-1" d="M128.8,84.69c-7.83,0-14.21-6.37-14.21-14.21s6.37-14.21,14.21-14.21,14.21,6.37,14.21,14.21-6.37,14.21-14.21,14.21ZM128.8,62.58c-4.36,0-7.91,3.55-7.91,7.91s3.55,7.91,7.91,7.91,7.91-3.55,7.91-7.91-3.55-7.91-7.91-7.91Z"/>
        <path class="cls-1" d="M99.53,131.91c-.89,0-1.8-.13-2.69-.4h0s-5.85-1.77-5.85-1.77c-4.93-1.49-7.72-6.71-6.24-11.63l10.4-34.44c1.49-4.93,6.7-7.72,11.63-6.24l5.85,1.77c2.39.72,4.35,2.33,5.53,4.52,1.18,2.2,1.43,4.72.71,7.11l-10.4,34.44c-1.22,4.03-4.93,6.64-8.94,6.64ZM98.66,125.47c1.6.48,3.3-.43,3.78-2.03l10.4-34.43c.23-.77.15-1.59-.23-2.31-.38-.71-1.02-1.24-1.8-1.47l-5.85-1.77c-1.6-.48-3.29.43-3.78,2.03l-10.4,34.43c-.48,1.6.43,3.29,2.03,3.78l5.85,1.77h0Z"/>
        <path class="cls-1" d="M100.03,190.78c-1.29,0-2.6-.28-3.83-.88-4.27-2.06-6.14-7.09-4.26-11.44l9.12-22.71c.06-.15.1-.31.12-.47l2.74-23.41c.17-1.41,1.26-2.54,2.66-2.75,1.41-.21,2.78.55,3.35,1.85.87,1.98,5.83,5.19,9.82,7.76,1.15.74,2.31,1.49,3.46,2.26,1.1.73,1.63,2.08,1.31,3.37l-3.88,15.89c-.37,1.51-.92,2.98-1.64,4.35l-11.19,21.5c-1.6,2.99-4.64,4.69-7.78,4.69ZM109.39,139.29l-1.96,16.72c-.09.72-.26,1.42-.53,2.09l-9.15,22.79c-.57,1.32-.03,2.75,1.18,3.34,1.22.59,2.67.11,3.31-1.08l11.17-21.46c.48-.93.86-1.92,1.11-2.94l3.36-13.73c-.52-.34-1.03-.67-1.54-1-2.54-1.64-4.93-3.19-6.94-4.72Z"/>
        <g>
          <path class="cls-1" d="M139.14,178.23c-4.38,0-8.14-3.23-8.73-7.66l-2.51-18.9c-4.04-2.69-16.98-11.31-17.12-11.4-7.19-4.74-9.95-11.36-7.75-18.66l8.26-27.36c1.06-3.51,3.42-6.4,6.66-8.13,3.23-1.73,6.95-2.1,10.46-1.04,2.8.85,5.21,2.52,6.98,4.85,1.05,1.39.78,3.36-.61,4.41-1.39,1.05-3.36.78-4.41-.61-.95-1.26-2.25-2.16-3.77-2.62-1.9-.57-3.91-.37-5.66.56-1.75.94-3.03,2.5-3.6,4.4l-8.26,27.36c-1.38,4.59.32,8.38,5.2,11.59t18.33,12.21c.76.5,1.26,1.31,1.38,2.21l2.7,20.32c.18,1.34,1.36,2.29,2.72,2.18,1.35-.12,2.36-1.27,2.29-2.62l-1.01-22.33c-.1-2.24-1.15-4.36-2.87-5.8l-13.24-11.08c-.97-.81-1.36-2.12-.99-3.33l4.65-15.39c.5-1.66,2.26-2.61,3.93-2.1,1.67.5,2.61,2.26,2.1,3.93l-4.05,13.4,11.65,9.74c3.07,2.57,4.94,6.34,5.12,10.35l1.01,22.33c.21,4.73-3.31,8.76-8.03,9.18-.27.02-.54.04-.8.04Z"/>
          <path class="cls-1" d="M140.87,124.01c-3.07,0-5.95-1.44-7.8-3.93l-8.77-11.84c-1.04-1.4-.74-3.37.66-4.41,1.4-1.03,3.37-.74,4.41.66l8.77,11.84c.7.94,1.82,1.45,2.99,1.37l13.43-.95c1.28-.09,2.29-1.17,2.29-2.46s-1.01-2.37-2.29-2.46l-8.21-.58c-2.11-.15-4.03-1.21-5.29-2.91l-10.79-14.61c-1.03-1.4-.74-3.37.66-4.41s3.37-.74,4.41.66l10.79,14.61c.16.21.4.35.66.36l8.21.58c4.57.32,8.15,4.16,8.15,8.74s-3.58,8.42-8.15,8.74l-13.43.95c-.23.02-.47.02-.7.02Z"/>
        </g>
        <path class="cls-1" d="M156.82,168.77c-1.74,0-3.15-1.41-3.15-3.15v-46.27c0-1.74,1.41-3.15,3.15-3.15s3.15,1.41,3.15,3.15v46.27c0,1.74-1.41,3.15-3.15,3.15Z"/>
        <path class="cls-1" d="M156.82,112.38c-1.74,0-3.15-1.41-3.15-3.15v-14.23c0-1.74,1.41-3.15,3.15-3.15s3.15,1.41,3.15,3.15v14.23c0,1.74-1.41,3.15-3.15,3.15Z"/>
        <path class="cls-1" d="M96.18,191.36c-8.61,0-40.15-.22-40.46-.22-1.74-.01-3.14-1.43-3.13-3.17.01-1.73,1.42-3.13,3.15-3.13h.02c.32,0,31.83.22,40.42.22,6.02,0,10.48-1.98,14.06-3.57,1.17-.52,2.18-.97,3.15-1.31.6-.21,1.16-.84,2.02-1.86,1.75-2.05,4.15-4.87,9.55-5.63,1.14-.16,2.71-.17,4.69-.18,5.42-.03,13.61-.07,18.78-3.27,1.37-.85,2.09-1.73,2.93-2.75,2.5-3.05,4.9-5.21,13.14-5.21,2.42,0,4.48-4.64,6.15-8.38,1.14-2.57,2.22-4.99,3.63-6.79,3.19-4.06,7.83-5.18,11.22-5.99,1.15-.27,2.23-.54,2.87-.83,1.24-.62,3.92-5.13,5.06-7.05,1.02-1.72,1.83-3.08,2.55-3.92,1.55-1.81,7.1-3.94,16.49-6.34,1.69-.43,3.4.59,3.83,2.27.43,1.69-.59,3.4-2.27,3.83-5.4,1.38-11.96,3.47-13.35,4.44-.4.52-1.16,1.8-1.84,2.93-2.77,4.65-5.1,8.31-7.87,9.57-1.19.54-2.56.87-4.01,1.22-2.9.7-5.9,1.42-7.73,3.75-.93,1.19-1.86,3.27-2.84,5.47-2.4,5.4-5.39,12.12-11.9,12.12-5.89,0-6.73,1.03-8.26,2.9-.99,1.21-2.22,2.71-4.49,4.12-6.68,4.14-15.94,4.18-22.06,4.21-1.6,0-3.12.02-3.84.12-3.03.43-4.18,1.77-5.63,3.48-1.17,1.38-2.51,2.94-4.75,3.72-.72.25-1.62.65-2.66,1.11-3.69,1.64-9.27,4.12-16.62,4.12Z"/>
      </g>
    </g>
  </g>
  <g>
    <path class="cls-3" d="M241.4,149.2v-39.87h25.08v7.96h-16.1v7.3h14.85v7.96h-14.85v8.68h16.1v7.96h-25.08Z"/>
    <path class="cls-3" d="M279.29,138.07c0,2.99,1.26,4.37,4.73,4.37,2.21,0,3.89-.24,5.98-.72l1.08,7.18c-2.93.66-5.03.9-7.06.9-9.46,0-13.35-3.53-13.35-11.85v-6.64c0-8.32,3.89-11.85,13.35-11.85,2.03,0,4.13.24,7.06.9l-1.08,7.18c-1.8-.42-4.31-.72-5.98-.72-3.47,0-4.73,1.38-4.73,4.37v6.88Z"/>
    <path class="cls-3" d="M294.19,138.01v-6.76c0-5.99,2.82-11.79,13.17-11.79s13.17,5.81,13.17,11.79v6.76c0,5.99-2.81,11.79-13.17,11.79s-13.17-5.81-13.17-11.79ZM311.91,138.25v-7.24c0-2.75-1.44-4.31-4.55-4.31s-4.55,1.56-4.55,4.31v7.24c0,2.75,1.44,4.31,4.55,4.31s4.55-1.56,4.55-4.31Z"/>
    <path class="cls-3" d="M335.02,149.8c-3.17,0-7.72-.78-10.59-1.74l1.38-6.41c2.39.72,5.57,1.32,8.8,1.32,2.57,0,2.99-.72,2.99-2.45,0-1.86-.06-2.1-4.73-3.23-7.06-1.74-7.72-3.65-7.72-9.1,0-6.17,2.39-8.74,11.13-8.74,2.21,0,6.29.3,8.86.96l-.78,6.7c-2.57-.48-5.75-.84-8.02-.84-2.52,0-3.11.66-3.11,1.98,0,1.79.24,2.03,3.71,2.81,8.32,1.86,8.92,3.65,8.92,9.46s-2.51,9.28-10.83,9.28Z"/>
    <path class="cls-3" d="M358.07,137.65v.84c0,3.35,1.32,4.25,5.27,4.25,2.7,0,6.28-.48,8.86-1.26l1.26,6.46c-2.63.96-6.88,1.86-10.95,1.86-9.46,0-13.05-4.67-13.05-11.85v-6.82c0-6.28,2.81-11.67,12.51-11.67s11.79,5.75,11.79,12.09v6.11h-15.68ZM365.61,129.93c0-2.03-.6-3.71-3.59-3.71s-3.95,1.68-3.95,3.71v1.26h7.54v-1.26Z"/>
    <path class="cls-3" d="M396.14,149.2v-19.27c0-1.32-.6-2.1-2.09-2.1s-4.43,1.08-6.29,2.1v19.27h-8.62v-29.15h6.4l.9,2.21c3.59-1.74,8.26-2.81,11.61-2.81,4.97,0,6.7,3.71,6.7,9.34v20.41h-8.62Z"/>
    <path class="cls-3" d="M409.85,130.23c0-6.88,2.99-10.77,9.82-10.77,2.39,0,5.45.36,7.42.84v-12.15l8.62-1.2v42.26h-6.77l-.9-2.33c-2.03,1.32-5.81,2.93-8.98,2.93-5.93,0-9.22-3.65-9.22-10.77v-8.8ZM427.08,127.66c-1.5-.36-3.71-.72-5.51-.72-2.28,0-3.11,1.38-3.11,3.29v8.8c0,2.03.84,3.29,3.11,3.29,1.98,0,4.25-1.2,5.51-2.28v-12.39Z"/>
    <path class="cls-3" d="M458.21,149.2l-.6-1.86c-3.35,1.86-6.35,2.45-8.32,2.45-5.39,0-7.6-3.89-7.6-8.86,0-5.87,2.69-8.2,8.68-8.2h6.28v-2.21c0-2.99-.54-4.01-5.15-4.01-2.57,0-5.15.3-7.9.84l-1.14-6.46c2.75-.84,7.12-1.44,10.48-1.44,10.12,0,12.33,3.05,12.33,11.13v18.62h-7.06ZM456.66,138.73h-4.13c-1.86,0-2.57.48-2.57,2.1s.66,2.28,2.33,2.28c1.8,0,3.05-.42,4.37-1.02v-3.35Z"/>
    <path class="cls-3" d="M480.66,149.8c-3.17,0-7.72-.78-10.59-1.74l1.38-6.41c2.39.72,5.57,1.32,8.8,1.32,2.57,0,2.99-.72,2.99-2.45,0-1.86-.06-2.1-4.73-3.23-7.06-1.74-7.72-3.65-7.72-9.1,0-6.17,2.39-8.74,11.14-8.74,2.21,0,6.28.3,8.86.96l-.78,6.7c-2.57-.48-5.75-.84-8.02-.84-2.52,0-3.11.66-3.11,1.98,0,1.79.24,2.03,3.71,2.81,8.32,1.86,8.92,3.65,8.92,9.46s-2.51,9.28-10.83,9.28Z"/>
  </g>
</svg>