<svg id="Capa_1" data-name="Capa 1" xmlns="http://www.w3.org/2000/svg" viewBox="0 0 521.81 156.88"><defs><style>.cls-1{fill:#386d57;}</style></defs><path class="cls-1" d="M99,72.57c-2.58-.4-5.15-.79-7.72-1.2a2.36,2.36,0,0,1-2.12-2L85.85,47.8c-.08-.46-.17-.91-.26-1.37a1.39,1.39,0,0,0-.19.6L82.13,69.3a2.32,2.32,0,0,1-2.08,2.13L59.93,74.56,57.21,75c7.63,1.23,15.24,2.35,22.86,3.46a2.38,2.38,0,0,1,2.17,2.14q1.19,8.16,2.33,16.33c.32,2.21.62,4.43,1,6.79.12-.17.16-.21.16-.25.6-4,1.17-7.9,1.78-11.84.57-3.68,1.16-7.37,1.76-11a2.35,2.35,0,0,1,2.25-2.22c.94-.16,1.89-.27,2.84-.41l15.61-2.25,4.44-.65a4.14,4.14,0,0,0-.47-.16Z"/><path class="cls-1" d="M152.65,57.69s.3-1.86.3-1.86c-.39-.74-.78-.56-1.15-.57s-.66-.24-1.07-1.66c-.29-2.73,1.63-.12,1.75-1.82l-.68-.52s0-.36,0-.71l0-.71.1.19c-.41-.73-.72-2.2-.46-2.3.26.05.53.91.79,1a3.3,3.3,0,0,1-.47-1.38l-.43-2c-.29-1.38-.82-2.68-1.8-3-.11-.85-.88-2.34-.38-2.36-.93-.33-1.63-3.33-2.63-4,.26,0,0-1.07-.62-1.66.41,1.07-.17.61-.89.21-.2-1-2.13-3-1.83-3.78-1.31-.89-1.37-.1-2,0-.22-1.07-2.41-3.18-1.39-3.42.5.67,1.62,2.13,1.83,1.49-.83-1.4-.65-.34-1.61-1.22.19,0-.21-1,.15-1A17.4,17.4,0,0,1,138,24.48c1,1.46-1.23-.29-.72.67l1.65.65c1.42,1.41-.06.65.31,1.35a6.3,6.3,0,0,0-2.69-1.67,10.51,10.51,0,0,1-2.73-1.27,18.64,18.64,0,0,0-1.27-1.6c.85.64,1.21-.13.83-.64-1.87-.54-2.31-2.34-3.5-3.29,1,.88.09.94-.41.85-2.86-1.28-.85-.92-1.79-2-4.14-2.41-6.56-4.67-10.42-5.6l.73.67.7.72.84-.42c1.1,1.08-.89,1.37-1.78,1.49-.09-.34-2.32-1-1.31-1.05l-2.22-.48c.21.41,1.61.78.52.74-.6-.5-2.77-1.28-1.25-1.27-1.14-.38-2.66-.59-2.53-.1-1.85-.44.44-.85,1.35-.85-1.45-.49-1.1-1-.6-1.09,0,0-.52-.14-1-.24l-1.06-.22c.51-.08.58-.36,1.09-.44-1.33-.6-2.49-.11-3.56-.92l-.66.49c-1.86-.65-2.72-.91-3.54-1.13a22.3,22.3,0,0,0-3.44-.61l.56.51c-2.81.51-1.94-.94-5.68-.82-2.09.22-3.42.41-3.15,1.13a2.22,2.22,0,0,1-2-.4,11.87,11.87,0,0,1-2,.72A4.8,4.8,0,0,1,85,8.56a23.73,23.73,0,0,1,2.66-.69c-.3-.69-3.18,0-4.72-.14-1,.42-4.33,1.72-6.06,2.67.93.42.74,1.32-.77,2.19.17-.49-2.27,0-3.45-.07.47-.54-2.76-.45-.41-1.16.75.06,1.19.57,2.09.15a12.28,12.28,0,0,0-4-.49c.06-.26.83-.73,1.66-.92-.41.3-.12.37,0,.53,2.82-1.16-.85-.86-.55-1.49-.76.31-2.46.65-1.57.84-.9-.32-2,.13-3.16.63a6.23,6.23,0,0,1-3.19.92c0,.12,1,.16,0,.79-1.64.67-1.69.13-2.45.18a8.84,8.84,0,0,1-2.67,1.42c-1,.69,1.56.52.21,1.57-.74,1.08-2.36,1.12-3.47,1.85-1.65.2,1.27-1,1.79-1.46L54.9,17,53,18.07c-1.35.27.2-.92,1.45-1.4-1.83.34-3.72,1.83-3.88,2.62-1,.45-1.5.84-2.54,1.2.73-.85.15-1.71,1.54-2.71C52,16.5,49,18.94,51.18,18l-.12-.64c1.06-.16,1.56-.95,2.52-1.45.62-.12,0,.26-.34.52,1.73-.9,3.27-1.2,4.35-2.42-2.67.44-5.91,2.91-7.26,2.85,0,0-1.07.83-2.11,1.68s-2,1.78-2,1.78c.16.24,2-.33.93.81-.91-.3-2.42.27-4.17,1.42.55.09,0,.73-.53,1.33S41.4,25.06,42,25a1.29,1.29,0,0,1,1.43-.71c-1.51,1.24.24.74-.56,1.44-2.83,2.14-.25-.53-3.07,1.6a14,14,0,0,1,2.59-4.16c-.35-.22-1.53,1.3-2.45,1.53,1.19-.44-.14,1.1.73.62A50.39,50.39,0,0,0,36,31.64l-1.08.8A9.87,9.87,0,0,1,36,30.27c.66-1.14,1.22-2.11.32-2.18-1.07,1.44-.63,1.81-1.62,2.83-1,.39-2.17,2.25-3.16,4.08a19.88,19.88,0,0,0-2,1.71c-.47.47-1,1-1.61,1.66s-1.2,1.5-1.92,2.46l.16-.32c-.47.86-1,1.88-1.6,2.92s-1.19,2.21-1.72,3.42c.66-2.43-2.51,4-1.57.85a23.42,23.42,0,0,0-.84,2.94,12,12,0,0,0-.37,1.93,13.55,13.55,0,0,0-.14,1.91,13.14,13.14,0,0,0,.17,1.31c.06.57.17,1.43.37,2.85l-1.64,0c0,.23-.05.48-.07.73l-1.05,0a23,23,0,0,1,.49,4.38l-.48-.8c0,1.2,0,2.24.58,2.79A2.9,2.9,0,0,0,18.12,68,4.42,4.42,0,0,0,18,70.17c.29-.22.44-.3.56-.5A11.31,11.31,0,0,1,18.78,71c0,.11,0,.23,0,.34s0,0,0,0A3,3,0,0,1,18.52,73a6.26,6.26,0,0,0,.22,1.45c-.23.48-.43.86.14,2,.23-.2-.11-.67,0-1.24a.19.19,0,0,1,.13-.08,16.34,16.34,0,0,1,1,1.7l.09.34c-.14-.06-.17.07-.15.29a.69.69,0,0,0-.37,0,1.47,1.47,0,0,0-.23-.76l0,1a1.27,1.27,0,0,0,0,.37l.05.24v.38l0-.21c.37,1.6.73,3.18,1.1,4.74a.27.27,0,0,1-.13,0,.55.55,0,0,1,.15.08c.38,1.58.77,3.16,1.19,4.75-.2,0-.27,1.33-.62,1-.75-.56-.65-2-.75-3.27-.78,2.58,1.14,3.27,1,5.44-.29.05-.65-.07-.76-1-.12.41.89,1.79.89,3.26.12-.41.51-1.32,1.06,0,0,0-.08.49-.15,1s-.13,1-.13,1c.38,2.15.92.54,1.68,2.18l.19-1.25a.31.31,0,0,1,.19.09c.14.38.26.75.4,1.14-.13,0-.33-.36-.43-.52A26.4,26.4,0,0,0,25.89,101v.51c-1,.4-2.12-2.44-3.3-1.7.8,2.26,2.29,5.41,2.48,7,1.11,1.89,1.8,1.37,2.24.86a4.44,4.44,0,0,1,.6,1.78l-.7-.79c1.35,2.29,2.32,3.46,3.56,5.9.92,1.27,1.16.41,1.41-.14l.91,1.38v-.28c.68,0,1.19,1.09,1.7,2a7.81,7.81,0,0,1-.86-.9l1,1.19c-.24.14-.65-.38-.77-.23A5.81,5.81,0,0,0,36,120.27c-.23.17-1.17,0-1.64-1.11,0-.14.12-.15.11-.29l-1.36-1.47c1.48,1.75,1.64,3.27,1,3.61,1.6,1.7-.46-1.94,1.3.16,1,3.78,4.39,5.18,4.31,7.94.73.49,1.54,1,2.46,1.57a30.64,30.64,0,0,1,2.85,2.12c.38-.43,1.45,1,1.72.28a7,7,0,0,0-2.67-2.24A4.09,4.09,0,0,1,42,128.56c-.94-.63-1.05,0-1.62-.19-.72-.69-1.28-1.45-1.08-1.79,1.77,1.51,1.47-.45,3.4,1.65.13-.61-1.6-2.15-2.12-3,.39.06.43-.38.19-1a12.37,12.37,0,0,1,1.74.88l-.13.56c.75.55.11-.49.85.06l.29.23c0,.11,0,.22-.17.19l1.27.77L45,127q.48.41,1,.84l.15.14c.14.57,0,.88-.46.79,1,1.26,3.59,2.45,3,3.09,1.7,1.2-.19-.8-.15-1.11l.16.09-.56-.47a17.2,17.2,0,0,1,2.91,1.46c-.24.13-.61,0-.73,0,.65.46,1.35.9,2.09,1.33a2.26,2.26,0,0,0,.62.52l-2.2,0,1.43.68c-1-.11-1.53.61-3,.2,1.72,1.37,4.14,3.46,5.52,3.94.26.66.27,1.15-.17,1.42,2.36.4,2.93,2,4.76,2.89,2.13.37-1.67-1.45,0-1.43a3.78,3.78,0,0,0,2.17.82c-.68,0-2.55-1.24-3.75-2.13,1,.51,1.16-.13,1.54-.24L57.76,139c.48-.68,2,1,3,.89-.78.44-.52.6-1.31,1a18,18,0,0,1,5,2.08c.68.53-.76.12-1.25.17.21.59,1.64.24,1.76.92-.37.35-1-.28-1.56-.33l.71.27c.42.16,1,.39,1.57.56l2.31.72c-.06.28-1.26.06-2-.24a5.16,5.16,0,0,0,2,.61,6.88,6.88,0,0,0,2.36-.46c1.55.61,3.42,1.19,2.81,1.57.78-.08.3-.41.33-.7,2.21.4,2.53-.68,3.83-.6l-1-.6c2.08.68.52-.83,2.35-.4a1.87,1.87,0,0,0,.12,1.81c.31-.57,1.52,0,2.35-.1-.53-.53,1.72-.64.38-1.1a6.8,6.8,0,0,1,2.22-.27,3.07,3.07,0,0,0,1.79-.55c-.86-.06,1.49-.79.69-1.08,1.7-.37,3,0,2.7.71-.62.08-1.64,0-1.48.49L89,144a10.93,10.93,0,0,0,1.09-.3l.49-.16c.86.06,1.92-.11,2.25.47.76-1.07,3.21-.56,3.62-1.76-.82,1-2,.55-2.4.63l.45-.29a1.37,1.37,0,0,1-.27.06l.47-.76c.23-.38.45-.77.45-.77-1.42.06.06.77-1.77,1.41-.85-.19-.3-.8.37-1.39.72-.12,1.44-.24,2.17-.41l3-.58,3.1-.82c0,.11-.21.25-.31.32a11.16,11.16,0,0,0,2.07-.59c.66-.29,1.3-.62,1.92-.93a16.11,16.11,0,0,1,3.59-1.42c.36-.33,1.52-1,.95-1.36a.57.57,0,0,1-.45-.09,2,2,0,0,0,.85-.75l-.17.61,1.59-.26c-.06.39-.73.63-.5,1.23l.84-.65.81-.71a4.1,4.1,0,0,0,.5-.14l1.44-.29c-.78.45-.29.69-1.39,1.4a18.69,18.69,0,0,1,3.83-2.15s0,0,0-.06c3.33-1.17,6.65-2.4,8.8-4.25h.51c.26,0,.52,0,.52,0,1.14-1.55,3.59-3.14,5.66-5.08a21.56,21.56,0,0,0,2.71-2.85,5.58,5.58,0,0,0,1.17-2.56c1.57-1.16.16.93.22,1.28a7.71,7.71,0,0,0,1.47-2.22,4.09,4.09,0,0,1,1.72-1.92c.28.2-1,1.75-.32,1.15,1.12-.48.45-1.53,1.62-2.15-.76.1.12-2.19.77-3.76-.17.26-.17.26-.29.35-.49,0,.2-1.06.47-1.69a.36.36,0,0,1,0,.29,60.63,60.63,0,0,0,3.21-10.28l.53-1a8.88,8.88,0,0,0,.47-.9l.2-.42c.23-1.23.62-2.43.93-3.58a8.76,8.76,0,0,0,.2-3.26l.56-.42c-.8-1.53-.32-4.2-.61-6.13l.06-.57.18.82c.09.41.16.82.16.82a14.93,14.93,0,0,1,.16-4.24l0,.19a3.3,3.3,0,0,0,0-2.5,2.72,2.72,0,0,0,.41-.68l-.6-.18a2.1,2.1,0,0,1,.12-.66,3.4,3.4,0,0,0,.23-.3l.06.19c0-.11,0-.2,0-.31a.88.88,0,0,0,.1-.26l-.1.15a15.85,15.85,0,0,1,.12-1.9c.16-.31.33-.56.46-.57.09.71-.22,1.5,0,2.2,1-2.26.3-.1,1.26-1.07-.93.07.22-2.18.31-3.53.39-.06-.08.94.08,1.32,2.12-2.18.56-3.83,1.19-7a1.35,1.35,0,0,1,.19.7c-.13-1.56.74-2.63.24-3.65.12-1.5,1-.28.92-2.63C152.87,61.17,153.63,57.64,152.65,57.69Zm-132.91,1c0,.23,0,.45,0,.67H19c0-.22,0-.45,0-.71l1.48,0v.05Zm5.64-.1-1.45,0v0l1.47,0S25.39,58.6,25.38,58.61Zm1.14-4.23a.9.9,0,0,0-.08-.4,3,3,0,0,0-.14,1.12c-.13.45-.25.89-.37,1.33-.16-.42-.36-.57-.67.08l.46.72c-.08.3-.15.6-.22.9a.3.3,0,0,0-.07.15,1.34,1.34,0,0,0,0,.19.24.24,0,0,0,0,.08l-1.47,0a19.92,19.92,0,0,1,1.61-8.69c-.1,1.23-.89,2.36-.88,3.22l.5-1c.59.31,0,1.18-.16,1.66l1-.56c.32-1.44-.16-2.6.56-3.57-.21,2.12.25,2.27.26,3.78C26.71,53.75,26.62,54.07,26.52,54.38Zm2.16-9.29a34.15,34.15,0,0,1-.79,3.77l.43-.85a6.91,6.91,0,0,1-.27,2.06c-.29.73-.56,1.45-.82,2.18C27,52,27.13,50,26.67,51c-.3-1.11.64-2.71,0-3.15l-.62.7-.3.39c-.23.23-.46.33-.55.16a1.67,1.67,0,0,1,.08-.92c.08-.24.17-.55.32-.9s.4-.74.67-1.2c.4,1,1.26-.21,2.56-1.86C28.81,44.52,28.74,44.81,28.68,45.09Zm67.56-5.44c.17.05.55.13.91.25a36.35,36.35,0,0,1,16.07,10.62,36,36,0,0,1,7,11.82A2.34,2.34,0,1,1,115.89,64a32.23,32.23,0,0,0-3.36-6.72A31.7,31.7,0,0,0,99.78,46c-1.43-.7-3-1.22-4.45-1.79a2.36,2.36,0,0,1-1.61-2.63A2.4,2.4,0,0,1,96.24,39.65Zm-.15,21.46a5.15,5.15,0,0,1-.59.27,1.15,1.15,0,0,1-1.45-.56,1.13,1.13,0,0,1,.41-1.51c.34-.21.72-.37,1.09-.55l6-3c.88-.43,1.46-.4,2,.1a1.6,1.6,0,0,1,.19,2c-1.07,2.3-2.15,4.59-3.21,6.89a1.25,1.25,0,0,1-1.31.9,1.16,1.16,0,0,1-.88-1.78c.68-1.5,1.39-3,2.08-4.48.07-.15.13-.29.25-.59ZM63.2,45.84a39.77,39.77,0,0,1,8.66-5c1.1-.45,2.23-.85,3.37-1.21a2.34,2.34,0,1,1,1.42,4.45A37,37,0,0,0,66,49.54a6.55,6.55,0,0,1-1.4.62,2.47,2.47,0,0,1-2.23-1.66A2.22,2.22,0,0,1,63.2,45.84ZM72.37,63.9a1.22,1.22,0,0,1-.12,1.52,1.14,1.14,0,0,1-1.93-.4c-1-2-2-4-3-6-.21-.41-.4-.81-.61-1.22A1.43,1.43,0,0,1,67,56.06a1.38,1.38,0,0,1,1.71-.29l7.39,3.49a1.15,1.15,0,0,1,.63,1.55,1.14,1.14,0,0,1-1.63.57c-1.54-.7-3.07-1.44-4.6-2.16L69.93,59C70.8,60.74,71.58,62.32,72.37,63.9Zm-21.1-1.85A36.92,36.92,0,0,1,56.94,52a2.35,2.35,0,0,1,3.71,2.89c-1,1.54-2.16,3.05-3.06,4.67s-1.44,3.12-2.12,4.69a2.37,2.37,0,0,1-2.57,1.51,2.47,2.47,0,0,1-2-2.33C51,63,51.11,62.49,51.27,62.05ZM47,129.47c.09-.16.2-.2.32-.17a1.33,1.33,0,0,1,.37.75Zm19.49,10.45c.16-.75.78-.47.5-1.31-1,.26-2.25-.3-3.31-.19a.69.69,0,0,1,.07-.54,14.27,14.27,0,0,0,2.26.18,3,3,0,0,0,2.23.43l.34,0c.17.23-.75.24-.18.45a11.12,11.12,0,0,0,1.45.45l-1.78.11A9.42,9.42,0,0,0,70.36,141C68.53,141.75,68.65,139.9,66.53,139.92Zm5.66.17a.91.91,0,0,1,.57-.28.43.43,0,0,1,.13.29C72.63,140.09,72.39,140.08,72.19,140.09Zm2.58-30.24a35.2,35.2,0,0,1-9-4.23A36.73,36.73,0,0,1,51,86.78a2.35,2.35,0,0,1,1.74-3.36,2.31,2.31,0,0,1,2.64,1.68A32.11,32.11,0,0,0,76,105.32a2.38,2.38,0,0,1,2,2.34A2.34,2.34,0,0,1,74.77,109.85ZM70,89.39l4.38-2.2c1-.52,1.7-.43,2,.24s.06,1.31-1,1.86c-2.19,1.12-4.39,2.22-6.58,3.33a1.54,1.54,0,0,1-1.92-.15,1.51,1.51,0,0,1-.23-1.91L70,83.49c.36-.77,1-1,1.61-.77a1.19,1.19,0,0,1,.53,1.74l-2.23,4.8Zm21.86,52.68-1.19.57c-.21-.31.46-.81.46-.81a18.48,18.48,0,0,1-1.88.44c-.54.06-1,.08-1.47.1s-.94,0-1.5.07-1.22,0-2,.11c.25.11,1.06,1.1-.43,1.48-1.06.38-1.25-.28-2.15-.28.54-.17,1-.8,1.71-.45l-.13-.75a4.26,4.26,0,0,0,1.41-1.06c.81-.14,1.62-.29,2.2.37,1.6.24,1.66-.83,2.89-1.06,0,.29-.35.85.3.94,1-.2,2-.34,3-.48l-.26.26.28-.08A12.39,12.39,0,0,1,91.87,142.07Zm17.84-39.52A36.45,36.45,0,0,1,96.4,110a4.36,4.36,0,0,1-.6.12,2.34,2.34,0,0,1-2.47-1.86A2.42,2.42,0,0,1,95,105.47a57.47,57.47,0,0,0,6.23-2.71,55,55,0,0,0,5.37-3.69,2.43,2.43,0,0,1,3-.1A2.31,2.31,0,0,1,109.71,102.55ZM98.14,84.34a1.62,1.62,0,0,1,.1-1.31,1.39,1.39,0,0,1,1.11-.4,1.29,1.29,0,0,1,.84.65c1.24,2.43,2.42,4.88,3.62,7.32a1.39,1.39,0,0,1-.26,1.66,1.35,1.35,0,0,1-1.64.36c-2.55-1.16-5.07-2.35-7.59-3.56a1.15,1.15,0,0,1-.49-1.6A1.17,1.17,0,0,1,95.45,87c1.43.65,2.85,1.33,4.28,2l.87.39C99.71,87.6,98.88,86,98.14,84.34Zm17.5,49.9a.09.09,0,0,0,0-.09l.44-.15C116.09,134.14,116,134.25,115.64,134.24Zm5-48.1a33.71,33.71,0,0,1-5.07,10,2.24,2.24,0,0,1-2.87.73,2.3,2.3,0,0,1-1.25-2.64,3,3,0,0,1,.45-1,32,32,0,0,0,4.44-9A2.3,2.3,0,0,1,119,82.57a2.38,2.38,0,0,1,1.93,2.59C120.86,85.37,120.76,85.76,120.63,86.14ZM126.49,78l-15.75,2.29L95.41,82.53l-.21,0c-1.63.26-1.62.26-1.86,1.87q-1.41,9.18-2.84,18.36c-.61,3.89-1.24,7.78-1.93,11.67a7.38,7.38,0,0,1-.88,2.4,2.43,2.43,0,0,1-4.29,0,10.48,10.48,0,0,1-1.1-3.38c-.73-4.48-1.38-9-2-13.47Q79.08,91.78,78,83.49c-.07-.5-.31-.66-.77-.72L53.76,79.34c-2.93-.43-5.87-.85-8.79-1.3a2.91,2.91,0,0,1-2.55-3,3,3,0,0,1,2.64-2.93l23.81-3.7c2.76-.43,5.52-.87,8.29-1.27.49-.07.6-.27.67-.72.57-4.1,1.18-8.19,1.78-12.28q1-7.12,2.09-14.26c.29-2,.56-3.93.87-5.89a3,3,0,0,1,5.87.06q1.45,9.24,2.88,18.49c.72,4.65,1.45,9.3,2.15,14,.06.38.22.5.58.56q12.61,2,25.22,3.93,3.62.56,7.22,1.14a2.94,2.94,0,0,1,2.52,3A2.89,2.89,0,0,1,126.49,78Zm3.29-44.82a2.12,2.12,0,0,0,.2.12l0,.1ZM147,63.62a3.52,3.52,0,0,0-1.24,2.16,2.08,2.08,0,0,1-.3,1.69,56.36,56.36,0,0,0-1.7-10.08c-.51-2-1.09-3.78-1.71-5.47a4.68,4.68,0,0,0,.19-1.32,1.36,1.36,0,0,0-1-.73,62.15,62.15,0,0,0-4.09-8.3c-1.2-1.42-2.5-2.9-3.76-4.44-.67-.73-1.35-1.48-2-2.22l-.33-.38a13.26,13.26,0,0,1,1.73,1.15c.88.71,1.72,1.62,2.58,2.47s1.63,1.76,2.34,2.49a5,5,0,0,0,2.09,1.43c.5,1.71-.86-.08-1.27,0A11.5,11.5,0,0,0,140,43.83a2.55,2.55,0,0,1,.93,2.06c-.24.11-1-1.44-.82-.66-.08,1,1,.92.94,2.09.15-.31.62-.08,1.11.43a9,9,0,0,1,1.33,2c-.09-.27-.09-.27-.07-.41.31-.36.68.75.91,1.34a.37.37,0,0,1-.22-.17A32.09,32.09,0,0,1,147,62.89C147,63.13,147,63.38,147,63.62Zm1.76,13.19c0-.06,0-.11.07-.17v.06A.76.76,0,0,1,148.76,76.81Z"/><path class="cls-1" d="M170.69,60.53h9.08l11.95,21v-21h10.63v76.41H191.72V101.42l-10.4-18.69v54.21H170.69Z"/><path class="cls-1" d="M271.23,60.53V71.4H260.91v65.54h-11V71.4H239.57V60.53Z"/><path class="cls-1" d="M306.42,122.1q0,16.05-15.85,16.08T274.76,122.1V60.53h11V122.1c0,3.45,1.59,5.18,4.79,5.18s4.82-1.73,4.82-5.18V60.53h11Z"/><path class="cls-1" d="M333.28,114.7l11.41,22.24H332.62l-9.81-20.25h-1.52v20.25h-11V60.53h16Q341,60.58,341,76.61v24Q341,110.73,333.28,114.7Zm-12-43.3v34.77h2.53a10.54,10.54,0,0,0,3.15-.31c2-.8,3-2.43,3-4.87V76.61c0-3.47-1.59-5.21-4.79-5.21Z"/><path class="cls-1" d="M365.23,102.9V75.37q0-5.18-4.75-5.18h-.08q-4.78,0-4.79,5.18V94.06h-11V75.37q0-16.05,15.85-16.05t15.81,16.05v61.57H366.4l-.78-4.72a10.79,10.79,0,0,1-9.89,6,9.18,9.18,0,0,1-8.12-4.05,17.29,17.29,0,0,1-2.75-9.93Q344.86,104.9,365.23,102.9Zm0,10.48q-9.35,2.33-9.35,9.65,0,5,2.22,5c4.75-.36,7.13-3.9,7.13-10.59Z"/><path class="cls-1" d="M380,136.94V60.53h11v65.54h17.56v10.87Z"/><path class="cls-1" d="M471.06,67.15l-15,58.92h15.62v10.87h-28v-6.62L458.63,71.4H444.18V60.53h26.88Z"/><path class="cls-1" d="M495.91,102.9V75.37q0-5.18-4.75-5.18h-.08q-4.79,0-4.79,5.18V94.06h-11V75.37q0-16.05,15.85-16.05t15.81,16.05v61.57h-9.85l-.78-4.72a10.79,10.79,0,0,1-9.89,6,9.18,9.18,0,0,1-8.12-4.05,17.29,17.29,0,0,1-2.75-9.93Q475.54,104.9,495.91,102.9Zm0,10.48q-9.35,2.33-9.35,9.65,0,5,2.22,5c4.75-.36,7.13-3.9,7.13-10.59Z"/><path class="cls-1" d="M226.57,86.57V75.37q0-5.18-4.75-5.18h-.08q-4.78,0-4.79,5.18v7.09h-11V75.37q0-16.05,15.85-16.05t15.81,16.05v45.24h-9.85l-.78-4.72a10.79,10.79,0,0,1-9.89,6,9.17,9.17,0,0,1-8.12-4,17.29,17.29,0,0,1-2.75-9.93Q206.2,88.55,226.57,86.57Zm0,10.47q-9.34,2.34-9.35,9.66,0,5,2.22,5,7.13-.56,7.13-10.6Z"/><polygon class="cls-1" points="238.36 130.47 231.89 123.99 226.82 129.05 221.76 123.99 216.7 129.05 211.63 123.99 205.16 130.47 211.63 136.94 216.7 131.88 221.76 136.94 226.82 131.88 231.89 136.94 238.36 130.47"/><path class="cls-1" d="M411.53,77h28.56V87.83H422.54v17.92h15.09v10.89H422.54V126h17.55v10.85H411.53Z"/><polygon class="cls-1" points="442.47 67.02 435.97 60.52 430.89 65.6 425.81 60.52 420.73 65.6 415.65 60.52 409.15 67.02 415.65 73.51 420.73 68.43 425.81 73.51 430.89 68.43 435.97 73.51 442.47 67.02"/><path class="cls-1" d="M174,51.55c-.34,0-.51-.19-.51-.56V31.31H167a.49.49,0,0,1-.56-.55V26.21a.49.49,0,0,1,.56-.55H186.4c.34,0,.52.18.52.55v4.55a.48.48,0,0,1-.52.55h-6.48V51a.49.49,0,0,1-.55.56Z"/><path class="cls-1" d="M200.75,52q-5.42,0-8.18-2.49t-2.77-7.75V26.21a.49.49,0,0,1,.55-.55h5.46c.34,0,.51.18.51.55V41.47a5.82,5.82,0,0,0,1,3.63,4.06,4.06,0,0,0,3.42,1.31,4,4,0,0,0,3.38-1.31,5.82,5.82,0,0,0,1-3.63V26.21a.48.48,0,0,1,.55-.55h5.42a.49.49,0,0,1,.55.55V41.78q0,5.22-2.77,7.73C207.05,51.18,204.33,52,200.75,52Z"/><path class="cls-1" d="M216.68,51.55a.49.49,0,0,1-.55-.56V26.21a.48.48,0,0,1,.55-.55h9.13c3.71,0,6.39.72,8,2.17A7.85,7.85,0,0,1,236.28,34a8.62,8.62,0,0,1-1.1,4.46,6,6,0,0,1-3.56,2.61v.08l6.09,9.68a.45.45,0,0,1,.08.48.48.48,0,0,1-.44.2h-6.09a.76.76,0,0,1-.67-.36l-5.37-9.09h-2.57V51a.5.5,0,0,1-.56.56Zm6-14.55h3.16a5.18,5.18,0,0,0,3-.69,2.53,2.53,0,0,0,1-2.23,2.59,2.59,0,0,0-.89-2.2,4.77,4.77,0,0,0-2.9-.69h-3.32Z"/><path class="cls-1" d="M241.34,51.55a.49.49,0,0,1-.55-.56V26.21a.48.48,0,0,1,.55-.55h5.42a.48.48,0,0,1,.55.55V51a.49.49,0,0,1-.55.56Z"/><path class="cls-1" d="M260.71,52q-5.34,0-7.77-2t-2-6.12c.05-.4.25-.59.59-.59h5.3q.56,0,.51.51a2.3,2.3,0,0,0,.85,2,4.47,4.47,0,0,0,2.75.69,5.7,5.7,0,0,0,2.7-.48,1.58,1.58,0,0,0,.85-1.5,1.73,1.73,0,0,0-.19-.81,2,2,0,0,0-.71-.71,8,8,0,0,0-1.43-.69l-5.65-2.49a11.84,11.84,0,0,1-3.2-2,5.79,5.79,0,0,1-1.62-2.37,8.94,8.94,0,0,1-.48-3.06,6.59,6.59,0,0,1,2.38-5.34q2.33-1.91,7-1.9a16.16,16.16,0,0,1,5.77.89,6.45,6.45,0,0,1,3.34,2.61,6.91,6.91,0,0,1,.77,4.41c0,.45-.21.67-.55.67h-5.3a.48.48,0,0,1-.41-.18.64.64,0,0,1-.1-.49,2,2,0,0,0-.81-1.78,4,4,0,0,0-2.55-.71,4.13,4.13,0,0,0-2.25.49,1.62,1.62,0,0,0-.75,1.44,1.53,1.53,0,0,0,.23.85,2.6,2.6,0,0,0,.75.72,13,13,0,0,0,1.39.73l5.61,2.41a12.56,12.56,0,0,1,3.2,1.89,5.55,5.55,0,0,1,1.66,2.4,9,9,0,0,1,.44,3.14,6.63,6.63,0,0,1-2.45,5.49Q266.13,52,260.71,52Z"/><path class="cls-1" d="M274.82,51.55a.49.49,0,0,1-.55-.56l.55-24.78c0-.37.17-.55.51-.55h6.29a.58.58,0,0,1,.59.39l6.17,13,6.16-13a.68.68,0,0,1,.64-.39h6.24a.48.48,0,0,1,.55.55L302.49,51c0,.37-.17.56-.52.56h-5.29a.5.5,0,0,1-.56-.56l-.23-8.85c0-1.11,0-2.27,0-3.5s.1-2.38.16-3.46h-.16c-.45,1.06-.94,2.16-1.47,3.32s-1.08,2.28-1.65,3.36l-3.64,7a.69.69,0,0,1-.67.39h-.24a.61.61,0,0,1-.63-.39L284,41.82c-.53-1-1.06-2.16-1.6-3.34s-1-2.27-1.48-3.3h-.16c.05,1.11.1,2.27.16,3.48s.06,2.37,0,3.48L280.67,51a.49.49,0,0,1-.55.56Z"/><path class="cls-1" d="M317.39,52q-5.53,0-8.38-2.61t-2.85-7.71V35.5c0-3.43.95-6,2.85-7.73s4.69-2.59,8.38-2.59,6.49.87,8.4,2.59,2.86,4.3,2.86,7.73v6.2q0,5.1-2.86,7.71T317.39,52Zm0-5.69A4.57,4.57,0,0,0,321,45a5.48,5.48,0,0,0,1.16-3.75V35.93A5.48,5.48,0,0,0,321,32.18a4.57,4.57,0,0,0-3.58-1.31,4.52,4.52,0,0,0-3.54,1.31,5.43,5.43,0,0,0-1.16,3.75v5.34A5.43,5.43,0,0,0,313.85,45,4.52,4.52,0,0,0,317.39,46.33Z"/><path class="cls-1" d="M341.06,51.55a.49.49,0,0,1-.55-.56V26.21a.48.48,0,0,1,.55-.55h9.29q6.25,0,9.25,2.86c2,1.91,3,4.74,3,8.48v2.89c0,3.84-1,6.75-3,8.71s-5.08,2.95-9.25,2.95ZM347,46h2.89c2.13,0,3.69-.54,4.68-1.64a6.72,6.72,0,0,0,1.48-4.68V37.24a6.2,6.2,0,0,0-1.48-4.45,6.2,6.2,0,0,0-4.68-1.56H347Z"/><path class="cls-1" d="M367.11,51.55a.49.49,0,0,1-.55-.56V26.21a.48.48,0,0,1,.55-.55h16.45c.34,0,.51.18.51.55v4.55c0,.36-.17.55-.51.55H373.08v4.54h9.53c.34,0,.51.19.51.56v4.23c0,.37-.17.55-.51.55h-9.53v4.7h10.48c.34,0,.51.19.51.56V51c0,.37-.17.56-.51.56Z"/></svg>