<?xml version="1.0" encoding="utf-8"?>
<!-- Generator: Adobe Illustrator 26.0.0, SVG Export Plug-In . SVG Version: 6.00 Build 0)  -->
<svg version="1.1" id="Capa_1" xmlns="http://www.w3.org/2000/svg" xmlns:xlink="http://www.w3.org/1999/xlink" x="0px" y="0px"
	 viewBox="0 0 252 114" style="enable-background:new 0 0 252 114;" xml:space="preserve">
<style type="text/css">
	.st0{fill:#3C3C3B;}
	.st1{clip-path:url(#SVGID_00000020363011992146523010000008785440101988685979_);fill:#C8689F;}
	.st2{clip-path:url(#SVGID_00000020363011992146523010000008785440101988685979_);}
	.st3{fill:#FFFFFF;}
	.st4{fill:#C97FAC;}
</style>
<g>
	<g>
		<g>
			<path class="st0" d="M143.4,49.1H140V57h-5.8V31.5h10.6c6.2,0,8.5,2.5,8.5,7.2v3.1c0,3.2-1.2,5.3-3.7,6.4l6.2,8.7H149L143.4,49.1
				z M147.6,39.2c0-1.9-0.7-2.7-3.1-2.7H140v7.5h4.6c2.5,0,3.1-0.9,3.1-2.8V39.2z"/>
			<path class="st0" d="M163.6,38.3v12.3c0,0.8,0.4,1.3,1.3,1.3c1,0,2.8-0.7,4-1.3V38.3h5.5V57h-4.1l-0.6-1.4
				c-2.3,1.1-5.3,1.8-7.4,1.8c-3.2,0-4.3-2.4-4.3-6V38.3H163.6z"/>
			<path class="st0" d="M185.2,57.4c-3.6,0-5.6-1.3-5.6-4.8v-9.8H177v-4.4h2.5v-4.5l5.5-0.8v5.3h4.3l-0.3,4.4h-3.9v9
				c0,0.8,0.5,1,1.2,1c0.6,0,1.5-0.1,2.3-0.3l0.7,4.2C187.9,57.1,186.4,57.4,185.2,57.4z"/>
			<path class="st0" d="M202.2,57l-0.4-1.2c-2.1,1.2-4.1,1.6-5.3,1.6c-3.5,0-4.9-2.5-4.9-5.7c0-3.8,1.7-5.3,5.6-5.3h4V45
				c0-1.9-0.3-2.6-3.3-2.6c-1.6,0-3.3,0.2-5.1,0.5l-0.7-4.1c1.8-0.5,4.6-0.9,6.7-0.9c6.5,0,7.9,2,7.9,7.1V57H202.2z M201.2,50.3
				h-2.6c-1.2,0-1.6,0.3-1.6,1.3c0,1,0.4,1.5,1.5,1.5c1.2,0,2-0.3,2.8-0.7V50.3z"/>
			<path class="st0" d="M133.3,76.8c0-4.4,1.9-6.9,6.3-6.9c1.5,0,3.5,0.2,4.8,0.5v-7.8l5.5-0.8V89h-4.3l-0.6-1.5
				c-1.3,0.8-3.7,1.9-5.8,1.9c-3.8,0-5.9-2.3-5.9-6.9V76.8z M144.3,75.1c-1-0.2-2.4-0.5-3.5-0.5c-1.5,0-2,0.9-2,2.1v5.6
				c0,1.3,0.5,2.1,2,2.1c1.3,0,2.7-0.8,3.5-1.5V75.1z"/>
			<path class="st0" d="M158.8,81.6v0.5c0,2.1,0.8,2.7,3.4,2.7c1.7,0,4-0.3,5.7-0.8l0.8,4.1c-1.7,0.6-4.4,1.2-7,1.2
				c-6.1,0-8.4-3-8.4-7.6v-4.4c0-4,1.8-7.5,8-7.5s7.6,3.7,7.6,7.7v3.9H158.8z M163.6,76.6c0-1.3-0.4-2.4-2.3-2.4s-2.5,1.1-2.5,2.4
				v0.8h4.8V76.6z"/>
			<path class="st0" d="M179.8,89V62.6l5.5-0.8V89H179.8z"/>
			<path class="st0" d="M199.7,89l-0.4-1.2c-2.1,1.2-4.1,1.6-5.3,1.6c-3.5,0-4.9-2.5-4.9-5.7c0-3.8,1.7-5.3,5.6-5.3h4V77
				c0-1.9-0.3-2.6-3.3-2.6c-1.6,0-3.3,0.2-5.1,0.5l-0.7-4.1c1.8-0.5,4.6-0.9,6.7-0.9c6.5,0,7.9,2,7.9,7.1V89H199.7z M198.7,82.2
				h-2.6c-1.2,0-1.6,0.3-1.6,1.3c0,1,0.4,1.5,1.5,1.5c1.2,0,2-0.3,2.8-0.7V82.2z"/>
			<path class="st0" d="M215.7,89V63.4H232v5.1h-10.5V74h9.7v5.1h-9.7V89H215.7z"/>
			<path class="st0" d="M239.4,81.6v0.5c0,2.1,0.8,2.7,3.4,2.7c1.7,0,4-0.3,5.7-0.8l0.8,4.1c-1.7,0.6-4.4,1.2-7,1.2
				c-6.1,0-8.4-3-8.4-7.6v-4.4c0-4,1.8-7.5,8-7.5s7.6,3.7,7.6,7.7v3.9H239.4z M244.2,76.6c0-1.3-0.4-2.4-2.3-2.4s-2.5,1.1-2.5,2.4
				v0.8h4.8V76.6z"/>
		</g>
	</g>
	<g>
		<defs>
			<circle id="SVGID_1_" cx="57" cy="57" r="57"/>
		</defs>
		<clipPath id="SVGID_00000136393985347756960350000003521475851768164492_">
			<use xlink:href="#SVGID_1_"  style="overflow:visible;"/>
		</clipPath>
		
			<circle style="clip-path:url(#SVGID_00000136393985347756960350000003521475851768164492_);fill:#C8689F;" cx="57" cy="57" r="57"/>
		<g style="clip-path:url(#SVGID_00000136393985347756960350000003521475851768164492_);">
			<g>
				<path class="st3" d="M34.1,47.7c-0.4,0.3-0.7,0.5-0.9,0.7C31.7,49.5,30,49.3,29,48c-1-1.3-0.8-3.1,0.7-4.2
					c2.7-2.2,5.5-4.3,8.3-6.4c5.2-4.1,10.5-8.2,15.7-12.2c0.5-0.4,0.7-0.8,0.7-1.4c-0.1-1.1,0-4.3,0-5.5c-0.9,0-1.8,0-2.7,0
					c-1.8,0-3.1-1.2-3.1-2.9c0-1.7,1.3-2.8,3.1-2.8c0.9,0,1.7,0,2.7,0c0-1,0-1.9,0-2.8c0-1.7,1.2-2.9,2.8-3c1.7,0,2.9,1.2,2.9,3
					c0,0.9,0,1.8,0,2.8c1,0,1.9,0,2.8,0c1.7,0,2.9,1.2,2.9,2.9c0,1.6-1.2,2.9-2.9,2.9c-0.9,0-1.8,0-2.8,0c0,1.4,0,4.8,0,6.2
					c0,0.2,0.4,0.5,0.6,0.7c7.9,6.2,15.8,12.3,23.8,18.5c0.9,0.7,1.6,1.4,1.6,2.6c0,1.2-0.5,2-1.5,2.6c-1,0.6-2,0.5-3-0.1
					c-0.4-0.3-0.8-0.6-1.3-0.9c0,1.8,0,3.5,0,5.1c0,0.2,0.4,0.5,0.7,0.6c3.9,2,7.8,3.9,11.7,5.8c2.7,1.3,4.3,3.5,4.8,6.4
					c0.1,0.5,0.1,1,0.1,1.4c0,7.4,0,14.7,0,22.1c0,2-1.1,3.2-3.2,3.2c-24.8,0-49.7,0-74.5,0c-2,0-3.2-1.1-3.2-3.2
					c0-7.3,0-14.6,0-21.9c0-3.7,1.7-6.4,5-8c3.7-1.9,7.5-3.8,11.3-5.6c0.9-0.4,1.2-0.9,1.1-1.8C34,50.6,34.1,49.2,34.1,47.7z
					 M74.5,86.7c0-0.3,0-0.5,0-0.8c0-14,0-28,0-41.9c0-0.6-0.2-0.9-0.7-1.3c-5.3-4.1-10.6-8.2-15.9-12.3c-0.6-0.5-1-0.5-1.6,0
					c-5.3,4.1-10.6,8.2-15.9,12.3c-0.5,0.4-0.7,0.8-0.7,1.4c0,13.9,0,27.7,0,41.6c0,0.3,0,0.6,0,0.9c2,0,3.9,0,5.8,0
					c0-4.8,0-9.6,0-14.3c0-0.7,0-1.3,0.2-2c1-6,6.4-10.1,12.5-9.6c5.8,0.5,10.4,5.6,10.4,11.5c0,4.5,0,9,0,13.4c0,0.3,0,0.6,0,1
					C70.7,86.7,72.5,86.7,74.5,86.7z M22.6,86.6c3.9,0,7.7,0,11.5,0c0-9,0-17.9,0-26.9c-0.3,0.1-0.5,0.2-0.7,0.3
					c-2.9,1.5-5.9,3-8.8,4.4c-1.4,0.7-2,1.7-2,3.2c0,4.3,0,8.6,0,12.9C22.6,82.5,22.6,84.5,22.6,86.6z M91.8,86.6c0-0.2,0-0.4,0-0.5
					c0-6.2,0-12.5,0-18.7c0-1.4-0.7-2.4-1.9-3c-3-1.5-6-3-8.9-4.5c-0.2-0.1-0.4-0.2-0.6-0.3c0,9,0,18,0,26.9
					C84.2,86.6,87.9,86.6,91.8,86.6z M51.4,86.6c3.9,0,7.7,0,11.5,0c0-4.9,0.1-9.7,0-14.5c-0.1-3.7-3.4-6.3-7.1-5.5
					c-2.6,0.6-4.4,2.9-4.4,5.7c0,4.6,0,9.1,0,13.7C51.4,86.2,51.4,86.4,51.4,86.6z"/>
				<path class="st3" d="M65.9,46.3c0,4.8-3.9,8.6-8.7,8.6c-4.8,0-8.6-3.9-8.6-8.7c0-4.8,3.9-8.6,8.6-8.6
					C62,37.6,65.9,41.5,65.9,46.3z M57.2,49.2c1.5,0,2.9-1.4,2.9-2.9c0-1.5-1.4-2.9-2.9-2.9c-1.5,0-2.9,1.4-2.9,2.9
					C54.3,47.8,55.7,49.2,57.2,49.2z"/>
			</g>
			<polygon class="st3" points="114.2,92.4 88.2,92.4 88.2,86.8 117.1,86.8 			"/>
			<polygon class="st3" points="25.4,92.4 -0.6,92.4 -3.1,86.9 25.4,86.9 			"/>
		</g>
		<g style="clip-path:url(#SVGID_00000136393985347756960350000003521475851768164492_);">
			<g>
				<path class="st4" d="M412,117.6c3.2,0,3.2-5,0-5C408.8,112.6,408.8,117.6,412,117.6L412,117.6z"/>
			</g>
		</g>
		<g style="clip-path:url(#SVGID_00000136393985347756960350000003521475851768164492_);">
			<g>
				<path class="st4" d="M412,117.6c3.2,0,3.2-5,0-5C408.8,112.6,408.8,117.6,412,117.6L412,117.6z"/>
			</g>
		</g>
	</g>
</g>
</svg>
