<svg id="Capa_1" data-name="Capa 1" xmlns="http://www.w3.org/2000/svg" viewBox="0 0 496.42 156.88"><defs><style>.cls-1{fill:#664f9c;}.cls-2{fill:#fff;}</style></defs><path class="cls-1" d="M130.68,27.89a3,3,0,0,0,.78.51C131,28,130.81,27.89,130.68,27.89Z"/><path class="cls-1" d="M62.89,10.29a.89.89,0,0,0-.33.29C62.78,10.49,62.93,10.39,62.89,10.29Z"/><path class="cls-1" d="M64.57,146.38c2.19.4,2.51-.68,3.79-.6l-1-.59c2.06.67.51-.83,2.32-.39a1.88,1.88,0,0,0,.12,1.79c.32-.57,1.51,0,2.33-.11-.52-.52,1.71-.62.38-1.09a6.67,6.67,0,0,1,2.2-.26,3.08,3.08,0,0,0,1.78-.54c-.86-.06,1.47-.79.68-1.08,1.69-.36,3,0,2.68.7-.61.09-1.62,0-1.47.49l1.59-.39a7.16,7.16,0,0,0,1.08-.3l.49-.15c.85.06,1.9-.11,2.23.47.75-1.07,3.18-.56,3.58-1.75-.81,1-2,.55-2.37.63l.44-.29-.26.06.46-.76.45-.76c-1.41.06,0,.76-1.75,1.4-.85-.2-.3-.79.36-1.38.71-.12,1.43-.24,2.15-.4l2.94-.58,3.08-.82c0,.12-.21.25-.31.32a11.06,11.06,0,0,0,2.06-.59c.65-.29,1.28-.61,1.9-.91a15.85,15.85,0,0,1,3.56-1.41c.36-.33,1.5-1,.94-1.36a.5.5,0,0,1-.45-.09,2,2,0,0,0,.85-.74l-.17.61,1.57-.25c-.06.38-.72.62-.49,1.21l.84-.65.79-.7a3,3,0,0,0,.51-.14l1.42-.28c-.77.44-.29.68-1.38,1.39a18,18,0,0,1,3.8-2.14s0,0,0-.06c3.31-1.16,6.6-2.37,8.72-4.21h.52c.26,0,.51,0,.51,0,1.13-1.54,3.56-3.12,5.61-5a21.21,21.21,0,0,0,2.69-2.83,5.64,5.64,0,0,0,1.16-2.54c1.56-1.15.16.92.22,1.26a7.24,7.24,0,0,0,1.45-2.2,4.06,4.06,0,0,1,1.71-1.9c.27.2-1,1.74-.32,1.14,1.12-.48.45-1.52,1.61-2.13-.75.1.11-2.18.77-3.73-.18.26-.18.26-.3.34-.48,0,.2-1,.47-1.67a.38.38,0,0,1,0,.29,60.89,60.89,0,0,0,3.19-10.2l.52-.94a8.61,8.61,0,0,0,.46-.9l.2-.42c.23-1.22.62-2.41.93-3.54a8.86,8.86,0,0,0,.19-3.24l.56-.42c-.79-1.51-.32-4.16-.6-6.08,0-.18,0-.38,0-.56l.18.81c.09.41.16.82.16.82a15.06,15.06,0,0,1,.16-4.21l0,.19a3.27,3.27,0,0,0,0-2.47,2.82,2.82,0,0,0,.4-.68l-.59-.18a2.1,2.1,0,0,1,.12-.66,3.25,3.25,0,0,0,.23-.29l.06.19c0-.11,0-.21,0-.31a.67.67,0,0,0,.09-.26l-.09.15a18.34,18.34,0,0,1,.11-1.89c.17-.3.34-.55.47-.56.09.7-.23,1.49,0,2.18,1-2.24.29-.1,1.24-1.06-.92.07.22-2.16.31-3.5.39-.06-.08.93.08,1.31,2.1-2.17.55-3.8,1.18-7,.11.07.17.48.19.69-.13-1.55.73-2.6.24-3.62.12-1.49,1-.27.91-2.61-.83.74-.07-2.76-1-2.71,0,0,.3-1.84.3-1.84-.39-.74-.78-.56-1.14-.58s-.66-.24-1.06-1.64c-.29-2.7,1.61-.12,1.72-1.8l-.67-.52s0-.36,0-.71l0-.69.11.18c-.42-.73-.73-2.18-.46-2.28s.53.9.78.95a3.34,3.34,0,0,1-.47-1.37c-.12-.58-.27-1.26-.42-1.93-.28-1.37-.81-2.66-1.79-3-.1-.85-.86-2.33-.37-2.35-.92-.33-1.62-3.3-2.61-4,.26,0,0-1.06-.61-1.65.4,1.06-.17.6-.89.21-.2-1-2.11-3-1.82-3.75-1.29-.88-1.35-.1-2,0-.21-1.05-2.38-3.16-1.38-3.39.5.66,1.61,2.11,1.82,1.47-.82-1.38-.65-.33-1.59-1.21.18,0-.22-1,.14-1a18,18,0,0,1-2.06-2.1c1,1.46-1.22-.29-.71.67l1.63.65c1.41,1.39,0,.64.31,1.33a6.14,6.14,0,0,0-2.66-1.65,10.92,10.92,0,0,1-2.72-1.26,15.22,15.22,0,0,0-1.26-1.59c.84.64,1.21-.13.83-.64-1.86-.53-2.3-2.31-3.48-3.26,1,.88.1.94-.4.85-2.84-1.27-.84-.92-1.77-2-4.11-2.39-6.51-4.63-10.33-5.55l.71.67.7.7.83-.41c1.09,1.07-.88,1.36-1.76,1.48-.09-.34-2.31-1-1.3-1L105,14.28c.22.41,1.61.78.52.73-.59-.49-2.75-1.26-1.24-1.26-1.13-.37-2.64-.58-2.5-.09-1.84-.44.43-.85,1.33-.84-1.44-.49-1.09-1-.59-1.09l-1-.24-1.05-.22c.5-.07.57-.35,1.08-.43-1.32-.6-2.47-.11-3.53-.91l-.65.48c-1.85-.65-2.7-.9-3.52-1.11a20.79,20.79,0,0,0-3.41-.61L91,9.2c-2.78.5-1.92-.94-5.62-.82-2.08.22-3.4.41-3.13,1.12a2.19,2.19,0,0,1-2-.39,12.16,12.16,0,0,1-1.94.71A4.72,4.72,0,0,1,76,10a20.14,20.14,0,0,1,2.64-.68c-.3-.69-3.16,0-4.68-.14-1,.41-4.29,1.7-6,2.64.93.42.74,1.31-.76,2.17.16-.48-2.26,0-3.43-.06.47-.54-2.73-.45-.4-1.16.74.06,1.18.57,2.07.15a12.35,12.35,0,0,0-3.94-.49c.06-.26.83-.71,1.65-.9-.4.29-.11.36,0,.52,2.8-1.15-.84-.85-.54-1.48-.76.31-2.44.64-1.56.84-.89-.32-2,.12-3.14.62A6,6,0,0,1,54.7,13c0,.12,1,.16,0,.78-1.63.67-1.67.14-2.43.18a8.69,8.69,0,0,1-2.64,1.41c-1,.68,1.55.52.21,1.56C49.07,18,47.46,18,46.36,18.71c-1.63.2,1.27-1,1.77-1.44l-2,1.05-1.93,1.12c-1.34.27.2-.92,1.44-1.39-1.82.33-3.69,1.81-3.85,2.59-1,.45-1.49.84-2.51,1.2.72-.85.14-1.7,1.52-2.69,2.45-1.27-.5,1.15,1.63.19l-.11-.64c1.05-.16,1.54-.94,2.5-1.43.61-.12,0,.26-.34.51,1.72-.89,3.24-1.19,4.31-2.39-2.64.43-5.86,2.87-7.2,2.82,0,0-1.06.82-2.09,1.67s-2,1.76-2,1.76c.17.23,1.95-.33.93.8-.9-.29-2.4.27-4.13,1.41.54.09,0,.73-.54,1.32s-1,1.2-.39,1.13a1.25,1.25,0,0,1,1.41-.7c-1.5,1.22.24.73-.56,1.42-2.8,2.12-.25-.53-3,1.59a14,14,0,0,1,2.57-4.12c-.34-.22-1.52,1.28-2.43,1.51,1.18-.43-.14,1.09.72.61a51.5,51.5,0,0,0-4.6,6.29l-1.07.79a9.33,9.33,0,0,1,1.07-2.15c.64-1.13,1.2-2.09.31-2.17-1.06,1.43-.63,1.8-1.6,2.81-1.05.39-2.16,2.23-3.14,4a19.9,19.9,0,0,0-2,1.71c-.47.46-1,1-1.6,1.64S18.25,41.06,17.53,42l.16-.32c-.46.86-1,1.87-1.58,2.89s-1.19,2.2-1.71,3.4c.66-2.41-2.48,4-1.56.84A24.7,24.7,0,0,0,12,51.73a10.72,10.72,0,0,0-.36,1.92,12.27,12.27,0,0,0-.15,1.89,12.64,12.64,0,0,0,.17,1.3c.06.57.18,1.42.37,2.83l-1.62,0c0,.23-.05.47-.07.72l-1,0a22.65,22.65,0,0,1,.49,4.34L9.32,64c0,1.19,0,2.23.57,2.77a2.84,2.84,0,0,0-.19,2.15,4.37,4.37,0,0,0-.15,2.2c.29-.23.44-.3.55-.5A11.06,11.06,0,0,1,10.36,72c0,.12,0,.23,0,.35l0,0a2.91,2.91,0,0,1-.28,1.53,6.25,6.25,0,0,0,.22,1.44c-.23.47-.43.85.13,2,.23-.2-.1-.67,0-1.23a.19.19,0,0,1,.14-.08,18.23,18.23,0,0,1,1,1.69,2.34,2.34,0,0,1,.09.33c-.13-.06-.16.07-.15.29a.64.64,0,0,0-.36,0,1.55,1.55,0,0,0-.23-.77l0,1a1.27,1.27,0,0,0,0,.37c0,.08,0,.16.05.24l0,.37,0-.2c.37,1.58.72,3.14,1.09,4.69a.27.27,0,0,1-.13,0,.34.34,0,0,1,.15.09c.38,1.56.76,3.13,1.18,4.71-.2,0-.26,1.31-.62,1-.74-.56-.64-2-.74-3.25-.77,2.56,1.14,3.25,1,5.39-.28.06-.64-.06-.75-1-.12.4.89,1.77.88,3.23.12-.41.51-1.31,1,0l-.15,1c-.07.5-.12,1-.12,1,.38,2.13.91.53,1.67,2.17l.18-1.25a.28.28,0,0,1,.19.1c.13.37.26.74.4,1.12-.13,0-.33-.35-.43-.52a26.74,26.74,0,0,0,1.56,3.87c0,.15,0,.3,0,.5-1,.4-2.1-2.42-3.28-1.69.8,2.25,2.28,5.37,2.47,7,1.09,1.88,1.78,1.37,2.21.86a4.41,4.41,0,0,1,.6,1.76l-.7-.78c1.34,2.27,2.31,3.43,3.54,5.85.91,1.26,1.15.41,1.4-.14l.9,1.37v-.28c.67,0,1.18,1.09,1.69,2a7.81,7.81,0,0,1-.86-.9l1,1.18c-.24.14-.64-.37-.76-.23a5.72,5.72,0,0,0,1.84,2.62c-.23.17-1.16,0-1.62-1.1,0-.14.11-.15.11-.29l-1.36-1.45c1.48,1.73,1.63,3.24,1,3.58,1.59,1.69-.46-1.92,1.29.16,1,3.74,4.35,5.14,4.27,7.86.72.5,1.53,1,2.44,1.57a28.8,28.8,0,0,1,2.82,2.1c.39-.43,1.44,1,1.72.28a6.93,6.93,0,0,0-2.66-2.22c-.92-.6-1.83-1.17-2.11-2.26-.93-.63-1,0-1.6-.19-.72-.69-1.27-1.45-1.07-1.78,1.75,1.49,1.45-.45,3.37,1.64.12-.61-1.59-2.14-2.11-3,.39.06.43-.38.19-1a11.75,11.75,0,0,1,1.72.88l-.12.55c.74.55.11-.48.84.06l.29.22c0,.12,0,.23-.17.19l1.26.77.34.19c.32.27.65.55,1,.83l.14.14c.15.56,0,.87-.44.78,1,1.25,3.55,2.43,3,3.07,1.69,1.19-.18-.8-.15-1.1l.16.08-.55-.46a15.55,15.55,0,0,1,2.88,1.45c-.23.13-.6,0-.71,0a22.73,22.73,0,0,0,2.06,1.31,2.26,2.26,0,0,0,.62.52l-2.18,0,1.41.67c-1-.1-1.51.61-3,.2,1.71,1.36,4.11,3.43,5.47,3.91.26.65.27,1.14-.16,1.4,2.34.41,2.9,2,4.71,2.87,2.11.37-1.65-1.43,0-1.41a3.84,3.84,0,0,0,2.16.81c-.68,0-2.53-1.23-3.72-2.11,1,.5,1.15-.13,1.53-.24L49,139.37c.47-.68,2,.94,3,.88-.78.44-.52.59-1.3,1a18,18,0,0,1,4.94,2.06c.68.53-.75.13-1.23.18.2.58,1.62.23,1.74.9-.36.35-1-.27-1.54-.32l.7.27c.42.16,1,.38,1.55.55l2.3.71c-.06.28-1.26.07-2-.23a5,5,0,0,0,1.95.6,6.78,6.78,0,0,0,2.34-.45c1.53.6,3.39,1.18,2.78,1.55C65,147,64.54,146.66,64.57,146.38Zm-1.25-5.94a.86.86,0,0,1,.57-.28.47.47,0,0,1,.12.29C63.76,140.44,63.52,140.43,63.32,140.44ZM16.9,59.64l-1.44,0v-.05l1.46,0Zm89.51,75a.13.13,0,0,0,0-.09l.43-.15C106.85,134.53,106.77,134.65,106.41,134.64Zm32.84-57c0-.05,0-.1.07-.16v.06ZM123.4,36.91A32.26,32.26,0,0,1,126,39.35c.77.91,1.61,1.74,2.31,2.47a5.06,5.06,0,0,0,2.08,1.42c.49,1.7-.86-.09-1.26,0A11.68,11.68,0,0,0,130.57,45a2.51,2.51,0,0,1,.92,2c-.24.12-1-1.42-.81-.65-.08,1,1,.91.94,2.08.15-.32.61-.09,1.09.42a8.87,8.87,0,0,1,1.32,2,.82.82,0,0,1-.07-.41c.31-.36.68.74.91,1.33a.37.37,0,0,1-.22-.17,31.75,31.75,0,0,1,2.86,12.28c0,.24,0,.48,0,.72a3.47,3.47,0,0,0-1.24,2.15,2,2,0,0,1-.29,1.67,56.4,56.4,0,0,0-1.69-10c-.5-1.94-1.08-3.75-1.69-5.43a4.61,4.61,0,0,0,.19-1.31,1.34,1.34,0,0,0-1-.71,62.48,62.48,0,0,0-4.06-8.24c-1.19-1.41-2.48-2.87-3.73-4.4l-2-2.21-.34-.37A12.56,12.56,0,0,1,123.4,36.91Zm-2.75-2.24-.22-.22a1.32,1.32,0,0,0,.2.12ZM16.77,50.21a1.42,1.42,0,0,1,.08-.9,7,7,0,0,1,.31-.9c.18-.34.39-.73.66-1.19.4,1,1.26-.2,2.54-1.84-.06.28-.12.57-.19.86A33.87,33.87,0,0,1,19.39,50l.42-.85a6.47,6.47,0,0,1-.26,2.05q-.43,1.08-.81,2.16c-.23-.29-.1-2.26-.56-1.23-.3-1.1.63-2.68,0-3.12l-.61.69-.31.39C17.08,50.29,16.85,50.39,16.77,50.21Zm.29.78c-.1,1.23-.88,2.35-.87,3.2l.49-1c.58.3,0,1.17-.16,1.64l1-.55c.33-1.43-.15-2.59.56-3.54-.2,2.1.25,2.24.26,3.74-.11.31-.2.62-.3.94a.74.74,0,0,0-.08-.4,2.9,2.9,0,0,0-.14,1.11c-.13.44-.25.88-.37,1.31-.15-.41-.36-.56-.65.08l.45.72c-.08.3-.15.59-.22.89a.3.3,0,0,0-.07.15,1.34,1.34,0,0,0,0,.19.24.24,0,0,0,0,.08l-1.46,0A19.9,19.9,0,0,1,17.06,51ZM10.57,59.7l1.47,0v0h-.74c0,.22,0,.44,0,.66l-.78,0C10.56,60.19,10.58,60,10.57,59.7Zm27.81,70.21c.09-.16.2-.21.32-.18a1.33,1.33,0,0,1,.36.75Zm19.33,10.35c.16-.73.77-.46.49-1.29-.94.26-2.22-.3-3.28-.19a.67.67,0,0,1,.07-.53,14,14,0,0,0,2.24.17,3,3,0,0,0,2.21.44l.34,0c.17.23-.75.24-.18.44a9.93,9.93,0,0,0,1.43.46c-.62,0-1.21.06-1.76.11a9.39,9.39,0,0,0,2.24,1.41C59.69,142.09,59.81,140.25,57.71,140.26Zm15,3.81c.53-.17,1-.8,1.7-.45l-.14-.74a4.54,4.54,0,0,0,1.41-1c.8-.15,1.6-.29,2.17.36,1.59.24,1.66-.82,2.87-1.05,0,.29-.35.85.3.93,1-.19,2-.33,2.93-.47a1.56,1.56,0,0,1-.26.25l.29-.08a13,13,0,0,1-1.15.63l-1.18.56c-.21-.3.45-.79.45-.79a17.88,17.88,0,0,1-1.86.43c-.53.06-1,.08-1.46.1s-.93,0-1.49.07-1.21,0-2,.11c.24.1,1,1.09-.43,1.47C73.8,144.73,73.61,144.07,72.72,144.07Z"/><path class="cls-1" d="M85.47,142.92a2.26,2.26,0,0,0,.51-.34Z"/><path class="cls-2" d="M77,75a8,8,0,1,0-8-8A8,8,0,0,0,77,75Zm0-12a4,4,0,1,1-4,4A4,4,0,0,1,77,63Z"/><path class="cls-2" d="M123.57,107.57h-7.72V84.24a2,2,0,0,0-1.07-1.76l-16-8.2V67.62L100.53,69a2,2,0,0,0,1.2.41,2,2,0,0,0,1.19-3.54L98,62.07h0L78.7,47.33V38.56h6.21a2,2,0,0,0,0-3.94H78.7V29.45a2,2,0,0,0-3.94,0v5.17H68.55a2,2,0,0,0,0,3.94h6.21v8.78L56,62.08h0l-4.8,3.77A2,2,0,1,0,53.65,69l1.61-1.26v6.59l-16,8.2a2,2,0,0,0-1.07,1.76v23.33h-9a2,2,0,1,0,0,3.94H68.27l.25,0h17l.26,0h37.81a2,2,0,1,0,0-3.94ZM42.11,85.44,55.26,78.7v28.87H42.11Zm17.09-10V64.59l17.55-13.8L94.82,64.61v43H87.47V91.91a10.46,10.46,0,0,0-20.92,0v15.66H59.2Zm11.29,32.09V91.91a6.52,6.52,0,0,1,13,0v15.66Zm28.27,0V78.7l13.15,6.74v22.13Z"/><path class="cls-1" d="M318.19,62.77V49.42q0-6.42-5.89-6.42h-.09q-5.94,0-5.94,6.42v2.4H292.62v-2.4q0-19.89,19.64-19.88t19.59,19.88V105H319.64l-1-5.84q-4.14,7.33-12.25,7.38-6.66,0-10.06-5a21.39,21.39,0,0,1-3.4-12.3Q293,65.23,318.19,62.77Zm0,13q-11.58,2.9-11.58,12,0,6.18,2.75,6.18,8.83-.68,8.83-13.13Z"/><polygon class="cls-1" points="333.75 118.12 325.96 110.34 319.88 116.42 313.79 110.34 307.71 116.42 301.62 110.34 293.84 118.12 301.62 125.9 307.71 119.82 313.79 125.9 319.88 119.82 325.96 125.9 333.75 118.12"/><path class="cls-1" d="M405.76,31h34.93V44.29H419.23V86.36h18.46V99.68H419.23v24.7H405.76Z"/><path class="cls-1" d="M444.81,31h34.93V44.29H458.28V63.66h18.46V77H458.28V91.67h21.46V105H444.81Z"/><polygon class="cls-1" points="482.23 118.12 474.45 110.34 468.36 116.42 462.27 110.34 456.19 116.42 450.11 110.34 442.32 118.12 450.11 125.9 456.19 119.82 462.27 125.9 468.36 119.82 474.45 125.9 482.23 118.12"/><path class="cls-1" d="M188,97.21l13.94,27.16H187.18l-12-24.73h-1.86v24.73H159.87V31h19.6q17.92,0,17.93,19.65V80Q197.4,92.37,188,97.21Zm-14.65-52.9V86.79h3.09a12.86,12.86,0,0,0,3.86-.38q3.66-1.47,3.66-5.94V50.69q0-6.37-5.85-6.38Z"/><path class="cls-1" d="M245.12,106.25q0,19.59-19.36,19.65t-19.31-19.65V31h13.46v75.21q0,6.33,5.85,6.33t5.9-6.33V31h13.46Z"/><path class="cls-1" d="M289.23,31V44.31h-12.6v80.06H263.16V44.31h-12.6V31Z"/><path class="cls-1" d="M349,31.53H359q8.68,0,8.69,9.52V67.26q0,9.48-9.11,9.5H349ZM355.51,38V70.33h2.86c1.89,0,2.84-1,2.84-3.07V41.05c0-2.06-.95-3.09-2.84-3.09Z"/><path class="cls-1" d="M371.66,31.53h16.92V38H378.19V58.32h8.94v6.45h-8.94v5.56h10.39v6.43H371.66Z"/><path class="cls-1" d="M349,125.9V80.67h6.52v38.8h10.4v6.43Z"/><path class="cls-1" d="M375.5,116.68l-1.18,9.22h-6.56l6.73-45.23h8.94l6.71,45.23h-6.59l-1.18-9.22Zm6.09-6.22-2.65-21-2.65,21Z"/></svg>