<?xml version="1.0" encoding="utf-8"?>
<!-- Generator: Adobe Illustrator 26.0.0, SVG Export Plug-In . SVG Version: 6.00 Build 0)  -->
<svg version="1.1" id="Capa_1" xmlns="http://www.w3.org/2000/svg" xmlns:xlink="http://www.w3.org/1999/xlink" x="0px" y="0px"
	 viewBox="0 0 263.7 114" style="enable-background:new 0 0 263.7 114;" xml:space="preserve">
<style type="text/css">
	.st0{fill:#AB1779;}
	.st1{fill:#FFFFFF;}
	.st2{fill:#3C3C3B;}
</style>
<g>
	<circle class="st0" cx="57" cy="57" r="57"/>
	<path class="st1" d="M55.9,99.8c-0.5-0.1-1-0.3-1.5-0.4c-6.6-1.7-10.6-8.4-9.1-15.1c0-0.1,0.1-0.3,0.1-0.5
		c-2.9-1.2-5.2-3.2-6.6-6.1c-1.4-2.8-1.7-5.8-0.9-8.9c-0.2-0.1-0.4-0.2-0.6-0.3c-4.9-2.3-7.9-7.3-7.3-12.7
		c0.6-5.7,4.7-10.1,10.2-11.1c3.3-0.6,6.4,0.1,9.2,1.9c0.5,0.3,0.7,0.3,1.2,0c1.4-0.8,2.9-1.4,4.6-2.2c-1.7-12.6-8.6-21-20.8-25.3
		c-3.4-1.1-1.9-5.8,1.6-4.7c6.2,1.9,11.5,5.2,15.8,10c1.3-2.5,3.1-4.4,5.5-5.8c2-1.2,4.2-1.8,6.5-1.9c5.4-0.1,10.8,0,16.2,0
		c0.1,0,0.3,0,0.4,0c0.1,0.1,0.1,0.1,0.1,0.2c-0.1,2.8,0.1,5.7-0.2,8.5c-0.7,5.7-5.9,10.7-11.6,11.3c-2.8,0.3-5.7,0.1-8.5,0.2
		c-0.4,0-0.8,0-1.1,0c0.5,2.6,0.9,5.2,1.4,7.6c1.5,0.8,3,1.5,4.5,2.2c0.2,0.1,0.6,0,0.8-0.2c6.3-4.2,14.7-2,18.2,4.7
		c3.3,6.3,0.6,14.1-5.9,17.1c-0.2,0.1-0.4,0.2-0.7,0.3c0.8,3.1,0.5,6.1-0.9,9c-1.4,2.8-3.7,4.8-6.5,6c0.1,1.6,0.3,3,0.2,4.5
		c-0.4,5.6-4.7,10.4-10.3,11.3c-0.2,0-0.4,0.1-0.5,0.2C58.1,99.8,57,99.8,55.9,99.8z M57.5,49.5c-4.1,0-7.5,3.3-7.5,7.4
		c0,4.2,3.3,7.6,7.5,7.6c4.1,0,7.5-3.4,7.5-7.4C65.1,52.9,61.8,49.5,57.5,49.5z M75.3,21.9c-3.8,0-7.6-0.1-11.4,0
		c-3.9,0.1-6.5,2.2-8,5.7c-0.5,1-0.6,2.1,0.2,3c0.2,0.2,0.2,0.6,0.4,0.8c0.2,0.2,0.5,0.5,0.8,0.5c3,0,6,0.1,9,0
		C71.9,31.7,75.8,27.3,75.3,21.9z M50,87.2c0,2.9,1.6,5.6,4.2,6.8c2.9,1.3,5.7,1.1,8.1-1c2.4-2,3.1-4.5,2.5-7.5
		c-0.1-0.5-0.3-0.8-0.9-0.8c-2.1-0.1-4.1-0.8-5.8-2c-0.4-0.3-0.7-0.3-1.2,0c-1.5,1.1-3.2,1.7-5.1,2c-1.6,0.3-1.8,0.4-1.9,2.1
		C50,86.8,50,87,50,87.2z M65.1,67.1c-2,1.5-4.3,2.3-6.8,2.5c-0.2,0-0.5,0.3-0.5,0.5c-0.1,1.1-0.3,2.3-0.1,3.4
		c0.6,4.1,5,6.9,9.2,5.8c4-1,6.6-5.4,5.4-9.3c-0.1-0.2-0.3-0.5-0.5-0.5C69.3,69.4,67.1,68.6,65.1,67.1z M68.5,63.3
		c3,2.2,7.5,1.5,10-1.5c2.5-3.1,2.1-7.7-0.9-10.4c-2.5-2.2-7.1-2.5-9-0.5C70.5,54.7,70.7,58.9,68.5,63.3z M46.6,63.3
		c-1.1-2-1.6-4-1.7-6.2c0-2.2,0.6-4.3,1.6-6.2c-3-2.1-7.2-1.6-9.7,1.2c-2.5,2.7-2.5,7.1-0.1,9.9C39.3,64.8,43.4,65.4,46.6,63.3z
		 M54.1,78.4c-1.7-4-1.9-5-1.3-9.1c0-0.2-0.1-0.5-0.3-0.6c-0.8-0.5-1.7-0.9-2.6-1.4c-2,1.4-4.2,2.2-6.6,2.4c-0.2,0-0.5,0.4-0.5,0.6
		c-0.1,1.3-0.3,2.6,0,3.8C43.8,78.9,50.1,81.3,54.1,78.4z"/>
	<g>
		<g>
			<path class="st2" d="M146.8,43.4h-3.4v7.9h-5.8V25.8h10.6c6.2,0,8.5,2.5,8.5,7.2v3.1c0,3.2-1.2,5.3-3.7,6.4l6.2,8.7h-6.8
				L146.8,43.4z M151.1,33.6c0-1.9-0.7-2.7-3.1-2.7h-4.6v7.5h4.6c2.5,0,3.1-0.9,3.1-2.8V33.6z"/>
			<path class="st2" d="M167.1,32.7V45c0,0.8,0.4,1.3,1.3,1.3c1,0,2.8-0.7,4-1.3V32.7h5.5v18.7h-4.1l-0.6-1.4
				c-2.3,1.1-5.3,1.8-7.4,1.8c-3.2,0-4.3-2.4-4.3-6V32.7H167.1z"/>
			<path class="st2" d="M188.7,51.7c-3.6,0-5.6-1.3-5.6-4.8v-9.8h-2.5v-4.4h2.5v-4.5l5.5-0.8v5.3h4.3l-0.3,4.4h-3.9v9
				c0,0.8,0.5,1,1.2,1c0.6,0,1.5-0.1,2.3-0.3l0.7,4.2C191.4,51.4,189.9,51.7,188.7,51.7z"/>
			<path class="st2" d="M205.7,51.3l-0.4-1.2c-2.1,1.2-4.1,1.6-5.3,1.6c-3.5,0-4.9-2.5-4.9-5.7c0-3.8,1.7-5.3,5.6-5.3h4v-1.4
				c0-1.9-0.3-2.6-3.3-2.6c-1.6,0-3.3,0.2-5.1,0.5l-0.7-4.1c1.8-0.5,4.6-0.9,6.7-0.9c6.5,0,7.9,2,7.9,7.1v11.9H205.7z M204.7,44.6
				H202c-1.2,0-1.6,0.3-1.6,1.3c0,1,0.4,1.5,1.5,1.5c1.2,0,2-0.3,2.8-0.7V44.6z"/>
			<path class="st2" d="M136.8,71.1c0-4.4,1.9-6.9,6.3-6.9c1.5,0,3.5,0.2,4.8,0.5V57l5.5-0.8v27.1H149l-0.6-1.5
				c-1.3,0.8-3.7,1.9-5.8,1.9c-3.8,0-5.9-2.3-5.9-6.9V71.1z M147.8,69.5c-1-0.2-2.4-0.5-3.5-0.5c-1.5,0-2,0.9-2,2.1v5.6
				c0,1.3,0.5,2.1,2,2.1c1.3,0,2.7-0.8,3.5-1.5V69.5z"/>
			<path class="st2" d="M162.3,75.9v0.5c0,2.1,0.8,2.7,3.4,2.7c1.7,0,4-0.3,5.7-0.8l0.8,4.1c-1.7,0.6-4.4,1.2-7,1.2
				c-6.1,0-8.4-3-8.4-7.6v-4.4c0-4,1.8-7.5,8-7.5s7.6,3.7,7.6,7.7v3.9H162.3z M167.1,70.9c0-1.3-0.4-2.4-2.3-2.4s-2.5,1.1-2.5,2.4
				v0.8h4.8V70.9z"/>
			<path class="st2" d="M175.8,83.3V57l5.5-0.8v27.1H175.8z"/>
			<path class="st2" d="M206.1,83.3h-8.2l-7.2-25.5h5.9l5.4,20.3l5.4-20.3h5.9L206.1,83.3z"/>
			<path class="st2" d="M215.3,62.3v-5.9h5.5v5.9H215.3z M215.3,83.3V64.6h5.5v18.7H215.3z"/>
			<path class="st2" d="M236.1,83.3V70.9c0-0.8-0.4-1.3-1.3-1.3c-1,0-2.8,0.7-4,1.3v12.3h-5.5V64.6h4.1l0.6,1.4
				c2.3-1.1,5.3-1.8,7.4-1.8c3.2,0,4.3,2.4,4.3,6v13.1H236.1z"/>
			<path class="st2" d="M244.9,76.1v-4.3c0-3.8,1.8-7.6,8.4-7.6c6.6,0,8.4,3.7,8.4,7.6v4.3c0,3.8-1.8,7.6-8.4,7.6
				C246.7,83.7,244.9,79.9,244.9,76.1z M256.2,76.3v-4.6c0-1.8-0.9-2.8-2.9-2.8c-2,0-2.9,1-2.9,2.8v4.6c0,1.8,0.9,2.8,2.9,2.8
				C255.3,79,256.2,78,256.2,76.3z"/>
		</g>
	</g>
</g>
</svg>
