<svg id="Capa_1" data-name="Capa 1" xmlns="http://www.w3.org/2000/svg" viewBox="0 0 491.87 156.88"><defs><style>.cls-1{fill:#8d2165;}</style></defs><path class="cls-1" d="M95.12,39.48V38.3H83.06A10.13,10.13,0,0,0,73,48.41v1.17H85A10.11,10.11,0,0,0,95.12,39.48Z"/><path class="cls-1" d="M90.22,69a8.6,8.6,0,0,0-4.57,1.28,13.18,13.18,0,0,1,.63,1.17l0,.1A15,15,0,0,1,87,73.24l.09.29c.05.16.1.32.14.49a3.38,3.38,0,0,1,.08.34c.07.26.12.52.17.79s.05.26.07.4l.06.46,0,.39c0,.15,0,.31,0,.47s0,.26,0,.39,0,.28,0,.42,0,.27,0,.41,0,.26,0,.39,0,.32,0,.47,0,.26,0,.39,0,.31,0,.46,0,.29-.08.43-.09.5-.15.75l-.09.36c0,.16-.09.32-.14.47l-.09.31a13.67,13.67,0,0,1-.67,1.68l-.07.15c-.09.19-.19.38-.29.56v0c-.11.19-.21.38-.32.56a8.61,8.61,0,0,0,4.57,1.29,8.71,8.71,0,0,0,0-17.42Z"/><path class="cls-1" d="M141.17,61.61c-.82.73-.07-2.72-1-2.67,0,0,.3-1.82.3-1.82-.39-.73-.77-.55-1.12-.56s-.65-.24-1-1.63c-.29-2.66,1.59-.11,1.7-1.77l-.66-.51s0-.35,0-.69,0-.69,0-.69l.1.18c-.4-.72-.71-2.15-.45-2.25s.52.89.77.94a3.3,3.3,0,0,1-.46-1.35c-.12-.58-.27-1.24-.41-1.91-.29-1.34-.81-2.62-1.77-2.93-.1-.83-.85-2.29-.37-2.31-.9-.33-1.59-3.25-2.57-3.91.26,0,0-1-.6-1.63.4,1-.17.6-.87.21-.2-1-2.08-2.94-1.79-3.7-1.28-.86-1.34-.09-2,0-.21-1-2.35-3.11-1.36-3.34.49.65,1.59,2.08,1.79,1.45-.8-1.36-.63-.33-1.57-1.19.18,0-.21-1,.14-1a19.17,19.17,0,0,1-2-2.07c1,1.43-1.2-.29-.7.66l1.61.63c1.4,1.37,0,.63.3,1.32a6.07,6.07,0,0,0-2.62-1.63,10.4,10.4,0,0,1-2.67-1.24,17.66,17.66,0,0,0-1.24-1.57c.83.63,1.18-.12.81-.63-1.83-.52-2.26-2.27-3.42-3.21.95.86.09.92-.4.84-2.8-1.26-.83-.91-1.75-1.95-4-2.36-6.41-4.57-10.18-5.47l.71.65.68.7.82-.41c1.08,1.06-.86,1.34-1.74,1.46-.08-.33-2.27-1-1.27-1l-2.18-.47c.21.41,1.58.77.51.73-.58-.49-2.71-1.25-1.22-1.24-1.11-.37-2.6-.58-2.47-.1-1.81-.43.43-.84,1.32-.83-1.42-.48-1.08-1-.58-1.07,0,0-.52-.13-1-.23l-1-.22c.5-.08.57-.35,1.07-.43-1.3-.59-2.44-.11-3.48-.9l-.64.48c-1.83-.64-2.66-.88-3.47-1.1a20.92,20.92,0,0,0-3.36-.59l.54.49c-2.74.5-1.89-.92-5.54-.8-2,.21-3.35.4-3.08,1.1a2.15,2.15,0,0,1-2-.39,11.34,11.34,0,0,1-1.91.71,4.56,4.56,0,0,1-2.3.18,20.75,20.75,0,0,1,2.6-.67c-.29-.68-3.11,0-4.62-.14-1,.41-4.22,1.68-5.91,2.61.91.41.72,1.29-.76,2.14.17-.48-2.22,0-3.37-.06.46-.53-2.69-.44-.4-1.14.73.06,1.16.56,2,.15a12,12,0,0,0-3.88-.49c.06-.25.81-.7,1.63-.89-.4.29-.12.36,0,.52,2.76-1.14-.83-.85-.53-1.46-.75.3-2.41.63-1.53.82a4.59,4.59,0,0,0-3.1.61,5.82,5.82,0,0,1-3.11.9c0,.13,1,.16,0,.77-1.61.66-1.65.14-2.4.18A8.79,8.79,0,0,1,48,16.16c-1,.67,1.52.51.2,1.54-.73,1.05-2.3,1.09-3.39,1.8-1.61.2,1.24-1,1.74-1.42l-1.92,1-1.9,1.1c-1.32.26.2-.9,1.42-1.37-1.8.33-3.64,1.78-3.79,2.56-1,.44-1.48.81-2.49,1.17.72-.83.14-1.67,1.5-2.65,2.43-1.25-.48,1.14,1.62.19l-.12-.63c1-.16,1.53-.92,2.47-1.41.6-.12,0,.25-.34.5,1.7-.88,3.2-1.17,4.25-2.36-2.6.43-5.78,2.84-7.09,2.78,0,0-1,.82-2.07,1.65s-2,1.73-2,1.73c.16.24,1.91-.32.91.8-.89-.29-2.37.26-4.07,1.39.53.09,0,.71-.53,1.3s-1,1.18-.39,1.1a1.28,1.28,0,0,1,1.39-.69c-1.47,1.21.24.72-.55,1.41-2.76,2.09-.24-.52-3,1.56a13.73,13.73,0,0,1,2.53-4.06c-.34-.21-1.5,1.27-2.39,1.49,1.16-.42-.14,1.08.7.61a50.92,50.92,0,0,0-4.53,6.19l-1.06.78a10,10,0,0,1,1.06-2.12c.63-1.11,1.19-2.06.31-2.14-1.05,1.41-.62,1.77-1.58,2.77-1,.39-2.13,2.2-3.09,4a19.19,19.19,0,0,0-2,1.68c-.46.45-1,1-1.57,1.61s-1.17,1.47-1.88,2.41l.15-.31C16.09,43,15.59,44,15,45s-1.16,2.16-1.68,3.34c.65-2.37-2.45,3.9-1.54.84A25.42,25.42,0,0,0,10.94,52a11.26,11.26,0,0,0-.35,1.89,11.65,11.65,0,0,0-.14,1.87,12.25,12.25,0,0,0,.16,1.28c.06.55.17,1.4.36,2.78l-1.59,0c0,.23-.05.47-.07.71l-1,0a23.07,23.07,0,0,1,.48,4.28l-.47-.78c0,1.18,0,2.2.57,2.73A2.78,2.78,0,0,0,8.67,69a4.22,4.22,0,0,0-.15,2.16c.28-.22.43-.29.55-.49A10.85,10.85,0,0,1,9.32,72c0,.11,0,.23,0,.34l0,0a2.84,2.84,0,0,1-.28,1.51,5.88,5.88,0,0,0,.22,1.41c-.23.48-.42.84.13,2,.23-.19-.1-.66,0-1.21A.19.19,0,0,1,9.56,76a15.57,15.57,0,0,1,.95,1.66c0,.11.06.23.08.33-.13-.06-.16.07-.15.29a.62.62,0,0,0-.35,0,1.46,1.46,0,0,0-.23-.75l0,1a1.2,1.2,0,0,0,0,.36c0,.08,0,.16.05.24v.37l0-.2c.36,1.56.71,3.1,1.07,4.62a.27.27,0,0,1-.12,0,.28.28,0,0,1,.15.08c.36,1.54.75,3.08,1.16,4.64-.2,0-.26,1.3-.61,1-.73-.54-.63-2-.73-3.19-.76,2.52,1.11,3.19,1,5.31-.27,0-.63-.06-.74-1-.11.4.87,1.75.87,3.18.12-.4.5-1.28,1,0l-.14,1c-.08.49-.13,1-.13,1,.38,2.11.9.53,1.65,2.14l.18-1.23a.32.32,0,0,1,.19.1c.13.37.25.73.39,1.11-.12,0-.32-.35-.42-.52a24.88,24.88,0,0,0,1.54,3.81c0,.15,0,.31,0,.5-1,.39-2.08-2.39-3.24-1.67.79,2.22,2.25,5.29,2.43,6.87,1.08,1.85,1.76,1.35,2.19.85a4.18,4.18,0,0,1,.58,1.73l-.68-.76c1.32,2.23,2.27,3.38,3.49,5.76.89,1.24,1.13.4,1.37-.13l.89,1.34v-.27c.66,0,1.16,1.07,1.66,1.95a8.72,8.72,0,0,1-.84-.89c.31.37.65.76,1,1.16-.24.15-.63-.36-.75-.22a5.59,5.59,0,0,0,1.81,2.58c-.22.16-1.14,0-1.6-1.08,0-.14.12-.15.11-.29l-1.33-1.43c1.45,1.71,1.6,3.2,1,3.53,1.56,1.66-.46-1.9,1.27.16.95,3.68,4.28,5.06,4.21,7.75.71.48,1.51,1,2.4,1.54A28,28,0,0,1,35,132.34c.38-.43,1.42,1,1.69.28a6.79,6.79,0,0,0-2.61-2.19A4,4,0,0,1,32,128.2c-.92-.62-1,0-1.59-.19-.7-.68-1.24-1.42-1.05-1.75,1.73,1.47,1.43-.44,3.32,1.62.13-.61-1.57-2.11-2.08-3,.39.06.43-.37.19-1a10.86,10.86,0,0,1,1.7.86l-.12.54c.73.54.1-.47.83.06l.28.22c0,.11,0,.22-.16.19l1.24.76.34.18c.31.27.63.54.93.82l.15.14c.14.56,0,.86-.44.77,1,1.23,3.5,2.39,3,3,1.67,1.17-.18-.78-.14-1.08l.15.08L38,130a16.08,16.08,0,0,1,2.84,1.43c-.23.13-.6,0-.71,0,.63.45,1.32.88,2,1.3a2.21,2.21,0,0,0,.61.51l-2.15,0L42,134c-1-.1-1.49.59-2.92.2,1.69,1.33,4,3.38,5.4,3.85.25.64.26,1.12-.17,1.38,2.31.4,2.87,2,4.65,2.83,2.08.36-1.63-1.42,0-1.4a3.79,3.79,0,0,0,2.12.81c-.66,0-2.49-1.22-3.67-2.09,1,.5,1.14-.13,1.52-.23l-1.55-.9c.47-.67,2,.93,2.91.86-.76.44-.51.59-1.28,1a17.29,17.29,0,0,1,4.88,2c.66.52-.74.12-1.22.17.2.57,1.6.23,1.72.89-.36.34-1-.27-1.52-.32l.69.26a16.21,16.21,0,0,0,1.53.55l2.26.7c-.06.28-1.23.07-1.93-.23a4.8,4.8,0,0,0,1.92.59,6.59,6.59,0,0,0,2.31-.44c1.51.6,3.34,1.16,2.74,1.53.76-.08.29-.4.32-.68,2.16.39,2.47-.67,3.74-.59l-.94-.58c2,.66.51-.82,2.29-.39a1.82,1.82,0,0,0,.12,1.76c.31-.55,1.49,0,2.29-.1-.51-.51,1.69-.62.38-1.08a6.67,6.67,0,0,1,2.16-.25,3,3,0,0,0,1.76-.54c-.85-.06,1.45-.77.67-1.06,1.67-.36,3,0,2.64.69-.6.09-1.6,0-1.45.48l1.57-.38A8.3,8.3,0,0,0,79,143l.48-.16c.84.06,1.88-.1,2.2.47.74-1.05,3.14-.55,3.54-1.73-.8,1-1.93.55-2.34.62l.43-.28-.26.06.46-.75c.23-.37.44-.75.44-.75-1.39.06,0,.75-1.73,1.38-.83-.19-.29-.78.36-1.36.71-.11,1.41-.23,2.12-.4l2.9-.57,3-.8c0,.11-.2.24-.3.31a10.74,10.74,0,0,0,2-.58c.64-.28,1.26-.6,1.87-.9a15.7,15.7,0,0,1,3.51-1.39c.35-.32,1.48-1,.93-1.33a.57.57,0,0,1-.45-.09,2,2,0,0,0,.84-.73l-.17.59,1.55-.24c-.06.37-.71.61-.48,1.19l.82-.63.79-.7a2.75,2.75,0,0,0,.49-.14c.59-.1,1.11-.21,1.4-.27-.69.39-.35.62-1.11,1.19a17.51,17.51,0,0,1,3.5-1.93s0,0,0-.06c3.26-1.14,6.5-2.34,8.6-4.15h.5c.26,0,.51,0,.51,0,1.11-1.51,3.5-3.07,5.53-5a21.92,21.92,0,0,0,2.65-2.79,5.52,5.52,0,0,0,1.14-2.5c1.54-1.14.16.91.21,1.25a7.31,7.31,0,0,0,1.44-2.17,4.06,4.06,0,0,1,1.68-1.88c.27.2-1,1.72-.31,1.13,1.1-.47.44-1.5,1.59-2.1-.74.1.11-2.15.75-3.68-.17.26-.17.26-.29.34-.48,0,.19-1,.46-1.65a.38.38,0,0,1,0,.29,59.11,59.11,0,0,0,3.14-10.05l.52-.93c.18-.32.34-.64.45-.89l.2-.41c.23-1.2.61-2.37.91-3.5a8.57,8.57,0,0,0,.19-3.19l.55-.41c-.78-1.49-.31-4.1-.59-6,0-.18,0-.37.05-.55l.18.8c.09.4.15.81.15.81a15,15,0,0,1,.16-4.15l0,.18a3.19,3.19,0,0,0,0-2.44,2.54,2.54,0,0,0,.4-.67l-.58-.17a1.84,1.84,0,0,1,.12-.65c.07-.09.15-.18.22-.29l.05.19c0-.11,0-.2,0-.3a.67.67,0,0,0,.09-.26l-.09.14a17.71,17.71,0,0,1,.11-1.85c.16-.3.33-.54.46-.56.09.69-.22,1.47,0,2.15,1-2.21.28-.1,1.23-1-.91.06.21-2.13.3-3.45.38-.06-.08.91.07,1.29,2.08-2.14.55-3.75,1.17-6.86.11.07.17.47.18.68-.12-1.53.73-2.56.24-3.57C140.39,62.72,141.25,63.91,141.17,61.61ZM10.26,59.93c0,.22,0,.44,0,.66H9.5c0-.22,0-.45,0-.7l1.44,0v.05Zm5.51-.09-1.42,0v0l1.44,0Zm1.11-4.14a.83.83,0,0,0-.08-.39,2.85,2.85,0,0,0-.14,1.1c-.13.43-.24.86-.36,1.29-.15-.41-.35-.55-.65.08l.44.7-.21.88a.23.23,0,0,0-.06.15,1.54,1.54,0,0,0,0,.19.31.31,0,0,1,0,.08l-1.44,0a19.63,19.63,0,0,1,1.58-8.49c-.1,1.21-.87,2.31-.86,3.15l.49-1c.57.3,0,1.15-.16,1.61l1-.54c.32-1.41-.16-2.55.55-3.49-.2,2.07.24,2.21.25,3.69C17.07,55.09,17,55.4,16.88,55.7ZM19,46.63a31,31,0,0,1-.78,3.68l.42-.84a6.46,6.46,0,0,1-.25,2c-.29.72-.56,1.43-.81,2.14-.22-.29-.09-2.23-.55-1.21-.29-1.08.63-2.65.05-3.08l-.61.68-.3.38c-.22.23-.44.33-.53.16a1.51,1.51,0,0,1,.08-.9,7.38,7.38,0,0,1,.31-.88c.17-.34.39-.72.65-1.17.4,1,1.24-.2,2.51-1.82C19.11,46.06,19.05,46.34,19,46.63Zm17.94,82.45a.28.28,0,0,1,.32-.17,1.28,1.28,0,0,1,.35.74Zm19,10.21c.16-.72.76-.45.49-1.27-.93.26-2.2-.3-3.23-.19a.57.57,0,0,1,.07-.52,14.6,14.6,0,0,0,2.2.17,3,3,0,0,0,2.18.42l.33,0c.17.22-.73.23-.17.44a10.09,10.09,0,0,0,1.41.44c-.61,0-1.2.06-1.74.11a9,9,0,0,0,2.21,1.39C57.94,141.09,58.05,139.28,56,139.29Zm5.53.17a.87.87,0,0,1,.56-.27.52.52,0,0,1,.13.28Zm19.24,1.94-1.17.55c-.2-.3.45-.78.45-.78-.73.2-1.32.33-1.84.43s-1,.07-1.43.09-.92,0-1.47.07-1.19,0-2,.11c.24.1,1,1.07-.42,1.45-1,.37-1.22-.28-2.1-.28.52-.16.93-.78,1.67-.44l-.13-.73a4.3,4.3,0,0,0,1.38-1c.79-.14,1.58-.28,2.14.36,1.57.24,1.63-.81,2.83-1,0,.29-.34.84.3.93,1-.2,1.94-.33,2.89-.47a3.13,3.13,0,0,1-.26.25l.28-.08S81.33,141.12,80.75,141.4ZM104,133.75s0-.06,0-.09l.43-.15C104.41,133.65,104.33,133.76,104,133.75ZM95.56,91A14.38,14.38,0,0,1,87.21,108a14.59,14.59,0,0,1,.51,3.78,14.38,14.38,0,0,1-28.75,0,14.24,14.24,0,0,1,.48-3.68A14.35,14.35,0,0,1,50.86,91a14.37,14.37,0,1,1,14-24.86,14.38,14.38,0,0,1,5.31-2.43C67.75,48,58.75,37.81,44.59,34.75a2.83,2.83,0,1,1,1.19-5.53,36.46,36.46,0,0,1,22.33,14.2,15.8,15.8,0,0,1,15-10.77H98a2.83,2.83,0,0,1,2.83,2.83v4A15.78,15.78,0,0,1,85,55.24H74a51.74,51.74,0,0,1,1.87,8.29,14.34,14.34,0,0,1,5.91,2.52A14.37,14.37,0,1,1,95.56,91Zm22.23-56a2.12,2.12,0,0,0,.2.12l0,.1Zm16.83,29.72a3.42,3.42,0,0,0-1.21,2.11,2,2,0,0,1-.29,1.65,55.89,55.89,0,0,0-1.67-9.85c-.49-1.91-1.06-3.69-1.66-5.35A4.81,4.81,0,0,0,130,52a1.27,1.27,0,0,0-.95-.7,60.07,60.07,0,0,0-4-8.12c-1.17-1.39-2.44-2.83-3.67-4.34l-2-2.17-.33-.36a12,12,0,0,1,1.69,1.12,31.49,31.49,0,0,1,2.53,2.41c.77.89,1.59,1.72,2.28,2.43a4.82,4.82,0,0,0,2,1.4c.48,1.68-.85-.08-1.24,0a10.91,10.91,0,0,0,1.45,1.74,2.51,2.51,0,0,1,.91,2c-.24.12-1-1.4-.8-.64-.08,1,1,.9.92,2.05.14-.31.6-.09,1.08.41a9.2,9.2,0,0,1,1.3,2c-.08-.27-.08-.27-.07-.4.3-.35.67.72.89,1.31a.34.34,0,0,1-.21-.17A31.28,31.28,0,0,1,134.62,64C134.63,64.25,134.62,64.49,134.62,64.73Zm1.72,12.89.07-.16v.05A.76.76,0,0,1,136.34,77.62Z"/><path class="cls-1" d="M81.78,89.34a14.37,14.37,0,0,1-8.43,2.75,9.83,9.83,0,0,0-.28,1.22l0,.18c0,.16,0,.32-.05.48s0,.35,0,.52a1.21,1.21,0,0,1,0,.19l0,.57a1.93,1.93,0,0,1,0,.24,8.66,8.66,0,0,0,2.08,4.84,2.7,2.7,0,0,1,.31.28,8.88,8.88,0,0,0,3.23,2.24L79,103l.18.06A8.74,8.74,0,0,0,90,92.09,14.38,14.38,0,0,1,81.78,89.34Z"/><path class="cls-1" d="M56.88,86.37l.38,0,.61-.08.23,0c.28-.06.57-.13.85-.22h0a8.36,8.36,0,0,0,1.76-.78h0a1.82,1.82,0,0,0,.23-.15,14.79,14.79,0,0,1-1.36-3,.56.56,0,0,0,0-.12c-.06-.2-.11-.4-.17-.6l0-.12c-.09-.38-.17-.75-.23-1.13l0-.21c0-.18,0-.35-.07-.53L59,79c0-.18,0-.35,0-.53a2.62,2.62,0,0,1,0-.28c0-.17,0-.34,0-.5s0-.34,0-.51a2.72,2.72,0,0,1,0-.28c0-.18,0-.35,0-.53l0-.3c0-.18,0-.36.07-.54l0-.17a11.93,11.93,0,0,1,.24-1.19s0-.06,0-.09l.18-.61,0-.11A14.24,14.24,0,0,1,61,70.29a8.71,8.71,0,1,0-5.85,16c.22,0,.44,0,.66.07l.43,0C56.46,86.39,56.67,86.38,56.88,86.37Z"/><path class="cls-1" d="M81.64,109.07a14.27,14.27,0,0,1-8.39-2.74,14.39,14.39,0,0,1-7.52,2.7l-.46,0H65a8.52,8.52,0,0,0-.41,2.67,8.72,8.72,0,0,0,17.43,0,8.62,8.62,0,0,0-.42-2.67Z"/><path class="cls-1" d="M65,103.41l.49,0,.48,0h0a8.53,8.53,0,0,0,3.35-1.23,14.35,14.35,0,0,1-2-6.42v0q0-.47,0-.93v0a14.15,14.15,0,0,1,.49-3.73,14.49,14.49,0,0,1-2.92-1.66l-.06,0-.82.55-.17.1q-.37.23-.75.42l-.17.09q-.43.23-.9.42l-.19.08-.82.31-.15,0q-.48.15-1,.27l-.21.05c-.29.07-.58.13-.88.18l-.13,0q-.49.08-1,.12l-.24,0c-.3,0-.6,0-.91,0h-.09A8.9,8.9,0,0,0,56,94.7a8.71,8.71,0,0,0,7.52,8.62l.14,0,.45,0,.42,0H65Z"/><path class="cls-1" d="M64.81,79.44q.09.42.21.81v0c.09.26.18.52.28.76l0,0a8,8,0,0,0,.35.72l0,0c.13.22.26.44.4.65l.06.08a6,6,0,0,0,.42.57l.12.14a2.73,2.73,0,0,0,.23.25c.16.18.33.35.5.51l0,0a6.57,6.57,0,0,0,.57.48h0a8.64,8.64,0,0,0,4.2,1.74h.06a8.93,8.93,0,0,0,1,.07A8.71,8.71,0,0,0,80,83.24l0,0c.16-.19.3-.39.45-.6l.06-.09a6,6,0,0,0,.36-.6.75.75,0,0,0,.07-.12c.11-.2.21-.41.3-.62l.07-.15c.08-.21.16-.42.23-.64a.88.88,0,0,0,0-.15c.08-.23.13-.47.19-.7,0,0,0-.08,0-.12a8.45,8.45,0,0,0,0-3.47.44.44,0,0,0,0-.1,6.38,6.38,0,0,0-.19-.72s0-.09,0-.14c-.08-.22-.15-.44-.24-.65l-.06-.13c-.1-.22-.2-.43-.31-.64a.31.31,0,0,1,0-.1c-.13-.21-.25-.43-.39-.63l0-.06c-.15-.21-.31-.43-.47-.63h0A8.65,8.65,0,0,0,73.65,69h0l-.29,0-.23,0a8.68,8.68,0,0,0-6.42,3.08l-.1.13c-.16.19-.3.38-.44.58l0,.06a6.82,6.82,0,0,0-.41.68l0,0c-.13.24-.25.48-.36.74h0c-.1.26-.2.52-.28.78v0a8.87,8.87,0,0,0-.39,2.59,8.45,8.45,0,0,0,.18,1.75Z"/><path class="cls-1" d="M271.57,46.81v-8.7c0-2.79-1.27-4.18-3.83-4.18h-.06q-3.87,0-3.87,4.18v1.56h-8.89V38.11q0-13,12.79-12.95t12.76,13V74.27h-8l-.63-3.8a8.71,8.71,0,0,1-8,4.81A7.42,7.42,0,0,1,257.35,72a14,14,0,0,1-2.21-8Q255.14,48.4,271.57,46.81Zm0,8.45Q264,57.15,264,63.05c0,2.69.6,4,1.79,4q5.76-.45,5.75-8.55Z"/><polygon class="cls-1" points="281.71 82.86 276.64 77.79 272.67 81.75 268.71 77.79 264.75 81.75 260.78 77.79 255.71 82.86 260.78 87.92 264.75 83.96 268.71 87.92 272.67 83.96 276.64 87.92 281.71 82.86"/><path class="cls-1" d="M186.77,69.24l9.07,17.69h-9.6l-7.81-16.11h-1.21V86.93h-8.77V26.14h12.77q11.68,0,11.68,12.79V58Q192.9,66.08,186.77,69.24Zm-9.55-34.46V62.45h2a8.35,8.35,0,0,0,2.51-.25,3.76,3.76,0,0,0,2.38-3.87V38.93q0-4.16-3.81-4.15Z"/><path class="cls-1" d="M224,75.12q0,12.76-12.61,12.8t-12.58-12.8v-49h8.77v49q0,4.13,3.81,4.12t3.84-4.12v-49H224Z"/><path class="cls-1" d="M252.71,26.14v8.64H244.5V86.93h-8.77V34.78h-8.21V26.14Z"/><path class="cls-1" d="M323.09,26.22H345.8v8.64H331.85V62.18h12v8.66h-12V78.3H345.8v8.63H323.09Z"/><path class="cls-1" d="M292.6,26.22h13.49q11.67,0,11.67,12.78V74.18q0,12.72-12.22,12.75H292.6Zm8.76,8.64V78.3h3.83c2.54,0,3.81-1.38,3.81-4.12V39q0-4.14-3.81-4.14Z"/><path class="cls-1" d="M349.87,86.93V26.14h8.77V78.28h14v8.65Z"/><polygon class="cls-1" points="399.56 86.93 408.58 26.14 399.72 26.14 393.52 76.08 387.35 26.14 378.49 26.14 387.54 86.93 399.56 86.93"/><rect class="cls-1" x="411.46" y="26.08" width="8.78" height="60.85"/><polygon class="cls-1" points="451.13 86.93 451.13 26.08 442.67 26.08 442.67 42.83 433.14 26.08 425.92 26.08 425.92 86.93 434.38 86.93 434.38 43.76 442.67 58.64 442.67 86.93 451.13 86.93"/><path class="cls-1" d="M468.63,73.16q12.62,0,12.62-12.81V37.9q0-12.78-12.62-12.78T456,37.9V60.35Q456,73.16,468.63,73.16ZM464.81,37.9q0-4.12,3.78-4.13h.07q3.81,0,3.81,4.13V60.35q0,4.12-3.84,4.12t-3.82-4.12Z"/><polygon class="cls-1" points="472.75 80.53 468.64 76.42 464.53 80.53 460.42 76.42 455.17 81.67 460.42 86.93 464.53 82.82 468.64 86.93 472.75 82.82 476.86 86.93 482.12 81.67 476.86 76.42 472.75 80.53"/><path class="cls-1" d="M180.73,96.83H169a.62.62,0,0,0-.69.7v31.33a.61.61,0,0,0,.69.7h11.75q7.89,0,11.69-3.72t3.8-11v-3.65q0-7.1-3.8-10.71T180.73,96.83ZM188,114.52a8.51,8.51,0,0,1-1.87,5.92q-1.87,2.09-5.92,2.08h-3.65V103.88h3.65q4,0,5.92,2a7.85,7.85,0,0,1,1.87,5.62Z"/><path class="cls-1" d="M222.7,96.83H201.91a.62.62,0,0,0-.7.7v31.33a.62.62,0,0,0,.7.7H222.7c.43,0,.65-.23.65-.7v-5.74c0-.47-.22-.7-.65-.7H209.46v-6h12c.43,0,.65-.23.65-.7v-5.35c0-.46-.22-.69-.65-.69h-12V104H222.7c.43,0,.65-.23.65-.7V97.53C223.35,97.07,223.13,96.83,222.7,96.83Z"/><path class="cls-1" d="M256.13,97.38a.79.79,0,0,0-.8-.55h-8.9a.79.79,0,0,0-.8.55l-10.39,31.38c-.17.54,0,.8.55.8h7.45a.73.73,0,0,0,.79-.6l1.45-5.24h10.77l1.48,5.29a.72.72,0,0,0,.79.55H266c.5,0,.68-.26.55-.8Zm-8.88,19.89L249,111c.33-1.19.65-2.39,1-3.59s.58-2.4.85-3.6h.1c.27,1.16.55,2.35.85,3.55s.62,2.4,1,3.59l1.77,6.35Z"/><path class="cls-1" d="M290,122.42H277.61V97.53c0-.46-.18-.7-.55-.7h-7a.62.62,0,0,0-.7.7v31.33a.62.62,0,0,0,.7.7H290c.44,0,.65-.23.65-.7v-5.74C290.65,122.65,290.44,122.42,290,122.42Z"/><path class="cls-1" d="M313.34,96.83H288.75a.62.62,0,0,0-.69.7v5.75a.61.61,0,0,0,.69.7H297v24.88c0,.47.22.7.65.7h6.84a.62.62,0,0,0,.7-.7V104h8.2c.43,0,.65-.23.65-.7V97.53C314,97.07,313.77,96.83,313.34,96.83Z"/><path class="cls-1" d="M344.57,96.83h-6.85a.62.62,0,0,0-.7.7v19.29a7.36,7.36,0,0,1-1.27,4.6c-.85,1.1-2.27,1.65-4.27,1.65s-3.48-.55-4.33-1.65a7.36,7.36,0,0,1-1.27-4.6V97.53c0-.46-.22-.7-.65-.7h-6.89a.62.62,0,0,0-.7.7v19.69q0,6.65,3.49,9.79t10.35,3.15q6.79,0,10.29-3.17t3.5-9.77V97.53A.62.62,0,0,0,344.57,96.83Z"/><path class="cls-1" d="M370.5,116.47v-.1a7.5,7.5,0,0,0,4.5-3.3,10.82,10.82,0,0,0,1.4-5.64c0-3.4-1-6-3.1-7.85s-5.45-2.75-10.14-2.75H351.61a.62.62,0,0,0-.7.7v31.33a.62.62,0,0,0,.7.7h6.85a.62.62,0,0,0,.7-.7V117.62h3.25l6.79,11.49a1,1,0,0,0,.85.45h7.7a.59.59,0,0,0,.55-.25c.1-.16.06-.36-.1-.6Zm-3.6-6.17a6.56,6.56,0,0,1-3.74.87h-4v-7.34h4.2a6.08,6.08,0,0,1,3.67.87,3.31,3.31,0,0,1,1.12,2.78A3.18,3.18,0,0,1,366.9,110.3Z"/><path class="cls-1" d="M401,97.38a.78.78,0,0,0-.8-.55h-8.89a.78.78,0,0,0-.8.55l-10.4,31.38c-.16.54,0,.8.55.8h7.45a.74.74,0,0,0,.8-.6l1.44-5.24H401.1l1.48,5.29a.72.72,0,0,0,.8.55h7.49c.5,0,.69-.26.55-.8Zm-8.88,19.89,1.73-6.3c.34-1.19.65-2.39.95-3.59s.59-2.4.85-3.6h.1c.27,1.16.55,2.35.85,3.55s.62,2.4.95,3.59l1.77,6.35Z"/></svg>