<?xml version="1.0" encoding="UTF-8"?>
<svg xmlns="http://www.w3.org/2000/svg" version="1.1" viewBox="0 0 450 352">
  <defs>
    <style>
      .cls-1 {
        fill: #fff;
      }
    </style>
  </defs>
  <!-- Generator: Adobe Illustrator 28.6.0, SVG Export Plug-In . SVG Version: 1.2.0 Build 709)  -->
  <g>
    <g id="Capa_1">
      <g id="Capa_1-2" data-name="Capa_1">
        <path class="cls-1" d="M401,150.8V56c0-30.8-25.2-55.9-56-56H105c-30.8,0-55.9,25.2-56,56v94.8C20.9,163.2,1.1,191.4,1,224v112c0,8.8,7.2,16,16,16s16-7.2,16-16v-8c0-4.4,3.6-8,8-8h368c4.4,0,8,3.6,8,8v8c0,8.8,7.2,16,16,16s16-7.2,16-16v-112c0-32.6-19.8-60.8-48-73.2ZM97,144c0-8.8,7.2-16,16-16h80c8.8,0,16,7.2,16,16h-112ZM241,144c0-8.8,7.2-16,16-16h80c8.8,0,16,7.2,16,16h-112ZM105,32h240c13.2,0,24,10.8,24,24v52.3c-8.5-7.6-19.7-12.3-32-12.3h-80c-12.3,0-23.5,4.7-32,12.3-8.5-7.6-19.7-12.3-32-12.3h-80c-12.3,0-23.5,4.7-32,12.3v-52.3c0-13.2,10.8-24,24-24ZM409,288H41c-2.7,0-5.4.3-8,.8v-64.8c0-26.4,21.6-48,48-48h288c26.4,0,47.9,21.6,48,48v64.8c-2.6-.5-5.3-.8-8-.8Z"/>
      </g>
    </g>
  </g>
</svg>