<?xml version="1.0" encoding="UTF-8"?>
<svg id="Capa_1" xmlns="http://www.w3.org/2000/svg" version="1.1" viewBox="0 0 833.2 170.8">
  <!-- Generator: Adobe Illustrator 29.3.1, SVG Export Plug-In . SVG Version: 2.1.0 Build 151)  -->
  <defs>
    <style>
      .st0 {
        fill: #fff;
      }
    </style>
  </defs>
  <path class="st0" d="M410.5,91.7v-20.6c0-5.7-2.7-8.7-7.9-8.7h0c-5.4,0-7.9,2.9-7.9,8.7v6h-18.3v-6c0-17.7,8.8-26.6,26.4-26.6s26.2,8.9,26.2,26.6v77.2h-16.3l-1.3-7.8c-3.7,6.5-9.2,9.8-16.4,9.9-6,0-10.4-2.3-13.5-6.8s-4.6-9.9-4.6-16.4c0-21.4,11.2-33.1,33.8-35.4h-.1ZM410.5,109.2c-10.3,2.5-15.5,7.9-15.5,16.1s1.3,8.3,3.7,8.3c7.9-.6,11.8-6.5,11.8-17.6v-6.8h0Z"/>
  <path class="st0" d="M792,98c0,17.7-8.8,26.6-26.4,26.8-17.5,0-26.2-8.9-26.2-26.8V21.4h18.3v76.6c0,5.7,2.7,8.7,7.9,8.7s8-2.8,8-8.7V21.4h18.3v76.6h0Z"/>
  <g>
    <path class="st0" d="M664.6,57.1c.3,0,.3-2.2,0-1.5v-1.4s0-.3-.3-.3c.3.8,0,2,.3,3.1h0Z"/>
    <path class="st0" d="M665.8,60.4c0,1.1.3,1.3.3,2.7h-.1c0,.6.4.5.5,0,0-.6,0-3.1-.6-2.7h0Z"/>
    <path class="st0" d="M666.1,67.9v-.6c0,.3-.3.6,0,.6Z"/>
    <path class="st0" d="M667.8,59.2h.4c-.1-.4,0-1.5-.4-1.9v1s0-.3-.1-.3v.3c0-.4.3-.5,0-.8-.4,1.5,0,3.2,0,4.5.4,0,0-1,.1-1.4.1.3-.1,1,.3,1v-.6c-.3-.4-.1-.5-.1-1.4-.1,0-.3.5-.3.3v-.4h0v-.3h.1Z"/>
    <path class="st0" d="M663.6,41.8c.1,0,0-.8.1-.5v.9c-.5-.4-.3,1.1-.3,1.5.1,0,0-.4,0-.8.5,1-.1,2.5,0,3.8-.1,0,0,.3-.1.3.4,1,0,2,.1,2.9-.3,1.7-.1,2.3,0,3.9h.3c-.3-.3,0-.4,0-.6v-.3c-.1,0,0,.6-.3.6,0-.3.1-.4,0-.9.3,0,.4,0,.3-.4,0,.3.3.3.1.6.4,0,.1-2.4,0-1.3-.1-.3,0-1.3-.1-1,0-.8.3-.9.1-1.5,0-.5-.3-.6-.4-1h.1c0-.3-.4-.9,0-1-.1.3,0,.8.1.8-.3-.5.1-2.2,0-3.3h.1c-.3-1.3.1-2.8,0-3.8h.1c-.3-.4-.1-.6,0-1,0,.5.3,0,.1.9,0-.6,0-1.3.3-1.7h-.1s0-.8.1-1c0,0-.1-.8-.3-.4v-2.4c.3,0,.1.5.4.3,0,.9-.3,1.5.1,2.2h-.1s.1,0,.1.3c.1-.3.4-1.4,0-1.7,0-.3,0-.8.1-1,.3,0,.5,0,.5.8,0,0,0-.4-.1-.3-.1,0-.1.3-.3.3,0,.3,0,1,.3.6,0,.3-.1.3-.3.4.1.3.3.3,0,.5,0,0,.1.3.3.3v2.9h-.1c.1.4.1.6.1,1.5h.1c0,.6.1,1.9.3,2.7-.4,0,0,.8-.3,1,.1,0,0,.6.3.6,0,.5-.1-.3-.3,0,0,.4.4.9.3,1.3h-.1c0,.3.1.4.1.8h-.1s.1.5.1.6c0,.3-.3.6-.3,1s.3.5.3.9-.3,1,0,1.5c0,.3-.1.4-.1.6.1,1,.1,2,.4,3.2.1,0,.6.6.5,0,0,.6.1,1.9.5,1.1,0-.3,0-.5,0-.4,0-.8.1-1.8-.1-2.5.1-2.4-.1-4.7.1-7,.6,0,.4-1.8.3-2.3.1-1.9,0-3.7,0-5.7h.1c0-.3,0-.4-.1-.3v-.8c-.6-3.7-1.9-6.8-3.6-9.3,0,.9,0,1.8-.1,2.7,0,.4.3,1.1-.1,1.3,0,.4,0,.9.1,1,0,.3-.3.3-.1.6v.3c0,.3.3,0,.3,0,0,.3-.5.4,0,.4-.4,1.3-.3,2.8-.3,4.7-.4.4-.3,1.4-.1,1.9h0s.5-.4.5-.4Z"/>
    <path class="st0" d="M663,94.3h.1c0-.4,0-.5-.3-.6v.8h.1Z"/>
    <path class="st0" d="M663,78.7c0,.3,0,.9.1.9-.1-.4,0-.8-.1-.9Z"/>
    <path class="st0" d="M667.8,61.7v.8h-.3c0,.3-.1.5,0,.6,0-.3.1-.6.3-.4,0,1.1-.1,3.1,0,4.2h.1c0-2.2.4-3.7-.3-5.1h.1Z"/>
    <path class="st0" d="M665.9,42.7v-.6.6Z"/>
    <path class="st0" d="M664.2,114c-.1,0-.1-.3-.3,0h.1c-.1,0,0,.4,0,.4v-.6h0v.3h.1Z"/>
    <path class="st0" d="M664.4,66h-.3c0,.3,0,.5.1.6,0-.4.1-.4,0-.8h.1Z"/>
    <path class="st0" d="M664.1,113.5c0-.1,0,0,.1,0,0-.3,0-.4-.1-.5v.5Z"/>
    <path class="st0" d="M664.7,127.8c0-.5,0-.8-.1-1,.1.3-.1,1,.1,1Z"/>
    <path class="st0" d="M664.7,126.6c0-.5-.1-1,0-1.4-.4.3,0,1.1,0,1.4Z"/>
    <path class="st0" d="M664.9,119.6c.1,1.3,0,2.4.3,3.2.3-1.1,0-2.2,0-3.4-.3.1-.4-.3-.5,0,0,.4,0,.9.1,1,.1-.3-.1-.6,0-.8h.1Z"/>
    <path class="st0" d="M664.9,72.2c.1-.3.3-.3.3-.9-.1,0-.3,0-.3-.3h.3c0-.4-.1-.8,0-1.3-.3,0,0,.5-.1.5v-1.5c0-.3-.1.3-.3,0,.3-.3,0-.6.3-.8,0-.8,0-1.5-.1-2.3h.3c-.1,0,0-.6-.1-.5v.5c0-1.3-.3-1.8-.6-.9.2,0,.3,0,.4.3-.1,0-.3.6,0,.6v-.4c0,1.3,0,2.4-.1,3.7.4.8-.1,2.7.4,3.2h-.1Z"/>
    <path class="st0" d="M666,63.6c0,.3,0,.4.1.4,0-.3,0-.5-.1-.4Z"/>
    <path class="st0" d="M662.7,105.7c0-.4-.3-.5-.3-.3v.9c.4,0,0-.9.3-.5h0Z"/>
    <path class="st0" d="M662.3,96.6c.1-.6,0-1.4,0-2h-.3c.1.4,0,.6,0,1.1.3,0,0,.6.3.9h0Z"/>
    <path class="st0" d="M661.4,92.2c0-.3.3-.9,0-1,0,.3,0,.5,0,.3v.6h0Z"/>
    <path class="st0" d="M663.1,142.4c0,.4.1.8.1,1,0-.1,0,0,.1-.3,0,0-.1-.4-.1-.6h-.1Z"/>
    <path class="st0" d="M662.2,94.4v-2c-.5,0-.3-.9-.5-1.1-.3.8,0,1.1.3,1.5-.3.4-.3,1.3,0,1.7h.3Z"/>
    <path class="st0" d="M666.4,148c0-.3-.3-.3-.3-.5.3,0,.3-.1.5-.5-.1-.3,0-1.1-.1-1.5-.1.1,0,1-.3.9.3-.5,0-.8-.1-1,.4.1.3-1.7-.1-1.8,0-.4.4-.6,0-.8.3-.1.3-.8.3-1.1v.3c-.4-.3.3-1.1-.1-1.5h.1c0-.1,0,0-.1-.3,0-.3,0-.1.3,0-.1-.3-.3-.6-.5-1,0,0,.3,0,.3-.5-.3.5-.4-.5,0-.5,0-.1-.1-.5-.3-.3,0-.1.4-.8,0-1,.3-.6,0-1.9-.3-2v-.6c0-.3-.3,0-.1-.4-.1.6,0,1.4,0,2.3.3,0,0-.6.3-.6,0,.6.3.4.1,1v-.3c-.4.3-.5,1-.5,1.8-.1-.4,0-1.1,0-1.4-.3-.5,0-1.9-.6-1.8.3-.6-.1-1-.3-1.5.3-.5.3.5.4.6.3-.1-.3-.6,0-1,0-.4-.1.4-.3,0,0-1,.3-2.3,0-3.2v.4c0-.2,0-.3-.3-.3-.3,0,0-.5,0-.3,0-.3.3-.8,0-1.1h.1v-.4.3c0-1.7-.1-3.8.1-5.4,0-.3-.1,0-.1.3-.1,0,0-.8,0-.8-.3-.9,0-1.3-.3-2.3.4,0,0-1.4.3-1.3,0-.5-.3,0-.3-.3v-1.8h-.3c0-.4,0,0,.1-.3-.3-.3.1-.8-.1-1,0-.2,0-.2.1,0,0-.1-.1-.8-.3-.4-.1,0,0-.5-.1-.3,0-.1,0,0,.1,0-.1-.8,0-1.8-.1-2.5h.1c-.1,0-.3-.6-.4-.3,0-.1-.1-.5,0-.6h-.4c0,.5,0,1.4.4,1.1,0,.3-.3,0-.1.4.1.5.4.9.4,1.9-.1,0,0-.6-.1-.5,0,.3,0,1.1.3,1.4,0,0-.1,0-.3.4.3.5-.1,1.3.3,1.7,0,.3-.1.3,0,.5,0,.3.1,0,0-.3.3.6-.4,1.5,0,2,0,.3-.1,0-.3,0,.1.5,0,.6.1,1.1.1-.5,0-.6.1-1.1.3.5-.1,1.3,0,1.7,0,0-.1-.1-.1-.3,0,.6.1.4-.3.9,0,.3,0,.4.1.5.1,0,0-.5,0-.6,0,.1.1.3.3.4-.3.3-.3.6-.4,1.1,0,.1.1,0,.3,0,0,.2,0,.3-.1.3.3,1.4.1,3.2.3,5,0,1.1.3,2.3.1,3.1,0,.6.3,1.9,0,2.2v5.2s0-.1-.1-.3c-.1,0,0,.4,0,.5.3.1,0-.4.3-.3.1.8,0,2.4,0,3.3,0,0,0-.4-.1-.3,0,.5.4.4.1.9,0,0-.1-.1-.1-.4-.3.4.1,1.1,0,1.3h.1c0,.6-.3,2.4.1,2.5,0,.3-.1.1,0,.4,0,.1,0,.3.3.3h.1-.1c-.1.1-.1,1.1,0,1.9h2.4c0-.1,0-.4-.1-.5v.3h0l-.4-1.1h0Z"/>
    <path class="st0" d="M663.8,132.4v.8c.3.1.3-.8,0-.8Z"/>
    <path class="st0" d="M664,148.3h.1c0-.4,0-.8-.3-.9v.9h.1Z"/>
    <path class="st0" d="M662.3,104.6c.3,0,.1-.5.3-.6h-.4c0,.5.1,1.1.1,1.8,0-.4.3-.9,0-1h0Z"/>
    <path class="st0" d="M663,81.7c-.1,0-.1.3-.1.4h.1v-.4h0Z"/>
    <path class="st0" d="M661.6,88.2c0,.3-.1,0-.3,0v.3-.4.6s.4-.4.3-.5h0Z"/>
    <path class="st0" d="M662.8,107.8c0-.3,0-.4-.1-.5,0,0,0,.5.1.5Z"/>
    <path class="st0" d="M662.1,91.1v.5h.1s0-.5-.1-.5Z"/>
    <path class="st0" d="M661.9,81.7h.1v-.4c0,.4-.4,0,0,.4h-.1Z"/>
    <path class="st0" d="M661.8,86.5v-.3q-.1,0-.1.3h-.1.1v-.3h.1v.3Z"/>
    <path class="st0" d="M661.9,86c-.1-.3-.1,0-.4,0,0,.4.3.3.4,0Z"/>
    <path class="st0" d="M665.6,70.2c0-.4.3-.6,0-.9v.9Z"/>
    <path class="st0" d="M663.5,110.2c.1.3,0,.6.1.8,0-.3,0-.9-.1-.8Z"/>
    <path class="st0" d="M663.6,84.1c0-1.1,0-3.2-.4-3.6.1.8,0,2.7.4,3.6Z"/>
    <path class="st0" d="M663.3,108.7v.9-.9Z"/>
    <path class="st0" d="M663.1,93.2c0-.3.1-.6.1-1h-.3c0,.4-.1.8,0,.9h.1Z"/>
    <path class="st0" d="M664.1,54.4s.3-.5,0-.5c0,0-.1.5,0,.5Z"/>
    <path class="st0" d="M663.6,64.3c.4-.4.1-1.9.3-2.7.3.3-.1,1.4,0,1.9,0-.6.1,0,.4,0,.1-.3.3-1,0-1.4,0,.3,0,.6,0,.5,0-.4,0-.8-.1-1.3.1,0,.1.3.3,0-.1,0,0-.4,0-.6,0,0-.3.3-.3,0,.1-.3.3-.5.3-.9-.4-1.5-.3-3.4-.4-4.5h-.1c0-.3,0-.9-.1-.9v.9c-.1,1.9,0,3.9.1,5.6h0v.5-.5h-.1c0,1.3-.3,2.2,0,3.3h-.1Z"/>
    <path class="st0" d="M665.5,38.1s0-.6-.1-.5c0,.3,0,.9.1.5Z"/>
    <path class="st0" d="M663,82.9h.1c0-.3,0-.6-.1-.6v.6h0Z"/>
    <path class="st0" d="M663.2,145s.1.1.3.3c-.1-.5-.3-.9-.5-1.3.1,0,.3-1.1-.1-1.3.3-.3.4-1.8,0-2,.4-.3,0-1.1.3-1.7,0-.3,0,.1-.1,0,0-.4.1-.6,0-.9.3-.1,0-.8.3-.8,0,0-.1-.3,0-.3-.3-.3,0-.6-.1-.8.4-.5,0-1.5,0-1.9s-.3-.3-.3-.6c.3-.8,0-1,0-2s0,.4.1.3c-.1-2.4,0-5.2-.8-7.5-.3,0,0,.5-.3.4,0-.3,0-.7-.1-1,.1,0,0,.3.1.3v-.4c0-.3,0,.1-.1,0v-.5c0-.4,0,0,.1,0,0-.3-.1-.3-.3-.3,0-.2,0-.3.1-.3-.3-1.3-.3-3.1-.3-4.5s0-.5,0-.4c-.1-.6-.1-1.9.3-2-.4-.1,0-.8-.1-1.3.4.1.4-1.1,0-1.5-.3.3-.3.9,0,1.4-.4-.6,0-2.2-.5-2.5,0-1,.3-1.7,0-2.7h.4c0-.5-.1,0-.4-.3.1-1-.4-2.3-.1-3.7,0-.4-.1,0-.3-.3v-2.2c.1,0,.3-.3.1-.8v.3c.1,0,0-.3.1-.4,0,0-.1,0-.1-.4,0,0,0,.4.3.3,0,.5,0,.9.3.9-.5.5.3,1,0,1.9.5,0-.1-1,.1-1.1,0-.4-.3-.5-.1-.9,0,0,0,.4.1.4s0-.8,0-1v.3s0-.9,0-.6c0-.3,0-.4-.1-.5,0-.3,0-.4.1-.3,0-.3-.1-.3-.1,0-.1-.3,0-.5,0-1-.4.6.1-.6,0-.9h-.1c0-.3.3,0,.1-.4-.3-.4,0-1.7-.4-2.5h.1v-.6s-.1,0-.1.4v-.6s0,.3.3.3v-1c0-.3,0,0-.3,0,.1-.4.4-.9-.1-1,.1-.5-.5-.9-.5-2.2.1.3,0,0,.1,0,0,0-.1-.3-.3-.4,0-.4.1-.3,0-.8h.3c-.3-.3-.1-.4-.3-.9.1,0,.4,0,0-.5.1,0,0-.6.3-.6,0-.3-.3,0-.1-.4h.4v-.6c-.1,0-.1.4-.4.3,0-.6,0-2,.4-1.9h-.3c0-.4.3-.4.4-.4,0,.4.1.3.1.8.3-.6,0-1,0-1.7-.3,0-.4.3-.3.8,0,0,0-.5-.1-.8h.3c0-.4-.1-.4-.1-.8h.3c-.8-1.3,0-2.4-.5-3.7.1.4.3.3.4.6v-.3c.5,0,.3-1.1.1-1.8.3,0,.3.6.3,1,.1-.3.1-.9-.1-.8v-.9c0-.3,0,.5.1.5.3-.3,0-1.4,0-1.5,0-.3,0-.5,0-.4,0-.5.1-.9.1-1.1,0,0-.3-.3-.1-.5,0-.8.1-2.4-.3-3.6,0,0,.1,0,.1-.3.3,0-.1.3,0,.5.3,0,.3-.9.3-1.3,0,0,0,.3-.1.3,0-.5.5-1.4,0-1.7,0-.2,0-.3.1-.3v-.8.3c-.4-.4-.1-.8-.3-1.4.3,0,.1-.4.3-.5-.3-1.4-.3-3.8-.1-5.6-.4-.8,0-1.7-.3-2.4,0-.3,0-.5.3-.5,0-.3-.1-.3,0-.6,0-.3,0,0-.3,0,0-.9-.4-1.1-.5-1.9.4,0,.1.6.5,1,0-.4.3-1,0-1.4h.1c-.3-.4-.1-.9,0-1.5h-.1c.1-1.5-.1-3.1,0-5h-.3v-1.1c-.3.5,0-.6,0-.8,0-.3-.3,0-.3-.3,0-.4.3,0,.4-.4-.3-.3-.1-.6-.3-1.3,0-.3,0,.4.1.5.3,0,.1-.6.1-1s-.3,0-.3,0c0-.4.4-.4.3-1,0-.3-.1,0-.3,0,.3-.4.1-1.4.3-1.9v.3c.1,0,0-.4,0-.5v.3c-.1-.3-.1-.8-.1-1.1.1-.3.3.4.4,0,0,0-.4,0-.1-.5.1,0,.1.5.4.3v-.3c0-.5-.3,0-.3-.3.4,0,.3-.5.4-.9.1,0,0,.5,0,.6.1,0,.1-.4.1-.6,0-.4,0,.6.1.6,0-.6,0-2.2-.4-2.5,0-.3.1-.6,0-.6.4-.8,0-1.8,0-2.3,0,0,0,.4.1.5,0,0,.1-.3.3-.3,0-1.3.3-2.8,0-4.1-4.2-6.1-11.5-9.2-21.8-9.2-17.6,0-26.4,8.9-26.4,26.6v31.1h18.3v-31.1c0-5.7,2.7-8.5,7.9-8.7h.1c5.2,0,7.9,2.8,7.9,8.7v45.7c-22.5,2.2-33.8,14-33.8,35.4s1.5,12,4.6,16.4,7.5,6.8,13.5,6.8,12.7-3.3,16.4-9.9l1.3,7.8h11.3c0-1.1-.1-2-.1-3.2h0l2-.5h0ZM650.1,115.8c0,11.1-3.9,16.9-11.8,17.6-2.4,0-3.7-2.8-3.7-8.3,0-8.2,5.2-13.5,15.5-16.1v6.8h0Z"/>
    <path class="st0" d="M661.4,102.5c0-.3,0-.5-.1-.5,0,0,0,.3-.1.3v.8c.3,0,0-.4,0-.5h.3,0Z"/>
    <path class="st0" d="M661.2,104.3c0-.4.1-.5,0-.8,0,.4-.1.5,0,.8Z"/>
    <path class="st0" d="M661.9,109.8c.1-.3,0-.4,0-.8-.3,0-.3.9,0,.8Z"/>
    <path class="st0" d="M668.1,41.3c0,1.8-.4,3.3,0,5.1h.4v-.3c0-1.7,0-3.2-.3-4.7h-.1Z"/>
    <path class="st0" d="M663.3,110.4c0-.6,0-.8-.3-1.1,0,.4-.1.9,0,1,0-.6.1,0,.3,0h0Z"/>
    <path class="st0" d="M662.1,109.9c-.4,0-.4.4-.5.8.3,0,.3-.5.5-.8Z"/>
    <path class="st0" d="M665.2,132v1.4c0-.4.1-1.3,0-1.4Z"/>
    <path class="st0" d="M664.9,117.2v-.4h-.3c0,.3,0,.5.3.5h0Z"/>
    <path class="st0" d="M665.2,58.3c-.3-.4-.4,1.4-.3,2.2.3-.9,0-1.7.3-2.2Z"/>
    <path class="st0" d="M665.2,60.9s0-.4-.1-.3c0,0-.3.4,0,.4,0-.4.3.3.3,0h-.1Z"/>
    <path class="st0" d="M665.1,130.4v.5-.5c0,.4,0,.6.1.9,0-.4.1-.5,0-.9h-.1Z"/>
    <path class="st0" d="M665.1,57.6c-.1-1.1.3-2.3-.3-3.1.1,1.3,0,2.8.1,3.6,0-.3,0-.5,0-.4h.1Z"/>
    <path class="st0" d="M664.5,50.3h.1v-.4c-.1,0-.3.5,0,.5h-.1Z"/>
    <path class="st0" d="M664.7,42.2c0-.4.3-.8,0-.8v.8Z"/>
    <path class="st0" d="M664.5,61.9c.1,0,.1.4.3.4.1-.5-.3-.9,0-1.4-.3,0,0,.8-.3,1Z"/>
    <path class="st0" d="M664.4,53.2c0,.4,0,.6.3.5,0-.5.1-.8.4-.9v.5c0-.3.1-.3.1-.4-.1-.5-.3-.9-.3-1.7-.4.3-.3,1.1-.4,2-.1,0,0-.3-.3-.3h.1Z"/>
    <path class="st0" d="M664.9,64.3c0-.6.1-1.3-.1-1.7,0,.6-.3.9-.3,1.5h.4Z"/>
    <path class="st0" d="M665.1,133c0-.1,0-.5-.1-.6-.1.3,0,.6.1.6Z"/>
    <path class="st0" d="M664.7,118c0-.5,0-.6-.1-.8,0,.3,0,.9.1.8Z"/>
    <path class="st0" d="M665.2,134.5c0-.3,0-.8-.1-.8v.4c.1,0,.1.3.3.3h-.1Z"/>
    <path class="st0" d="M665,126.4v1c0-.3,0-.5.1-.6-.3.1,0-.4-.1-.3h0Z"/>
    <path class="st0" d="M665.1,125.5c0,.1,0,.5.1.5,0-.3,0-.4-.1-.5Z"/>
    <path class="st0" d="M665.1,125.3v-.4c-.4,0,0-.9-.3-1v1.7c0-.5.1-.3.1,0v-.3h.1Z"/>
  </g>
  <g>
    <path class="st0" d="M120.2,57.1c.3,0,.3-2.2,0-1.5v-1.4s0-.3-.3-.3c.3.8,0,2,.3,3.1h0Z"/>
    <path class="st0" d="M121.3,60.4c0,1.1.3,1.3.3,2.7h-.1c0,.6.4.5.5,0,0-.6,0-3.1-.6-2.7h0Z"/>
    <path class="st0" d="M121.7,67.9v-.6c0,.3-.3.6,0,.6Z"/>
    <path class="st0" d="M123.4,59.2h.4c-.1-.4,0-1.5-.4-1.9v1s0-.3-.1-.3v.3c0-.4.3-.5,0-.8-.4,1.5,0,3.2,0,4.5.4,0,0-1,.1-1.4.1.3-.1,1,.3,1v-.6c-.3-.4-.1-.5-.1-1.4-.1,0-.3.5-.3.3v-.4h0v-.3h.1Z"/>
    <path class="st0" d="M119.1,41.8c.1,0,0-.8.1-.5v.9c-.5-.4-.3,1.1-.3,1.5.1,0,0-.4,0-.8.5,1-.1,2.5,0,3.8-.1,0,0,.3-.1.3.4,1,0,2,.1,2.9-.3,1.7-.1,2.3,0,3.9h.3c-.3-.3,0-.4,0-.6v-.3c-.1,0,0,.6-.3.6,0-.3.1-.4,0-.9.3,0,.4,0,.3-.4,0,.3.3.3.1.6.4,0,.1-2.4,0-1.3-.1-.3,0-1.3-.1-1,0-.8.3-.9.1-1.5,0-.5-.3-.6-.4-1h.1c0-.3-.4-.9,0-1-.1.3,0,.8.1.8-.3-.5.1-2.2,0-3.3h.1c-.3-1.3.1-2.8,0-3.8h.1c-.3-.4-.1-.6,0-1,0,.5.3,0,.1.9,0-.6,0-1.3.3-1.7h-.1s0-.8.1-1c0,0-.1-.8-.3-.4v-2.4c.3,0,.1.5.4.3,0,.9-.3,1.5.1,2.2h-.1s.1,0,.1.3c.1-.3.4-1.4,0-1.7,0-.3,0-.8.1-1,.3,0,.5,0,.5.8,0,0,0-.4-.1-.3-.1,0-.1.3-.3.3,0,.3,0,1,.3.6,0,.3-.1.3-.3.4.1.3.3.3,0,.5,0,0,.1.3.3.3v2.9h-.1c.1.4.1.6.1,1.5h.1c0,.6.1,1.9.3,2.7-.4,0,0,.8-.3,1,.1,0,0,.6.3.6,0,.5-.1-.3-.3,0,0,.4.4.9.3,1.3h-.1c0,.3.1.4.1.8h-.1s.1.5.1.6c0,.3-.3.6-.3,1s.3.5.3.9-.3,1,0,1.5c0,.3-.1.4-.1.6.1,1,.1,2,.4,3.2.1,0,.6.6.5,0,0,.6.1,1.9.5,1.1,0-.3,0-.5,0-.4,0-.8.1-1.8-.1-2.5.1-2.4-.1-4.7.1-7,.6,0,.4-1.8.3-2.3.1-1.9,0-3.7,0-5.7h.1c0-.3,0-.4-.1-.3v-.8c-.6-3.7-1.9-6.8-3.6-9.3,0,.9,0,1.8-.1,2.7,0,.4.3,1.1-.1,1.3,0,.4,0,.9.1,1,0,.3-.3.3-.1.6v.3c0,.3.3,0,.3,0,0,.3-.5.4,0,.4-.4,1.3-.3,2.8-.3,4.7-.4.4-.3,1.4-.1,1.9h0s.5-.4.5-.4Z"/>
    <path class="st0" d="M118.5,94.3h.1c0-.4,0-.5-.3-.6v.8h.1Z"/>
    <path class="st0" d="M118.5,78.7c0,.3,0,.9.1.9-.1-.4,0-.8-.1-.9Z"/>
    <path class="st0" d="M123.4,61.7v.8h-.3c0,.3-.1.5,0,.6,0-.3.1-.6.3-.4,0,1.1-.1,3.1,0,4.2h.1c0-2.2.4-3.7-.3-5.1h.1Z"/>
    <path class="st0" d="M121.4,42.7v-.6.6Z"/>
    <path class="st0" d="M119.8,114c-.1,0-.1-.3-.3,0h.1c-.1,0,0,.4,0,.4v-.6h0v.3h.1Z"/>
    <path class="st0" d="M119.9,66h-.3c0,.3,0,.5.1.6,0-.4.1-.4,0-.8h.1Z"/>
    <path class="st0" d="M119.7,113.5c0-.1,0,0,.1,0,0-.3,0-.4-.1-.5v.5Z"/>
    <path class="st0" d="M120.3,127.8c0-.5,0-.8-.1-1,.1.3-.1,1,.1,1Z"/>
    <path class="st0" d="M120.3,126.6c0-.5-.1-1,0-1.4-.4.3,0,1.1,0,1.4Z"/>
    <path class="st0" d="M120.4,119.6c.1,1.3,0,2.4.3,3.2.3-1.1,0-2.2,0-3.4-.3.1-.4-.3-.5,0,0,.4,0,.9.1,1,.1-.3-.1-.6,0-.8h.1Z"/>
    <path class="st0" d="M120.4,72.2c.1-.3.3-.3.3-.9-.1,0-.3,0-.3-.3h.3c0-.4-.1-.8,0-1.3-.3,0,0,.5-.1.5v-1.5c0-.3-.1.3-.3,0,.3-.3,0-.6.3-.8,0-.8,0-1.5-.1-2.3h.3c-.1,0,0-.6-.1-.5v.5c0-1.3-.3-1.8-.6-.9.2,0,.3,0,.4.3-.1,0-.3.6,0,.6v-.4c0,1.3,0,2.4-.1,3.7.4.8-.1,2.7.4,3.2h-.1Z"/>
    <path class="st0" d="M121.6,63.6c0,.3,0,.4.1.4,0-.3,0-.5-.1-.4Z"/>
    <path class="st0" d="M118.3,105.7c0-.4-.3-.5-.3-.3v.9c.4,0,0-.9.3-.5h0Z"/>
    <path class="st0" d="M117.9,96.6c.1-.6,0-1.4,0-2h-.3c.1.4,0,.6,0,1.1.3,0,0,.6.3.9h0Z"/>
    <path class="st0" d="M117,92.2c0-.3.3-.9,0-1,0,.3,0,.5,0,.3v.6h0Z"/>
    <path class="st0" d="M118.6,142.4c0,.4.1.8.1,1,0-.1,0,0,.1-.3,0,0-.1-.4-.1-.6h-.1Z"/>
    <path class="st0" d="M117.7,94.4v-2c-.5,0-.3-.9-.5-1.1-.3.8,0,1.1.3,1.5-.3.4-.3,1.3,0,1.7h.3Z"/>
    <path class="st0" d="M121.9,148c0-.3-.3-.3-.3-.5.3,0,.3-.1.5-.5-.1-.3,0-1.1-.1-1.5-.1.1,0,1-.3.9.3-.5,0-.8-.1-1,.4.1.3-1.7-.1-1.8,0-.4.4-.6,0-.8.3-.1.3-.8.3-1.1v.3c-.4-.3.3-1.1-.1-1.5h.1c0-.1,0,0-.1-.3,0-.3,0-.1.3,0-.1-.3-.3-.6-.5-1,0,0,.3,0,.3-.5-.3.5-.4-.5,0-.5,0-.1-.1-.5-.3-.3,0-.1.4-.8,0-1,.3-.6,0-1.9-.3-2v-.6c0-.3-.3,0-.1-.4-.1.6,0,1.4,0,2.3.3,0,0-.6.3-.6,0,.6.3.4.1,1v-.3c-.4.3-.5,1-.5,1.8-.1-.4,0-1.1,0-1.4-.3-.5,0-1.9-.6-1.8.3-.6-.1-1-.3-1.5.3-.5.3.5.4.6.3-.1-.3-.6,0-1,0-.4-.1.4-.3,0,0-1,.3-2.3,0-3.2v.4c0-.2,0-.3-.3-.3-.3,0,0-.5,0-.3,0-.3.3-.8,0-1.1h.1v-.4.3c0-1.7-.1-3.8.1-5.4,0-.3-.1,0-.1.3-.1,0,0-.8,0-.8-.3-.9,0-1.3-.3-2.3.4,0,0-1.4.3-1.3,0-.5-.3,0-.3-.3v-1.8h-.3c0-.4,0,0,.1-.3-.3-.3.1-.8-.1-1,0-.2,0-.2.1,0,0-.1-.1-.8-.3-.4-.1,0,0-.5-.1-.3,0-.1,0,0,.1,0-.1-.8,0-1.8-.1-2.5h.1c-.1,0-.3-.6-.4-.3,0-.1-.1-.5,0-.6h-.4c0,.5,0,1.4.4,1.1,0,.3-.3,0-.1.4.1.5.4.9.4,1.9-.1,0,0-.6-.1-.5,0,.3,0,1.1.3,1.4,0,0-.1,0-.3.4.3.5-.1,1.3.3,1.7,0,.3-.1.3,0,.5,0,.3.1,0,0-.3.3.6-.4,1.5,0,2,0,.3-.1,0-.3,0,.1.5,0,.6.1,1.1.1-.5,0-.6.1-1.1.3.5-.1,1.3,0,1.7,0,0-.1-.1-.1-.3,0,.6.1.4-.3.9,0,.3,0,.4.1.5.1,0,0-.5,0-.6,0,.1.1.3.3.4-.3.3-.3.6-.4,1.1,0,.1.1,0,.3,0,0,.2,0,.3-.1.3.3,1.4.1,3.2.3,5,0,1.1.3,2.3.1,3.1,0,.6.3,1.9,0,2.2v5.2s0-.1-.1-.3c-.1,0,0,.4,0,.5.3.1,0-.4.3-.3.1.8,0,2.4,0,3.3,0,0,0-.4-.1-.3,0,.5.4.4.1.9,0,0-.1-.1-.1-.4-.3.4.1,1.1,0,1.3h.1c0,.6-.3,2.4.1,2.5,0,.3-.1.1,0,.4,0,.1,0,.3.3.3h.1-.1c-.1.1-.1,1.1,0,1.9h2.4c0-.1,0-.4-.1-.5v.3h0l-.4-1.1h0Z"/>
    <path class="st0" d="M119.4,132.4v.8c.3.1.3-.8,0-.8Z"/>
    <path class="st0" d="M119.5,148.3h.1c0-.4,0-.8-.3-.9v.9h.1Z"/>
    <path class="st0" d="M117.9,104.6c.3,0,.1-.5.3-.6h-.4c0,.5.1,1.1.1,1.8,0-.4.3-.9,0-1h0Z"/>
    <path class="st0" d="M118.5,81.7c-.1,0-.1.3-.1.4h.1v-.4h0Z"/>
    <path class="st0" d="M117.1,88.2c0,.3-.1,0-.3,0v.3-.4.6s.4-.4.3-.5h0Z"/>
    <path class="st0" d="M118.4,107.8c0-.3,0-.4-.1-.5,0,0,0,.5.1.5Z"/>
    <path class="st0" d="M117.6,91.1v.5h.1s0-.5-.1-.5Z"/>
    <path class="st0" d="M117.5,81.7h.1v-.4c0,.4-.4,0,0,.4h-.1Z"/>
    <path class="st0" d="M117.4,86.5v-.3q-.1,0-.1.3h-.1.1v-.3h.1v.3Z"/>
    <path class="st0" d="M117.5,86c-.1-.3-.1,0-.4,0,0,.4.3.3.4,0Z"/>
    <path class="st0" d="M121.2,70.2c0-.4.3-.6,0-.9v.9Z"/>
    <path class="st0" d="M119,110.2c.1.3,0,.6.1.8,0-.3,0-.9-.1-.8Z"/>
    <path class="st0" d="M119.1,84.1c0-1.1,0-3.2-.4-3.6.1.8,0,2.7.4,3.6Z"/>
    <path class="st0" d="M118.9,108.7v.9-.9Z"/>
    <path class="st0" d="M118.6,93.2c0-.3.1-.6.1-1h-.3c0,.4-.1.8,0,.9h.1Z"/>
    <path class="st0" d="M119.7,54.4s.3-.5,0-.5c0,0-.1.5,0,.5Z"/>
    <path class="st0" d="M119.1,64.3c.4-.4.1-1.9.3-2.7.3.3-.1,1.4,0,1.9,0-.6.1,0,.4,0,.1-.3.3-1,0-1.4,0,.3,0,.6,0,.5,0-.4,0-.8-.1-1.3.1,0,.1.3.3,0-.1,0,0-.4,0-.6,0,0-.3.3-.3,0,.1-.3.3-.5.3-.9-.4-1.5-.3-3.4-.4-4.5h-.1c0-.3,0-.9-.1-.9v.9c-.1,1.9,0,3.9.1,5.6h0v.5-.5h-.1c0,1.3-.3,2.2,0,3.3,0,0-.1,0-.1,0Z"/>
    <path class="st0" d="M121.1,38.1s0-.6-.1-.5c0,.3,0,.9.1.5Z"/>
    <path class="st0" d="M118.5,82.9h.1c0-.3,0-.6-.1-.6v.6h0Z"/>
    <path class="st0" d="M118.8,145l.3.3c-.1-.5-.3-.9-.5-1.3.1,0,.3-1.1-.1-1.3.3-.3.4-1.8,0-2,.4-.3,0-1.1.3-1.7,0-.3,0,.1-.1,0,0-.4.1-.6,0-.9.3-.1,0-.8.3-.8,0,0-.1-.3,0-.3-.3-.3,0-.6-.1-.8.4-.5,0-1.5,0-1.9s-.3-.3-.3-.6c.3-.8,0-1,0-2s0,.4.1.3c-.1-2.4,0-5.2-.8-7.5-.3,0,0,.5-.3.4,0-.3,0-.7-.1-1,.1,0,0,.3.1.3v-.4c0-.3,0,.1-.1,0v-.5c0-.4,0,0,.1,0,0-.3-.1-.3-.3-.3,0-.2,0-.3.1-.3-.3-1.3-.3-3.1-.3-4.5s0-.5,0-.4c-.1-.6-.1-1.9.3-2-.4-.1,0-.8-.1-1.3.4.1.4-1.1,0-1.5-.3.3-.3.9,0,1.4-.4-.6,0-2.2-.5-2.5,0-1,.3-1.7,0-2.7h.4c0-.5-.1,0-.4-.3.1-1-.4-2.3-.1-3.7,0-.4-.1,0-.3-.3v-2.2c.1,0,.3-.3.1-.8v.3c.1,0,0-.3.1-.4,0,0-.1,0-.1-.4,0,0,0,.4.3.3,0,.5,0,.9.3.9-.5.5.3,1,0,1.9.5,0-.1-1,.1-1.1,0-.4-.3-.5-.1-.9,0,0,0,.4.1.4s0-.8,0-1v.3s0-.9,0-.6c0-.3,0-.4-.1-.5,0-.3,0-.4.1-.3,0-.3-.1-.3-.1,0-.1-.3,0-.5,0-1-.4.6.1-.6,0-.9h-.1c0-.3.3,0,.1-.4-.3-.4,0-1.7-.4-2.5h.1v-.6s-.1,0-.1.4v-.6s0,.3.3.3v-1c0-.3,0,0-.3,0,.1-.4.4-.9-.1-1,.1-.5-.5-.9-.5-2.2.1.3,0,0,.1,0,0,0-.1-.3-.3-.4,0-.4.1-.3,0-.8h.3c-.3-.3-.1-.4-.3-.9.1,0,.4,0,0-.5.1,0,0-.6.3-.6,0-.3-.3,0-.1-.4h.4v-.6c-.1,0-.1.4-.4.3,0-.6,0-2,.4-1.9h-.3c0-.4.3-.4.4-.4,0,.4.1.3.1.8.3-.6,0-1,0-1.7-.3,0-.4.3-.3.8,0,0,0-.5-.1-.8h.3c0-.4-.1-.4-.1-.8h.3c-.8-1.3,0-2.4-.5-3.7.1.4.3.3.4.6v-.3c.5,0,.3-1.1.1-1.8.3,0,.3.6.3,1,.1-.3.1-.9-.1-.8v-.9c0-.3,0,.5.1.5.3-.3,0-1.4,0-1.5,0-.3,0-.5,0-.4,0-.5.1-.9.1-1.1,0,0-.3-.3-.1-.5,0-.8.1-2.4-.3-3.6,0,0,.1,0,.1-.3.3,0-.1.3,0,.5.3,0,.3-.9.3-1.3,0,0,0,.3-.1.3,0-.5.5-1.4,0-1.7,0-.2,0-.3.1-.3v-.8.3c-.4-.4-.1-.8-.3-1.4.3,0,.1-.4.3-.5-.3-1.4-.3-3.8-.1-5.6-.4-.8,0-1.7-.3-2.4,0-.3,0-.5.3-.5,0-.3-.1-.3,0-.6,0-.3,0,0-.3,0,0-.9-.4-1.1-.5-1.9.4,0,.1.6.5,1,0-.4.3-1,0-1.4h.1c-.3-.4-.1-.9,0-1.5h-.1c.1-1.5-.1-3.1,0-5h-.3v-1.1c-.3.5,0-.6,0-.8,0-.3-.3,0-.3-.3,0-.4.3,0,.4-.4-.3-.3-.1-.6-.3-1.3,0-.3,0,.4.1.5.3,0,.1-.6.1-1s-.3,0-.3,0c0-.4.4-.4.3-1,0-.3-.1,0-.3,0,.3-.4.1-1.4.3-1.9v.3c.1,0,0-.4,0-.5v.3c-.1-.3-.1-.8-.1-1.1.1-.3.3.4.4,0,0,0-.4,0-.1-.5.1,0,.1.5.4.3v-.3c0-.5-.3,0-.3-.3.4,0,.3-.5.4-.9.1,0,0,.5,0,.6.1,0,.1-.4.1-.6,0-.4,0,.6.1.6,0-.6,0-2.2-.4-2.5,0-.3.1-.6,0-.6.4-.8,0-1.8,0-2.3,0,0,0,.4.1.5,0,0,.1-.3.3-.3,0-1.3.3-2.8,0-4.1-4.2-6.1-11.5-9.2-21.8-9.2-17.6,0-26.4,8.9-26.4,26.6v31.1h18.3v-31.1c0-5.7,2.7-8.5,7.9-8.7h.1c5.2,0,7.9,2.8,7.9,8.7v45.7c-22.5,2.2-33.8,14-33.8,35.4s1.5,12,4.6,16.4,7.5,6.8,13.5,6.8,12.7-3.3,16.4-9.9l1.3,7.8h11.3c0-1.1-.1-2-.1-3.2h0l2-.5h0ZM105.6,115.8c0,11.1-3.9,16.9-11.8,17.6-2.4,0-3.7-2.8-3.7-8.3,0-8.2,5.2-13.5,15.5-16.1v6.8h0Z"/>
    <path class="st0" d="M117,102.5c0-.3,0-.5-.1-.5,0,0,0,.3-.1.3v.8c.3,0,0-.4,0-.5h.3Z"/>
    <path class="st0" d="M116.7,104.3c0-.4.1-.5,0-.8,0,.4-.1.5,0,.8Z"/>
    <path class="st0" d="M117.5,109.8c.1-.3,0-.4,0-.8-.3,0-.3.9,0,.8Z"/>
    <path class="st0" d="M123.6,41.3c0,1.8-.4,3.3,0,5.1h.4v-.3c0-1.7,0-3.2-.3-4.7h-.1Z"/>
    <path class="st0" d="M118.9,110.4c0-.6,0-.8-.3-1.1,0,.4-.1.9,0,1,0-.6.1,0,.3,0h0Z"/>
    <path class="st0" d="M117.6,109.9c-.4,0-.4.4-.5.8.3,0,.3-.5.5-.8Z"/>
    <path class="st0" d="M120.8,132v1.4c0-.4.1-1.3,0-1.4Z"/>
    <path class="st0" d="M120.4,117.2v-.4h-.3c0,.3,0,.5.3.5h0Z"/>
    <path class="st0" d="M120.8,58.3c-.3-.4-.4,1.4-.3,2.2.3-.9,0-1.7.3-2.2Z"/>
    <path class="st0" d="M120.8,60.9s0-.4-.1-.3c0,0-.3.4,0,.4,0-.4.3.3.3,0h-.1Z"/>
    <path class="st0" d="M120.7,130.4v.5-.5c0,.4,0,.6.1.9,0-.4.1-.5,0-.9h-.1Z"/>
    <path class="st0" d="M120.7,57.6c-.1-1.1.3-2.3-.3-3.1.1,1.3,0,2.8.1,3.6,0-.3,0-.5,0-.4h.1Z"/>
    <path class="st0" d="M120,50.3h.1v-.4c-.1,0-.3.5,0,.5h-.1Z"/>
    <path class="st0" d="M120.3,42.2c0-.4.3-.8,0-.8v.8Z"/>
    <path class="st0" d="M120,61.9c.1,0,.1.4.3.4.1-.5-.3-.9,0-1.4-.3,0,0,.8-.3,1Z"/>
    <path class="st0" d="M119.9,53.2c0,.4,0,.6.3.5,0-.5.1-.8.4-.9v.5c0-.3.1-.3.1-.4-.1-.5-.3-.9-.3-1.7-.4.3-.3,1.1-.4,2-.1,0,0-.3-.3-.3h.1Z"/>
    <path class="st0" d="M120.4,64.3c0-.6.1-1.3-.1-1.7,0,.6-.3.9-.3,1.5h.4,0Z"/>
    <path class="st0" d="M120.7,133c0-.1,0-.5-.1-.6-.1.3,0,.6.1.6Z"/>
    <path class="st0" d="M120.3,118c0-.5,0-.6-.1-.8,0,.3,0,.9.1.8Z"/>
    <path class="st0" d="M120.8,134.5c0-.3,0-.8-.1-.8v.4c.1,0,.1.3.3.3h-.1Z"/>
    <path class="st0" d="M120.5,126.4v1c0-.3,0-.5.1-.6-.3.1,0-.4-.1-.3h0Z"/>
    <path class="st0" d="M120.7,125.5c0,.1,0,.5.1.5,0-.3,0-.4-.1-.5Z"/>
    <path class="st0" d="M120.7,125.3v-.4c-.4,0,0-.9-.3-1v1.7c0-.5.1-.3.1,0v-.3h.1Z"/>
  </g>
  <g>
    <path class="st0" d="M562.2,138.3c-.8.1-2.3-.3-2.4.3,1.4-.1,2.3.9,2.4-.3Z"/>
    <path class="st0" d="M558.5,142.4c.5.3,2,.4,2-.3-.6,0-2-.3-2,.3Z"/>
    <path class="st0" d="M553,148.3h5.6c3.6-.1,7.1-.4,11-.4.3.1.3.3.1.4h.8c.1,0,.1-.3.1-.4.1,0,.5.1.8.3v-6c-1.8,0-3.7,0-5.9.1,0-.1.4-.3.4-.4-1.4.4-2.3.5-4.8.5,0,.3,0,.5.4.6-2,0-5.9.4-8.3.8v4.6h-.1Z"/>
    <path class="st0" d="M553,135.7v2.2c4.1-.6,9.2.6,12.4,0v.6c1.1-.8,1.9-.5,3.4-.3-1.7.3-.6.8-2.8.6,1.8.3,3.7,0,5.2.5v-4.1h-3.9c-1.1-1.1-4.7-.6-6.2-.5,0,.5,2.3-.3,1.8.6-1.1,0-1.9,0-2.8.3,1-1.4-3.8-.8-5-.8,0,.5,1.4.4,2.4.4-1.4.6-2.9.6-4.6.5h.1Z"/>
    <path class="st0" d="M590.9,135.3c-1.4,0-3.1-.1-3.4.4h0v12.5h18.3v-11.8c-3.6-.1-7.3-.4-10.4-.5-1.4,0-3.9.9-4.2-.5h-.3,0Z"/>
    <path class="st0" d="M555.7,129.9c.9.3-1.4.3-1.8.4-.3.9,1.9.5,3.2.6.8,0,.1-.8.3-1,1.4,0,1.1,1.1,3.2.8,1-.3-.5-.5.4-.8,1.1.9,4.3.4,6.4,1,0,.3-.6.1-1,.3.3.6,1.1-.1,1.8,0-.1-.1-.3-.4-.8-.4.8,0,2.4,0,3.8.4h.1v-16.4h15.9v19.4c1.9,0,3.9-.5,5-.1-.4.3-1.3.3-1.8.6.1.4.8.5.8,1,4.6-.3,9.8.9,14,0h.4V21.4h-18.3v75.2h-15.9V21.4h-18.3v108.8c.8,0,1.7,0,2.7-.3h.1Z"/>
    <path class="st0" d="M571.2,132.2v-.8c-.3.3-.8.5,0,.8Z"/>
  </g>
  <g>
    <path class="st0" d="M506.7,136.8c-.1.1-.9,1.5-.4,1.7.4-.5,1-1.3.4-1.7Z"/>
    <path class="st0" d="M543.5,77.1v-31.1c0-17.7-8.8-26.6-26.4-26.6s-26.2,8.9-26.2,26.6v16.7c.8-4.7,1.5-9.7,3.3-12.9,0-1.3.5-2.3,1.4-2.2.4,1.4-.4,4.2.3,5.4.6,0,1.3-.3,1.5-1.4-.5-1,1-2.7-.5-2.5-.5-.6,1.1-.3,1,.3.6-3.3,2.5-4.7,3.1-6.9.4,2.2-1.8,4.2-2.4,8.4-.1.8.8.3,1.1.6.9,0,.9-2.5,1.5-3.3.8.5-.9,2.4,0,3.6-.9,1.5-2.8,6.8-1,6.9-4.7,17.1-5.2,34.8-9.3,50.4v2.8-.3c.3-1.7,1.4-4.2,1.7-6.1.4-2.9,2-8.3,2.9-13,1.5-.9,1.1-3.6,1.8-5.4.6.8-.6,4.7-1.1,5.9.4,1.1.5,2.3.5,4.3h-.6c.1.4,0,1.3-.3,2,.4,0,.5-.4.9,0-1.1.8-.9,3.4-.8,4.8-.4,1-.4-.5-.8-.5-.3,1.3,0,1.4-.5,2.4-.1.9.6.3.6-.3,0,1.1-.8,1.8-.6,3.4.6.5.5-1.8.9-.5.8-2.4,1.7-4.2,2.4-6.2.4.5-1.5,4.7-.9,5.5,1.3-2,1.8-5.2,2.2-7.8.4.5.4,1.7,0,3.2.1,0,.3-.4.4-.6.3,0,0,.6,0,1,.8-3.1,1.5-3.9,2.5-7.4,1.4.9,1-3.6,2-3.6-2,6.1-.8,9.2-2.9,14.4,0,.4.1.9.3.4.4,1.3-1.3,4.5-.8,6-1.9,1.5-1.4,5.2-2,7.8-1.8,3.4-3.3,11.7-5,17.1,2,3.9,5.1,6.9,9,8.8,0-1.1,0-2.4.5-3.4,0,.3.3.4.5.5,1.1-3.9,0-6.1,2.2-9.2.4.8-.9,1.1-.8,2.7,1.3-.6,1.9-3.1,2.4-4.8.6.4,0,2.3.9,2.3-1.5,2.3-1.5,4.1-2.2,7.4-.4,0,.1-1.1-.4-1.1-.1,2.8-.6,3.7-.5,6-.1.3-.3.5-.4.8,3.3,1.1,7.4,1.8,11.8,1.8,17.6,0,26.4-8.9,26.4-26.8v-20.6h-18.3v20.6c0,5.7-2.7,8.7-8,8.7s-7.9-2.8-7.9-8.7V45.7c0-5.7,2.7-8.7,7.9-8.7h.1c5.4,0,7.9,2.9,7.9,8.7v31.1h18.3l.3.4h0Z"/>
    <path class="st0" d="M500.8,109.9c-.1.5-1,2-.4,2.8.4-.5,1-2.7.4-2.8Z"/>
  </g>
  <g>
    <path class="st0" d="M332.4,145.1c-.3-.1-.6-.8-.8-.6,0,.3.6.8.8.6Z"/>
    <path class="st0" d="M334.3,144.3c-.3-.1-.8-.9-.9-.8.5.4.5,1.1.9.8Z"/>
    <path class="st0" d="M323.1,136.8c-.4-.4-.9-.3-1.3-.5-.8-.5-.9-1.5-1.7-1.7-.4-.4-.3-.6-.5-.9-1.3-.9-2.4-1.9-3.8-2.9,0,.8.3,1.7.4,2.4.1,0,.3.1.5.3,2.7,2.8,5.6,5,7.8,7.8-.8.6,1.5,2.4,2.4,2.8,2,2.2,4.3,3.9,6.8,6.1,0,.3,0,.1-.1.3.3.3.5.3.5.1,0,0,0,.1.1.3,1.5.3,3.2.5,4.8.5-.4-.1,0-.4-.1-.8-.4,0-.5,0-.6-.5h-.6c-.8-.9-2-1.9-3.4-3.2h.3c-.6-.3-.9-.6-1.9-1.4,0,0-.3.1,0,.4-.8-.8-2.4-1.9-3.3-2.5.5-.3-.9-.8-.9-1.5-.4,0-.8-.5-1-.4-.5-.5.4,0,.3-.5-.5-.4-1.4-.5-1.8-1.1,0,0,.1-.3,0-.4-.4-.3-.6-.3-1-.6h.3c-.1-.1-.6-.4-.9-.5-.4-.3-.5-1-.9-1.3h-.1Z"/>
    <path class="st0" d="M338.2,149.3c.1.4,1.3,1.9,1.9,1.8,0,0,0,.1.1.3h.4c-.6-.8-1.1-1.4-2-1.5-.1-.1,0-.3,0-.4h-.4Z"/>
    <path class="st0" d="M318.5,139.9c0,.3.3.4.4.6h0v-.3c-.1-.1-.3-.3-.4-.4h0Z"/>
    <path class="st0" d="M324.1,134.8c.3.3.4.4.5.4.4,0-.3-.8-.5-.8.1.1,0,.3,0,.4h0Z"/>
    <path class="st0" d="M346.7,23.4c-.4,0-.9-.6-1.1-.3,0,.3.4.5.5.8.3-.4.8.3,1.1.5.8-.3.9-.3,1.3-.9-.3-.4,0-.6-.6-1-.9,0-.5.5-1.1,1h0Z"/>
    <path class="st0" d="M348.7,25.3c0-.3.4,0,.4-.3-.3-.3-.3-.4-.4-.5-.3.3,0,.5,0,.8h0Z"/>
    <path class="st0" d="M325.4,133.9c-1.7-2-2.4-2.5-4.6-4.2,0,.1,0,.3-.1.4.5,0,.4.5.6.9.1,0,.3,0,.4.3,0-.4-.5-.8-.4-1,.4.4.3.6.9,1-.1.4-.5.3.1.8-.4-.3-.5,0-.9-.5-.5.5,2.7,2.8,1.4,1.5.5,0,1.4,1.5,1.4.9,1,.6.8,1.3,1.5,1.8.5.5,1,.4,1.7.8,0,0,0,.1-.1.1.4.3,1.4.5,1,1.1-.1-.4-.9-.9-1-.6.9.3,2.4,2.5,3.9,3.4.1.1,0,.3,0,.4,1.7,1.1,3.1,3.3,4.5,4.1,0,0-.1.1-.1.3.6,0,.9.5,1.3,1.1-.6-.5-.5,0-1.1-.8.6.8,1.5,1.3,1.8,2.2,0,0,.3-.1,0-.4.3,0,.8.9.9,1.3.3,0,1,.6.8.1.8.8,1.7,1.5,2.5,2.4h2.2c0-.1,0-.3-.4-.4,0,0-.3,0-.3-.1-.3-.3,0,.5-.4.3-.3-.3,0-.9-.4-.6-1.1-1.8-2.9-3.3-5.2-5.4,0-.8-1.4-1.8-2-2.3-.3.1.9.6.4.8-.4-.4-.8-.6-1-.9.9-.1-1.1-1.5-1.5-1.9-.1.3.4.6.8,1-1.8-.6-2.7-2.9-4.5-4.1.1-.1-.3-.4-.1-.5-1.5-.8-2.3-2.3-3.6-3.1h-.3Z"/>
    <path class="st0" d="M338.1,149.2c-.3-.4-1-.8-.8-.4,0,0,.6.8.8.4Z"/>
    <path class="st0" d="M320,129.6c0,.3.3.8.6.5,0,0-.4-.8-.6-.5Z"/>
    <path class="st0" d="M319.3,128.1c-1.1-1.4-2.5-2.8-3.8-3.9v1.3c1.4,1.1,2.7,2.4,3.7,3.2-.1-.1,0-.3,0-.4.4.4.9,1,1.1.8-.1-.3-.4-.5-.6-.9-.1-.1-.3,0-.4,0h0Z"/>
    <path class="st0" d="M338.9,21c.4,0,.9.3,1,.4,0-.6-.4-.8-.9-.9h-1.7c1,.8,2.2,1.4,3.1,1.8,0-.8-1-.9-1.5-1.3h0Z"/>
    <path class="st0" d="M339.9,20.6v-.3h-.4c.1,0,.4.3.5.3h-.1Z"/>
    <path class="st0" d="M366.8,37.3h0c-1.9-7.4-6.2-12.5-13-14.9,0,.3,0,.4.3.6-.5,2.7-.4,4.2-1.4,6.4,0,0,.4.4.4.6-.3,0-.5.4-.9,0,0,0,.4.4.3.5-.9,0-1.1.4-1.5,1.1,0,0-.4,0-.5-.4,0,1.1-1.4.4-1.5,1.5-2.8-2.7-5.4-1.8-8-4.5.3-.4,0-1-.3-1.5,1.8.6,3.8,1.8,5.6,2.3.3,0,0-.4,0-.8-.3-.3-.3.4-.6,0,.9-.8-1.9-2-2.8-2.9s0-.5-.4-.9c-.9-.4-2.2-1.4-2.5-2-.9-.5-1.9-1.1-2.8-1.9-14.5,1.4-21.8,10.2-21.8,26.4v74.5c.1.1.3.4.5.5,1.3.4,1.8,1.8,3.1,2.4.1.4.5.8.3.9.4,0,.5.1.8.6.4.3,0-.3.3-.3.9,1,1.8.8,2.7,1.5-.5.4-1-.5-1.5-.5.4.5.9,1.3,1.5,1.7h-.3c.8.1,1.3.8,1.8,1.5.3.1,0-.1.1-.3,1.7,1.9,3.7,3.2,5.6,5.5.1.1.3,0,.4-.1.8.8.9.8,1.3,1.4-.4-.9.6.6.8,1,.3.3.3-.1.5,0,.4.5-.4.3,0,.8.6,0,.9.6,1.8,1.1.3.4-.6-.4-.8-.4-.4.3.5.8.9,1.3.3.3.3-.3.5-.3.5.5,0,.8.9,1.3.4.3,0-.4.4-.1,0,.8,1.4,1.5,1.9,2.4,0,0-.3-.1-.4-.3,0,.3.4.4.6.5v-.4c.3.3.8.8,1.3,1.4.1.5-.6,0-.4.4.1,0,.4-.4.8.4-.3,0-.6-.3-.8.1.1.1.3.3.1.3.5.5.1-.5.6,0-.6.3.3.9.6,1.4-.1.1-.5-.5-.8-.6-.3.3.1.5.5.9.3.5-.8-.6-.9-.5.6.8,2.4,2.5,3.3,2.4.3.3.5.8.8.6,0,.4.4.8.8,1.1,15.5-1,23.3-9.9,23.3-26.6v-20.6h-18.3v20.6c0,5.7-2.7,8.7-8,8.7s-7.9-2.8-7.9-8.7V47.1c0-5.7,2.7-8.7,7.9-8.7h.1c5.4,0,7.9,2.9,7.9,8.7v31.1h18.3v-31.1c0-3.3-.3-6.4-.9-9,0-.3-.3-.5-.3-.6h-.1Z"/>
    <path class="st0" d="M339.1,151.2h.5c-.3-.3-.5-.4-.5,0Z"/>
    <path class="st0" d="M320.2,130.8c.5.5.8,1,.6,1.4-.3-.4-.4-.5-.6-.5.3.3.3.5.3.6.8.5,1.3.6,2,1.5,0-.9-1.1-1.5-1.9-2.7.1-.1.4.3.5,0-.4-.4-.8-.6-.9-.3h0Z"/>
    <path class="st0" d="M320.3,130.3c-1.1-.4-2.4-2.3-3.8-3.1,0,.4,2.2,2.7,1.8,1.7.8.8.9.8,1.5,1.5.1,0,.5.1.5-.1h0Z"/>
    <path class="st0" d="M332.1,149.6c-2.9-1.9-4.2-4.7-7.1-6.8-.4.8-.4,1.4-1.3,1.1v.3c.5.3,1.1.6,1.1,1.3-.6-.9-1.3-1-2-1.5-.1.3-.6,0-1.1-.1,0,.3.3.8.4,1h0c1.9,1.9,4.2,3.3,6.9,4.5-.3-.3-.5-.5-.6-.6.4.1.6.5,1,.9,1.1.4,2.3.8,3.4,1-.3-.3-.5-.6-.6-.9h0Z"/>
    <path class="st0" d="M315.4,127.4c1.4,1.1,2.4,2.7,3.7,2.9-1.4-1-2.7-2.4-3.7-3.3v.4h0Z"/>
  </g>
  <g>
    <path class="st0" d="M821.4,113.9h0Z"/>
    <path class="st0" d="M821.2,81.3c0,.3.1.5.3.8v-1s-.3,0-.3.3Z"/>
    <path class="st0" d="M821.4,82.5h0Z"/>
    <path class="st0" d="M819.6,72c.1-.3,0-1.3-.3-1.1,0,.4,0,1.1.3,1.1Z"/>
    <path class="st0" d="M821.4,111.2v-2c0-.3-.1-.4-.3-.5,0,.4.3,1.1,0,1,0-.6-.3-1.4-.5-2.3.3,0,.4.4.4-.3-.4-.3,0-.8,0-1.1-.3,0-.4.6-.6,0,.3-.4.4-1,.4-1.7-1-2.8-1.1-6.4-1.7-8.3,0,.3-.1.3-.3.3,0-.6,0-1.5-.4-1.5v1.3c0,.3.3,0,.3.4,0,3.6.6,7.5,1.3,10.6h0c0,.4,0,.6.1,1,0-.3-.1-.6-.3-1h-.4c.5,2.3,0,4.1.8,6.1.6-.9-.1-3.6,0-5.1.5.4,0,2.8.6,3.6,0-1,.3-.3.6-.3h-.1,0Z"/>
    <path class="st0" d="M818.9,94.4c0-.3.3-.9-.1-1,0,0-.1,1,.1,1Z"/>
    <path class="st0" d="M819.1,92.1c0,.6.1,1.1.6.9,0-.9,0-1.4.5-1.7,0,.5,0,.8.3,1,0-.4.1-.5.3-.9-.4-1-.8-1.5-.8-2.9-.8.6-.1,2.3-.3,3.9-.3,0-.3-.5-.5-.4h-.1Z"/>
    <path class="st0" d="M821,145.5c0-.3.1-.3.3-.3,0-.3,0-.8-.3-.8.1.6-.8.3-.1.8v.3h.1Z"/>
    <path class="st0" d="M817.1,70.2c.1.4,0,1.3.3,1.4-.1-.8.4-1.4-.3-1.4Z"/>
    <path class="st0" d="M818.9,86.7c0-.3.1-.3.3-.3,0-.4,0-.6-.3-.8-.4-.3-.4.9,0,1Z"/>
    <path class="st0" d="M817.9,63.8c-.1,0,0-1.3-.5-.9,0,.5.4,1.5.5.9Z"/>
    <path class="st0" d="M821.4,100.9c0-.4-.3-.9,0-.9h0c-.4-2.2-.1-4.5-1.1-5.7.5,2.3.6,5.2,1.1,6.5h0Z"/>
    <path class="st0" d="M820.7,147.4c.3,0,.3.3.5.1-1.8-2-.4-4.5-1.7-6.9.4.6.5.3,1,1,.1,0,0-.4,0-.4,1,0,.3-2.3,0-3.4.4.3.5,1.1.8,1.7.3-.4.1-1.5-.4-1.4,0-.6,0-.9-.3-1.5,0-.6.1,1,.5.9.4-.5,0-2.7-.1-2.8,0-.5-.1-1,0-.8-.4-1,0-1.7,0-2.3s-.5-.4-.5-.9c0-1.4-.3-4.5-1.1-6.5,0-.1.3-.1.3-.5.4.3-.1.5,0,1,.6-.3.3-1.7.1-2.4,0,.1,0,.5-.3.5,0-1,.5-2.7-.3-3.2,0-.3,0-.4.3-.5.2,0,0-.6-.3-1.4-.3,0-.1.1-.1.4-.6-.8,0-1.5-.5-2.5.5,0,.1-.9.5-1.1-.8-2.4-1.5-7.1-1.5-10.3-.9-1.4-.3-2.9-.9-4.6,0-.4,0-1,.5-1-.3-.4-.4-.5-.3-1.1,0-.5-.1.3-.5,0,0-1.7-1-2-1.3-3.4.8,0,.5,1.1,1,1.7,0-.8.3-1.8,0-2.7h.4c-.5-.6-.5-1.7-.5-2.8s-.1,0-.4,0c0-2.9-.9-5.7-1-9.2,0-.3-.3,0-.5,0-.1-1.1-.1-1.4-.1-2.2-.4,1-.1-1.1,0-1.4,0-.4-.4,0-.5-.4,0-.8.6,0,.6-.8-.5-.4-.4-1.3-.8-2.3,0-.5.3.8.4,1,.5,0,.1-1.1,0-1.8,0-.4-.4,0-.6,0,0-.8.5-.8.3-1.9-.1-.5-.3.4-.5,0,.5-.8,0-2.5,0-3.7.1,0,.1.4.1.5.3-.3-.1-.6-.1-1,0,0-.1.3-.1.4,0-.4-.1-1.4,0-2.2.1-.5.5.5.6,0-.1,0-.6,0-.5-.9.3.3.4.8.9.5v-.4c-.1-.9-.5.3-.5-.5.8.3.4-1,.5-1.7.3,0,.1.9.3,1.1.4,0,.3-.6.1-1.3.1-.6.1,1.1.4,1.1,0-1.1-.4-4.2-1.1-4.7,0-.4.1-1.1-.3-1.1.5-1.4-.5-3.4-.3-4.2.1.3.3.8.5.9.3,0,.3-.5.5-.5-.4-2.5-.1-5.6-.9-7.9.3-1.8,0-2.4,0-4.5.4,2.5.5,6.9.9,10.2,0,.8.8,2.2,0,2.4,0,.8.1,1.8.5,1.9,0,.5-.4.5-.1,1.3,0,0,.1,0,.1.4s.4-.4.6,0c0,.4-.8.8-.1.9-.4,2.4.1,5.2.6,8.8-.5.8,0,2.8,0,3.6.4,0-.3-1.3.3-1,0,.6.1,1.1.3,1.5-.9-.5-.1,2.3,0,2.8.3,0,0-.9,0-1.4,1.1,1.9.3,4.7.9,7.1-.3,0,0,.6-.3.6.9,1.8.4,3.8,1,5.5,0,3.1.3,4.2,1,7.4,0,0,.3-.3.4-.3-.5-.4,0-.8,0-1.3s-.1-.3-.1-.5c-.3.4,0,1.1-.4,1.3,0-.6.3-.8,0-1.7.4-.3.6.3.5-.9.1.4.5.5.5,1.1.8,0-.3-4.6,0-2.4-.4-.5,0-2.4-.6-1.9-.4-1.4.1-1.8,0-2.8-.1-.9-.8-1.1-.9-1.9h.3c-.1-.5-.9-1.5,0-1.8-.1.5,0,1.5.5,1.4-.6-1-.3-4.1-.9-6.1,0-.3.1-.3.3-.3-.6-2.3-.3-5.4-.9-7.1h.4c-.5-.5-.4-1-.4-2,.3.9.5.3.5,1.5,0-1.1-.4-2.3,0-3.3-.1,0-.4,0-.3.3-.1-.3,0-1.4,0-1.8-.1-.3-.4-1.4-.5-.8-.1-1.4-.4-3.1-.6-4.6.5,0,.5.8.9.3.1,1.5,0,2.9.8,3.9,0,.3-.1.3-.3.3,0,.3.3,0,.3.4.1-.5.3-2.7-.4-2.9v-1.8c.5,0,.9,0,1.1,1.3-.3,0-.1-.6-.4-.5-.4,0-.1.4-.4.5.1.4.4,1.8.6,1.1.3.5-.1.4-.4.9.4.3.5.4.3,1,.1.3.4.4.5.5,0,1.4.4,3.3.8,5.6h-.3c.4.8.4,1.3.6,2.8.1,0,.4,0,.3-.3.1,1.3.8,3.6,1.1,4.8-.6,0,.3,1.4-.3,2,.3.3.4,1.1.8,1.1,0,.9-.3-.4-.5.3.1.6.6,1.3.8,1.9V21.4h-18.3v126.9h17.8c0-.4-.3-.4-.4-.9h-.9Z"/>
    <polygon class="st0" points="831.7 0 812.4 0 805.1 16.4 821.5 16.4 831.7 0"/>
    <path class="st0" d="M820,96.4c0-1.1-.3-1.5-.3-2.5-.3,0-.3-.5-.6-.3.8,1.3.5,3.9,1.3,5.7.4-.4,0-3.9-.4-2.8h0Z"/>
  </g>
  <g>
    <path class="st0" d="M711.5,30.7c0-.3.1-1.4-.3-1.5,0,.3,0,1.7.3,1.5Z"/>
    <path class="st0" d="M726.4,32.4c-.3,0-.8-1.5-.6,0-.3-.3-.4-1-.8-.9-.3,1.5.6,3.8.3,5.5-.3-.3-.8,0-.8.5,1,.3,1.1,2.4,1.9,3.2.1.6,0,.6,0,1-.3-1.1-.8-1.5-1-2.9-.5-.3-.3.6-.4.9-.3-.3-.3-.9-.4-1.4-.3,0-.1.4-.5,0,0,.8.1,1.1.5,1.1.1,1.3,0,2.4.5,3.6-.6,1.8.4,4.6.8,6.4.1.5-.1.4-.1.9.1,3.4,1.9,8.4,1.4,11.6.3.6.3,1.4-.3,1.4-.5-.6-.6-2.3-1.1-2.8-.4,0-.6.4-.5,1.1.5.4,0,1.7.8,1.3.4.3-.5.4-.6,0,.3,1.9-.4,3.1-.3,4.3-.6-1.1,0-2.7-.4-5,0-.4-.5,0-.8,0-.5,0,0,1.5-.3,2-.5,0,0-1.5-.8-1.9.1-1,.1-4.2-.9-3.9-1-11-4.7-21.3-5.2-31.2-.1-.4-.1.3-.4,0,.3-.6-.3-1.4-.1-2-.5.6,0,2,.1,3.1.3.9,0,2.5.4,3.6.4,1.7.6,4.8,1,7.5-.6.8,0,2.2,0,3.2-.5-.3-.6-2.7-.5-3.3-.5-.5-.8-1.1-1.1-2.3h.4c-.1-.3-.3-.6-.3-1.1-.3,0-.3.3-.4.3.5-.6-.3-2-.6-2.8,0-.6.4,0,.5,0,0-.8-.3-.8-.1-1.4,0-.5-.4,0-.3.3-.1-.6,0-1.1-.4-2-.5,0,0,1-.4.5v3.8c-.3,0,0-2.8-.6-3.2-.3,1.4,0,3.2.4,4.6-.4-.3-.5-.8-.6-1.8v.4c-.1,0-.1-.4-.1-.6.3,1.8,0,2.4,0,4.5-.9-.3.1,2-.4,2.3,0-3.7-1.4-5.1-1.3-8.3,0-.3-.3-.5-.3,0-.5-.6-.3-2.7-.8-3.3.6-1.1-.3-3.1-.5-4.6.1-1,0-2.5-.1-4.2-2-.3-4.2-.5-6.5-.5h-.4v.3s-.3,0-.3-.3c-17.1.3-25.6,9-25.6,26.6v77.6c0,16.6,7.4,25.5,22.2,26.5.1,13.8,10.2,20.6,30.4,20.6v-15.3c-13.1,0-19.9-1.9-20-5.6,13.4-1.7,20-10.4,20-26.4V46c0-7.3-1.4-13-4.3-17.2.3,1.3.4,2.8.9,3.6h0l-.4.3v-.3ZM711.5,123.6c0,5.7-2.7,8.7-8,8.7s-7.9-2.8-7.9-8.7V46c0-5.7,2.7-8.7,7.9-8.7h.1c5.4,0,7.9,2.9,7.9,8.7v77.6h0Z"/>
  </g>
  <g>
    <path class="st0" d="M450.2,26.5c.4-.8.6-2.4-.3-2.8,0,1.3,0,3.3.3,2.8Z"/>
    <path class="st0" d="M450.5,56.6c0-.5,0-1.3-.3-1.4,0,.5-.6.3-.4,1.4h.6Z"/>
    <path class="st0" d="M451.1,32.9c-.8.4-.8,3.4,0,4.2.4-.9,0-2.8,0-4.2Z"/>
    <path class="st0" d="M452.3,34.9c0-1.4.3-2.7-.4-3.2,0,1.3,0,2.8.4,3.2Z"/>
    <path class="st0" d="M451.2,25.1c.3-1,.8.4,1.1,0,0-1.5,0-2.8-.4-3.7h-.5c0,1.9-.3,2.3-.3,3.7h0Z"/>
    <path class="st0" d="M452.6,30.7c0-.9,0-1.5-.6-1.4,0,.9,0,1.5.6,1.4Z"/>
    <path class="st0" d="M451.2,49.3h-.8c-.8,1.8,0,3.4.9,4.6.4-1.8-1.1-2.3-.6-3.2.3,0,.4,1.5.6.4-.6-.3,0-1.1,0-1.8h-.1Z"/>
    <path class="st0" d="M450.6,30.1c0,.9,0,1.7.4,2,.3-.5.4-2.4-.4-2Z"/>
    <path class="st0" d="M457.4,130.2V21.4h-4.7c0,1.1.3,1.9.6,2.7-.8,2.3-.3,6.9.5,8-.5,1.1-.8,1.4,0,2.8,0-.3-.5-.3-.6-.6-.6,1.5-.6,2.2-.4,4.2-.5-.4-.9-1-1.1,0,.4,0,.9,1.1.3,2.2.6,1.1,1.1,2.2.9,4.2-.8-.3-.8-1.8-.4-2.8-.4,0-.4.4-.8.4.4,2,.4,2.3.3,4.6.6.4.3-1.1.4-1.8.6-.3,0,1.8.8,1.4-.3.9-1.3.6-1.1,2.2,1,.4,0,0,.3,2,0-.3.3-.6.4-1,0,1.4-.4,3.8-.5,6,.9,1,0,1.3-.3-.4,0,0-.3.4-.4.4-.4,1.4,0,2-.6,2.8.3.9,1,0,.8-1,.8.6-.5,2.7.6,2.4,0,.6-1,1.8-.4,2.4,0,1-.4-.4-.8,0,0,1.1.9.8.9,2-.4-.4-.6-1.1-1.3-1.4,0,1.3.6,1.3.6,2.4-.4,0-.3,1-.8.8.6-1.3,0-1.7-.3-2.8-.5.5-.4,4.6.3,5.2-.3.6,0,2.3-.6,2.2,0-1,.4-1,.3-2.2-.4,0-.4.3-.4.8-.5-1.1.4-2.8,0-4.2,0-.5-.3,0-.6,0-.6-.9.5-2.7-.4-2.8.8-1.3,0-4.3-.3-6,.9-1.4.4-3.6.5-5.6-1,.6-.4,2-.5,4.2-.8-.8.3-2.5-.3-4.2.9.4,0-2.5,1-1.8-.4-1.9-.3-2.7,0-4.6-1.5-1.4-.5-6.2-1.3-7.6v-15.4h-8.4v126.9h47.5v-18.1h-29.7ZM451.9,61.8c.4,0,.5-.3.6-.8,0,0,0,2.8-.8,2.8.3-.9.4-1,0-2.2h.1ZM452.5,69.2c-1.1-.3.8-2-.4-2,0-.5.5-.3.8-.4-.3,1.3-.3,1.5-.4,2.4h0ZM452.5,66c-.4,0-.5-.3-.8-.4,0-.8,1.4-.6.8-2.2.3-1,.4.8.6.6-.3.5-.6.8-.6,1.8h0Z"/>
    <path class="st0" d="M451.1,29.7c0-1.5,0-2.7.8-3.8-.6-.6-2.2,3.2-.8,3.8Z"/>
  </g>
  <polygon class="st0" points="428.8 31.6 418.5 21.4 410.5 29.4 402.5 21.4 394.4 29.4 386.4 21.4 376.2 31.6 386.4 41.9 394.4 33.9 402.5 41.9 410.5 33.9 418.5 41.9 428.8 31.6"/>
  <polygon class="st0" points="792 139.2 781.7 129 773.7 137.1 765.6 129 757.7 137.1 749.7 129 739.4 139.2 749.7 149.6 757.7 141.5 765.6 149.6 773.7 141.5 781.7 149.6 792 139.2"/>
  <path class="st0" d="M45.5,148.5h-25.2L7.4,66.2,1.4,21.1h18.6l12.9,98.2,13-98.2h18.6l-6,45.2-12.9,82.2h-.1Z"/>
  <path class="st0" d="M132.4,148.5V21.1h18.3v109.3h29.3v18.1h-47.6Z"/>
  <path class="st0" d="M187.7,148.5V21.1h18.3v109.3h29.3v18.1h-47.6,0Z"/>
  <path class="st0" d="M242.3,21.1h47.6v18.1h-29.3v36.4h25.2v18.2h-25.2v36.4h29.3v18.1h-47.6V21.1h0Z"/>
</svg>