<?xml version="1.0" encoding="UTF-8"?>
<svg id="Capa_1" xmlns="http://www.w3.org/2000/svg" version="1.1" viewBox="0 0 427.9 185.4">
  <!-- Generator: Adobe Illustrator 29.3.1, SVG Export Plug-In . SVG Version: 2.1.0 Build 151)  -->
  <defs>
    <style>
      .st0 {
        fill: #fff;
      }
    </style>
  </defs>
  <g id="Capa_11" data-name="Capa_1">
    <g>
      <g>
        <polygon class="st0" points="154.5 9.6 145.8 30.4 137.3 9.6 124.4 9.6 139.4 45.2 151.2 45.2 166.2 9.6 154.5 9.6"/>
        <path class="st0" d="M178.9,9.6l-15.6,35.6h12.2l2.4-6.2h13.5l2.4,6.2h12.4l-15.6-35.6s-11.8,0-11.8,0ZM181.2,30.4l3.4-9,3.4,9h-6.9,0Z"/>
        <polygon class="st0" points="221.1 9.6 209.1 9.6 209.1 45.2 237.2 45.2 237.2 35.9 221.1 35.9 221.1 9.6"/>
        <polygon class="st0" points="253.5 9.6 241.5 9.6 241.5 45.2 269.6 45.2 269.6 35.9 253.5 35.9 253.5 9.6"/>
        <polygon class="st0" points="285.7 36.2 285.7 31.5 300.7 31.5 300.7 22.8 285.7 22.8 285.7 18.7 302.8 18.7 302.8 9.6 273.9 9.6 273.9 45.2 303.5 45.2 303.5 36.2 285.7 36.2"/>
      </g>
      <path class="st0" d="M85.9,113.8v-16.2c0-4.5-2.1-6.8-6.2-6.8h0c-4.2,0-6.2,2.3-6.2,6.8v4.7h-14.4v-4.7c0-13.9,6.9-20.9,20.7-20.9s20.6,7,20.6,20.9v60.6h-12.8l-1-6.1c-2.9,5.1-7.2,7.7-12.9,7.8-4.7,0-8.2-1.8-10.6-5.3-2.4-3.5-3.6-7.8-3.6-12.9,0-16.8,8.8-26,26.5-27.8h0ZM85.9,127.5c-8.1,2-12.2,6.2-12.2,12.6s1,6.5,2.9,6.5c6.2-.5,9.3-5.1,9.3-13.8v-5.3Z"/>
      <path class="st0" d="M385.4,118.7c0,13.9-6.9,20.9-20.7,21-13.7,0-20.6-7-20.6-21v-60.1h14.4v60.1c0,4.5,2.1,6.8,6.2,6.8s6.3-2.2,6.3-6.8v-60.1h14.4v60.1h0Z"/>
      <g>
        <path class="st0" d="M285.4,86.6c.2-.1.2-1.7,0-1.2,0-.5,0-.6,0-1.1,0,0,0-.2-.2-.2.2.6,0,1.6.2,2.4h0Z"/>
        <path class="st0" d="M286.3,89.2c0,.9.2,1,.2,2.1,0,0,0,0-.1,0,0,.5.3.4.4,0,0-.5,0-2.4-.5-2.1h0Z"/>
        <path class="st0" d="M286.6,95.1c0-.2,0-.4,0-.5,0,.2-.2.5,0,.5Z"/>
        <path class="st0" d="M287.9,88.3c0,0,.2.1.3,0-.1-.3,0-1.2-.3-1.5,0,.2,0,.7,0,.8,0,0,0-.2-.1-.2,0,0,0,.2,0,.2,0-.3.2-.4,0-.6-.3,1.2,0,2.5,0,3.5.3,0,0-.8.1-1.1.1.2-.1.8.2.8,0-.5,0-.2,0-.5-.2-.3-.1-.4-.1-1.1-.1,0-.2.4-.2.2,0-.2,0-.3,0-.3h0Z"/>
        <path class="st0" d="M284.6,74.6c.1,0,0-.6.1-.4,0,.3,0,.5,0,.7-.4-.3-.2.9-.2,1.2.1,0,0-.3,0-.6.4.8-.1,2,0,3-.1,0,0,.2-.1.2.3.8,0,1.6.1,2.3-.2,1.3-.1,1.8,0,3.1,0,0,.1,0,.2,0-.2-.2,0-.3,0-.5,0,0,0-.1,0-.2-.1.1,0,.5-.2.5,0-.2.1-.3,0-.7.2,0,.3.1.2-.3,0,.2.2.2.1.5.3,0,.1-1.9,0-1-.1-.2,0-1-.1-.8,0-.6.2-.7.1-1.2,0-.4-.2-.5-.3-.8,0,0,0,0,.1,0,0-.2-.3-.7,0-.8-.1.2,0,.6.1.6-.2-.4.1-1.7,0-2.6,0,0,0,0,.1,0-.2-1,.1-2.2,0-3h.1c-.2-.3-.1-.5,0-.8,0,.4.2.1.1.7,0-.5,0-1,.2-1.3,0,0-.1,0-.1,0,0-.1,0-.6.1-.8,0,0-.1-.6-.2-.3,0-.6,0-1.3,0-1.9.2,0,.1.4.3.2,0,.7-.2,1.2.1,1.7,0,0,0,0-.1,0,0,0,.1,0,.1.2.1-.2.3-1.1,0-1.3,0-.2,0-.6.1-.8.2,0,.4,0,.4.6,0,0,0-.3-.1-.2-.1,0-.1.2-.2.2,0,.2,0,.8.2.5,0,.2-.1.2-.2.3.1.2.2.2,0,.4,0,.1.1.2.2.2,0,.6,0,1.4,0,2.3,0,0,0,0-.1,0,.1.3.1.5.1,1.2,0,0,.1,0,.1,0,0,.5.1,1.5.2,2.1-.3,0,0,.6-.2.8.1.1,0,.5.2.5,0,.4-.1-.2-.2,0,0,.3.3.7.2,1,0,0-.1,0-.1,0,0,.2.1.3.1.6,0,0-.1,0-.1,0,0,.1.1.4.1.5,0,.2-.2.5-.2.8,0,.2.2.4.2.7,0,.4-.2.8,0,1.2,0,.2-.1.3-.1.5.1.8.1,1.6.3,2.5.1,0,.5.5.4,0,0,.5.1,1.5.4.9,0-.2,0-.4,0-.3,0-.6.1-1.4-.1-2,.1-1.9-.1-3.7.1-5.5.5,0,.3-1.4.2-1.8.1-1.5,0-2.9,0-4.5,0,0,0,0,.1,0,0-.2,0-.3-.1-.2,0-.1,0-.4,0-.6-.5-2.9-1.5-5.3-2.8-7.3,0,.7,0,1.4-.1,2.1,0,.3.2.9-.1,1,0,.3,0,.7.1.8,0,.2-.2.2-.1.5,0,0,0,0,0,.2,0,.2.2-.1.2,0,0,.2-.4.3,0,.3-.3,1-.2,2.2-.2,3.7-.3.3-.2,1.1-.1,1.5h0Z"/>
        <path class="st0" d="M284.1,115.8c0,0,0,0,.1,0,0-.3,0-.4-.2-.5,0,.1,0,.6,0,.6h0Z"/>
        <path class="st0" d="M284.1,103.6c0,.2,0,.7.1.7-.1-.3,0-.6-.1-.7Z"/>
        <path class="st0" d="M287.9,90.2c0,.2,0,.6,0,.6,0,0-.1,0-.2,0,0,.2-.1.4,0,.5,0-.2.1-.5.2-.3,0,.9-.1,2.4,0,3.3,0,0,0,0,.1,0,0-1.7.3-2.9-.2-4h0Z"/>
        <path class="st0" d="M286.4,75.3c0-.1,0-.5,0-.5,0,.2,0,.5,0,.5Z"/>
        <path class="st0" d="M285.1,131.3c-.1,0-.1-.2-.2,0,0,0,.1,0,.1,0-.1,0,0,.3,0,.3,0-.3,0-.2,0-.5h0Z"/>
        <path class="st0" d="M285.2,93.6c0,0-.1,0-.2,0,0,.2,0,.4.1.5,0-.3.1-.3,0-.6Z"/>
        <path class="st0" d="M285,130.9c0-.1,0,0,.1,0,0-.3,0-.3-.1-.4,0,.1,0,.4,0,.4Z"/>
        <path class="st0" d="M285.5,142.1c0-.4,0-.6-.1-.8.1.2-.1.8.1.8Z"/>
        <path class="st0" d="M285.5,141.2c0-.4-.1-.8,0-1.1-.3.2,0,.9,0,1.1Z"/>
        <path class="st0" d="M285.6,135.7c.1,1,0,1.9.2,2.5.2-.9,0-1.7,0-2.7-.2.1-.3-.2-.4,0,0,.3,0,.7.1.8.1-.2-.1-.5,0-.6h0Z"/>
        <path class="st0" d="M285.6,98.5c.1-.2.2-.2.2-.7-.1,0-.2,0-.2-.2,0,0,.1.1.2,0,0-.3-.1-.6,0-1-.2-.1,0,.4-.1.4,0-.6,0-.6,0-1.2,0-.2-.1.2-.2,0,.2-.2,0-.5.2-.6,0-.9,0-.9-.1-1.8,0,0,.2,0,.2,0-.1,0,0-.5-.1-.4,0,.2,0,.3,0,.4,0-1-.2-1.4-.5-.7.2,0,.2,0,.3.2-.1,0-.2.5,0,.5,0,0,0-.3,0-.3,0,1,0,1.9-.1,2.9.3.6-.1,2.1.3,2.5h0Z"/>
        <path class="st0" d="M286.5,91.7c0,.2,0,.3.1.3,0-.2,0-.4-.1-.3Z"/>
        <path class="st0" d="M283.9,124.8c0-.3-.2-.4-.2-.2,0,.4,0,.3,0,.7.3,0,0-.7.2-.4Z"/>
        <path class="st0" d="M283.6,117.6c.1-.5,0-1.1,0-1.6h-.2c.1.3,0,.5,0,.9.2.1,0,.5.2.7h0Z"/>
        <path class="st0" d="M282.9,114.2c0-.2.2-.7,0-.8,0,.2,0,.4,0,.2,0,.2,0,.5,0,.5h0Z"/>
        <path class="st0" d="M284.2,153.6c0,.3.1.6.1.8,0-.1,0,0,.1-.2,0,0-.1-.3-.1-.5,0,0-.1,0-.1,0Z"/>
        <path class="st0" d="M283.5,115.9c0-.3,0-.9,0-1.6-.4-.1-.2-.7-.4-.9-.2.6,0,.9.2,1.2-.2.3-.2,1,0,1.3h0Z"/>
        <path class="st0" d="M286.8,158c0-.2-.2-.2-.2-.4.2,0,.2-.1.4-.4-.1-.2,0-.9-.1-1.2-.1.1,0,.8-.2.7.2-.4,0-.6-.1-.8.3.1.2-1.3-.1-1.4,0-.3.3-.5,0-.6.2-.1.2-.6.2-.9,0,0,0,0-.1.2-.2-.2.3-.9,0-1.2,0,0,0,0,.1,0,0-.1,0,0-.1-.2,0-.2,0-.1.2,0-.1-.2-.2-.5-.4-.8,0,0,.2,0,.2-.4-.2.4-.3-.4,0-.4,0-.1-.1-.4-.2-.2,0-.1.3-.6,0-.8.2-.5,0-1.5-.2-1.6,0,0,0-.4,0-.5,0-.2-.2,0-.1-.3-.1.5,0,1.1,0,1.8.2,0,0-.5.2-.5,0,.5.2.3.1.8,0,0,0-.1,0-.2-.3.2-.4.8-.4,1.4-.1-.3,0-.9,0-1.1-.2-.4,0-1.5-.5-1.4.2-.5-.1-.8-.2-1.2.2-.4.2.4.3.5.2-.1-.2-.5,0-.8,0-.3-.1.3-.2,0,0-.8.2-1.8,0-2.5,0,0,0,.2,0,.3,0-.2,0-.2-.2-.2,0,0,0-.4,0-.2,0-.2.2-.6,0-.9,0,0,0,0,.1,0v-.3s0,0-.1.2c.1-1.3,0-3,.2-4.2,0-.2-.1,0-.1.2-.1,0,0-.6,0-.6-.2-.7,0-1-.2-1.8.3,0,0-1.1.2-1,0-.4-.2,0-.2-.2,0-.2,0-1.1,0-1.4h-.2c0-.3,0,0,.1-.2-.2-.2.1-.6-.1-.8,0-.2,0-.2.1,0,0-.1-.1-.6-.2-.3-.1,0,0-.4-.1-.2,0-.1,0,0,.1,0-.1-.6,0-1.4-.1-2,0,0,.1,0,.1,0-.1,0-.2-.5-.3-.2,0-.1-.1-.4,0-.5,0,0-.1,0-.3,0,0,.4,0,1.1.3.9,0,.2-.2,0-.1.3.1.4.3.7.3,1.5-.1,0,0-.5-.1-.4,0,.2,0,.9.2,1.1,0,0-.1,0-.2.3.2.4-.1,1,.2,1.3,0,.2-.1.2,0,.4,0,.2.1,0,0-.2.2.5-.3,1.2,0,1.6,0,.2-.1,0-.2,0,.1.4,0,.5.1.9.1-.4,0-.5.1-.9.2.4-.1,1,0,1.3,0,0-.1-.1-.1-.2,0,.5.1.3-.2.7,0,.3,0,.3.1.4.1,0,0-.4,0-.5,0,.1.1.2.2.3-.2.2-.2.5-.3.9,0,.1.1,0,.2,0,0,.2,0,.2-.1.2.2,1.1.1,2.5.2,3.9,0,.9.2,1.8.1,2.4,0,.5.2,1.5,0,1.7,0,1.6,0,2.8,0,4.1,0,0,0-.1-.1-.2-.1,0,0,.3,0,.4.2.1,0-.3.2-.2.1.6,0,1.9,0,2.6,0,0,0-.3-.1-.2,0,.4.3.3.1.7,0,0-.1-.1-.1-.3-.2.3.1.9,0,1,0,0,0,0,.1,0,0,.5-.2,1.9.1,2,0,.2-.1.1,0,.3,0,.1,0,.2.2.2,0,0,0,0,.1,0h-.1c-.1.1-.1.9,0,1.5h1.9c0-.1,0-.3-.1-.4,0,0,0,.1,0,.2h0Z"/>
        <path class="st0" d="M284.8,145.7c0,.1,0,.4,0,.6.2.1.2-.6,0-.6Z"/>
        <path class="st0" d="M284.9,158.2h.1c0-.3,0-.6-.2-.7,0,.2,0,.5,0,.7h0Z"/>
        <path class="st0" d="M283.6,123.9c.2,0,.1-.4.2-.5-.1,0-.1-.1-.3,0,0,.4.1.9.1,1.4,0-.3.2-.7,0-.8h0Z"/>
        <path class="st0" d="M284.1,105.9c-.1,0-.1.2-.1.3h.1v-.3h0Z"/>
        <path class="st0" d="M283,111c0,.2-.1,0-.2,0,0,0,0,.2,0,.2,0-.1,0-.3,0-.3,0,.3,0,.2,0,.5,0,0,.3-.3.2-.4h0Z"/>
        <path class="st0" d="M284,126.4c0-.2,0-.3-.1-.4,0,.1,0,.4.1.4Z"/>
        <path class="st0" d="M283.4,113.3v.4h.1c0-.1,0-.4-.1-.4Z"/>
        <path class="st0" d="M283.3,105.9c0,0,0,0,.1,0,0-.1,0-.3,0-.3,0,.3-.3,0,0,.3,0,0,0,0,0,0h0Z"/>
        <path class="st0" d="M283.2,109.7c0,0,0,0,0-.2-.1,0-.1.1-.1.2,0-.1,0,0-.1,0,0,0,.1,0,.1,0,0-.1,0,0,.1-.2h0Z"/>
        <path class="st0" d="M283.3,109.3c-.1-.2-.1-.1-.3,0,0,.3.2.2.3,0Z"/>
        <path class="st0" d="M286.2,96.9c0-.3.2-.5,0-.7,0,.2,0,.6,0,.7Z"/>
        <path class="st0" d="M284.5,128.3c.1.2,0,.5.1.6,0-.2,0-.7-.1-.6Z"/>
        <path class="st0" d="M284.6,107.8c0-.9,0-2.5-.3-2.8.1.6,0,2.1.3,2.8Z"/>
        <path class="st0" d="M284.4,127.1c0,.1,0,.7,0,.7,0-.3,0-.5,0-.7Z"/>
        <path class="st0" d="M284.2,115c0-.2.1-.5.1-.8,0,0-.1,0-.2,0,0,.3-.1.6,0,.7Z"/>
        <path class="st0" d="M285,84.5c0-.1.2-.4,0-.4,0,0-.1.4,0,.4Z"/>
        <path class="st0" d="M284.6,92.3c.3-.3.1-1.5.2-2.1.2.2-.1,1.1,0,1.5,0-.5.1,0,.3,0,.1-.2.2-.8,0-1.1,0,.2,0,.5,0,.4,0-.3,0-.6-.1-1,.1,0,.1.2.2,0-.1-.1,0-.3,0-.5,0,0-.2.2-.2,0,.1-.2.2-.4.2-.7-.3-1.2-.2-2.7-.3-3.5,0,0,0,0-.1,0,0-.2,0-.7-.1-.7,0,.2,0,.3,0,.5,0,.1,0,0,.1.2-.2,1.5-.1,3.1,0,4.4h0v.4c0-.1,0-.3,0-.4h-.1c0,1-.2,1.7,0,2.6h0Z"/>
        <path class="st0" d="M286.1,71.7c0,0,0-.5-.1-.4,0,.2,0,.7.1.4Z"/>
        <path class="st0" d="M284.1,106.9h.1c0-.2,0-.5-.1-.5,0,0,0,.3,0,.5h0Z"/>
        <path class="st0" d="M284.3,155.6c0,0,.1.1.2.2-.1-.4-.2-.7-.4-1,.1,0,.2-.9-.1-1,.2-.2.3-1.4,0-1.6.3-.2,0-.9.2-1.3,0-.2,0,.1-.1,0,0-.3.1-.5,0-.7.2-.1,0-.6.2-.6,0,0-.1-.2,0-.2-.2-.2,0-.5-.1-.6.3-.4,0-1.2,0-1.5,0-.2-.2-.2-.2-.5.2-.6,0-.8,0-1.6,0-.3,0,.3.1.2-.1-1.9,0-4.1-.6-5.9-.2,0,0,.4-.2.3,0-.4,0-.4-.1-.8.1,0,0,.2.1.2,0,0,0-.2,0-.3,0-.2,0,.1-.1,0,0-.2,0-.3,0-.4,0-.3,0,0,.1,0,0-.2-.1-.2-.2-.2,0-.2,0-.2.1-.2-.2-1-.2-2.4-.2-3.5,0-.2,0-.4,0-.3-.1-.5-.1-1.5.2-1.6-.3-.1,0-.6-.1-1,.3.1.3-.9,0-1.2-.2.2-.2.7,0,1.1-.3-.5,0-1.7-.4-2,0-.8.2-1.3,0-2.1.1,0,.2.1.3,0,0-.4-.1,0-.3-.2.1-.8-.3-1.8-.1-2.9,0-.3-.1,0-.2-.2,0-.9,0-1.2,0-1.7.1,0,.2-.2.1-.6,0,0,0,.2,0,.2.1,0,0-.2.1-.3,0,0-.1,0-.1-.3,0,0,0,.3.2.2,0,.4,0,.7.2.7-.4.4.2.8,0,1.5.4,0-.1-.8.1-.9,0-.3-.2-.4-.1-.7,0,0,0,.3.1.3.1-.1,0-.6,0-.8,0,0,0,0,0,.2,0-.1,0-.7,0-.5,0-.2,0-.3-.1-.4,0-.2,0-.3.1-.2,0-.2-.1-.2-.1,0-.1-.2,0-.4,0-.8-.3.5.1-.5,0-.7,0,0,0,0-.1,0,0-.2.2,0,.1-.3-.2-.3,0-1.3-.3-2h.1c0-.3,0-.3,0-.5,0,0-.1.1-.1.3,0,0,0-.3,0-.5,0,0,0,.2.2.2,0-.3,0-.5,0-.8,0-.2,0,.1-.2,0,.1-.3.3-.7-.1-.8.1-.4-.4-.7-.4-1.7.1.2,0,0,.1,0,0-.1-.1-.2-.2-.3,0-.3.1-.2,0-.6.1,0,.1.1.2,0-.2-.2-.1-.3-.2-.7.1,0,.3,0,0-.4.1,0,0-.5.2-.5,0-.2-.2,0-.1-.3.2,0,.2,0,.3,0,0-.2,0-.4,0-.5-.1,0-.1.3-.3.2,0-.5,0-1.6.3-1.5,0-.1-.1,0-.2,0,0-.3.2-.3.3-.3,0,.3.1.2.1.6.2-.5,0-.8,0-1.3-.2,0-.3.2-.2.6,0-.1,0-.4-.1-.6,0,0,.1-.1.2,0,0-.3-.1-.3-.1-.6,0,0,.1,0,.2,0-.6-1,0-1.9-.4-2.9.1.3.2.2.3.5,0,0,0-.2,0-.2.4,0,.2-.9.1-1.4.2.1.2.5.2.8.1-.2.1-.7-.1-.6,0-.3,0-.4,0-.7,0-.2,0,.4.1.4.2-.2,0-1.1,0-1.2,0-.2,0-.4,0-.3,0-.4.1-.7.1-.9,0,0-.2-.2-.1-.4,0-.6.1-1.9-.2-2.8,0,0,.1,0,.1-.2.2.1-.1.2,0,.4.2,0,.2-.7.2-1,0,0,0,.2-.1.2,0-.4.4-1.1,0-1.3,0-.2,0-.2.1-.2,0-.4,0-.4,0-.6,0,0,0,0-.1.2-.2-.3,0-.6-.1-1.1.2,0,.1-.3.2-.4-.2-1.1-.2-3-.1-4.4-.3-.6,0-1.3-.2-1.9,0-.2,0-.4.2-.4,0-.2-.1-.2,0-.5,0-.2,0,.1-.2,0,0-.7-.3-.9-.4-1.5.3,0,.1.5.4.8,0-.3.2-.8,0-1.1,0,0,0,0,.1,0-.2-.3-.1-.7,0-1.2,0-.1,0,0-.1,0,.1-1.2-.1-2.4,0-3.9,0-.1-.1,0-.2,0,0-.5,0-.6,0-.9-.2.4,0-.5,0-.6,0-.2-.2,0-.2-.2,0-.3.2,0,.3-.3-.2-.2-.1-.5-.2-1,0-.2,0,.3.1.4.2,0,.1-.5.1-.8,0-.2-.2,0-.2,0,0-.3.3-.3.2-.8,0-.2-.1.1-.2,0,.2-.3.1-1.1.2-1.5,0,0,0,.2,0,.2.1,0,0-.3,0-.4,0,0,0,0-.1.2,0-.2,0-.6,0-.9.1-.2.2.3.3,0,0,0-.3,0-.1-.4.1,0,.1.4.3.2,0,0,0-.2,0-.2,0-.4-.2.1-.2-.2.3.1.2-.4.3-.7.1,0,0,.4,0,.5.1,0,.1-.3.1-.5,0-.3,0,.5.1.5,0-.5,0-1.7-.3-2,0-.2.1-.5,0-.5.3-.6,0-1.4,0-1.8,0,0,0,.3.1.4,0,0,.1-.2.2-.2,0-1,.2-2.2,0-3.2-3.3-4.8-9-7.2-17.1-7.2-13.8,0-20.7,7-20.7,20.9v24.4h14.4v-24.4c0-4.5,2.1-6.7,6.2-6.8h.1c4.1,0,6.2,2.2,6.2,6.8v35.9c-17.7,1.7-26.5,11-26.5,27.8s1.2,9.4,3.6,12.9,5.9,5.3,10.6,5.3c5.7,0,10-2.6,12.9-7.8l1,6.1h8.9c0-.9-.1-1.6-.1-2.5h0ZM274,132.7c0,8.7-3.1,13.3-9.3,13.8-1.9,0-2.9-2.2-2.9-6.5,0-6.4,4.1-10.6,12.2-12.6v5.3h0Z"/>
        <path class="st0" d="M282.9,122.3c0-.2,0-.4-.1-.4,0,0,0,.2-.1.2,0,.2,0,.5,0,.6.2,0,0-.3,0-.4.1.1,0,0,.2,0h0Z"/>
        <path class="st0" d="M282.7,123.7c0-.3.1-.4,0-.6,0,.3-.1.4,0,.6Z"/>
        <path class="st0" d="M283.3,128c.1-.2,0-.3,0-.6-.2,0-.2.7,0,.6Z"/>
        <path class="st0" d="M288.1,74.2c0,1.4-.3,2.6,0,4,.1,0,.2,0,.3-.1v-.2c0-1.3,0-2.5-.2-3.7Z"/>
        <path class="st0" d="M284.4,128.5c0-.5,0-.6-.2-.9,0,.3-.1.7,0,.8,0-.5.1,0,.2,0Z"/>
        <path class="st0" d="M283.4,128.1c-.3,0-.3.3-.4.6.2,0,.2-.4.4-.6Z"/>
        <path class="st0" d="M285.9,145.4c0,.4,0,.7,0,1.1,0-.3.1-1,0-1.1Z"/>
        <path class="st0" d="M285.6,133.8v-.3c0,0-.1,0-.2,0,0,.2,0,.4.2.4h0Z"/>
        <path class="st0" d="M285.9,87.6c-.2-.3-.3,1.1-.2,1.7.2-.7,0-1.3.2-1.7Z"/>
        <path class="st0" d="M285.9,89.6c0,0,0-.3-.1-.2,0,0-.2.3,0,.3,0-.3.2.2.2,0h0Z"/>
        <path class="st0" d="M285.8,144.2c0,.1,0,.4,0,.4,0-.1,0-.4,0-.4,0,.3,0,.5.1.7,0-.3.1-.4,0-.7h0Z"/>
        <path class="st0" d="M285.8,87c-.1-.9.2-1.8-.2-2.4.1,1,0,2.2.1,2.8,0-.2,0-.4,0-.3Z"/>
        <path class="st0" d="M285.3,81.3c0,0,0,0,.1,0,0-.2,0-.3,0-.3-.1,0-.2.4,0,.4h0Z"/>
        <path class="st0" d="M285.5,74.9c0-.3.2-.6,0-.6,0,.2,0,.6,0,.6Z"/>
        <path class="st0" d="M285.3,90.4c.1,0,.1.3.2.3.1-.4-.2-.7,0-1.1-.2,0,0,.6-.2.8Z"/>
        <path class="st0" d="M285.2,83.6c0,.3,0,.5.2.4,0-.4.1-.6.3-.7,0,.2,0,.3,0,.4,0-.2.1-.2.1-.3-.1-.4-.2-.7-.2-1.3-.3.2-.2.9-.3,1.6-.1,0,0-.2-.2-.2h0Z"/>
        <path class="st0" d="M285.6,92.3c0-.5.1-1-.1-1.3,0,.5-.2.7-.2,1.2.2,0,.2,0,.3,0Z"/>
        <path class="st0" d="M285.8,146.2c0-.1,0-.4-.1-.5-.1.2,0,.5.1.5Z"/>
        <path class="st0" d="M285.5,134.4c0-.4,0-.5-.1-.6,0,.2,0,.7.1.6Z"/>
        <path class="st0" d="M285.9,147.4c0-.2,0-.6-.1-.6,0,.3,0,.2,0,.3.1,0,.1.2.2.2h0Z"/>
        <path class="st0" d="M285.7,141c0,.1,0,.7,0,.8,0-.2,0-.4.1-.5-.2.1,0-.3-.1-.2h0Z"/>
        <path class="st0" d="M285.8,140.3c0,.1,0,.4.1.4,0-.3,0-.3-.1-.4Z"/>
        <path class="st0" d="M285.8,140.2c0-.1,0-.2,0-.3-.3,0,0-.7-.2-.8,0,.4,0,1,0,1.3,0-.4.1-.2.1,0Z"/>
      </g>
      <g>
        <path class="st0" d="M205,150.4c-.6.1-1.8-.2-1.9.2,1.1-.1,1.8.7,1.9-.2Z"/>
        <path class="st0" d="M202.1,153.6c.4.2,1.6.3,1.6-.2-.5,0-1.6-.2-1.6.2Z"/>
        <path class="st0" d="M197.8,158.2h4.4c2.8-.1,5.6-.3,8.6-.3.2.1.2.2.1.3h.6c.1,0,.1-.2.1-.3.1,0,.4.1.6.2v-4.7c-1.4,0-2.9,0-4.6.1,0-.1.3-.2.3-.3-1.1.3-1.8.4-3.8.4,0,.2,0,.4.3.5-1.6,0-4.6.3-6.5.6v3.6h0Z"/>
        <path class="st0" d="M197.8,148.3v1.7c3.2-.5,7.2.5,9.7,0,0,.2,0,.3,0,.5.9-.6,1.5-.4,2.7-.2-1.3.2-.5.6-2.2.5,1.4.2,2.9,0,4.1.4v-3.2c-1,0-2,0-3.1,0-.9-.9-3.7-.5-4.9-.4,0,.4,1.8-.2,1.4.5-.9,0-1.5,0-2.2.2.8-1.1-3-.6-3.9-.6,0,.4,1.1.3,1.9.3-1.1.5-2.3.5-3.6.4h0Z"/>
        <path class="st0" d="M227.5,148c-1.1,0-2.4-.1-2.7.3,0,0,0,0,0,0v9.8h14.4v-9.3c-2.8-.1-5.7-.3-8.2-.4-1.1,0-3.1.7-3.3-.4h0Z"/>
        <path class="st0" d="M199.9,143.8c.7.2-1.1.2-1.4.3-.2.7,1.5.4,2.5.5.6,0,.1-.6.2-.8,1.1,0,.9.9,2.5.6.8-.2-.4-.4.3-.6.9.7,3.4.3,5,.8,0,.2-.5.1-.8.2.2.5.9-.1,1.4,0-.1-.1-.2-.3-.6-.3.6,0,1.9,0,3,.3,0,0,0,0,.1,0v-12.9h12.5v15.2c1.5,0,3.1-.4,3.9-.1-.3.2-1,.2-1.4.5.1.3.6.4.6.8,3.6-.2,7.7.7,11,0,.1,0,.2,0,.3,0V58.6h-14.4v59h-12.5v-59h-14.4v85.4c.6,0,1.3,0,2.1-.2h0Z"/>
        <path class="st0" d="M212.1,145.6c0,0,0-.2,0-.3v-.3c-.2.2-.6.4,0,.6Z"/>
      </g>
      <g>
        <path class="st0" d="M161.4,149.2c-.1.1-.7,1.2-.3,1.3.3-.4.8-1,.3-1.3Z"/>
        <path class="st0" d="M190.3,102.3v-24.4c0-13.9-6.9-20.9-20.7-20.9s-20.6,7-20.6,20.9v13.1c.6-3.7,1.2-7.6,2.6-10.1,0-1,.4-1.8,1.1-1.7.3,1.1-.3,3.3.2,4.2.5,0,1-.2,1.2-1.1-.4-.8.8-2.1-.4-2-.4-.5.9-.2.8.2.5-2.6,2-3.7,2.4-5.4.3,1.7-1.4,3.3-1.9,6.6-.1.6.6.2.9.5.7,0,.7-2,1.2-2.6.6.4-.7,1.9,0,2.8-.7,1.2-2.2,5.3-.8,5.4-3.7,13.4-4.1,27.3-7.3,39.6v2.2c0,0,0-.1,0-.2.2-1.3,1.1-3.3,1.3-4.8.3-2.3,1.6-6.5,2.3-10.2,1.2-.7.9-2.8,1.4-4.2.5.6-.5,3.7-.9,4.6.3.9.4,1.8.4,3.4-.2,0-.3,0-.5,0,.1.3,0,1-.2,1.6.3,0,.4-.3.7-.1-.9.6-.7,2.7-.6,3.8-.3.8-.3-.4-.6-.4-.2,1,0,1.1-.4,1.9-.1.7.5.2.5-.2,0,.9-.6,1.4-.5,2.7.5.4.4-1.4.7-.4.6-1.9,1.3-3.3,1.9-4.9.3.4-1.2,3.7-.7,4.3,1-1.6,1.4-4.1,1.7-6.1.3.4.3,1.3,0,2.5.1,0,.2-.3.3-.5.2,0,0,.5,0,.8.6-2.4,1.2-3.1,2-5.8,1.1.7.8-2.8,1.6-2.8-1.6,4.8-.6,7.2-2.3,11.3,0,.3.1.7.2.3.3,1-1,3.5-.6,4.7-1.5,1.2-1.1,4.1-1.6,6.1-1.4,2.7-2.6,9.2-3.9,13.4,1.6,3.1,4,5.4,7.1,6.9,0-.9,0-1.9.4-2.7,0,.2.2.3.4.4.9-3.1,0-4.8,1.7-7.2.3.6-.7.9-.6,2.1,1-.5,1.5-2.4,1.9-3.8.5.3,0,1.8.7,1.8-1.2,1.8-1.2,3.2-1.7,5.8-.3,0,.1-.9-.3-.9-.1,2.2-.5,2.9-.4,4.7-.1.2-.2.4-.3.6,2.6.9,5.8,1.4,9.3,1.4,13.8,0,20.7-7,20.7-21v-16.2h-14.4v16.2c0,4.5-2.1,6.8-6.3,6.8s-6.2-2.2-6.2-6.8v-60.9c0-4.5,2.1-6.8,6.2-6.8h.1c4.2,0,6.2,2.3,6.2,6.8v24.4h14.4,0Z"/>
        <path class="st0" d="M156.8,128.1c-.1.4-.8,1.6-.3,2.2.3-.4.8-2.1.3-2.2Z"/>
      </g>
      <g>
        <path class="st0" d="M24.6,155.7c-.2-.1-.5-.6-.6-.5,0,.2.5.6.6.5Z"/>
        <path class="st0" d="M26.1,155.1c-.2-.1-.6-.7-.7-.6.4.3.4.9.7.6Z"/>
        <path class="st0" d="M17.3,149.2c-.3-.3-.7-.2-1-.4-.6-.4-.7-1.2-1.3-1.3-.3-.3-.2-.5-.4-.7-1-.7-1.9-1.5-3-2.3,0,.6.2,1.3.3,1.9.1,0,.2.1.4.2,2.1,2.2,4.4,3.9,6.1,6.1-.6.5,1.2,1.9,1.9,2.2,1.6,1.7,3.4,3.1,5.3,4.8,0,.2,0,.1-.1.2.2.2.4.2.4.1,0,0,0,.1.1.2,1.2.2,2.5.4,3.8.4-.3-.1,0-.3-.1-.6-.3,0-.4,0-.5-.4-.2,0-.3,0-.5,0-.6-.7-1.6-1.5-2.7-2.5,0,0,.1,0,.2,0-.5-.2-.7-.5-1.5-1.1,0,0-.2.1,0,.3-.6-.6-1.9-1.5-2.6-2,.4-.2-.7-.6-.7-1.2-.3,0-.6-.4-.8-.3-.4-.4.3,0,.2-.4-.4-.3-1.1-.4-1.4-.9,0,0,.1-.2,0-.3-.3-.2-.5-.2-.8-.5,0,0,.2,0,.2,0-.1-.1-.5-.3-.7-.4-.3-.2-.4-.8-.7-1h0Z"/>
        <path class="st0" d="M29.2,159c.1.3,1,1.5,1.5,1.4,0,0,0,.1.1.2h.3c-.5-.6-.9-1.1-1.6-1.2-.1-.1,0-.2,0-.3-.1,0-.2,0-.3,0h0Z"/>
        <path class="st0" d="M13.7,151.6c0,.2.2.3.3.5h0c0,0,0-.1,0-.2-.1-.1-.2-.2-.3-.3h0Z"/>
        <path class="st0" d="M18.1,147.6c.2.2.3.3.4.3.3,0-.2-.6-.4-.6.1.1,0,.2,0,.3h0Z"/>
        <path class="st0" d="M35.8,60.2c-.3,0-.7-.5-.9-.2,0,.2.3.4.4.6.2-.3.6.2.9.4.6-.2.7-.2,1-.7-.2-.3-.1-.5-.5-.8-.7-.1-.4.4-.9.8h0Z"/>
        <path class="st0" d="M37.4,61.7c0-.2.3,0,.3-.2-.2-.2-.2-.3-.3-.4-.2.2,0,.4,0,.6h0Z"/>
        <path class="st0" d="M19.1,146.9c-1.3-1.6-1.9-2-3.6-3.3,0,.1,0,.2-.1.3.4,0,.3.4.5.7.1,0,.2,0,.3.2,0-.3-.4-.6-.3-.8.3.3.2.5.7.8-.1.3-.4.2.1.6-.3-.2-.4,0-.7-.4-.4.4,2.1,2.2,1.1,1.2.4,0,1.1,1.2,1.1.7.8.5.6,1,1.2,1.4.4.4.8.3,1.3.6,0,0,0,.1-.1.1.3.2,1.1.4.8.9-.1-.3-.7-.7-.8-.5.7.2,1.9,2,3.1,2.7.1.1,0,.2,0,.3,1.3.9,2.4,2.6,3.5,3.2,0,0-.1.1-.1.2.5,0,.7.4,1,.9-.5-.4-.4,0-.9-.6.5.6,1.2,1,1.4,1.7,0,0,.2-.1,0-.3.2,0,.6.7.7,1,.2,0,.8.5.6.1.6.6,1.3,1.2,2,1.9h0c.6,0,1.2,0,1.7,0,0-.1,0-.2-.3-.3,0,0-.2,0-.2-.1-.2-.2,0,.4-.3.2-.2-.2,0-.7-.3-.5-.9-1.4-2.3-2.6-4.1-4.2,0-.6-1.1-1.4-1.6-1.8-.2.1.7.5.3.6-.3-.3-.6-.5-.8-.7.7-.1-.9-1.2-1.2-1.5-.1.2.3.5.6.8-1.4-.5-2.1-2.3-3.5-3.2.1-.1-.2-.3-.1-.4-1.2-.6-1.8-1.8-2.8-2.4h0Z"/>
        <path class="st0" d="M29.1,158.9c-.2-.3-.8-.6-.6-.3,0,0,.5.6.6.3Z"/>
        <path class="st0" d="M14.9,143.5c0,.2.2.6.5.4,0,0-.3-.6-.5-.4Z"/>
        <path class="st0" d="M14.3,142.4c-.9-1.1-2-2.2-3-3.1v.3c0,.2,0,.5,0,.7,1.1.9,2.1,1.9,2.9,2.5-.1-.1,0-.2,0-.3.3.3.7.8.9.6-.1-.2-.3-.4-.5-.7-.1-.1-.2,0-.3,0Z"/>
        <path class="st0" d="M29.7,58.3c.3,0,.7.2.8.3,0-.5-.3-.6-.7-.7-.5,0-.9,0-1.3,0,.8.6,1.7,1.1,2.4,1.4,0-.6-.8-.7-1.2-1h0Z"/>
        <path class="st0" d="M30.5,58c0,0,0-.2,0-.2-.1,0-.2,0-.3,0,.1,0,.3.2.4.2h0Z"/>
        <path class="st0" d="M51.6,71.1s0,0,0,0c-1.5-5.8-4.9-9.8-10.2-11.7,0,.2.1.3.2.5-.4,2.1-.3,3.3-1.1,5,0,.1.3.3.3.5-.2,0-.4.3-.7,0,0,0,.3.3.2.4-.7-.1-.9.3-1.2.9-.1,0-.3-.1-.4-.3,0,.9-1.1.3-1.2,1.2-2.2-2.1-4.2-1.4-6.3-3.5.2-.3,0-.8-.2-1.2,1.4.5,3,1.4,4.4,1.8.2-.1,0-.3,0-.6-.2-.2-.2.3-.5,0,.7-.6-1.5-1.6-2.2-2.3-.2-.2,0-.4-.3-.7-.7-.3-1.7-1.1-2-1.6-.7-.4-1.5-.9-2.2-1.5-11.4,1.1-17.1,8-17.1,20.7v58.5c.1.1.2.3.4.4,1,.3,1.4,1.4,2.4,1.9.1.3.4.6.2.7.3,0,.4.1.6.5.3.2,0-.2.2-.2.7.8,1.4.6,2.1,1.2-.4.3-.8-.4-1.2-.4.3.4.7,1,1.2,1.3,0,0-.2,0-.2,0,.6.1,1,.6,1.4,1.2.2.1,0-.1.1-.2,1.3,1.5,2.9,2.5,4.4,4.3.1.1.2,0,.3-.1.6.6.7.6,1,1.1-.3-.7.5.5.6.8.2.2.2-.1.4,0,.3.4-.3.2,0,.6.5,0,.7.5,1.4.9.2.3-.5-.3-.6-.3-.3.2.4.6.7,1,.2.2.2-.2.4-.2.4.4,0,.6.7,1,.3.2,0-.3.3-.1,0,.6,1.1,1.2,1.5,1.9,0,0-.2-.1-.3-.2,0,.2.3.3.5.4,0,0,0-.2,0-.3.2.2.6.6,1,1.1.1.4-.5,0-.3.3.1,0,.3-.3.6.3-.2,0-.5-.2-.6.1.1.1.2.2.1.2.4.4.1-.4.5,0-.5.2.2.7.5,1.1-.1.1-.4-.4-.6-.5-.2.2.1.4.4.7.2.4-.6-.5-.7-.4.5.6,1.9,2,2.6,1.9.2.2.4.6.6.5.1.3.3.6.6.9,12.2-.8,18.3-7.8,18.3-20.9v-16.2h-14.4v16.2c0,4.5-2.1,6.8-6.3,6.8s-6.2-2.2-6.2-6.8v-60.9c0-4.5,2.1-6.8,6.2-6.8h.1c4.2,0,6.2,2.3,6.2,6.8v24.4h14.4v-24.4c0-2.6-.2-5-.7-7.1-.1-.2-.2-.4-.2-.5h0Z"/>
        <path class="st0" d="M29.9,160.5c.1,0,.2,0,.4,0-.2-.2-.4-.3-.4,0Z"/>
        <path class="st0" d="M15,144.5c.4.4.6.8.5,1.1-.2-.3-.3-.4-.5-.4.2.2.2.4.2.5.6.4,1,.5,1.6,1.2,0-.7-.9-1.2-1.5-2.1.1-.1.3.2.4,0-.3-.3-.6-.5-.7-.2h0Z"/>
        <path class="st0" d="M15.1,144.1c-.9-.3-1.9-1.8-3-2.4,0,.3,1.7,2.1,1.4,1.3.6.6.7.6,1.2,1.2.1,0,.4.1.4-.1h0Z"/>
        <path class="st0" d="M24.4,159.2c-2.3-1.5-3.3-3.7-5.6-5.3-.3.6-.3,1.1-1,.9,0,0,0,.1,0,.2.4.2.9.5.9,1-.5-.7-1-.8-1.6-1.2-.1.2-.5,0-.9-.1,0,.2.2.6.3.8,0,0,0,0,0,0,1.5,1.5,3.3,2.6,5.4,3.5-.2-.2-.4-.4-.5-.5.3.1.5.4.8.7.9.3,1.8.6,2.7.8-.2-.2-.4-.5-.5-.7h0Z"/>
        <path class="st0" d="M11.3,141.8c1.1.9,1.9,2.1,2.9,2.3-1.1-.8-2.1-1.9-2.9-2.6,0,.1,0,.2,0,.3h0Z"/>
      </g>
      <g>
        <path class="st0" d="M408.5,131.2h0c0,0,0,0,0,0,0,0,0,0,0,0Z"/>
        <path class="st0" d="M408.3,105.6c0,.2.1.4.2.6v-.8s-.2.1-.2.2Z"/>
        <path class="st0" d="M408.5,106.6h0c0,0,0,0,0,0,0,0,0,0,0,0Z"/>
        <path class="st0" d="M407.1,98.3c.1-.2,0-1-.2-.9,0,.3,0,.9.2.9Z"/>
        <path class="st0" d="M408.5,129.1v-1.6c0-.2-.1-.3-.2-.4,0,.3.2.9,0,.8,0-.5-.2-1.1-.4-1.8.2,0,.3.3.3-.2-.3-.2,0-.6,0-.9-.2,0-.3.5-.5,0,.2-.3.3-.8.3-1.3-.8-2.2-.9-5-1.3-6.5,0,.2-.1.2-.2.2,0-.5,0-1.2-.3-1.2,0,.3,0,.6,0,1,0,.2.2.1.2.3,0,2.8.5,5.9,1,8.3,0,0,0,0,0,0,0,.3,0,.5.1.8,0-.2-.1-.5-.2-.8,0,0-.2,0-.3,0,.4,1.8,0,3.2.6,4.8.5-.7-.1-2.8,0-4,.4.3,0,2.2.5,2.8,0-.8.2-.2.5-.2h0Z"/>
        <path class="st0" d="M406.5,115.9c0-.2.2-.7-.1-.8,0,0-.1.8.1.8Z"/>
        <path class="st0" d="M406.7,114.1c0,.5.1.9.5.7,0-.7,0-1.1.4-1.3,0,.4,0,.6.2.8,0-.3.1-.4.2-.7-.3-.8-.6-1.2-.6-2.3-.6.5-.1,1.8-.2,3.1-.2,0-.2-.4-.4-.3h0Z"/>
        <path class="st0" d="M408.2,156c0-.2.1-.2.2-.2,0-.2,0-.6-.2-.6.1.5-.6.2-.1.6,0,0,0,.1,0,.2h0Z"/>
        <path class="st0" d="M405.1,96.9c.1.3,0,1,.2,1.1-.1-.6.3-1.1-.2-1.1Z"/>
        <path class="st0" d="M406.5,109.9c0-.2.1-.2.2-.2,0-.3,0-.5-.2-.6-.3-.2-.3.7,0,.8Z"/>
        <path class="st0" d="M405.7,91.9c-.1,0,0-1-.4-.7,0,.4.3,1.2.4.7Z"/>
        <path class="st0" d="M408.5,121c0-.3-.2-.7,0-.7h0c-.3-1.7-.1-3.5-.9-4.5.4,1.8.5,4.1.9,5.1h0Z"/>
        <path class="st0" d="M407.9,157.5c.2,0,.2.2.4.1-1.4-1.6-.3-3.5-1.3-5.4.3.5.4.2.8.8.1,0,0-.3,0-.3.8,0,.2-1.8,0-2.7.3.2.4.9.6,1.3.2-.3.1-1.2-.3-1.1,0-.5,0-.7-.2-1.2,0-.5.1.8.4.7.3-.4,0-2.1-.1-2.2,0-.4-.1-.8,0-.6-.3-.8,0-1.3,0-1.8,0-.2-.4-.3-.4-.7,0-1.1-.2-3.5-.9-5.1,0-.1.2-.1.2-.4.3.2-.1.4,0,.8.5-.2.2-1.3.1-1.9,0,.1,0,.4-.2.4,0-.8.4-2.1-.2-2.5,0-.3,0-.3.2-.4-.1-.7-.1-.7-.2-1.1-.2,0-.1.1-.1.3-.5-.6,0-1.2-.4-2,.4,0,.1-.7.4-.9-.6-1.9-1.2-5.6-1.2-8.1-.7-1.1-.2-2.3-.7-3.6,0-.3,0-.8.4-.8-.2-.3-.3-.4-.2-.9,0-.4-.1.2-.4,0,0-1.3-.8-1.6-1-2.7.6,0,.4.9.8,1.3,0-.6.2-1.4,0-2.1,0,0,.2.1.3.1-.4-.5-.4-1.3-.4-2.2,0-.2-.1,0-.3,0,0-2.3-.7-4.5-.8-7.2,0-.2-.2,0-.4,0-.1-.9-.1-1.1-.1-1.7-.3.8-.1-.9,0-1.1,0-.3-.3,0-.4-.3,0-.6.5,0,.5-.6-.4-.3-.3-1-.6-1.8,0-.4.2.6.3.8.4,0,.1-.9,0-1.4,0-.3-.3,0-.5,0,0-.6.4-.6.2-1.5-.1-.4-.2.3-.4,0,.4-.6,0-2,0-2.9.1,0,.1.3.1.4.2-.2-.1-.5-.1-.8,0,0-.1.2-.1.3,0-.3-.1-1.1,0-1.7.1-.4.4.4.5,0-.1,0-.5,0-.4-.7.2.2.3.6.7.4,0-.2,0-.3,0-.3-.1-.7-.4.2-.4-.4.6.2.3-.8.4-1.3.2,0,.1.7.2.9.3,0,.2-.5.1-1,.1-.5.1.9.3.9,0-.9-.3-3.3-.9-3.7,0-.3.1-.9-.2-.9.4-1.1-.4-2.7-.2-3.3.1.2.2.6.4.7.2,0,.2-.4.4-.4-.3-2-.1-4.4-.7-6.2.2-1.4,0-1.9,0-3.5.3,2,.4,5.4.7,8,0,.6.6,1.7,0,1.9,0,.6.1,1.4.4,1.5,0,.4-.3.4-.1,1,0,.1.1.1.1.3,0,.3.3-.3.5,0,0,.3-.6.6-.1.7-.3,1.9.1,4.1.5,6.9-.4.6,0,2.2,0,2.8.3,0-.2-1,.2-.8,0,.5.1.9.2,1.2-.7-.4-.1,1.8,0,2.2.2,0,0-.7,0-1.1.9,1.5.2,3.7.7,5.6-.2,0,0,.5-.2.5.7,1.4.3,3,.8,4.3,0,2.4.2,3.3.8,5.8,0-.1.2-.2.3-.2-.4-.3,0-.6,0-1,0-.1-.1-.2-.1-.4-.2.3,0,.9-.3,1,0-.5.2-.6,0-1.3.3-.2.5.2.4-.7.1.3.4.4.4.9.6,0-.2-3.6,0-1.9-.3-.4,0-1.9-.5-1.5-.3-1.1.1-1.4,0-2.2-.1-.7-.6-.9-.7-1.5,0,0,.2,0,.2,0-.1-.4-.7-1.2,0-1.4-.1.4,0,1.2.4,1.1-.5-.8-.2-3.2-.7-4.8,0-.2.1-.2.2-.2-.5-1.8-.2-4.2-.7-5.6,0,0,.2,0,.3,0-.4-.4-.3-.8-.3-1.6.2.7.4.2.4,1.2,0-.9-.3-1.8,0-2.6-.1,0-.3,0-.2.2-.1-.2,0-1.1,0-1.4-.1-.2-.3-1.1-.4-.6-.1-1.1-.3-2.4-.5-3.6.4,0,.4.6.7.2.1,1.2,0,2.3.6,3.1,0,.2-.1.2-.2.2,0,.2.2,0,.2.3.1-.4.2-2.1-.3-2.3,0-.4,0-1.1,0-1.4.4,0,.7,0,.9,1-.2,0-.1-.5-.3-.4-.3,0-.1.3-.3.4.1.3.3,1.4.5.9.2.4-.1.3-.3.7.3.2.4.3.2.8.1.2.3.3.4.4,0,1.1.3,2.6.6,4.4,0,0-.1-.1-.2-.1.3.6.3,1,.5,2.2.1,0,.3,0,.2-.2.1,1,.6,2.8.9,3.8-.5-.1.2,1.1-.2,1.6.2.2.3.9.6.9,0,.7-.2-.3-.4.2.1.5.5,1,.6,1.5v-46.6h-14.4v99.6h14c0-.3-.2-.3-.3-.7h0Z"/>
        <polygon class="st0" points="416.6 41.8 401.4 41.8 395.7 54.7 408.6 54.7 416.6 41.8"/>
        <path class="st0" d="M407.4,117.5c0-.9-.2-1.2-.2-2-.2,0-.2-.4-.5-.2.6,1,.4,3.1,1,4.5.3-.3,0-3.1-.3-2.2h0Z"/>
      </g>
      <g>
        <path class="st0" d="M322.2,65.9c0-.2.1-1.1-.2-1.2,0,.2,0,1.3.2,1.2Z"/>
        <path class="st0" d="M333.9,67.2c-.2,0-.6-1.2-.5,0-.2-.2-.3-.8-.6-.7-.2,1.2.5,3,.2,4.3-.2-.2-.6,0-.6.4.8.2.9,1.9,1.5,2.5.1.5,0,.5,0,.8-.2-.9-.6-1.2-.8-2.3-.4-.2-.2.5-.3.7-.2-.2-.2-.7-.3-1.1-.2,0-.1.3-.4,0,0,.6.1.9.4.9.1,1,0,1.9.4,2.8-.5,1.4.3,3.6.6,5,.1.4-.1.3-.1.7.1,2.7,1.5,6.6,1.1,9.1.2.5.2,1.1-.2,1.1-.4-.5-.5-1.8-.9-2.2-.3.1-.5.3-.4.9.4.3,0,1.3.6,1,.3.2-.4.3-.5,0,.2,1.5-.3,2.4-.2,3.4-.5-.9,0-2.1-.3-3.9,0-.3-.4,0-.6,0-.4.1,0,1.2-.2,1.6-.4,0,0-1.2-.6-1.5.1-.8.1-3.3-.7-3.1-.8-8.6-3.7-16.7-4.1-24.5-.1-.3-.1.2-.3-.1.2-.5-.2-1.1-.1-1.6-.4.5,0,1.6.1,2.4.2.7,0,2,.3,2.8.3,1.3.5,3.8.8,5.9-.5.6,0,1.7,0,2.5-.4-.2-.5-2.1-.4-2.6-.4-.4-.6-.9-.9-1.8,0,0,.2,0,.3,0-.1-.2-.2-.5-.2-.9-.2,0-.2.2-.3.2.4-.5-.2-1.6-.5-2.2,0-.5.3.1.4,0,0-.6-.2-.6-.1-1.1,0-.4-.3,0-.2.2-.1-.5,0-.9-.3-1.6-.4-.1,0,.8-.3.4,0,1.1,0,2,0,3-.2-.1,0-2.2-.5-2.5-.2,1.1,0,2.5.3,3.6-.3-.2-.4-.6-.5-1.4,0,0,0,.2,0,.3-.1,0-.1-.3-.1-.5.2,1.4,0,1.9,0,3.5-.7-.2.1,1.6-.3,1.8,0-2.9-1.1-4-1-6.5,0-.2-.2-.4-.2-.1-.4-.5-.2-2.1-.6-2.6.5-.9-.2-2.4-.4-3.6.1-.8,0-2-.1-3.3-1.6-.2-3.3-.4-5.1-.4h-.3c0,0,0,.1,0,.2,0,0-.2,0-.2-.2-13.4.2-20.1,7.1-20.1,20.9v60.9c0,13,5.8,20,17.4,20.8.1,10.8,8,16.2,23.9,16.2v-12c-10.3,0-15.6-1.5-15.7-4.4,10.5-1.3,15.7-8.2,15.7-20.7v-60.9c0-5.7-1.1-10.2-3.4-13.5.2,1,.3,2.2.7,2.8h0ZM322.2,138.8c0,4.5-2.1,6.8-6.3,6.8s-6.2-2.2-6.2-6.8v-60.9c0-4.5,2.1-6.8,6.2-6.8h.1c4.2,0,6.2,2.3,6.2,6.8v60.9Z"/>
      </g>
      <g>
        <path class="st0" d="M117.1,62.6c.3-.6.5-1.9-.2-2.2.1,1,0,2.6.2,2.2Z"/>
        <path class="st0" d="M117.3,86.2c0-.4,0-1-.2-1.1,0,.4-.5.2-.3,1.1.2,0,.3,0,.5,0Z"/>
        <path class="st0" d="M117.8,67.6c-.6.3-.6,2.7-.1,3.3.3-.7,0-2.2.1-3.3Z"/>
        <path class="st0" d="M118.7,69.2c.1-1.1.2-2.1-.3-2.5,0,1,0,2.2.3,2.5Z"/>
        <path class="st0" d="M117.9,61.5c.2-.8.6.3.9,0,0-1.2,0-2.2-.3-2.9h-.4c-.1,1.5-.2,1.8-.2,2.9h0Z"/>
        <path class="st0" d="M119,65.9c0-.7,0-1.2-.5-1.1,0,.7,0,1.2.5,1.1Z"/>
        <path class="st0" d="M117.9,80.5c-.2,0-.4,0-.6,0-.6,1.4.1,2.7.7,3.6.3-1.4-.9-1.8-.5-2.5.2,0,.3,1.2.5.3-.5-.2,0-.9,0-1.4Z"/>
        <path class="st0" d="M117.4,65.4c0,.7,0,1.3.3,1.6.2-.4.3-1.9-.3-1.6Z"/>
        <path class="st0" d="M122.7,144V58.6h-3.7c0,.9.2,1.5.5,2.1-.6,1.8-.2,5.4.4,6.3-.4.9-.6,1.1-.1,2.2-.1-.2-.4-.2-.5-.5-.5,1.2-.5,1.7-.3,3.3-.4-.3-.7-.8-.9,0,.3,0,.7.9.2,1.7.5.9.9,1.7.7,3.3-.6-.2-.6-1.4-.3-2.2-.3,0-.3.3-.6.3.3,1.6.3,1.8.2,3.6.5.3.2-.9.3-1.4.5-.2,0,1.4.6,1.1-.2.7-1,.5-.9,1.7.8.3.1,0,.2,1.6.1-.2.2-.5.3-.8-.1,1.1-.3,3-.4,4.7.7.8-.1,1-.2-.3-.1,0-.2.3-.3.3-.3,1.1,0,1.6-.5,2.2.2.7.8,0,.6-.8.6.5-.4,2.1.5,1.9,0,.5-.8,1.4-.3,1.9,0,.8-.3-.3-.6,0,0,.9.7.6.7,1.6-.3-.3-.5-.9-1-1.1,0,1,.5,1,.5,1.9-.3,0-.2.8-.6.6.5-1,.1-1.3-.2-2.2-.4.4-.3,3.6.2,4.1-.2.5,0,1.8-.5,1.7-.1-.8.3-.8.2-1.7-.3,0-.3.2-.3.6-.4-.9.3-2.2,0-3.3,0-.4-.2.1-.5,0-.5-.7.4-2.1-.3-2.2.6-1,0-3.4-.2-4.7.7-1.1.3-2.8.4-4.4-.8.5-.3,1.6-.4,3.3-.6-.6.2-2-.2-3.3.7.3-.1-2,.8-1.4-.3-1.5-.2-2.1.1-3.6-1.2-1.1-.4-4.9-1-6,0-3.7,0-7.8,0-12.1h-6.6v99.6h37.3v-14.2h-22.9,0ZM118.4,90.3c.3,0,.4-.2.5-.6,0,0,0,2.2-.6,2.2.2-.7.3-.8.1-1.7h0ZM118.9,96.1c-.9-.2.6-1.6-.3-1.6,0-.4.4-.2.6-.3-.2,1-.2,1.2-.3,1.9ZM118.9,93.6c-.3.1-.4-.2-.6-.3,0-.6,1.1-.5.6-1.7.2-.8.3.6.5.5-.2.4-.5.6-.5,1.4h0Z"/>
        <path class="st0" d="M117.8,65.1c0-1.2.1-2.1.6-3-.5-.5-1.7,2.5-.6,3Z"/>
      </g>
      <polygon class="st0" points="100.3 66.6 92.2 58.6 85.9 64.9 79.6 58.6 73.3 64.9 67 58.6 59 66.6 67 74.7 73.3 68.4 79.6 74.7 85.9 68.4 92.2 74.7 100.3 66.6"/>
      <polygon class="st0" points="385.4 151.1 377.3 143.1 371 149.4 364.7 143.1 358.5 149.4 352.2 143.1 344.1 151.1 352.2 159.2 358.5 152.9 364.7 159.2 371 152.9 377.3 159.2 385.4 151.1"/>
    </g>
  </g>
</svg>
