<?xml version="1.0" encoding="UTF-8"?>
<svg id="Capa_1" xmlns="http://www.w3.org/2000/svg" version="1.1" viewBox="0 0 1019.3 170.7">
  <!-- Generator: Adobe Illustrator 29.3.1, SVG Export Plug-In . SVG Version: 2.1.0 Build 151)  -->
  <defs>
    <style>
      .st0 {
        fill: #fff;
      }
    </style>
  </defs>
  <g>
    <path class="st0" d="M120,55.4c.3,0,.3-2.2,0-1.5v-1.4s0-.3-.3-.3c.3.8,0,2.1.3,3.1h0Z"/>
    <path class="st0" d="M121.2,58.8c0,1.2.3,1.3.3,2.7h0c0,.6.4.5.5,0,0-.6,0-3.1-.6-2.7h-.1Z"/>
    <path class="st0" d="M121.6,66.4v-.6c0,.3-.3.6,0,.6Z"/>
    <path class="st0" d="M123.2,57.6s.3,0,.4,0c0-.4,0-1.5-.4-1.9v1s0-.3,0-.3v.3c0-.4.3-.5,0-.8-.4,1.5,0,3.2,0,4.5.4,0,0-1,0-1.4,0,.3,0,1,.3,1v-.6c-.3-.4,0-.5,0-1.4,0,0-.3.5-.3.3v-.4h0v-.3h0Z"/>
    <path class="st0" d="M119,40c0,0,0-.8,0-.5v.9c-.5-.4-.3,1.2-.3,1.5,0,0,0-.4,0-.8.5,1,0,2.6,0,3.9,0,0,0,.3,0,.3.4,1,0,2.1,0,3-.3,1.7,0,2.3,0,4h.3c-.3-.3,0-.4,0-.6v-.3c0,0,0,.6-.3.6,0-.3,0-.4,0-.9.3,0,.4,0,.3-.4,0,.3.3.3,0,.6.4,0,0-2.4,0-1.3,0-.3,0-1.3,0-1,0-.8.3-.9,0-1.5,0-.5-.3-.6-.4-1h0c0-.3-.4-.9,0-1,0,.3,0,.8,0,.8-.3-.5,0-2.2,0-3.3h0c-.3-1.3,0-2.8,0-3.9h0c-.3-.4,0-.6,0-1,0,.5.3.1,0,.9,0-.6,0-1.3.3-1.7h0c0-.1,0-.8,0-1,0,0,0-.8-.3-.4v-2.4c.3,0,0,.5.4.3,0,.9-.3,1.5,0,2.2h0s0,0,0,.3c0-.3.4-1.4,0-1.7,0-.3,0-.8,0-1,.3,0,.5,0,.5.8,0,0,0-.4,0-.3,0,0,0,.3-.3.3,0,.3,0,1,.3.6,0,.3,0,.3-.3.4,0,.3.3.3,0,.5,0,.1,0,.3.3.3v3h0c0,.4,0,.6,0,1.5h0c0,.6,0,1.9.3,2.7-.4,0,0,.8-.3,1,0,.1,0,.6.3.6,0,.5,0-.3-.3,0,0,.4.4.9.3,1.3h0c0,.3,0,.4,0,.8h0c0,0,0,.5,0,.6,0,.3-.3.6-.3,1s.3.5.3.9-.3,1,0,1.5c0,.3,0,.4,0,.6,0,1,0,2.1.4,3.2,0,0,.6.6.5,0,0,.6,0,1.9.5,1.2,0-.3,0-.5,0-.4,0-.8,0-1.8,0-2.6,0-2.4,0-4.8,0-7.1.6,0,.4-1.8.3-2.3,0-1.9,0-3.7,0-5.8h0c0-.3,0-.4,0-.3v-.8c-.6-3.7-1.9-6.8-3.6-9.4,0,.9,0,1.8,0,2.7,0,.4.3,1.2,0,1.3,0,.4,0,.9,0,1,0,.3-.3.3,0,.6v.3c0,.3.3-.1.3,0,0,.3-.5.4,0,.4-.4,1.3-.3,2.8-.3,4.8-.4.4-.3,1.4,0,1.9h0l.5-.4h0Z"/>
    <path class="st0" d="M118.4,93h0c0-.4,0-.5-.3-.6v.8h0v-.2Z"/>
    <path class="st0" d="M118.4,77.3c0,.3,0,.9,0,.9,0-.4,0-.8,0-.9Z"/>
    <path class="st0" d="M123.2,60.1v.8h-.3c0,.3,0,.5,0,.6,0-.3,0-.6.3-.4,0,1.2,0,3.1,0,4.2h0c0-2.2.4-3.7-.3-5.1h.2Z"/>
    <path class="st0" d="M121.3,40.9v-.6.6Z"/>
    <path class="st0" d="M119.6,113c0,0,0-.3-.3,0h0c0,0,0,.4,0,.4v-.6h0v.3h.2Z"/>
    <path class="st0" d="M119.8,64.5h-.3c0,.3,0,.5,0,.6,0-.4,0-.4,0-.8h0v.2Z"/>
    <path class="st0" d="M119.5,112.5c0,0,0,0,0,0,0-.3,0-.4,0-.5v.5Z"/>
    <path class="st0" d="M120.2,126.9c0-.5,0-.8,0-1,0,.3,0,1,0,1Z"/>
    <path class="st0" d="M120.2,125.7c0-.5,0-1,0-1.4-.4.3,0,1.2,0,1.4Z"/>
    <path class="st0" d="M120.3,118.7c0,1.3,0,2.4.3,3.2.3-1.2,0-2.2,0-3.5-.3,0-.4-.3-.5,0,0,.4,0,.9,0,1,0-.3,0-.6,0-.8h0Z"/>
    <path class="st0" d="M120.3,70.8c0-.3.3-.3.3-.9,0,0-.3,0-.3-.3,0,0,0,0,.3,0,0-.4,0-.8,0-1.3-.3,0,0,.5,0,.5v-1.5c0-.3,0,.3-.3,0,.3-.3,0-.6.3-.8,0-.8,0-1.6,0-2.3h.3c0,0,0-.6,0-.5v.5c0-1.3-.3-1.8-.6-.9.2,0,.3,0,.4.3,0,0-.3.6,0,.6v-.4c0,1.3,0,2.4,0,3.7.4.8,0,2.7.4,3.2h-.4Z"/>
    <path class="st0" d="M121.4,62c0,.3,0,.4,0,.4,0-.3,0-.5,0-.4Z"/>
    <path class="st0" d="M118.1,104.6c0-.4-.3-.5-.3-.3v.9c.4,0,0-.9.3-.5h0Z"/>
    <path class="st0" d="M117.7,95.4c0-.6,0-1.4,0-2.1h-.3c0,.4,0,.6,0,1.2.3,0,0,.6.3.9h0Z"/>
    <path class="st0" d="M116.8,91c0-.3.3-.9,0-1,0,.3,0,.5,0,.3v.6h0Z"/>
    <path class="st0" d="M118.5,141.7c0,.4,0,.8,0,1,0-.1,0,0,0-.3,0,0,0-.4,0-.6h0Z"/>
    <path class="st0" d="M117.6,93.2v-2.1c-.5,0-.3-.9-.5-1.2-.3.8,0,1.2.3,1.5-.3.4-.3,1.3,0,1.7h.3-.1Z"/>
    <path class="st0" d="M121.8,147.4c0-.3-.3-.3-.3-.5.3,0,.3-.1.5-.5,0-.3,0-1.2,0-1.5,0,.1,0,1-.3.9.3-.5,0-.8,0-1,.4.1.3-1.7,0-1.8,0-.4.4-.6,0-.8.3-.1.3-.8.3-1.2v.3c-.4-.3.3-1.2,0-1.5h0c0,0,0,0,0-.3,0-.3,0,0,.3,0,0-.3-.3-.6-.5-1,0,0,.3,0,.3-.5-.3.5-.4-.5,0-.5,0,0,0-.5-.3-.3,0,0,.4-.8,0-1,.3-.6,0-1.9-.3-2.1v-.6c0-.3-.3,0,0-.4,0,.6,0,1.4,0,2.3.3,0,0-.6.3-.6,0,.6.3.4,0,1v-.3c-.4.3-.5,1-.5,1.8,0-.4,0-1.2,0-1.4-.3-.5,0-1.9-.6-1.8.3-.6,0-1-.3-1.5.3-.5.3.5.4.6.3,0-.3-.6,0-1,0-.4,0,.4-.3,0,0-1,.3-2.3,0-3.2v.4c0-.2-.1-.3-.3-.3-.3,0,0-.5,0-.3,0-.3.3-.8,0-1.2h0v-.4.3c0-1.7,0-3.9,0-5.4,0-.3,0,0,0,.3,0,0,0-.8,0-.8-.3-.9,0-1.3-.3-2.3.4,0,0-1.4.3-1.3,0-.5-.3,0-.3-.3v-1.8h-.3c0-.4,0,0,0-.3-.3-.3,0-.8,0-1,0-.2,0-.2,0,0,0,0,0-.8-.3-.4,0,0,0-.5,0-.3,0,0,0,0,0,0,0-.8,0-1.8,0-2.6h0c0,0-.3-.6-.4-.3,0,0,0-.5,0-.6h-.4c0,.5,0,1.4.4,1.2,0,.3-.3,0,0,.4,0,.5.4.9.4,1.9,0,0,0-.6,0-.5,0,.3,0,1.2.3,1.4,0,0,0,0-.3.4.3.5,0,1.3.3,1.7,0,.3,0,.3,0,.5,0,.3,0,0,0-.3.3.6-.4,1.5,0,2.1,0,.3,0,0-.3,0,0,.5,0,.6,0,1.2,0-.5,0-.6,0-1.2.3.5,0,1.3,0,1.7,0,0,0,0,0-.3,0,.6,0,.4-.3.9,0,.3,0,.4,0,.5,0,0,0-.5,0-.6,0,0,0,.3.3.4-.3.3-.3.6-.4,1.2,0,0,0,0,.3,0,0,.2,0,.3,0,.3.3,1.4,0,3.2.3,5,0,1.2.3,2.3,0,3.1,0,.6.3,1.9,0,2.2v5.3s0,0,0-.3c0,0,0,.4,0,.5.3,0,0-.4.3-.3,0,.8,0,2.4,0,3.3,0,0,0-.4,0-.3,0,.5.4.4,0,.9,0,0,0-.1,0-.4-.3.4,0,1.2,0,1.3h0c0,.6-.3,2.4,0,2.6,0,.3,0,.1,0,.4,0,.1,0,.3.3.3h0,0c0,.1,0,1.2,0,1.9h2.4c0-.1,0-.4,0-.5v.3h0l-.4-1.2h0Z"/>
    <path class="st0" d="M119.3,131.5v.8c.3,0,.3-.8,0-.8Z"/>
    <path class="st0" d="M119.4,147.6h0c0-.4,0-.8-.3-.9v.9h.2Z"/>
    <path class="st0" d="M117.7,103.5c.3,0,0-.5.3-.6,0,0,0,0-.4,0,0,.5,0,1.2,0,1.8,0-.4.3-.9,0-1h0v-.2Z"/>
    <path class="st0" d="M118.4,80.3c0,0,0,.3,0,.4h0v-.4h0Z"/>
    <path class="st0" d="M116.9,86.9c0,.3,0,0-.3,0v.3-.4.6s.4-.4.3-.5h0Z"/>
    <path class="st0" d="M118.2,106.7c0-.3,0-.4,0-.5,0,0,0,.5,0,.5Z"/>
    <path class="st0" d="M117.5,89.8v.5h0c0,0,0-.5,0-.5Z"/>
    <path class="st0" d="M117.3,80.3h0v-.4c0,.4-.4,0,0,.4h0Z"/>
    <path class="st0" d="M117.2,85.2v-.3c0,0,0,0,0,.3,0,0,0,0,0,0h0c0,0,0,0,0-.3h0v.3Z"/>
    <path class="st0" d="M117.3,84.7c0-.3,0,0-.4,0,0,.4.3.3.4,0Z"/>
    <path class="st0" d="M121.1,68.7c0-.4.3-.6,0-.9v.9Z"/>
    <path class="st0" d="M118.9,109.1c0,.3,0,.6,0,.8,0-.3,0-.9,0-.8Z"/>
    <path class="st0" d="M119,82.7c0-1.2,0-3.2-.4-3.6,0,.8,0,2.7.4,3.6Z"/>
    <path class="st0" d="M118.7,107.6v.9-.9Z"/>
    <path class="st0" d="M118.5,92c0-.3,0-.6,0-1h-.3c0,.4,0,.8,0,.9h.2Z"/>
    <path class="st0" d="M119.5,52.7c0,0,.3-.5,0-.5,0,0,0,.5,0,.5Z"/>
    <path class="st0" d="M119,62.8c.4-.4,0-1.9.3-2.7.3.3,0,1.4,0,1.9,0-.6,0,0,.4,0,0-.3.3-1,0-1.4,0,.3,0,.6,0,.5,0-.4,0-.8,0-1.3,0,0,0,.3.3,0,0,0,0-.4,0-.6,0,0-.3.3-.3,0,0-.3.3-.5.3-.9-.4-1.5-.3-3.5-.4-4.5h0c0-.3,0-.9,0-.9v.6c0,0,0,0,0,.3-.3,1.9,0,4,0,5.7h0v.5-.5h0c0,1.3-.3,2.2,0,3.3h-.3Z"/>
    <path class="st0" d="M120.9,36.3s0-.6,0-.5c0,.3,0,.9,0,.5Z"/>
    <path class="st0" d="M118.4,81.6h0c0-.3,0-.6,0-.6v.6h0Z"/>
    <path class="st0" d="M118.6,144.3s0,.1.3.3c0-.5-.3-.9-.5-1.3,0,0,.3-1.2,0-1.3.3-.3.4-1.8,0-2.1.4-.3,0-1.2.3-1.7,0-.3,0,0,0,0,0-.4,0-.6,0-.9.3,0,0-.8.3-.8,0,0,0-.3,0-.3-.3-.3,0-.6,0-.8.4-.5,0-1.5,0-1.9s-.3-.3-.3-.6c.3-.8,0-1,0-2.1s0,.4,0,.3c0-2.4,0-5.3-.8-7.6-.3,0,0,.5-.3.4,0-.3,0-.7,0-1,0,0,0,.3,0,.3v-.4c0-.3,0,0,0,0v-.5c0-.4,0,0,0,0,0-.3,0-.3-.3-.3,0-.2,0-.3,0-.3-.3-1.3-.3-3.1-.3-4.5s0-.5,0-.4c0-.6,0-1.9.3-2.1-.4,0,0-.8,0-1.3.4,0,.4-1.2,0-1.5-.3.3-.3.9,0,1.4-.4-.6,0-2.2-.5-2.6,0-1,.3-1.7,0-2.7,0,0,.3,0,.4,0,0-.5,0,0-.4-.3,0-1-.4-2.3,0-3.7,0-.4,0,0-.3-.3v-2.2c0,0,.3-.3,0-.8v.3c0,0,0-.3,0-.4,0,0,0,0,0-.4,0,0,0,.4.3.3,0,.5,0,.9.3.9-.5.5.3,1,0,1.9.5,0,0-1,0-1.2,0-.4-.3-.5,0-.9,0,0,0,.4,0,.4,0,0,0-.8,0-1v.3c0,0,0-.9,0-.6,0-.3,0-.4,0-.5,0-.3,0-.4,0-.3,0-.3,0-.3,0,0,0-.3,0-.5,0-1-.4.6,0-.6,0-.9h0c0-.3.3,0,0-.4-.3-.4,0-1.7-.4-2.6h0v-.6s0,0,0,.4v-.6s0,.3.3.3v-1c0-.3,0,0-.3,0,0-.4.4-.9,0-1,0-.5-.5-.9-.5-2.2,0,.3,0,0,0,0,0,0,0-.3-.3-.4,0-.4,0-.3,0-.8,0,0,0,0,.3,0-.3-.3,0-.4-.3-.9,0,0,.4,0,0-.5,0,0,0-.6.3-.6,0-.3-.3,0,0-.4h.4v-.6c0,0,0,.4-.4.3,0-.6,0-2.1.4-1.9,0,0,0,0-.3,0,0-.4.3-.4.4-.4,0,.4,0,.3,0,.8.3-.6,0-1,0-1.7-.3,0-.4.3-.3.8,0,0,0-.5,0-.8,0,0,0,0,.3,0,0-.4,0-.4,0-.8h.3c-.8-1.3,0-2.4-.5-3.7,0,.4.3.3.4.6v-.3c.5,0,.3-1.2,0-1.8.3,0,.3.6.3,1,0-.3,0-.9,0-.8v-.9c0-.3,0,.5,0,.5.3-.3,0-1.4,0-1.5,0-.3,0-.5,0-.4,0-.5,0-.9,0-1.2,0,0-.3-.3,0-.5,0-.8,0-2.4-.3-3.6,0,0,0,0,0-.3.3,0,0,.3,0,.5.3,0,.3-.9.3-1.3,0,0,0,.3,0,.3,0-.5.5-1.4,0-1.7,0-.2,0-.3,0-.3v-.8.3c-.4-.4,0-.8-.3-1.4.3,0,0-.4.3-.5-.3-1.4-.3-3.9,0-5.7-.4-.8,0-1.7-.3-2.4,0-.3,0-.5.3-.5,0-.3,0-.3,0-.6,0-.3,0,0-.3,0,0-.9-.4-1.2-.5-1.9.4,0,0,.6.5,1,0-.4.3-1,0-1.4h0c-.3-.4,0-.9,0-1.5,0,0,0,0,0,0,0-1.5,0-3.1,0-5,0,0,0,0-.3,0v-1.2c-.3.5,0-.6,0-.8,0-.3-.3,0-.3-.3s.3,0,.4-.4c-.3-.3,0-.6-.3-1.3,0-.3,0,.4,0,.5.3,0,0-.6,0-1s-.3,0-.3,0c0-.4.4-.4.3-1,0-.3,0,.1-.3,0,.3-.4,0-1.4.3-1.9v.3c0,0,0-.4,0-.5v.3c0-.3,0-.8,0-1.2,0-.3.3.4.4,0,0,0-.4,0,0-.5,0,0,0,.5.4.3v-.3c0-.5-.3.1-.3-.3.4.1.3-.5.4-.9,0,0,0,.5,0,.6,0,0,0-.4,0-.6,0-.4,0,.6,0,.6,0-.6,0-2.2-.4-2.6,0-.3,0-.6,0-.6.4-.8,0-1.8,0-2.3,0,0,0,.4,0,.5,0,0,0-.3.3-.3,0-1.3.3-2.8,0-4.1-4.2-6.2-11.6-9.3-22-9.3-17.8,0-26.7,9-26.7,26.9v31.4h18.5v-31.4c0-5.8,2.7-8.6,8-8.8h0c5.3,0,8,2.8,8,8.8v46.2c-22.8,2.2-34.1,14.2-34.1,35.8s1.5,12.1,4.6,16.6c3.1,4.5,7.6,6.8,13.6,6.8s12.9-3.3,16.6-10l1.3,7.9h11.5c0-1.2,0-2.1,0-3.2h0l2.1-.5h0ZM105.3,114.8c0,11.2-4,17.1-12,17.8-2.4,0-3.7-2.8-3.7-8.4,0-8.2,5.3-13.6,15.7-16.2v6.8h0Z"/>
    <path class="st0" d="M116.8,101.4c0-.3,0-.5,0-.5,0,0,0,.3,0,.3v.8c.3,0,0-.4,0-.5,0,0,0,0,.3,0h-.1Z"/>
    <path class="st0" d="M116.6,103.2c0-.4,0-.5,0-.8,0,.4,0,.5,0,.8Z"/>
    <path class="st0" d="M117.3,108.7c0-.3,0-.4,0-.8-.3,0-.3.9,0,.8Z"/>
    <path class="st0" d="M123.5,39.5c0,1.8-.4,3.3,0,5.1,0,0,.3,0,.4-.1v-.3c0-1.7,0-3.2-.3-4.8h0Z"/>
    <path class="st0" d="M118.7,109.4c0-.6,0-.8-.3-1.2,0,.4,0,.9,0,1,0-.6,0,0,.3,0h0v.2Z"/>
    <path class="st0" d="M117.5,108.9c-.4,0-.4.4-.5.8.3,0,.3-.5.5-.8Z"/>
    <path class="st0" d="M120.7,131.2v1.4c0-.4,0-1.3,0-1.4Z"/>
    <path class="st0" d="M120.3,116.2v-.4h-.3c0,.3,0,.5.3.5h0Z"/>
    <path class="st0" d="M120.7,56.7c-.3-.4-.4,1.4-.3,2.2.3-.9,0-1.7.3-2.2Z"/>
    <path class="st0" d="M120.7,59.3s0-.4,0-.3c0,0-.3.4,0,.4,0-.4.3.3.3,0h-.2Z"/>
    <path class="st0" d="M120.5,129.6v.5-.5c0,.4,0,.6,0,.9,0-.4,0-.5,0-.9h0Z"/>
    <path class="st0" d="M120.5,56c0-1.2.3-2.3-.3-3.1,0,1.3,0,2.8,0,3.6,0-.3,0-.5,0-.4h.2Z"/>
    <path class="st0" d="M119.9,48.6h0v-.4c0,0-.3.5,0,.5h0Z"/>
    <path class="st0" d="M120.2,40.4c0-.4.3-.8,0-.8v.8Z"/>
    <path class="st0" d="M119.9,60.3c0,0,0,.4.3.4,0-.5-.3-.9,0-1.4-.3,0,0,.8-.3,1Z"/>
    <path class="st0" d="M119.8,51.6c0,.4,0,.6.3.5,0-.5,0-.8.4-.9v.5c0-.3,0-.3,0-.4,0-.5-.3-.9-.3-1.7-.4.3-.3,1.2-.4,2.1,0,0,0-.3-.3-.3h0v.2Z"/>
    <path class="st0" d="M120.3,62.8c0-.6,0-1.3,0-1.7,0,.6-.3.9-.3,1.5h.4v.2Z"/>
    <path class="st0" d="M120.5,132.2c0,0,0-.5,0-.6,0,.3,0,.6,0,.6Z"/>
    <path class="st0" d="M120.2,117c0-.5,0-.6,0-.8,0,.3,0,.9,0,.8Z"/>
    <path class="st0" d="M120.7,133.7c0-.3,0-.8,0-.8v.4c0,0,0,.3.3.3h-.2Z"/>
    <path class="st0" d="M120.4,125.5v1c0-.3,0-.5,0-.6-.3,0,0-.4,0-.3h0Z"/>
    <path class="st0" d="M120.5,124.6c0,0,0,.5,0,.5,0-.3,0-.4,0-.5Z"/>
    <path class="st0" d="M120.5,124.5v-.4c-.4,0,0-.9-.3-1v1.7c0-.5,0-.3,0,0v-.3h.2Z"/>
  </g>
  <path class="st0" d="M44.6,148h-25.5L6,64.8,0,19.2h18.8l13.1,99.2,13.1-99.2h18.8l-6,45.7-13.1,83.1h0Z"/>
  <path class="st0" d="M132.4,148V19.2h18.6v110.5h29.6v18.3h-48.2Z"/>
  <path class="st0" d="M188.3,148V19.2h18.6v110.5h29.6v18.3h-48.2Z"/>
  <path class="st0" d="M243.5,19.2h48.2v18.3h-29.6v36.9h25.5v18.4h-25.5v36.9h29.6v18.3h-48.2V19.2h0Z"/>
  <path class="st0" d="M378.7,19.2h48.2v18.3h-29.6v36.9h25.5v18.4h-25.5v36.9h29.6v18.3h-48.2V19.2Z"/>
  <g>
    <path class="st0" d="M498.3,123.4c0,17.6-8.4,26.7-25.4,27.3h-1.5c-.5-1-.5-2.2-1.7-2.2s-1.3,1.3-2.5,2.1c-.7,0-1.4-.1-2-.2-3.2-.5-6.1-1.4-8.5-2.5-2-1-3.7-2.3-5.2-3.8s-2.4-3.2-3.7-5.3c-.7-2.1-2.2-4.3-2.4-6.8-.6-2.5-.8-5.3-.5-8.3.7,0,.3-3.1,0-8.2.2-2.5.1-5.5.2-8.9.2-3.4.2-6.9-.2-10.7,1.3-3.8.9-7.7.3-11.7.1-3.9-.1-7.9-.3-11.7-.6-3.8-1.2-7.4,0-10.7,1-3.4.7-6.4,0-8.9.1-5.1-.5-8.2,0-8.2,0-3,.9-5.8,1-8.3,0-2.5,1.4-4.7,2-6.8,1-2,2.2-3.8,3.7-5.3s3.2-2.8,5.2-3.8,4.2-1.7,6.7-2.3c1.8-.3,3.6-.6,5.7-.7h1.3c2,.9.7,3.4.7,4.6,2.4,0,0-3.7,2-4,.2,0,.6-.3,1-.6.8,0,1.5,0,2.2,0,4.3.3,7.3,1.3,10.3,2.9,8,4,11.9,12,11.9,24.1,0,0-.3,3.5,0,8.2.2,4.7.2,10.5,0,15.2s.5,8.2,0,8.2h-9.4c-4.5,0-10.4,0-9.4,0s-.5-3.5,0-8.2c-.1-4.7-1-10.5,0-15.2v-8.2c-.5-2.9-.8-5.1-2.1-6.6-.9-.9-2.2-1.6-3.6-2-.7-.1-1.5-.2-2.4-.2.9,0-.6,0-.1,0-2.2,0-5,.7-6,2.2-1.3,1.5-1.6,3.7-2,6.6-.5,0-.2,3.1,0,8.2.9,5.1-.1,12,0,19.6.3,5.1.5,10.4.3,15.7,0,.7,0,1.3-.2,2-1,.9-1,2.1,0,3.9,0,.7,0,1.3-.1,1.8-.9,7.6.8,14.6,0,19.6v8.2c0,5.9,2.7,8.8,8.1,8.8s4.7-.7,6.1-2.2,2.1-3.7,2.1-6.6c-.6,0,.8-5.3,0-10.5-.2-5.3,1.2-10.5,0-10.5h18.7c-.6,0,.1,5.3,0,10.5v10.5h-.2v-.2Z"/>
    <path class="st0" d="M508,19h18.7v8c-.7,4.9,0,11.7,0,19.1,0,3.7-.2,7.5-.2,11.3s0,7.6.2,11.3c-.6,3.7.5,7.2-.2,10.4-.5,3.2-.2,6.1.2,8.5-1.3,4.9-.3,8,0,8h8.2c3.9,0,9.5,0,8.2,0,.6,0,0-3.1,0-8-.3-2.4.2-5.4,0-8.5.6-3.2,0-6.7,0-10.4,0-7.4.6-15.4,0-22.8.6-7.4,0-14.1,0-19.1v-8h2.9c2.5,3.8,5,0,6.7-.8.3.7.9.8,1.5.8h7.6v40.9c0,7.6.3,15.7,0,23.8-.6,8.1-.5,16.2,0,23.8.2,7.6-.7,14.7,0,20.7-.2,6-.6,11.1,0,14.7,0,3.6,0,5.5,0,5.5h-18.7s1-3.8,0-8.9c.5-2.5.9-5.4,0-8.2-.3-2.9.3-5.7,0-8.2.5-5.1-.8-8.9,0-8.9s-3.8,0-8.2,0-8.8,0-8.2,0c0,0-1,3.8,0,8.9v25.3h-4.9c-.3,0-.7,0-1-.1-1.8-3.6-3.1-1.2-5.5-.5-.9.7-1.6.7-2.3.7h-4.7c.1,0,0-2.1,0-5.5-.1-1.7-1-3.9,0-6.4.2-2.4-.3-5.2,0-8.3.5-3,.2-6.4,0-9.8-.2-3.5-.3-7.2,0-11,.2-3.8,0-7.7-.2-11.7-.3-3.9.7-8,.2-12-.6-4,1-8.1,0-12-.8-3.9-.8-7.9,0-11.7.5-3.8.2-7.4-.1-11,.2-3.5.2-6.7.1-9.8-.2-6-.2-11.1,0-14.7v-5.5h-.3Z"/>
    <path class="st0" d="M625.6,96.6c-.2,6-1.6,11.1-3,15.1-2.1,4-4.9,7-8.9,9.1-3.5,1.7-7.7,2.8-12.7,3h-2.2c0-1.3,0-2.5-1.3-3.7,0,0-1.3,1.3-.9,1.5-.3,1.4-.7,1.7-1,2.2-4.5-.3-8.4-1.3-11.7-2.9-3.2-2.1-6.1-5.1-8.9-9.1-2.4-4-3.1-9.1-3-15.1,0,0,.3-3.2,0-8.2v-18c.5-6.6-.2-13.1,0-18,.6-4.9,0-8.2,0-8.2,0-6,1.6-11.1,3-15.1s4.3-7,8.9-9c3.5-1.7,7.7-2.8,12.7-3h4.4c5,.2,9,1.2,12.7,3,4.3,2,7.3,5.1,8.9,9,2.4,4,2.3,9,3,15.1,0,0,0,3.2,0,8.2-.2,4.9,0,11.4,0,18-.2,6.6,0,13.1,0,18,.9,4.9.2,8.2,0,8.2h0ZM607,44.2c-.5-2.9-.7-5.1-2.1-6.6-1-1-2.4-1.8-4.2-2.1-.3,0-.6,0-.9-1,.2-3-2.2-4.3-1-6.7,1.3,2.4-1.3,3.7-1.4,6.5-.2.5-.5.8-.6,1.3-.6,0-1.2.2-1.6.5-1,.3-1.8.9-2.5,1.6-1.4,1.5-2.1,3.7-2,6.6v8.2c-.5,4.9,0,11.4,0,18,.5,6.6,0,13.1,0,18,.5,4.9.2,8.2,0,8.2,0,2.9.6,5.1,2.1,6.6s1.5,1.3,2.5,1.6c.5.2,1,.3,1.6-.7.6-.9,1.3.3,1.8,1.2.7,0,1.3,0,2,0,1.8-.2,3.2-.9,4.2-2.1,1.6-1.5,1.3-3.7,2.1-6.6.3,0-.5-3.2,0-8.2.3-4.9.2-11.4,0-18s.5-13.1,0-18c0-4.9-.5-8.2,0-8.2h0Z"/>
    <path class="st0" d="M675.1,110.8s2.2,4.2,5,9.7c5.8,11.2,14.3,27.8,14.3,27.8h-20.4s-1.8-3.8-4.3-8.9c-3-5.1-5.4-11.4-8-16.5-2.1-5.1-4.6-8.9-4.3-8.9s-2.9,0-2.5,0-.9,3.8,0,8.9c0,5.1.3,11.4,0,16.5-.5,5.1.5,8.9,0,8.9.2,0-5.2,0-9.4,0h-9.4v-40.9c0-7.6.9-15.7,0-23.8.5-8.1.5-16.2,0-23.8,0-7.6.8-14.7,0-20.7-.7-6,0-11.1,0-14.7v-5.5h25.5c0,0,1.2,0,1.6,0h1.4c2.2,0,4.3.3,6.2.8,2.3.5,4.4,1.3,6.2,2.3,2.7,1,3,2.3,4.9,3.8,2.1,1.5,2.8,3.2,3.4,5.3,1,2,1.6,4.3,2,6.8.2,2.5,0,5.3.8,8.3,0,0-.3,1.2,0,3,0,1.8,0,4.5,0,7.5.2,3,0,6.4,0,9.8-.2,3.4-.3,6.8,0,9.8.6,3,0,5.7,0,7.5s.3,3,0,3c0,2,.5,3.7-.3,5.4-1,1.7-.7,3.4-1,4.9-1.3,3-2.2,5.7-4.4,8-1.5,2.3-4.7,4.2-7.3,5.7h0ZM654.7,37.4c.2,0-.3,3.7,0,9.2,0,5.5.7,12.9,0,20.2.2,3.7,0,7.4,0,10.9,0,3.5-.2,6.7,0,9.5-.3,5.5,1.3,9.2,0,9.2s3.8,0,4.3,0c2.2,0,4.2,0,5.3-.6,1.7-.7,3-1.7,3.8-3.1s1.3-3.1,1.3-5.2v-41.2c0-4.9-1.8-7.7-5.7-8.5-.2,0-.3-.1-.6-.5-.5-2.1.8-4.5-1.7-6.9,0,2.4,0,5-1.2,7.2h-5.5v-.2Z"/>
    <path class="st0" d="M748.8,123.4c-.3,6-.8,11.1-3,15.1-2.2,4-5.3,7-8.9,9.1-3,1.5-6.5,2.4-10.6,2.9-.7,0-1.4.1-2.1.1-1-.9-2.3-2.2-2.3-3.4,0,1.3,0,2.4-1.4,3.5h-1.4c-15.9-.9-23.9-10.1-23.9-27.1,0,0,0-3.1,0-8.2.3-2.5.3-5.5,0-8.9.3-3.4,0-6.9,0-10.7-.5-3.8,0-7.7,0-11.7.3-3.9-.5-7.9,0-11.7.2-3.8.6-7.4,0-10.7-.7-3.4,0-6.4,0-8.9-.5-5.1,0-8.2,0-8.2,0-3,.5-5.8,1-8.3.8-2.5,1.2-4.7,2-6.8,1-2,2.2-3.8,3.7-5.3s3.2-2.8,5.2-3.8c3.9-2,8.9-3,14.9-3s11,1,14.9,3,6.9,5.1,8.9,9c2,4,3.2,9,3,15.1,0,0,1.3,3.1,0,8.2.3,2.5,1,5.5.3,8.9-.5,3.4-.3,6.9-.3,10.7-.5,3.8-.8,7.7-.5,11.7-.8,3.9.6,7.9.5,11.7-.7,3.8-.7,7.4-.3,10.7,0,3.4.3,6.4.3,8.9-.6,5.1,0,8.2,0,8.2h0ZM730,44.2c0-3.8-1.2-6.5-3.6-7.7-.6-.3-1.3-.6-2.1-.8,0-1.6,0-2.9-1.4-2.9-2.4-1.3,0,2.4-2.5,2.5-.5.2-.8.2-1.2.3-3.7.8-5.5,3.7-5.5,8.5v79.1c0,5.9,2.7,8.8,8.1,8.8s8.2-2.9,8.2-8.8v-8.2c-.5-5.1-.8-12,0-19.6-.5-7.6.5-15.8,0-23.5-.6-7.6,0-14.6,0-19.6v-8.2h0Z"/>
    <path class="st0" d="M793.7,85.5s-6.1-10.4-10.9-18.5c-.2-.5-.6-.9-.8-1.3-1.2.2-1.2-.9-1.5-2.8-.5-.8-.9-1.6-1.3-2.2-1.2-2.1-2-3.4-2-3.4v33.6c0,13.1,1.3,27.8,0,41.7v15.8h-18v-5.5c0-3.6,0-8.5,0-14.7.3-6,.5-13.2,0-20.7-.2-7.6,0-15.7,0-23.8.2-8.1.2-16.2,0-23.8.2-7.6,0-14.7,0-20.7-.3-6,.5-11.1,0-14.7-.3-3.6,0-5.5,0-5.5h14.7s2.8,4.7,6.2,10.5c.2.5.6,1,.9,1.8,0,3.7,0,7.3,4.6,7.4.3.5.6,1,.9,1.5,3.9,6.6,7.2,12,7.2,12l19.8-33.4h14.7v5.5c-.3,3.6.5,8.5,0,14.7.6,6,.6,13.2,0,20.7-.2,3.8,0,7.7,0,11.7-.3,3.9,0,8,0,12,0,4,.2,8.1,0,12-.3,3.9,0,7.9,0,11.7-.5,3.8.3,7.4,0,11,0,3.5-.5,6.8,0,9.8-.6,6,0,11.1,0,14.7v5.5h-18s-.3-2.5,0-6.7c.7-4.2.7-10.2,0-16.9-.3-6.7,0-14.3,0-21.9-.8-7.6-.7-15.2,0-21.9.5-6.7.5-12.7,0-16.9-.3-4.3,0-6.7,0-6.7-.2,0-2,3.1-4.3,7.3-2.7,4.2-5.1,9.4-8,13.5-2.4,4.2-4.3,7.3-4.3,7.3h0v.3Z"/>
    <path class="st0" d="M892.1,123.4c.8,2,0,3.9-.3,5.7-.2,1.8-.6,3.5-.9,5.1-1.3,3.1-2.8,5.8-3.9,8.1-2.3,2.2-3.9,4-6.6,5.4-3,1.5-6.5,2.4-10.6,2.9-.7,0-1.4.1-2.1.2-1.8.1-3,.1-3.9,0-.6-.1-1.2-.1-1.7-.2-2.4-.2-5.1-.6-7.2-1.2-6.1-1.8-10.6-5.4-13.2-10.7-1-2.1-1.7-4.3-2.2-6.8s-.7-5.3-.7-8.3c-.6,0,.7-3.5,0-8.5,0-2.5-.2-5.5,0-8.8-.2-3.2-.9-6.7,0-10.1,0-3.5.7-6.8,0-10.1,0-3.2-.6-6.2,0-8.8v-8.5c-.5-3,.2-5.8.8-8.3.2-2.5,1.3-4.7,2.1-6.8,1.5-2,2.5-3.8,3.7-5.3,1.5-1.5,3.5-2.8,5.2-3.8,2.2-1,4.4-1.7,6.7-2.3,1.8-.3,3.7-.6,5.9-.7h4.5c2.2,0,4.2.3,6,.7.6.1,1.3.2,1.8.3,2.5.2,5.1.2,6.6,2.9.6.5,1.2.8,1.6,1.3,1,.9,2.1,2,3.2,3,1.5,2.2,2.7,5,3.9,8.1,1.4,1.5,0,3.2.9,5.1-.2,1.8.6,3.7.3,5.7.5,0,0,3.5,0,8.5s.2,5.5,0,8.8c1.2,1.6,0,3.2,0,5,.5,1.7.6,3.4.2,5.1,0,1.7,1.3,3.5.6,5.1-.8,1.7-.2,3.4,0,5-1.2,3.2.7,6.2-.7,8.8.5,5.2.9,8.5,0,8.5h.1ZM873.5,68.4c-.2-2.9-.6-5.1-2.1-6.6-.2-.3-.6-.7-1-.9s-.9-.5-1.4-.9c-3.2-.2-.8-3.8-3.2-5.1,1.3,2.4-1.3,3.7-2.5,4.4-.9.6-1.6.9-2.2,1.3s-1.2.8-1.7,1.4c-1.6,1.5-1.5,3.7-2,6.6,0,0-.5,3.5,0,8.5-.5,2.5,0,5.5-.2,8.8,0,3.2,0,6.7.2,10.1.3,3.5.5,6.8.3,10.1,0,3.2-.2,6.2-.3,8.8.2,5.2.5,8.5,0,8.5-.2,2.9.8,5.1,2.1,6.6.5.6,1.2,1,2,1.4,2,2.3,3.2,4.7,4.5,7.3,2.4-1.3,1.3-5,3.4-6.6.6-.5,1-.7,1.4-1s.7-.6.9-.9c1.5-1.5,2.1-3.7,2.1-6.6-.2,0,0-3.5,0-8.5.2-2.5.2-5.5,0-8.8.2-3.2,0-6.7,0-10.1.8-3.5.7-6.8-.3-10.1,0-3.2,0-6.2.3-8.8-.2-5.2.6-8.5,0-8.5h0v-.2l-.3-.2Z"/>
    <path class="st0" d="M941.6,110.8s2.2,4.2,5,9.7,6.5,12.6,9.2,18.1c2.9,5.5,5,9.7,5,9.7h-20.4l-16.6-34.3h-2.5v34.3h-18.6v-5.5c0-3.6.5-8.5,0-14.7.5-1.5.3-3.1.2-4.7s-.3-3.4-.2-5.1c-.7-1.7-.7-3.6-.6-5.3-.3-1.8.5-3.7.6-5.5.5-1.8.3-3.8,0-5.8.2-2,.6-3.9,0-5.9.2-2-.9-4-.5-6,.6-2,0-4,.3-6,0-2.1,1.7-4,.2-6-.9-2,1.4-4,0-6,.3-2-.6-3.9.2-5.9-.9-2,.6-3.9-.3-5.8,1.2-1.8-.3-3.7,0-5.5,0-1.8-.2-3.6,0-5.3.5-1.7.7-3.5.3-5.1,0-1.6,0-3.2-.3-4.7.6-3,.9-5.8,0-8.3.7-2.4.2-4.6,0-6.4-.3-3.6.5-5.5,0-5.5h17c2.7,3.7,6.4,2.5,8.3.2,1.2-.3,1.8-.3,1.8-.3,5.5,0,10.2,1,13.9,3,3.7,2.1,6.5,5.1,8.3,9.1,2.1,4,2.9,9,2.8,15.1.7,0,.5,4.5,0,10.5.7,6-.3,13.5,0,19.5.5,6,.2,10.5,0,10.5-.3,3.8,0,7.3-1.5,10.3-1,3-2.7,5.7-4.4,8-2.3,2.3-4.4,4.2-7.3,5.7h0ZM921.2,37.4v29.5c-.2,7.4.3,14.7,0,20.2.2,5.5,0,9.2,0,9.2h4.3c2.5,0,4.4,0,5.3-.6,3.4-1.4,5.1-4.2,5.1-8.2v-41.2c0-5.9-2.7-8.9-8.1-8.9,0,0-6.6,0-6.6,0Z"/>
    <path class="st0" d="M1015.3,123.4c.2,3,0,5.8-.5,8.3-.9,2.5-.9,4.7-2.4,6.8-1.2,2-2.1,3.8-3.5,5.3s-3.2,2.8-5.4,3.8c-3.9,2.1-8.9,3-14.9,3s-10.9-1-14.9-3c-3.9-2.1-6.9-5.1-8.9-9.1-2.3-4-2.5-9.1-3-15.1.2,0,.5-3.1,0-8.2,0-5.1,0-12,0-19.6s.2-15.8,0-23.5c.5-7.6-.2-14.6,0-19.6,0-5.1-.7-8.2,0-8.2.7-6,1.3-11.1,3-15.1,2-4,5-7,8.9-9,3.5-1.7,7.7-2.8,12.7-3h2.2c1-.2,2,0,2.9,0,.9,0,1.8,0,2.8.2,3.6.5,6.6,1.4,9.2,2.7.7.3,1.3.7,1.8,1.2,2,3,3.1,6.7,7,8,.5.5.8.9,1,1.5.7,1.6.7,3.4,1.2,5.2.7,2.5.2,5.3.7,8.3.9,0,1.6,3.1,0,8.2-.5,2.5.2,5.5,0,8.9,0,3.4-.2,6.9,0,10.7.5,3.8-.2,7.7-.2,11.7.5,3.9.3,7.9.2,11.7-.2,3.8.8,7.4,0,10.7-.5,3.4-.2,6.4,0,8.9.8,5.1,1.2,8.2,0,8.2h0v.2h.1ZM996.5,44.2c0-2.9-.7-5.1-2.1-6.6-.5-.5-1-.9-1.6-1.3-.6-2.4-1.7-4.9-4.3-4.9-1.3,1.3-1.3,2.4-2.8,4-.8.3-1.5.6-2.1.9-2.4,1.3-3.6,3.9-3.6,7.9v79.1c0,5.3,2.2,8.2,6.6,8.7h.7c1.2-3.2,3.6.5,6-1.3.3-.2.6-.5.9-.8,1.4-1.5,2.1-3.7,2.1-6.6v-8.2c1-5.1,0-12,0-19.6-.5-7.6.7-15.8,0-23.5v-27.8h.2Z"/>
    <path class="st0" d="M625.6,138l-10.4-10.4-6.9,6.9-.7.7c-2,1.7-2-4.7-4.7-3.5l-.5-.5-3.6-3.6-8.2,8.2-8.2-8.2-10.4,10.4,2.9,2.9c0,0,.3.3.5.5,1.7,0,3.9,2.2,3.8,3.8l.5.5,2.9,2.9,3.1-3.1.5-.5c0-1.4,2.1-3.6,3.9-3.9l.6-.6,8.2,8.2,8.2-8.2,8.2,8.2,10.4-10.4h0v-.3h0Z"/>
    <path class="st0" d="M892.4,29.6l-2.9-2.9c0-.1-.3-.3-.5-.5-3.6,1.3-1.4-5.2-4.7-4.7,0,0-.2-.2-.5-.3-1.2-1.2-2-2-2-2l-8.2,8.2-8.2-8.2-8.2,8.2-1.7-1.6-.5-.5c-.5-2-2.7-4.2-3.9-3.9,0,0-.3-.2-.5-.5-1-.9-1.7-1.7-1.7-1.7l-10.4,10.4,10.4,10.4,8.2-8.2s1.2,1.2,2.5,2.5c0,.1.3.3.5.5-1.3,1.5,5.3,1.5,3.8,3.8.2.2.5.5.7.7l.6.6,8.2-8.2,8.2,8.2,10.4-10.4h.4Z"/>
  </g>
  <path class="st0" d="M368.9,121.9c-.3,5.8-.8,10.8-2.9,14.7-2.1,3.9-5.2,6.8-8.6,8.9-2.9,1.5-6.3,2.4-10.3,2.8-.7,0-1.3.1-2,.1-1-.9-2.2-2.1-2.2-3.3,0,1.2,0,2.4-1.3,3.4h-24.6v-26.3s.1-3,0-8c.3-2.5.3-5.4,0-8.6.3-3.3,0-6.7,0-10.4-.4-3.7,0-7.5-.1-11.3.3-3.8-.4-7.6.1-11.3.2-3.7.6-7.2.1-10.4-.7-3.3,0-6.2-.1-8.6-.4-4.9,0-34.4,0-34.4h26c5.8,0,10.6,1,14.5,2.9,3.8,1.9,6.7,4.9,8.6,8.7,1.9,3.9,3.1,8.7,2.9,14.7,0,0,1.2,3,0,8,.3,2.5,1,5.4.3,8.6-.4,3.3-.3,6.7-.3,10.4-.4,3.7-.8,7.5-.4,11.3-.8,3.8.6,7.6.4,11.3-.7,3.7-.7,7.2-.3,10.4,0,3.3.3,6.2.3,8.6-.6,4.9,0,8,0,8h0v-.2ZM350.7,45.1c0-3.7-1.1-6.3-3.5-7.5-.6-.3-1.2-.6-2-.8-.1-1.6-.1-2.8-1.3-2.8-2.4-1.2,0,2.4-2.5,2.5-.4.2-7.6.1-7.6.1v85.3l.2,8.5h8.8c5.3,0,8-2.8,8-8.5v-8c-.4-4.9-.8-11.7,0-19.1-.4-7.4.4-15.4,0-22.8-.6-7.4,0-14.1,0-19.1v-8h0v.2Z"/>
</svg>