<?xml version="1.0" encoding="UTF-8"?>
<svg id="Capa_1" xmlns="http://www.w3.org/2000/svg" version="1.1" viewBox="0 0 522 185.4">
  <!-- Generator: Adobe Illustrator 29.3.1, SVG Export Plug-In . SVG Version: 2.1.0 Build 151)  -->
  <defs>
    <style>
      .st0 {
        fill: #fff;
      }
    </style>
  </defs>
  <g id="Capa_11" data-name="Capa_1">
    <g>
      <path class="st0" d="M60.4,152.6c0,15.2-7.3,23.1-22,23.6-.4,0-.8,0-1.3,0-.4-.9-.4-1.9-1.5-1.9s-1.1,1.1-2.2,1.8c-.6,0-1.2-.1-1.7-.2-2.8-.4-5.3-1.2-7.4-2.2-1.7-.9-3.2-2-4.5-3.3s-2.1-2.8-3.2-4.6c-.6-1.8-1.9-3.7-2.1-5.9-.5-2.2-.7-4.6-.4-7.2.6,0,.3-2.7,0-7.1.2-2.2.1-4.8.2-7.7.2-2.9.2-6-.2-9.3,1.1-3.3.8-6.7.3-10.1.1-3.4-.1-6.8-.3-10.1-.5-3.3-1-6.4,0-9.3.9-2.9.6-5.5,0-7.7.1-4.4-.4-7.1,0-7.1,0-2.6.8-5,.9-7.2,0-2.2,1.2-4.1,1.7-5.9.9-1.7,1.9-3.3,3.2-4.6,1.3-1.3,2.8-2.4,4.5-3.3,1.7-.9,3.6-1.5,5.8-2,1.6-.3,3.1-.5,4.9-.6.4,0,.7,0,1.1,0,1.7.8.6,2.9.6,4,2.1,0,0-3.2,1.7-3.5.2-.1.5-.3.9-.5.7,0,1.3,0,1.9.1,3.7.3,6.3,1.1,8.9,2.5,6.9,3.5,10.3,10.4,10.3,20.9,0,0-.3,3,0,7.1.2,4.1.2,9.1,0,13.2-.2,4.1.4,7.1,0,7.1h-8.1c-3.9,0-9,0-8.1,0s-.4-3,0-7.1c-.1-4.1-.9-9.1,0-13.2,0-4.1,0-7.1,0-7.1-.4-2.5-.7-4.4-1.8-5.7-.8-.8-1.9-1.4-3.1-1.7-.6-.1-1.3-.2-2.1-.2.8,0-.5,0-.1,0-1.9,0-4.3.6-5.2,1.9-1.1,1.3-1.4,3.2-1.7,5.7-.4,0-.2,2.7,0,7.1.8,4.4-.1,10.4,0,17,.3,4.4.4,9,.3,13.6,0,.6,0,1.1-.2,1.7-.9.8-.9,1.8,0,3.4,0,.6,0,1.1-.1,1.6-.8,6.6.7,12.6,0,17v7.1c0,5.1,2.3,7.6,7,7.6s4.1-.6,5.3-1.9,1.8-3.2,1.8-5.7c-.5,0,.7-4.6,0-9.1-.2-4.6,1-9.1,0-9.1h16.2c-.5,0,.1,4.6,0,9.1v9.1h0Z"/>
      <path class="st0" d="M68.8,62.3h16.2v6.9c-.6,4.2,0,10.1,0,16.5-.1,3.2-.2,6.5-.2,9.8s0,6.6.2,9.8c-.5,3.2.4,6.2-.2,9-.4,2.8-.2,5.3.2,7.4-1.1,4.2-.3,6.9,0,6.9h7.1c3.4,0,8.2,0,7.1,0,.5,0,0-2.7,0-6.9-.3-2.1.2-4.7,0-7.4.5-2.8,0-5.8,0-9,0-6.4.5-13.3,0-19.7.5-6.4,0-12.2,0-16.5v-6.9h2.5c2.2,3.3,4.3.1,5.8-.7.3.6.8.7,1.3.7h6.6v35.4c0,6.6.3,13.6,0,20.6-.5,7-.4,14,0,20.6.2,6.6-.6,12.7,0,17.9-.2,5.2-.5,9.6,0,12.7.1,3.1,0,4.8,0,4.8s-4.4,0-8.1,0h-8.1c0,0,.9-3.3,0-7.7.4-2.2.8-4.7,0-7.1-.3-2.5.3-4.9,0-7.1.4-4.4-.7-7.7,0-7.7s-3.3,0-7.1,0-7.6,0-7.1,0c0,0-.9,3.3,0,7.7v21.9h-4.2c-.3,0-.6,0-.9-.1-1.6-3.1-2.7-1-4.8-.4-.8.6-1.4.6-2,.6h-4.1c.1,0,0-1.8,0-4.8-.1-1.5-.9-3.4,0-5.5.2-2.1-.3-4.5,0-7.2.4-2.6.2-5.5,0-8.5-.2-3-.3-6.2,0-9.5.2-3.3,0-6.7-.2-10.1-.3-3.4.6-6.9.2-10.4-.5-3.5.9-7,0-10.4-.7-3.4-.7-6.8,0-10.1.4-3.3.2-6.4-.1-9.5.2-3,.2-5.8.1-8.5-.2-5.2-.2-9.6,0-12.7v-4.8h0Z"/>
      <path class="st0" d="M170.6,129.4c-.2,5.2-1.4,9.6-2.6,13.1-1.8,3.5-4.2,6.1-7.7,7.9-3,1.5-6.7,2.4-11,2.6-.6,0-1.2,0-1.9,0,0-1.1,0-2.2-1.1-3.2,0,0-1.1,1.1-.8,1.3-.3,1.2-.6,1.5-.9,1.9-3.9-.3-7.3-1.1-10.1-2.5-2.8-1.8-5.3-4.4-7.7-7.9-2.1-3.5-2.7-7.9-2.6-13.1,0,0,.3-2.8,0-7.1,0-4.2,0-9.9,0-15.6.4-5.7-.2-11.3,0-15.6.5-4.2,0-7.1,0-7.1,0-5.2,1.4-9.6,2.6-13.1,1.2-3.5,3.7-6.1,7.7-7.8,3-1.5,6.7-2.4,11-2.6.3,0,.6,0,.9,0s.6,0,1,0c.3,0,.6,0,1,0s.6,0,.9,0c4.3.2,7.8,1,11,2.6,3.7,1.7,6.3,4.4,7.7,7.8,2.1,3.5,2,7.8,2.6,13.1,0,0,.1,2.8,0,7.1-.2,4.2,0,9.9,0,15.6-.2,5.7,0,11.3,0,15.6.8,4.2.2,7.1,0,7.1ZM154.5,84.1c-.4-2.5-.6-4.4-1.8-5.7-.9-.9-2.1-1.6-3.6-1.8-.3,0-.5,0-.8-.9.2-2.6-1.9-3.7-.9-5.8,1.1,2.1-1.1,3.2-1.2,5.6-.2.4-.4.7-.5,1.1-.5,0-1,.2-1.4.4-.9.3-1.6.8-2.2,1.4-1.2,1.3-1.8,3.2-1.7,5.7,0,0,0,2.8,0,7.1-.4,4.2,0,9.9,0,15.6.4,5.7,0,11.3,0,15.6.4,4.2.2,7.1,0,7.1-.1,2.5.5,4.4,1.8,5.7.6.6,1.3,1.1,2.2,1.4.4.2.9.3,1.4-.6.5-.8,1.1.3,1.6,1,.6,0,1.1,0,1.7-.1,1.6-.2,2.8-.8,3.6-1.8,1.4-1.3,1.1-3.2,1.8-5.7.3,0-.4-2.8,0-7.1.3-4.2.2-9.9,0-15.6-.2-5.7.4-11.3,0-15.6-.1-4.2-.4-7.1,0-7.1h0Z"/>
      <path class="st0" d="M213.4,141.7s1.9,3.6,4.3,8.4c5,9.7,12.4,24.1,12.4,24.1h-17.7s-1.6-3.3-3.7-7.7c-2.6-4.4-4.7-9.9-6.9-14.3-1.8-4.4-4-7.7-3.7-7.7.4,0-2.5,0-2.2,0s-.8,3.3,0,7.7c0,4.4.3,9.9,0,14.3-.4,4.4.4,7.7,0,7.7.2,0-4.5,0-8.1,0h-8.1v-17.5c0-5.2,0-11.4,0-17.9,0-6.6.8-13.6,0-20.6.4-7,.4-14,0-20.6,0-6.6.7-12.7,0-17.9-.6-5.2,0-9.6,0-12.7v-4.8h22.1c0,.1,1,.1,1.4,0,.4,0,.8,0,1.2,0,1.9,0,3.7.3,5.4.7,2,.4,3.8,1.1,5.4,2,2.3.9,2.6,2,4.2,3.3,1.8,1.3,2.4,2.8,2.9,4.6.9,1.7,1.4,3.7,1.7,5.9.2,2.2.1,4.6.7,7.2-.1,0-.3,1,0,2.6-.1,1.6,0,3.9,0,6.5.2,2.6,0,5.5,0,8.5-.2,2.9-.3,5.9,0,8.5.5,2.6,0,4.9,0,6.5,0,1.6.3,2.6,0,2.6-.1,1.7.4,3.2-.3,4.7-.9,1.5-.6,2.9-.9,4.2-1.1,2.6-1.9,4.9-3.8,6.9-1.3,2-4.1,3.6-6.3,4.9h0ZM195.8,78.2c.2,0-.3,3.2,0,8,0,4.8.6,11.2,0,17.5.2,3.2,0,6.4,0,9.4-.1,3-.2,5.8,0,8.2-.3,4.8,1.1,8,0,8s3.3,0,3.7,0c1.9,0,3.6-.1,4.6-.5,1.5-.6,2.6-1.5,3.3-2.7.7-1.2,1.1-2.7,1.1-4.5v-35.7c0-4.2-1.6-6.7-4.9-7.4-.2,0-.3-.1-.5-.4-.4-1.8.7-3.9-1.5-6,0,2.1,0,4.3-1,6.2-.3,0-.6,0-.9,0s-.7,0-1,0h-2.9,0Z"/>
      <path class="st0" d="M277.2,152.6c-.3,5.2-.7,9.6-2.6,13.1-1.9,3.5-4.6,6.1-7.7,7.9-2.6,1.3-5.6,2.1-9.2,2.5-.6,0-1.2.1-1.8.1-.9-.8-2-1.9-2-2.9,0,1.1,0,2.1-1.2,3-.4,0-.8,0-1.2,0-13.8-.8-20.7-8.7-20.7-23.5,0,0,.1-2.7,0-7.1.3-2.2.3-4.8,0-7.7.3-2.9,0-6,0-9.3-.4-3.3,0-6.7-.1-10.1.3-3.4-.4-6.8.1-10.1.2-3.3.5-6.4.1-9.3-.6-2.9,0-5.5-.1-7.7-.4-4.4-.1-7.1,0-7.1,0-2.6.4-5,.9-7.2.7-2.2,1-4.1,1.7-5.9.9-1.7,1.9-3.3,3.2-4.6,1.3-1.3,2.8-2.4,4.5-3.3,3.4-1.7,7.7-2.6,12.9-2.6s9.5.9,12.9,2.6,6,4.4,7.7,7.8c1.7,3.5,2.8,7.8,2.6,13.1,0,0,1.1,2.7,0,7.1.3,2.2.9,4.8.3,7.7-.4,2.9-.3,6-.3,9.3-.4,3.3-.7,6.7-.4,10.1-.7,3.4.5,6.8.4,10.1-.6,3.3-.6,6.4-.3,9.3,0,2.9.3,5.5.3,7.7-.5,4.4,0,7.1,0,7.1h0ZM261,84.1c0-3.3-1-5.6-3.1-6.7-.5-.3-1.1-.5-1.8-.7-.1-1.4-.1-2.5-1.2-2.5-2.1-1.1,0,2.1-2.2,2.2-.4.2-.7.2-1,.3-3.2.7-4.8,3.2-4.8,7.4v68.5c0,5.1,2.3,7.6,7,7.6s7.1-2.5,7.1-7.6v-7.1c-.4-4.4-.7-10.4,0-17-.4-6.6.4-13.7,0-20.3-.5-6.6,0-12.6,0-17v-7.1h0Z"/>
      <path class="st0" d="M316.1,119.8s-5.3-9-9.4-16c-.2-.4-.5-.8-.7-1.1-1,.2-1-.8-1.3-2.4-.4-.7-.8-1.4-1.1-1.9-1-1.8-1.7-2.9-1.7-2.9v29.1c0,11.3,1.1,24.1,0,36.1v13.7h-15.6v-4.8c0-3.1.1-7.4,0-12.7.3-5.2.4-11.4,0-17.9-.2-6.6,0-13.6,0-20.6.2-7,.2-14,0-20.6.2-6.6,0-12.7,0-17.9-.3-5.2.4-9.6,0-12.7-.3-3.1,0-4.8,0-4.8h12.7s2.4,4.1,5.4,9.1c.2.4.5.9.8,1.6-.1,3.2-.1,6.3,4,6.4.3.4.5.9.8,1.3,3.4,5.7,6.2,10.4,6.2,10.4l17.1-28.9h12.7v4.8c-.3,3.1.4,7.4,0,12.7.5,5.2.5,11.4,0,17.9-.2,3.3.1,6.7,0,10.1-.3,3.4.1,6.9,0,10.4,0,3.5.2,7,0,10.4-.3,3.4,0,6.8,0,10.1-.4,3.3.3,6.4,0,9.5,0,3-.4,5.9,0,8.5-.5,5.2,0,9.6,0,12.7v4.8h-15.6c0,0-.3-2.2,0-5.8.6-3.6.6-8.8,0-14.6-.3-5.8,0-12.4,0-19-.7-6.6-.6-13.2,0-19,.4-5.8.4-11,0-14.6-.3-3.7.1-5.8,0-5.8-.2,0-1.7,2.7-3.7,6.3-2.3,3.6-4.4,8.1-6.9,11.7-2.1,3.6-3.7,6.3-3.7,6.3h0Z"/>
      <path class="st0" d="M401.3,152.6c.7,1.7.1,3.4-.3,4.9-.2,1.6-.5,3-.8,4.4-1.1,2.7-2.4,5-3.4,7-2,1.9-3.4,3.5-5.7,4.7-2.6,1.3-5.6,2.1-9.2,2.5-.6,0-1.2.1-1.8.2-1.6.1-2.6.1-3.4,0-.5-.1-1-.1-1.5-.2-2.1-.2-4.4-.5-6.2-1-5.3-1.6-9.2-4.7-11.4-9.3-.9-1.8-1.5-3.7-1.9-5.9s-.6-4.6-.6-7.2c-.5,0,.6-3,0-7.4-.1-2.2-.2-4.8,0-7.6-.2-2.8-.8-5.8,0-8.7,0-3,.6-5.9.1-8.7-.1-2.8-.5-5.4-.1-7.6,0-4.5,0-7.4,0-7.4-.4-2.6.2-5,.7-7.2.2-2.2,1.1-4.1,1.8-5.9,1.3-1.7,2.2-3.3,3.2-4.6,1.3-1.3,3-2.4,4.5-3.3,1.9-.9,3.8-1.5,5.8-2,1.6-.3,3.2-.5,5.1-.6.6,0,1.3,0,2,0,.6,0,1.3,0,1.9,0,1.9,0,3.6.3,5.2.6.5.1,1.1.2,1.6.3,2.2.2,4.4.2,5.7,2.5.5.4,1,.7,1.4,1.1.9.8,1.8,1.7,2.8,2.6,1.3,1.9,2.3,4.3,3.4,7,1.2,1.3,0,2.8.8,4.4-.2,1.6.5,3.2.3,4.9.4,0,0,3,0,7.4,0,2.2.2,4.8-.1,7.6,1,1.4,0,2.8,0,4.3.4,1.5.5,2.9.2,4.4.1,1.5,1.1,3,.5,4.4-.7,1.5-.2,2.9,0,4.3-1,2.8.6,5.4-.6,7.6.4,4.5.8,7.4,0,7.4h0ZM385.2,105c-.2-2.5-.5-4.4-1.8-5.7-.2-.3-.5-.6-.9-.8s-.8-.4-1.2-.8c-2.8-.2-.7-3.3-2.8-4.4,1.1,2.1-1.1,3.2-2.2,3.8-.8.5-1.4.8-1.9,1.1s-1,.7-1.5,1.2c-1.4,1.3-1.3,3.2-1.7,5.7.1,0-.4,3,0,7.4-.4,2.2,0,4.8-.2,7.6,0,2.8,0,5.8.2,8.7.3,3,.4,5.9.3,8.7s-.2,5.4-.3,7.6c.2,4.5.4,7.4,0,7.4-.2,2.5.7,4.4,1.8,5.7.4.5,1,.9,1.7,1.2,1.7,2,2.8,4.1,3.9,6.3,2.1-1.1,1.1-4.3,2.9-5.7.5-.4.9-.6,1.2-.9s.6-.5.8-.8c1.3-1.3,1.8-3.2,1.8-5.7-.2,0,0-3,0-7.4.2-2.2.2-4.8.1-7.6.2-2.8,0-5.8-.1-8.7.7-3,.6-5.9-.3-8.7,0-2.8,0-5.4.3-7.6-.2-4.5.5-7.4,0-7.4h0Z"/>
      <path class="st0" d="M444.1,141.7s1.9,3.6,4.3,8.4c2.4,4.8,5.6,10.9,8,15.7,2.5,4.8,4.3,8.4,4.3,8.4h-17.7l-14.4-29.7h-2.2v29.7h-16.1v-4.8c0-3.1.4-7.4,0-12.7.4-1.3.3-2.7.2-4.1-.1-1.4-.3-2.9-.2-4.4-.6-1.5-.6-3.1-.5-4.6-.3-1.6.4-3.2.5-4.8.4-1.6.3-3.3,0-5,.2-1.7.5-3.4,0-5.1.2-1.7-.8-3.5-.4-5.2.5-1.7-.1-3.5.3-5.2,0-1.8,1.5-3.5.2-5.2-.8-1.7,1.2-3.5,0-5.2.3-1.7-.5-3.4.2-5.1-.8-1.7.5-3.4-.3-5,1-1.6-.3-3.2.1-4.8.1-1.6-.2-3.1,0-4.6.4-1.5.6-3,.3-4.4-.1-1.4,0-2.8-.3-4.1.5-2.6.8-5,0-7.2.6-2.1.2-4,0-5.5-.3-3.1.4-4.8,0-4.8h13.2c.5,0,1,0,1.5,0,2.3,3.2,5.5,2.2,7.2.2,1-.3,1.6-.3,1.6-.3,4.8,0,8.8.9,12,2.6,3.2,1.8,5.6,4.4,7.2,7.9,1.8,3.5,2.5,7.8,2.4,13.1.6,0,.4,3.9,0,9.1.6,5.2-.3,11.7,0,16.9.4,5.2.2,9.1,0,9.1-.3,3.3-.1,6.3-1.3,8.9-.9,2.6-2.3,4.9-3.8,6.9-2,2-3.8,3.6-6.3,4.9h0ZM426.5,78.2v25.5c-.2,6.4.3,12.7,0,17.5.2,4.8,0,8,0,8h3.7c2.2,0,3.8-.1,4.6-.5,2.9-1.2,4.4-3.6,4.4-7.1v-35.7c0-5.1-2.3-7.7-7-7.7h-5.7Z"/>
      <path class="st0" d="M507.9,152.6c.2,2.6,0,5-.4,7.2-.8,2.2-.8,4.1-2.1,5.9-1,1.7-1.8,3.3-3,4.6-1.2,1.3-2.8,2.4-4.7,3.3-3.4,1.8-7.7,2.6-12.9,2.6-5.1,0-9.4-.9-12.9-2.6-3.4-1.8-6-4.4-7.7-7.9-2-3.5-2.2-7.9-2.6-13.1.2,0,.4-2.7,0-7.1.1-4.4,0-10.4,0-17,0-6.6.2-13.7,0-20.3.4-6.6-.2-12.6,0-17,0-4.4-.6-7.1,0-7.1.6-5.2,1.1-9.6,2.6-13.1,1.7-3.5,4.3-6.1,7.7-7.8,3-1.5,6.7-2.4,11-2.6.6,0,1.2,0,1.9,0,.9-.2,1.7-.1,2.5,0,.8,0,1.6.1,2.4.2,3.1.4,5.7,1.2,8,2.3.6.3,1.1.6,1.6,1,1.7,2.6,2.7,5.8,6.1,6.9.4.4.7.8.9,1.3.6,1.4.6,2.9,1,4.5.6,2.2.2,4.6.6,7.2.8,0,1.4,2.7,0,7.1-.4,2.2.2,4.8,0,7.7,0,2.9-.2,6,0,9.3.4,3.3-.2,6.7-.2,10.1.4,3.4.3,6.8.2,10.1-.2,3.3.7,6.4,0,9.3-.4,2.9-.2,5.5,0,7.7.7,4.4,1,7.1,0,7.1h0ZM491.7,84.1c0-2.5-.6-4.4-1.8-5.7-.4-.4-.9-.8-1.4-1.1-.5-2.1-1.5-4.2-3.7-4.2-1.1,1.1-1.1,2.1-2.4,3.5-.7.3-1.3.5-1.8.8-2.1,1.1-3.1,3.4-3.1,6.8v68.5c0,4.6,1.9,7.1,5.7,7.5.2,0,.4,0,.6,0,1-2.8,3.1.4,5.2-1.1.3-.2.5-.4.8-.7,1.2-1.3,1.8-3.2,1.8-5.7v-7.1c.9-4.4-.1-10.4,0-17-.4-6.6.6-13.7,0-20.3v-24.1Z"/>
      <g>
        <polygon class="st0" points="139.1 9.1 129.4 32.4 119.9 9.1 105.4 9.1 122.3 49 135.5 49 152.3 9.1 139.1 9.1"/>
        <path class="st0" d="M166.4,9.1l-17.4,39.8h13.7l2.7-6.9h15.1l2.7,6.9h13.9l-17.4-39.8h-13.2ZM169.1,32.4l3.9-10,3.9,10h-7.7Z"/>
        <polygon class="st0" points="213.8 9.1 200.3 9.1 200.3 49 231.7 49 231.7 38.6 213.8 38.6 213.8 9.1"/>
        <polygon class="st0" points="250 9.1 236.6 9.1 236.6 49 268 49 268 38.6 250 38.6 250 9.1"/>
        <polygon class="st0" points="286 33.6 302.9 33.6 302.9 23.9 286 23.9 286 19.3 305.2 19.3 305.2 9.1 272.8 9.1 272.8 49 305.9 49 305.9 38.8 286 38.8 286 33.6"/>
        <path class="st0" d="M361.8,11.6c-3.4-1.6-7.3-2.4-11.7-2.4h-19.6v39.8h19.6c4.4,0,8.4-.8,11.7-2.4,3.4-1.6,6-3.9,7.9-6.9s2.9-6.5,2.9-10.7-1-7.6-2.9-10.6c-1.9-3-4.5-5.2-7.9-6.9h0ZM357.8,34.2c-.8,1.4-1.9,2.5-3.3,3.2-1.4.7-3.1,1.1-5,1.1h-5.6v-18.9h5.6c1.9,0,3.6.4,5,1.1s2.5,1.8,3.3,3.2c.8,1.4,1.2,3.1,1.2,5.1s-.4,3.8-1.2,5.2h0Z"/>
        <polygon class="st0" points="391.8 38.8 391.8 33.6 408.6 33.6 408.6 23.9 391.8 23.9 391.8 19.3 411 19.3 411 9.1 378.6 9.1 378.6 49 411.7 49 411.7 38.8 391.8 38.8"/>
      </g>
      <path class="st0" d="M170.6,165.3l-9-9-6,6-.6.6c-1.7,1.5-1.7-4.1-4.1-3l-.4-.4-3.1-3.1-7.1,7.1-7.1-7.1-9,9,2.5,2.5c.1.1.3.3.4.4,1.5,0,3.4,1.9,3.3,3.3l.4.4,2.5,2.5,2.7-2.7c.1-.1.3-.3.4-.4-.1-1.2,1.8-3.1,3.4-3.4.3-.3.5-.5.5-.5l7.1,7.1,7.1-7.1,7.1,7.1,9-9h0Z"/>
      <path class="st0" d="M401.5,71.4l-2.5-2.5c-.1-.1-.3-.3-.4-.4-3.1,1.1-1.2-4.5-4.1-4.1-.1-.1-.2-.2-.4-.3-1-1-1.7-1.7-1.7-1.7l-7.1,7.1-7.1-7.1-7.1,7.1-1.5-1.4-.4-.4c-.4-1.7-2.3-3.6-3.4-3.4-.1-.1-.3-.2-.4-.4-.9-.8-1.5-1.5-1.5-1.5l-9,9,9,9,7.1-7.1s1,1,2.2,2.2c.1.1.3.3.4.4-1.1,1.3,4.6,1.3,3.3,3.3.2.2.4.4.6.6l.5.5,7.1-7.1,7.1,7.1,9-9h0Z"/>
    </g>
  </g>
</svg>