<?xml version="1.0" encoding="UTF-8"?>
<svg id="Capa_1" xmlns="http://www.w3.org/2000/svg" version="1.1" viewBox="0 0 862.8 169.8">
  <!-- Generator: Adobe Illustrator 29.3.1, SVG Export Plug-In . SVG Version: 2.1.0 Build 151)  -->
  <defs>
    <style>
      .st0 {
        fill: #fff;
      }
    </style>
  </defs>
  <path class="st0" d="M386.8,123.1h1c-.1-.2-.2-.5-.2-.8-.2,0-.6.5-.6.8h-.2Z"/>
  <path class="st0" d="M432,26.6c2.4-.8-1-6,1.2-7.7,0,5,0,8.4.6,11.7v-12.3h-6.4c-.2,0-.6.2-.6.6-.5-.2-.6-.3-.6-.6h-3c.3,1.4,1.6,2.6-.3,3.2,1.1.5.7.7,1.2,1.9.6,0,.6-.3.6-.8.3.7,1.2,1,1.2,1.9,1.2-.7-.7-2.9-1-4.1.2.7,1.7.8,1.2-.6.5,0,.8,0,1-.2.8.5.6,1.8,1,2.7-.6,0-.7-.5-.6-1.1-1.4.7,1.4,1.6,0,2.1.2.7.7-.8,1.2,0-1.7,2-1.5,3.3-1,6.5-1.4-.2-1.6.6-1.8,1.4-1,.2-1-.5-1.6-.6,2.6-1.1,0-2.3,2.1-3,0-.8-.6-1.1-.6-1.9-.2,0-.8,1.2-.3,1.1-.5.6-1.2-.7-.6-1.4-1.1,0,0,.7-1.2.8,0,.6.2.8,1,.8-1.1.8-2.3-.7-2.7-1.4-.2-.7.6-.6.6-1.1-1-.5-1.2-5.8.3-6.2h-3.4.6c.3,1.8-.2,2.4.2,3.6.2.5-1.8.1-.6.6-.5,1.1-.5-.6-1-.6-.8.6.3,1.7,1.2,1.1-.3,1.8,1.2,5.1-.6,6.2.5-.5.6-2.1-.6-1.9.6-.8-.7-1.7.6-1.9-.1-1.1-1-1.6-2.1-1.7.5-1-.1-1.2.3-2.1,2.1.5.5-2.3,1.4-3.4h-3.6v52.1h-16.4V18.5h-18.6v63.8c0-.3.6-1,.2-1.6,1.4.1.6,1.6.3,2.1-.5,0-.6-.2-.7-.3v35.6c0,.1,0,.3.2.6,0,.1,0,.2-.2.2v4.4h2.9c-.3-.2-.6-.6-.8-.8-.2-.7.7-.6.7-1.1-1.2-.5-1.5-5.8.3-6.2-.1-1-1.9-1.4,0-1.7,0-.6-1.1-.5-1.6-.8.2-1,.6-1.8.7-2.7-2.3-1.9,2.1-5.1-.7-7.3,1.2-.6.7-1.6,0-2.5,1.4-1.1,1.7,1.6,2.3.8,1.1,0-1,.7.7.6-2.4,2.1.3,6.1-1.9,7.3,2.3,1.6.8,3.4.7,5.5,0,1.7,2.6,3.3-.3,3.8,1.4.5,1,.7,1.6,1.9.8.1.7-.3.7-.8.5.7,1.6,1,1.6,1.9,1.5-.7-.8-2.9-1.2-4.1.3.7,2,.8,1.6-.6.6,0,1.1,0,1.2-.2,1,.5.8,1.8,1.2,2.7-.7,0-.8-.5-.7-1.1-1.7.7,1.7,1.6,0,2.1.3.7.8-.8,1.6,0-1.2,1.2-1.7,2-1.7,3.3h5.9c2.9-.8-1.2-6,1.5-7.7,0,3,0,5.4.1,7.7h2.1v-34.2h16.4v34.2h18.6V30.8c-2.1-.6-.7-2.7-1.8-4.1h.3-.3ZM382.2,59.8c1.6-.2,1.4,1.5.7,1.9,0,.7,1.4.5,2.3.6-.5,1.7-2.1-.3-3.5.8,0-.2.1-.2.3-.2,0-1.1-1-1.9,0-3h.2ZM384.1,80.5c-.5,0-1.4.3,0,.8-1.4,1,0,2.3-.7,3.6-1.7-2.9-.3-5.9-.7-9,2.4,0-.5,2.5,1.6,3-.7,0-1.2,1.2,0,1.7h-.2ZM382.5,69.1c2.9,1.9-.2,3,.7,6.5-2-1.2-.6-4.6-.7-6.5ZM382.2,63.4c2.4-.1.6,1,1.6,1.9-1,.2-1.4.7-1.9,1.1-.2-.6.3-1.6.3-3h0ZM384.1,99.4c-1.7-.2-.6-.8-1.2-1.7,1.5-.1,1.2.8,1.2,1.7ZM382.5,97.5c-.2-.3,0-1.9,1-2.4v-.2c-.5-.3-.8-.7-1.8-.7.5-1.9,1.4-6,.3-7.4.8-.7.6-1.1,1.6-1.4-.8.5,1.1,2-.7,2.1.7,2,1.2,5.3.6,7.3h.1-.2c0,.1,0,.3-.1.5.3.3.6.8,1.6.8-1.1.1-1.1,1.1-2.3,1.1h0v.2h-.1ZM385.7,95.9c-1.8-.2-.8-1.7-.7-2.1.5,0,.6.5,1.2.6.2.8-.7.8-.3,1.7h-.2ZM384.5,58.1h2.3c0,.3-2.5,1.1-2.3,0ZM394.9,94.2c.7,1.8.7,3.2.3,4.3-1-1.4-.8-3-.3-4.3ZM388.3,92.5c1.8.5-.7,1.6,0,1.9-1.4.8-.3-1.6,0-1.9ZM388.6,115.5c-1.9-.6,1-1.7-.7-1.9.8-.8,1.5.8,1.6,1.4-.3.1-.7.2-.7.5h-.2ZM387.6,105.4c.3-.7,1.5-1,2.6-1.1.1,1.1-1.8.7-2.6,1.1ZM391.5,57.9v1.1c-1.5.2-1.5-1.4,0-1.1ZM392.1,106.2c-1,0-1.2-.3-1.2-1.1,1.1,0,1.2.3,1.2,1.1ZM395.2,105.2c-.8-.2-1.2-1.7.3-1.7,0,.7,0,1.4-.3,1.7ZM395.2,102.3c-1-1.2-.2-2.5-.7-3.6,2.5.2.7,2.6.7,3.6ZM420,34c-1.1-1-.2-2.7-.2-4.1.7.5.3,3,.2,4.1ZM422.1,29.1h-.6c-.1-.2-.3-.5-.3-.8h1.2v-.5c1,.3-.6.7-.3,1.4h.1-.1ZM423.2,29.3c-.3-.7,1.2-.8.3-1.1.2-.8,1,.1,1.6,0,0,.2-.1.2-.3.2.1.2.2.5.6.6-.2.7-1.2-.6-1,.8-.6,0-.3-.7-1.2-.6h.1ZM424.6,32.4c-.2-.1-.5-.2-1-.2.2-.2.5-.7,0-.8,0-.2.1-.2.3-.2h.6c-.2.8.6.8,0,1.4h.1ZM426.7,31.8c-.3-.2-.6-.6-.6-1.1.2,0,.3,0,.3.2.5,0,0-.8.6-.8,1.1-.2.2,1.2,1.2,1.1.1.7-1.7-.2-1.6.5h0Z"/>
  <path class="st0" d="M386.3,122.1c-1.4,0,0,.7-1.6.8v.2h1.4c-.1-.3-.2-.7.1-1.1h.1,0Z"/>
  <path class="st0" d="M587.5,32.4c-.7,0-1.6-.2-2.3-.2.3-.5,1.2-.5,2.3-.5v-4.4c-.2-.1-.6-.1-.6.2-.2,0-.2-.1-.3-.3v-.7c.5,0,.7,0,1-.1v-2.3c-.2.5-.7.6-1.4.7,0-.2.1-.3.3-.3,0-.5-1-.1-1-.7-.3-1.4,1.5-.2,1.4-1.5.8-.1-.2,1.9.6,1.8v-5.6h-53.5v10.4c.8,0,1.8-.2,2.7,0-1,.5-1.9.7-2.7.7v1.4h.2c0,.2-.1.3-.2.5v5.2h17.5v3.6c.6-.6,1.4,0,1.7-.2.8.7-.2,1.4-1,.7.2.3.7.3.6,1.1.8,0,1-.6,1.6-.7-1.4-.7,0-1.8,1-2.1-.8.5.6,1.5-.3,1.8.6,1.2,2.1,1.1,2.9.7.2,1.8-4.5,1.2-6.3.3v-.7,4h1.7c0,.5-.8.8-1.7.8v101.6h6.4c0-.6-.3-1.1-1.1-1,.7-1.1-.7-1.9.7-2.3-.2-1.2-1.1-1.8-2.5-1.9.6-1.1-.2-1.5.3-2.5,2.6.6.2-3.2,1.8-4.2.2.1.6.3,1.1.3.5,2.1-.2,2.9.3,4.2.3.6-2,.2-.7.6-.6,1.2-.6-.7-1.1-.6-1,.7.5,2,1.5,1.4-.3,1.7.6,4.3.1,6.1h2.7v-.6c.6.2.5.5.1.6h1.4c.2-.8,1,0,1.5,0h.8c.1-.2.3-.5,1-.6,0-1-.7-1.4-.7-2.3-.3,0-1,1.5-.3,1.4-.6.7-1.5-.8-.7-1.6-1.2,0,0,.8-1.5,1,0,.7.2,1.1,1.1,1-1.4,1-2.6-.8-3.3-1.6-.2-.8.7-.6.7-1.4-1.1-.6-1.5-6.9.3-7.3-.1-1.1-1.8-1.6,0-1.9,0-.7-1-.6-1.5-1,.2-1.1.6-2,.7-3.3-2-2.3,2-5.9-.7-8.7,1.1-.7.7-1.8,0-2.9,1.2-1.4,1.6,1.8,2.1,1,1.1,0-.8.8.7.6-2.3,2.6.2,7.2-1.8,8.7,2.1,1.8.8,4,.7,6.3,0,1.9,2.4,3.8-.3,4.4,1.4.5.8.8,1.5,2.3.7.1.7-.5.7-1,.5.8,1.5,1.1,1.5,2.3,1.5-.8-.8-3.4-1.1-4.9.3.8,1.9,1,1.5-.6.5,0,1.1,0,1.1-.3,1,.6.7,2.1,1.1,3.3-.6,0-.8-.6-.7-1.4-1.6.7,1.6,1.8,0,2.5.3.8.8-1,1.5,0-1.7,1.9-1.7,3.3-1.4,5.8h3.2V36.6h17.5v-4.3h-.3ZM549.5,26.7c-.2,1.7-1.9.7-2.5.7,0-.5.6-.6.6-1.1,1-.2,1,.6,1.9.3h0ZM547.8,24.2c1,1.4-1.8.3-2.3,0,.6-1.7,1.9.7,2.3,0ZM548.8,28.6h-.2c-.3.5-.8.8-.8,1.7-2.1-.3-7.1-1.4-8.7-.3-.8-.7-1.4-.6-1.6-1.5.6.8,2.3-1,2.5.7,2.4-.7,6.2-1.1,8.5-.6h.1c0-.1,0,0,0,.1.1,0,.3,0,.5.1.5-.3,1-.5,1-1.5.2,1,1.2,1,1.4,2.1-.5.2-2.3,0-2.7-.8h.1ZM550.8,33.9c-.8,0-.7-1.1-1.6-1.1.7-.6,1.9-.7,3.3-.7-.3.7-1.2,1-1.6,1.8h-.1ZM551.7,29.2c-.2-1.4,1-1.1,1.9-1.1-.2,1.6-1,.5-1.9,1.1ZM571.9,23.1c.1.3.2.6.6.7-.7,1.8-1.9-1-2.3.7-1-.8,1-1.4,1.6-1.5h.1ZM561.7,20.6c0,1-.5,1.2-1.4,1.1,0-1,.5-1.2,1.4-1.1ZM560.7,24.9c-.8-.3-1.1-1.5-1.4-2.5,1.4-.1.8,1.7,1.4,2.5ZM557.2,113.4c.6.7.7,1.9.7,3.3-.7-.3-1-1.2-1.8-1.6,0-.8,1.1-.7,1.1-1.6h0ZM555.1,75c.6.2,1.9,0,1.8,1-.6,0-1.4-.1-1.5.3-.5,0-.2-.8-.3-1.4h0ZM555.3,132.5c1.1,0,2.5,0,2.5,1-1.2,0-2.5.1-2.5-1ZM557.4,122.9c-.6,0-.6-.2-1.1-.3.3-1.7.6-2.5.7-4.4,1.5.8.5,3.4.3,4.9h.1ZM554.1,32.8c.8-1.5,3.4-.5,4.9-.3,0,.6-.2.6-.3,1.1-1.7-.3-2.5-.6-4.4-.7h-.1ZM559,98.3c-1.5-.3,0-1.4-.3-2.5,1.4.2.6,1.8.3,2.5ZM563,74.5c-.5,2-2-.3-3.3,1,0-.2.1-.2.3-.3,0-1.2-1-2.1,0-3.5,1.5-.2,1.4,1.7.7,2.3,0,.8,1.2.6,2.1.6h.1ZM562,95.8c-.5,0-1.4.3,0,1-1.4,1.1,0,2.6-.7,4.2-1.7-3.4-.3-7-.7-10.6,2.3,0-.5,2.9,1.5,3.5-.7,0-1.1,1.4,0,1.9h-.1ZM560.5,82.5c2.6,2.3-.2,3.6.7,7.7-1.9-1.4-.6-5.5-.7-7.7ZM560.2,75.7c2.3-.2.6,1.2,1.5,2.3-.8.2-1.2.8-1.8,1.4-.2-.7.3-1.8.3-3.5h0ZM562,117.8c-1.6-.2-.6-1-1.1-1.9,1.4-.2,1.1,1,1.1,1.9ZM560.5,115.5c-.2-.5,0-2.3.8-2.7v-.2c-.5-.3-.8-.8-1.7-.8.5-2.1,1.4-7.1.3-8.7.7-.8.6-1.4,1.5-1.6-.8.6,1,2.3-.7,2.5.7,2.4,1.1,6.2.6,8.5h.1c0,.1-.1.1-.2.1,0,.1,0,.3-.1.5.3.5.5,1,1.5,1-1,.2-1.1,1.2-2.1,1.4h.1ZM563.3,113.6c-1.7-.2-.7-1.9-.7-2.5.5,0,.6.6,1.1.6.2,1-.6,1-.3,1.9h-.1ZM562.3,69.6h2.1c0,.5-2.4,1.4-2.1,0ZM566.2,136.6c-1.8-.7,1-1.9-.7-2.3.8-1,1.4,1,1.5,1.6-.3.1-.6.2-.7.6h-.1ZM565.1,124.8c.3-.8,1.4-1.1,2.5-1.4.1,1.4-1.7.8-2.5,1.4ZM565.9,112c-1.4,1-.3-1.8,0-2.3,1.7.6-.7,1.9,0,2.3ZM568.8,69.3v1.4c-1.5.2-1.5-1.6,0-1.4ZM569.5,125.8c-1,0-1.2-.5-1.1-1.4,1,0,1.2.5,1.1,1.4ZM563.9,41.9c.5-1.4,4.5-.7,5.8-.3-1.4.5-5,.2-5.8.3ZM568.4,34.6c0-1.1,0-2.5,1-2.5,0,1.2.1,2.5-1,2.5ZM570,28.5c-.7,0-.6,1-1,1.5-1.1-.2-2-.6-3.3-.7-2.3,2-5.9-2-8.7.7-.7-1.1-1.8-.7-2.9,0-1.4-1.2,1.8-1.6,1-2.1,0-1,.8.8.6-.7,2.6,2.3,7.2-.2,8.7,1.8,1.8-2.1,4-.8,6.3-.7,1.9,0,3.8-2.4,4.4.3.5-1.4.8-.8,2.3-1.5.1-.7-.5-.7-1-.7.8-.5,1.1-1.5,2.3-1.5-.8-1.5-3.4.8-4.9,1.1.8-.3,1-1.9-.6-1.5,0-.5,0-1-.3-1.1.6-1,2.1-.7,3.3-1.1,0,.6-.6.8-1.4.7.7,1.6,1.8-1.6,2.5,0,.8-.3-1-.8,0-1.5,2.3,2,3.8,1.7,7.7,1.1-.2,1.6.7,1.9,1.6,2.1.2,1.2-.5,1.1-.6,1.8-1.2-3.2-2.7,0-3.5-2.5-1,0-1.4.7-2.3.7,0,.3,1.5,1,1.4.3.7.6-.8,1.5-1.6.7,0,1.2.8,0,1,1.5.7,0,1.1-.2,1-1.1,1,1.4-.8,2.6-1.6,3.3-.8.2-.6-.7-1.4-.7-.6,1.1-6.9,1.5-7.3-.3-1.1.1-1.6,1.8-1.9,0h.2ZM582.7,28.9c.5-1.2.7.7,1.6.3v.7c-.2.2-.5.3-1,.3v-1.5h-.6ZM582.4,33.1c-1.1-.7-1.9.8-2.3-.7-1.2.2-1.8,1.1-1.9,2.5-1.1-.6-1.5.2-2.5-.3.6-2.6-3.2-.2-4.2-1.8.1-.2.3-.6.3-1.1,2.1-.5,2.9.2,4.2-.3.6-.3.2,2,.6.7,1.2.6-.7.6-.6,1.1.7,1,2-.5,1.4-1.5,2.1.5,6-1.4,7.3.7-.5-.5-2.5-.7-2.3.7h-.1ZM584.6,27.7c-.8.5-1-1.5-1.4-.3-1-.3.2-1.2,0-1.8.2,0,.2.1.3.3.2-.1.6-.3.6-.7.8.3-.7,1.5,1,1.1,0,.7-.8.5-.6,1.5h0Z"/>
  <path class="st0" d="M619.4,37.8c-17.8,0-26.8,9-26.8,27.1v57.6c0,8.5,2,15,6,19.5-.1-1.4.3-2.9.2-4.2,1,.7.6,3.4.5,5.1,4.4,4.5,11.2,6.9,20,6.9,17.8,0,26.9-9.1,26.9-27.2v-57.6c0-18.1-8.9-27.1-26.9-27.1h.1ZM611.6,44.9v1.5c-1.7.2-1.6-1.8,0-1.5ZM608.2,91.9c1.9.7-.8,2.1,0,2.6-1.5,1.2-.3-2,0-2.6ZM610.3,107.9c.2,1.6-1.9,1-2.9,1.5.3-1.1,1.6-1.4,2.9-1.5ZM607.8,120.5c1-1.2,1.6,1.1,1.7,1.9-.3.1-.7.3-.8.7-2-.7,1.1-2.1-.8-2.6h-.1ZM606.5,45.3c0,.6-2.7,1.5-2.5,0h2.5ZM605.2,96.4c-1.9-.2-.8-2.3-.8-3,.6.1.7.6,1.4.7.2,1.1-.7,1.1-.5,2.1h0v.2ZM602.4,98.9c1.6-.2,1.4,1.1,1.4,2.3-1.8-.3-.6-1.2-1.4-2.3ZM601.9,98.5c-.3-.5,0-2.6,1.1-3.3v-.2c-.5-.3-1-1-1.9-1,.5-2.5,1.5-8.1.5-9.9.8-1,.7-1.6,1.7-1.8-1,.7,1.2,2.7-.8,3,.8,2.7,1.4,7.2.7,9.8h.1c0,.1-.1.1-.2.1,0,.2,0,.5-.1.6.3.6.6,1.2,1.7,1.1-1.1.2-1.2,1.5-2.5,1.5h-.2ZM602,60c3.2,2.6-.2,4.1.8,8.9-2.1-1.6-.7-6.3-.8-8.9ZM603.5,75.6c-.5,0-1.5.5,0,1.1-1.5,1.4,0,3-.8,4.9-1.9-4-.5-8-.8-12.2,2.6,0-.6,3.4,1.7,4.1-.8-.1-1.4,1.6,0,2.1h-.1ZM601.5,47.5c1.7-.3,1.5,2,.8,2.6,0,1,1.5.7,2.5.7-.5,2.3-2.4-.5-3.7,1.1,0-.3.1-.3.5-.3,0-1.5-1.1-2.5,0-4.1h-.1.1ZM601.5,52.3c2.6-.2.7,1.4,1.7,2.6-1,.2-1.5,1-2.1,1.5-.3-.7.3-2,.5-4.1h0ZM598.5,107.1c-.7,0-.7-.3-1.4-.3.3-2,.7-3,.8-5.2,1.7,1,.5,3.8.3,5.5h.2ZM598.9,119.3c-1.4,0-3,.1-2.9-1.1,1.4,0,2.9,0,2.9,1.1ZM598.2,96c.7.8,1,2.1.8,3.7-.8-.5-1.2-1.5-2.1-1.8,0-1,1.4-.8,1.4-1.8h0ZM597.7,52.7c-.7,0-1.6-.2-1.7.3-.6,0-.3-1-.5-1.5.7.3,2.3,0,2.1,1.1h0ZM598.9,127.8c-.7,1.5-.7-.8-1.4-.7-1.1.8.5,2.4,1.7,1.5-.5,2.4,1.6,7-.8,8.5.6-.6.8-2.9-.8-2.6.8-1.2-1-2.3.8-2.6-.2-1.5-1.4-2-2.9-2.3.6-1.4-.2-1.7.5-3,3,.7.2-3.6,2.1-4.9.3.2.7.3,1.4.3.5,2.4-.2,3.3.3,4.9.3.7-2.4.2-.8.7h0v.2h-.1ZM600.2,78.6c-1.7-.3,0-1.5-.5-3,1.5.2.7,2.1.5,3ZM602.3,136.6h-.8c-.2-.2-.5-.6-.5-1.1h1.7v-.7c1.5.6-.8,1-.5,1.8h.1-.1ZM603.9,137c-.6-1,1.7-1.2.5-1.5.3-1.1,1.4.2,2.1,0,0,.3-.1.3-.5.3.2.3.3.7.8.7-.3,1.1-1.7-.8-1.4,1.1-.8,0-.5-1-1.7-.7h.1ZM605.5,141.2c-.3-.2-.7-.3-1.4-.3.2-.2.6-1.1,0-1.1,0-.3.1-.3.5-.3h.8c-.2,1.2.7,1.2,0,1.9h.1ZM608.6,140.4c-.6-.2-.7-.8-.8-1.5.3,0,.3.1.5.3.6,0,.1-1.1.8-1.1,1.6-.3.3,1.7,1.7,1.5.2,1.1-2.3-.2-2.1.7h0ZM609.8,137.9c-1.8-.2-2.1.8-2.5,1.8-1.4.3-1.4-.6-2.1-.7,3.6-1.5,0-3.2,2.9-4.1,0-1.1-.7-1.6-.8-2.6-.3,0-1.1,1.7-.5,1.5-.6.7-1.7-1-.8-1.8-1.5,0,0,1-1.7,1.1,0,.8.3,1.2,1.4,1.1-1.6,1.1-3.2-1-3.7-1.9-.2-1,.8-.7.8-1.5-1.4-.7-1.7-7.9.5-8.5-.2-1.4-2-1.8,0-2.3-.1-.7-1.1-.7-1.7-1.1.2-1.2.7-2.4.8-3.7-2.4-2.5,2.4-6.9-.8-9.9,1.4-.8.8-2.1,0-3.4,1.4-1.5,1.8,2.1,2.5,1.1,1.2,0-1,1,.8.7-2.6,3,.3,8.2-2.1,9.9,2.5,2.1,1,4.5.8,7.4,0,2.1,2.9,4.4-.5,5.2,1.5.6,1,1.1,1.7,2.6,1,.1.8-.5.8-1.1.5,1,1.7,1.2,1.7,2.6,1.7-1-1-3.8-1.2-5.5.5,1,2.3,1.1,1.7-.7.6,0,1.2,0,1.4-.3,1.1.6.8,2.4,1.2,3.7-.7,0-1-.6-.8-1.5-1.8.8,1.8,2,0,3,.3,1,1-1.1,1.7,0-2.3,2.7-1.9,4.4-1.4,8.9h.1v-.2ZM627.5,122.4c0,5.9-2.7,8.8-8.1,8.8s-1.4,0-1.9-.1c0,2.9.2,5.4.7,7.9-2.9-.8-1-3.7-2.5-5.5,1-.3,1.2-1.4,1.2-2.5-3.7-.8-5.6-3.6-5.6-8.5v-12.3c-.2-.2-.2-.7-.1-1.2h.1v-44.1c0-5.9,2.6-8.8,8-8.8h.1c5.4,0,8.1,3,8.1,8.8v57.6h0Z"/>
  <path class="st0" d="M706.9,96.7c0-.5.1-1,0-1.5,0,0,.2.2.2.3.8-2.9,1.2-6,1.2-9.5v-40.4c0-18.1-8.2-27.1-24.8-27.2h-27.1v74c1.7.2.7,2.1.3,2.9h-.3v52.3h3.6c-1.7-.7-2.1-7.9.6-8.5-.2-1.4-2.7-1.8,0-2.3-.1-.7-1.5-.7-2.1-1.1.3-1.2.8-2.4,1.1-3.7-3.2-2.5,3.2-6.9-1.1-9.9,1.7-.8,1.1-2.1,0-3.4,1.8-1.5,2.3,2.1,3.3,1.1,1.6,0-1.4,1,1.1.7-3.4,3,.5,8.2-2.7,9.9,3.3,2.1,1.2,4.5,1.1,7.4,0,2.1,3.7,4.4-.6,5.2,1.9.6,1.4,1.1,2.1,2.6,1.2.1,1.1-.5,1.1-1.1.6,1,2.1,1.2,2.1,2.6,2.1-1-1.2-3.8-1.7-5.5.5,1,2.9,1.1,2.1-.7.7,0,1.6,0,1.7-.3,1.5.6,1.1,2.4,1.7,3.7-1,0-1.2-.6-1.1-1.5-2.3.8,2.3,2,0,3,.5,1,1.2-1.1,2.1,0-.7.7-1.4,1.4-1.7,1.9h5.9v-34.3h.8c0-.8.2-1.7.5-2.4.3.8.6,1.7.7,2.4h.5l4.6,9.7c0-.5.1-1.1,0-1.5,1.2.8,1.1,2.3.8,3.2l11.1,22.8h20.4l-19.3-37.7c5.6-2.9,9.5-7.3,11.4-13.2h.3v-.2ZM706.2,53.5c.7.8,1,2.1.8,3.7-.8-.5-1.2-1.5-2.1-1.8,0-1,1.4-.8,1.2-1.8h.1ZM706.7,64.6c-.7,0-.7-.3-1.2-.3.3-2,.7-3,.8-5.2,1.7,1,.5,3.8.3,5.5h.1ZM707,76.7c-1.4,0-3,.1-3-1.1,1.4,0,2.9,0,3,1.1ZM704.2,84.2c3,.7.2-3.6,2.1-4.9.3.2.7.3,1.2.3.5,2.4-.2,3.3.3,4.9.3.7-2.4.2-.8.7-.7,1.5-.7-.8-1.2-.7-1.2.8.6,2.4,1.7,1.5-.5,2.4,1.6,7-.8,8.5.6-.6.8-2.9-.8-2.6.8-1.2-1-2.3.8-2.6-.2-1.5-1.4-2-3-2.3.6-1.4-.2-1.7.5-3h0v.2ZM658.7,64.1c2.3-.3,1.9,2,1.1,2.6,0,1,1.8.7,3.3.7-.7,2.3-3.2-.5-5,1.1,0-.3.2-.3.5-.3.1-1.5-1.5-2.5,0-4.1h.1ZM661.4,92.3c-.6,0-1.9.5,0,1.1-1.9,1.4-.1,3-1.1,4.9-2.4-4-.5-8-1.1-12.2,3.5,0-.7,3.4,2.1,4.1-1.1-.1-1.7,1.6,0,2.1h.1ZM659.1,76.7c4,2.6-.3,4.1,1.1,8.9-2.9-1.6-.8-6.3-1.1-8.9ZM658.7,69c3.5-.2,1,1.4,2.1,2.6-1.4.2-1.9,1-2.7,1.5-.3-.7.5-2,.6-4.1ZM661.4,117.8c-2.3-.3-.8-1.2-1.7-2.3,1.9-.2,1.7,1.1,1.7,2.3ZM659,115.3c-.5-.5,0-2.6,1.4-3.3v-.2c-.7-.5-1.2-1-2.5-1,.6-2.5,1.9-8.1.6-9.9,1.1-1.1,1-1.6,2.1-1.8-1.2.7,1.6,2.7-1.1,3,1.1,2.7,1.7,7.2.8,9.8,0,0,.1,0,.2.1-.1,0-.2,0-.3.1,0,.2-.1.5-.2.6.5.5.8,1.2,2.1,1.1-1.5.2-1.6,1.5-3.3,1.5h.2ZM663.5,113.1c-2.5-.2-1.1-2.3-1.1-3,.7.1.8.6,1.7.7.3,1.1-1,1.1-.6,2.3h0ZM662,61.9h3.3c0,.6-3.6,1.5-3.3,0ZM667.4,108.7c2.5.7-1.1,2.1,0,2.6-1.9,1.2-.5-2,0-2.6ZM667.8,139.7c-2.6-.7,1.4-2.1-1.1-2.6,1.2-1.2,2,1.1,2.1,1.9-.5.1-1,.3-1.1.7h.1ZM666.1,126c.5-1.1,2-1.4,3.8-1.5.2,1.6-2.5,1-3.8,1.5h0ZM671.8,61.6v1.5c-2.1.2-2.1-1.8,0-1.5ZM672.7,127.1c-1.5,0-1.8-.5-1.7-1.5,1.5,0,1.8.5,1.7,1.5ZM700.3,94.5c0,1,0,1.8-.5,2.3-1.4-.5-1,0-2.5,0-.2,1,.1,1.4,1.2,1.1,0,.3-.1.3-.5.3v.7c-3-1-1-5.1-2.5-6.8.1-.5.7-.6.8-1.1.5.1.8.5.8,1.1,1-.6-.2-1,.5-1.9-.1-.5-1.1-.3-1.7-.3.1-1.4,1-2.4.5-4.1.3,0,.3.5.5.7,1.4.5.3-1.2,1.7-.7,0,3.2-1.1,7.3,1.7,8.5h0v.2ZM696.2,80.1c1.7,1.4.7,3.3.8,5.5-1.8-1.6.1-3.5-.8-5.5ZM696.2,77c-.6-1.5-.2-5.6-.3-6.8,1.6.6.8,5.3.3,6.8ZM698,33.8c0,.3-.5.2-.5,0-.7,0-.8.5-1.7.3.1-1,1.2-1.1,1.2-2.1,1.5.3-.1,1.5.8,1.8h.1ZM697.4,43c-1.9-.1.1-2.7-.8-3,2.1-.7.1,2,.8,3ZM697.5,27.5v1.5c-1.1-.7-2.6-1.2-3-2.6,1,.3,1.8.8,3,1.1h0ZM694.2,20.8v1.1h-1.7c-.1-1,.8-1,1.7-1.1h0ZM691.5,38.2c1.1,0,1,1.5.5,1.8-1.1,0-1-1.5-.5-1.8ZM689.8,86.8c0,4.1-1.7,6.9-5.1,8.2-1,.3-2.7.5-5.4.5h-4.3v-58.7h6.5c5.4,0,8.1,2.9,8.1,8.9v41.3h0v-.2ZM691.5,40.5c1.1,0,.1,1.4,0,1.5-.8-.2-.2-1.7-1.2-1.8.7-1.7,1,1.8,1.2.3ZM691.1,88.9c-.8-.1-.7-2.6.8-1.9.3,1.1-1.2.7-.8,1.9ZM692.1,57.9c-1.4-.2-1.5-4.1.8-3.4-.8.6-1,1.9-.8,3.4ZM693.2,34.5c.6-.6,1.9.2,2.1,1.1-1.2,0-2.3,0-2.1-1.1ZM695.4,51.2c.5,0,.7,0,.8.3.6-.3,1-1,.8-1.8-1.6-.5,0,1.7-1.7,1.1.2-1.2.7-2.4,2.1-2.6,1.1,1-1,3,1.2,3.4-.7,0-3.2,1.8-3,.3-1.1.6-.1,2.6,0,3.4-2.3-.5-.8-2.5-.3-4.1h.1ZM695.8,55.9c.6,0,1.2,0,1.2-.3,1.6.7.6,1.8.8,2.1-.8,1-1.6-.2-.8-1.1-.5.2-.5.8-1.2.7,0,1,.6,1.2.8,1.8.8-1.6,2.1,0,2.5,1.1-.6-1.1-1.7.6-2.1-.3-1.5.7-1.2,2.5-.8,3.4-2.1.3-1.5-5.3-.3-7.4h0Z"/>
  <path class="st0" d="M738.7,124.9h.2v-62.6c-1.2,0-1.2-1.5,0-1.5V18.4h-18.6v129.1h5.8c-.3-1.2-1.4-1.7-2.9-1.9.6-1.4-.2-1.7.5-3,3,.7.2-3.6,2.1-4.9.3.2.7.3,1.2.3.5,2.4-.2,3.3.3,4.9.3.7-2.4.2-.8.7-.7,1.5-.7-.8-1.2-.7-1.2.8.6,2.4,1.7,1.5-.1.8,0,1.9,0,3h2.5c.2-.2.7-.2.7-.7-1.4-.7-1.7-7.9.5-8.5-.2-1.4-2-1.8,0-2.3-.1-.7-1.1-.7-1.7-1.1.2-1.2.7-2.4.8-3.7-2.4-2.5,2.4-6.9-.8-9.9,1.4-.8.8-2.1,0-3.4,1.4-1.5,1.8,2.1,2.5,1.1,1.2,0-1,1,.8.7-2.6,3,.3,8.2-2.1,9.9,2.5,2.1,1,4.5.8,7.4,0,2.1,2.9,4.4-.5,5.2,1.5.6,1,1.1,1.7,2.6,1,.1.8-.5.8-1.1.5,1,1.7,1.2,1.7,2.6,1.7-1-1-3.8-1.2-5.5.5,1,2.3,1.1,1.7-.7.6,0,1.2,0,1.2-.3,1.1.6.8,2.4,1.2,3.7-.7,0-1-.6-.8-1.5-1.8.8,1.8,2,0,3,.3,1,1-1.1,1.7,0-.8,1-1.4,1.8-1.6,2.6h1.8v-21.4c-.2-.2-.2-.7-.2-1.2h.3ZM725.7,111.9c.7.8,1,2.1.8,3.7-.8-.5-1.2-1.5-2.1-1.8,0-1,1.4-.8,1.2-1.8h.1ZM723.3,67.5c.7.3,2.3,0,2.1,1.1-.6,0-1.6-.2-1.7.3-.6,0-.3-1-.5-1.5ZM723.6,134.2c1.4,0,2.9,0,3,1.1-1.4,0-3,.1-3-1.1ZM726.1,123c-.7,0-.7-.3-1.2-.3.3-2,.7-3,.8-5.2,1.7,1,.5,3.8.3,5.5h.1ZM729.1,63.4c1.7-.3,1.5,2,.8,2.6,0,1,1.5.7,2.5.7-.5,2.3-2.4-.5-3.7,1.1,0-.3.1-.3.5-.3,0-1.5-1.1-2.5,0-4.1h-.1.1ZM731.3,91.6c-.5,0-1.5.5,0,1.1-1.5,1.4,0,3-.8,4.9-1.9-4-.5-8-.8-12.2,2.6,0-.6,3.4,1.7,4.1-.8-.1-1.4,1.6,0,2.1h-.1ZM729.6,76c3.2,2.6-.2,4.1.8,8.9-2.1-1.6-.7-6.3-.8-8.9ZM727.9,94.5c-1.7-.3,0-1.5-.5-3,1.5.2.7,2.1.5,3ZM729.1,68.2c2.6-.2.7,1.4,1.7,2.6-1,.2-1.5,1-2.1,1.5-.3-.7.3-2,.5-4.1ZM731.2,117.1c-1.8-.3-.6-1.2-1.2-2.3,1.6-.2,1.4,1.1,1.2,2.3ZM729.5,114.5c-.3-.5,0-2.6,1.1-3.3v-.2c-.6-.5-1-1-1.9-1,.5-2.5,1.5-8.1.5-9.9.8-1.1.7-1.6,1.7-1.8-1,.7,1.2,2.7-.8,3,.8,2.7,1.4,7.2.6,9.8h.1c0,.1-.1.1-.2.2,0,.2,0,.5-.1.6.3.5.6,1.2,1.7,1.1-1.1.2-1.2,1.5-2.5,1.5h-.1ZM732.8,112.4c-1.9-.2-.8-2.3-.8-3,.6.1.6.6,1.2.7.2,1.1-.7,1.1-.5,2.3h.1-.1ZM731.7,61.2h2.5c0,.6-2.7,1.5-2.5,0ZM735.8,107.9c1.9.7-.8,2.1,0,2.6-1.5,1.2-.3-2,0-2.6ZM736.2,138.9c-2-.7,1.1-2.1-.8-2.6,1-1.2,1.6,1.1,1.7,1.9-.3.1-.7.3-.8.7h-.1ZM735,125.2c.3-1.1,1.6-1.4,3-1.5.2,1.6-1.9,1-3,1.5Z"/>
  <path class="st0" d="M82.3,126.7h.2v-63.1c-1.2,0-1.2-1.5,0-1.5V19.3h-18.7v130.1h5.8c-.3-1.2-1.4-1.7-2.9-1.9.6-1.4-.2-1.7.5-3,3,.7.2-3.6,2.1-4.9.3.2.7.3,1.2.3.5,2.4-.2,3.3.3,4.9.3.7-2.4.2-.8.7-.7,1.5-.7-.8-1.2-.7-1.2.8.6,2.4,1.7,1.5-.1.8,0,1.9,0,3h2.5c.2-.2.7-.2.7-.7-1.4-.7-1.7-8,.5-8.6-.2-1.4-2-1.8,0-2.3-.1-.7-1.1-.7-1.7-1.1.2-1.2.7-2.4.8-3.7-2.4-2.5,2.4-6.9-.8-10,1.4-.8.8-2.1,0-3.4,1.4-1.5,1.8,2.1,2.5,1.1,1.2,0-1,1,.8.7-2.7,3,.3,8.4-2.1,10,2.5,2.1,1,4.6.8,7.4,0,2.1,2.9,4.5-.5,5.2,1.5.6,1,1.1,1.7,2.7,1,.1.8-.5.8-1.1.5,1,1.7,1.2,1.7,2.7,1.7-1-1-3.8-1.2-5.5.5,1,2.3,1.1,1.7-.7.6,0,1.2,0,1.2-.3,1.1.6.8,2.4,1.2,3.7-.7,0-1-.6-.8-1.5-1.8.8,1.8,2,0,3,.3,1,1-1.1,1.7,0-.8,1-1.4,1.8-1.6,2.7h1.8v-21.7c-.2-.2-.2-.7-.2-1.2h.5ZM69.2,113.6c.7.8,1,2.1.8,3.7-.8-.5-1.2-1.5-2.1-1.8,0-1,1.4-.8,1.2-1.8h.1ZM66.6,68.8c.7.3,2.3,0,2.1,1.1-.6,0-1.6-.2-1.7.3-.6,0-.3-1-.5-1.5ZM67,136c1.4,0,2.9,0,3,1.1-1.4,0-3,.1-3-1.1ZM69.5,124.8c-.7,0-.7-.3-1.2-.3.3-2,.7-3,.8-5.2,1.7,1,.5,3.8.3,5.5h.1ZM72.6,64.7c1.7-.3,1.5,2,.8,2.7,0,1,1.5.7,2.5.7-.5,2.3-2.4-.5-3.7,1.1,0-.3.1-.3.5-.3,0-1.5-1.1-2.5,0-4.1h-.1.1ZM74.7,93.1c-.5,0-1.5.5,0,1.1-1.5,1.4,0,3-.8,4.9-1.9-4-.5-8.1-.8-12.3,2.7,0-.6,3.4,1.7,4.1-.8-.1-1.4,1.6,0,2.1h-.1ZM73,77.4c3.2,2.7-.2,4.1.8,8.9-2.1-1.6-.7-6.4-.8-8.9ZM71.3,96.1c-1.7-.3,0-1.5-.5-3,1.5.2.7,2.1.5,3ZM72.6,69.5c2.7-.2.7,1.4,1.7,2.7-1,.2-1.5,1-2.1,1.5-.3-.7.3-2,.5-4.1h0ZM74.6,118.8c-1.8-.3-.6-1.2-1.2-2.3,1.6-.2,1.4,1.1,1.2,2.3ZM72.9,116.2c-.3-.5,0-2.7,1.1-3.3v-.2c-.6-.5-1-1-1.9-1,.5-2.5,1.5-8.2.5-10,.8-1.1.7-1.6,1.7-1.8-1,.7,1.2,2.8-.8,3,.8,2.8,1.4,7.2.6,9.9h.1c0,.1-.1.1-.2.2,0,.2,0,.5-.1.6.3.5.6,1.2,1.7,1.1-1.1.2-1.2,1.5-2.5,1.5h-.1ZM76.3,114c-1.9-.2-.8-2.3-.8-3,.6.1.6.6,1.2.7.2,1.1-.7,1.1-.5,2.3h.1-.1ZM75.1,62.5h2.5c0,.6-2.8,1.5-2.5,0ZM79.3,109.6c1.9.7-.8,2.1,0,2.7-1.5,1.2-.3-2,0-2.7ZM79.7,140.8c-2-.7,1.1-2.1-.8-2.7,1-1.2,1.6,1.1,1.7,1.9-.3.1-.7.3-.8.7h-.1ZM78.4,127.1c.3-1.1,1.6-1.4,3-1.5.2,1.6-1.9,1-3,1.5Z"/>
  <path class="st0" d="M775.8,18.9c-6.4,0-11.7,1.1-15.9,3.6.1,1.8,0,3.4-.2,4.7h.1c0,.1-.1.1-.2.1,0,.2,0,.5-.1.6.3.5.6,1.1,1.7,1-1,.2-1.1,1.4-2.5,1.4-.3-.5,0-2.6,1-3.2v-.2c-.6-.3-.9-.9-1.9-.9.1-.7.2-1.7.5-2.6-5.8,4.4-8.7,11.6-8.7,21.9v77.4c0,17.7,8.7,26.6,26.2,26.6s1.1,0,1.8,0v-1.1c.3.1.6.6.7,1,5.4-.3,10-1.6,13.5-3.7.5-1.7.8-3.4-.7-5,1.2-.8.8-2.1,0-3.3,1.2-1.4,1.8,2.1,2.5,1,1.1,0-.9.9.8.7-1.2,1.6-1.1,3.5-1,5.4,5.8-4.4,8.7-11.6,8.7-21.9v-20.5h-9.7c0,.8,0,1.8.1,2.8-.8-.6-1-1.7-1.1-2.8h-7.6v20.5c0,5.2-2.3,8-6.7,8.5,0,.7.3,1.7.5,2.1-1.2-.2-1.2-1-1-2h-.7c-5.3,0-8-2.8-8-8.6V45.2c0-1.2.1-2.4.3-3.3-.5-.2-.6-.7-.6-1.4.5,0,.7,0,.9.2,1.1-2.7,3.5-4.1,7-4.1h.6c4.9.2,7.3,3,7.3,8.6v31h18.2v-31c0-17.7-8.8-26.5-26.3-26.5h0l.6.2h0ZM797.9,127.7c1.9.7-.8,2.1,0,2.6-1.4,1.1-.3-2,0-2.6ZM793.2,136.9c-1.8-.3-.6-1.1-1.1-2.3,1.6-.2,1.2,1,1.1,2.3ZM794,129.2c.6.1.6.6,1.1.7.2,1-.7,1-.5,2.3-1.9-.2-.8-2.3-.8-2.9h.1ZM791.7,105.6c2.6-.1-.6,3.3,1.7,4-.8-.1-1.2,1.6,0,2.3-.5,0-1.4.5,0,1-1.4,1.2,0,2.9-.8,4.7-1.9-3.8-.5-7.9-.8-12h-.1ZM791.2,120.2c.8-1,.7-1.6,1.7-1.8-.9.7,1.1,2.7-.8,2.9.8,2.7,1.2,7,.6,9.6h.1c0,.1-.1.1-.2.2,0,.2,0,.5-.1.6.3.5.6,1.1,1.7,1-1,.2-1.1,1.4-2.5,1.4-.3-.5,0-2.6,1-3.2v-.2c-.6-.5-.9-.9-1.9-.9.5-2.5,1.4-8,.5-9.7h0ZM789.6,111.8c1.4.2.7,2.1.5,2.9-1.7-.3,0-1.4-.5-2.9ZM788.3,142.6c-.7,0-.7-.3-1.1-.3.3-2,.7-2.9.8-5.1,1.7.9.5,3.7.3,5.4ZM787.9,131.8c.7.8.9,2.1.8,3.6-.8-.5-1.1-1.4-2.1-1.8,0-.9,1.2-.8,1.1-1.8h.2ZM777.5,134.3c.6,0,1.1,0,1.1-.3,1.6.7.6,1.8.8,2.3-.8.9-1.6-.2-.8-1-.5.2-.5.8-1.1.7,0,.9.6,1.1.8,1.8.8-1.6,2.1,0,2.5,1-.6-1-1.7.6-2.1-.3-1.4.7-1.1,2.5-.8,3.3-2.1.3-1.4-5.2-.3-7.3h0ZM774.7,132.8c-.8.6-.9,1.9-.8,3.3-1.2-.1-1.4-4,.8-3.3ZM764.9,24.1c1.9.7-.8,2.1,0,2.6-1.4,1.1-.3-2,0-2.6ZM766.9,39.7c.2,1.6-1.9.9-2.9,1.4.3-.9,1.6-1.2,2.9-1.4ZM764.4,52.1c.9-1.1,1.6,1,1.7,1.9-.3.1-.7.3-.8.7-2-.8,1-2.1-.8-2.6h-.1ZM761.3,25.6c.6.1.6.6,1.1.7.2,1-.7,1-.5,2.1-1.9-.2-.8-2.3-.8-2.9h.1ZM760.3,33.3c-1.8-.3-.6-1.1-1.1-2.1,1.6-.2,1.2,1,1.1,2.1ZM755.1,28.1c.7.8.9,2.1.8,3.6-.8-.5-1.1-1.4-2.1-1.8,0-.9,1.2-.8,1.1-1.8h.2ZM755.5,39c-.7,0-.7-.3-1.1-.3.3-2,.7-2.9.8-5.1,1.7.9.5,3.7.3,5.4ZM755.9,51c-1.2,0-2.9.1-2.9-1,1.2,0,2.8,0,2.9,1ZM756.2,74.7c-1.4-1.1-.3-3.6-.3-5.4,1,.7.5,3.8.3,5.4ZM755.9,59.3c-.7,1.4-.7-.8-1.1-.7-1.1.8.6,2.4,1.7,1.4-.5,2.4,1.6,6.8-.8,8.4.6-.6.8-2.8-.8-2.6.8-1.1-.9-2.3.8-2.6-.2-1.4-1.2-2-2.9-2.3.6-1.2-.2-1.7.5-2.9,2.9.7.2-3.5,2.1-4.7.3.2.7.3,1.1.3.5,2.4-.2,3.2.3,4.7.3.7-2.4.2-.8.7h0v.2h-.1ZM759.1,68h-.8c-.2-.2-.5-.6-.5-1h1.7v-.7c1.4.6-.8.9-.5,1.8h.1-.1ZM760.8,68.4c-.6-.9,1.7-1.1.5-1.4.3-1,1.2.2,2.1,0,0,.3-.1.3-.5.3.2.3.3.7.8.7-.3.9-1.7-.8-1.1,1-.8,0-.6-.9-1.7-.7h-.1ZM762.3,72.4c-.3-.2-.7-.3-1.1-.3.2-.2.6-.9,0-1,0-.3.1-.3.5-.3h.8c-.2,1.1.7,1.1,0,1.9h-.1v-.2ZM765.2,71.7c-.6-.2-.7-.8-.8-1.4.3,0,.3.1.5.3.6,0,.1-1,.8-1,1.6-.3.3,1.7,1.7,1.4.2,1-2.3-.2-2.1.7ZM766.6,69.1c-1.8-.2-2.1.8-2.5,1.8-1.2.3-1.2-.6-2.1-.7,3.5-1.4,0-3,2.9-4,0-1-.7-1.6-.8-2.6-.3,0-1,1.7-.5,1.4-.6.7-1.7-.9-.8-1.8-1.4,0,0,.9-1.7,1,0,.8.3,1.1,1.1,1-1.6,1-3-.9-3.6-1.9-.2-.9.8-.7.8-1.4-1.2-.7-1.7-7.8.5-8.4-.2-1.2-2-1.8,0-2.1-.1-.7-1-.7-1.7-1,.2-1.1.7-2.4.8-3.6-2.4-2.5,2.4-6.7-.8-9.7,1.2-.8.8-2.1,0-3.3,1.2-1.4,1.8,2.1,2.5,1,1.1,0-.9.9.8.7-2.6,2.9.3,8.1-2.1,9.7,2.5,2.1.9,4.5.8,7.3,0,2.1,2.8,4.4-.5,5.1,1.4.6.9,1,1.7,2.6.9.1.8-.5.8-1,.5.9,1.7,1.1,1.7,2.6,1.7-.9-.9-3.7-1.1-5.4.5.9,2.3,1,1.7-.7.6,0,1.1,0,1.1-.3,1,.6.8,2.4,1.1,3.6-.7,0-.9-.6-.8-1.4-1.8.8,1.8,2,0,2.9.3.9.9-1,1.7,0-2.3,2.7-1.9,4.4-1.2,8.7h.2v-.2ZM771.9,26.4c.8,2.5.7,4.1.3,5.8-1-1.8-.9-4-.3-5.8ZM772.3,37.3c-1-1.7-.2-3.3-.8-4.7,2.7.3.7,3.5.8,4.7Z"/>
  <path class="st0" d="M812.4,25.4v2.1c.4-.4.6-1.7,0-2.1Z"/>
  <path class="st0" d="M862.8,127.5h0v-61.4c-1,0-1-1.4,0-1.4v-19.3c0-17.7-8.7-26.5-26.2-26.5s-6.5.3-9.4,1h0c-2.6.7-5,1.7-6.9,2.9.5-.2,1-.2,1.7-.3.2,1.6-1.9.9-2.9,1.4,0-.1,0-.2.1-.3-1.8,1.2-3.3,2.9-4.6,4.9,2.3,2.1.7,4.5.7,7.2s2.8,4.4-.5,5.1c1.4.6.9,1,1.7,2.6.9.1.8-.5.8-1,.5.9,1.7,1.1,1.7,2.6,1.7-.9-.9-3.7-1.1-5.4.5.9,2.3,1,1.7-.7.6,0,1.1,0,1.1-.3,1,.6.8,2.4,1.1,3.6-.7,0-.9-.6-.8-1.4-1.8.8,1.8,2,0,2.9.3.9.9-1,1.7,0-2.3,2.7-1.9,4.4-1.2,8.7-1.8-.2-2.1.8-2.5,1.8-1.2.3-1.2-.6-2.1-.7,3.5-1.4,0-3,2.9-4,0-1-.7-1.6-.8-2.6-.3,0-1,1.7-.5,1.4-.6.7-1.7-.9-.8-1.8-1.4,0,0,.9-1.7,1,0,.8.3,1.1,1.1,1-1.6,1-3-.9-3.6-1.9-.2-.9.8-.7.8-1.4-1.2-.7-1.7-7.8.5-8.4-.2-1.2-2-1.8,0-2.1-.1-.7-1-.7-1.7-1,.2-1.1.7-2.4.8-3.6,0,0,0-.1-.1-.2-1.1,2.1-2.1,4.6-2.7,7.3.5,2.3-.2,3,.3,4.6.2.3-.7.3-1,.5v.2h.2c-.1.2-.2.3-.3.5v.6c.2,0,.5,0,.7-.2-.5,2.4,1.6,6.8-.8,8.4v25.3h18.2v-23.9c-1.2-1.1-.1-3.3-1.4-5,3.2-1-1.2-8,1.7-10.2v5.5c.7-3.8,3.3-5.9,7.7-6h.1c5.3,0,7.9,2.8,7.9,8.6v45.6c-22.5,2.3-33.7,14-33.7,35.2s1.6,12,4.6,16.5c3,4.5,7.6,6.7,13.5,6.7s4-.3,5.9-.8c0-.7.5-1.2,1.2-.8v.3c1.6-.6,3-1.6,4.4-2.6-.6-1.4.6-3-.2-4.7,1.2,1,1,2.5.8,4.1,1.7-1.4,3-3.3,4.2-5.4l1.2,7.8h1.1c.3-1-.2-1.4.2-2.6,2.9.7.2-3.5,2.1-4.7.3.2.7.3,1.1.3.5,2.4-.2,3.2.3,4.7.3.7-2.4.2-.8.7-.7,1.4-.7-.8-1.1-.7-1.1.8.6,2.4,1.7,1.4v.7h2.6c-.6-2.3-.3-6.4,1.1-6.9-.2-1.2-2-1.8,0-2.3-.1-.7-1-.7-1.7-1,.2-1.1.7-2.4.8-3.6-2.4-2.5,2.4-6.7-.8-9.7,1.2-.8.8-2.1,0-3.3,1.2-1.4,1.8,2.1,2.5,1,1.1,0-.9.9.8.7-2.6,2.9.3,8.1-2.1,9.7,2.5,2.1.9,4.5.8,7.3,0,2.1,2.8,4.4-.5,5.1,1.4.6.9,1,1.7,2.6.9.1.8-.5.8-1,.3.6.9.9,1.2,1.4h.8c0-1.2-1.6-3.2-1.8-4.4.5.9,2.3,1,1.7-.7.6,0,1.1,0,1.1-.3,1,.6.8,2.4,1.1,3.6-.7,0-.9-.6-.8-1.4-1.8.8,1.8,2,0,2.9.3.9.9-1,1.7,0-.1.1-.2.2-.2.3h.3v-19.1c-.1-.2-.1-.6,0-.9h.6v-.2ZM820.2,37.4c-2-.8,1-2.1-.8-2.6.9-1.1,1.6,1,1.7,1.9-.3.1-.7.3-.8.7h-.1ZM811.2,57.4c-1.4-1.1-.3-3.6-.3-5.4,1,.7.5,3.8.3,5.4ZM814,50.9h-.8c-.2-.2-.5-.6-.5-1h1.7v-.7c1.4.6-.8.9-.5,1.8h.1-.1ZM815.7,51.2c-.6-.9,1.7-1.1.5-1.4.3-1,1.2.2,2.1,0,0,.3-.1.3-.5.3.2.3.3.7.8.7-.3.9-1.7-.8-1.1,1-.8,0-.6-.9-1.7-.7h-.1ZM817.3,55.3c-.3-.2-.7-.3-1.1-.3.2-.2.6-.9,0-1,0-.3.1-.3.5-.3h.8c-.2,1.1.7,1.1,0,1.9h-.1v-.2ZM820.2,54.6c-.6-.2-.7-.8-.8-1.4.3,0,.3.1.5.3.6,0,.1-1,.8-1,1.6-.3.3,1.7,1.7,1.4.2,1-2.3-.2-2.1.7ZM823.9,25.1c-1,0-1.2-.5-1.1-1.4,1,0,1.2.5,1.1,1.4ZM827.3,23.7c-.9-.2-1.1-2.3.5-2.1,0,.9,0,1.8-.5,2.1ZM831.8,23.3c-.9-.5-.1-2.6-.5-3.6,1.1,1,.7,2.9.5,3.6ZM841.1,93.8c1.4.3-.1,1.4.8,1.8,0,.3-.5.2-.5,0-.7,0-.8.5-1.7.3.1-.9,1.1-1,1.1-2.1h.2ZM841.4,104.7c-1.9-.1.1-2.7-.8-2.9,2.1-.7.1,2,.8,2.9ZM837.3,96.4c.6-.6,1.9.2,2.1,1-1.1,0-2.3,0-2.1-1ZM835.7,100.1c1,0,.9,1.2.5,1.8-1,0-.9-1.2-.5-1.8ZM835.7,102.1c1,0,.1,1.2,0,1.4-.8-.2-.2-1.7-1.1-1.8.7-1.7.9,1.8,1.1.3h0ZM840.1,138.1c-.6-1.4-.2-5.5-.3-6.5,1.6.6.8,5.2.3,6.5ZM844.6,115.2c0,11.1-4,16.9-11.7,17.5-2.5,0-3.6-2.7-3.6-8.2,0-8.1,5.2-13.4,15.5-16v6.7h-.1ZM850,114.9c.7.8.9,2.1.8,3.6-.8-.5-1.1-1.4-2.1-1.8,0-.9,1.2-.8,1.1-1.8h.2ZM847.6,71.4c.7.3,2.3,0,2.1,1-.6,0-1.6-.2-1.7.3-.6,0-.3-.9-.5-1.4ZM848,136.5c1.2,0,2.8,0,2.9,1-1.2,0-2.9.1-2.9-1ZM850.5,125.8c-.7,0-.7-.3-1.1-.3.3-2,.7-2.9.8-5.1,1.7.9.5,3.7.3,5.4ZM853.4,67.3c1.7-.3,1.4,2,.8,2.6,0,.9,1.4.7,2.5.7-.5,2.3-2.4-.5-3.6,1,0-.3.1-.3.5-.3,0-1.4-1-2.5,0-4h-.1ZM855.4,95c-.5,0-1.4.5,0,1-1.4,1.2,0,2.9-.8,4.7-1.9-3.8-.5-7.9-.8-12,2.6,0-.6,3.3,1.7,4-.8-.1-1.2,1.6,0,2.1h-.1ZM853.7,79.6c3,2.6-.2,4,.8,8.7-2.1-1.6-.7-6.2-.8-8.7ZM852.1,97.8c-1.7-.3,0-1.4-.5-2.9,1.4.2.7,2.1.5,2.9ZM853.4,72.1c2.6-.2.7,1.2,1.7,2.6-.9.2-1.4.9-2.1,1.4-.3-.7.3-2,.5-4ZM855.4,120.1c-1.8-.3-.6-1.1-1.1-2.3,1.6-.2,1.2,1,1.1,2.3ZM853.7,117.5c-.3-.5,0-2.6,1-3.2v-.2c-.6-.5-.9-.9-1.9-.9.5-2.5,1.4-8,.5-9.7.8-1,.7-1.6,1.7-1.8-.9.7,1.1,2.7-.8,2.9.8,2.7,1.2,7,.6,9.6h.1c0,.1-.1.1-.2.2,0,.2,0,.5-.1.6.3.5.6,1.1,1.7,1-1,.2-1.1,1.4-2.5,1.4h0ZM857,115.2c-1.9-.2-.8-2.3-.8-2.9.6.1.6.6,1.1.7.2,1-.7,1-.5,2.3h.1ZM855.9,65.1h2.5c0,.6-2.7,1.4-2.5,0ZM859.8,110.8c1.9.7-.8,2.1,0,2.6-1.4,1.1-.3-2,0-2.6ZM860.3,141.4c-2-.7,1-2.1-.8-2.6.9-1.1,1.6,1,1.7,1.9-.3.1-.7.3-.8.7h-.1ZM859,127.8c.3-1,1.6-1.2,2.9-1.4.2,1.6-1.9.9-2.9,1.4Z"/>
  <path class="st0" d="M282.8,127.2h0v-61.3c-1,0-1-1.4,0-1.4v-19.3c0-17.7-8.7-26.5-26.2-26.5s-6.5.3-9.4,1h0c-2.6.7-5,1.7-6.9,2.9.5-.2,1-.2,1.7-.3.2,1.6-1.9.9-2.9,1.4,0-.1,0-.2.1-.3-1.8,1.2-3.3,2.9-4.6,4.9,2.3,2.1.7,4.5.7,7.2s2.8,4.4-.5,5.1c1.4.6.9,1,1.7,2.6.9.1.8-.5.8-1,.5.9,1.7,1.1,1.7,2.6,1.7-.9-.9-3.7-1.1-5.4.5.9,2.3,1,1.7-.7.6,0,1.1,0,1.1-.3,1,.6.8,2.4,1.1,3.6-.7,0-.9-.6-.8-1.4-1.8.8,1.8,2,0,2.9.3.9.9-1,1.7,0-2.3,2.7-1.9,4.4-1.2,8.7-1.8-.2-2.1.8-2.5,1.8-1.2.3-1.2-.6-2.1-.7,3.5-1.4,0-3,2.9-4,0-1-.7-1.6-.8-2.6-.3,0-1,1.7-.5,1.4-.6.7-1.7-.9-.8-1.8-1.4,0,0,.9-1.7,1,0,.8.3,1.1,1.1,1-1.6,1-3-.9-3.6-1.9-.2-.9.8-.7.8-1.4-1.2-.7-1.7-7.8.5-8.4-.2-1.2-2-1.8,0-2.1-.1-.7-1-.7-1.7-1,.2-1.1.7-2.4.8-3.6,0,0,0-.1-.1-.2-1.1,2.1-2.1,4.6-2.7,7.3.5,2.3-.2,3,.3,4.6.2.3-.7.3-1,.5v.2h.2c-.1.2-.2.3-.3.5v.6c.2,0,.5,0,.7-.2-.5,2.4,1.6,6.8-.8,8.4v25.3h18.2v-23.9c-1.2-1.1-.1-3.3-1.4-5,3.2-1-1.2-8,1.7-10.2v5.5c.7-3.8,3.3-5.9,7.7-6h.1c5.3,0,7.9,2.8,7.9,8.6v45.6c-22.5,2.3-33.7,14-33.7,35.2s1.6,12,4.6,16.5c3,4.5,7.6,6.7,13.5,6.7s4-.3,5.9-.8c0-.7.5-1.2,1.2-.8v.3c1.6-.6,3-1.6,4.4-2.6-.6-1.4.6-3-.2-4.7,1.2,1,1,2.5.8,4.1,1.7-1.4,3-3.3,4.2-5.4l1.2,7.8h1.1c.3-1-.2-1.4.2-2.6,2.9.7.2-3.5,2.1-4.7.3.2.7.3,1.1.3.5,2.4-.2,3.2.3,4.7.3.7-2.4.2-.8.7-.7,1.4-.7-.8-1.1-.7-1.1.8.6,2.4,1.7,1.4v.7h2.6c-.6-2.3-.3-6.4,1.1-6.9-.2-1.2-2-1.8,0-2.3-.1-.7-1-.7-1.7-1,.2-1.1.7-2.4.8-3.6-2.4-2.5,2.4-6.7-.8-9.7,1.2-.8.8-2.1,0-3.3,1.2-1.4,1.8,2.1,2.5,1,1.1,0-.9.9.8.7-2.6,2.9.3,8.1-2.1,9.7,2.5,2.1.9,4.5.8,7.3,0,2.1,2.8,4.4-.5,5.1,1.4.6.9,1,1.7,2.6.9.1.8-.5.8-1,.3.6.9.9,1.2,1.4h.8c0-1.2-1.6-3.2-1.8-4.4.5.9,2.3,1,1.7-.7.6,0,1.1,0,1.1-.3,1,.6.8,2.4,1.1,3.6-.7,0-.9-.6-.8-1.4-1.8.8,1.8,2,0,2.9.3.9.9-1,1.7,0-.1.1-.2.2-.2.3h.3v-19.1c-.1-.2-.1-.6,0-.9h.6v-.3ZM240.3,37.1c-2-.8,1-2.1-.8-2.6.9-1.1,1.6,1,1.7,1.9-.3.1-.7.3-.8.7h-.1ZM231.2,57.1c-1.4-1.1-.3-3.6-.3-5.4,1,.7.5,3.8.3,5.4ZM234.1,50.6h-.8c-.2-.2-.5-.6-.5-1h1.7v-.7c1.4.6-.8.9-.5,1.8h.1-.1ZM235.6,51c-.6-.9,1.7-1.1.5-1.4.3-1,1.2.2,2.1,0,0,.3-.1.3-.5.3.2.3.3.7.8.7-.3.9-1.7-.8-1.1,1-.8,0-.6-.9-1.7-.7h-.1,0ZM237.3,54.9c-.3-.2-.7-.3-1.1-.3.2-.2.6-.9,0-1,0-.3.1-.3.5-.3h.8c-.2,1.1.7,1.1,0,1.9h-.1v-.2ZM240.3,54.2c-.6-.2-.7-.8-.8-1.4.3,0,.3.1.5.3.6,0,.1-1,.8-1,1.6-.3.3,1.7,1.7,1.4.2,1-2.3-.2-2.1.7ZM243.9,24.9c-1,0-1.2-.5-1.1-1.4,1,0,1.2.5,1.1,1.4ZM247.3,23.3c-.9-.2-1.1-2.3.5-2.1,0,.9,0,1.8-.5,2.1ZM251.8,23c-.9-.5-.1-2.6-.5-3.6,1.1,1,.7,2.9.5,3.6ZM261,93.5c1.4.3-.1,1.4.8,1.8,0,.3-.5.2-.5,0-.7,0-.8.5-1.7.3.1-.9,1.1-1,1.1-2.1h.2ZM261.4,104.4c-1.9-.1.1-2.7-.8-2.9,2.1-.7.1,2,.8,2.9ZM257.3,96.1c.6-.6,1.9.2,2.1,1-1.1,0-2.3,0-2.1-1ZM255.6,99.7c1,0,.9,1.2.5,1.8-1,0-.9-1.2-.5-1.8ZM255.6,101.9c1,0,.1,1.2,0,1.4-.8-.2-.2-1.7-1.1-1.8.7-1.7.9,1.8,1.1.3h0ZM260.1,137.8c-.6-1.4-.2-5.5-.3-6.5,1.6.6.8,5.2.3,6.5ZM264.5,114.9c0,11.1-4,16.9-11.7,17.5-2.5,0-3.6-2.7-3.6-8.2,0-8.1,5.2-13.4,15.5-16v6.7h-.1ZM270,114.5c.7.8.9,2.1.8,3.6-.8-.5-1.1-1.4-2.1-1.8,0-.9,1.2-.8,1.1-1.8h.2ZM267.6,71.1c.7.3,2.3,0,2.1,1-.6,0-1.6-.2-1.7.3-.6,0-.3-.9-.5-1.4ZM267.9,136.3c1.2,0,2.8,0,2.9,1-1.2,0-2.9.1-2.9-1ZM270.4,125.5c-.7,0-.7-.3-1.1-.3.3-2,.7-2.9.8-5.1,1.7.9.5,3.7.3,5.4ZM273.3,67c1.7-.3,1.4,2,.8,2.6,0,.9,1.4.7,2.5.7-.5,2.3-2.4-.5-3.6,1,0-.3.1-.3.5-.3,0-1.4-1-2.5,0-4h-.1,0ZM275.4,94.7c-.5,0-1.4.5,0,1-1.4,1.2,0,2.9-.8,4.7-1.9-3.8-.5-7.9-.8-12,2.6,0-.6,3.3,1.7,4-.8-.1-1.2,1.6,0,2.1h-.1ZM273.7,79.4c3,2.6-.2,4,.8,8.7-2.1-1.6-.7-6.2-.8-8.7ZM272.1,97.5c-1.7-.3,0-1.4-.5-2.9,1.4.2.7,2.1.5,2.9ZM273.3,71.7c2.6-.2.7,1.2,1.7,2.6-.9.2-1.4.9-2.1,1.4-.3-.7.3-2,.5-4ZM275.4,119.7c-1.8-.3-.6-1.1-1.1-2.3,1.6-.2,1.2,1,1.1,2.3ZM273.7,117.1c-.3-.5,0-2.6,1-3.2v-.2c-.6-.5-.9-.9-1.9-.9.5-2.5,1.4-8,.5-9.7.8-1,.7-1.6,1.7-1.8-.9.7,1.1,2.7-.8,2.9.8,2.7,1.2,7,.6,9.6h.1c0,.1-.1.1-.2.2,0,.2,0,.5-.1.6.3.5.6,1.1,1.7,1-1,.2-1.1,1.4-2.5,1.4h0ZM277.1,114.9c-1.9-.2-.8-2.3-.8-2.9.6.1.6.6,1.1.7.2,1-.7,1-.5,2.3h.1,0ZM275.8,64.9h2.5c0,.6-2.7,1.4-2.5,0ZM279.9,110.6c1.9.7-.8,2.1,0,2.6-1.4,1.1-.3-2,0-2.6ZM280.2,141c-2-.7,1-2.1-.8-2.6.9-1.1,1.6,1,1.7,1.9-.3.1-.7.3-.8.7h-.1ZM279,127.6c.3-1,1.6-1.2,2.9-1.4.2,1.6-1.9.9-2.9,1.4Z"/>
  <path class="st0" d="M645.1,25.1c-.5-.1-.6-.7-1.1-.8.1-.5.5-.8,1.1-.8-.6-1-1,.2-1.9-.3-.5.1-.3,1.1-.3,1.7-1.4-.1-2.4-1-4.1-.3,0-.3.5-.3.7-.3.5-1.4-1.2-.3-.7-1.7,3.2,0,7.3,1.1,8.5-1.7h.2v-9.3h-1c-.2.2-.3.2-.7.2h0l-11.4,1.5c1.1,0,1.8.2,2.9-.2.7-.3.2,2.4.7.8,1.5.7-.8.7-.7,1.2.8,1.2,2.4-.6,1.5-1.7,2.4.5,7-1.6,8.5.8-.6-.6-2.9-.8-2.6.8-1.2-.8-2.3,1-2.6-.8-1.5.2-2,1.4-2.3,3-1.4-.6-1.7.2-3-.5.7-3-3.6-.2-4.9-2.1.1-.3.3-.6.3-1.2l-3,.3c0,1.4.1,2.9-1.1,2.9,0-1.1,0-2.4.7-2.7l-34.9,4.6v4.6c.6.1,1.2.2,1.6,0,0,1.1-.8,1-1.6.7v4.9c.2,0,.3.2.5.2,0,.2-.2.3-.5.5v1.8h53.3v-7.1c-1,0-1.8,0-2.4.7h0l.2.2h.1ZM604.1,25.5c0-.5,0-.7.3-.8-.3-.6-1-1-1.8-.8-.5,1.6,1.7,0,1.1,1.7-1.2-.2-2.4-.7-2.6-2.1,1-1.1,3,1,3.4-1.4,0,.7,1.8,3.2.3,2.9.6,1.1,2.6.1,3.4,0-.5,2.1-2.5.8-4.1.3h0v.2h-.1ZM607.3,28.1c.6.8,1.9,1,3.4.8-.1,1.4-4.1,1.5-3.4-.8ZM608.8,25c0-.6,0-1.2-.3-1.4.7-1.6,1.8-.6,2.3-.8,1,.8-.2,1.6-1.1.8.2.5.8.5.7,1.4,1,0,1.2-.7,1.8-.8-1.6-.8,0-2.1,1.1-2.5-1.1.6.6,1.7-.3,2.1.7,1.5,2.5,1.2,3.4.8.3,2.1-5.3,1.5-7.4.3h0ZM623.4,25.1c.6-1.6,5.3-.8,6.8-.3-1.5.6-5.6.2-6.8.3ZM633,24.7c1.4-1.7,3.3-.7,5.5-.8-1.6,1.8-3.5,0-5.5.8ZM639.8,28.9c1.1-.3.7,1.2,1.9.8-.1.8-2.6.7-1.9-.8Z"/>
  <path class="st0" d="M461.3,18.4v.5c-.2-.1-.6-.2-.8-.5h-1.9v.5c0-.1-.1-.2-.2-.5h-12.3v104.9h3.5c.2-.5,0-1.6.3-2-.3-.8-.5-1.1-1.2-.6-.2-1.4.3-1.5.7-1.9,0-1.1-.8.7-.7-.3,0-1,.8-.7,1.2-1,0,2,1.1,4,.2,5.9h1.5c0-1.1.1-2-.2-2.6.7.3.6,0,1.2.3v-1.4c0-.3-.5-.2-.7-.3,1.5-.7.7-3.4,1.2-4.5.5,2.4.5,5.2.5,8.5h10.9V18.4h-3.3.2-.2ZM450.7,96.2c0,.8-1.4,1.6-1.2,0,.7-.2.5-.2,1.2,0ZM450.3,116.6c-.8,0,0-1.2-.7-1.9-.3.5-.2,1.8-.7,2.3-.7-1.1.3-3-.2-3.8,1.1.7,1.5.2,2.1,1.4-.3.8-1,1.2-.5,2.3h-.1ZM449.9,102c-.2,1.6,1.2,3,0,3.8,0,.5.3-.1.7,0-.8,2.3.5,4.4-.2,7.1-.6-1-.3-2.4-1.7-2.9-.5-3.8,1.7-5.9-.2-8.4.8,1.1.6-1.4,1.2-1.7,0-.3-.5-.2-.5-.6.2-1,.2-2.3,1.5-1.9,0,1.2,0,2.4.5,2.9-.3.6-1,.8-1.2,1.7h0ZM452.9,97.5c0-3.4.3-2.3.2,1.7-1.1,0-.2-1.4-.2-1.7ZM453.3,113.1c-.6-.2-1.2-.6-1.7-1,0-1.5.6,0,1.2-.3-.5-4.4-.3-7.7,0-10.7,1.1,3.3,0,7.8.5,12h0ZM455.5,122.4c-.3-.3-.6-3.4.2-3.3-.2,1.7.1,2-.2,3.3ZM454.8,116.9c-1.1,0-.6-1.1-.2-1.7.3-.1.6,1.4.7.3.2,0,.1.6.5.6-.3,1.1-1.2-1.5-1,.6h0v.2ZM458.2,30.8c0,.8-.3-.5-1,0v.6c.2.5.3-.1.7.6-1,1-1.8-1-1.2-3.3.2.1.3.3.7.3.5-.3.2-1.7.5-2.3-.3-.8-.5-1-1.2-.6-.2-1.4.3-1.5.7-1.9,0-1.1-.8.7-.7-.3,0-1,.8-.7,1.2-1,0,2.1,1.4,4.3,0,6.4,0,.5.3-.1.7,0,.1.7-1.1,1.1-.5,1.4h.2ZM458.5,22.4c-.8,0,0-1.2-.7-1.9-.3.5-.2,1.8-.7,2.3-.7-1.1.3-3-.2-3.8,1.1.7,1.5.2,2.1,1.4-.3.8-1,1.2-.5,2.3h-.1ZM461.5,30.4c0,3.6,0,7.8-.5,11.3-.7-.5-.2-3.8-.5-6.1-.2-1.7-.3-1.4-.2-2.9,0-.3-.6-2.3-.7-.3-.6-1.9.6-4.9-.2-6.1.7.3.6,0,1.2.3v-1.4c0-.3-.5-.2-.7-.3,1.5-.7.7-3.4,1.2-4.5.5,2.7.5,6,.5,10h-.2ZM462.6,21.1c.3-.1.6,1.4.7.3.2,0,.1.6.5.6-.3,1.1-1.2-1.5-1,.6-1.1,0-.6-1.1-.2-1.6h.1ZM463.5,28.2c-.3-.3-.6-3.4.2-3.3-.2,1.7.1,2-.2,3.3ZM463.3,34h-.7v-1.9c.8,1.1,0-1.8,1.2-1.4.5,2.1-1,1.9-.5,3.3h-.1Z"/>
  <path class="st0" d="M500.7,9c.3.4,1,.3.9-.5-.4-.5-.6,0-.9.5Z"/>
  <path class="st0" d="M452.8,121.7c-.5-.6-.7,0-1,.6.3.5,1.1.3,1-.6Z"/>
  <path class="st0" d="M507.4,149.3c-1.7-.2.2-2.6-.7-2.9,2.1-.7.2,2,.8,2.9,5.4-.7,9.7-2.3,13.1-5.1-1.2-3.6,0-7.3-.5-11.3,2.6-.1-.6,3.4,1.7,4.1-.8-.1-1.4,1.6,0,2.3-.5,0-1.5.5,0,1.1-1.1,1-.7,2-.6,3.3,5.1-4.5,7.7-11.5,7.7-21.2s-5.9-23.1-17.5-31.4c-8.5-5.2-13.9-11.1-16.1-17.8-.2.3-.3.6-.7.8.6-.6.8-2.9-.8-2.6.7-1.1-.7-2.1.6-2.5v-1.1c-.5-.7-1.4-1.1-2.5-1.2.6-1.4-.2-1.7.5-3,2.9.6.5-3.4,1.9-4.6v-2.7c-1.1,0-1.9-.1-1.9-1.1.6,0,1.4,0,1.9.1v-11.4c-.2,0-.3-.2-.7-.2.3-2,.7-3,.8-5.2.2.1.3.3.5.6.6-1.7,1.7-2.9,3.3-3.6-.2-.6,0-2.6,1.1-3.3v-.2c-.5-.3-1-1-1.9-1,.5-2.5,1.5-8.1.5-9.9.8-1,.7-1.6,1.7-1.8-1,.7,1.2,2.7-.8,3,.8,2.7,1.4,7.2.7,9.8h.1c0,.1-.1.1-.2.1,0,.2,0,.5-.2.6.3.5.6,1.2,1.7,1.1-.7.1-1,.6-1.5,1,.8-.2,1.8-.3,3-.3h.1c5.4,0,8.1,3,8.1,8.8v31.7h2.6c-.8-1.2,0-3.3-1.2-4.6,3.3-1.1-1.4-8.1,1.7-10.3,0,6.2-.1,10.8.7,15.1h14.8v-31.7c0-18.1-8.9-27.1-26.8-27.1s-2,0-3.2,0c0,.7,0,1.5-.2,2.1-.3-.7-.5-1.4-.7-2-5.1.5-9.3,1.7-12.6,3.8,0,.7-.5,1.8-.1,2.3-1.1,0-1-1-.7-1.7-6.2,4.4-9.4,11.9-9.4,22.6v22.3c0,15,5.8,26.6,17.5,34.9,8.1,5.9,13.4,11.2,15.8,16,0,0,.1,0,.2.1v.3c.8,1.8,1.4,3.6,1.4,5.3,0,5.9-2.6,8.8-8.1,8.8s-8.1-2.9-8.1-8.8v-9.1h-18.6v9.1c0,18.1,8.9,27.1,26.8,27.2,1.9,0,3.7-.1,5.4-.3h-.2ZM521,132.7c-2.1-1.6-.7-6.3-.8-8.9,3.2,2.6-.2,4.1.8,8.9ZM524.7,109c0,.6-2.7,1.5-2.5,0h2.5ZM519.7,111.1c1.7-.3,1.5,2,.8,2.6,0,1,1.5.7,2.5.7-.5,2.3-2.4-.5-3.7,1.1,0-.3.1-.3.5-.3,0-1.5-1.1-2.5,0-4.1h-.1.1ZM519.7,116c2.6-.2.7,1.4,1.7,2.6-1,.2-1.5,1-2.1,1.5-.3-.7.3-2,.5-4.1h0ZM518.1,139.4c1.5.2.7,2.1.5,3-1.7-.3,0-1.5-.5-3ZM516,116.4c-.7,0-1.6-.1-1.7.3-.6-.1-.3-1-.3-1.5.7.3,2.3,0,2,1.1h0ZM515.9,41.8c1.2,1.1.7,3,.5,3.7-1-.5-.1-2.6-.5-3.7ZM511.6,45.9c-1-.2-1.2-2.3.3-2.1,0,1,0,1.8-.3,2.1ZM511.3,31c.8,2.5.7,4.2.3,5.9-1.1-1.8-1-4.1-.3-5.9ZM511.6,42.2c-1-1.7-.2-3.4-.8-4.9,2.7.3.7,3.6.8,4.9ZM504.3,28.9c1.9.7-.8,2.1,0,2.6-1.5,1.2-.3-2,0-2.6ZM500.4,30.3c.6.1.7.6,1.4.7.2,1.1-.7,1.1-.3,2.1-1.9-.2-.8-2.3-.8-3h-.1v.2ZM494,32.9c.7.8,1,2.1.8,3.7-.8-.5-1.2-1.5-2.1-1.8,0-1,1.4-.8,1.4-1.8h0ZM478.9,68.5c-.8-.1-.7-2.6.8-1.9.3,1.1-1.2.7-.8,1.9ZM479.9,37.3c-1.4-.2-1.5-4.1.8-3.4-.8.6-1,1.9-.8,3.4ZM483.3,30.7c.5,0,.7,0,.8.3.6-.3,1-1,.8-1.8-1.6-.5,0,1.7-1.7,1.1.2-1.2.7-2.4,2.1-2.6,1.1,1-1,3,1.4,3.4-.7,0-3.2,1.8-2.9.3-1.1.6-.1,2.6,0,3.4-2.1-.5-.8-2.5-.3-4.1h-.2.1ZM483.6,35.4c.6,0,1.2,0,1.4-.3,1.6.7.6,1.8.8,2.1-.8,1-1.6-.2-.8-1.1-.5.2-.5.8-1.4.7,0,1,.7,1.2.8,1.8.8-1.6,2.1,0,2.5,1.1-.6-1.1-1.7.6-2.1-.3-1.5.7-1.2,2.5-.8,3.4-2.1.3-1.5-5.3-.3-7.4h0ZM484,59.6c1.7,1.4.7,3.3.8,5.5-1.8-1.6,0-3.5-.8-5.5ZM483.6,50c1.6.6.8,5.3.3,6.8-.6-1.5-.2-5.6-.3-6.8ZM487.7,76.3c-1.4-.3-1,0-2.5,0-.2,1,.1,1.4,1.4,1.1,0,.3-.1.3-.3.3v.7c-3-1-1-5.1-2.5-6.8.1-.5.7-.6.8-1.1.5.1.8.5.8,1.1,1-.6-.2-1,.3-1.9-.1-.5-1.1-.3-1.7-.3.1-1.4,1-2.4.3-4.1.3,0,.3.5.3.7,1.4.5.3-1.2,1.7-.7,0,3.2-1.1,7.3,1.7,8.5,0,1,0,1.8-.3,2.1h0v.2h0ZM495.3,80.3c-1.5-1.2-.3-3.7-.3-5.5,1,.7.5,4,.3,5.5ZM508.5,114.1c-1.4-.1-.3-2.4-2.5-1.8.8-1.1,2.6-.2,1.7-2.3,2.5.8,0,1.9.8,4.1h0ZM508,140c0,.5-.3.2-.3,0-.7,0-.8.5-1.7.3.1-1,1.2-1.1,1.4-2.3,1.5.5-.1,1.5.8,1.8h-.1ZM507.6,133.8v1.5c-1.1-.7-2.6-1.2-2.9-2.6,1,.3,1.8.8,2.9,1.1h0ZM503.4,140.7c.7-.6,1.9.1,2.1,1.1-1.2,0-2.3,0-2.1-1.1ZM501.7,144.4c1.1,0,1,1.4.3,1.8-1.1,0-1-1.4-.3-1.8ZM500.4,146.4c.7-1.7,1,1.8,1.4.3,1.1,0,0,1.4,0,1.5-.8-.2-.2-1.7-1.4-1.8Z"/>
  <polygon class="st0" points="466.5 138.2 455.6 127.3 445.3 137.8 434.9 127.3 424.6 137.7 414.3 127.3 403.7 138 393.2 127.3 382.3 138.2 393.2 149.2 403.7 138.5 414.3 149.2 424.6 138.8 434.9 149.2 445.3 138.7 455.6 149.2 466.5 138.2"/>
  <path class="st0" d="M148.3,122.9c0,3.6-.3,6.8-1,9.6-1.5,5.6-4.3,10-8.5,12.9-2.1,1.5-4.6,2.5-7.3,3.3s-6,1.1-9.5,1.1-6.7-.3-9.5-1.1c-11.3-2.9-16.8-11.4-16.8-25.7V19.1h18.4s0-.8,0,3.4c0-.7,0,0,0,1.5v4.7c0,1.6,0,2.8,0,2.7v-4.9c0-2.8,0-3.4,0-2.4v10.9c0,.2,0,0,0-1v-10.8c0-.6,0,0,0,2v10.5c0,.8,0-.5,0-.2v8.4c0-3.2,0,.5,0-.5s0,2.6,0,5.4v7.3c0,.4,0,.3,0-.2v-10.7,4.7c0-2.5,0-.7,0,.5s0,1.7,0-3.3,0-4.7,0-4.6v14.7c0-5.1,0-2,0-3.6s0-2.9,0-1.9v22.5-11.3,7.4c0,1.2,0,1.9,0,1,0-2.3,0,7.4,0,2.5s0,0,0,2.3,0,4.5,0,3.8c0,2.1,0,2.3,0,1.5v-8.9c0-.9,0-.8,0,1.1,0-.2,0-1,0-.8v10.8c0,2,0,2.4,0,0,0,4.9,0,2.3,0,0,0-3.3,0-1.9,0,.3v33.2c0,3.2,0,3.7,0,1.9v3.4c0,2.9.7,5,2,6.4.7.7,1.5,1.2,2.5,1.6,1,.3,2.1.6,3.5.6s2.5-.2,3.6-.6,1.9-.9,2.5-1.6,1.2-1.6,1.5-2.7c.3-1.1.5-2.4.5-3.8v-62.4c0-3,0-4.7,0-2.9s0-.7,0-3.7v-22.9c0-.9,0-1,0,.5v-12.1h18.4v103.8h0v.2h-.2Z"/>
  <path class="st0" d="M52.9,122.9c0,17.2-8.2,26.1-24.8,26.6h-1.5c-.5-1-.5-2.1-1.7-2.1s-1.2,1.2-2.5,2c-.7,0-1.4-.1-1.9-.2-3.2-.5-6-1.4-8.4-2.5-1.9-1-3.6-2.3-5.1-3.7s-2.4-3.2-3.6-5.2c-.7-2-2.1-4.2-2.4-6.7-.6-2.5-.8-5.2-.5-8.1.7,0,.3-3,0-8,.2-2.5.1-5.4.2-8.7.2-3.3.2-6.8-.2-10.5,1.2-3.7.9-7.6.3-11.4.1-3.8-.1-7.7-.3-11.4-.6-3.7-1.1-7.2,0-10.5,1-3.3.7-6.2,0-8.7.1-5-.5-8,0-8,0-2.9.9-5.6,1-8.1,0-2.5,1.4-4.6,1.9-6.7,1-1.9,2.1-3.7,3.6-5.2s3.2-2.7,5.1-3.7c1.9-1,4.1-1.7,6.5-2.3,1.8-.3,3.5-.6,5.5-.7h1.2c1.9.9.7,3.3.7,4.5,2.4,0,0-3.6,1.9-4,.2,0,.6-.3,1-.6h2.1c4.2.3,7.1,1.2,10,2.8,7.8,4,11.6,11.7,11.6,23.6,0,0-.3,3.4,0,8,.2,4.6.2,10.3,0,14.9s.5,8,0,8h-9.1c-4.4,0-10.2,0-9.1,0s-.5-3.4,0-8c0-4.6-1-10.3,0-14.9v-8c-.5-2.8-.8-5-2-6.4-.9-.9-2.1-1.6-3.5-1.9-.7,0-1.5-.2-2.4-.2.9,0-.6,0,0,0-2.1,0-4.9.7-5.9,2.1-1.2,1.5-1.6,3.6-1.9,6.4-.5,0-.2,3,0,8,.9,5-.1,11.7,0,19.2.3,5,.5,10.2.3,15.4,0,.7,0,1.2-.2,1.9-1,.9-1,2,0,3.8,0,.7,0,1.2-.1,1.8-.9,7.4.8,14.2,0,19.2v8c0,5.8,2.6,8.6,7.9,8.6s4.6-.7,6-2.1,2-3.6,2-6.4c-.6,0,.8-5.2,0-10.3-.2-5.2,1.1-10.3,0-10.3h18.3c-.6,0,0,5.2,0,10.3v10.3h-.3Z"/>
  <path class="st0" d="M216,120.6c-.3,5.8-.8,10.6-2.9,14.6s-5.1,6.8-8.6,8.8c-2.9,1.5-6.2,2.4-10.3,2.8h-2c-1-.9-2.3-2.1-2.3-3.3,0,1.2,0,2.4-1.4,3.4h-24.4v-34c.3-2.5.3-5.3,0-8.6.3-3.3,0-6.7,0-10.4-.5-3.6,0-7.4,0-11.2.3-3.7-.5-7.6,0-11.2.2-3.6.6-7.1,0-10.4-.7-3.3,0-6.1,0-8.6-.5-4.9,0-34.1,0-34.1h25.7c5.8,0,10.6,1,14.3,2.9,3.7,1.9,6.7,4.9,8.6,8.7,1.9,3.8,3.2,8.7,2.9,14.6,0,0,1.2,3,0,7.9.3,2.5,1,5.3.3,8.6-.5,3.3-.3,6.7-.3,10.4-.5,3.6-.8,7.4-.5,11.2-.8,3.7.6,7.6.5,11.2-.7,3.6-.7,7.1-.3,10.4,0,3.3.3,6.1.3,8.6-.6,4.9,0,7.9,0,7.9h0l.2-.2ZM197.9,44.5c0-3.6-1.1-6.2-3.5-7.4-.6-.3-1.2-.6-2-.8,0-1.6,0-2.8-1.4-2.8-2.4-1.2,0,2.4-2.5,2.5-.5.2-7.6.1-7.6.1v84.5l.2,8.5h8.7c5.2,0,7.9-2.8,7.9-8.5v-7.9c-.5-4.9-.8-11.5,0-18.8-.5-7.3.5-15.2,0-22.6-.6-7.3,0-14,0-18.8v-7.9h.1Z"/>
  <path class="st0" d="M348.1,120.6c-.3,5.8-.8,10.6-2.9,14.6s-5.1,6.8-8.6,8.8c-2.9,1.5-6.2,2.4-10.3,2.8h-2c-1-.9-2.3-2.1-2.3-3.3,0,1.2,0,2.4-1.4,3.4h-24.4v-34c.3-2.5.3-5.3,0-8.6.3-3.3,0-6.7,0-10.4-.5-3.6,0-7.4,0-11.2.3-3.7-.5-7.6,0-11.2.2-3.6.6-7.1,0-10.4-.7-3.3,0-6.1,0-8.6-.5-4.9,0-34.1,0-34.1h25.7c5.8,0,10.6,1,14.3,2.9,3.7,1.9,6.7,4.9,8.6,8.7,1.9,3.8,3.2,8.7,2.9,14.6,0,0,1.2,3,0,7.9.3,2.5,1,5.3.3,8.6-.5,3.3-.3,6.7-.3,10.4-.5,3.6-.8,7.4-.5,11.2-.8,3.7.6,7.6.5,11.2-.7,3.6-.7,7.1-.3,10.4,0,3.3.3,6.1.3,8.6-.6,4.9,0,7.9,0,7.9h0l.2-.2ZM330.1,44.5c0-3.6-1.1-6.2-3.5-7.4-.6-.3-1.2-.6-2-.8,0-1.6,0-2.8-1.4-2.8-2.4-1.2,0,2.4-2.5,2.5-.5.2-7.6.1-7.6.1v84.5l.2,8.5h8.7c5.2,0,7.9-2.8,7.9-8.5v-7.9c-.5-4.9-.8-11.5,0-18.8-.5-7.3.5-15.2,0-22.6-.6-7.3,0-14,0-18.8v-7.9h.1Z"/>
</svg>