<?xml version="1.0" encoding="UTF-8"?>
<svg id="Capa_1" xmlns="http://www.w3.org/2000/svg" version="1.1" viewBox="0 0 437.2 185.4">
  <!-- Generator: Adobe Illustrator 29.3.1, SVG Export Plug-In . SVG Version: 2.1.0 Build 151)  -->
  <defs>
    <style>
      .st0 {
        fill: #fff;
      }
    </style>
  </defs>
  <g id="Capa_11" data-name="Capa_1">
    <g>
      <g>
        <path class="st0" d="M109.7,50.2c-3.2-1.7-5.8-4.1-7.6-7.1-1.8-3-2.8-6.5-2.8-10.3s.9-7.3,2.8-10.4c1.8-3,4.4-5.4,7.6-7.1,3.2-1.7,6.9-2.5,10.9-2.5s7,.7,9.9,2c2.9,1.3,5.3,3.2,7.2,5.7l-8.1,7.3c-2.4-3-5.2-4.5-8.3-4.5s-4.9.9-6.5,2.6-2.5,4.1-2.5,7,.8,5.2,2.5,7,3.8,2.6,6.5,2.6,6-1.5,8.3-4.5l8.1,7.3c-1.9,2.5-4.3,4.4-7.2,5.7s-6.2,2-9.9,2-7.7-.8-10.9-2.5h0Z"/>
        <path class="st0" d="M142.6,13.6h12.9v38.2h-12.9V13.6Z"/>
        <path class="st0" d="M167.4,48c-3.3-3.2-4.9-7.6-4.9-13.3V13.6h12.9v20.6c0,2.8.5,4.8,1.5,6.1s2.4,1.9,4.3,1.9,3.3-.6,4.3-1.9,1.5-3.3,1.5-6.1V13.6h12.7v21c0,5.7-1.6,10.2-4.9,13.3-3.3,3.2-7.8,4.8-13.7,4.8s-10.4-1.6-13.7-4.8h0Z"/>
        <path class="st0" d="M206.7,13.6h18.8c4.3,0,8,.8,11.3,2.3,3.3,1.6,5.8,3.8,7.6,6.6,1.8,2.9,2.7,6.3,2.7,10.1s-.9,7.3-2.7,10.1-4.3,5.1-7.6,6.6c-3.3,1.5-7,2.3-11.3,2.3h-18.8V13.6ZM225,41.8c2.8,0,5-.8,6.6-2.4,1.7-1.6,2.5-3.8,2.5-6.7s-.8-5.1-2.5-6.7c-1.7-1.6-3.9-2.4-6.6-2.4h-5.4v18.1h5.4Z"/>
        <path class="st0" d="M278.4,45.2h-14.5l-2.6,6.7h-13.1l16.7-38.2h12.7l16.7,38.2h-13.3l-2.6-6.7h0ZM274.8,35.9l-3.7-9.6-3.7,9.6h7.4,0Z"/>
        <path class="st0" d="M297.4,13.6h18.8c4.3,0,8,.8,11.3,2.3,3.3,1.6,5.8,3.8,7.6,6.6,1.8,2.9,2.7,6.3,2.7,10.1s-.9,7.3-2.7,10.1c-1.8,2.9-4.3,5.1-7.6,6.6-3.3,1.5-7,2.3-11.3,2.3h-18.8V13.6ZM315.7,41.8c2.8,0,5-.8,6.6-2.4,1.7-1.6,2.5-3.8,2.5-6.7s-.8-5.1-2.5-6.7c-1.7-1.6-3.9-2.4-6.6-2.4h-5.4v18.1h5.4Z"/>
      </g>
      <g>
        <path class="st0" d="M21.9,150.6h.8c-.1-.2-.2-.4-.2-.7-.2,0-.5.4-.5.7h0Z"/>
        <path class="st0" d="M59.6,70.1c2-.7-.8-5,1-6.4,0,4.1,0,7,.5,9.8v-10.3h-5.4s0,0,0,0c-.2,0-.5.2-.5.5-.4-.2-.5-.3-.5-.5h-2.5c.3,1.1,1.3,2.2-.3,2.6.9.4.6.6,1,1.6.5,0,.5-.3.5-.7.3.6,1,.8,1,1.6,1-.6-.6-2.4-.8-3.4.2.6,1.4.7,1-.5.4,0,.7,0,.8-.2.7.4.5,1.5.8,2.3-.5,0-.6-.4-.5-.9-1.1.6,1.1,1.3,0,1.8.2.6.6-.7,1,0-1.4,1.7-1.2,2.7-.8,5.5-1.1-.2-1.3.5-1.5,1.1-.8.2-.8-.4-1.3-.5,2.2-.9,0-1.9,1.8-2.5,0-.7-.5-.9-.5-1.6-.2,0-.7,1-.3.9-.4.5-1-.6-.5-1.1-.9,0,0,.6-1,.7,0,.5.2.7.8.7-.9.7-1.9-.6-2.3-1.1-.2-.6.5-.5.5-.9-.8-.4-1-4.8.3-5.2,0,0,0,0,0,0h-2.8c.1,0,.3,0,.5,0,.3,1.5-.2,2,.2,3,.2.4-1.5.1-.5.5-.4.9-.4-.5-.8-.5-.7.5.3,1.4,1,.9-.3,1.5,1,4.2-.5,5.2.4-.4.5-1.8-.5-1.6.5-.7-.6-1.4.5-1.6-.1-.9-.8-1.3-1.8-1.4.4-.8-.1-1,.3-1.8,1.8.4.4-1.9,1.1-2.8h-3v43.5h-13.6v-43.5h-15.5v53.2c0-.3.5-.8.2-1.3,1.1.1.5,1.3.3,1.8-.4,0-.5-.2-.6-.3v29.6c0,.1,0,.3.2.5,0,.1,0,.2-.2.2v3c0,.2,0,.5,0,.7h2.4c-.3-.2-.5-.5-.7-.7-.2-.6.6-.5.6-.9-1-.4-1.2-4.8.3-5.2-.1-.8-1.6-1.1,0-1.4,0-.5-.9-.4-1.3-.7.2-.8.5-1.5.6-2.3-1.9-1.6,1.8-4.2-.6-6.1,1-.5.6-1.3,0-2.1,1.1-.9,1.4,1.3,1.9.7.9,0-.8.6.6.5-2,1.8.3,5.1-1.6,6.1,1.9,1.3.7,2.8.6,4.6,0,1.4,2.2,2.7-.3,3.2,1.1.4.8.6,1.3,1.6.7.1.6-.3.6-.7.4.6,1.3.8,1.3,1.6,1.2-.6-.7-2.4-1-3.4.3.6,1.7.7,1.3-.5.5,0,.9,0,1-.2.8.4.7,1.5,1,2.3-.6,0-.7-.4-.6-.9-1.4.6,1.4,1.3,0,1.8.3.6.7-.7,1.3,0-1,1-1.4,1.7-1.4,2.7h4.9c2.4-.7-1-5,1.2-6.4,0,2.5,0,4.5.1,6.4h1.8v-28.5h13.6v28.5h15.5v-77.1c-1.8-.5-.6-2.3-1.5-3.4h0ZM18,97.8c1.3-.2,1.1,1.2.6,1.6,0,.6,1.1.4,1.9.5-.4,1.4-1.8-.3-2.9.7,0-.2.1-.2.3-.2,0-.9-.8-1.6,0-2.5ZM19.6,115.1c-.4,0-1.1.3,0,.7-1.1.8,0,1.9-.6,3-1.4-2.4-.3-4.9-.6-7.5,2,0-.4,2.1,1.3,2.5-.6,0-1,1,0,1.4h0ZM18.3,105.6c2.4,1.6-.2,2.5.6,5.5-1.7-1-.5-3.9-.6-5.5ZM18,100.8c2-.1.5.8,1.3,1.6-.8.2-1.1.6-1.6.9-.2-.5.3-1.3.3-2.5h0ZM19.6,130.8c-1.4-.2-.5-.7-1-1.4,1.2-.1,1,.7,1,1.4ZM18.3,129.2c-.2-.3,0-1.6.8-2,0,0,0,0,0-.2-.4-.3-.7-.6-1.5-.6.4-1.6,1.1-5,.3-6.2.7-.6.5-.9,1.3-1.1-.7.4.9,1.7-.6,1.8.6,1.7,1,4.4.5,6.1,0,0,0,0,.1,0,0,0-.1,0-.2,0,0,.1,0,.3-.1.4.3.3.5.7,1.3.7-.9.1-.9.9-1.9.9h0ZM20.9,127.9c-1.5-.2-.7-1.4-.6-1.8.4,0,.5.4,1,.5.2.7-.6.7-.3,1.4ZM20,96.4h1.9c0,.3-2.1.9-1.9,0ZM28.6,126.5c.6,1.5.6,2.6.3,3.6-.8-1.1-.7-2.5-.3-3.6ZM23.1,125.1c1.5.4-.6,1.3,0,1.6-1.1.7-.3-1.3,0-1.6ZM23.4,144.3c-1.6-.5.8-1.4-.6-1.6.7-.7,1.2.7,1.3,1.1-.3.1-.6.2-.6.4ZM22.5,135.8c.3-.6,1.2-.8,2.2-.9.1.9-1.5.6-2.2.9ZM25.8,96.2v.9c-1.2.2-1.2-1.1,0-.9ZM26.3,136.5c-.8,0-1-.3-1-.9.9,0,1,.3,1,.9ZM28.9,135.6c-.7-.2-1-1.4.3-1.4,0,.6,0,1.1-.3,1.4ZM28.9,133.3c-.8-1-.2-2.1-.6-3,2.1.2.6,2.2.6,3ZM49.5,76.3c-.9-.8-.2-2.3-.2-3.4.6.4.3,2.5.2,3.4ZM51.3,72.2h-.5c-.1-.2-.3-.4-.3-.7h1v-.4c.8.3-.5.6-.3,1.1h0ZM52.3,72.4c-.3-.6,1-.7.3-.9.2-.7.8.1,1.3,0,0,.2,0,.2-.3.2.1.2.2.4.5.5-.2.6-1-.5-.8.7-.5,0-.3-.6-1-.5ZM53.4,74.9c-.2-.1-.4-.2-.8-.2.2-.2.4-.6,0-.7,0-.2,0-.2.3-.2h.5c-.2.7.5.7,0,1.1h0ZM55.2,74.4c-.3-.2-.5-.5-.5-.9.2,0,.2,0,.3.2.4,0,0-.7.5-.7.9-.2.2,1,1,.9.1.6-1.4-.2-1.3.4h0Z"/>
        <path class="st0" d="M21.5,149.7c-1.1,0,0,.6-1.3.7,0,0,0,.1,0,.2h1.1c-.1-.3-.2-.6.1-.9Z"/>
      </g>
      <path class="st0" d="M189.2,74.9c-.6,0-1.3-.2-1.9-.2.3-.4,1-.4,1.9-.4v-3.7c-.2-.1-.5-.1-.5.2-.2,0-.2-.1-.3-.3v-.6c.4,0,.6,0,.8-.1v-1.9c-.2.4-.6.5-1.1.6,0-.2.1-.3.3-.3,0-.4-.8-.1-.8-.6-.3-1.1,1.2-.2,1.1-1.2.7-.1-.2,1.6.5,1.5v-4.6h-28.6s0,0-.1,0h0s-2.1,0-2.1,0c-.3,0-.7,0-1,0h-12.8v8.7c.7,0,1.5-.2,2.3,0-.8.4-1.6.6-2.3.6v1.1c0,0,.1,0,.2,0,0,.2-.1.3-.2.4v4.3h14.6v3c.5-.5,1.1,0,1.4-.2.7.6-.2,1.1-.8.6.2.3.6.3.5.9.7,0,.8-.5,1.3-.6-1.1-.6,0-1.5.8-1.8-.7.4.5,1.2-.3,1.5.5,1,1.8.9,2.4.6.2,1.5-3.8,1-5.3.3,0-.2,0-.4,0-.6v3.3c.4,0,.9,0,1.4,0,0,.4-.7.7-1.4.7v84.7h5.4c0-.5-.3-.9-.9-.8.6-.9-.6-1.6.6-1.9-.2-1-.9-1.5-2.1-1.6.5-.9-.2-1.2.3-2.1,2.2.5.2-2.6,1.5-3.5.2.1.5.3.9.3.4,1.8-.2,2.4.3,3.5.3.5-1.7.2-.6.5-.5,1-.5-.6-.9-.5-.8.6.4,1.7,1.2,1.1-.3,1.4.5,3.6.1,5.1h2.3v-.5c.5.2.4.4.1.5h1.1c.2-.7.8,0,1.2,0h.7c.1-.2.3-.4.8-.5,0-.8-.6-1.1-.6-1.9-.3,0-.8,1.2-.3,1.1-.5.6-1.2-.7-.6-1.3-1,0,0,.7-1.2.8,0,.6.2.9.9.8-1.1.8-2.2-.7-2.7-1.3-.2-.7.6-.5.6-1.1-.9-.5-1.2-5.7.3-6.1-.1-.9-1.5-1.3,0-1.6,0-.6-.8-.5-1.2-.8.2-.9.5-1.7.6-2.7-1.7-1.9,1.7-4.9-.6-7.2.9-.6.6-1.5,0-2.4,1-1.1,1.3,1.5,1.8.8.9,0-.7.7.6.5-1.9,2.2.2,6-1.5,7.2,1.8,1.5.7,3.3.6,5.3,0,1.6,2,3.2-.3,3.7,1.1.4.7.7,1.2,1.9.6.1.6-.4.6-.8.4.7,1.2.9,1.2,1.9,1.2-.7-.7-2.8-.9-4,.3.7,1.6.8,1.2-.5.4,0,.9,0,.9-.3.8.5.6,1.8.9,2.7-.5,0-.7-.5-.6-1.1-1.3.6,1.3,1.5,0,2.1.3.7.7-.8,1.2,0-1.4,1.6-1.4,2.7-1.1,4.8h2.6v-92.4h14.6v-3.6h0ZM157.6,70.2c-.2,1.4-1.6.6-2.1.6,0-.4.5-.5.5-.9.8-.2.8.5,1.6.3ZM156.2,68.1c.8,1.1-1.5.3-1.9,0,.5-1.4,1.6.6,1.9,0ZM156.9,71.8c0,0-.1,0-.2,0-.3.4-.7.7-.7,1.4-1.8-.3-5.9-1.1-7.2-.3-.7-.6-1.1-.5-1.3-1.2.5.7,1.9-.8,2.1.6,2-.6,5.2-.9,7.1-.5,0,0,0,0,.1-.1,0,0,0,.1,0,.2.1,0,.3,0,.4.1.4-.3.8-.4.8-1.2.2.8,1,.8,1.1,1.8-.4.2-1.9,0-2.3-.7h0ZM158.6,76.2c-.7,0-.6-.9-1.3-.9.6-.5,1.6-.6,2.7-.6-.3.6-1,.8-1.3,1.5h0ZM159.4,72.3c-.2-1.1.8-.9,1.6-.9-.2,1.3-.8.4-1.6.9ZM176.2,67.2c.1.3.2.5.5.6-.6,1.5-1.6-.8-1.9.6-.8-.7.8-1.1,1.3-1.2ZM167.7,65.1c0,.8-.4,1-1.1.9,0-.8.4-1,1.1-.9ZM166.9,68.7c-.7-.3-.9-1.2-1.1-2.1,1.1-.1.7,1.4,1.1,2.1ZM164,142.5c.5.6.6,1.6.6,2.7-.6-.3-.8-1-1.5-1.3,0-.7.9-.6.9-1.3h0ZM162.2,110.5c.5.2,1.6,0,1.5.8-.5,0-1.1-.1-1.2.3-.4,0-.2-.7-.3-1.1h0ZM162.4,158.4c.9,0,2.1,0,2.1.8-1,0-2.1.1-2.1-.8ZM164.2,150.4c-.5,0-.5-.2-.9-.3.3-1.4.5-2.1.6-3.7,1.2.7.4,2.8.3,4h0ZM161.3,75.3c.7-1.2,2.8-.4,4-.3,0,.5-.2.5-.3.9-1.4-.3-2.1-.5-3.7-.6h0ZM165.5,129.9c-1.2-.3,0-1.1-.3-2.1,1.1.2.5,1.5.3,2.1ZM168.8,110c-.4,1.7-1.7-.3-2.7.8,0-.2.1-.2.3-.3,0-1-.8-1.8,0-2.9,1.2-.2,1.1,1.4.6,1.9,0,.7,1,.5,1.8.5ZM167.9,127.8c-.4,0-1.1.3,0,.8-1.1.9,0,2.2-.6,3.5-1.4-2.8-.3-5.8-.6-8.8,1.9,0-.4,2.4,1.2,2.9-.6,0-.9,1.1,0,1.6h0ZM166.7,116.7c2.2,1.9-.2,3,.6,6.4-1.6-1.1-.5-4.6-.6-6.4ZM166.4,111.1c1.9-.2.5,1,1.2,1.9-.7.2-1,.7-1.5,1.1-.2-.6.3-1.5.3-2.9h0ZM167.9,146.2c-1.3-.2-.5-.8-.9-1.6,1.1-.2.9.8.9,1.6ZM166.7,144.3c-.2-.4,0-1.9.7-2.3,0,0,0-.1,0-.2-.4-.3-.7-.7-1.4-.7.4-1.8,1.1-5.9.3-7.2.6-.7.5-1.1,1.2-1.3-.7.5.8,1.9-.6,2.1.6,2,.9,5.2.5,7.1,0,0,0,0,.1.1,0,0-.1,0-.2,0,0,.1,0,.3-.1.4.3.4.4.8,1.2.8-.8.2-.9,1-1.8,1.1h0ZM169.1,142.7c-1.4-.2-.6-1.6-.6-2.1.4,0,.5.5.9.5.2.8-.5.8-.3,1.6h0ZM168.2,106h1.8c0,.4-2,1.1-1.8,0ZM171.5,161.9c-1.5-.6.8-1.6-.6-1.9.7-.8,1.1.8,1.2,1.3-.3.1-.5.2-.6.5h0ZM170.6,152c.3-.7,1.1-.9,2.1-1.1.1,1.1-1.4.7-2.1,1.1ZM171.2,141.4c-1.1.8-.3-1.5,0-1.9,1.4.5-.6,1.6,0,1.9ZM173.7,105.7v1.1c-1.2.2-1.2-1.3,0-1.1ZM174.2,152.8c-.8,0-1-.4-.9-1.1.8,0,1,.4.9,1.1ZM169.5,82.9c.4-1.1,3.8-.6,4.8-.3-1.1.4-4.1.2-4.8.3ZM173.3,76.8c0-.9,0-2.1.8-2.1,0,1,.1,2.1-.8,2.1ZM174.6,71.7c-.6,0-.5.8-.8,1.2-.9-.2-1.7-.5-2.7-.6-1.9,1.7-4.9-1.7-7.2.6-.6-.9-1.5-.6-2.4,0-1.1-1,1.5-1.3.8-1.8,0-.8.7.7.5-.6,2.2,1.9,6-.2,7.2,1.5,1.5-1.8,3.3-.7,5.3-.6,1.6,0,3.2-2,3.7.3.4-1.1.7-.7,1.9-1.2.1-.6-.4-.6-.8-.6.7-.4.9-1.2,1.9-1.2-.7-1.2-2.8.7-4,.9.7-.3.8-1.6-.5-1.2,0-.4,0-.8-.3-.9.5-.8,1.8-.6,2.7-.9,0,.5-.5.7-1.1.6.6,1.3,1.5-1.3,2.1,0,.7-.3-.8-.7,0-1.2,1.9,1.7,3.2,1.4,6.4.9-.2,1.3.6,1.6,1.3,1.8.2,1-.4.9-.5,1.5-1-2.6-2.3,0-2.9-2.1-.8,0-1.1.6-1.9.6,0,.3,1.2.8,1.1.3.6.5-.7,1.2-1.3.6,0,1,.7,0,.8,1.2.6,0,.9-.2.8-.9.8,1.1-.7,2.2-1.3,2.7-.7.2-.5-.6-1.1-.6-.5.9-5.7,1.2-6.1-.3-.9.1-1.3,1.5-1.6,0h0ZM185.2,72c.4-1,.6.6,1.3.3v.6c-.2.2-.4.3-.8.3v-1.2s-.5,0-.5,0ZM185,75.6c-.9-.6-1.6.7-1.9-.6-1,.2-1.5.9-1.6,2.1-.9-.5-1.2.2-2.1-.3.5-2.2-2.6-.2-3.5-1.5.1-.2.3-.5.3-.9,1.8-.4,2.4.2,3.5-.3.5-.3.2,1.7.5.6,1,.5-.6.5-.5.9.6.8,1.7-.4,1.1-1.2,1.8.4,5-1.1,6.1.6-.4-.4-2.1-.6-1.9.6h0ZM186.8,71.1c-.7.4-.8-1.2-1.1-.3-.8-.3.2-1,0-1.5.2,0,.2.1.3.3.2-.1.5-.3.5-.6.7.3-.6,1.2.8.9,0,.6-.7.4-.5,1.2h0Z"/>
      <path class="st0" d="M215.8,79.4c-14.9,0-22.3,7.5-22.3,22.6v48c0,7.1,1.7,12.5,5,16.3-.1-1.1.3-2.4.2-3.5.8.6.5,2.8.4,4.2,3.7,3.8,9.3,5.7,16.7,5.7,14.9,0,22.4-7.6,22.4-22.7v-48c0-15.1-7.4-22.6-22.4-22.6h0ZM209.3,85.4v1.2c-1.4.2-1.3-1.5,0-1.2ZM206.5,124.6c1.6.6-.7,1.8,0,2.2-1.2,1-.3-1.7,0-2.2ZM208.2,137.9c.2,1.3-1.6.8-2.4,1.2.3-.9,1.3-1.1,2.4-1.2ZM206.1,148.4c.8-1,1.3.9,1.4,1.6-.3.1-.6.3-.7.6-1.7-.6.9-1.8-.7-2.2h0ZM205.1,85.7c0,.5-2.3,1.2-2.1,0h2.1ZM204,128.3c-1.6-.2-.7-1.9-.7-2.5.5.1.6.5,1.1.6.2.9-.6.9-.4,1.8h0ZM201.6,130.4c1.3-.2,1.1.9,1.1,1.9-1.5-.3-.5-1-1.1-1.9ZM201.2,130.1c-.3-.4,0-2.2.9-2.7,0,0,0-.1,0-.2-.4-.3-.8-.8-1.6-.8.4-2.1,1.2-6.8.4-8.3.7-.8.6-1.3,1.4-1.5-.8.6,1,2.3-.7,2.5.7,2.3,1.1,6,.6,8.2,0,0,0,0,.1.1,0,0-.1,0-.2,0,0,.2,0,.4-.1.5.3.5.5,1,1.4.9-.9.2-1,1.2-2.1,1.2ZM201.3,98c2.6,2.2-.2,3.4.7,7.4-1.8-1.3-.6-5.3-.7-7.4ZM202.6,111c-.4,0-1.2.4,0,.9-1.2,1.1,0,2.5-.7,4-1.6-3.3-.4-6.7-.7-10.2,2.2,0-.5,2.8,1.4,3.4-.7-.1-1.1,1.3,0,1.8ZM200.9,87.5c1.4-.3,1.2,1.7.7,2.2,0,.8,1.2.6,2.1.6-.4,1.9-2-.4-3.1.9,0-.3.1-.3.4-.3,0-1.2-.9-2.1,0-3.4h0ZM200.9,91.6c2.2-.2.6,1.1,1.4,2.2-.8.2-1.2.8-1.8,1.2-.3-.6.3-1.7.4-3.4ZM198.4,137.2c-.6,0-.6-.3-1.1-.3.3-1.7.6-2.5.7-4.3,1.4.8.4,3.2.3,4.6ZM198.7,147.4c-1.1,0-2.5.1-2.4-.9,1.1,0,2.4,0,2.4.9ZM198.1,128c.6.7.8,1.8.7,3.1-.7-.4-1-1.2-1.8-1.5,0-.8,1.1-.7,1.1-1.5h0ZM197.8,91.9c-.6,0-1.3-.2-1.4.3-.5,0-.3-.8-.4-1.2.6.3,1.9,0,1.8.9ZM198.7,154.5c-.6,1.2-.6-.7-1.1-.6-.9.7.4,2,1.4,1.2-.4,2,1.3,5.8-.7,7.1.5-.5.7-2.4-.7-2.2.7-1-.8-1.9.7-2.2-.2-1.2-1.1-1.7-2.4-1.9.5-1.1-.2-1.4.4-2.5,2.5.6.2-3,1.8-4,.3.2.6.3,1.1.3.4,2-.2,2.7.3,4,.3.6-2,.2-.7.6h0ZM199.8,113.5c-1.4-.3,0-1.2-.4-2.5,1.2.2.6,1.8.4,2.5ZM201.5,161.9h-.7c-.2-.2-.4-.5-.4-.9h1.4v-.6c1.2.5-.7.8-.4,1.5h0ZM202.9,162.2c-.5-.8,1.4-1,.4-1.2.3-.9,1.1.2,1.8,0,0,.3-.1.3-.4.3.2.3.3.6.7.6-.3.9-1.4-.7-1.1.9-.7,0-.4-.8-1.4-.6h0ZM204.3,165.6c-.3-.2-.6-.3-1.1-.3.2-.2.5-.9,0-.9,0-.3.1-.3.4-.3h.7c-.2,1,.6,1,0,1.6h0ZM206.8,165c-.5-.2-.6-.7-.7-1.2.3,0,.3.1.4.3.5,0,.1-.9.7-.9,1.3-.3.3,1.4,1.4,1.2.2.9-1.9-.2-1.8.6h0ZM207.8,162.9c-1.5-.2-1.8.7-2.1,1.5-1.1.3-1.1-.5-1.8-.6,3-1.2,0-2.6,2.4-3.4,0-.9-.6-1.3-.7-2.2-.3,0-.9,1.4-.4,1.2-.5.6-1.4-.8-.7-1.5-1.2,0,0,.8-1.4.9,0,.7.3,1,1.1.9-1.3.9-2.6-.8-3.1-1.6-.2-.8.7-.6.7-1.2-1.1-.6-1.4-6.6.4-7.1-.2-1.1-1.7-1.5,0-1.9-.1-.6-.9-.6-1.4-.9.2-1,.6-2,.7-3.1-2-2.1,2-5.7-.7-8.3,1.1-.7.7-1.8,0-2.8,1.1-1.2,1.5,1.8,2.1.9,1,0-.8.8.7.6-2.2,2.5.3,6.9-1.8,8.3,2.1,1.8.8,3.8.7,6.2,0,1.8,2.4,3.7-.4,4.3,1.2.5.8.9,1.4,2.2.8.1.7-.4.7-.9.4.8,1.4,1,1.4,2.2,1.4-.8-.8-3.2-1-4.6.4.8,1.9.9,1.4-.6.5,0,1,0,1.1-.3.9.5.7,2,1,3.1-.6,0-.8-.5-.7-1.2-1.5.7,1.5,1.7,0,2.5.3.8.8-.9,1.4,0-1.9,2.3-1.6,3.7-1.1,7.4h0ZM222.6,150c0,4.9-2.3,7.3-6.8,7.3s-1.1,0-1.6-.1c0,2.4.2,4.5.6,6.6-2.4-.7-.8-3.1-2.1-4.6.8-.3,1-1.1,1-2.1-3.1-.7-4.7-3-4.7-7.1v-10.3c-.2-.2-.2-.6-.1-1h.1v-36.8c0-4.9,2.2-7.3,6.7-7.3h.1c4.5,0,6.8,2.5,6.8,7.3v48Z"/>
      <path class="st0" d="M288.8,128.6c0-.4.1-.8,0-1.2,0,0,.2.2.2.3.7-2.4,1-5,1-7.9v-33.8c0-15.1-6.9-22.6-20.7-22.7h-22.6v61.7c1.4.2.6,1.8.3,2.4-.1,0-.2,0-.3,0v43.6h3c-1.4-.6-1.8-6.6.5-7.1-.2-1.1-2.3-1.5,0-1.9-.1-.6-1.2-.6-1.8-.9.3-1,.7-2,.9-3.1-2.6-2.1,2.6-5.7-.9-8.3,1.4-.7.9-1.8,0-2.8,1.5-1.2,1.9,1.8,2.7.9,1.3,0-1.1.8.9.6-2.8,2.5.4,6.9-2.3,8.3,2.7,1.8,1,3.8.9,6.2,0,1.8,3.1,3.7-.5,4.3,1.6.5,1.1.9,1.8,2.2,1,.1.9-.4.9-.9.5.8,1.8,1,1.8,2.2,1.8-.8-1-3.2-1.4-4.6.4.8,2.4.9,1.8-.6.6,0,1.3,0,1.4-.3,1.2.5.9,2,1.4,3.1-.8,0-1-.5-.9-1.2-1.9.7,1.9,1.7,0,2.5.4.8,1-.9,1.8,0-.6.6-1.1,1.1-1.4,1.6h4.9v-28.6h.7c0-.7.2-1.4.4-2,.3.7.5,1.4.6,2h.4l3.9,8.1c0-.4.1-.9,0-1.2,1,.7.9,1.9.7,2.6l9.2,19h17l-16.1-31.4c4.7-2.4,7.9-6.1,9.5-11h0ZM288.2,92.5c.6.7.8,1.8.7,3.1-.7-.4-1-1.2-1.8-1.5,0-.8,1.1-.7,1-1.5h0ZM288.6,101.8c-.6,0-.6-.3-1-.3.3-1.7.6-2.5.7-4.3,1.4.8.4,3.2.3,4.6ZM288.9,111.9c-1.1,0-2.5.1-2.5-.9,1.1,0,2.4,0,2.5.9ZM286.5,118.1c2.5.6.2-3,1.8-4,.3.2.6.3,1,.3.4,2-.2,2.7.3,4,.3.6-2,.2-.7.6-.6,1.2-.6-.7-1-.6-1,.7.5,2,1.4,1.2-.4,2,1.3,5.8-.7,7.1.5-.5.7-2.4-.7-2.2.7-1-.8-1.9.7-2.2-.2-1.2-1.1-1.7-2.5-1.9.5-1.1-.2-1.4.4-2.5h0ZM248.6,101.4c1.9-.3,1.6,1.7.9,2.2,0,.8,1.5.6,2.7.6-.6,1.9-2.6-.4-4.1.9,0-.3.2-.3.4-.3.1-1.2-1.2-2.1,0-3.4h0ZM250.8,124.9c-.5,0-1.6.4,0,.9-1.6,1.1-.1,2.5-.9,4-2-3.3-.4-6.7-.9-10.2,2.9,0-.6,2.8,1.8,3.4-.9-.1-1.4,1.3,0,1.8ZM249,111.9c3.3,2.2-.3,3.4.9,7.4-2.4-1.3-.7-5.3-.9-7.4ZM248.6,105.5c2.9-.2.8,1.1,1.8,2.2-1.1.2-1.6.8-2.3,1.2-.3-.6.4-1.7.5-3.4ZM250.8,146.2c-1.9-.3-.7-1-1.4-1.9,1.6-.2,1.4.9,1.4,1.9ZM248.9,144.1c-.4-.4,0-2.2,1.1-2.7,0,0,0-.1,0-.2-.6-.4-1-.8-2.1-.8.5-2.1,1.6-6.8.5-8.3.9-.9.8-1.3,1.8-1.5-1,.6,1.3,2.3-.9,2.5.9,2.3,1.4,6,.7,8.2,0,0,.1,0,.2.1-.1,0-.2,0-.3.1,0,.2-.1.4-.2.5.4.4.7,1,1.8.9-1.2.2-1.3,1.2-2.7,1.2h0ZM252.6,142.2c-2.1-.2-.9-1.9-.9-2.5.6.1.7.5,1.4.6.3.9-.8.9-.5,1.9ZM251.3,99.6h2.7c0,.5-3,1.2-2.7,0ZM255.8,138.5c2.1.6-.9,1.8,0,2.2-1.6,1-.4-1.7,0-2.2ZM256.2,164.4c-2.2-.6,1.1-1.8-.9-2.2,1-1,1.7.9,1.8,1.6-.4.1-.8.3-.9.6h0ZM254.8,153c.4-.9,1.7-1.1,3.2-1.2.2,1.3-2.1.8-3.2,1.2h0ZM259.5,99.3v1.2c-1.8.2-1.8-1.5,0-1.2ZM260.3,153.9c-1.2,0-1.5-.4-1.4-1.2,1.2,0,1.5.4,1.4,1.2ZM283.3,126.8c0,.8,0,1.5-.4,1.9-1.1-.4-.8,0-2.1,0-.2.8.1,1.1,1,.9,0,.3-.1.3-.4.3v.6c-2.5-.8-.8-4.2-2.1-5.6.1-.4.6-.5.7-.9.4.1.7.4.7.9.8-.5-.2-.8.4-1.6-.1-.4-.9-.3-1.4-.3.1-1.1.8-2,.4-3.4.3,0,.3.4.4.6,1.1.4.3-1,1.4-.6,0,2.6-.9,6.1,1.4,7.1h0ZM279.8,114.7c1.4,1.1.6,2.7.7,4.6-1.5-1.3.1-2.9-.7-4.6ZM279.8,112.2c-.5-1.2-.2-4.7-.3-5.6,1.3.5.7,4.4.3,5.6ZM281.3,76.1c0,.3-.4.2-.4,0-.6,0-.7.4-1.4.3.1-.8,1-.9,1-1.8,1.2.3-.1,1.2.7,1.5ZM280.9,83.8c-1.6-.1.1-2.3-.7-2.5,1.8-.6.1,1.7.7,2.5ZM281,70.9v1.2c-.9-.6-2.2-1-2.5-2.2.8.3,1.5.7,2.5.9ZM278.2,65.3v.9h-1.4c-.1-.8.7-.8,1.4-.9h0ZM276,79.8c.9,0,.8,1.2.4,1.5-.9,0-.8-1.2-.4-1.5ZM274.6,120.3c0,3.4-1.4,5.7-4.2,6.9-.8.3-2.3.4-4.5.4h-3.6v-49h5.5c4.5,0,6.8,2.4,6.8,7.4v34.4h0ZM276,81.7c.9,0,.1,1.1,0,1.2-.7-.2-.2-1.4-1-1.5.6-1.4.8,1.5,1,.3ZM275.6,122.1c-.7-.1-.6-2.2.7-1.6.3.9-1,.6-.7,1.6ZM276.4,96.2c-1.1-.2-1.2-3.4.7-2.8-.7.5-.8,1.6-.7,2.8ZM277.4,76.7c.5-.5,1.6.2,1.8.9-1,0-1.9,0-1.8-.9ZM279.2,90.6c.4,0,.6,0,.7.3.5-.3.8-.8.7-1.5-1.3-.4,0,1.4-1.4.9.2-1,.6-2,1.8-2.2.9.8-.8,2.5,1,2.8-.6,0-2.6,1.5-2.5.3-.9.5-.1,2.2,0,2.8-1.9-.4-.7-2.1-.3-3.4h0ZM279.5,94.6c.5,0,1,0,1-.3,1.3.6.5,1.5.7,1.8-.7.8-1.3-.2-.7-.9-.4.2-.4.7-1,.6,0,.8.5,1,.7,1.5.7-1.3,1.8,0,2.1.9-.5-.9-1.4.5-1.8-.3-1.2.6-1,2.1-.7,2.8-1.8.3-1.2-4.4-.3-6.2h0Z"/>
      <path class="st0" d="M315.3,152.1h.2v-52.2c-1,0-1-1.2,0-1.2v-35.5h-15.5v107.7h4.8c-.3-1-1.1-1.4-2.4-1.6.5-1.1-.2-1.4.4-2.5,2.5.6.2-3,1.8-4,.3.2.6.3,1,.3.4,2-.2,2.7.3,4,.3.6-2,.2-.7.6-.6,1.2-.6-.7-1-.6-1,.7.5,2,1.4,1.2-.1.7,0,1.6,0,2.5h2.1c.2-.2.6-.2.6-.6-1.1-.6-1.4-6.6.4-7.1-.2-1.1-1.7-1.5,0-1.9-.1-.6-.9-.6-1.4-.9.2-1,.6-2,.7-3.1-2-2.1,2-5.7-.7-8.3,1.1-.7.7-1.8,0-2.8,1.1-1.2,1.5,1.8,2.1.9,1,0-.8.8.7.6-2.2,2.5.3,6.9-1.8,8.3,2.1,1.8.8,3.8.7,6.2,0,1.8,2.4,3.7-.4,4.3,1.2.5.8.9,1.4,2.2.8.1.7-.4.7-.9.4.8,1.4,1,1.4,2.2,1.4-.8-.8-3.2-1-4.6.4.8,1.9.9,1.4-.6.5,0,1,0,1-.3.9.5.7,2,1,3.1-.6,0-.8-.5-.7-1.2-1.5.7,1.5,1.7,0,2.5.3.8.8-.9,1.4,0-.7.8-1.1,1.5-1.3,2.2h1.5v-17.9c-.2-.2-.2-.6-.2-1h0ZM304.5,141.3c.6.7.8,1.8.7,3.1-.7-.4-1-1.2-1.8-1.5,0-.8,1.1-.7,1-1.5h0ZM302.4,104.2c.6.3,1.9,0,1.8.9-.5,0-1.3-.2-1.4.3-.5,0-.3-.8-.4-1.2ZM302.7,159.8c1.1,0,2.4,0,2.5.9-1.1,0-2.5.1-2.5-.9ZM304.8,150.5c-.6,0-.6-.3-1-.3.3-1.7.6-2.5.7-4.3,1.4.8.4,3.2.3,4.6ZM307.3,100.8c1.4-.3,1.2,1.7.7,2.2,0,.8,1.2.6,2.1.6-.4,1.9-2-.4-3.1.9,0-.3.1-.3.4-.3,0-1.2-.9-2.1,0-3.4h0ZM309.1,124.3c-.4,0-1.2.4,0,.9-1.2,1.1,0,2.5-.7,4-1.6-3.3-.4-6.7-.7-10.2,2.2,0-.5,2.8,1.4,3.4-.7-.1-1.1,1.3,0,1.8h0ZM307.7,111.3c2.6,2.2-.2,3.4.7,7.4-1.8-1.3-.6-5.3-.7-7.4ZM306.3,126.8c-1.4-.3,0-1.2-.4-2.5,1.2.2.6,1.8.4,2.5ZM307.3,104.8c2.2-.2.6,1.1,1.4,2.2-.8.2-1.2.8-1.8,1.2-.3-.6.3-1.7.4-3.4ZM309,145.6c-1.5-.3-.5-1-1-1.9,1.3-.2,1.1.9,1,1.9ZM307.6,143.4c-.3-.4,0-2.2.9-2.7,0,0,0-.1,0-.2-.5-.4-.8-.8-1.6-.8.4-2.1,1.2-6.8.4-8.3.7-.9.6-1.3,1.4-1.5-.8.6,1,2.3-.7,2.5.7,2.3,1.1,6,.5,8.2,0,0,0,0,.1.1,0,0-.1,0-.2.1,0,.2,0,.4-.1.5.3.4.5,1,1.4.9-.9.2-1,1.2-2.1,1.2h0ZM310.4,141.6c-1.6-.2-.7-1.9-.7-2.5.5.1.5.5,1,.6.2.9-.6.9-.4,1.9h0ZM309.5,99h2.1c0,.5-2.3,1.2-2.1,0ZM312.9,137.9c1.6.6-.7,1.8,0,2.2-1.2,1-.3-1.7,0-2.2ZM313.2,163.8c-1.7-.6.9-1.8-.7-2.2.8-1,1.3.9,1.4,1.6-.3.1-.6.3-.7.6h0ZM312.2,152.4c.3-.9,1.3-1.1,2.5-1.2.2,1.3-1.6.8-2.5,1.2Z"/>
      <path class="st0" d="M346.7,61.5c-5.5,0-10,1-13.5,3.1.1,1.5,0,2.9-.2,4,0,0,0,0,.1.1,0,0-.1,0-.2,0,0,.2,0,.4-.1.5.3.4.5,1,1.4.9-.9.2-1,1.2-2.1,1.2-.3-.4,0-2.2.9-2.7,0,0,0-.1,0-.2-.5-.3-.8-.8-1.6-.8.1-.6.2-1.4.4-2.2-4.9,3.7-7.4,9.9-7.4,18.6v65.9c0,15.1,7.4,22.7,22.3,22.7s1,0,1.5,0c0-.4,0-.8,0-1,.3.1.5.5.6.9,4.6-.3,8.5-1.3,11.5-3.2.4-1.4.7-2.9-.6-4.2,1.1-.7.7-1.8,0-2.8,1.1-1.2,1.5,1.8,2.1.9,1,0-.8.8.7.6-1.1,1.3-1,3-.9,4.6,4.9-3.7,7.4-9.9,7.4-18.6v-17.5h-8.3c0,.7,0,1.5.1,2.4-.7-.5-.9-1.4-1-2.4h-6.4v17.5c0,4.4-1.9,6.8-5.7,7.2,0,.6.3,1.4.4,1.8-1.1-.2-1.1-.9-.9-1.7-.2,0-.4,0-.6,0-4.5,0-6.8-2.4-6.8-7.3v-65.9c0-1.1.1-2,.3-2.8-.4-.2-.5-.6-.5-1.2.4,0,.6,0,.8.2,1-2.3,3-3.5,6-3.5h.1c.1,0,.3,0,.4,0,0,0,0,0,0,0,0,0,0,0,0,0,4.1.2,6.2,2.6,6.2,7.3v26.4h15.5v-26.4c0-15.1-7.5-22.6-22.4-22.6h0ZM365.4,154.1c1.6.6-.7,1.8,0,2.2-1.2,1-.3-1.7,0-2.2ZM361.5,161.8c-1.5-.3-.5-1-1-1.9,1.3-.2,1.1.9,1,1.9ZM362.2,155.3c.5.1.5.5,1,.6.2.9-.6.9-.4,1.9-1.6-.2-.7-1.9-.7-2.5h0ZM360.2,135.2c2.2-.1-.5,2.8,1.4,3.4-.7-.1-1.1,1.3,0,1.9-.4,0-1.2.4,0,.9-1.2,1.1,0,2.5-.7,4-1.6-3.3-.4-6.7-.7-10.2h0ZM359.8,147.6c.7-.9.6-1.3,1.4-1.5-.8.6,1,2.3-.7,2.5.7,2.3,1.1,6,.5,8.2,0,0,0,0,.1.1,0,0-.1,0-.2.1,0,.2,0,.4-.1.5.3.4.5,1,1.4.9-.9.2-1,1.2-2.1,1.2-.3-.4,0-2.2.9-2.7,0,0,0-.1,0-.2-.5-.4-.8-.8-1.6-.8.4-2.1,1.2-6.8.4-8.3h0ZM358.4,140.5c1.2.2.6,1.8.4,2.5-1.4-.3,0-1.2-.4-2.5ZM357.3,166.7c-.6,0-.6-.3-1-.3.3-1.7.6-2.5.7-4.3,1.4.8.4,3.2.3,4.6ZM357,157.5c.6.7.8,1.8.7,3.1-.7-.4-1-1.2-1.8-1.5,0-.8,1.1-.7,1-1.5h0ZM348.2,159.6c.5,0,1,0,1-.3,1.3.6.5,1.5.7,1.9-.7.8-1.3-.2-.7-.9-.4.2-.4.7-1,.6,0,.8.5,1,.7,1.5.7-1.3,1.8,0,2.1.9-.5-.9-1.4.5-1.8-.3-1.2.6-1,2.1-.7,2.8-1.8.3-1.2-4.4-.3-6.2h0ZM345.8,158.4c-.7.5-.8,1.6-.7,2.8-1.1-.1-1.2-3.4.7-2.8ZM337.4,65.9c1.6.6-.7,1.8,0,2.2-1.2,1-.3-1.7,0-2.2ZM339.1,79.2c.2,1.3-1.6.8-2.5,1.2.3-.8,1.3-1.1,2.5-1.2ZM337,89.7c.8-1,1.3.9,1.4,1.6-.3.1-.6.3-.7.6-1.7-.7.9-1.8-.7-2.2h0ZM334.3,67.2c.5.1.5.5,1,.6.2.9-.6.9-.4,1.8-1.6-.2-.7-1.9-.7-2.5h0ZM333.5,73.7c-1.5-.3-.5-1-1-1.8,1.3-.2,1.1.9,1,1.8ZM329,69.3c.6.7.8,1.8.7,3.1-.7-.4-1-1.2-1.8-1.5,0-.8,1.1-.7,1-1.5h0ZM329.4,78.6c-.6,0-.6-.3-1-.3.3-1.7.6-2.5.7-4.3,1.4.8.4,3.2.3,4.6ZM329.7,88.8c-1.1,0-2.5.1-2.5-.9,1.1,0,2.4,0,2.5.9ZM330,108.9c-1.2-1-.3-3.1-.3-4.6.9.6.4,3.3.3,4.6ZM329.7,95.9c-.6,1.2-.6-.7-1-.6-1,.7.5,2,1.4,1.2-.4,2,1.3,5.8-.7,7.1.5-.5.7-2.4-.7-2.2.7-1-.8-1.9.7-2.2-.2-1.2-1.1-1.7-2.5-1.9.5-1.1-.2-1.4.4-2.5,2.5.6.2-3,1.8-4,.3.2.6.3,1,.3.4,2-.2,2.7.3,4,.3.6-2,.2-.7.6h0ZM332.5,103.3h-.7c-.2-.2-.4-.5-.4-.9h1.4v-.6c1.2.5-.7.8-.4,1.5h0ZM333.9,103.6c-.5-.8,1.4-1,.4-1.2.3-.9,1.1.2,1.8,0,0,.3-.1.3-.4.3.2.3.3.6.7.6-.3.8-1.4-.7-1,.9-.7,0-.5-.8-1.4-.6h0ZM335.2,107c-.3-.2-.6-.3-1-.3.2-.2.5-.8,0-.9,0-.3.1-.3.4-.3h.7c-.2,1,.6,1,0,1.6h0ZM337.7,106.4c-.5-.2-.6-.7-.7-1.2.3,0,.3.1.4.3.5,0,.1-.9.7-.9,1.3-.3.3,1.4,1.4,1.2.2.9-1.9-.2-1.8.6ZM338.8,104.2c-1.5-.2-1.8.7-2.1,1.5-1.1.3-1.1-.5-1.8-.6,3-1.2,0-2.6,2.5-3.4,0-.9-.6-1.3-.7-2.2-.3,0-.9,1.4-.4,1.2-.5.6-1.4-.8-.7-1.5-1.2,0,0,.8-1.4.9,0,.7.3,1,1,.9-1.3.9-2.6-.8-3.1-1.6-.2-.8.7-.6.7-1.2-1.1-.6-1.4-6.6.4-7.1-.2-1.1-1.7-1.5,0-1.8-.1-.6-.9-.6-1.4-.9.2-1,.6-2,.7-3.1-2-2.1,2-5.7-.7-8.3,1.1-.7.7-1.8,0-2.8,1.1-1.2,1.5,1.8,2.1.9,1,0-.8.8.7.6-2.2,2.5.3,6.9-1.8,8.3,2.1,1.8.8,3.8.7,6.2,0,1.8,2.4,3.7-.4,4.3,1.2.5.8.9,1.4,2.2.8.1.7-.4.7-.9.4.8,1.4,1,1.4,2.2,1.4-.8-.8-3.2-1-4.6.4.8,1.9.9,1.4-.6.5,0,1,0,1-.3.9.5.7,2,1,3.1-.6,0-.8-.5-.7-1.2-1.5.7,1.5,1.7,0,2.5.3.8.8-.9,1.4,0-1.9,2.3-1.6,3.7-1.1,7.4h0ZM343.4,67.8c.7,2.1.6,3.5.3,4.9-.9-1.5-.8-3.4-.3-4.9ZM343.7,77.1c-.9-1.4-.2-2.8-.7-4,2.3.3.6,3,.7,4Z"/>
      <g>
        <path class="st0" d="M376.1,86.9v2c.4-.4.6-1.6,0-2Z"/>
        <path class="st0" d="M420.7,153.9h0v-52.2c-.9,0-.9-1.2,0-1.2v-16.4c0-15.1-7.4-22.6-22.3-22.6s-5.6.3-8,.9h0s0,0,0,0c-2.2.6-4.2,1.4-5.9,2.5.4-.2.9-.2,1.4-.3.2,1.3-1.6.8-2.5,1.2,0-.1,0-.2.1-.3-1.5,1.1-2.8,2.5-3.9,4.1,1.9,1.8.6,3.8.6,6.1,0,1.8,2.4,3.7-.4,4.3,1.2.5.8.9,1.4,2.2.8.1.7-.4.7-.9.4.8,1.4,1,1.4,2.2,1.4-.8-.8-3.2-1-4.6.4.8,1.9.9,1.4-.6.5,0,1,0,1-.3.9.5.7,2,1,3.1-.6,0-.8-.5-.7-1.2-1.5.7,1.5,1.7,0,2.5.3.8.8-.9,1.4,0-1.9,2.3-1.6,3.7-1.1,7.4-1.5-.2-1.8.7-2.1,1.5-1.1.3-1.1-.5-1.8-.6,3-1.2,0-2.6,2.5-3.4,0-.9-.6-1.3-.7-2.2-.3,0-.9,1.4-.4,1.2-.5.6-1.4-.8-.7-1.5-1.2,0,0,.8-1.4.9,0,.7.3,1,1,.9-1.3.9-2.6-.8-3.1-1.6-.2-.8.7-.6.7-1.2-1.1-.6-1.4-6.6.4-7.1-.2-1.1-1.7-1.5,0-1.8-.1-.6-.9-.6-1.4-.9.2-1,.6-2,.7-3.1,0,0,0-.1-.1-.2-1,1.8-1.8,3.9-2.3,6.2.4,1.9-.2,2.6.3,3.9.2.3-.6.3-.9.4,0,0,0,0,0,.2,0,0,.1,0,.2,0-.1.2-.2.3-.3.4,0,.2,0,.3,0,.5.2,0,.4,0,.6-.2-.4,2,1.3,5.8-.7,7.1v21.5h15.5v-20.4c-1.1-1-.1-2.8-1.2-4.2,2.7-.9-1.1-6.8,1.4-8.6,0,1.7,0,3.2,0,4.7.6-3.3,2.8-5,6.5-5.1h.1c4.5,0,6.7,2.4,6.7,7.3v38.8c-19.1,1.9-28.7,11.9-28.7,30s1.3,10.2,3.9,14,6.4,5.7,11.5,5.7c1.8,0,3.4-.3,5-.7,0-.6.4-1.1,1.1-.7,0,.1,0,.2,0,.3,1.3-.5,2.6-1.3,3.7-2.2-.5-1.2.5-2.6-.2-4,1.1.9.9,2.1.7,3.5,1.4-1.2,2.6-2.8,3.6-4.6l1.1,6.6h1c.3-.9-.2-1.2.2-2.2,2.5.6.2-3,1.8-4,.3.2.6.3,1,.3.4,2-.2,2.7.3,4,.3.6-2,.2-.7.6-.6,1.2-.6-.7-1-.6-1,.7.5,2,1.4,1.2,0,.2,0,.4,0,.6h2.2c-.5-1.9-.3-5.5,1-5.9-.2-1.1-1.7-1.5,0-1.9-.1-.6-.9-.6-1.4-.9.2-1,.6-2,.7-3.1-2-2.1,2-5.7-.7-8.3,1.1-.7.7-1.8,0-2.8,1.1-1.2,1.5,1.8,2.1.9,1,0-.8.8.7.6-2.2,2.5.3,6.9-1.8,8.3,2.1,1.8.8,3.8.7,6.2,0,1.8,2.4,3.7-.4,4.3,1.2.5.8.9,1.4,2.2.8.1.7-.4.7-.9.3.5.8.8,1.1,1.2h.7c0-1.1-1.3-2.7-1.5-3.7.4.8,1.9.9,1.4-.6.5,0,1,0,1-.3.9.5.7,2,1,3.1-.6,0-.8-.5-.7-1.2-1.5.7,1.5,1.7,0,2.5.3.8.8-.9,1.4,0-.1.1-.2.2-.2.3h.3v-16.2c-.1-.2-.1-.5,0-.8h0ZM384.5,77.2c-1.7-.7.9-1.8-.7-2.2.8-1,1.3.9,1.4,1.6-.3.1-.6.3-.7.6h0ZM376.8,94.2c-1.2-1-.3-3.1-.3-4.6.9.6.4,3.3.3,4.6ZM379.2,88.7h-.7c-.2-.2-.4-.5-.4-.9h1.4v-.6c1.2.5-.7.8-.4,1.5h0ZM380.6,89c-.5-.8,1.4-1,.4-1.2.3-.9,1.1.2,1.8,0,0,.3-.1.3-.4.3.2.3.3.6.7.6-.3.8-1.4-.7-1,.9-.7,0-.5-.8-1.4-.6h0ZM382,92.4c-.3-.2-.6-.3-1-.3.2-.2.5-.8,0-.9,0-.3.1-.3.4-.3h.7c-.2,1,.6,1,0,1.6h0ZM384.5,91.8c-.5-.2-.6-.7-.7-1.2.3,0,.3.1.4.3.5,0,.1-.9.7-.9,1.3-.3.3,1.4,1.4,1.2.2.9-1.9-.2-1.8.6ZM387.6,66.8c-.9,0-1.1-.4-1-1.2.9,0,1.1.4,1,1.2ZM390.5,65.5c-.8-.2-1-1.9.4-1.8,0,.8,0,1.5-.4,1.8ZM394.3,65.2c-.8-.4-.1-2.2-.4-3.1,1,.9.6,2.5.4,3.1ZM402.2,125.2c1.2.3-.1,1.2.7,1.5,0,.3-.4.2-.4,0-.6,0-.7.4-1.4.3.1-.8,1-.9,1-1.8ZM402.5,134.5c-1.6-.1.1-2.3-.7-2.5,1.8-.6.1,1.7.7,2.5ZM399,127.4c.5-.5,1.6.2,1.8.9-1,0-1.9,0-1.8-.9ZM397.6,130.5c.9,0,.8,1.1.4,1.5-.9,0-.8-1.1-.4-1.5ZM397.6,132.3c.9,0,.1,1.1,0,1.2-.7-.2-.2-1.4-1-1.5.6-1.4.8,1.5,1,.3ZM401.4,162.9c-.5-1.2-.2-4.7-.3-5.6,1.3.5.7,4.4.3,5.6ZM405.2,143.4c0,9.4-3.4,14.4-10,14.9-2.1,0-3.1-2.3-3.1-7,0-6.9,4.4-11.4,13.2-13.6v5.7h0ZM409.8,143.1c.6.7.8,1.8.7,3.1-.7-.4-1-1.2-1.8-1.5,0-.8,1.1-.7,1-1.5h0ZM407.8,106.1c.6.3,1.9,0,1.8.9-.5,0-1.3-.2-1.4.3-.5,0-.3-.8-.4-1.2ZM408.1,161.6c1.1,0,2.4,0,2.5.9-1.1,0-2.5.1-2.5-.9ZM410.2,152.4c-.6,0-.6-.3-1-.3.3-1.7.6-2.5.7-4.3,1.4.8.4,3.2.3,4.6ZM412.7,102.7c1.4-.3,1.2,1.7.7,2.2,0,.8,1.2.6,2.1.6-.4,1.9-2-.4-3.1.9,0-.3.1-.3.4-.3,0-1.2-.9-2.1,0-3.4h0ZM414.4,126.2c-.4,0-1.2.4,0,.9-1.2,1.1,0,2.5-.7,4-1.6-3.3-.4-6.7-.7-10.2,2.2,0-.5,2.8,1.4,3.4-.7-.1-1.1,1.3,0,1.8h0ZM413,113.2c2.6,2.2-.2,3.4.7,7.4-1.8-1.3-.6-5.3-.7-7.4ZM411.6,128.6c-1.4-.3,0-1.2-.4-2.5,1.2.2.6,1.8.4,2.5ZM412.7,106.7c2.2-.2.6,1.1,1.4,2.2-.8.2-1.2.8-1.8,1.2-.3-.6.3-1.7.4-3.4ZM414.4,147.5c-1.5-.3-.5-1-1-1.9,1.3-.2,1.1.9,1,1.9ZM413,145.3c-.3-.4,0-2.2.9-2.7,0,0,0-.1,0-.2-.5-.4-.8-.8-1.6-.8.4-2.1,1.2-6.8.4-8.3.7-.9.6-1.3,1.4-1.5-.8.6,1,2.3-.7,2.5.7,2.3,1.1,6,.5,8.2,0,0,0,0,.1.1,0,0-.1,0-.2.1,0,.2,0,.4-.1.5.3.4.5,1,1.4.9-.9.2-1,1.2-2.1,1.2h0ZM415.8,143.4c-1.6-.2-.7-1.9-.7-2.5.5.1.5.5,1,.6.2.9-.6.9-.4,1.9h0ZM414.8,100.8h2.1c0,.5-2.3,1.2-2.1,0ZM418.2,139.7c1.6.6-.7,1.8,0,2.2-1.2,1-.3-1.7,0-2.2ZM418.5,165.7c-1.7-.6.9-1.8-.7-2.2.8-1,1.3.9,1.4,1.6-.3.1-.6.3-.7.6h0ZM417.5,154.2c.3-.9,1.3-1.1,2.5-1.2.2,1.3-1.6.8-2.5,1.2Z"/>
      </g>
      <path class="st0" d="M237.3,68.9c-.4-.1-.5-.6-.9-.7.1-.4.4-.7.9-.7-.5-.8-.8.2-1.6-.3-.4.1-.3.9-.3,1.4-1.1-.1-2-.8-3.4-.3,0-.3.4-.3.6-.3.4-1.1-1-.3-.6-1.4,2.6,0,6.1.9,7.1-1.4h.2v-7.6h-.8c-.2.2-.3.2-.6.2h0s-9.5,1.2-9.5,1.2c.9,0,1.5.2,2.4-.2.6-.3.2,2,.6.7,1.2.6-.7.6-.6,1,.7,1,2-.5,1.2-1.4,2,.4,5.8-1.3,7.1.7-.5-.5-2.4-.7-2.2.7-1-.7-1.9.8-2.2-.7-1.2.2-1.7,1.1-1.9,2.5-1.1-.5-1.4.2-2.5-.4.6-2.5-3-.2-4-1.8.1-.3.3-.5.3-1l-2.5.3c0,1.1.1,2.4-.9,2.4,0-.9,0-2,.6-2.3l-29.1,3.9v3.9c.5.1,1,.2,1.3,0,0,.9-.7.8-1.3.6v4c.2,0,.3.2.4.2,0,.2-.2.3-.4.4v1.5h44.4v-5.9c-.8,0-1.5,0-2,.6h0ZM203,69.2c0-.4,0-.6.3-.7-.3-.5-.8-.8-1.5-.7-.4,1.3,1.4,0,.9,1.4-1-.2-2-.6-2.2-1.8.8-.9,2.5.8,2.8-1.1,0,.6,1.5,2.6.3,2.4.5.9,2.2.1,2.8,0-.4,1.8-2.1.7-3.4.3h0ZM205.8,71.3c.5.7,1.6.8,2.8.7-.1,1.1-3.4,1.2-2.8-.7ZM207,68.8c0-.5,0-1-.3-1.1.6-1.3,1.5-.5,1.9-.7.8.7-.2,1.3-.9.7.2.4.7.4.6,1.1.8,0,1-.6,1.5-.7-1.3-.7,0-1.8.9-2.1-.9.5.5,1.4-.3,1.8.6,1.2,2.1,1,2.8.7.3,1.8-4.4,1.2-6.2.3h0ZM219.1,68.9c.5-1.3,4.4-.7,5.6-.3-1.2.5-4.7.2-5.6.3ZM227.1,68.5c1.1-1.4,2.7-.6,4.6-.7-1.3,1.5-2.9,0-4.6.7ZM232.9,72c.9-.3.6,1,1.6.7-.1.7-2.2.6-1.6-.7Z"/>
      <g>
        <path class="st0" d="M84,63.2c0,.1,0,.3,0,.4-.2-.1-.5-.2-.7-.4h-1.6c0,.1,0,.2,0,.4,0-.1-.1-.2-.2-.4h-10.3v87.4h2.3s0,0,0,0c0,0,0,0,0,0h.6c.2-.4,0-1.3.3-1.7-.3-.7-.4-.9-1-.5-.2-1.1.3-1.2.6-1.6,0-.9-.7.6-.6-.3,0-.8.7-.6,1-.8,0,1.7.9,3.3.2,4.9h1.2c0-.9.1-1.7-.2-2.2.6.3.5,0,1,.3v-1.1c0-.3-.4-.2-.6-.3,1.2-.6.6-2.8,1-3.8.4,2,.4,4.3.4,7.1h9.1V63.2h-2.7,0ZM75.1,128.2c0,.7-1.1,1.3-1,0,.6-.2.4-.2,1,0ZM74.9,145.1c-.7,0,0-1-.6-1.6-.3.4-.2,1.5-.6,1.9-.6-.9.3-2.5-.2-3.2.9.6,1.2.2,1.8,1.1-.3.7-.8,1-.4,1.9h0ZM74.5,133c-.2,1.3,1,2.5,0,3.2,0,.4.3-.1.6,0-.7,1.9.4,3.7-.2,5.9-.5-.8-.3-2-1.4-2.4-.4-3.2,1.4-4.9-.2-7,.7.9.5-1.1,1-1.4,0-.3-.4-.2-.4-.5.2-.8.2-1.9,1.2-1.6,0,1,0,2,.4,2.4-.3.5-.8.7-1,1.4h0ZM77,129.2c0-2.8.3-1.9.2,1.4-.9,0-.2-1.1-.2-1.4ZM77.3,142.2c-.5-.2-1-.5-1.4-.8,0-1.2.5,0,1-.3-.4-3.7-.3-6.4,0-8.9.9,2.7,0,6.5.4,10h0ZM79.2,150c-.3-.3-.5-2.8.2-2.7-.2,1.4.1,1.7-.2,2.7ZM78.6,145.4c-.9,0-.5-.9-.2-1.4.3-.1.5,1.1.6.3.2,0,.1.5.4.5-.3.9-1-1.2-.8.5h0ZM81.4,73.6c0,.7-.3-.4-.8,0v.5c.2.4.3-.1.6.5-.8.8-1.5-.8-1-2.7.2.1.3.3.6.3.4-.3.2-1.4.4-1.9-.3-.7-.4-.8-1-.5-.2-1.1.3-1.2.6-1.6,0-.9-.7.6-.6-.3,0-.8.7-.6,1-.8,0,1.8,1.1,3.6,0,5.4,0,.4.3-.1.6,0,.1.6-.9.9-.4,1.1h0ZM81.6,66.6c-.7,0,0-1-.6-1.6-.3.4-.2,1.5-.6,1.9-.6-.9.3-2.5-.2-3.2.9.6,1.2.2,1.8,1.1-.3.7-.8,1-.4,1.9h0ZM84.2,73.3c0,3,0,6.5-.4,9.4-.6-.4-.2-3.2-.4-5.1-.2-1.4-.3-1.1-.2-2.4,0-.3-.5-1.9-.6-.3-.5-1.6.5-4-.2-5.1.6.3.5,0,1,.3v-1.1c0-.3-.4-.2-.6-.3,1.2-.6.6-2.8,1-3.8.4,2.3.4,5,.4,8.4ZM85.1,65.5c.3-.1.5,1.1.6.3.2,0,.1.5.4.5-.3.9-1-1.2-.8.5-.9,0-.5-.9-.2-1.3ZM85.9,71.4c-.3-.3-.5-2.8.2-2.7-.2,1.4.1,1.7-.2,2.7ZM85.7,76.3h-.6v-1.6c.7.9,0-1.5,1-1.1.4,1.8-.8,1.6-.4,2.7Z"/>
        <path class="st0" d="M82.8,71.4c.3.4.9.3.8-.5-.4-.5-.6,0-.8.5Z"/>
        <path class="st0" d="M76.9,149.5c-.4-.5-.6,0-.8.5.3.4.9.3.8-.5Z"/>
      </g>
      <path class="st0" d="M122.5,172.4c-1.4-.2.2-2.2-.6-2.4,1.8-.6.2,1.7.7,2.4,4.5-.6,8.1-1.9,10.9-4.2-1-3,0-6.1-.4-9.4,2.2-.1-.5,2.8,1.4,3.4-.7-.1-1.1,1.3,0,1.9-.4,0-1.2.4,0,.9-.9.8-.6,1.7-.5,2.7,4.2-3.8,6.4-9.6,6.4-17.7s-4.9-19.3-14.6-26.2c-7.1-4.3-11.6-9.2-13.5-14.9-.2.3-.3.5-.6.7.5-.5.7-2.4-.7-2.2.6-.9-.6-1.8.5-2.1,0-.3,0-.6,0-.9-.4-.6-1.1-.9-2.1-1,.5-1.1-.2-1.4.4-2.5,2.4.5.4-2.8,1.6-3.9v-2.3c-.9,0-1.6-.1-1.6-.9.5,0,1.1,0,1.6.1v-9.5c-.2,0-.3-.2-.6-.2.3-1.7.6-2.5.7-4.3.2.1.3.3.4.5.5-1.4,1.4-2.4,2.7-3-.2-.5,0-2.2.9-2.7,0,0,0-.1,0-.2-.4-.3-.8-.8-1.6-.8.4-2.1,1.2-6.8.4-8.3.7-.8.6-1.3,1.4-1.5-.8.6,1,2.3-.7,2.5.7,2.3,1.1,6,.6,8.2,0,0,0,0,.1.1,0,0-.1,0-.2,0,0,.2,0,.4-.2.5.3.4.5,1,1.4.9-.6.1-.8.5-1.2.8.7-.2,1.5-.3,2.5-.3h.1c4.5,0,6.8,2.5,6.8,7.3v26.4h2.2c-.7-1,0-2.7-1-3.9,2.7-.9-1.1-6.8,1.4-8.6,0,5.2-.1,9,.6,12.6h12.3v-26.4c0-15.1-7.4-22.6-22.3-22.6s-1.7,0-2.6,0c0,.6,0,1.2-.2,1.8-.3-.6-.4-1.1-.6-1.7-4.2.4-7.7,1.4-10.5,3.2,0,.6-.4,1.5-.1,1.9-.9,0-.8-.8-.6-1.4-5.2,3.7-7.8,9.9-7.8,18.8v18.6c0,12.5,4.8,22.2,14.6,29.1,6.8,4.9,11.2,9.3,13.2,13.4,0,0,.1,0,.2.1,0,.1,0,.2,0,.3.7,1.5,1.1,3,1.1,4.4,0,4.9-2.2,7.3-6.8,7.3s-6.8-2.4-6.8-7.3v-7.6h-15.5v7.6c0,15.1,7.4,22.6,22.3,22.7,1.6,0,3.1-.1,4.5-.3h0ZM133.8,158.6c-1.8-1.3-.6-5.3-.7-7.4,2.6,2.2-.2,3.4.7,7.4ZM136.9,138.8c0,.5-2.3,1.2-2.1,0h2.1ZM132.7,140.6c1.4-.3,1.2,1.7.7,2.2,0,.8,1.2.6,2.1.6-.4,1.9-2-.4-3.1.9,0-.3.1-.3.4-.3,0-1.2-.9-2.1,0-3.4h0ZM132.7,144.7c2.2-.2.6,1.1,1.4,2.2-.8.2-1.2.8-1.8,1.2-.3-.6.3-1.7.4-3.4ZM131.3,164.1c1.2.2.6,1.8.4,2.5-1.4-.3,0-1.2-.4-2.5ZM129.6,145c-.6,0-1.3-.1-1.4.3-.5-.1-.3-.8-.3-1.2.6.3,1.9,0,1.7.9h0ZM129.5,82.8c1,.9.6,2.5.4,3.1-.8-.4-.1-2.2-.4-3.1ZM126,86.2c-.8-.2-1-1.9.3-1.8,0,.8,0,1.5-.3,1.8ZM125.7,73.8c.7,2.1.6,3.5.3,4.9-.9-1.5-.8-3.4-.3-4.9ZM126,83.1c-.8-1.4-.2-2.8-.7-4,2.3.3.6,3,.7,4ZM119.8,72c1.6.6-.7,1.8,0,2.2-1.2,1-.3-1.7,0-2.2ZM116.6,73.2c.5.1.6.5,1.1.6.2.9-.6.9-.3,1.8-1.6-.2-.7-1.9-.7-2.5h0ZM111.3,75.4c.6.7.8,1.8.7,3.1-.7-.4-1-1.2-1.8-1.5,0-.8,1.1-.7,1.1-1.5h0ZM98.7,105c-.7-.1-.6-2.2.7-1.6.3.9-1,.6-.7,1.6ZM99.5,79.1c-1.1-.2-1.2-3.4.7-2.8-.7.5-.8,1.6-.7,2.8ZM102.3,73.5c.4,0,.6,0,.7.3.5-.3.8-.8.7-1.5-1.3-.4,0,1.4-1.4.9.2-1,.6-2,1.8-2.2.9.8-.8,2.5,1.1,2.8-.6,0-2.6,1.5-2.4.3-.9.5-.1,2.2,0,2.8-1.8-.4-.7-2.1-.3-3.4h0ZM102.6,77.5c.5,0,1,0,1.1-.3,1.3.6.5,1.5.7,1.8-.7.8-1.3-.2-.7-.9-.4.2-.4.7-1.1.6,0,.8.6,1,.7,1.5.7-1.3,1.8,0,2.1.9-.5-.9-1.4.5-1.8-.3-1.2.6-1,2.1-.7,2.8-1.8.3-1.2-4.4-.3-6.2h0ZM102.9,97.6c1.4,1.1.6,2.7.7,4.6-1.5-1.3,0-2.9-.7-4.6ZM102.6,89.6c1.3.5.7,4.4.3,5.6-.5-1.2-.2-4.7-.3-5.6ZM106,111.5c-1.1-.3-.8,0-2.1,0-.2.8.1,1.1,1.1.9,0,.3-.1.3-.3.3v.6c-2.5-.8-.8-4.2-2.1-5.6.1-.4.6-.5.7-.9.4.1.7.4.7.9.8-.5-.2-.8.3-1.6-.1-.4-.9-.3-1.4-.3.1-1.1.8-2,.3-3.4.3,0,.3.4.3.6,1.1.4.3-1,1.4-.6,0,2.6-.9,6.1,1.4,7.1,0,.8,0,1.5-.3,1.8h0ZM112.3,114.9c-1.2-1-.3-3.1-.3-4.6.8.6.4,3.3.3,4.6ZM123.3,143.1c-1.1-.1-.3-2-2.1-1.5.7-.9,2.2-.2,1.4-1.9,2.1.7,0,1.6.7,3.4h0ZM122.9,164.7c0,.4-.3.2-.3,0-.6,0-.7.4-1.4.3.1-.8,1-.9,1.1-1.9,1.2.4-.1,1.2.7,1.5h0ZM122.6,159.5v1.2c-.9-.6-2.2-1-2.4-2.2.8.3,1.5.7,2.4.9h0ZM119.1,165.3c.6-.5,1.6.1,1.8.9-1,0-1.9,0-1.8-.9ZM117.7,168.4c.9,0,.8,1.1.3,1.5-.9,0-.8-1.1-.3-1.5ZM116.6,170c.6-1.4.8,1.5,1.1.3.9,0,0,1.1,0,1.2-.7-.2-.2-1.4-1.1-1.5Z"/>
      <polygon class="st0" points="88.3 163.2 79.3 154.1 70.6 162.8 62 154.1 53.4 162.7 44.8 154.1 36 163 27.2 154.1 18.1 163.2 27.2 172.3 36 163.4 44.8 172.3 53.4 163.7 62 172.3 70.6 163.6 79.3 172.3 88.3 163.2"/>
    </g>
  </g>
</svg>