<?xml version="1.0" encoding="UTF-8"?>
<svg id="Capa_1" xmlns="http://www.w3.org/2000/svg" version="1.1" viewBox="0 0 450.1 127.5">
  <!-- Generator: Adobe Illustrator 29.3.1, SVG Export Plug-In . SVG Version: 2.1.0 Build 151)  -->
  <defs>
    <style>
      .st0 {
        fill: #494949;
      }
    </style>
  </defs>
  <g id="Capa_1-2">
    <g>
      <g>
        <path class="st0" d="M294.8,48.6h4.8v3.7c-.5.4-1.2.8-1.9,1.1-.8.3-1.6.5-2.5.5s-1.8-.2-2.5-.5c-.7-.3-1.4-.8-1.9-1.3-.5-.6-.9-1.2-1.2-2s-.4-1.7-.4-2.6.1-1.7.4-2.5.7-1.5,1.2-2c.5-.6,1.1-1,1.8-1.4s1.5-.5,2.3-.5,1,0,1.5.1c.4,0,.9.2,1.2.4.4.2.7.3,1,.5s.6.5.9.7h.1c0,0,1.3-1.5,1.3-1.5h-.1c-.4-.4-.8-.7-1.2-1-.4-.3-.9-.5-1.4-.7s-1-.3-1.5-.4-1.2-.1-1.8-.1c-1.2,0-2.3.2-3.3.7-1,.5-1.8,1.1-2.5,1.8-.7.8-1.2,1.6-1.6,2.6-.4,1-.6,2.1-.6,3.1s.2,2.2.6,3.2.9,1.9,1.6,2.6c.7.7,1.6,1.3,2.6,1.8s2.1.6,3.4.6,2.6-.2,3.6-.7c1.1-.5,2-1,2.7-1.7h0v-6.5h-6.8v1.8h0,0Z"/>
        <path class="st0" d="M318.5,41.6c-.7-.8-1.6-1.3-2.6-1.8-1-.4-2.1-.7-3.3-.7s-2.3.2-3.3.7c-1,.5-1.9,1.1-2.6,1.8-.7.8-1.3,1.6-1.7,2.6s-.6,2-.6,3.2.2,2.2.6,3.2c.4,1,.9,1.9,1.6,2.6.7.8,1.6,1.3,2.6,1.8,1,.4,2.1.7,3.3.7s2.3-.2,3.3-.7c1-.5,1.9-1.1,2.6-1.8.7-.8,1.3-1.6,1.7-2.6h0c.4-1,.6-2,.6-3.2s-.2-2.2-.6-3.2c-.4-1-.9-1.9-1.6-2.6M318.1,49.9c-.3.8-.7,1.4-1.2,2s-1.2,1-1.9,1.3-1.5.5-2.4.5-1.7-.2-2.4-.5c-.7-.3-1.4-.8-1.9-1.4s-1-1.2-1.3-2c-.3-.8-.5-1.6-.5-2.5s.1-1.7.5-2.5c.3-.8.7-1.4,1.2-2s1.2-1,1.9-1.3c.7-.3,1.5-.5,2.4-.5s1.7.2,2.4.5c.7.3,1.4.8,1.9,1.4s1,1.2,1.3,2c.3.8.5,1.6.5,2.5s-.1,1.7-.5,2.5"/>
        <path class="st0" d="M336,48.3c-.3-.3-.7-.6-1.1-.8-.3-.2-.7-.3-1-.4.2-.1.4-.2.6-.4.3-.2.6-.5.8-.8.2-.3.5-.7.6-1.1.1-.4.2-.9.2-1.4s-.1-1.2-.4-1.7c-.2-.5-.6-.9-1.1-1.3-.5-.3-1-.6-1.6-.8-.6-.2-1.4-.3-2.1-.3h-6.8v16h7.1c.9,0,1.6,0,2.4-.3.7-.2,1.3-.5,1.9-.9.5-.4.9-.8,1.2-1.4s.4-1.2.4-1.9,0-1-.3-1.5c-.2-.4-.4-.8-.7-1.1M326.1,41.3h4.6c1.1,0,1.9.2,2.5.7.6.4.8,1,.8,1.8s-.3,1.5-1,2c-.6.5-1.5.7-2.5.7h-4.5v-5.2h0ZM334,52.8c-.7.5-1.6.7-2.7.7h-5.1v-5.3h4.8c1.3,0,2.4.2,3,.7.7.5,1,1.1,1,1.9s-.3,1.5-1,2"/>
        <rect class="st0" x="340.4" y="39.4" width="2" height="16"/>
        <polygon class="st0" points="348.8 48.3 357.3 48.3 357.3 46.4 348.8 46.4 348.8 41.3 358.3 41.3 358.3 39.4 346.7 39.4 346.7 55.4 358.4 55.4 358.4 53.5 348.8 53.5 348.8 48.3"/>
        <path class="st0" d="M371.4,48.4c.5-.3,1-.6,1.4-1s.7-.9.9-1.4c.2-.5.3-1.1.3-1.8s-.1-1.4-.4-2-.7-1.1-1.2-1.5c-.5-.4-1.1-.8-1.8-1s-1.5-.3-2.4-.3h-6.9v16h2v-6.1h4.3l4.5,6.1h2.5l-4.9-6.5c.5-.1,1.1-.3,1.5-.5M368.1,47.5h-4.7v-6.1h4.7c1.2,0,2.2.3,2.9.8.7.5,1,1.2,1,2.2s-.1.9-.3,1.3c-.2.4-.5.7-.8,1s-.8.5-1.2.6c-.5.1-1,.2-1.6.2"/>
        <polygon class="st0" points="389.1 51.8 379.4 39.4 377.5 39.4 377.5 55.4 379.5 55.4 379.5 42.8 389.5 55.4 391.1 55.4 391.1 39.4 389.1 39.4 389.1 51.8"/>
        <path class="st0" d="M408.5,41.6c-.7-.8-1.6-1.3-2.6-1.8-1-.4-2.1-.7-3.3-.7s-2.3.2-3.3.7c-1,.5-1.9,1.1-2.6,1.8-.7.8-1.3,1.6-1.7,2.6s-.6,2-.6,3.2.2,2.2.6,3.2c.4,1,.9,1.9,1.6,2.6.7.8,1.6,1.3,2.6,1.8,1,.4,2.1.7,3.3.7s2.3-.2,3.3-.7c1-.5,1.9-1.1,2.6-1.8.7-.8,1.3-1.6,1.7-2.6h0c.4-1,.6-2,.6-3.2s-.2-2.2-.6-3.2c-.4-1-.9-1.9-1.6-2.6M408.2,49.9c-.3.8-.7,1.4-1.2,2s-1.2,1-1.9,1.3-1.5.5-2.4.5-1.7-.2-2.4-.5c-.7-.3-1.4-.8-1.9-1.4s-1-1.2-1.3-2c-.3-.8-.5-1.6-.5-2.5s.1-1.7.5-2.5c.3-.8.7-1.4,1.2-2s1.2-1,1.9-1.3c.7-.3,1.5-.5,2.4-.5s1.7.2,2.4.5c.7.3,1.4.8,1.9,1.4s1,1.2,1.3,2c.3.8.5,1.6.5,2.5s-.1,1.7-.5,2.5"/>
        <path class="st0" d="M432.7,41.7c-.8-.7-1.6-1.3-2.7-1.7s-2.2-.6-3.4-.6h-5.6v16h5.6c1.2,0,2.4-.2,3.4-.6,1-.4,1.9-1,2.7-1.7s1.3-1.6,1.8-2.5.6-2,.6-3.2-.2-2.2-.6-3.2-1-1.8-1.8-2.5M432.5,49.8c-.3.7-.7,1.4-1.3,1.9-.5.5-1.2,1-2,1.3-.8.3-1.7.5-2.6.5h-3.5v-12.2h3.5c1,0,1.9.2,2.6.5s1.5.8,2,1.3c.5.5,1,1.2,1.3,1.9s.5,1.5.5,2.4-.1,1.7-.5,2.4"/>
        <polygon class="st0" points="440.5 53.5 440.5 48.3 449 48.3 449 46.4 440.5 46.4 440.5 41.3 450 41.3 450 39.4 438.4 39.4 438.4 55.4 450.1 55.4 450.1 53.5 440.5 53.5"/>
        <polygon class="st0" points="298.5 68.1 298.5 85.6 293.7 85.6 293.7 68.1 287 68.1 287 63.6 305.2 63.6 305.2 68.1 298.5 68.1"/>
        <path class="st0" d="M317.8,85.9c-5.9,0-9.5-3.3-9.5-9.8v-12.6h4.8v12.4c0,3.6,1.8,5.4,4.7,5.4s4.8-1.8,4.8-5.3v-12.6h4.8v12.4c0,6.7-3.7,9.9-9.6,9.9"/>
        <path class="st0" d="M342.6,86c-6.5,0-11.3-5-11.3-11.3h0c0-6.3,4.7-11.4,11.5-11.4s6.6,1.4,8.7,3.4l-3.1,3.6c-1.7-1.5-3.4-2.5-5.6-2.5-3.7,0-6.4,3.1-6.4,6.8h0c0,3.8,2.6,7,6.4,7s4-1,5.8-2.6l3.1,3.1c-2.3,2.4-4.8,3.9-9,3.9"/>
        <path class="st0" d="M364.3,85.9c-5.9,0-9.5-3.3-9.5-9.8v-12.6h4.8v12.4c0,3.6,1.8,5.4,4.7,5.4s4.8-1.8,4.8-5.3v-12.6h4.8v12.4c0,6.7-3.7,9.9-9.6,9.9"/>
        <polygon class="st0" points="396.2 85.6 396.2 71.2 390 80.6 389.9 80.6 383.8 71.3 383.8 85.6 379 85.6 379 63.6 384.3 63.6 390 72.9 395.8 63.6 401 63.6 401 85.6 396.2 85.6"/>
        <path class="st0" d="M422.4,85.6l-2-4.9h-9.3l-2,4.9h-4.9l9.4-22.2h4.5l9.4,22.2h-5.1,0ZM415.8,69.2l-2.9,7.1h5.9l-2.9-7.1h0ZM413.8,61.9l3.5-5.6,4.1,1.8-4,3.8h-3.6Z"/>
        <polygon class="st0" points="446 85.6 435.4 71.6 435.4 85.6 430.6 85.6 430.6 63.6 435.1 63.6 445.4 77.1 445.4 63.6 450.1 63.6 450.1 85.6 446 85.6"/>
      </g>
      <g>
        <path class="st0" d="M216,50.9h.1s3.7-2,3.7-2c0-.1.1-.2.2-.4,0-.1.1-.2.2-.4.5-.7,1.2-1.1,1.9-1.1s.3,0,.4,0c.1,0,.2,0,.3,0,.4.2.8.5,1.1,1,0,.1.2.2.2.3,0,0,0,.2.1.2,0,0,0,.1,0,.2l3.2,1.7.6.3h2.1v-6.1h-16.4v6.1h2.1,0Z"/>
        <rect class="st0" x="210.2" y="52.8" width="1.8" height="1.8"/>
        <path class="st0" d="M235.7,58.2h22c0-.6,0-1.2,0-1.8h-21.9v1.8Z"/>
        <rect class="st0" x="209.1" y="41.1" width="26.4" height="1.8"/>
        <polygon class="st0" points="206.4 50.9 208.3 50.9 208.3 44.8 195.4 44.8 195.4 52.6 195.4 54.6 208.3 54.6 208.3 52.8 206.4 52.8 206.4 52.6 206.4 50.9"/>
        <rect class="st0" x="232" y="52.8" width="1.8" height="1.8"/>
        <rect class="st0" x="232" y="44.8" width="1.8" height="6.1"/>
        <path class="st0" d="M186,56.4c0,.6,0,1.2,0,1.8h22.4v-1.8h-22.3Z"/>
        <polygon class="st0" points="237.7 52.8 235.7 52.8 235.7 54.6 248.2 54.6 248.2 52.6 248.2 44.8 235.7 44.8 235.7 50.9 237.7 50.9 237.7 52.6 237.7 52.8"/>
        <path class="st0" d="M265.6,78.7l-3.7-1.6c-.4-.2-.8,0-.9.4-1.3,4.7-3.2,9.2-5.4,13.2-.1.3-.1.6.1.8l2.9,2.9c.3.3.8.2,1-.1,2.7-4.6,4.8-9.6,6.3-14.9,0-.3,0-.7-.4-.8"/>
        <path class="st0" d="M268.1,60.5h-4c-.4,0-.7.3-.7.7-.1,4.5-.7,8.8-1.6,13,0,.3,0,.6.4.8l3.8,1.6c.4.2.8,0,.9-.5,1.1-4.8,1.7-9.7,1.9-14.8,0-.4-.3-.7-.7-.7"/>
        <path class="st0" d="M262.2,43.9c-.3.1-.5.4-.4.8.9,4.1,1.5,8.5,1.6,13,0,.4.3.7.7.7h4c.4,0,.7-.3.7-.7-.1-5.1-.8-10-1.9-14.8,0-.4-.5-.6-.9-.5l-3.8,1.6h0Z"/>
        <path class="st0" d="M254.7,93.8c-.3-.3-.8-.2-1,.1-3.1,4.7-6.7,8.7-10.8,11.8-.2.2-.3.5-.2.8l1.6,3.8c.2.4.7.5,1,.3,3.8-2.7,7.2-6.1,10.3-10,.8-1,1.5-2,2.2-3,.2-.3.1-.6,0-.8l-2.9-2.9h0Z"/>
        <path class="st0" d="M188.1,90.8c-2.2-4-4.1-8.4-5.4-13.2-.1-.4-.5-.6-.9-.4l-3.7,1.6c-.3.1-.5.5-.4.8,1.5,5.3,3.6,10.3,6.3,14.9.2.4.7.4,1.1.1l2.9-2.9c.2-.2.3-.5.1-.8"/>
        <path class="st0" d="M181.4,74.9c.3-.1.5-.4.4-.8-.9-4.1-1.5-8.5-1.6-13,0-.4-.3-.7-.7-.7h-4c-.4,0-.7.3-.7.7.1,5.1.8,10,1.9,14.8,0,.4.5.6.9.5l3.8-1.6h0s0,0,0,0Z"/>
        <path class="st0" d="M175.6,58.2h4c.4,0,.7-.3.7-.7.1-4.5.7-8.8,1.6-13,0-.3,0-.6-.4-.8l-3.8-1.6c-.4-.2-.8,0-.9.5-1.1,4.8-1.7,9.7-1.9,14.8,0,.4.3.7.7.7"/>
        <path class="st0" d="M190,93.9c-.2-.4-.7-.4-1-.1l-2.9,2.9c-.2.2-.3.6,0,.8.7,1,1.4,2.1,2.2,3,3.1,4,6.5,7.3,10.3,10,.4.2.8,0,1-.3l1.6-3.8c.1-.3,0-.6-.2-.8-4.1-3.1-7.8-7.1-10.8-11.8"/>
        <path class="st0" d="M178.1,40l3.7,1.5c.4.2.8,0,.9-.4,1.3-4.7,3.2-9.2,5.4-13.2.1-.3.1-.6-.1-.8l-2.9-3c-.3-.3-.8-.2-1.1.1-2.7,4.6-4.8,9.6-6.3,14.9,0,.3,0,.7.4.8"/>
        <path class="st0" d="M189,24.9c.3.3.8.2,1-.1,3.1-4.7,6.7-8.7,10.8-11.8.2-.2.3-.5.2-.8l-1.6-3.8c-.2-.4-.7-.5-1-.3-3.8,2.7-7.2,6.1-10.3,10-.8,1-1.5,2-2.2,3-.2.3-.1.6,0,.9l2.9,2.9h0Z"/>
        <path class="st0" d="M255.5,28c2.2,4,4.1,8.4,5.4,13.2.1.4.5.6.9.4l3.7-1.5c.3-.1.5-.5.4-.8-1.5-5.3-3.6-10.3-6.3-14.9-.2-.4-.7-.4-1-.1l-2.9,3c-.2.2-.3.5-.1.8"/>
        <path class="st0" d="M253.6,24.8c.2.4.7.4,1,.1l2.9-2.9c.2-.2.3-.6,0-.9-.7-1-1.4-2-2.2-3-3.1-4-6.5-7.3-10.3-10-.4-.2-.8-.1-1,.3l-1.6,3.8c-.1.3,0,.6.2.8,4.1,3.1,7.8,7.1,10.8,11.8"/>
        <path class="st0" d="M242.2,111.9l-1.6-4c0-.1-.1-.2-.3-.2-.1,0-.3,0-.4,0-4.8,2.8-9.8,5.2-14.9,7.3,2.6.9,5.1,1.8,7.7,2.5,3.1-1.5,6.2-3.1,9.2-4.8.3-.2.4-.5.3-.8h0c0,0,0,0,0,0Z"/>
        <path class="st0" d="M221.6,122.1h0,0"/>
        <path class="st0" d="M241.7,122.2c-13.2-2.8-26.4-7.8-38-14.5-.1,0-.2,0-.4,0-.1,0-.2.1-.3.2l-1.6,4h0c-.1.4,0,.7.3.8,4.1,2.4,8.4,4.5,12.7,6.4-.1,0-.2,0-.3-.1.1,0,.2,0,.3.2.5.2,1.1.5,1.6.7h0c1.8.8,3.7,1.5,5.5,2.2h0c6,2.2,12.2,4.1,18.6,5.4.3,0,.6-.1.7-.4l1.3-4.2c.1-.3-.1-.7-.4-.7"/>
        <path class="st0" d="M221.8,122.2h-.2c0,0,.2,0,.2,0Z"/>
        <path class="st0" d="M201.9,122.2c-.3,0-.5.4-.4.7l1.3,4.2c.1.3.4.5.8.5,5.1-1.1,10-2.4,14.9-4.1-2.6-1-5.2-2.2-7.8-3.3-2.9.8-5.8,1.5-8.8,2.2"/>
        <rect class="st0" x="210.2" y="44.8" width="1.8" height="6.1"/>
        <path class="st0" d="M252.6,84.4c0-.2.1-.3.2-.5,3.2-7.2,4.9-15.3,4.9-23.8h-22v18.2h-1.8v-21.9h-1.8v21.9h-1.8v-25.5h-2.7c0-.1-4-2.3-4-2.3h-.2c0-.1-.1-.4-.1-.4,0,0-.5-1.2-1.1-1.2s-1.1,1.1-1.1,1.2v.3c-.1,0-.4.1-.4.1l-4,2.2h-.2c0,.1-2.4.1-2.4.1v25.5h-1.8v-21.9h-1.8v21.9h-1.8v-18.2h-22.4c0,8.5,1.8,16.6,4.9,23.8,0,.2.1.3.2.5.2.4.4.9.6,1.3h60.3c.2-.4.4-.9.6-1.3M204.6,72.1v6.2h-7.4v-10.4s3.8-1,7.4,0v4.2ZM222,52.8c1.1,0,2.1,1.2,2.1,2.8s-.9,2.8-2.1,2.8-2.1-1.2-2.1-2.8.9-2.8,2.1-2.8M228.4,62.2v20.1h-12.7v-21.3s6.4-1.9,12.7,0v1.2ZM246.8,72.1v6.2h-7.4v-10.4s3.8-1,7.4,0v4.2Z"/>
        <path class="st0" d="M251,87.6h-58.4c.3.6.7,1.2,1,1.8h56.3c.4-.6.7-1.2,1-1.8"/>
        <path class="st0" d="M248.9,91.2h-54.1c.4.6.8,1.2,1.3,1.8h51.5c.4-.6.9-1.2,1.3-1.8"/>
        <path class="st0" d="M246.2,94.9h-48.7c.5.6,1,1.2,1.6,1.8h45.6c.5-.6,1.1-1.2,1.6-1.8"/>
        <path class="st0" d="M242.9,98.6h-42c.7.6,1.3,1.2,2,1.8h38c.7-.6,1.4-1.2,2-1.8"/>
        <path class="st0" d="M238.4,102.2h-33.2c.9.7,1.9,1.3,2.9,1.8h27.4c1-.6,2-1.2,2.9-1.8"/>
        <path class="st0" d="M231.6,105.9h-19.6c3.2,1.2,6.4,1.8,9.8,1.8s6.6-.6,9.8-1.8"/>
        <path class="st0" d="M237.5,15.6c-.2-4.1-1.9-8-4.8-10.9-2.6-2.6-6-4.2-9.6-4.7C222.7,0,222.2,0,221.8,0s-.8,0-1.2,0c-3.6.4-7,2.1-9.7,4.7-2.9,2.9-4.6,6.8-4.8,10.9v1s.9,0,.9,0c.8,0,1.6-.1,2.5-.3.2,7,4.2,13,9.6,14.5l1.3,1.3c.4.4.9.6,1.4.6s1-.2,1.4-.6l1.3-1.3c5.4-1.5,9.3-7.5,9.6-14.5.8.2,1.6.3,2.5.3h1s0-.9,0-.9h0ZM208,14.7c.4-3.3,1.8-6.4,4.2-8.7s5.4-3.8,8.7-4.2c-.4,3.3-1.8,6.4-4.2,8.7s-5.4,3.8-8.7,4.2M226.9,10.5c-2.4-2.4-3.8-5.4-4.2-8.7,3.3.4,6.4,1.8,8.7,4.2s3.8,5.4,4.2,8.7c-3.3-.4-6.4-1.8-8.7-4.2"/>
      </g>
      <rect class="st0" x="152.3" y="17.4" width="1.2" height="90.1"/>
      <g>
        <g>
          <path class="st0" d="M6.3,38.8H0v-4.2h17.2v4.2h-6.3v16.6h-4.6v-16.6s0,0,0,0Z"/>
          <path class="st0" d="M19.4,49.8v-10.3h4.5v8.9c0,2.1,1,3.2,2.7,3.2s2.8-1.1,2.8-3.2v-8.9h4.5v15.9h-4.5v-2.3c-1,1.3-2.4,2.5-4.7,2.5-3.4,0-5.4-2.3-5.4-5.9Z"/>
          <path class="st0" d="M36.5,47.5h0c0-4.6,3.5-8.4,8.3-8.4s4.9,1,6.3,2.7l-2.8,3c-1-1.1-2-1.8-3.6-1.8s-3.9,2-3.9,4.3h0c0,2.5,1.6,4.5,4,4.5s2.5-.7,3.7-1.7l2.6,2.7c-1.5,1.7-3.3,2.9-6.5,2.9-4.8,0-8.3-3.7-8.3-8.2,0,0,0,0,0,0Z"/>
          <path class="st0" d="M53.4,49.8v-10.3h4.5v8.9c0,2.1,1,3.2,2.7,3.2s2.8-1.1,2.8-3.2v-8.9h4.5v15.9h-4.5v-2.3c-1,1.3-2.4,2.5-4.7,2.5-3.4,0-5.4-2.3-5.4-5.9Z"/>
          <path class="st0" d="M71.3,39.5h4.5v2.3c1-1.3,2.4-2.5,4.7-2.5s3.7.9,4.5,2.5c1.4-1.6,3.1-2.5,5.2-2.5,3.4,0,5.4,2,5.4,5.8v10.4h-4.5v-8.9c0-2.1-.9-3.2-2.6-3.2s-2.7,1.1-2.7,3.2v8.9h-4.5v-8.9c0-2.1-.9-3.2-2.6-3.2s-2.7,1.1-2.7,3.2v8.9h-4.5v-15.9h0Z"/>
          <path class="st0" d="M97.9,50.8h0c0-3.5,2.6-5.1,6.4-5.1s2.8.3,3.9.7v-.3c0-1.9-1.2-2.9-3.4-2.9s-2.9.3-4.4.9l-1.1-3.4c1.8-.8,3.5-1.3,6.2-1.3s4.2.7,5.4,1.8c1.2,1.2,1.7,2.9,1.7,5.1v9.2h-4.4v-1.7c-1.1,1.2-2.6,2-4.8,2s-5.5-1.7-5.5-4.9h0ZM108.3,49.8v-.8c-.8-.4-1.8-.6-2.9-.6-1.9,0-3.1.8-3.1,2.2h0c0,1.3,1,2,2.5,2,2.1,0,3.5-1.2,3.5-2.8h0ZM107.2,32.5l3.9,1.7-3.9,3.6h-3.3l3.3-5.3h0Z"/>
          <path class="st0" d="M115.7,39.5h4.5v2.3c1-1.3,2.4-2.5,4.7-2.5,3.4,0,5.4,2.3,5.4,5.9v10.3h-4.5v-8.9c0-2.1-1-3.2-2.7-3.2s-2.8,1.1-2.8,3.2v8.9h-4.5s0-15.9,0-15.9Z"/>
        </g>
        <g>
          <path class="st0" d="M21.2,69h-6.3v-4.2h17.2v4.2h-6.3v16.6h-4.6v-16.6h0Z"/>
          <path class="st0" d="M34.3,80v-10.3h4.5v8.9c0,2.1,1,3.2,2.7,3.2s2.8-1.1,2.8-3.2v-8.9h4.5v15.9h-4.5v-2.3c-1,1.3-2.4,2.6-4.7,2.6-3.4,0-5.4-2.3-5.4-5.9Z"/>
          <path class="st0" d="M52.2,69.7h4.5v3.2c.9-2.2,2.4-3.6,5.1-3.5v4.7h-.2c-3,0-4.8,1.8-4.8,5.6v5.9h-4.5s0-15.9,0-15.9Z"/>
          <path class="st0" d="M64,63.9h4.8v4h-4.8s0-4,0-4ZM64.1,69.7h4.5v15.9h-4.5v-15.9Z"/>
          <path class="st0" d="M70.9,83.5l1.9-3c1.7,1.2,3.5,1.9,5,1.9s1.9-.5,1.9-1.2h0c0-1-1.5-1.4-3.3-1.9-2.2-.7-4.8-1.7-4.8-4.8h0c0-3.3,2.6-5.1,5.8-5.1s4.2.7,5.9,1.8l-1.7,3.1c-1.6-.9-3.2-1.5-4.3-1.5s-1.7.5-1.7,1.1h0c0,.9,1.5,1.4,3.2,2,2.2.7,4.8,1.8,4.8,4.7h0c0,3.6-2.6,5.2-6.1,5.2s-4.7-.7-6.8-2.4h0Z"/>
          <path class="st0" d="M86.3,69.7h4.5v2.3c1-1.3,2.4-2.6,4.7-2.6s3.7.9,4.5,2.5c1.4-1.6,3.1-2.5,5.2-2.5,3.4,0,5.4,2,5.4,5.8v10.4h-4.5v-8.9c0-2.1-.9-3.2-2.6-3.2s-2.7,1.1-2.7,3.2v8.9h-4.5v-8.9c0-2.1-.9-3.2-2.6-3.2s-2.7,1.1-2.7,3.2v8.9h-4.5v-15.9h0Z"/>
          <path class="st0" d="M113.1,77.7h0c0-4.6,3.7-8.3,8.6-8.3s8.6,3.7,8.6,8.2h0c0,4.6-3.7,8.3-8.6,8.3s-8.6-3.7-8.6-8.2h0ZM125.8,77.7h0c0-2.4-1.7-4.5-4.2-4.5s-4.1,2-4.1,4.3h0c0,2.4,1.7,4.5,4.2,4.5s4.1-2,4.1-4.3Z"/>
        </g>
      </g>
    </g>
  </g>
</svg>