<?xml version="1.0" encoding="UTF-8"?>
<svg xmlns="http://www.w3.org/2000/svg" version="1.1" viewBox="0 0 19.5 19.2">
  <defs>
    <style>
      .cls-1 {
        fill: #fff;
      }
    </style>
  </defs>
  <!-- Generator: Adobe Illustrator 28.6.0, SVG Export Plug-In . SVG Version: 1.2.0 Build 709)  -->
  <g>
    <g id="Capa_1">
      <path class="cls-1" d="M12.8,19.2c-.3,0-.6,0-.8-.2l-5-2.5c-.1,0-.2,0-.3,0l-3.9,1.9c-.6.3-1.3.3-1.8,0-.6-.3-.9-.9-.9-1.6V4.3c0-.7.4-1.4,1-1.7L5.9.2c.5-.3,1.2-.3,1.7,0l5,2.5c.1,0,.2,0,.3,0l3.9-1.9c.6-.3,1.3-.3,1.8,0,.6.3.9.9.9,1.6v12.5c0,.7-.4,1.4-1,1.7l-4.9,2.4c-.3.1-.5.2-.8.2ZM6.8,15c.3,0,.6,0,.8.2l5,2.5c.1,0,.2,0,.3,0h0s4.9-2.4,4.9-2.4c.1,0,.2-.2.2-.3V2.4c0-.2-.1-.3-.2-.3,0,0-.2-.1-.4,0l-3.9,1.9c-.5.3-1.2.3-1.7,0L6.9,1.5c-.1,0-.2,0-.3,0L1.7,4c-.1,0-.2.2-.2.3v12.5c0,.2.1.3.2.3,0,0,.2.1.4,0l3.9-1.9c.3-.1.6-.2.8-.2ZM12.8,15.6c-.4,0-.8-.3-.8-.8V6.6c0-.4.3-.8.8-.8s.8.3.8.8v8.2c0,.4-.3.8-.8.8ZM6.8,13.4c-.4,0-.8-.3-.8-.8V4.4c0-.4.3-.8.8-.8s.8.3.8.8v8.2c0,.4-.3.8-.8.8Z"/>
    </g>
  </g>
</svg>