<?xml version="1.0" encoding="UTF-8"?>
<svg id="Capa_1" xmlns="http://www.w3.org/2000/svg" version="1.1" xmlns:xlink="http://www.w3.org/1999/xlink" viewBox="0 0 548.9 481.5">
  <!-- Generator: Adobe Illustrator 29.3.1, SVG Export Plug-In . SVG Version: 2.1.0 Build 151)  -->
  <defs>
    <style>
      .st0 {
        mix-blend-mode: multiply;
      }

      .st0, .st1, .st2 {
        isolation: isolate;
      }

      .st0, .st3 {
        fill: #9d2d2c;
      }

      .st2 {
        fill: #f4ebc6;
      }

      .st4 {
        fill: #eac075;
      }
    </style>
  </defs>
  <g class="st1">
    <g id="Capa_2">
      <g>
        <g>
          <path class="st4" d="M431.1,339c0,1.2.6,8.2-1,14.6-1.6,6.5-3,13.2-3.3,14.5s0,3.5.2,4.8c.3,1.1,1.5,9.3.7,15.1-.9,5.7-2.1,15-2.2,16.6,0,1.5-1.3,10.8-1.3,10.8,0,0-14.7,4-32.8,4.9-18,1-39.3-1-53-12.6,0,0,1-11.2,1.3-14.9.3-3.8.5-7.4,0-11-.5-3.6-.3-7,0-7.8,0-.8-.2-4.9-.4-5.3-.2-.4-.4-8.9-.4-11.9s0-12.3.4-14.4.6-8.9.8-10.4c.3-1.3-.7-4.7,0-7.4.7-2.8,1-5.5,1-6.3v-8.4c0-1.4-.6-11.5-.4-14.7.2-3.3.5-7.3.5-7.6s0-10.4.9-14.8,1.6-11,1.6-12,.9-3.7,1-5.1-.5-6.2,0-7.3c.5-1,1-1.3,1-2.7s0-4.3.4-5.8c.5-1.5.9-3.7,1-4.4.3-.7,1.3-4.1,1.5-6.1,0-2,0-5.4.6-6.9.4-1.5,1.5-4.1,2.1-6.1.6-2,1-4.1,1.4-6,.5-1.8,1.3-3.9,2.4-5.7s1.9-3.5,1.9-5,.5-1.7.5-2.9,0-2.8,0-3.5c.2-.8.6-.6.4-2.2-.3-1.5-.4-2.5-.4-2.8s-.3-3.4.5-4.5c.8-1,.8-2.7,1-3.8.2-1-.3-3.2,0-4.2s-.2-3.8-.5-5.5c-.3-1.8-.4-7.3-.3-8.3s.2-1.8.2-3.2,0-4.8.3-5.9,1.3-6.8,1.4-7.9c0-1,.5-4.8.6-6.2.2-1.4,1.1-11.3,1.3-12.6.2-1.2,1-6.1,1.6-7.4.6-1.3,1.6-9.6,1.8-10.4.2-.7,4.5-16.2,4.8-17,.4-.9,1.5-5.3,1.8-6,.4-.7,1.6-5.4,2.4-7.1.9-1.7,8.6-13.3,9-14s5.7-5.1,7.9-5.7c2.3-.6,7.7-1.3,8.6-1.7.3-.2,2.5-1.4,5.4-2.8,5-2.5,12.2-5.4,15.3-3.9,0,0,5.9,6.3,6,12,0,5.7-.5,6.7,0,8.4s-1.8,11.8-1.2,13.3c.6,1.6,1.5,2.9,2.3,3.6.9.9,2.1,4.8,1.5,14.2-.6,9.3-1.6,10.8-1.2,11.7.4.9,1,1.8.8,2.9s-2.9,12.4-2.9,13.6,0,3.2-.4,4.6-2.5,14.6-2.6,14.9-3.8,20.4-3.3,24.9c.6,4.6.5,8.3.9,9.6.4,1.4,1,6.8,1.4,8.6s.2,3.8,0,6.5c0,2.8,1,6.6,1.6,8.9s2.2,6,2.6,8.8c.4,2.9.5,4.9.7,6.3.2,1.3,1.1,1.6.8,4.5-.4,2.9.6,10.3,0,14-.8,3.7-1.5,10.6-1.2,13.8.3,3.1,0,10.4,0,11.6.3,1.1,1,2.6.6,3.9s-.4,5.1-.4,6.2.4,3.4.9,4.5.9,1.1,1,4.8,2.3,12.2,2.5,15.2c.3,3,.9,20.4.8,26.8-.2,6.4-.3,9.6-.4,10.8l.2-.3h0Z"/>
          <path class="st2" d="M390.9,230.7c4.9,33.9,18.8,6.1,6.8,37.2-12,31.1-12,23.7-12,31.1s-2,9.5,0,13.5c2,4.1,2.7,5.4,4.8,10.2,2,4.8,5,1.3,4.8,8.8-.2,7.4.2,4.8,0,12.8-.2,8.1-4.6,11.5,0,22.3s2.9,26.4,0,38.6c-2.9,12-2.2,9.9-4.2,15.2-18,1-39.3-1-53-12.6,0,0,1-11.2,1.3-14.9.3-3.8.5-7.4,0-11-.5-3.6-.3-7,0-7.8,0-.8-.2-4.9-.4-5.3-.2-.4-.4-8.9-.4-11.9s0-12.3.4-14.4.6-8.9.8-10.4c.3-1.3-.7-4.7,0-7.4s1-5.5,1-6.3v-8.4c0-1.4-.6-11.5-.4-14.7.2-3.3.5-7.3.5-7.6s0-10.4.9-14.8,1.6-11,1.6-12,.9-3.7,1-5.1-.5-6.2,0-7.3c.5-1,1-1.3,1-2.7s0-4.3.4-5.8c.5-1.5.9-3.7,1-4.4.3-.7,1.3-4.1,1.5-6.1,0-2,0-5.4.6-6.9.4-1.5,1.5-4.1,2.1-6.1.6-2,1-4.1,1.4-6,.5-1.8,1.3-3.9,2.4-5.7s1.9-3.5,1.9-5,.5-1.7.5-2.9,0-2.8,0-3.5c.2-.8.6-.6.4-2.2-.3-1.5-.4-2.5-.4-2.8s-.3-3.4.5-4.5c.8-1,.8-2.7,1-3.8.2-1-.3-3.2,0-4.2s-.2-3.8-.5-5.5c-.3-1.8-.4-7.3-.3-8.3s.2-1.8.2-3.2,0-4.8.3-5.9,1.3-6.8,1.4-7.9c0-1,.5-4.8.6-6.2.2-1.4,1.1-11.3,1.3-12.6.2-1.2,1-6.1,1.6-7.4.6-1.3,1.6-9.6,1.8-10.4.2-.7,4.5-16.2,4.8-17,.4-.9,1.5-5.3,1.8-6,.4-.7,1.6-5.4,2.4-7.1.9-1.7,8.6-13.3,9-14s5.7-5.1,7.9-5.7c2.3-.6,7.7-1.3,8.6-1.7.3-.2,2.5-1.4,5.4-2.8,0,0-6.5,8.3-7.8,15.9-1.3,7.7,2-3.4,0,12.6-2,16.1,4.8,2.7-.4,20.8-5,18.2-8.5,21.3-3.7,30.2s5.4,8.3,8.1,23.2c2.7,14.9,6.2,22.3,3.8,31.9s1,5.4-3.8,17.6-15.4-9.5-10.4,24.3v-.3h0Z"/>
        </g>
        <g>
          <path class="st4" d="M323.7,264.5c-.2.9-1,3.8-.8,6.6s0,1.5,0,2.4v3.2c0,.5-.3,2.2,0,2.7s1,3,0,5.4c0,0,.7,1,.4,1.9-.3,1-.5,2.6-.4,3.3.2.8.2,2.9-.4,4.8s0,3,0,3.7c.2.7,1,2.5.4,5.2s-1,5-.8,6.3.5,1.8.8,2.8c.2,1,.4,7,.2,9.6-.2,2.6-.6,6.6-.6,6.6,0,0-1,9.1-2.2,13.5-1,4.4-2.6,8.7-2.6,12.7s-.4,14.3-.9,17.2c-.5,2.9-1.4,9.3-1,11.6.6,2.3-.8,8.5-.8,8.5,0,0-4.5,1-9.7.6-.5,0-.9,0-1.4,0-5.4-.5-14.1-1.5-14.6-2.3-.7-.9-2.3-.2-2.3-4.3,0,0-2.8-12.7-3-17.3-.3-4.6-1.1-15.3-1.1-17.4s-.9-10.9-.6-12.8,1.4-6.1,1.7-7.6c.3-1.4.8-7.9,1-9,.3-1.2.3-4.8,1-6.7.8-1.8.9-5.5,1-6.8s-.5-4.1-.5-5.7.8-4.6.5-4.8-.8-3.3-.8-4.8v-4.8c0-.3,0-.7,0-1.3,0-1-.2-1.8-.2-2.6v-6.8c0-.3.3-3.5.4-4,0-.5.6-3.1.8-3.3.2-.2.7-1.3.8-1.6,0-.3.3-1,.7-1.3.4-.3.6-.9.7-1.1,0-.3-.4-2.6,0-3.3s.7-1.1.6-1.6c0-.5-.3-1.7,0-2.5.2-.8.5-2.7.5-3.2s.9-3.4,1.9-4c1.1-.6,2.1-1,2.4-1.3.4-.4.6-.6.7-.9,0-.3,1.9-1.5,2.9-1.7s2.9-.3,3.9,0h.2c1,.4,1.8.9,2.7,1.1,1,.3,3.7.6,4.4.3.8-.2,1.6-1.2,2.8-1.3,1.2,0,2.8-.2,3.5-.2s1.8,0,2.5.4,1.2.4,2.1.9c.9.5.8.9,1,1.8s.6,3.2.9,4.4c.3,1.1.4,2.2.4,2.6s.3.6.2,1.5c0,1-.3,1.2,0,2.3.2,1,.8,2.1.6,2.9h.4,0Z"/>
          <path class="st2" d="M308.1,299.1c-5.4,6.3-10.3,13.7-10,14.5.4.9,6.3,9.8,6.3,9.8,0,0-1.3,4.3,0,6.5s2,4.1,2.7,5.6c.7,1.5,1,.7.9,3.5s-.4,4.3-.5,5.4c-.2,1.2-2.7,22.8-3,27.2-.4,4.4.9,7.6.9,9.6s-.9,11.2-.9,11.2c-5.4-.5-14.1-1.5-14.6-2.3-.7-.9-2.3-.2-2.3-4.3,0,0-2.8-12.7-3-17.3-.3-4.6-1.1-15.3-1.1-17.4s-.9-10.9-.6-12.8,1.4-6.1,1.7-7.6c.3-1.4.8-7.9,1-9,.3-1.2.3-4.8,1-6.7.8-1.8.9-5.5,1-6.8s-.5-4.1-.5-5.7.8-4.6.5-4.8-.8-3.3-.8-4.8v-4.8c0-.3,0-.7,0-1.3,0-1-.2-1.8-.2-2.6v-6.8c0-.3.3-3.5.4-4,0-.5.6-3.1.8-3.3.2-.2.7-1.3.8-1.6,0-.3.3-1,.7-1.3.4-.3.6-.9.7-1.1,0-.3-.4-2.6,0-3.3s.7-1.1.6-1.6c0-.5-.3-1.7,0-2.5.2-.8.5-2.7.5-3.2s.9-3.4,1.9-4c1.1-.6,2.1-1,2.4-1.3.4-.4.6-.6.7-.9,0-.3,1.9-1.5,2.9-1.7s2.9-.3,3.9,0h.2c-.4,1.8-.7,4-.5,6.2.5,5.4,1.1,8.1,2,10.4.6,1.4.9,3.2.9,5.2,0,3,.7-1,0,4.1-.7,5-2.5,3-1.3,6.8s1.8,4.1,2.5,5c.7,1,.5-1.9,1.5,3.7,1,5.6,5.6,3.7.2,10v.4h0Z"/>
        </g>
        <g>
          <path class="st4" d="M482.9,403.4s-2.5,1-4.4,1.5h0c-.6.2-1,.3-1.4.3-1.9,0-3.1.5-5.6,0s-5.5-.7-6.8-1.2c-1.3-.5-3.7-1-3.7-1,0,0,0-10.3,1.2-14.4,1.1-4.1,3.5-9.7,4-10.7s1.9-4.4,2.8-5.4,1.1-2.9,2.6-2.6c0,0,.7-.8,1.5-1.2.6-.4,1.2-.6,1.9-.5,1.1.2,2.1.6,2.8,1.3,1,1,2.2,2.2,2.7,2.8s1.5,2.7,1.7,5.2c.2,2.5.6,7.9.6,11.3s.3,9.1.4,10.1v4.6h0,0Z"/>
          <path class="st2" d="M478.5,405h0c-.6.2-1,.3-1.4.3-1.9,0-3.1.5-5.6,0s-5.5-.7-6.8-1.2c-1.3-.5-3.7-1-3.7-1,0,0,0-10.3,1.2-14.4,1.1-4.1,3.5-9.7,4-10.7s1.9-4.4,2.8-5.4,1.1-2.9,2.6-2.6c0,0,.7-.8,1.5-1.2,0,.7-.2,1.3,0,2.1.3,1.9-.3,2.4.6,3.6s1.4,1.6,1.6,2.9c.3,1.2.9,1.4.3,2.9-.5,1.3-1.6.6-1.2,2.9.4,2.2.7,1.1.6,3,0,1.9-.3,2.9-.3,3,0,.3-.6,3.2-.6,3.9s-.3,2.6.7,3.9,1.5,1.2,1.5,2.9.3,2.5.3,2.5c0,0,.4.5.9,1,.3.4,1,1.4,1.2,2v-.3h0Z"/>
        </g>
        <g>
          <path class="st4" d="M520.2,397.9v3.3s-2.2.2-4.9.3c-3.5,0-7.9,0-9.5-1-2.9-1.6-1-18.2-.9-19.8,0-1.6,0-5.4-.2-6.4s-.9-3.4-.9-3.4c0,0,.2-2.9-.4-4.3-.6-1.3-1-5.3-.8-6.6s.4-2.3.6-3.7c0-1.4.3-1.9.7-3.8s.3-3.8.5-4.7.7-1.7.9-2,.2-1.8.8-2.5,1.1-4.3,2.7-5.5c1.4-1.2,1.7-1.6,2.7-1.3h0c1,.4,2.6,1.1,3.5,2.9,1,1.9,1.1,3.7,1.5,5.7.4,1.9,0,2.3.7,4.7s.7,3.5.9,5.5c0,2,1.1,4.4,1.4,5.6.2,1.3.5,7.9.3,10.3s0,7,0,9,0,5.4.5,7.1c.4,1.7,0,2.5,0,3.9s-.3,2.7,0,3.9c.2,1.1.3,1.2.3,2.6h-.2,0Z"/>
          <path class="st2" d="M515.2,400.1v1.4c-3.5,0-7.9,0-9.5-1-2.9-1.6-1-18.2-.9-19.8,0-1.6,0-5.4-.2-6.4s-.9-3.4-.9-3.4c0,0,.2-2.9-.4-4.3-.6-1.3-1-5.3-.8-6.6s.4-2.3.6-3.7c0-1.4.3-1.9.7-3.8s.3-3.8.5-4.7.7-1.7.9-2,.2-1.8.8-2.5,1.1-4.3,2.7-5.5c1.4-1.2,1.7-1.6,2.7-1.3-.2,1.7-.4,4.4-.7,5.6-.5,1.9-.7,0-.7,3.1s-.3,2.7,0,4.4,0,.9.7,2.8c.7,2,1.1,2.4,1.2,4.1,0,1.7-.4,2.2,0,3.6s.4,1.8.4,3.4v3.4c0,1.8.5.3,0,2.7s-1.4,7,.6,9.2c2,2.3,2.1,1.9,2.2,3.5,0,1.6.6,1.4,0,3.1s-1.3-.6-.7,3.3c.7,3.8,1,3.8,1,5.1v6h0Z"/>
        </g>
      </g>
      <path class="st4" d="M215.7,204.1l.3-.3c2.4,1.6,1.6,2.9,1.6,2.9-.5,1.8-2.6.9-2.6.9,1.3.4.8,1.5.8,1.5-2.3,3.4-5.3,1.8-5.3,1.8-3.4-.9-5.7-.5-10.1.9s-5.4,4.5-7,7.7.5,8.7,1.8,14.3c1.1,5.7-1.1,11.6-3.6,16.5s-10.2,15.6-10.2,15.6c0,0-8.4,7.5-11.7,15.1-3.3,7.7-9.8,9.7-15.3,12.7-5.4,2.9-8.9,3.1-9.9,3.5-.9.5-1.4,3-1.6,4.4-.3,1.4-1.5,7.9-1.5,8.5s-.6,2.4-1.1,4.4c-.5,2.1-1.4,14.6-1.4,14.6l-2.1,11.7s.1.9.4,1.6-.1,2.6-.6,3.3,0,2,.5,3.1,1,3.3.9,3.8,1.3,3.6,1.4,4.4.4.8,1.3.9c.9.1,2.9,2.6,2.9,2.6-2.8.9-4.1,0-4.1,0,.4.9-.9.6-.9.6-5.8-.4-7.4-1.8-7.4-1.8-2.3.4-3.1-1.3-3.3-1.5s-1.6-11.8-1.6-11.8c0,0-.1-9.4-2.3-11.4-2.1-2-2.9-10.2-2.9-11.2s-3.8-20.5-3.8-20.5c-.4,1.1-4.5,8.3-11.2,8.9-6.8.6-11.6-5.3-13.3-6.3-1.8-1-2.5-1.4-2.9-5.2s-1.1-5.9-1.1-5.9c0,0-1.4.3-1.6.8s-2.5,2.5-2.6,2.6-.1,1,.1,1.6.3,3.3.3,3.3c0,0-3.1,2.9-3.9,4-.6,1.1,0,2.1,0,4s-.9,4.7-1.3,6.9-1.3,3.6-2.9,6.9-4.8,6.3-4.8,6.3c2.8,12.1,7.3,22,7.3,22,5.8,3.3,3.9,5.5,3.9,5.5-2.4.6-6,0-6,0l-4.7-6c-1.8-4.3-6-13.7-7.3-15.5s-4.3-7.7-5.7-10.1c-1.5-2.4-3.3-6.9-3.3-6.9-.4,4-2.1,8-2.1,8l1.8,25.5,4,1.4-1.6,4-6-1.4-3.6-8.4s-4-18-5.7-24.4-.9-16.5.6-19,.6-3.3,1.1-7.5.5-17.5-.4-21.8c-.9-4.3-4.4-13.2-4.4-13.2-3.1-10.7-3-15.2-3-15.2.4-6.4,6-15.2,11.1-18.4,5-3.1,11.7-2,14.1-1s3.3.3,7.2-.1,7.4.1,12.3.4c4.9.4,19.9,2.6,22.1,3s9.1.5,11.6-.3,3.9.4,3.9.4c5.9,2.5,16.6,3.3,16.6,3.3,6.5-1.1,9.8,2.1,17.2,3,7.4.9,9.3-4.8,10.4-6.8s8.9-23.9,8.9-23.9c0,0,1.5-8.3,7.7-14.1,6.2-5.7,12.1-9.2,16.2-11.9s4.1-1.8,4.1-1.8c-.4,6.5-5.5,10.7-5.5,10.7,0,0,7.8.6,8.3.9s.5.6,1.1,1.1,0,1.3,0,1.3c-.8.8,0,2.1,0,2.1,0,0,8.7,3.3,9.3,3.5s1.5,1.1,1.5,1.1c2.9.5,1.1,3.4,1.1,3.4h-.1Z"/>
      <g>
        <g>
          <path class="st3" d="M245.5,323.8c-1.7-1.4-1.7-6-1.7-6,.4-8.9-4.8-11.2-4.8-11.2-3.4-1.9-7.6-.7-7.6-.7,0-1.3-1.4-1.4-1.4-1.4-.6.3-1.4.3-1.4.3-.8-.3-2.4-.3-2.4-.3-22.5-2-36.2.6-36.2.6-.7,0-1.2.4-1.6.7h0c-.6.5-.9,1-.9,1,0,0-4.7-1.1-8.6,1.1-3.9,2.3-4.5,7.1-4.2,10.6.3,3.3-1,7.5-1,7.5-3.1,3.6-3.5,8.4-3,13.2s3.2,10,6.1,14.9c2.9,5,10.9,14.4,13,15.9,2.1,1.4,5.2,5.1,5.2,5.1,2.4,1.7,6.2,2.5,10,2.7,4.8.3,9.8-.2,12.6-.7,5.1-.8,6.7-2.4,6.7-2.4,16.3-11.5,24.2-35.4,24.2-35.4,2.8-8.4-3.1-15.5-3.1-15.5h0ZM181.2,312.4s1.8-2.6,6.5-.9c0,0,2.2.7,1.8,2.5-.4,1.8-2.7,2.9-2.7,2.9l-5.3,2.4s-2.8-3.7-.3-6.8h0ZM237.4,318.5c-.7-.3-3.2-1.6-6.5-2.2,0,0-1.6-.3-2.1-2.7,0,0-.3-1.4.9-1.8s4.6-1.4,6.7-.6c0,0,2,.9,2.2,2.9l.3,3.4s-.9,1.2-1.5,1h0Z"/>
          <path class="st0" d="M183.9,328.1c2-8,13.3-8.4,13.3-8.4,0,0,0-2.1.6-5.9.6-3.9-2.4-5.8-2.4-5.8-8.1-.5-7.1-2.5-7.1-2.5h0c-.6.5-.9,1-.9,1,0,0-4.7-1.1-8.6,1.1-3.9,2.3-4.5,7.1-4.2,10.6.3,3.3-1,7.5-1,7.5-3.1,3.6-3.5,8.4-3,13.2s3.2,10,6.1,14.9c2.9,5,10.9,14.4,13,15.9,2.1,1.4,5.2,5.1,5.2,5.1,2.4,1.7,6.2,2.5,10,2.7-19.2-36.5-23.2-41.5-21.1-49.4h0ZM181.2,312.4s1.8-2.6,6.5-.9c0,0,2.2.7,1.8,2.5-.4,1.8-2.7,2.9-2.7,2.9l-5.3,2.4s-2.8-3.7-.3-6.8h0Z"/>
        </g>
        <ellipse class="st0" cx="209" cy="306.3" rx="17.6" ry="1.1"/>
      </g>
    </g>
  </g>
</svg>