<?xml version="1.0" encoding="UTF-8"?>
<svg xmlns="http://www.w3.org/2000/svg" version="1.1" viewBox="0 0 334.5 390.2">
  <defs>
    <style>
      .cls-1 {
        fill: #fff;
      }
    </style>
  </defs>
  <!-- Generator: Adobe Illustrator 28.6.0, SVG Export Plug-In . SVG Version: 1.2.0 Build 709)  -->
  <g>
    <g id="Capa_1">
      <path class="cls-1" d="M198.9,73.2c19.9,0,36.2-16.3,36.2-36.2S218.9.8,198.9.8s-36.2,16.3-36.2,36.2,16.3,36.2,36.2,36.2ZM271.4,168.9c-22.3-6.7-40.2-21.2-50.7-39.5l-18.1-29c-7.4-11.8-20.1-18.1-33.3-18.1s-28.8,9.1-32.3,26.1c-3.4,17-55.8,281.9-55.8,281.9h38.1l32.6-145,38.1,36.2v108.7h36.2v-135.9l-38.1-36.2,10.9-54.4c18.1,20.8,43.7,36.4,72.5,42.4v184.1h27.2v-253.7h-27.2v32.3ZM89,211.5l-38.4-7.4c-9.8-1.9-16.2-11.4-14.3-21.2l13.8-71.2c3.8-19.6,22.8-32.4,42.4-28.6l21,4.2-24.5,124.3Z"/>
    </g>
  </g>
</svg>