<?xml version="1.0" encoding="UTF-8"?>
<svg id="Capa_2" xmlns="http://www.w3.org/2000/svg" version="1.1" viewBox="0 0 590 444.5">
  <!-- Generator: Adobe Illustrator 29.3.1, SVG Export Plug-In . SVG Version: 2.1.0 Build 151)  -->
  <defs>
    <style>
      .st0 {
        fill: #206c60;
      }

      .st1 {
        fill: #fff4ee;
      }

      .st2 {
        fill: #bcb123;
      }

      .st3 {
        fill: #82bf73;
      }

      .st4 {
        fill: #053238;
      }

      .st5 {
        fill: #dbce22;
      }

      .st6 {
        fill: #e42520;
      }
    </style>
  </defs>
  <path class="st3" d="M554.7,226.7v-28.4c1.1-4.5,1.5-6.4,1.1-10,0-1.5-.6-2.8-1.3-5.2-.5-2-.8-4-1.1-6-.4-2.5-2.1-3.5-4.5-3.9-.2,0-.5,0-.7-.1v-.9c.7-1.4.5-4.1-.3-6.5-.4-1.3-1.7-1.8-3.1-1.8s-2.9.7-3,2.2c0,2.1-.2,4.2-.3,6.3,0,.9-.4,1.2-1.3,1.1-2.3-.2-4.7-.4-6.2,1.8,0,0-.3,0-.5.2.2-2.6.8-6,1.1-6.2.1,0,.7-.3.8-.7.1-.5,0-1.3,0-1.7v-2.5c0-.1-.1-.3-.3-.3,0,0,0,.1-.1,0v-.2c-.2-.2-.5-.2-.5,0,0,.8-.2,1.4-.2,2.1-.6,0-1.4,0-1.6.4-.3.4-.6,1.7-.2,2.6.1.3-.8,3.9-1.4,6.1-.7,2.3-.4,4.5-.2,6.8.1,1.5,1.4,1.9,2.6.9.3-.2.3-.5.5-.8.2.1.4.4.6.5,0,1.2-.2,4.1-.2,5.3s-.2,1.8-.1,2.7c.1,2.1.6,4.2.5,6.3-.3,4.3-.4,24.6-.7,29.8h-3.2v10h27v-10h-3.2,0Z"/>
  <g>
    <path class="st4" d="M87.7,318.5c-2,2.1-4,4.1-6,6.1-.3,6.5-5.6,11.9-11.6,12-2.2,2.3-4.2,4.8-5.8,7.5-.3.7-.8,1.6-.3,2.3.7,1.1,1.7.7,2.6.4,2-.6,3.9-1.3,5.9-2,1,0,1.9,0,2.9-.3,1.6-.4,3.5-2.9,4.7-1,1.3,1.9-1.3,3.5-2.5,5.2-.3.3-.5.6-.9.9-5.8,5.4-9,12.7-14.2,18.6-.6.7-1.7,2-.5,2.9,1.2,1,2.3,0,3.2-1,1.3-1.4,2.5-2.9,3.8-4.3,6.7-7,15.4-12,20.5-20.7.9-1.5,2.5-1.7,4.1-1.6,4.6.3,9-.9,13.4-1.9,9.6-2.3,19.3-4.7,28.9-7.3,17.5-4.8,34.6-10.7,51.8-16.2,4.2-1.4,8-3.2,11.4-6.5,3.4-3.4,7.9-4.8,12.6-5.4.3-.2.7-.4,1-.6,1.1-1.3,2.5-1.8,4.1-1.6,0,0,.3-.2.3-.3-.2-1,.4-1.3,1.3-1.5,2.1-2.8,5-4.5,7.7-6.6,9.2-7.2,20-12.1,27.3-21.6.7-1,1.9-1.6,3.2-1.6.3-.3.4-.5.7-.8,0-2.9,1.6-4.6,4.1-5.9,2.4-1.2,4.7-2.8,6.2-5-1-1.3,1.4-3-.6-4.4-.4-.3.9-.5,1.5-.7-.8-2.4,0-3.9,2.6-4-.5-1.5-1.7-1.4-2.4-2-1.8-1.6-3-3.2.6-4.4,2.2-.8,4.8-1.5,6.5-3.4-.2-1-.3-2.1.9-2.7.2-.5.3-1,.4-1.5-1.3-.5-2.5-1.3-3.9-1.4-3.8-.3-3.7-1.7-1.2-4.3-3.6,1.3-7.3.3-10.9,1.5,4.9-.3,6.8,3.5,9.8,6-1,1.3-2.3,1.6-3.5,1.2-2.2-.7-3.8.3-5.4,1.4-2.5,1.6-4.8,2-8,1.5-2.5-.4-5.3,1-6.9-2.2,0,0-.8,0-1.1.3-1.8,1-3.2.2-4.5-1-1.1-1-2.1-.8-3.4-.3-6.9,2.7-14.2,4.7-20.8,7.9-4.4,2.2-9.1,2.3-13.6,3.8-.5.2-4.5,2.3-2.6-2.1.7-1.6-1.1-1.3-2.2-1.5-2.4-.5-4.3,2-6.8.9-2.2-1-3.9,0-5.5,1.6-1,.9-1.7,3.2-3.5,1.6-1.5-1.4-1.1-3.2.3-4.8,2-2.3,2.2-5.1,2.2-9-3.4,3.1-6.1,5.6-7.6,9.3-.5,1.3-1.3,2.7-2.8,2.8-2.3.2-.5-2.3-1.9-3.1-3.5.8-4.1,8.3-9.6,4.4,0,.4-.2.9-.3,1.2-.4.9-.9,1.8-2.2,1.6-.2,0-.4-.3-.4-.6,0-1.2.8-1.6,1.7-2,.3,0,.8,0,1.2,0-.7-2.2,2.2-3.6,1.2-6.4-4.6,7.7-13.5,8.5-19.9,13.1-.7.5-1.5,1-2.2.3-.8-.9,0-1.6.6-2.1.4-.5,1.1-.9,1.6-1.3.9-.9,3.2-1,2.3-2.8-.8-1.6-2.7-.9-4.1-.7-1.3.2-2.1,1.3-3.1,1.9-2.6,1.5-4.5,4.6-8.1,3.9-.2,0-.3.2-.3.3,1.2,3,.2,5.3-2.4,7.1-3.5,2.5-6.7,5.2-8.7,9.2-.7,1.5-2,2.3-3.6,2.3-2.3,0-3.4,1.6-4.1,3.5-.5,1.3-.5,2.9-1.8,3.6-5.8,3.2-8.2,9.1-11.8,14.1-1.6,2.2-3.8,4.1-3.6,7.2.3,1,.4,2,.7,3,4.6,3.9,4.5,5.5-.6,7.9-2.5,1.2-5.2,1.6-7.9,1.8h0Z"/>
    <path class="st2" d="M216.8,304c0,0,.3-.2.3-.3,1,0,1.3-.5,1.3-1.5,2.1-2.8,5-4.5,7.7-6.6,9.2-7.2,20-12.1,27.3-21.6.7-1,1.9-1.6,3.2-1.6-1.3,2.1-3.2,3.7-2.2,6.8,2,6.7-4.2,7.9-7.8,10.9-.4.3-1,.3-1.6.6-2.6,1.5-5.1,3.5-5,6.6,0,2.9,3.2,2.8,5.4,3.5,2.5.7,4.8,2.2,4.8,5,0,2.7,1.4,3.3,3.7,3.1.7,0,1.4,0,2.1.3,1.5.4,3,.9,3.5,2.5.5,1.8-.8,2.8-2,3.7-.9.6-2.2,1.1-1.7,2.5.4,1.3,1.9.9,2.9.9,3.9,0,7.7,0,11.6-.7,2.1-.3,4.9-.6,3.5,3.4-.7,1.9.5,2.2,2,1.7,7.2-2,14.3-3.9,19.6-9.8,2.1-2.3,5.2-2.6,7.9-3.4,6-1.7,11.2-5.8,18.1-5.1,3.4.3,3.5,1.2,2.2,3.7-1.8,3.9-4.6,6-9,7-3.8.9-7.6,2.7-10.1,6.2-2,2.7-5.4,4.3-5.2,8.5,0,2.2.3,3.2,2.8,2.3,4.7-1.6,8.4-4.3,11.8-8,4-4.2,8.9-8.5,15.3-9.1,3.3-.3,5.4-1.6,6.9-4.4.3-.6.7-1.2,1.1-1.7,4.1-4.3,4.1-4.4,7.3.9,1,1.8,2.2,1.8,3.7.9,1.8-1.1,2.9-2.9,4.2-4.5,1-1.1,1.9-2.5,3.1-3.3,1.4-1,3-2.7,4.8-1,1.6,1.5,0,3.1-.6,4.5-1,2-2.2,3.8-1.7,6.2-.8.8-1.4,1.6-2.2,2.4-11.3,10.5-22.3,21.3-32.8,32.5-4.7,5-10,9.1-16.7,11.1-3.8,1.1-7,2.9-10.3,5.1-6.3,4.1-12,9.4-20.3,9.2-2.7-1.9-5-4.3-8.6-1.2-1.3,1.1-3.8.7-3.6-2,.2-2.9-1.6-3.2-3.6-3.2s-4.9.5-7.2,1.8c-2.9,1.6-5,1.4-6.1-2-.9-2.6-2.8-3.5-5.3-3.9-3.2-.4-6.7,0-8.7-3.5-.2-.3-1-.7-1.5-.5-4.2,1.5-7.7-.3-11.3-2.2-2.3-1.2-4.9,0-7.2.9-5.3,2.3-7.9,1.8-11.6-2.7-2.6-3.2-5.4-3.9-9-1.7-5.6,3.3-10.8,7.1-15.8,11.2-2.9,2.5-6.2,2.9-9.3.4-2.2-1.6-3.3-.2-4.5,1-2.6,2.6-4.6,5.9-8.6,6.7-1.6,0-3.1,0-4.8.2-.5-2.7,1.6-4.2,2.6-6.3,1.6-3.3-1.9-11-5.4-11.6-2.1-.4-2.5,1-1.8,2.5,1.8,4.1-.7,5.1-3.9,5.8-2.6.6-5.2.3-7.9.4-2.2,0-4.4-.5-5.9,2-.9,1.5-2.2.2-3.3,0-3.7-.9-7.6-3.3-10.3,2.1-.9,1.6-2.8.4-4.1,0-3.7-1.1-7.7-3.1-9,3,0,.4-.8,1-1.2,1-5.3.4-7,5.5-10.6,8-.5.3-.9,1.5-.9,2.2,0,3.2-1.9,5.2-4.1,6.7-5,3.3-7.6,8-9.2,13.6-.7,2.4.5,3,2.6,2.8,1.4-.2,2.7-1.9,4.1-.2-4.8,6.7-9.2,13.8-14.9,20-9.2,1-18.4,2.5-26.6,7.6-.7.4-1.5.9-2.2,1-2,.6-4.8,1.9-5.7,0-1.1-1.9,2.3-2,3.3-3.4,3.9-5.3,10.5-7.4,14.4-12.6,2.9-3.8,5.5-7.8,7.2-12.4,1.1-3.1,3.4-5.4,6-7.1,2.8-1.8,4.5-4.1,5.5-7.4,1.9-6.2,7-10.5,10.3-15.9.8-1.3,1.8-2.3,2-4,.5-6,4.1-9.7,9.5-11.8,1-.4,1.8-1.1,2.8-1.7,2.9-2,5.6-4.1,9.2-1,1.6,1.5,3.2.4,4.8-.6,3-1.9,6.2-4.1,9.6-.3,1,1.1,2.2.5,3.4-.2,3.4-2.1,6.7-3.5,10.9-1.6,2.9,1.2,5.7-.3,7.3-3.2.7-1.3,1-2.9,1.5-4.3,1.3-4.8,4-8.2,8.9-9.9,10.5-3.6,20.7-8.4,31.5-11.1,8.1-2,15.6-5.3,23.2-8.2.8-.3,1.4-.7,2.2-1.1-.9-1.8-2.9.2-3.7-1.6,1.4-2.7,4.3-3.4,6.8-4.7,1.4-.7,3.4-.7,3.9-2.7.3-.2.7-.4,1-.6,1.8.6,3.3.3,4.1-1.6v-.3h0ZM235,337.1c2.9-.7,6.1-1.6,7.4,2.6.4,1.3,1.6,1.9,2.9,2.1,1.7.3,4.1-.2,5.3.5,5.9,3.4,11.4,0,17-.4,4.7-.3,6-2.9,3.5-7-3.2-5.2-5.2-6-11-4.6-3.1.8-6,.3-8.9-.9-1.8-.8-3.1-.8-4.7,1-2.3,2.8-6,2-7.6-1.3-.3-.8-.8-1.5-1-2.2-1.1-5.4-5.1-3.3-8.2-3-3.2.3-4.1,2.9-4.5,5.2,0,7.3,3.2,9.8,9.8,8.1h0ZM236.3,315.1c.2-2.9-1.7-4.8-5.1-4.8s-6.7,2.1-6.7,5.2.8,3.1,5.9,3c2.3-.2,5.8.4,6-3.5Z"/>
    <path class="st5" d="M256.6,272.3c-1.3,2.1-3.2,3.7-2.2,6.8,2,6.7-4.2,7.9-7.8,10.9-.4.3-1,.3-1.6.6-2.6,1.5-5.1,3.5-5,6.6,0,2.9,3.2,2.8,5.4,3.5,2.5.7,4.8,2.2,4.8,5,0,2.7,1.4,3.3,3.7,3.1.7,0,1.4,0,2.1.3,1.5.4,3,.9,3.5,2.5.5,1.8-.8,2.8-2,3.7-.9.6-2.2,1.1-1.7,2.5.4,1.3,1.9.9,2.9.9,3.9,0,7.7,0,11.6-.7,2.1-.3,4.9-.6,3.5,3.4-.7,1.9.5,2.2,2,1.7,7.2-2,14.3-3.9,19.6-9.8,2.1-2.3,5.2-2.6,7.9-3.4,6-1.7,11.2-5.8,18.1-5.1,3.4.3,3.5,1.2,2.2,3.7-1.8,3.9-4.6,6-9,7-3.8.9-7.6,2.7-10.1,6.2-2,2.7-5.4,4.3-5.2,8.5,0,2.2.3,3.2,2.8,2.3,4.7-1.6,8.4-4.3,11.8-8,4-4.2,8.9-8.5,15.3-9.1,3.3-.3,5.4-1.6,6.9-4.4.3-.6.7-1.2,1.1-1.7,4.1-4.3,4.1-4.4,7.3.9,1,1.8,2.2,1.8,3.7.9,1.8-1.1,2.9-2.9,4.2-4.5,1-1.1,1.9-2.5,3.1-3.3,1.4-1,3-2.7,4.8-1,1.6,1.5,0,3.1-.6,4.5-1,2-2.2,3.8-1.7,6.2,20.8-16.9,28.9-39.2,27.9-65.5-1.6,2.5-1.5,5.3-1.5,8s-.9,3.6-3.1,3.4c-3.2-.3-4.9,1-5.4,4.2-.3,1.7-1.6,2.4-3.4,2.4s-2.6-.5-3-2.2-.3-4.3-2.5-4.1c-2.4.3-5.4.8-6.3,3.8-.6,2-2.1,2.9-3.7,3.5-1.3.6-2.8,1-3.5-.8-.6-1.4-.3-2.8,1.2-3.5,2.4-1.1,2.2-3,2-5.2-.2-2.8-2.3-4.2-3.5-6.3-1.6-3.3-2.6-2.2-3.5.3-.9,2.4-2,2.6-3.8.9-1.7-1.6-3.8-3-6.2-2.8-8.7.9-16.6-2.4-24.6-4.8-1.9-.6-3.5-.6-1.9-3.3,1.1-1.8-.9-1.9-2.1-1.9h-9.5c-1.6,0-3.8.8-4.4-1.2-.5-2.1,1.5-3.4,2.9-4.7.9-.8,2.1-.8,3.2-.7l.2-.2v.2c3.3,4.1,7,4.3,11.1.8,0,0,.2-.2.3-.3,2.3-1.5,4.3-2.8,7.8-2.3,4.3.6,8.7,1.9,13.4.2,3.9-1.5,6.7-7.8,4.2-10.8-1.2.7-2.2,1.6-2.2,3.3,0,1.1-.5,1.9-1.6,2-2.1.2-3.6,1-5,2.5-.7.8-1.7.9-2.7.3-5.8-3.3-10.9-2.2-15.8,2.1-.5.4-3.1,5.5-4.3,0-2.3,1.6-2.8-2.6-5.2-1.5-4.9,2.2-10.2,2-15.4,1.6-1.9.9-3.7,2.1-5.6,0-2.5,1.8-3.4,3.5.9,4.8-2,1.3-3.6,2.7-6,2.3-.2.5-.3,1-.4,1.5,1,.7,3.1.9,1.2,2.8.6.7,1.2,1.3,1.8,1.9-1.6.6-4.2-.9-4.8,1.1-.6,2.6,2.9,3,4.1,5-3.8,1.8-6.2,5.4-10.5,5.6-.5.2-1.9.4-1.5.7,2,1.4-.3,3.1.6,4.4,2.7.6,3.6,1.9,1.5,4.1-1.7,1.9-3.5,3.8-5.3,5.7-1.9,2-4.1,2.5-6.6,1-.3.3-.4.5-.7.8h-.2,0Z"/>
    <path class="st4" d="M430.8,177.9c8.9-4.8,18.9-6,28.6-8.2,10.1-2.2,19.8-5.5,29.3-9.7,1.8-.8,3.5-1.5,5.5-1.4-2.4-2.9-5.5-1.7-8.5-1.3-9,1.2-17.6,4.1-26.8,4.9-12.6,1-25.2,2.7-37.2,7.1-1.7.6-3.5,1.4-6,.3,4.5-2.8,9.6-2.6,13.8-5.1-1-1-2.1-1.6-1.8-3.4.5-4-.4-4.6-4.7-3.9-1.2.2-2.5.3-3.6-.3-.6.2-1.2.3-1.8.4-.3,2.1-1.6,2.9-3.5,2.1-1.5-.6-2.3,0-2.1,1.4.9,4.1-1.8,2.7-3.3,2-3.7-1.7-7.5-3.1-11.5-4.1-.9-.2-1.5-.8-1.6-1.6-1,0-2,0-2.9.2-4.6.3-9.2,1-13.7-.6h-3.7c-.7.8-1.6.5-2.4.3-.9.3-1.7.4-2.6.7-.9,1.7-2.6,1-4,1.4-3,1.8-4.6,6-9,5.6-.3.9-1,1.1-1.7,1.3h0c0-.8.2-1.5.3-2.2-2,0-4,0-5.9,0-.6.7-1.1.6-1.5-.3h-2.3c-.4,1.6-1.3,3.1-3.1,3.5-5.8,1.2-10.8,4.6-16.6,6.2-3.9,1.1-8,3.4-11.6,6.3-2.9,2.3-5.9,5.4-10.4,4.8-.7,0-1.4.2-2,.3-2.5,3.1-7.1,3.1-9.6,6-4.1,4.8-9.2,7-15.3,7.7l-.2.2.2-.2c-.9-.6-2.2-1-2.6-1.9-1-2.2-2.1-3-4.3-1.7-.9.5-1.5-.4-2.2-.8-1.3-.5-2.5,0-3.5.8-2.9,2.5-4.1,14.6-.9,16.2,4.9,2.4,8.6,6.8,14.2,8.3,3.1.9,6.8,1.1,8.9,3.8,2.9,3.8,6.6,4.1,10.7,3.3,1.5-.3,3.1-1.3,4.4-.9,4.6,1.4,8.6,0,12.6-1.7s7.8-2.2,11.9-.5c3.7,1.6,6,0,6.6-4.1.3-2.6,1.3-5.1,4.1-5.7,2.2-.5,4.1-1.7,6.1-2.3,3.9-1.2,7.6-3.5,11.9-2.6.9-.5,1.8-1,2.7-1.5,3.2-3.3,6.7-6,11.3-6.8,2.9-.5,7.1-.9,8.3-2.8,2.3-3.5,5.5-3.5,8.6-4.4.6-.5,1-1.5,1.9-1.4,4.1.3,6.7-2.6,9.9-4.5,1.2-3.4,2.8-5.9,7-3.5,1,.6,2.4,0,3.5-.4,7.3-2.1,14.7-4,22.1-5.4l-.3-.2h0Z"/>
    <path class="st0" d="M277.4,198.5c-.9-.6-2.2-1-2.6-1.9-1-2.2-2.1-3-4.3-1.7-.9.5-1.5-.4-2.2-.8-1.3-.5-2.5,0-3.5.8-2.9,2.5-4.1,14.6-.9,16.2,4.9,2.4,8.6,6.8,14.2,8.3,3.1.9,6.8,1.1,8.9,3.8,2.9,3.8,6.6,4.1,10.7,3.3,1.5-.3,3.1-1.3,4.4-.9,4.6,1.4,8.6,0,12.6-1.7s7.8-2.2,11.9-.5c3.7,1.6,6,0,6.6-4.1.3-2.6,1.3-5.1,4.1-5.7,2.2-.5,4.1-1.7,6.1-2.3,3.9-1.2,7.6-3.5,11.9-2.6-1.8,1.1-3.7,2.2-5.5,3.3-2.9-1.4-4.9-.5-6,2.5-1.2,1.9-2.5,3.7-3.7,5.6-1.2.7-2.2,1.6-2.2,3.3,0,1.1-.5,1.9-1.6,2-2.1.2-3.6,1-5,2.5-.7.8-1.7.9-2.7.3-5.8-3.3-10.9-2.2-15.8,2.1-.5.4-3.1,5.5-4.3,0-2.3,1.6-2.8-2.6-5.2-1.5-4.9,2.2-10.2,2-15.4,1.6-1.9-2.2-3.7-.9-5.6,0-2.5,1.8-3.4,3.5.9,4.8-2,1.3-3.6,2.7-6,2.3-1.3-.5-2.5-1.3-3.9-1.4-3.8-.3-3.7-1.7-1.2-4.3-3.6,1.3-7.3.3-10.9,1.5,4.9-.3,6.8,3.5,9.8,6-1,1.3-2.3,1.6-3.5,1.2-2.2-.7-3.8.3-5.4,1.4-2.5,1.6-4.8,2-8,1.5-2.5-.4-5.3,1-6.9-2.2,0,0-.8,0-1.1.3-1.8,1-3.2.2-4.5-1-1.1-1-2.1-.8-3.4-.3-6.9,2.7-14.2,4.7-20.8,7.9-4.4,2.2-9.1,2.3-13.6,3.8-.5.2-4.5,2.3-2.6-2.1.7-1.6-1.1-1.3-2.2-1.5-2.4-.5-4.3,2-6.8.9-2.2-1-3.9,0-5.5,1.6-1,.9-1.7,3.2-3.5,1.6-1.5-1.4-1.1-3.2.3-4.8,2-2.3,2.2-5.1,2.2-9-3.4,3.1-6.1,5.6-7.6,9.3-.5,1.3-1.3,2.7-2.8,2.8-2.3.2-.5-2.3-1.9-3.1-3.5.8-4.1,8.3-9.6,4.4h0c-.7-2.2,2.2-3.6,1.2-6.4-4.6,7.7-13.5,8.5-19.9,13.1-.7.5-1.5,1-2.2.3-.8-.9,0-1.6.6-2.1.4-.5,1.1-.9,1.6-1.3.9-.9,3.2-1,2.3-2.8-.8-1.6-2.7-.9-4.1-.7-1.3.2-2.1,1.3-3.1,1.9-2.6,1.5-4.5,4.6-8.1,3.9,1-.9,2.1-1.7,3.1-2.7,24.7-23.6,53.1-41.3,84.6-54.4,7.7-3.2,15.8-5.4,23.8-7.9,8.7-2.6,17.9-2.8,26.6-5.6-1.1,4.5-1.2,4.6,3.9,4.8,2.4,0,3.2,3.2,6.4,2.7,2.9-.5,5.8-1.2,7.7-3.2,4-4.1,9-6,14.3-7.1-2.5,3.1-7.1,3.1-9.6,6-4.1,4.8-9.2,7-15.3,7.7h-.3ZM230.3,226.5c5.3-1,10.9.6,14.8-4.4-.4-.9-2.9.4-2.3-1.7.6-2.5,2.9-2,4.9-1.8-.3-2.3-1.8-3.3-3.5-3.8-3.2-.9-6.9-.3-8.5-4.6-.3-1-2-.6-2.5,1.2-1.1,4-2.9,4.3-6.7,2.9-4.3-1.8-8.9-2.1-13.6,0-4.1,1.7-8.7,2.5-12.6,4.9-2.4,1.6,0,4.4-1.6,6.2,1,.7,2.1.4,2.7-.3,4-4.9,10-3.5,15-5.1,3.2-1,4.5,1,3.5,4.6-.3,1-1,1.9-1.5,2.9-.3.6-.7,1.3,0,1.9.5.4,1.1.3,1.5-.2,1.3-1.6,2.9-1.4,4.5-1,1.1.3,1.6-.3,1.4-1.6-.4-5.9,4-8.7,11.1-6.2-4,1-5.7,2.9-6.7,6.4h0ZM269.8,229.1c.9-.7.7-1.7.3-2.6-.9-2.1-2.5-2.5-4.9-2,2.9,1.1,3.9,2.4.8,4.1,1.3,1.1,2.5,1.6,3.8.5h0Z"/>
    <path class="st0" d="M63.4,427.5c-6.1,7.8-15,10.9-23.9,13.8-9.7,3.2-18.8,7-25.6,14.9-2,2.3-4.7,2.4-7,.3-2.9-2.5-5.6-5.3-8.4-7.9-.3-2.6-1.2-5,1.1-7.6,1.8-2.1-1.4-2.3-2.6-3.3.6-2.9,2.2-5.4,4-7.7,3.4-4.3,6.8-8.5,10.3-12.7,10.6-13.2,21.2-26.4,32.4-39.1,9.8-11.1,19.3-22.4,28.9-33.5,1,0,1.9,0,2.9-.3,1.6-.4,3.5-2.9,4.7-1,1.3,1.9-1.3,3.5-2.5,5.2-.3.3-.5.6-.9.9-5.8,5.4-9,12.7-14.2,18.6-.6.7-1.7,2-.5,2.9,1.2,1,2.3,0,3.2-1,1.3-1.4,2.5-2.9,3.8-4.3,6.7-7,15.4-12,20.5-20.7.9-1.5,2.5-1.7,4.1-1.6,4.6.3,9-.9,13.4-1.9,9.6-2.3,19.3-4.7,28.9-7.3,17.5-4.8,34.6-10.7,51.8-16.2,4.2-1.4,8-3.2,11.4-6.5,3.4-3.4,7.9-4.8,12.6-5.4-.5,2-2.4,2-3.9,2.7-2.5,1.3-5.4,2-6.8,4.7.9,1.8,2.9-.2,3.7,1.6-.8.4-1.5.9-2.2,1.1-7.7,2.9-15.1,6.2-23.2,8.2-10.7,2.6-21,7.4-31.5,11.1-4.9,1.7-7.7,5.1-8.9,9.9-.3,1.5-.8,2.9-1.5,4.3-1.6,2.9-4.3,4.4-7.3,3.2-4.2-1.8-7.5-.4-10.9,1.6-1.1.7-2.2,1.4-3.4.2-3.4-3.7-6.6-1.6-9.6.3-1.6,1-3.3,2-4.8.6-3.5-3.1-6.3-1-9.2,1-.9.6-1.6,1.3-2.8,1.7-5.4,2.1-9,5.7-9.5,11.8-.2,1.6-1.2,2.7-2,4-3.2,5.4-8.4,9.7-10.3,15.9-1,3.3-2.8,5.6-5.5,7.4-2.7,1.8-5,4-6,7.1-1.6,4.6-4.2,8.6-7.2,12.4-4,5.2-10.5,7.3-14.4,12.6-1,1.3-4.4,1.4-3.3,3.4,1,1.8,3.8.5,5.7,0,.8-.3,1.6-.6,2.2-1,8.1-5.1,17.3-6.6,26.6-7.6-.9,1.1-1.6,2.2-2.5,3.3h0ZM73.5,364.1c-2.9,3.5-5.6,7.2-8.3,10.8-.5.7-1.3,1.8-.3,2.6.8.7,1.5-.3,2.1-.7,4.1-3.1,7.8-6.6,10.4-11.1.8-1.3,1.2-2.8-.8-3.8-1.1.8-2.4,1.3-3.1,2.2h0Z"/>
    <path class="st1" d="M355.4,208.6c-1.8,1.1-3.7,2.2-5.5,3.3-1.9,1.1-4.3,1-6,2.5-1.2,1.9-2.5,3.7-3.7,5.6,2.5,3-.3,9.4-4.2,10.8-4.6,1.6-9.1.4-13.4-.2-3.5-.5-5.4.8-7.8,2.3,0,0-.2.2-.3.3-4.1,3.5-7.9,3.3-11.2-.8h0c-1.1,0-2.2,0-3.2.7-1.4,1.3-3.5,2.6-2.9,4.7.5,2,2.9,1.2,4.4,1.2,3.2,0,6.3,0,9.5,0s3.1.2,2.1,1.9c-1.7,2.8,0,2.8,1.9,3.3,8,2.4,15.9,5.7,24.6,4.8,2.4-.3,4.6,1.1,6.2,2.8,1.9,1.7,2.9,1.6,3.8-.9.9-2.5,1.8-3.5,3.5-.3,1,2.1,3.2,3.5,3.5,6.3.2,2.2.4,4.1-2,5.2-1.6.7-1.8,2.1-1.2,3.5.8,1.6,2.2,1.3,3.5.8,1.6-.7,3.1-1.5,3.7-3.5.9-3,3.9-3.5,6.3-3.8,2.3-.3,2.2,2.4,2.5,4.1.4,1.6,1.5,2.2,3,2.2s3.1-.7,3.4-2.4c.5-3.2,2.2-4.5,5.4-4.2,2.2.2,3.1-1.3,3.1-3.4s0-5.5,1.5-8c5.2-1.6,2.6-6.3,3.6-9.5,3.7,1.1,5.5-.3,5.6-4.6v-7.9c2-.6,1.6,3.4,3.6,1.9,1.9-1.3,1-3.2.7-4.9-.3-1.7-.9-3.5,0-5.4,1.8,1.7,1.5,4.7,3.9,6.7v-18.8c2.6,2,3,4.6,4.7,6.6,4.5-5.7,0-12.9,3.2-19.4,2.1,5.1,6.3,6.8,11.3,9.1-.7-1.6-1.1-2.4-1.6-3.3s-1-1.6-1.6-2.4c-.3-.3-1-.7-.4-1.2.4-.3,1-.2,1.3.3,1.3.4,2.5.9,4.1,1.5-.3-3.6-2.8-6.8-1.9-10.5-.5-.8-1-1.6-1.5-2.3-2.9,2.5-6.1-.9-9.6.5-2.5,1-4.2,4.2-7.5,3.2-2.1-.6-4.1-.3-6-.3-3.1,1.9-5.7,4.8-9.9,4.5-1,0-1.3.9-1.9,1.4,0,4.6-4.6,4-6.7,6-6.1,5.8-14.2,6-21.5,8.1-.9.5-1.8,1-2.7,1.5l.2.5h0Z"/>
    <path class="st1" d="M270,187.7c-1.1,4.5-1.2,4.6,3.9,4.8,2.4,0,3.2,3.2,6.4,2.7,2.9-.5,5.8-1.2,7.7-3.2,4-4.1,9-6,14.3-7.1.7,0,1.4-.2,2-.3,1.6-2.8,5.3-3.1,6.9-5.6,3.9-6,8.6-10,16.2-9.9,1,0,1.7-.8,2.5-1.2,4.9-3,10.5-3.8,16.1-4.1h2.3c.6-.5,1.1-.6,1.5.3,2,0,4,0,5.9,0,1-.5,1.7-.6,1.6,1,4.4.3,6-3.8,9-5.6.4-2.9,2.7-.7,4-1.4.9-.3,1.7-.4,2.6-.7.8-.2,1.3-2.3,2.4-.3h3.7c.2-1,1-1.3,1.8-1.2,4,.5,8.1-.3,11.9,1.8,1,0,2,0,2.9-.2,3.8,1,7.9,0,11.6,1.9,1.5.8,3.2.7,4.6-1.4,1.5-2.2,3.8-4.1,5.9-.3.6-.2,1.2-.3,1.8-.4,4.8-4,10.9-3.1,16.6-3.4-.4-2-3-.9-2.9-3,2-.9,4.1-.8,6.1-.3,5.9,1.2,11.8.4,17.7.6,1.4,0,3.2.6,3.8-1.5h0c-8.3,0-16.6.3-24.9-.7-2.9.4-4.2-2.4-6.5-3.1-4.1-1.3-8-2.8-12.4-2.9-3.4,0-6-1.4-8.5-3.6-4.2-4-8.6-7.7-14-10-2.2,0-6-.8-6.6,0-2.2,4.3-6.7,6.7-8.6,11.1-.3.9-1.6,2-2.4,2-3.6,0-7.2,1.6-10.8.8-4.3.5-8.5-1.1-12.7-1v.2c0,0-.3-.2-.3-.2-5.3.4-10.5.9-16.2,1.3,1.1,1.6,3.3.5,3.2,2.1,0,1.2-1.6,1.3-2.6,1.5-3.4,2-7.3,1.3-10.9,2.5-1.6,0-3.3.2-4.8.3,0,1.8,2.5,1.8,3.1,3.7-4.5-.3-7.5,3-11.5,3.3-1,.8-2.1,1.3-3,2.1-2.1,1.6-4.8,1.6-6.6,4-4.2,5.7-10.9,6.7-17.3,8.3v-.2c-.2.3-.4.7-.6,1-4.5,5.4-9.2,10.5-14.8,14.8-.3.6-.6,1-1.3,1h0v-.2h0Z"/>
    <path class="st4" d="M321.8,149.9c1.6,0,3.3-.2,4.8-.3,2.9-3.8,7.2-2.1,10.9-2.5,1-.2,2.5-.2,2.6-1.5,0-1.6-2.1-.5-3.2-2.1,5.7-.4,11-.9,16.2-1.3h.3c4.2-.2,8.4,1.5,12.7,1,.2-2.4-2.4-5.5,3.3-6,3.6-.3,8.2-1.9,11.2-5,1-1,2.9-2.2,2.5-3.7-.3-1.3-2.4-1.5-4-1.8-6.7-1.6-13.4-3.2-20-4.8-.3,0-.6-.3-.9-.3.9,2.9-1.2,2.7-2.8,2.3-3.5-.7-6.9-.2-10.2.2-3.7.3-7.3,1-11-.2-7.4,1.3-14.6,3.5-21.4,6.6-6,2.7-6.7,4.1-6.1,11,0,.5-1,1.1-1.6,1.6-2.3,3.1-5.4,5.3-8.9,6.7-4.2,6.7-8.9,13.2-9.9,21.5,6.3-1.6,13-2.6,17.3-8.3,1.7-2.3,4.6-2.3,6.6-4,1-.7,2.1-1.3,3-2.1-.4-3.2,3.6-2.5,4.1-5,.4-2.3,2.3-2.4,4.2-2.1l.2.2Z"/>
    <path class="st0" d="M275.8,373.3c-2.7-1.9-5-4.3-8.6-1.2-1.3,1.1-3.8.7-3.6-2,.2-2.9-1.6-3.2-3.6-3.2s-4.9.5-7.2,1.8c-2.9,1.6-5,1.4-6.1-2-.9-2.6-2.8-3.5-5.3-3.9-3.2-.4-6.7,0-8.7-3.5-.2-.3-1-.7-1.5-.5-4.2,1.5-7.7-.3-11.3-2.2-2.3-1.2-4.9,0-7.2.9-5.3,2.3-7.9,1.8-11.6-2.7-2.6-3.2-5.4-3.9-9-1.7-5.6,3.3-10.8,7.1-15.8,11.2-2.9,2.5-6.2,2.9-9.3.4-2.2-1.6-3.3-.2-4.5,1-2.6,2.6-4.6,5.9-8.6,6.7,5.4-.4,10.5,1.2,15.6,2.6,2.2-4.5,6.6-4.7,10.6-5.4,12.6-.3,25.3-1,37.2,4.9,2.2,1.1,3.1,2,1,4-1.4,1.4-2.4,3-2.9,4.9-.6,2.5-.4,4.8,2.7,5.4,2.8.6,4,2.7,5,5s1.3,2.2,2.9.6c1.8-2,4.1-3.7,6.1-5.5-1,.2-1.9.3-2.9.4-2.2.4-4.5,1.3-5-2.2-.4-3.3,1.8-3.4,4.1-3.8,5.2-.9,10.5-.9,15.4-2.9,1.2-.5,2.5-.5,3.3.8.9,1.3.7,2.7-.5,3.7-1,1-2.1,1.8-2.1,3.4,2.2-.9,3.6-2.4,5.2-4.1v-.8c-.6-2.7-.9-5.1,2.7-6.2,5.4-1.6,7.6-1.3,9.6,2.2,1,1.8,2.4,3,4.7,2-2.4-4.3-1-7.1,3.8-7.3,1.9,0,3.9,0,5.7-.8l-.3-.2h0Z"/>
    <path class="st4" d="M266.4,381.4c-2.2,1-3.6-.2-4.7-2-2-3.5-4.1-3.8-9.6-2.2-3.5,1.1-3.3,3.5-2.7,6.2v.8c11.8,6,22.7,13.6,33.7,20.9,2,1.3,3.9,2.7,5.7,4.1,1.9,1.6,4.6,2.9,2,6.2-.6.8-.5,2.1,1.2,2.8,11.2,4.9,14.3,16.2,7.4,26.1-.3.5-.8,1-1.7,2.3,7.9-2.9,10.8-8.9,13.8-15.2,2.2,5.9,2.2,11.8.3,17.7-.9,2.6-1,4.7-.2,7.4,1.7,5.5-.8,10.5-4.1,14.9,3.3-.5,5.2-1.9,6.4-6,1.5-4.8,3.7-8.7,7.4-12.4,6.3-6.1,6.1-14.1,3.3-21.9-1.3.3-2.8.3-3.4,1.9-.3.8-1.6,1.6-1.7.8-.7-3.8-5-6.6-3.6-10.5,1-2.8-.5-3.5-1.9-4.6-2.2-1.8-5-2.9-6.1-5.8-.7-1.9-2.1-2.5-3.8-3.2-3.7-1.4-6.7-3.6-6.9-8.1-10.3-6.8-21.4-12.1-30.9-20.2h.2,0Z"/>
    <path class="st0" d="M149.1,372.5c-.5-2.7,1.6-4.2,2.6-6.3,1.6-3.3-1.9-11-5.4-11.6-2.1-.4-2.5,1-1.8,2.5,1.8,4.1-.7,5.1-3.9,5.8-2.6.6-5.2.3-7.9.4-2.2,0-4.4-.5-5.9,2-.9,1.5-2.2.2-3.3,0-3.7-.9-7.6-3.3-10.3,2.1-.9,1.6-2.8.4-4.1,0-3.7-1.1-7.7-3.1-9,3,0,.4-.8,1-1.2,1-5.3.4-7,5.5-10.6,8-.5.3-.9,1.5-.9,2.2,0,3.2-1.9,5.2-4.1,6.7-5,3.3-7.6,8-9.2,13.6-.7,2.4.5,3,2.6,2.8,1.4-.2,2.7-1.9,4.1-.2,1.7-2.3,3.8-4.5,5.1-7,2.6-5.2,6.9-8,12.2-9.8,9-2.9,18.1-5.9,27.4-7.9,8-1.6,15.8-4.8,23.7-7.3h0Z"/>
    <path class="st4" d="M193.9,377c10.2,7.3,20.3,14.6,31,21.2,4.8,2.9,5.4,8.1,6,13,.5,5-2.2,8.1-7.2,9.8,4.5-7.4,4.5-7.6-1.6-14.6-.9-1-1.8-2.1-2.5-3.3-1-1.6-2.3-1.7-4-1.5-1.9.3-1.2,1.9-1.5,2.9-.9,3.4-.3,6.9-1.6,10.2v-1.6c-.2-1-.6-1.9-1.7-2-.3,0-1,.2-1,.4-.5,1,.3,1.8.9,2.5.4.6,1.1.7,1.8.7-.2,9.5-3.5,18.1-9.2,25.5-2.8,3.5-4.5,4-7.7,3,1.6-1.6,3.5-3,5-4.8,2.4-2.8,5-6.3,4.1-9.5-1.1-4-2.2-7.5-.4-11.7-3.3,3.6-6.7,6-11.9,4.7,2-1.5,3.7-2.9,4.2-4.9,2.2-7.8,5.4-15.7-2.4-22.6-.6-.5-.9-1.4-1.2-2.2,1.3.7,2.9,1.8,4,.2.9-1.2-.7-2.2-1.6-2.9-1.3-1.3-2.7-2.1-3.8.3-1-2.3-2.9-3.9-5.1-5.1-5.8-3.2-11.5-6.6-17.2-9.9,2.2-4.5,6.6-4.7,10.6-5.4,4.6,2.4,9.6,4.4,13.7,7.4l.3.2h0ZM206.5,407.3c-.3,2.4-.5,4-.8,5.5-.6.8-.6,1.6-.4,2.7,1-.6,1-1.5,1.1-2.2.8-1.6.7-3.4,0-6h0ZM208,398.2c.7,1.2,1,3.2,2.5,2.5,1.6-.7.3-2.4-.3-3.5-1.5-2.5-1.5-5.9-4.9-8.5,1.5,3.6,1.3,6.7,2.8,9.4ZM202.6,408.3c1.3,0,2.4-1.5,1.9-3.1-.4-1.5.3-4-2-4s-1.4,2.3-1.4,3.5c.2,1.5-1.2,3.6,1.5,3.5h0Z"/>
    <path class="st0" d="M460.8,149.5c-.7,2.1-2.4,1.5-3.8,1.5-5.9-.2-11.8.6-17.7-.6-1.9-.4-4.1-.5-6.1.3-.3,2.2,2.4,1,2.9,3-5.7.3-11.8-.6-16.6,3.4,1.2.6,2.4.5,3.6.3,4.2-.7,5.2-.2,4.7,3.9-.3,1.8.8,2.3,1.8,3.4-4.1,2.6-9.2,2.3-13.8,5.1,2.4,1,4.3.3,6-.3,12-4.4,24.7-6.1,37.2-7.1,9.2-.7,17.8-3.7,26.8-4.9,2.9-.3,6-1.6,8.5,1.3.5.2,1.2.6,1.6.3.9-.5.2-1.2-.2-1.6-2.6-2.9-6-4.2-9.8-4.6.3,3.1-2.6,3.2-3.9,2.8-6.7-2-12.2,2.9-18.6,3.4-4.3.3-9.2,1.6-13.9,2.7-1.5.3-3,.2-3.6-1.3-.7-1.6-.2-3.2,1.3-4.4,1.4-1.1,2.9-1.3,4.7-1.5,4.1-.5,8.6.9,12.3-.2,6.4-1.8,12.8-1.7,19.2-2.1-7.3-2-14.9-2.7-22.4-2.6h0Z"/>
    <path class="st0" d="M359.3,121.9c6.7,1.6,13.4,3.2,20,4.8,1.5.3,3.5.6,4,1.8.4,1.5-1.5,2.7-2.5,3.7-3,3.1-7.6,4.6-11.2,5-5.7.5-3.1,3.5-3.3,6,3.7.9,7.2-.6,10.8-.8.9,0,2.1-1.1,2.4-2,1.8-4.5,6.4-6.9,8.6-11.1.5-1,4.2,0,6.6,0-10.8-4.8-22.4-6-33.8-7.7-.4,0-1,.3-1.6.4h0v-.2Z"/>
    <path class="st4" d="M483.2,152.1c-6.4.3-12.8.2-19.2,2.1-3.7,1-8.1-.3-12.3.2-1.6.2-3.3.4-4.7,1.5-1.5,1.2-1.9,2.8-1.3,4.4.6,1.5,2.2,1.6,3.6,1.3,4.6-1.1,9.6-2.3,13.9-2.7,6.4-.5,11.8-5.4,18.6-3.4,1.3.3,4.1.3,3.9-2.8-.9-.3-1.7-.4-2.6-.7h0Z"/>
    <path class="st0" d="M95.4,305.6c0-3.1,2.1-5,3.6-7.2,3.6-4.9,6-10.9,11.8-14.1,1.3-.7,1.3-2.3,1.8-3.6.8-1.9,1.7-3.4,4.1-3.5,1.6,0,2.9-.9,3.6-2.3,1.9-4,5.2-6.7,8.7-9.2,2.6-1.8,3.7-4,2.4-7.1-12.8,11.8-24.5,24.5-35,38.2-1.6,2.2-2.8,4.7-3.1,7.5.5.7,1,1.5,2,1.2Z"/>
    <path class="st0" d="M297.3,401.6c.2,4.5,3.2,6.7,6.9,8.1,1.8.7,3.1,1.3,3.8,3.2,1,2.9,3.9,4.1,6.1,5.8,1.4,1.1,2.9,1.8,1.9,4.6-1.4,4,2.9,6.7,3.6,10.5.2.9,1.4,0,1.7-.8.6-1.6,2.1-1.6,3.4-1.9-2.4-9.1-8.5-15.6-15.6-21.2-3.8-2.9-7.5-6-11.8-8.4h0Z"/>
    <path class="st2" d="M244.3,388.4c0-1.6,1-2.4,2.1-3.4,1.2-1.1,1.3-2.4.5-3.7s-2.1-1.3-3.3-.8c-4.9,2-10.3,2-15.4,2.9-2.3.4-4.6.5-4.1,3.8.5,3.5,2.8,2.6,5,2.2,1-.2,1.9-.3,2.9-.4,1.2.2,1.6-3.1,3.3-.8,2.9,2.6,6,.6,9.1.3h0Z"/>
    <path class="st5" d="M398.1,187.1c2,0,4-.4,6,.3,3.2,1,5-2.2,7.5-3.2,3.5-1.4,6.6,2,9.6-.5.5.8,1,1.6,1.5,2.3,1.2-4.2,5-5.8,8.1-8.1-7.5,1.4-14.9,3.3-22.1,5.4-1.2.3-2.5,1-3.5.4-4.2-2.4-5.8,0-7,3.5h0Z"/>
    <path class="st0" d="M87.7,318.5c2.7-.3,5.4-.7,7.9-1.8,5.1-2.4,5.2-4.1.6-7.9-1.3,1.9-2.6,3.6-5.3,2-1.6,2.4-2.2,5.2-3.2,7.8h0Z"/>
    <path class="st0" d="M334.5,123.8c3.6,1.1,7.3.6,11,.2,3.4-.3,6.8-.8,10.2-.2,1.6.3,3.6.5,2.8-2.3-8.1-.9-16.2,0-23.9,2.2h0Z"/>
    <path class="st0" d="M70.1,336.6c6,0,11.1-5.5,11.6-12-4.3,3.6-7.9,7.9-11.6,12Z"/>
    <path class="st4" d="M-1.5,448.8c-.3-2.6-1.2-5,1.1-7.6,1.8-2.1-1.4-2.3-2.6-3.3-1.7,3.9-2,7.6,1.5,10.8h0Z"/>
    <path class="st5" d="M90.9,310.7c2.6,1.6,4,0,5.3-2-.3-1-.4-2-.7-3-1,.3-1.5-.5-2-1.2-1.4,1.9-1.9,4.1-2.6,6.3h0Z"/>
    <path class="st0" d="M244.3,388.3c-3,.3-6.1,2.3-9.1-.3,0,1.7-.8,3.8,1.1,4.8,1.8,1,3.3-.8,4.7-1.6,1.2-.8,2.7-1.4,3.3-2.9h0Z"/>
    <path class="st0" d="M435.9,148.9c8.3,1,16.6.8,24.9.7-8.3-1.5-16.6-.8-24.9-.7Z"/>
    <path class="st0" d="M193.1,392.4c1.3.7,2.9,1.8,4,.2.9-1.2-.7-2.2-1.6-2.9-1.3-1.3-2.7-2.1-3.8.3.2,1,.5,1.9,1.4,2.4h0Z"/>
    <path class="st0" d="M296.4,149.7c3.5-1.5,6.6-3.6,8.9-6.7-3.4,1.6-7,3.1-8.9,6.7Z"/>
    <path class="st0" d="M269.9,187.7c.7,0,1-.3,1.3-1-.4.3-.9.6-1.3,1Z"/>
    <path class="st4" d="M286,172.1c.2-.3.4-.7.6-1-.2.3-.4.7-.6,1Z"/>
    <path class="st2" d="M268.5,255.5c4.3-.2,6.8-3.8,10.5-5.6-1.1-2-4.8-2.4-4.1-5,.5-2.1,3.2-.6,4.8-1.1-.6-.6-1.2-1.3-1.8-1.9h-2.1c-1.7,1.9-4.2,2.6-6.5,3.4-3.6,1.2-2.4,2.8-.6,4.4.7.6,1.9.5,2.4,2-2.7,0-3.5,1.6-2.6,4h0Z"/>
    <path class="st2" d="M257.3,271.6c2.5,1.5,4.7,1,6.6-1,1.8-1.9,3.5-3.8,5.3-5.7,2.2-2.3,1.2-3.5-1.5-4.1-1.6,2.2-3.8,3.8-6.2,5-2.5,1.3-4.1,3-4.1,5.9h0Z"/>
    <path class="st0" d="M163.8,252.4c-.4,0-.9,0-1.2,0-1,.3-1.8.8-1.7,2,0,.2.3.5.4.6,1.2.3,1.6-.7,2.2-1.6.2-.3.3-.8.3-1.2h0Z"/>
    <path class="st0" d="M275.8,241.7h2.1c1.9-1.9-.2-2.1-1.2-2.8-1.2.6-1,1.6-.9,2.7h0Z"/>
    <path class="st0" d="M212.6,305.6c1.8.6,3.3.3,4.1-1.6-1.6-.2-3.1.3-4.1,1.6Z"/>
    <path class="st0" d="M217.1,303.7c1,0,1.3-.5,1.3-1.5-.9,0-1.5.3-1.3,1.5Z"/>
    <path class="st5" d="M225.2,328.9c0,7.3,3.2,9.8,9.8,8.1,2.9-.7,6.1-1.6,7.4,2.6.4,1.3,1.6,1.9,2.9,2.1,1.7.3,4.1-.2,5.3.5,5.9,3.4,11.4,0,17-.4,4.7-.3,6-2.9,3.5-7-3.2-5.2-5.2-6-11-4.6-3.1.8-6,.3-8.9-.9-1.8-.8-3.1-.8-4.7,1-2.3,2.8-6,2-7.6-1.3-.3-.8-.8-1.5-1-2.2-1.1-5.4-5.1-3.3-8.2-3-3.2.3-4.1,2.9-4.5,5.2h0Z"/>
    <path class="st5" d="M230.3,318.7c2.3-.2,5.8.4,6-3.5.2-2.9-1.7-4.8-5.1-4.8s-6.7,2.1-6.7,5.2.8,3.1,5.9,3Z"/>
    <path class="st1" d="M287.9,230.3c-1.9-2.2-3.7-.9-5.6,0,1.9,2,3.7.8,5.6,0Z"/>
    <polygon class="st1" points="303.2 232.5 303.3 232.3 303.2 232.5 303.2 232.5"/>
    <path class="st0" d="M346,163.8c-5.6.3-11.1,1-16.1,4.1-.8.5-1.5,1.3-2.5,1.2-7.5-.2-12.3,3.9-16.2,9.9-1.6,2.5-5.3,2.9-6.9,5.6,4.5.7,7.5-2.4,10.4-4.8,3.5-2.9,7.7-5.2,11.6-6.3,5.7-1.6,10.7-5,16.6-6.2,1.8-.3,2.6-1.8,3.1-3.5h0Z"/>
    <path class="st0" d="M358.1,207.2c7.4-2.1,15.4-2.3,21.5-8.1,2.2-2.1,6.7-1.5,6.7-6-3.1,1-6.3.9-8.6,4.4-1.2,1.9-5.4,2.2-8.3,2.8-4.8.9-8.1,3.6-11.3,6.8h0Z"/>
    <path class="st0" d="M417.5,157.5c-2.1-3.8-4.4-1.9-5.9.3-1.4,2.1-3.1,2.1-4.6,1.4-3.7-1.9-7.8-.9-11.6-1.9.3.9.9,1.4,1.6,1.6,4,1,7.8,2.4,11.5,4.1,1.5.7,4.1,2,3.3-2-.3-1.3.5-1.9,2.1-1.4,2,.8,3.2,0,3.5-2.1h0Z"/>
    <path class="st0" d="M392.5,157.4c-3.7-2.2-7.9-1.3-11.9-1.8-.9,0-1.6.3-1.8,1.2,4.5,1.6,9.1,1,13.7.6h0Z"/>
    <path class="st0" d="M370.2,157.9c-1.2.7-3.5-1.6-4,1.4,1.4-.3,3.1.4,4-1.4Z"/>
    <path class="st0" d="M357.2,164.8c.3-1.5-.5-1.5-1.6-1,0,.8-.2,1.5-.3,2.2h0c.8-.2,1.5-.4,1.7-1.3h0Z"/>
    <path class="st0" d="M375.2,156.9c-1.1-2-1.6.2-2.4.3.9.2,1.7.4,2.4-.3Z"/>
    <path class="st0" d="M349.8,164.1c-.3-.9-.9-.9-1.5-.3.3.9.9,1,1.5.3Z"/>
    <polygon class="st0" points="277.4 198.5 277.3 198.6 277.4 198.5 277.4 198.5"/>
    <path class="st0" d="M355.5,166.1h0Z"/>
    <path class="st5" d="M237,220.1c-4,1-5.7,2.9-6.7,6.4,5.3-1,10.9.6,14.8-4.4-.4-.9-2.9.4-2.3-1.7.6-2.5,2.9-2,4.9-1.8-.3-2.3-1.8-3.3-3.5-3.8-3.2-.9-6.9-.3-8.5-4.6-.3-1-2-.6-2.5,1.2-1.1,4-2.9,4.3-6.7,2.9-4.3-1.8-8.9-2.1-13.6,0-4.1,1.7-8.7,2.5-12.6,4.9-2.4,1.6,0,4.4-1.6,6.2,1,.7,2.1.4,2.7-.3,4-4.9,10-3.5,15-5.1,3.2-1,4.5,1,3.5,4.6-.3,1-1,1.9-1.5,2.9-.3.6-.7,1.3,0,1.9.5.4,1.1.3,1.5-.2,1.3-1.6,2.9-1.4,4.5-1,1.1.3,1.6-.3,1.4-1.6-.4-5.9,4-8.7,11.1-6.2h0Z"/>
    <path class="st4" d="M266,228.6c1.3,1.1,2.5,1.6,3.8.5.9-.7.7-1.7.3-2.6-.9-2.1-2.5-2.5-4.9-2,2.9,1.1,3.9,2.4.8,4.1h0Z"/>
    <path class="st5" d="M343.8,214.5c1.7-1.6,4.1-1.5,6-2.5-2.9-1.4-4.9-.5-6,2.5Z"/>
    <path class="st4" d="M76.6,361.9c-1.1.8-2.4,1.3-3.1,2.2-2.9,3.5-5.6,7.2-8.3,10.8-.5.7-1.3,1.8-.3,2.6.8.7,1.5-.3,2.1-.7,4.1-3.1,7.8-6.6,10.4-11.1.8-1.3,1.2-2.8-.8-3.8h0Z"/>
    <path class="st6" d="M420.4,194.9c-.3-.5-1-.7-1.3-.3-.5.5.3.8.4,1.2.3-.3.6-.5.9-.8h0Z"/>
    <path class="st0" d="M321.8,149.9c-1.9-.3-3.7-.3-4.2,2.1-.5,2.5-4.6,1.8-4.1,5,4.1-.3,7-3.6,11.5-3.3-.7-1.9-3-1.9-3.1-3.7h0Z"/>
    <path class="st0" d="M337.7,147.1c-3.7.4-7.9-1.3-10.9,2.5,3.5-1.2,7.5-.4,10.9-2.5Z"/>
    <polygon class="st0" points="353.5 142.3 353.2 142.3 353.4 142.5 353.5 142.3"/>
    <path class="st0" d="M205.3,388.8c1.5,3.6,1.3,6.7,2.8,9.4.7,1.2,1,3.2,2.5,2.5,1.6-.7.3-2.4-.3-3.5-1.5-2.5-1.5-5.9-4.9-8.5Z"/>
    <path class="st0" d="M201,404.9c.2,1.5-1.2,3.6,1.5,3.5,1.3,0,2.4-1.5,1.9-3.1-.4-1.5.3-4-2-4s-1.4,2.3-1.4,3.5h0Z"/>
    <path class="st0" d="M212.7,414.7v-1.6c-.2-1-.6-1.9-1.7-2-.3,0-1,.2-1,.4-.5,1,.3,1.8.9,2.5.4.6,1.1.7,1.8.7h0Z"/>
    <path class="st0" d="M206.3,413.3c.8-1.6.7-3.4,0-6-.3,2.4-.5,4-.8,5.5.3.2.4.3.6.5h.2Z"/>
    <path class="st0" d="M205.7,412.8c-.6.8-.6,1.6-.4,2.7,1-.6,1-1.5,1.1-2.2-.2-.2-.4-.3-.6-.5h0Z"/>
  </g>
</svg>