<?xml version="1.0" encoding="UTF-8"?>
<svg xmlns="http://www.w3.org/2000/svg" version="1.1" viewBox="0 0 226.1 214.9">
  <defs>
    <style>
      .cls-1 {
        fill: #fff;
      }
    </style>
  </defs>
  <!-- Generator: Adobe Illustrator 28.6.0, SVG Export Plug-In . SVG Version: 1.2.0 Build 709)  -->
  <g>
    <g id="Capa_1">
      <g>
        <path class="cls-1" d="M59.5,160.6c1.5-5.8-.5-10.9-.9-16.6-.7-1.1-.2-3.2-.7-4.7-1.1,5.6,1.6,10.6-.4,15.8.4,2-.8,4.8-.3,6.9.8-.5,1.6-1,2.4-1.5Z"/>
        <path class="cls-1" d="M55.8,147.9c-.2.3,0,.2,0,.6.4.1.4-.8,0-.6Z"/>
        <path class="cls-1" d="M63.6,115.4c8.7,11.1-9,13.1-1.6,31.4,0,.2-.1.4-.1.8,1.2,3,1,6.3,1.1,9.9,10.5-11.2,9.4-36.2-1.1-48.8.2,1.6.4,3.1.7,4.9.4.3,1,.7,1.1,1.8Z"/>
        <g>
          <g>
            <polygon class="cls-1" points="140.3 150.6 128.3 138.6 118.9 148 109.5 138.6 100.1 148 90.7 138.6 78.6 150.6 90.7 162.6 100.1 153.2 109.5 162.6 118.9 153.2 128.3 162.6 140.3 150.6"/>
            <g>
              <path class="cls-1" d="M197.9,132.1c1-1.9,1.3-3.5,1.4-5.2l-.7-1.3c0,.6,0,1.3-.3,1.9.4,1.2-.6,3.1-.4,4.6Z"/>
              <path class="cls-1" d="M202,109.1c-.1.3,0,.8-.1,1.1-.3,1.3-1.3,2.9-1.8,4.5-.2.7-.4,1.4-.6,2,1.4-1.1,2.7-2.3,3.9-3.6.2-.5.4-.9.5-1.3-.2-1.6.9-3,1.4-4.7.4-1.5.7-3.2,1.1-4.7.4-1.4,1-2.9,1.5-4.5.3-.4.5-.6.8-1.1.5-2.3.6-4.1,1.1-6.4,0-.8-.3-1.8.2-2.5-.3,0-.4-.2-.6-.3,0,1.1-.8,1.8-1.2,2.8-.2.5-.1,1.1-.2,1.6-.2.7-.5,1.3-.8,2.1-1.1,3.5-2,7.5-3.3,10.3-.2.4-.6.8-.7,1.3,0,.1,0,.7,0,.8-.3.9-1,1.8-1.2,2.6Z"/>
              <path class="cls-1" d="M152.4,66.5c-.2.3,0,.2-.2.6.3.2.6-.6.2-.6Z"/>
              <path class="cls-1" d="M208.7,83c1,.7,1,2.3,1.1,3.7.2-1.2.5-2.2.7-3.2v-6.4c-.2.6-.4.9-.6,1.5-.6,1.4-.8,2.9-1.2,4.4Z"/>
              <path class="cls-1" d="M200.2,128.8c-.2-.3-.3.2-.4.2-.5,1.8-1.2,3-1.7,4.6-.9,2.7-.7,5.3-1.3,7.8-1.1,4.2-2.3,8-3.3,11.5-.2.6-.1,1.4-.7,1.8-.2-5.1,3.9-13,3.8-17.7-.5.4-.8,1.4-1,2.3-2.6,3.6-5.7,4.9-8.6,7.3-.1.3-.2.5-.2.7l7.5,15.4h23.5l-17.4-34c0,0,0,.1,0,.2Z"/>
              <path class="cls-1" d="M189.7,142.1c1.3-1.5,2.8-2.8,4.1-4.2,1.9-5.1,1.7-9.7,1.9-14,.1-.2.2-.4.3-.7-.4-.8-.1-1.8,0-2.8l-.5-1.1c.4-.2.7-.4,1-.6-.4-2.4,1.4-5.9,1.5-8.3,1.4-2.8,1.7-6.5,2.9-8.6.9-2.8,1.8-5.7,2.5-8.2.5-1.8.3-3.5.7-5.2,0-.5.6-1.5.8-2.1.1-.4.1-1,.2-1.2.8-1.5,2.2-1.3,3-3.6.3-.5-.2-.4-.2-.7.4-1,.7-2.6,1.4-2.9.5-2,.8-3.9,1.2-5.9v-12.7c-1,1.6-2,3.2-2.5,5.6h-.3c0,.9-.7,1.2-1,2.1-.4,1.3,0,2.7,0,3.7-.2.2-.4.4-.7.6-.4-.7-.1-2-.1-3,0-.8-.1-1.5.5-2.9.4-.8,1-1.4,1.3-2.2.3-.7.3-1.8.8-2.1,0-.4,0-.7,0-1,.3-.6.7-.7.9-1.7.4-.2.7-.5,1-1v-12.4c0-1.5,0-2.9-.2-4.3-.2.8-.6,1.7-1,2.6-.2-.7.4-1.1.5-1.6.1-.4.3-.8.4-1.3-1.4-17.8-10.8-26.7-28.4-26.7h-31.2v55.7c.2-.7.6-1.3.9-2,.3-.3.2.1.3.3-.3-2.2,1.9-3.5,2.3-5.7.2.3.3-.2.4-.2.5-1.8,1.2-3,1.7-4.6.9-2.7.7-5.3,1.3-7.8,1.1-4.2,2.3-8,3.3-11.5.2-.6.1-1.4.7-1.8.2,5.1-3.9,13-3.8,17.7.5-.4.8-1.4,1-2.3,2.6-3.6,5.7-4.9,8.6-7.3.5-1.5.2-1.2.5-2.8-.1-1.2-1.3-2-.9-3.4-1.5-1.7-.7-5.5-.1-9.2.3-1.8.3-2.5,1-4.4.3-.9.8-1.3,1.2-2,0,0,0-.4,0-.6.4-.8,1.3-1.5,1.8-2.4.4-.8.3-1.7,1-2,.3-1.4,1.2-3,2-3.7.8.5-.6,1.8-.2,2.2-.1.3-.3.3-.4.5-1,4.7-4.4,6.9-5.4,11.8-.5,2.4-.7,4.4-.9,6.9.3.4.8.9.6,2,.6,1.7,1.6,4,1.3,6.9-1.2,2.4-2.8,3.3-4.3,4.5-1.3,1.5-2.8,2.8-4.1,4.2-1.9,5.1-1.7,9.7-1.9,14-.1.2-.2.4-.3.7.5,1.1-.1,2.5,0,3.9,0,.5-.4.1-.4.5.4,2.4-1.4,5.9-1.5,8.4-1.4,2.8-1.7,6.5-2.9,8.6-.9,2.8-1.8,5.7-2.5,8.2-.1.4-.2.8-.3,1.2v64.1h21.5v-39.4h3l10.9,22.4c1.1-1.7,2.4-2.5,3.7-3.5ZM172.1,102.7V34.9h7.6c6.2,0,9.3,3.4,9.3,10.2v47.6c0,4.8-1.9,7.9-5.8,9.5-1.1.4-3.2.6-6.1.6h-4.9Z"/>
              <path class="cls-1" d="M150.7,86c.2-.3.4-.5.5-.8,0-.1,0-.7,0-.8.3-.9,1-1.8,1.2-2.6.1-.3,0-.8.1-1.1.3-1.3,1.3-2.9,1.8-4.5.2-.8.4-1.4.6-2.1.5-1.7.3-2.5.4-3.6,0-1,.4-2.1.5-3,0-1.1-.2-2.6.3-4-.4-1.2.6-3.1.4-4.6-1.9,3.6-1.2,6.2-1.9,9.7-.9,1.7-1.4,4-2.3,5.2,0,1.3-1,3.1-1.6,4.6v7.6Z"/>
            </g>
            <path class="cls-1" d="M59.8,159.7c1.5-5.7-.5-10.7-.9-16.3-.7-1-.2-3.2-.7-4.6-1,5.5,1.5,10.4-.4,15.5.4,1.9-.8,4.7-.3,6.8.8-.4,1.6-.9,2.3-1.5Z"/>
            <path class="cls-1" d="M56.2,147.2c-.2.3,0,.2,0,.6.4.1.4-.7,0-.6Z"/>
            <path class="cls-1" d="M63.9,115.3c8.6,10.9-8.8,12.8-1.6,30.8,0,.2-.1.4-.1.8,1.2,3,1,6.2,1.1,9.7,10.3-11,9.3-35.6-1.1-47.9.1,1.6.4,3.1.6,4.8.3.3,1,.7,1.1,1.8Z"/>
            <g>
              <path class="cls-1" d="M91,127.4c0-.5-.1-.2-.4-.2.1-.4.4-.6.3-1.4,0-.4-.3-.5-.5-.6,0,.6.1.7,0,1.3-.3.1-.5.5-.7.8,0,.1.1.2.2.4.3.2.5.3.7.5,0-.3,0-.6.2-.7Z"/>
              <path class="cls-1" d="M80.6,16.5c-.5,1.8-.4,4.2-.9,5.6.3,1.5-.4,3.8-.5,5.5.6,1.5-.2,3.2-.2,4.9,0,1.5.1,3.2,0,4.9,0,1.3-.2,2.7-.3,4v8.6c.3.7.7,1.6.3,2.3.3,0,.4.1.7.2-.2-1.1.4-1.9.5-3,0-.5-.1-1.1-.1-1.6,0-.7.2-1.4.2-2.2.2-3.7.2-7.8.7-10.8,0-.4.4-.9.4-1.4,0-.2-.2-.6-.2-.8,0-.9.5-2,.6-2.8,0-.4-.2-.7-.2-1.1,0-1.3.6-3.2.6-4.8,0-.8,0-1.5,0-2.2,0-1.8-.3-2.5-.5-3.6-.2-.9-.1-2.1-.3-3,0-.4-.2-.8-.3-1.2h-.8c.1.8.3,1.7.3,2.6Z"/>
              <path class="cls-1" d="M81.5,106.3c0-1-.4-1.7,0-2.7-.4-1.8-1.9-3.1-2.1-5.4-.3-2.8.8-4.9,1.7-6.4,0-1.7-.5-3.7,0-5.6-.8-2.4,0-5.7-.3-8.5.5-1.3.2-3,.2-4.7,0-2,.4-4.1.4-6.1,0-.8-.2-1.5-.2-2.4,0-1.8.1-2.2.3-3.3.2-1.5,0-3,.1-4.5-1.1-.4-1.5-1.9-2-3.3.1,3.1,0,5.4.2,8-.3.7-.2,1.8-.4,2.7,0,.3-.3.5-.4.8,0,.5,0,1.1,0,1.6,0,.3-.1.6-.2,1v33.7c0,3.8.3,7.2,1,10.4.4.1.8.2,1.3.4-.3-2.2.4-4,.5-5.5Z"/>
              <path class="cls-1" d="M118.8,13.8v87.3c0,6.7-3.1,10.1-9.4,10.1s-9.3-3.4-9.3-10.1V13.8h-16s0,0,0,0c0,.2-.1.4-.1.8.7.9.5,2.4.9,3.8,0,.5-.3.2-.3.6,1,2.3,0,6.1.6,8.5-.6,3,0,6.7-.7,9.1-.2,2.9-.3,5.9-.4,8.6,0,1.9.5,3.5.6,5.2,0,.5-.2,1.6-.2,2.2,0,.4.1,1,0,1.3-.4,1.7-1.9,1.8-2,4.2-.1.6.3.3.4.6-.2,1.1-.1,2.7-.6,3.1,0,3.3.6,6.2,0,9.6.3,4.5-.9,9.9.4,14-.1,1.6.4,2.1.3,3.8.6-.9,1.1-2.1,1.6-3.3-.2-4.7,2.3-6.9,2.1-11.7h.3c-.2-.9.4-1.5.4-2.3,0-1.4-.6-2.6-.9-3.6.2-.2.3-.5.5-.8.6.6.6,1.9.9,2.8.2.7.5,1.4.2,3-.2.9-.6,1.6-.7,2.5,0,.8.1,1.9-.2,2.2,0,.4,0,.6.2.9-.1.6-.5.9-.4,1.9-1.4,1.2-1.1,4.6-1.3,6.9,0,.5-.3.2-.4.5.3,3.9-.3,7,0,10.5.1,2.3.6,4.3.3,7.2,0,.5-.2.4-.4.6.3.8.3,2.2.6,3.1.4-.1.7-1.3,1.1-.9-.2.5-.6.7-.9,1.1-.3,3.1.5,5.8.7,8.9.5,0,.5-.9,1-1.1-.1.2-.1.7-.1,1.1.4,0,.6-.5.8-.9,0-.4-.3.3-.5-.2,0-.8.3-1.3.9-1.2,0-.7,0-1.2.5-1.4.5-4.2,0-6.8.8-10.2,0-1.7.2-4.2.6-5.6-.1-1,0-2.5.3-3.9.4.6,0,1.2-.1,1.7-.2,2.5,0,5.3-.4,7.8-.1,1.3-.4,2.3-.4,4.2,0,.3.1.5.2.8.3,2.3-.5,4.9-.2,7.4.5-.1.9-.6,1.2-1.2.1-3,0-4.5,0-6.4,1,.5.9,1.6,1.2,3.2,0,.5-.2,1.1-.4,1.4,0,4.9.4,9.3-.4,14.2,4.8,2.8,10.9,4.2,18.4,4.2,20.6,0,30.9-10.5,30.9-31.3V13.8h-21.5Z"/>
            </g>
            <g>
              <path class="cls-1" d="M9.1,43.8c-.2.2-.3.3-.4.2,0,1-.1,2.1-.1,3.2.7-1.8,1.3-4.6,1-5.8-.3,0-.5.2-.7.5,0,.4,0,.9-.1,1.4.2.2.3.3.4.6Z"/>
              <path class="cls-1" d="M10,40.9c0-.4,0-.7-.2-.9-.2.2-.3.4-.5.7.2.3.4.6.7.2Z"/>
              <path class="cls-1" d="M39.6,11.5c-9.9-.4-16.7,2-21.4,6.2-.3.9-.5,1.9-.7,2.9-.4,2.3-.5,4.3-1.5,7.1,0,.5-.3.4-.5.5.1.9-.2,2.2-.2,3.2.4,0,1-1.1,1.2-.6-.3.4-.7.5-1.1.8-1.1,2.9-1,5.8-1.5,8.8.5.1.7-.8,1.2-.8-.2.2-.3.6-.4,1,.4,0,.7-.3,1-.7,0-.4-.4.2-.4-.3.3-.7.6-1.2,1.1-1,.2-.7.3-1.2.8-1.2,1.5-3.9,1.6-6.6,3.2-9.7.5-1.7,1.3-4,1.9-5.3.1-1,.6-2.5,1.2-3.7.2.7-.4,1.1-.5,1.6-.8,2.4-1.4,5.1-2.3,7.5-.5,1.2-.9,2.1-1.4,4,0,.3,0,.5,0,.8-.3,2.3-1.6,4.7-1.9,7.1.6,0,1-.4,1.4-.9.8-2.9,1-4.4,1.5-6.2.8.7.5,1.8.4,3.3-.2.5-.4,1-.7,1.3-1.2,5.3-2,10.1-4.5,15.2,0-.2,0,0-.1.1,0-.5.1-1.3.2-1.9,0,.1,0,.4,0,.7.6-.3.1-1.2.7-1.3,0-.5,0-.2-.3-.2.2-.4.5-.4.6-1.3,0-.4-.1-.5-.3-.7-.2.5,0,.7-.2,1.2-.3,0-.6.4-.8.6,0,.2.2.2,0,.5-.2.6-.1,0-.3,0-.4.7-1,1.8-.4,2.3-.7.7-1.8,3.1-1.1,4.1-1.2,1.5-.8,6.3-2.5,7.8-.2,1.6-.5,2.7-1.2,3.9-.3,2.1-.7,4.5-1.2,7,.2,3.3.8,6.3,1.8,9.1,0,0,0,0,0,0-.2-1.6.8-3.7,1.1-5.9.3-2.3.1-4.4,0-6.2,0-.3.2-.4.3-.6-.1-.8,0-1.2,0-2.1.2.2.2,0,.5.1,0,.1-.3.1-.3.4-.1.4.2.4.2.7-.8,1,0,2.6-.4,3.8.6,1.1.6,2.3.4,3.8-.2,1.3-.9,2.5-1.2,3.7-.2.8-.4,1.7-.6,2.5,7.7,22.4,35.6,30.2,38.4,49.2,1.3,13.6-20,13.5-18.7,0,0,0,0-10.5,0-10.5H8.8c-3.6,32.6,14.5,48.8,45.8,39.3,0-.2,0-.4.1-.6-.3-4.5.5-9.1.9-13.5.2-.3.2,0,.4.2-.8-2.1,1-3.9.8-6.1.3.2.2-.2.4-.3,1.1-8.8-.9-18.2.6-26.5,1.4,4.9-.7,13.6.6,18.1.4-4.9,4.3-8.3,7-11.7.6-2.8-1.3-3.6-1.9-5.9-1.9-1.3-2.1-5-2.3-8.8-31.4-27.2-32.1-22.9-30.9-64.8-1.3-13.6,20-13.4,18.7,0,0,0,0,36.4,0,36.4h21.5c-1-25.8,8.5-69.7-30.9-67.7Z"/>
              <path class="cls-1" d="M12.3,27.3c.2-.5.2-1,.2-1.4-.9,2-1.6,4.2-2.2,6.5,0,0,0,0,.1,0,.2-2.2,1.3-3.7,1.8-5.2Z"/>
            </g>
          </g>
          <g>
            <path class="cls-1" d="M17.9,200.7v-16.9h-6.7v-6h21.1v6h-6.7v16.9h-7.7Z"/>
            <path class="cls-1" d="M44.9,201.2c-3.5,0-6.2-.9-8.2-2.8-2-1.9-2.9-4.6-2.9-8v-12.6h7.7v12.3c0,1.7.3,3,.9,3.7.6.7,1.5,1.1,2.5,1.1s1.9-.4,2.6-1.1c.6-.7.9-2,.9-3.7v-12.3h7.6v12.6c0,3.4-1,6.1-2.9,8-2,1.9-4.7,2.8-8.2,2.8Z"/>
            <path class="cls-1" d="M71.4,201.2c-1.8,0-3.5-.3-5.1-.9-1.6-.6-2.9-1.4-4.1-2.5-1.1-1.1-2-2.3-2.7-3.8-.6-1.5-.9-3.1-.9-4.8s.3-3.4.9-4.8c.6-1.5,1.5-2.7,2.7-3.8,1.1-1.1,2.5-1.9,4.1-2.5,1.6-.6,3.2-.9,5.1-.9s4.2.4,6,1.2c1.7.8,3.2,1.9,4.3,3.4l-4.9,4.3c-.7-.8-1.4-1.5-2.2-2-.8-.5-1.7-.7-2.8-.7s-1.5.1-2.2.4c-.7.3-1.2.6-1.7,1.1-.5.5-.8,1.1-1.1,1.8-.3.7-.4,1.5-.4,2.4s.1,1.7.4,2.4c.3.7.6,1.3,1.1,1.8.5.5,1,.9,1.7,1.1s1.4.4,2.2.4,1.9-.2,2.8-.7c.8-.5,1.6-1.1,2.2-2l4.9,4.3c-1.1,1.5-2.6,2.6-4.3,3.4-1.7.8-3.7,1.2-6,1.2Z"/>
            <path class="cls-1" d="M94.5,201.2c-3.5,0-6.2-.9-8.2-2.8-2-1.9-2.9-4.6-2.9-8v-12.6h7.7v12.3c0,1.7.3,3,.9,3.7.6.7,1.5,1.1,2.5,1.1s1.9-.4,2.6-1.1c.6-.7.9-2,.9-3.7v-12.3h7.6v12.6c0,3.4-1,6.1-2.9,8-2,1.9-4.7,2.8-8.2,2.8Z"/>
            <polygon class="cls-1" points="136.5 200.7 136.5 177.8 130.1 177.8 122.9 190 115.5 177.8 109.1 177.8 109.1 200.7 116.1 200.7 116.1 190.6 121.1 198.6 124.5 198.6 129.5 190.3 129.5 200.7 136.5 200.7"/>
            <path class="cls-1" d="M157.4,200.7h8l-10-22.9h-7.6l-10,22.9h7.8l1.5-4h8.7l1.5,4ZM149.3,191.2l2.2-5.8,2.2,5.8h-4.4Z"/>
            <polygon class="cls-1" points="181.6 177.8 181.6 188.2 172.9 177.8 166.6 177.8 166.6 200.7 174.1 200.7 174.1 190.3 182.8 200.7 189.1 200.7 189.1 177.8 181.6 177.8"/>
            <path class="cls-1" d="M204.9,201.2c-1.9,0-3.6-.3-5.2-.9-1.6-.6-2.9-1.4-4.1-2.5-1.2-1.1-2.1-2.3-2.7-3.8-.6-1.5-1-3-1-4.8s.3-3.3,1-4.8c.6-1.4,1.5-2.7,2.7-3.8,1.2-1.1,2.5-1.9,4.1-2.5,1.6-.6,3.3-.9,5.1-.9s3.6.3,5.2.9c1.6.6,2.9,1.4,4.1,2.5,1.2,1.1,2.1,2.3,2.7,3.8.6,1.4,1,3,1,4.8s-.3,3.3-1,4.8c-.6,1.5-1.5,2.7-2.7,3.8-1.2,1.1-2.5,1.9-4.1,2.5-1.6.6-3.3.9-5.1.9ZM204.8,195c.7,0,1.4-.1,2-.4.6-.3,1.2-.6,1.6-1.1.5-.5.8-1.1,1.1-1.8.3-.7.4-1.5.4-2.4s-.1-1.7-.4-2.4c-.3-.7-.6-1.3-1.1-1.8-.5-.5-1-.9-1.6-1.1-.6-.3-1.3-.4-2-.4s-1.4.1-2,.4c-.6.3-1.2.6-1.6,1.1-.5.5-.8,1.1-1.1,1.8-.3.7-.4,1.5-.4,2.4s.1,1.7.4,2.4c.3.7.6,1.3,1.1,1.8s1,.9,1.6,1.1c.6.3,1.3.4,2,.4Z"/>
          </g>
        </g>
      </g>
    </g>
  </g>
</svg>