<?xml version="1.0" encoding="UTF-8"?>
<svg id="Capa_1" xmlns="http://www.w3.org/2000/svg" version="1.1" viewBox="0 0 698.9 170.8">
  <!-- Generator: Adobe Illustrator 29.3.1, SVG Export Plug-In . SVG Version: 2.1.0 Build 151)  -->
  <defs>
    <style>
      .st0 {
        fill: #fff;
      }
    </style>
  </defs>
  <g>
    <path class="st0" d="M257,33.1c-.7,0-1.6-.2-2.2-.2.3-.4,1.2-.4,2.2-.4v-4.5c-.2-.1-.6-.1-.6.2-.2,0-.2-.1-.3-.3v-.7c.4,0,.7,0,1-.1v-2.2c-.2.4-.7.6-1.3.7,0-.2.1-.3.3-.3,0-.4-1-.1-1-.7-.3-1.3,1.4-.2,1.3-1.4.9-.1-.2,1.9.6,1.8v-5.7h-53.5v10.5c.9,0,1.8-.2,2.8,0-1,.4-1.9.7-2.8.7v1.3h.2c0,.2-.1.3-.2.4v5.1h17.5v3.6c.6-.6,1.3,0,1.7-.2.9.7-.2,1.3-1,.7.2.3.7.3.6,1.1.9,0,1-.6,1.6-.7-1.3-.7,0-1.8,1-2.1-.9.4.6,1.4-.3,1.8.6,1.2,2.1,1.1,2.9.7.2,1.8-4.6,1.2-6.4.3v-.7,4h1.7c0,.4-.9.9-1.7.9v101.6h6.5c0-.6-.3-1.1-1.1-1,.7-1.1-.7-1.9.7-2.2-.2-1.2-1.1-1.8-2.6-1.9.6-1.1-.2-1.4.3-2.6,2.7.6.2-3.1,1.8-4.2.2.1.6.3,1.1.3.4,2.1-.2,2.9.3,4.2.3.6-2,.2-.7.6-.6,1.2-.6-.7-1.1-.6-1,.7.4,2,1.4,1.3-.3,1.7.6,4.3.1,6.1h2.8v-.6c.6.2.4.4.1.6h1.3c.2-.9,1,0,1.4,0h.9c.1-.2.3-.4,1-.6,0-1-.7-1.3-.7-2.2-.3,0-1,1.4-.3,1.3-.6.7-1.4-.9-.7-1.6-1.2,0,0,.9-1.4,1,0,.7.2,1.1,1.1,1-1.3,1-2.7-.9-3.2-1.6-.2-.9.7-.6.7-1.3-1.1-.6-1.4-6.8.3-7.4-.1-1.1-1.8-1.6,0-1.9,0-.7-1-.6-1.4-1,.2-1.1.6-2,.7-3.2-2-2.2,2-5.9-.7-8.7,1.1-.7.7-1.8,0-2.9,1.2-1.3,1.6,1.8,2.1,1,1.1,0-.9.9.7.6-2.2,2.7.2,7.2-1.8,8.7,2.1,1.8.9,4,.7,6.4,0,1.9,2.5,3.8-.3,4.5,1.3.4.9.9,1.4,2.2.7.1.7-.4.7-1,.4.9,1.4,1.1,1.4,2.2,1.4-.9-.9-3.3-1.1-4.8.3.9,1.9,1,1.4-.6.4,0,1.1,0,1.1-.3,1,.6.7,2.1,1.1,3.2-.6,0-.9-.6-.7-1.3-1.6.7,1.6,1.8,0,2.6.3.9.9-1,1.4,0-1.7,1.9-1.7,3.2-1.3,5.8h3.1V37.4h17.5v-4.3h-.2ZM219.1,27.4c-.2,1.7-1.9.7-2.6.7,0-.4.6-.6.6-1.1,1-.2,1,.6,1.9.3h.1ZM217.5,24.9c1,1.3-1.8.3-2.2,0,.6-1.7,1.9.7,2.2,0ZM218.3,29.3h-.2c-.3.4-.9.9-.9,1.7-2.1-.3-7.1-1.3-8.7-.3-.9-.7-1.3-.6-1.6-1.4.6.9,2.2-1,2.6.7,2.5-.7,6.2-1.1,8.5-.6h.1c0-.1,0,0,0,.1.1,0,.3,0,.4.1.4-.3,1-.4,1-1.4.2,1,1.2,1,1.3,2.1-.4.2-2.2,0-2.8-.9h.2ZM220.4,34.6c-.9,0-.7-1.1-1.6-1.1.7-.6,1.9-.7,3.2-.7-.3.7-1.2,1-1.6,1.8h-.1ZM221.3,29.9c-.2-1.3,1-1.1,1.9-1.1-.2,1.6-1,.4-1.9,1.1ZM241.4,23.8c.1.3.2.6.6.7-.7,1.8-1.9-1-2.2.7-1-.9,1-1.3,1.6-1.4h.1ZM231.3,21.2c0,1-.4,1.2-1.3,1.1,0-1,.4-1.2,1.3-1.1ZM230.3,25.6c-.9-.3-1.1-1.4-1.3-2.6,1.3-.1.9,1.7,1.3,2.6ZM226.8,114.2c.6.7.7,1.9.7,3.2-.7-.3-1-1.2-1.8-1.6,0-.9,1.1-.7,1.1-1.6h0ZM224.6,75.7c.6.2,1.9,0,1.8,1-.6,0-1.3-.1-1.4.3-.4,0-.2-.9-.3-1.3h0ZM224.9,133.3c1.1,0,2.6,0,2.6,1-1.2,0-2.6.1-2.6-1ZM227.1,123.7c-.6,0-.6-.2-1.1-.3.3-1.7.6-2.6.7-4.5,1.4.9.4,3.3.3,4.8h.1ZM223.6,33.5c.9-1.4,3.3-.4,4.8-.3,0,.6-.2.6-.3,1.1-1.7-.3-2.6-.6-4.5-.7h0ZM228.6,99c-1.4-.3,0-1.3-.3-2.6,1.3.2.6,1.8.3,2.6ZM232.6,75.2c-.4,2-2-.3-3.2,1,0-.2.1-.2.3-.3,0-1.2-1-2.1,0-3.5,1.4-.2,1.3,1.7.7,2.2,0,.9,1.2.6,2.1.6h.1ZM231.5,96.6c-.4,0-1.3.3,0,1-1.3,1.1,0,2.7-.7,4.2-1.7-3.3-.3-6.9-.7-10.6,2.2,0-.4,2.9,1.4,3.5-.7,0-1.1,1.3,0,1.9h-.1ZM230.1,83.2c2.7,2.2-.2,3.6.7,7.7-1.9-1.3-.6-5.6-.7-7.7ZM229.7,76.5c2.2-.2.6,1.2,1.4,2.2-.9.2-1.2.9-1.8,1.3-.2-.7.3-1.8.3-3.5h0ZM231.5,118.7c-1.6-.2-.6-1-1.1-1.9,1.3-.2,1.1,1,1.1,1.9ZM230.1,116.3c-.2-.4,0-2.2.9-2.8v-.2c-.4-.3-.9-.9-1.7-.9.4-2.1,1.3-7.1.3-8.7.7-.9.6-1.3,1.4-1.6-.9.6,1,2.2-.7,2.6.7,2.5,1.1,6.2.6,8.5h.1c0,.1-.1.1-.2.1,0,.1,0,.3-.1.4.3.4.4,1,1.4,1-1,.2-1.1,1.2-2.1,1.3h.1v.2ZM233,114.4c-1.7-.2-.7-1.9-.7-2.6.4,0,.6.6,1.1.6.2,1-.6,1-.3,1.9h-.1ZM231.8,70.4h2.1c0,.4-2.5,1.3-2.1,0ZM235.9,137.5c-1.8-.7,1-1.9-.7-2.2.9-1,1.3,1,1.4,1.6-.3.1-.6.2-.7.6h-.1ZM234.7,125.6c.3-.9,1.3-1.1,2.6-1.3.1,1.3-1.7.9-2.6,1.3ZM235.4,112.9c-1.3,1-.3-1.8,0-2.2,1.7.6-.7,1.9,0,2.2ZM238.4,70.1v1.3c-1.4.2-1.4-1.6,0-1.3ZM239.1,126.6c-1,0-1.2-.4-1.1-1.3,1,0,1.2.4,1.1,1.3ZM233.4,42.6c.4-1.3,4.6-.7,5.8-.3-1.3.4-4.9.2-5.8.3ZM238,35.3c0-1.1,0-2.6,1-2.6,0,1.2.1,2.6-1,2.6ZM239.5,29.2c-.7,0-.6,1-1,1.4-1.1-.2-2-.6-3.2-.7-2.2,2-5.9-2-8.7.7-.7-1.1-1.8-.7-2.9,0-1.3-1.2,1.8-1.6,1-2.1,0-1,.9.9.6-.7,2.7,2.2,7.2-.2,8.7,1.8,1.8-2.1,4-.9,6.4-.7,1.9,0,3.8-2.5,4.5.3.4-1.3.9-.9,2.2-1.4.1-.7-.4-.7-1-.7.9-.4,1.1-1.4,2.2-1.4-.9-1.4-3.3.9-4.8,1.1.9-.3,1-1.9-.6-1.4,0-.4,0-1-.3-1.1.6-1,2.1-.7,3.2-1.1,0,.6-.6.9-1.3.7.7,1.6,1.8-1.6,2.6,0,.9-.3-1-.9,0-1.4,2.2,2,3.8,1.7,7.7,1.1-.2,1.6.7,1.9,1.6,2.1.2,1.2-.4,1.1-.6,1.8-1.2-3.1-2.8,0-3.5-2.6-1,0-1.3.7-2.2.7,0,.3,1.4,1,1.3.3.7.6-.9,1.4-1.6.7,0,1.2.9,0,1,1.4.7,0,1.1-.2,1-1.1,1,1.3-.9,2.7-1.6,3.2-.9.2-.6-.7-1.3-.7-.6,1.1-6.8,1.4-7.4-.3-1.1.1-1.6,1.8-1.9,0h-.1ZM252.2,29.6c.4-1.2.7.7,1.6.3v.7c-.2.2-.4.3-1,.3v-1.4h-.6ZM252,33.8c-1.1-.7-1.9.9-2.2-.7-1.2.2-1.8,1.1-1.9,2.6-1.1-.6-1.4.2-2.6-.3.6-2.7-3.1-.2-4.2-1.8.1-.2.3-.6.3-1.1,2.1-.4,2.9.2,4.2-.3.6-.3.2,2,.6.7,1.2.6-.7.6-.6,1.1.7,1,2-.4,1.3-1.4,2.1.4,6-1.3,7.4.7-.4-.4-2.6-.7-2.2.7h-.1ZM254.1,28.5c-.9.4-1-1.4-1.3-.3-1-.3.2-1.2,0-1.8.2,0,.2.1.3.3.2-.1.6-.3.6-.7.9.3-.7,1.4,1,1.1,0,.7-.9.4-.6,1.4h0Z"/>
    <path class="st0" d="M573.4,128h0v-61.5c-1.1,0-1.1-1.4,0-1.4v-19.3c0-17.8-8.7-26.6-26.3-26.6s-6.6.3-9.5,1.1h0c-2.6.7-4.9,1.7-6.9,2.9.4-.2,1.1-.2,1.7-.3.2,1.6-1.9.9-2.9,1.4,0-.1,0-.2.1-.3-1.8,1.3-3.3,2.9-4.6,4.8,2.2,2.1.7,4.5.7,7.1s2.8,4.3-.4,5c1.4.6.9,1.1,1.7,2.6.9.1.8-.4.8-1.1.4.9,1.7,1.2,1.7,2.6,1.7-.9-.9-3.8-1.2-5.5.4.9,2.2,1.1,1.7-.7.6,0,1.2,0,1.2-.3,1.1.6.8,2.3,1.2,3.7-.7,0-.9-.6-.8-1.4-1.8.8,1.8,2,0,2.9.3.9.9-1.1,1.7,0-2.2,2.7-1.9,4.3-1.3,8.7-1.8-.2-2.1.8-2.5,1.8-1.3.3-1.3-.6-2.1-.7,3.6-1.4,0-3,2.9-4,0-1.1-.7-1.6-.8-2.6-.3,0-1.1,1.7-.4,1.4-.6.7-1.7-.9-.8-1.8-1.4,0,0,.9-1.7,1.1,0,.8.3,1.2,1.2,1.1-1.6,1.1-3-.9-3.7-1.9-.2-.9.8-.7.8-1.4-1.3-.7-1.7-7.8.4-8.4-.2-1.3-2-1.8,0-2.1-.1-.7-1.1-.7-1.7-1.1.2-1.2.7-2.3.8-3.7,0,0,0-.1-.1-.2-1.2,2.1-2.1,4.6-2.7,7.4.4,2.2-.2,3,.3,4.6.2.3-.7.3-1.1.4v.2h.2c-.1.2-.2.3-.3.4v.6c.2,0,.4,0,.7-.2-.4,2.3,1.6,6.8-.8,8.4v25.3h18.3v-24.1c-1.3-1.2-.1-3.3-1.4-4.9,3.2-1.1-1.3-8,1.7-10.1v5.6c.7-3.9,3.3-5.9,7.7-6h.1c5.3,0,7.9,2.8,7.9,8.6v45.7c-22.5,2.2-33.8,14-33.8,35.3s1.6,12,4.6,16.5c3,4.5,7.6,6.7,13.6,6.7s4-.3,5.9-.8c0-.7.4-1.3,1.3-.8v.3c1.6-.6,3-1.6,4.3-2.6-.6-1.4.6-3-.2-4.7,1.3,1.1,1.1,2.5.8,4.1,1.7-1.4,3-3.3,4.2-5.5l1.3,7.8h1.2c.3-1.1-.2-1.4.2-2.6,2.9.7.2-3.6,2.1-4.7.3.2.7.3,1.2.3.4,2.3-.2,3.2.3,4.7.3.7-2.3.2-.8.7-.7,1.4-.7-.8-1.2-.7-1.2.8.6,2.3,1.7,1.4v.7h2.6c-.6-2.2-.3-6.5,1.2-6.9-.2-1.3-2-1.8,0-2.2-.1-.7-1.1-.7-1.7-1.1.2-1.2.7-2.3.8-3.7-2.3-2.5,2.3-6.7-.8-9.8,1.3-.8.8-2.1,0-3.3,1.3-1.4,1.8,2.1,2.5,1.1,1.2,0-.9.9.8.7-2.6,2.9.3,8.1-2.1,9.8,2.5,2.1.9,4.5.8,7.4,0,2.1,2.8,4.3-.4,5,1.4.6.9,1.1,1.7,2.6.9.1.8-.4.8-1.1.3.6.9.9,1.3,1.4h.8c0-1.3-1.6-3.2-1.8-4.3.4.9,2.2,1.1,1.7-.7.6,0,1.2,0,1.2-.3,1.1.6.8,2.3,1.2,3.7-.7,0-.9-.6-.8-1.4-1.8.8,1.8,2,0,2.9.3.9.9-1.1,1.7,0-.1.1-.2.2-.2.3h.3v-19.1c-.1-.2-.1-.6,0-.9h.6-.3ZM530.9,37.6c-2-.8,1.1-2.1-.8-2.6.9-1.2,1.6,1.1,1.7,1.9-.3.1-.7.3-.8.7h-.1ZM521.7,57.7c-1.4-1.2-.3-3.7-.3-5.5,1.1.7.4,3.9.3,5.5ZM524.6,51.1h-.8c-.2-.2-.4-.6-.4-1.1h1.7v-.7c1.4.6-.8.9-.4,1.8h.1-.1ZM526.3,51.6c-.6-.9,1.7-1.2.4-1.4.3-1.1,1.3.2,2.1,0,0,.3-.1.3-.4.3.2.3.3.7.8.7-.3.9-1.7-.8-1.2,1.1-.8,0-.6-.9-1.7-.7h-.1.1ZM527.9,55.6c-.3-.2-.7-.3-1.2-.3.2-.2.6-.9,0-1.1,0-.3.1-.3.4-.3h.8c-.2,1.2.7,1.2,0,1.9h-.1.1ZM530.9,54.8c-.6-.2-.7-.8-.8-1.4.3,0,.3.1.4.3.6,0,.1-1.1.8-1.1,1.6-.3.3,1.7,1.7,1.4.2,1.1-2.2-.2-2.1.7h0ZM534.5,25.4c-1.1,0-1.3-.4-1.2-1.4,1.1,0,1.3.4,1.2,1.4ZM537.9,23.8c-.9-.2-1.2-2.2.4-2.1,0,.9,0,1.8-.4,2.1ZM542.4,23.5c-.9-.4-.1-2.6-.4-3.7,1.2,1.1.7,2.9.4,3.7ZM551.7,94.1c1.4.3-.1,1.4.8,1.8,0,.3-.4.2-.4,0-.7,0-.8.4-1.7.3.1-.9,1.2-1.1,1.2-2.1h.1,0ZM552,105.2c-1.9-.1.1-2.7-.8-2.9,2.1-.7.1,2,.8,2.9ZM547.9,96.8c.6-.6,1.9.2,2.1,1.1-1.2,0-2.2,0-2.1-1.1ZM546.3,100.4c1.1,0,.9,1.3.4,1.8-1.1,0-.9-1.3-.4-1.8ZM546.3,102.5c1.1,0,.1,1.3,0,1.4-.8-.2-.2-1.7-1.2-1.8.7-1.7.9,1.8,1.2.3ZM550.7,138.6c-.6-1.4-.2-5.6-.3-6.6,1.6.6.8,5.2.3,6.6ZM555.3,115.6c0,11-4,16.9-11.8,17.6-2.5,0-3.7-2.7-3.7-8.2,0-8.1,5.2-13.5,15.6-16v6.7h-.1ZM560.6,115.3c.7.8.9,2.1.8,3.7-.8-.4-1.2-1.4-2.1-1.8,0-.9,1.3-.8,1.2-1.8h.1,0ZM558.3,71.6c.7.3,2.2,0,2.1,1.1-.6,0-1.6-.2-1.7.3-.6,0-.3-.9-.4-1.4ZM558.6,137c1.3,0,2.8,0,2.9,1.1-1.3,0-2.9.1-2.9-1.1ZM561.1,126.2c-.7,0-.7-.3-1.2-.3.3-2,.7-2.9.8-5,1.7.9.4,3.8.3,5.5h.1ZM564.1,67.6c1.7-.3,1.4,2,.8,2.6,0,.9,1.4.7,2.5.7-.4,2.2-2.3-.4-3.7,1.1,0-.3.1-.3.4-.3,0-1.4-1.1-2.5,0-4h-.1.1ZM566.1,95.4c-.4,0-1.4.4,0,1.1-1.4,1.3,0,2.9-.8,4.7-1.9-3.9-.4-7.9-.8-12,2.6,0-.6,3.3,1.7,4-.8-.1-1.3,1.6,0,2.1h-.1ZM564.4,80c3,2.6-.2,4,.8,8.7-2.1-1.6-.7-6.2-.8-8.7ZM562.7,98.1c-1.7-.3,0-1.4-.4-2.9,1.4.2.7,2.1.4,2.9ZM564.1,72.4c2.6-.2.7,1.3,1.7,2.6-.9.2-1.4.9-2.1,1.4-.3-.7.3-2,.4-4ZM566.1,120.4c-1.8-.3-.6-1.2-1.2-2.2,1.6-.2,1.3,1.1,1.2,2.2ZM564.4,117.9c-.3-.4,0-2.6,1.1-3.2v-.2c-.6-.4-.9-.9-1.9-.9.4-2.5,1.4-8,.4-9.8.8-1.1.7-1.6,1.7-1.8-.9.7,1.2,2.7-.8,2.9.8,2.7,1.3,7,.6,9.7h.1c0,.1-.1.1-.2.2,0,.2,0,.4-.1.6.3.4.6,1.2,1.7,1.1-1.1.2-1.2,1.4-2.5,1.4h-.1ZM567.8,115.6c-1.9-.2-.8-2.2-.8-2.9.6.1.6.6,1.2.7.2,1.1-.7,1.1-.4,2.2h.1-.1ZM566.5,65.4h2.5c0,.6-2.7,1.4-2.5,0ZM570.5,111.3c1.9.7-.8,2.1,0,2.6-1.4,1.2-.3-2,0-2.6ZM570.9,141.8c-2-.7,1.1-2.1-.8-2.6.9-1.2,1.6,1.1,1.7,1.9-.3.1-.7.3-.8.7h-.1ZM569.8,128.3c.3-1.1,1.6-1.3,2.9-1.4.2,1.6-1.9.9-2.9,1.4h0Z"/>
    <path class="st0" d="M435,121.9c0,3.6-.3,6.7-1,9.5-1.4,5.6-4.2,9.9-8.4,12.7-2.1,1.4-4.6,2.5-7.2,3.2s-5.9,1.1-9.4,1.1-6.6-.3-9.4-1.1c-11.1-2.9-16.6-11.3-16.6-25.4V19.5h18.2s0-.8,0,3.3c0-.7,0,0,0,1.4v4.7c0,1.6,0,2.8,0,2.7v-4.8c0-2.8,0-3.3,0-2.3v10.8c0,.2,0,0,0-1v-10.8c0-.6,0,0,0,2v10.4c0,.8,0-.4,0-.2v8.2c0-3.1,0,.4,0-.4s0,2.6,0,5.3v7.2c0,.4,0,.3,0-.2v-10.6,4.7c0-2.5,0-.7,0,.4s0,1.7,0-3.2,0-4.7,0-4.6v14.5c0-5,0-2,0-3.6s0-2.9,0-1.9v22.2-11.1,7.4c0,1.2,0,1.9,0,1,0-2.2,0,7.4,0,2.5s0,0,0,2.2,0,4.5,0,3.8c0,2.1,0,2.2,0,1.4v-8.8c0-.9,0-.8,0,1.1,0-.2,0-1,0-.8v10.7c0,2,0,2.3,0,0,0,4.8,0,2.2,0,0,0-3.2,0-1.9,0,.3v32.8c0,3.1,0,3.7,0,1.9v3.3c0,2.9.7,4.9,2,6.4.7.7,1.4,1.2,2.5,1.6,1,.3,2.1.6,3.5.6s2.5-.2,3.6-.6,1.9-.9,2.5-1.6,1.2-1.6,1.4-2.7c.3-1.1.4-2.3.4-3.8v-61.6c0-3,0-4.7,0-2.9s0-.7,0-3.7v-22.5c0-.9,0-1,0,.4v-11.9h18.2v102.5h0v.2h-.2Z"/>
    <path class="st0" d="M314.9,121.9c0,3.6-.3,6.7-1,9.5-1.4,5.6-4.2,9.9-8.4,12.7-2.1,1.4-4.6,2.5-7.2,3.2s-5.9,1.1-9.4,1.1-6.6-.3-9.4-1.1c-11.1-2.9-16.6-11.3-16.6-25.4V19.5h18.2s0-.8,0,3.3c0-.7,0,0,0,1.4v4.7c0,1.6,0,2.8,0,2.7v-4.8c0-2.8,0-3.3,0-2.3v10.8c0,.2,0,0,0-1v-10.8c0-.6,0,0,0,2v10.4c0,.8,0-.4,0-.2v8.2c0-3.1,0,.4,0-.4s0,2.6,0,5.3v7.2c0,.4,0,.3,0-.2v-10.6,4.7c0-2.5,0-.7,0,.4s0,1.7,0-3.2,0-4.7,0-4.6v14.5c0-5,0-2,0-3.6s0-2.9,0-1.9v22.2-11.1,7.4c0,1.2,0,1.9,0,1,0-2.2,0,7.4,0,2.5s0,0,0,2.2,0,4.5,0,3.8c0,2.1,0,2.2,0,1.4v-8.8c0-.9,0-.8,0,1.1,0-.2,0-1,0-.8v10.7c0,2,0,2.3,0,0,0,4.8,0,2.2,0,0,0-3.2,0-1.9,0,.3v32.8c0,3.1,0,3.7,0,1.9v3.3c0,2.9.7,4.9,2,6.4.7.7,1.4,1.2,2.5,1.6,1,.3,2.1.6,3.5.6s2.5-.2,3.6-.6,1.9-.9,2.5-1.6,1.2-1.6,1.4-2.7c.3-1.1.4-2.3.4-3.8v-61.6c0-3,0-4.7,0-2.9s0-.7,0-3.7v-22.5c0-.9,0-1,0,.4v-11.9h18.2v102.5h0v.2h-.2Z"/>
    <path class="st0" d="M375.1,121.9c0,16.9-8.1,25.9-24.6,26.4h-1.4c-.4-1-.4-2.1-1.7-2.1s-1.2,1.2-2.5,2c-.7,0-1.3-.1-1.9-.2-3.1-.4-5.9-1.3-8.2-2.5-1.9-1-3.6-2.2-5-3.7s-2.3-3.1-3.6-5.1c-.7-2-2.1-4.1-2.3-6.6-.6-2.5-.8-5.1-.4-8,.7,0,.3-3,0-7.9.2-2.5.1-5.3.2-8.6.2-3.2.2-6.7-.2-10.4,1.2-3.7.9-7.5.3-11.3.1-3.8-.1-7.6-.3-11.3-.6-3.7-1.1-7.1,0-10.4,1-3.2.7-6.1,0-8.6.1-4.9-.4-7.9,0-7.9,0-2.9.9-5.6,1-8,0-2.5,1.3-4.6,1.9-6.6,1-1.9,2.1-3.7,3.6-5.1,1.4-1.4,3.1-2.7,5-3.7s4-1.7,6.5-2.2c1.8-.3,3.5-.6,5.5-.7h1.2c1.9.9.7,3.2.7,4.5,2.3,0,0-3.6,1.9-3.9.2-.1.6-.3,1-.6.8,0,1.4,0,2.1.1,4.1.3,7,1.2,9.9,2.8,7.7,3.9,11.5,11.6,11.5,23.4,0,0-.3,3.3,0,7.9.2,4.6.2,10.1,0,14.7-.2,4.6.4,7.9,0,7.9h-9c-4.3,0-10,0-9,0s-.4-3.3,0-7.9c-.1-4.6-1-10.1,0-14.7v-7.9c-.4-2.8-.8-4.9-2-6.4-.9-.9-2.1-1.6-3.5-1.9-.7-.1-1.4-.2-2.3-.2.9,0-.6,0-.1,0-2.1,0-4.8.7-5.8,2.1-1.2,1.4-1.6,3.6-1.9,6.4-.4,0-.2,3,0,7.9.9,4.9-.1,11.6,0,19.1.3,4.9.4,10,.3,15.2,0,.7,0,1.2-.2,1.9-1,.9-1,2,0,3.8,0,.7,0,1.2-.1,1.8-.9,7.4.8,14,0,19.1v7.9c0,5.7,2.6,8.5,7.8,8.5s4.6-.7,5.9-2.1,2-3.6,2-6.4c-.6,0,.8-5.1,0-10.1-.2-5.1,1.1-10.1,0-10.1h18.2c-.6,0,.1,5.1,0,10.1v10.1h-.2v-.6Z"/>
    <path class="st0" d="M698.7,121.9c0,16.9-8.1,25.9-24.6,26.4h-1.4c-.4-1-.4-2.1-1.7-2.1s-1.2,1.2-2.5,2c-.7,0-1.3-.1-1.9-.2-3.1-.4-5.9-1.3-8.2-2.5-1.9-1-3.6-2.2-5-3.7s-2.3-3.1-3.6-5.1c-.7-2-2.1-4.1-2.3-6.6-.6-2.5-.8-5.1-.4-8,.7,0,.3-3,0-7.9.2-2.5.1-5.3.2-8.6.2-3.2.2-6.7-.2-10.4,1.2-3.7.9-7.5.3-11.3.1-3.8-.1-7.6-.3-11.3-.6-3.7-1.1-7.1,0-10.4,1-3.2.7-6.1,0-8.6.1-4.9-.4-7.9,0-7.9,0-2.9.9-5.6,1-8,0-2.5,1.3-4.6,1.9-6.6,1-1.9,2.1-3.7,3.6-5.1s3.1-2.7,5-3.7,4-1.7,6.5-2.2c1.8-.3,3.5-.6,5.5-.7h1.2c1.9.9.7,3.2.7,4.5,2.3,0,0-3.6,1.9-3.9.2-.1.6-.3,1-.6.8,0,1.4,0,2.1.1,4.1.3,7,1.2,9.9,2.8,7.7,3.9,11.5,11.6,11.5,23.4,0,0-.3,3.3,0,7.9.2,4.6.2,10.1,0,14.7-.2,4.6.4,38.1,0,38.1h-9c-4.3,0-10,0-9,0,3,0,.3,0,.3,0l-.3-38.1s-.3-4.7-.4-7.4c-.1-2.6,0-5.1.4-7.4v-7.9c-.4-2.8-.8-4.9-2-6.4-.9-.9-2.1-1.6-3.5-1.9-.7-.1-1.4-.2-2.3-.2.9,0-.6,0-.1,0-2.1,0-4.8.7-5.8,2.1-1.2,1.4-1.6,3.6-1.9,6.4-.4,0-.2,3,0,7.9.9,4.9-.1,11.6,0,19.1.3,4.9.4,10,.3,15.2,0,.7,0,1.2-.2,1.9-1,.9-1,2,0,3.8,0,.7,0,1.2-.1,1.8-.9,7.4.8,14,0,19.1v7.9c0,5.7,2.6,8.5,7.8,8.5s4.6-.7,5.9-2.1,2-3.6,2-6.4c-.6,0,.8-5.1,0-10.1v-2.9c0-1.9.3-2.7.3-4.1s.6-1.8.2-3.1h17.5c-.6,0,.1,5.1,0,10.1v10.1h-.2v-.6Z"/>
    <path class="st0" d="M477.4,85.3s-6.1-10.4-10.8-18.4c-.2-.4-.6-.9-.8-1.2-1.1.2-1.1-.9-1.4-2.8-.4-.8-.9-1.6-1.2-2.2-1.1-2.1-2-3.3-2-3.3v33.5c0,13,1.2,27.8,0,41.6v15.8h-17.9v-5.6c0-3.6.1-8.5,0-14.6.3-6,.4-13.2,0-20.6-.2-7.6,0-15.7,0-23.7.2-8,.2-16.2,0-23.7.2-7.6,0-14.6,0-20.6-.3-6,.4-11,0-14.6-.3-3.6,0-5.6,0-5.6h14.6s2.8,4.7,6.2,10.5c.2.4.6,1,.9,1.9-.1,3.7-.1,7.2,4.6,7.4.3.4.6,1,.9,1.4,3.9,6.6,7.1,12,7.1,12l19.7-33.3h14.6v5.6c-.3,3.6.4,8.5,0,14.6.6,6,.6,13.2,0,20.6-.2,3.8.1,7.7,0,11.6-.3,3.9.1,7.9,0,12,0,4,.2,8,0,12-.3,3.9,0,7.8,0,11.6-.4,3.8.3,7.4,0,10.9,0,3.5-.4,6.8,0,9.8-.6,6,0,11,0,14.6v5.6h-17.9s-.3-2.6,0-6.7c.7-4.1.7-10.1,0-16.8-.3-6.7,0-14.3,0-21.8-.8-7.6-.7-15.2,0-21.8.4-6.7.4-12.7,0-16.8-.3-4.2.1-6.7,0-6.7-.2,0-2,3.1-4.2,7.2-2.7,4.1-5,9.4-7.9,13.5-2.5,4.1-4.2,7.2-4.2,7.2h-.1Z"/>
    <polygon class="st0" points="601.6 72.6 601.6 57.9 618.7 88 618.7 148.1 636.7 148.1 636.7 19.1 618.9 19.1 618.9 54.6 598.7 19.1 583.4 19.1 583.4 26.9 583.4 26.9 583.4 26.9 583.7 92.9 583.7 148.3 601.6 148.3 601.6 72.6 601.6 72.6"/>
  </g>
  <g>
    <polygon class="st0" points="118.5 137.6 108.1 127.2 100 135.4 91.9 127.2 83.7 135.4 75.5 127.2 65 137.6 75.5 148.1 83.7 139.9 91.9 148.1 100 139.9 108.1 148.1 118.5 137.6"/>
    <g>
      <path class="st0" d="M168.5,121.6c.9-1.7,1.1-3,1.2-4.5l-.6-1.1c0,.6,0,1.1-.2,1.7.3,1-.6,2.7-.3,4h-.1Z"/>
      <path class="st0" d="M172.1,101.6v1c-.2,1.1-1.1,2.6-1.6,3.9-.2.6-.3,1.2-.6,1.8,1.2-1,2.3-2,3.3-3.1.2-.4.3-.8.4-1.1-.2-1.3.8-2.6,1.2-4.1.3-1.3.6-2.8,1-4.1.3-1.2.9-2.6,1.3-3.9.2-.3.4-.6.7-1,.4-2,.6-3.6,1-5.6,0-.7-.2-1.6.2-2.1-.2,0-.3-.2-.6-.2,0,1-.7,1.6-1,2.5s0,1-.2,1.3c-.2.6-.4,1.1-.7,1.8-1,3-1.8,6.5-2.9,8.9-.2.3-.6.7-.6,1.1v.7c-.2.8-.9,1.6-1,2.2h-.2Z"/>
      <path class="st0" d="M129.1,64.7c-.2.2,0,.2-.2.6.2.2.6-.6.2-.6Z"/>
      <path class="st0" d="M177.9,79c.9.6.9,2,1,3.2.2-1,.4-1.9.6-2.8v-5.6c-.2.6-.3.8-.6,1.3-.6,1.2-.7,2.6-1,3.8Z"/>
      <path class="st0" d="M170.6,118.8c-.2-.2-.2.2-.3.2-.4,1.6-1,2.6-1.4,4-.8,2.3-.6,4.6-1.1,6.8-1,3.7-2,6.9-2.9,9.9-.2.6,0,1.2-.6,1.6-.2-4.5,3.3-11.3,3.3-15.4-.4.3-.7,1.2-.9,2-2.2,3.1-4.9,4.2-7.5,6.4,0,.2-.2.4-.2.6l6.5,13.4h20.4l-15-29.5v.2h-.2Z"/>
      <path class="st0" d="M161.4,130.2c1.1-1.3,2.5-2.5,3.6-3.7,1.7-4.5,1.4-8.4,1.7-12.1,0-.2.2-.3.2-.6-.3-.7,0-1.6,0-2.5l-.4-1c.3-.2.6-.3.9-.6-.3-2.1,1.2-5.1,1.3-7.2,1.2-2.5,1.4-5.7,2.6-7.5.8-2.5,1.6-4.9,2.1-7.1.4-1.6.2-3,.6-4.5,0-.4.6-1.3.7-1.8,0-.3,0-.9.2-1,.7-1.3,1.9-1.1,2.6-3.1.2-.4-.2-.3-.2-.6.3-.9.6-2.2,1.2-2.6.4-1.8.7-3.3,1-5.1v-11c-.9,1.3-1.8,2.8-2.1,4.9h-.2c0,.8-.6,1-.9,1.8-.3,1.1,0,2.3,0,3.2-.2.2-.3.3-.6.6-.3-.6,0-1.8,0-2.6s0-1.3.4-2.6c.3-.7.9-1.2,1.1-1.9.2-.6.2-1.6.7-1.8v-.9c.2-.6.6-.6.8-1.4.3-.2.6-.4.9-.9v-10.7c0-1.3,0-2.6-.2-3.7-.2.7-.6,1.4-.9,2.2-.2-.6.3-1,.4-1.3,0-.3.2-.7.3-1.1-1.2-15.5-9.4-23.2-24.6-23.2h-27.1v48.3c.2-.6.6-1.1.8-1.8.2-.2.2,0,.2.2-.2-1.9,1.7-3,2-4.9.2.2.2-.2.3-.2.4-1.6,1-2.6,1.4-4,.8-2.3.6-4.6,1.1-6.8,1-3.7,2-6.9,2.9-9.9.2-.6,0-1.2.6-1.6.2,4.5-3.3,11.3-3.3,15.4.4-.3.7-1.2.9-2,2.2-3.1,4.9-4.2,7.5-6.4.4-1.3.2-1,.4-2.5,0-1-1.1-1.8-.8-2.9-1.3-1.4-.6-4.8,0-8,.2-1.6.2-2.1.9-3.8.2-.8.7-1.1,1-1.8v-.6c.3-.7,1.1-1.3,1.6-2.1.3-.7.2-1.4.9-1.8.2-1.2,1-2.6,1.8-3.2.7.4-.6,1.6-.2,1.9,0,.2-.2.2-.3.4-.9,4.1-3.8,6-4.7,10.3-.4,2.1-.6,3.8-.8,6,.2.3.7.8.6,1.8.6,1.4,1.3,3.5,1.1,6-1,2.1-2.5,2.9-3.7,3.9-1.1,1.3-2.5,2.5-3.6,3.7-1.7,4.5-1.4,8.4-1.7,12.1,0,.2-.2.3-.2.6.4,1,0,2.1,0,3.3s-.3,0-.3.4c.3,2.1-1.2,5.1-1.3,7.2-1.2,2.5-1.4,5.7-2.6,7.5-.8,2.5-1.6,4.9-2.1,7.1,0,.3-.2.7-.2,1v55.6h18.6v-34.2h2.6l9.5,19.4c1-1.4,2.1-2.1,3.2-3v.4ZM146.1,96.1v-58.8h6.6c5.3,0,8,2.9,8,8.8v41.2c0,4.1-1.7,6.8-5,8.2-1,.3-2.8.6-5.2.6h-4.3Z"/>
      <path class="st0" d="M127.5,81.7c.2-.2.3-.4.4-.7v-.7c.2-.8.9-1.6,1-2.2v-1c.2-1.1,1.1-2.6,1.6-3.9.2-.7.3-1.2.6-1.8.4-1.4.2-2.1.3-3.1,0-.9.3-1.8.4-2.6,0-1-.2-2.2.2-3.5-.3-1,.6-2.7.3-4-1.7,3.1-1,5.3-1.7,8.4-.8,1.4-1.2,3.5-2,4.5,0,1.1-.9,2.7-1.3,4v6.6h.1Z"/>
    </g>
    <path class="st0" d="M48.7,145.5c1.3-4.9-.4-9.3-.8-14.2-.6-.9-.2-2.8-.6-4-.9,4.8,1.3,9-.3,13.5.3,1.7-.7,4.1-.2,5.9.7-.3,1.3-.8,2-1.3h-.1Z"/>
    <path class="st0" d="M45.6,134.7c-.2.2,0,.2,0,.6.3,0,.3-.6,0-.6Z"/>
    <path class="st0" d="M52.3,107.1c7.5,9.5-7.6,11.1-1.3,26.7v.7c1,2.6.9,5.3,1,8.4,8.9-9.6,8-30.9-1-41.6,0,1.3.3,2.7.6,4.1.2.2.9.6,1,1.6h-.2Z"/>
    <g>
      <path class="st0" d="M75.8,117.5c0-.4,0-.2-.3-.2,0-.3.3-.6.2-1.2,0-.3-.2-.4-.4-.6v1.1c-.2,0-.4.4-.6.7,0,0,0,.2.2.3.2.2.4.2.6.4,0-.2,0-.6.2-.6h.2-.1Z"/>
      <path class="st0" d="M66.8,21.4c-.4,1.6-.3,3.7-.8,4.9.2,1.3-.3,3.3-.4,4.8.6,1.3-.2,2.8-.2,4.2v4.2c0,1.1-.2,2.3-.2,3.5v7.5c.2.6.6,1.3.2,2,.2,0,.3,0,.6.2-.2-1,.3-1.7.4-2.6v-1.3c0-.3.2-1.2.2-1.9.2-3.2.2-6.8.6-9.4,0-.3.3-.8.3-1.2s-.2-.6-.2-.7c0-.8.4-1.8.6-2.5,0-.3-.2-.6-.2-1,0-1.1.6-2.8.6-4.1v-1.9c0-1.6-.2-2.1-.4-3.1-.2-.8,0-1.8-.2-2.6,0-.3-.2-.7-.2-1h-.7c0,.7.2,1.4.2,2.2h0v-.3Z"/>
      <path class="st0" d="M67.6,99.3c0-.9-.3-1.4,0-2.3-.3-1.6-1.7-2.7-1.8-4.7-.2-2.5.7-4.2,1.4-5.6,0-1.4-.4-3.2,0-4.9-.7-2.1,0-4.9-.2-7.4.4-1.1.2-2.6.2-4.1s.3-3.6.3-5.2-.2-1.3-.2-2.1c0-1.6,0-1.9.2-2.9.2-1.3,0-2.6,0-3.9-1-.3-1.3-1.7-1.8-2.9,0,2.7,0,4.7.2,6.9-.2.6-.2,1.6-.3,2.3,0,.2-.2.4-.3.7v1.3c0,.2,0,.6-.2.9v29.2c0,3.3.2,6.2.9,9,.3,0,.7.2,1.1.3-.2-1.9.3-3.5.4-4.8v-.2.3Z"/>
      <path class="st0" d="M99.9,19v75.7c0,5.8-2.7,8.8-8.1,8.8s-8-2.9-8-8.8V19h-13.9v.7c.6.8.4,2.1.8,3.3,0,.4-.2.2-.2.6.9,2,0,5.2.6,7.4-.6,2.6,0,5.8-.6,7.9-.2,2.6-.2,5.1-.3,7.5,0,1.7.4,3,.6,4.5,0,.4-.2,1.3-.2,1.9v1.1c-.3,1.4-1.7,1.6-1.8,3.7,0,.6.2.2.3.6-.2,1,0,2.3-.6,2.7,0,2.9.6,5.3,0,8.4.2,3.9-.8,8.6.3,12.1,0,1.3.3,1.8.2,3.3.6-.8,1-1.8,1.3-2.9-.2-4.1,2-6,1.8-10.1h.2c-.2-.8.3-1.3.3-2,0-1.2-.6-2.2-.8-3.1.2-.2.2-.4.4-.7.6.6.6,1.7.8,2.5.2.6.4,1.2.2,2.6-.2.8-.6,1.3-.6,2.1s0,1.7-.2,1.9c0,.3,0,.6.2.8,0,.6-.4.8-.3,1.7-1.2,1-1,4-1.1,6,0,.4-.2.2-.3.4.2,3.3-.2,6,0,9.1,0,2,.6,3.7.2,6.2,0,.4-.2.3-.3.6.2.7.2,1.9.6,2.7.3,0,.6-1.1,1-.8-.2.4-.6.6-.8,1-.2,2.7.4,5,.6,7.7.4,0,.4-.8.9-1v1c.3,0,.6-.4.7-.8,0-.3-.2.2-.4-.2,0-.7.2-1.1.8-1,0-.6,0-1,.4-1.2.4-3.7,0-5.9.7-8.8,0-1.4.2-3.7.6-4.9,0-.9,0-2.1.2-3.3.3.6,0,1,0,1.4-.2,2.1,0,4.6-.3,6.8,0,1.1-.3,2-.3,3.7s0,.4.2.7c.2,2-.4,4.2-.2,6.5.4,0,.8-.6,1-1v-5.6c.9.4.8,1.3,1,2.8,0,.4-.2,1-.3,1.2,0,4.2.3,8-.3,12.4,4.1,2.5,9.5,3.7,15.9,3.7,17.8,0,26.7-9.1,26.7-27.2V19h-19.4Z"/>
    </g>
    <g>
      <path class="st0" d="M4.7,45q-.2.2-.3.2v2.8c.6-1.6,1.1-4,.9-5-.2,0-.4.2-.6.4v1.2q.2.2.3.6h0l-.3-.2Z"/>
      <path class="st0" d="M5.5,42.5c0-.3,0-.6-.2-.8-.2.2-.2.3-.4.6.2.2.3.6.6.2h.1Z"/>
      <path class="st0" d="M31.2,17c-8.6-.4-14.5,1.7-18.6,5.3-.2.8-.4,1.7-.6,2.6-.3,2-.4,3.7-1.3,6.1,0,.4-.2.3-.4.4,0,.8-.2,1.9-.2,2.8.3,0,.9-1,1-.6-.2.3-.6.4-1,.7-1,2.6-.9,5-1.3,7.6.4,0,.6-.7,1-.7-.2.2-.2.6-.3.9.3,0,.6-.2.9-.6,0-.3-.3.2-.3-.2.2-.6.6-1,1-.9.2-.6.2-1,.7-1,1.3-3.3,1.3-5.7,2.8-8.4.4-1.4,1.1-3.5,1.7-4.6,0-.9.6-2.1,1-3.2.2.6-.3,1-.4,1.3-.7,2.1-1.2,4.5-2,6.5-.4,1-.8,1.8-1.2,3.5v.7c-.2,2-1.3,4.1-1.7,6.1.6,0,.9-.3,1.2-.8.7-2.6.9-3.8,1.3-5.3.7.6.4,1.6.3,2.9-.2.4-.3.9-.6,1.1-1,4.6-1.8,8.8-3.9,13.2,0-.2,0,0,0,0,0-.4,0-1.1.2-1.7v.6c.6-.2,0-1,.6-1.1,0-.4,0-.2-.2-.2.2-.3.4-.3.6-1.1,0-.3,0-.4-.2-.6-.2.4,0,.6-.2,1-.2,0-.6.3-.7.6,0,.2.2.2,0,.4-.2.6,0,0-.2,0-.3.6-.9,1.6-.3,2-.6.6-1.6,2.7-1,3.6-1,1.3-.7,5.5-2.1,6.8-.2,1.3-.4,2.3-1,3.3-.2,1.8-.6,3.9-1,6,.2,2.9.7,5.5,1.6,7.9h0c-.2-1.3.7-3.2,1-5.1.2-2,0-3.8,0-5.3s.2-.3.2-.6v-1.8c.2.2.2,0,.4,0,0,0-.2,0-.2.3s.2.3.2.6c-.7.9,0,2.2-.3,3.3.6,1,.6,2,.3,3.3-.2,1.1-.8,2.1-1,3.2-.2.7-.3,1.4-.6,2.1,6.7,19.4,30.9,26.2,33.3,42.7,1.1,11.8-17.4,11.7-16.3,0v-9.1H4.5c-3.1,28.3,12.6,42.4,39.7,34.1v-.6c-.2-3.9.4-7.9.8-11.7.2-.2.2,0,.3.2-.7-1.8.9-3.3.7-5.2.2.2.2-.2.3-.2,1-7.6-.8-15.8.6-23,1.2,4.2-.6,11.8.6,15.7.3-4.2,3.7-7.2,6-10.1.6-2.5-1.1-3.1-1.7-5.1-1.7-1.1-1.8-4.3-2-7.6-27.2-23.6-27.9-19.8-26.7-56.2-1.1-11.8,17.4-11.6,16.3,0v31.5h18.6c-.8-22.4,7.5-60.4-26.6-58.7v.2Z"/>
      <path class="st0" d="M7.5,30.7c.2-.4.2-.9.2-1.2-.8,1.8-1.3,3.7-1.9,5.7h0c.2-1.9,1.1-3.2,1.6-4.5h.1Z"/>
    </g>
  </g>
</svg>