<?xml version="1.0" encoding="UTF-8"?>
<svg xmlns="http://www.w3.org/2000/svg" version="1.1" viewBox="0 0 334.5 390.2">
  <defs>
    <style>
      .cls-1 {
        fill: #fff;
      }
    </style>
  </defs>
  <!-- Generator: Adobe Illustrator 28.6.0, SVG Export Plug-In . SVG Version: 1.2.0 Build 709)  -->
  <g>
    <g id="Capa_1">
      <g>
        <path class="cls-1" d="M334.5,41.8c0-23-18.8-41.7-41.8-41.8H41.8C18.8,0,.1,18.8,0,41.8c0,0,0,0,0,0v278.7c0,12.4,5.4,23.5,13.9,31.1v15.9c0,12.5,10.2,22.6,22.6,22.6h24.4c12.5,0,22.6-10.2,22.6-22.6v-5.2h167.2v5.2c0,12.5,10.2,22.6,22.6,22.6h24.4c12.5,0,22.6-10.2,22.6-22.6v-15.9c8.5-7.7,13.9-18.8,13.9-31.1V41.8s0,0,0,0c0,0,0,0,0,0ZM264.8,334.5H41.8c-7.7,0-13.9-6.3-13.9-13.9v-55.7c0-7.7,6.3-13.9,13.9-13.9h250.9c7.7,0,13.9,6.3,13.9,13.9v55.7c0,7.7-6.3,13.9-13.9,13.9h-27.9ZM41.8,223c-7.7,0-13.9-6.3-13.9-13.9v-111.5c0-7.7,6.3-13.9,13.9-13.9h111.5v139.4H41.8ZM181.2,83.6h111.5c7.7,0,13.9,6.3,13.9,13.9v111.5c0,7.7-6.3,13.9-13.9,13.9h-111.5V83.6Z"/>
        <path class="cls-1" d="M264.8,264.8c-15.4,0-27.9,12.5-27.9,27.9s12.5,27.9,27.9,27.9,27.9-12.5,27.9-27.9-12.5-27.9-27.9-27.9Z"/>
        <path class="cls-1" d="M69.7,264.8c-15.4,0-27.9,12.5-27.9,27.9s12.5,27.9,27.9,27.9,27.9-12.5,27.9-27.9-12.5-27.9-27.9-27.9Z"/>
      </g>
    </g>
  </g>
</svg>