<?xml version="1.0" encoding="UTF-8"?>
<svg xmlns="http://www.w3.org/2000/svg" version="1.1" viewBox="0 0 438.8 69.4">
  <defs>
    <style>
      .cls-1 {
        fill: #e9721f;
      }

      .cls-2 {
        fill: #006e66;
      }
    </style>
  </defs>
  <!-- Generator: Adobe Illustrator 28.6.0, SVG Export Plug-In . SVG Version: 1.2.0 Build 709)  -->
  <g>
    <g id="Capa_1">
      <g>
        <path class="cls-2" d="M27.5,3.1v9.4h-8.9v30.7c0,2.1-1.7,2.8,0,4.5,0,.2,0,.3,0,.5,0,1-.6,1.7-.6,2.6s.6.6.6.8v2.1c0,.4-.5.8-.8,1.1l.3,1.5c0,.2.5,1.1.5,1.2v11.8h-6.2s-1.4-.5-1.8-.5-.5.5-.5.5h-1.1s0,0,0-1c.6-1.3.5-1.6,0-2.4V29.5c0-.2.3-.8.3-1,.6-.6-.3-1.7-.3-2.5,0-.2,0-5.6,0-5.8,0-1.8,0-7.7,0-7.7H0V3.1h27.5Z"/>
        <path class="cls-2" d="M58.1,42.9c0,9.3-4.6,13.9-13.7,13.9-9.1,0-13.7-4.6-13.7-13.9v-5.8c0-.1,0-.3,0-.4,1.7-1,.4-1.1.4-2.4s-.4-.8-.4-1V3h9.6s0,17,0,17.6c-.2.5-.7.4-.7,1.6,0,0-.6.7-.5,1.2s1.4.8,1.4,1c0,10.1-.2,18.4-.2,18.4,0,3,1.4,4.5,4.2,4.5s4.2-1.5,4.2-4.5v-10.5c0-.2,0-3.7,0-5,0-1.2,1-1.7.9-2.7,0-1.7-1-3.3-1-3.3V3h9.6v39.9Z"/>
        <path class="cls-2" d="M89.5,56.4c0,5.1-1.4,8.8-4.2,11.1-.2.1-1.2.2-1.5.5s-.5.4-.5.8c-2,1-4.5,1.5-7.5,1.5-9.1,0-13.7-4.6-13.7-13.9V15.9c0-9.3,4.6-13.9,13.7-13.9s13.7,4.6,13.7,13.9v16.2h-9.6v-5.6c0-1.3.8-2,.5-2.7-.4-.7-.5-1.6-.5-1.6,0,0,0-4,0-4.2,0,0,.5-.7.5-1,0-.4-.5-1.2-.5-1.2,0-3-1.4-4.5-4.2-4.5h0c-2.7,0-4.1,1.5-4.1,4.5,0,0,0,11.6,0,11.8-.2.2-.4.4-.4.4,0,0-.4.2-.5.8.2.4.7.2.9.6v11.3s-.9,2.4-.9,2.8.5.5.5.5c0,0,.3.4.4.6,0,7.7,0,11.7,0,11.7,0,3,1.4,4.5,4.2,4.5s4.2-1.5,4.2-4.5v-10.8h9.6v10.8Z"/>
        <path class="cls-2" d="M120.6,56.4c0,9.3-4.6,13.9-13.7,13.9-9.1,0-13.7-4.6-13.7-13.9V9.2s.4-1.3.4-1.4-.4-.9-.4-.9v-3.8h.8s.5.5.6.5c1.1,0,2.8-.5,2.8-.5h5.3v5.8c-.2,1.5-.5,3.3-.5,3.3,0,0,0,1.3,0,2.1.1,1.4.7,1.4.5,1.9,0,.2,0,29.5,0,31.9,0,.3-.5.4-1,1.7,0,.5.5,1.1.9,1.6,0,1-.9,2-.9,2,.1.9,1,2.3,1,3.2,0,.2,0,.5,0,.7.2,2.5,1.6,3.8,4.1,3.8s4.2-1.5,4.2-4.5c0,0,0-14.5,0-14.7.2-1,.9-1.7.9-2.8-.1-.2-.8-3-.9-3.1V3h9.6v53.4Z"/>
        <path class="cls-2" d="M141.8,37l-.8-1.3c0-.1.2-.7,0-1s-.9-.6-1-.7l-.6-1c-.1-.2,0-.6-.3-1.3-.2-.5-1.5-1.9-1.6-2-1.2-2-4.2-7-4.2-7,0,0,0,20.4,0,20.6-.3.7-.9,1.1-.9,1.8s.5,2.9.5,2.9c0,0,.4.8.4,1.3v20.2h-9.2V3.1h7.5l1.6,2.8s.4,1.9.6,2.1c.3.3.5.8.7,1.1,0,.1.9.3,1,.5.3.5,1.1,1.9,1.1,1.9,0,0,0,.3,0,.6.2.7.9,1.6,1.1,1.7s.4.4.4.4l3.6,6.1,10.1-17.1h7.5v66.3h-9.2v-2s.8-2,.7-2.4-.5-.9-.7-1.3c0,0,0-9.7,0-16.7s.6-2.3.6-2.5c0-1-.2-.4-.4-1.7-.2-.2-.2-20-.2-20,0,0-4.3,7.3-6.3,10.7s0-.1-.7.6-.4,1.2-.6,1.6l-.9,1.5Z"/>
        <path class="cls-2" d="M181.7,39.8s0-5.6,0-5.9c.2-.6.5-1.6.4-2s-.4-.5-.4-1.1c0-.1,0,0,0-.8s.5-1.3.5-1.4c0-.2-.5-.6-.5-.7,0-.1,0-.3,0-.4-.3-1.8-1.3-2.8-2.9-3.1-.2,0-.4-.4-.6-.4s-.3-.3-.7-.2-.5.5-.5.5c-1.5.2-2.6.9-3.1,2.2,0,.2-.5.4-.7,1.3s.3,1.1.3,1.3v3h-9.6v-3.3c0-9.3,4.6-13.9,13.7-13.9s13.7,4.6,13.7,13.9v40.5h-8.5l-.7-4.1c-1.9,3.4-4.8,5.1-8.6,5.2-3.1,0-5.5-1.2-7-3.5-1.6-2.3-2.4-5.2-2.4-8.6,0-11.2,5.9-17.3,17.7-18.5ZM181.7,48.8c-3.7.9-6.1,2.5-7.3,4.7s-.7.1-.8.8c0,.3.1,1,.1,1.1-.2.9-.2,1-.2,1.7,0,.2-.6.8-.4,1.1s.5.3.6.7c.2,1.7.8,2.6,1.8,2.6,4.1-.3,6.2-3.4,6.2-9.2v-3.5ZM191.2,1.2l-16.3,2.2-.6.4h-.4c0,0-.3,1.2-.6,1.3-.5,0-2.5-1.2-2.5-1.2l-6.1.8v6.4h26.4V1.2Z"/>
        <path class="cls-2" d="M195.5,3h7.9s.6,1.1,1.6,2.8c0,.1-.3,1.2-.2,1.4.5.3-.1.9.6,1.3.1.2,1.3.5,1.4.7,3,5.3,7,12,7,12V3h9.2v37.5l-.6,1c-.3.2-.2,1-.5,1.3.3,1.4,1.1,2.4,1.1,2.4v17.4s-.4,2-.5,2.3c-.5.9.5,3.1.5,3.1v1.3s-.9,0-1.2,0-.6-.6-.8-.6-2,.6-2,.6h-5.2v-30.8l-1.7-3s.2-2.2-.2-2.5c-1.2-.7-1.4-2-1.6-2,0,0-.6-.3-.9-.5,0-.1-4.5-8.3-4.5-8.3v37c0,0-.4.9-.4.9-.5.3-.8,1.8-.7,1.9.3.8.6,2.1.6,2.1l.5,1.1v3.9h-9.2V3Z"/>
        <path class="cls-2" d="M58.1,63.9l-5.4-5.4-4.2,4.2-4.2-4.2-4.2,4.2-.6-.6c0,0-.4-.1-.5-.2-.2-.2-.2-.5-.3-.6-.7-.2-1.1-.5-1.3-.6-.1-.1-.3-.9-.3-1l-1.2-1.2-.9.9c0,0,0,.3,0,.4s-.2,0-.3.1c-.6,1.4-.9.7-2.4,2.3-.1.1-.2.2-.3.3-.8.8-1.4,1.4-1.4,1.4l5.4,5.4,1.4-1.4s0-.5.2-.6.5-.1.5-.1l2-2,4.2,4.2,4.2-4.2,4.2,4.2,1.5-1.5c.4-.5.7-.8.8-.9.5-1.4.6-.6,1.4-1.4.7-.7,1-1.2,1.2-1.3.2-.2.5-.2.5-.2Z"/>
      </g>
      <g>
        <path class="cls-1" d="M425.1,1.9c-9.2,0-13.7,4.6-13.7,13.9v40.6c0,9.3,4.6,14,13.7,14,3,0,5.5-.5,7.5-1.5,0-.4.2-.5.5-.8.3-.3,1.3-.3,1.5-.5,2.8-2.3,4.2-6,4.2-11.2V15.9c0-9.3-4.6-13.9-13.8-13.9ZM429.3,46.7v9.7c0,3-1.4,4.5-4.2,4.5s-4.2-1.5-4.2-4.5v-11.8c0-.2-.4-.6-.4-.6,0,0-.5-.3-.5-.5,0-.3,1-2.8,1-2.8v-11.3c-.2-.5-.7-.2-.9-.6,0-.6.5-.8.5-.8,0,0,.2-.3.4-.4,0-.2,0-11.8,0-11.8,0-3,1.4-4.5,4.1-4.5h0c2.8,0,4.2,1.5,4.2,4.5,0,0,.6.8.5,1.2,0,.3-.5,1-.5,1,0,.2,0,4.2,0,4.2,0,0,0,.9.5,1.6.2.7-.5,1.4-.5,2.7v20.3Z"/>
        <path class="cls-1" d="M390.3,37.1l-.8-1.3c0-.1.2-.7,0-1s-.9-.6-1-.7l-.6-1c-.1-.2,0-.6-.3-1.3-.2-.5-1.5-1.9-1.6-2-1.2-2-4.2-7-4.2-7,0,0,0,20.4,0,20.6-.3.7-.9,1.1-.9,1.8s.5,2.9.5,2.9c0,0,.4.8.4,1.3v20.2h-9.2V3h7.5l1.6,2.8s.4,1.9.6,2.1c.3.3.5.8.7,1.1,0,.1.9.3,1,.5.3.5,1.1,1.9,1.1,1.9,0,0,0,.3,0,.6.2.7.9,1.6,1.1,1.7s.4.4.4.4l3.6,6.1,10.1-17.1h7.5v66.4h-9.2v-2s.8-2,.7-2.4-.5-.9-.7-1.3c0,0,0-9.7,0-16.7s.6-2.3.6-2.5c0-1-.2-.4-.4-1.7-.2-.2-.2-20-.2-20,0,0-4.3,7.4-6.3,10.7s0-.1-.7.6-.4,1.2-.6,1.6l-.9,1.5Z"/>
        <path class="cls-1" d="M265,3v9.4h-9v30.7c0,2.1-1.7,2.8,0,4.5,0,.2,0,.3,0,.5,0,1-.6,1.7-.6,2.6s.6.6.6.8v2.1c0,.4-.5.8-.8,1.1l.3,1.5c0,.2.5,1.1.5,1.2v11.8h-6.2s-1.4-.5-1.8-.5-.5.5-.5.5h-1.1s0,0,0-1c.6-1.3.5-1.6,0-2.4V29.4c0-.2.3-.8.3-1,.6-.6-.3-1.7-.3-2.5,0-.2,0-5.6,0-5.8,0-1.8,0-7.7,0-7.7h-9V3h27.5Z"/>
        <g>
          <path class="cls-1" d="M295.7,42.9c0,9.3-4.6,14-13.8,14-9.2,0-13.7-4.7-13.7-14v-5.8c0-.1,0-.3,0-.4,1.7-1,.4-1.1.4-2.4s-.4-.8-.4-1V3h9.6s0,17,0,17.7c-.2.5-.7.4-.7,1.6,0,0-.6.7-.5,1.2s1.4.8,1.4,1c0,10.2-.2,18.4-.2,18.4,0,3,1.4,4.5,4.2,4.5s4.2-1.5,4.2-4.5v-10.6c0-.2,0-3.7,0-5,0-1.2,1-1.7.9-2.7,0-1.7-1-3.3-1-3.3V3h9.6v39.9Z"/>
          <path class="cls-1" d="M295.7,64l-5.4-5.4-4.2,4.2-4.2-4.2-4.2,4.2-.6-.6c0,0-.4-.1-.5-.2-.2-.2-.2-.5-.3-.6-.7-.2-1.1-.5-1.3-.6-.1-.1-.3-.9-.4-1l-1.2-1.2s-.2.2-.9.9c0,0,0,.3,0,.4s-.2,0-.3.1c-.6,1.4-.9.7-2.4,2.3-.1.1-.2.2-.3.3-.8.8-1.4,1.4-1.4,1.4l5.4,5.4,1.4-1.4s0-.5.2-.6.5-.1.5-.1l2-2,4.2,4.2,4.2-4.2,4.2,4.2,1.5-1.5c.4-.5.7-.8.8-.9.5-1.4.6-.6,1.4-1.4.7-.7,1.1-1.2,1.2-1.3.2-.2.5-.3.5-.3Z"/>
        </g>
        <path class="cls-1" d="M319,50s1.1,2.1,2.6,5c2.9,5.7,7.3,14.3,7.3,14.3h-10.5s-1-1.9-2.2-4.5c-1.6-2.6-2.8-5.8-4.1-8.4-1.1-2.6-2.4-4.5-2.2-4.5.3,0-1.5,0-1.3,0s-.4,1.9,0,4.5c0,2.6.2,5.8,0,8.4-.2,2.6.3,4.5,0,4.5.1,0-2.7,0-4.8,0h-4.8v-10.3c0-3.1,0-6.7,0-10.6,0-3.9.5-8,0-12.1.2-4.1.2-8.3,0-12.1,0-3.9.4-7.5,0-10.6-.3-3.1,0-5.7,0-7.5v-2.8h13.1c0,0,.6,0,.8,0,.2,0,.5,0,.7,0,1.1,0,2.2.2,3.2.4s2.2.6,3.2,1.2c1.3.5,1.5,1.2,2.5,1.9,1.1.8,1.4,1.7,1.7,2.7.5,1,.8,2.2,1,3.5.1,1.3,0,2.7.4,4.2,0,0-.2.6,0,1.5,0,1,0,2.3,0,3.8,0,1.5,0,3.3,0,5-.1,1.7-.2,3.5,0,5,.3,1.5,0,2.9,0,3.8,0,1,.2,1.5,0,1.5,0,1,.2,1.9-.2,2.8-.5.9-.4,1.7-.5,2.5-.7,1.6-1.1,2.9-2.2,4.1-.8,1.2-2.4,2.1-3.7,2.9ZM308.6,12.5c.1,0-.2,1.9,0,4.7,0,2.8.4,6.6,0,10.4.1,1.9,0,3.8,0,5.5,0,1.8-.1,3.4,0,4.8-.2,2.8.6,4.7,0,4.7s2,0,2.2,0c1.1,0,2.1,0,2.7-.3.9-.3,1.5-.9,1.9-1.6.4-.7.6-1.6.6-2.6v-21.1c0-2.5-1-4-2.9-4.4,0,0-.2,0-.3-.2-.2-1.1.4-2.3-.9-3.6,0,1.3,0,2.5-.6,3.6-.2,0-.3,0-.5,0s-.4,0-.6,0h-1.7Z"/>
        <path class="cls-1" d="M329.1,2.9v23c0,.8,1,2,.3,2.5,0,.2-.3.8-.3,1v39.8h9.6v-11.7c0-.2-.5-1.1-.5-1.2l-.3-1.5c.3-.3.7-.7.8-1.1v-2.1c0-.2-.6-.6-.6-.8,0-.9.6-1.6.6-2.6s0-.4,0-.5c-1.6-1.6,0-2.4,0-4.5V12.4h0V2.9h-9.6Z"/>
        <path class="cls-1" d="M359.8,32h9.6V15.8c0-.1,0-.3,0-.4,0-6.3-2.4-10.4-6.9-12.3-1.9-.8-4.2-1.2-6.9-1.2s-4.9.4-6.8,1.2c-4.5,1.9-6.8,6-6.9,12.3,0,.1,0,.3,0,.4v11.4c0,0,0,.2,0,.2,0,7.6,3.1,13.5,9,17.7.3.2.5.4.8.6.4.3.8.6,1.1.8,0,0,.2.1.3.2,4.5,3.6,6.8,6.8,6.8,9.6s0,.1,0,.2c0,2.9-1.4,4.3-4.2,4.3s-3.8-1.1-4.1-3.4c0-.3,0-.6,0-1,0,0,0-.1,0-.2v-4.7h-9.6v1.8c0,.2.5.5.4,1,0,1.3,1.3,1.4-.4,2.4,0,.1,0,.2,0,.3.3,8.7,4.9,13.1,13.8,13.1,9,0,13.6-4.5,13.7-13.5,0-.1,0-.3,0-.4s0-.3,0-.4c0-2.2-.4-4.2-1.1-6.1-1.4-3.7-4-6.9-7.8-9.6-.2-.1-.4-.3-.6-.4-4.8-3.1-7.6-6.7-8.2-10.9,0-.6-.1-1.3-.1-2v-11.2c0-3,1.4-4.5,4.1-4.5h0c2.8,0,4.2,1.5,4.2,4.5v5.7s.4.7.7,1.7c.1.5.2,1,.3,1.5,0,1-.9,1.5-.9,2.7,0,1.1,0,3.6,0,4.6Z"/>
      </g>
    </g>
  </g>
</svg>