<?xml version="1.0" encoding="UTF-8"?>
<svg id="Capa_1" xmlns="http://www.w3.org/2000/svg" version="1.1" viewBox="0 0 953.7 170.4">
  <!-- Generator: Adobe Illustrator 29.3.1, SVG Export Plug-In . SVG Version: 2.1.0 Build 151)  -->
  <defs>
    <style>
      .st0 {
        fill: #fff;
      }
    </style>
  </defs>
  <g>
    <path class="st0" d="M128,96.6c0,3.6-.3,6.9-1,9.7-1.4,5.8-4.3,10.1-8.5,13-2.1,1.4-4.7,2.4-7.4,3.2s-6.1,1.1-9.5,1.1-6.8-.3-9.5-1.1c-11.4-2.9-17-11.5-17-26.1V18.7h18.7s0-.8,0,3.3c0-.7,0,0,0,1.4v4.9c0,1.6,0,2.8,0,2.7v-5c0-2.8,0-3.3,0-2.3v11.1c0,.2,0,0,0-1v-10.9c0-.6,0,0,0,2v10.5c0,.8,0-.4,0-.2v8.4c0-3.1,0,.4,0-.4s0,2.6,0,5.6v7.4c0,.4,0,.3,0-.2v-10.8,4.9c0-2.4,0-.7,0,.4s0,1.7,0-3.2,0-4.9,0-4.7v14.9c0-5.2,0-2,0-3.6s0-2.9,0-1.9v22.7-11.4,7.6c0,1.2,0,1.9,0,1,0-2.2,0,7.6,0,2.4s0,.1,0,2.2,0,4.6,0,3.9c0,2.1,0,2.2,0,1.4v-9c0-.9,0-.8,0,1.1,0-.2,0-1,0-.8v11c0,2,0,2.3,0,0,0,5,0,2.2,0,0,0-3.2,0-1.9,0,.3v6.6c0,3.1,0,3.8,0,1.9v3.3c0,2.9.7,5.1,2,6.6.7.7,1.4,1.2,2.4,1.6s2.1.6,3.4.6,2.4-.2,3.6-.6,1.9-.9,2.4-1.6,1.2-1.6,1.4-2.7c.3-1.1.4-2.3.4-3.9v-36.1c0-3,0-4.8,0-2.9s0-.7,0-3.8v-23.4c0-.9,0-1,0,.4v-12.2h18.7v77.9h0v.2Z"/>
    <path class="st0" d="M252.3,122.3c0,18-8.9,27.1-26.8,27.1s-26.6-9-26.6-27.1V43.7c0-18,8.9-27.1,26.6-27.1s26.8,9,26.8,27.1v31.5h-18.7v-31.5c0-5.8-2.7-8.7-8.1-8.7h-.1c-5.3,0-8,2.9-8,8.7v78.7c0,5.9,2.7,8.7,8.1,8.7s8.1-2.9,8.1-8.7v-9.1h-8.1v-18.4h26.6v27.5h.1Z"/>
    <path class="st0" d="M293.4,90.1v-46.3c0-5.9-2.7-8.7-8-8.7h-.1c-5.4,0-8.1,2.9-8.1,8.7v31.5h-18.7v-31.5c0-18,8.9-27.1,26.8-27.1s26.6,9,26.6,27.1v103.7h-16.5l-1.3-7.9c-3.8,6.7-9.3,10-16.7,10s-10.5-2.2-13.7-6.9c-3-4.6-4.7-10.1-4.7-16.7,0-21.7,11.4-33.6,34.3-35.9h.1-.1ZM293.4,107.7c-10.4,2.6-15.8,8-15.8,16.2s1.2,8.3,3.8,8.3c8-.6,12-6.6,12-17.8v-6.9h.1-.1Z"/>
    <g>
      <path class="st0" d="M22.7,88.1h.4c-.2-.3-.3-.2-.4,0Z"/>
      <path class="st0" d="M27.6,96.5h0Z"/>
      <path class="st0" d="M33,81.9s-.2.2-.3.2h0c-.2.1-.3.2-.6.4-.2.1-.4.3-.7.4-.2.2-.4.3-.7.6s-.6.3-.8.4c-.3.2-.7.6-1,.8h0c-.1.1-.3.2-.4.3-.2.2-.4.3-.7.6,0,0-.2.1-.3.2-.3.2-.6.4-.9.7-.2.1-.3.2-.6.3-.2.2-.4.3-.8.6h0s-.1.1-.2.2c-1.1.9-2.2,1.8-3.3,2.6l1.3,5.4c.7-.7,1.3-1.3,2.1-1.9.9-.9,1.9-1.7,2.9-2.4.3-.3.7-.6,1-.8,0,0,.2-.1.3-.2,1.7-1.2,3.4-2.3,5.3-3.3.2-.1.4-.3.8-.4s.6-.2.8-.3h0c.2-.2.6-.3.9-.4,1.1-.6,2.2-1,3.3-1.4,1.2-.4,2.4-1,3.8-1.4,2.7-1.2,5.4-2.3,8.1-3.6h0c-.7.9-1.6,1.3-2.4,2-1.4,1.1-3,2.1-4.7,3.2l-7.3,5.2c-1.8,1.2-4.2,3.1-6.3,4.3-.2.2-.6.4-.9.6-.8.6-1.6,1.1-2.3,1.6h-.8c.3,0,.6-.2.9-.2h0c.1,0,.3,0,.4-.1s.3,0,.4-.1h.2c1.9-.8,3.9-1.4,5.9-2,.7-.2,1.3-.4,2-.6,1.1-.3,2.2-.8,3.4-1h.2c.2-.1.6-.2.8-.2h0c.9-.3,1.8-.6,2.8-.7h0c.2,0,.3-.1.6-.1,1.9-.6,3.8-.9,5.7-1.2l17.3-71.5h-19.8l-12.7,66.5-.9-5c-.9.6-1.7,1.1-2.6,1.7h0l.4.3h.1Z"/>
      <polygon class="st0" points="41.9 92.8 41.9 92.8 41.9 92.8 41.9 92.8 41.9 92.8 41.9 92.8"/>
      <path class="st0" d="M38.2,87.4h0Z"/>
      <polygon class="st0" points="24 87.9 24 87.9 24 87.9 24 87.9 24 87.9"/>
      <path class="st0" d="M30.6,126.3h0Z"/>
      <path class="st0" d="M30.7,111h0Z"/>
      <path class="st0" d="M24.6,88.1h0Z"/>
      <path class="st0" d="M50.5,91.7c-.6.4-1.3.7-2,.9h0c-.8.3-1.6.8-2.4,1.1h0c-2.1,1-4.3,2-6.4,2.9-.9.6-1.9.8-2.9,1.2,0,0-.2,0-.3.1-.8.3-1.4.7-2.2.8-2.7,1-5.4,2.3-8.2,3.1-.3,0-.6.2-.9.3h-.2l1.4,6.1h.2c.9.2,1.7.4,2.6.8.2,0,.4.1.7.2h0c.4.1.9.1,1.2.3.4,0,1,.2,1.4.3h0s.2,0,.3.1c1.9.6,3.9,1.1,5.8,1.8.2.2.4,0,.7.2-.2.2-.3,0-.6,0h-.7c-2.1-.1-4.3-.2-6.4-.3h-4.3l.3,1.6v6.7c.3.2.7.6.9.9,0,0,.2.1.3.2l.2.2c.3.2.7.6.9.9.2.1.3.3.6.6.9,1,1.9,1.9,2.8,2.9.7.7,1.3,1.2,1.9,1.9l-2.4.4c-.3-.2-.6-.3-.8-.7h-.3c-1.1-.7-2.2-1.3-3.3-2-.1,0-.3-.2-.3-.4h0s-.2,0-.3-.1v22.4h18.7v-33.9l5.4-22.2c-.3.1-.6.2-.9.4h-.1v.2Z"/>
      <path class="st0" d="M19.6,77.9c.4-.2.9-.6,1.4-.8,2.6-1.7,5.3-3.2,8-5h.2s.2-.1.3-.2h.1v.2c0,.2-.2.3-.3.3-.7.7-1.3,1.3-2,2l-1.7,1.7c-.6.6-1.1,1-1.7,1.6-1.3,1.3-2.8,2.7-4.3,4.1l1.3,5.6c.2-.1.4-.3.8-.4,2.2-1.3,4.6-2.6,6.8-3.6,1.2-.7,2.4-1.2,3.8-1.8.7-.2,1.2-.6,1.9-.8l1.4-.6-11.7-61.2H4.3l14.5,59.7c.2-.1.6-.3.8-.4h0v-.3h0Z"/>
      <path class="st0" d="M32.5,81.8h0Z"/>
    </g>
    <g>
      <path class="st0" d="M144.5,45.8c-.1-.1-.3-.3-.4-.4,0,0-.2-.1-.2-.2,0,0-.1-.2-.2-.3-.2-.2-.4-.4-.7-.7-.2-.2-.3-.4-.6-.8-1.3-1.7-2.7-3.3-4-5.3,0-.1-.2-.2-.2-.3-.1-.1-.3-.3-.3-.6h0v10.1c.3.4.7.8,1,1.2,1.4,1.6,2.9,3.1,4.7,4.6.6.4,1.1.9,1.7,1.4.8.7,1.6,1.3,2.4,2.1,1,.9,1.9,1.7,2.7,2.7.3.2.6.6.9.9,0,0,.2.2.2.3,1.4,1.4,2.7,3.1,4,5,0,.1.2.2.2.3v-7.9c-.2-.2-.4-.4-.7-.8-.1-.1-.3-.3-.4-.4-.2-.2-.4-.4-.7-.7h0s-.1-.1-.2-.2c-1.7-1.4-3.1-3.1-4.7-5-1.4-1.7-3-3.4-4.7-5.2h.1v.2Z"/>
      <path class="st0" d="M139.8,29.5h0Z"/>
      <path class="st0" d="M153.4,51.4h-.1.2v-.2h0v.2h-.1Z"/>
      <path class="st0" d="M151.7,50.4h0Z"/>
      <polygon class="st0" points="153.6 54.8 153.6 54.8 153.6 54.8 153.6 54.8 153.6 54.8"/>
      <path class="st0" d="M153.5,55.4h0Z"/>
      <path class="st0" d="M153.3,54c.3-.2.1-.3,0-.4v.4Z"/>
      <path class="st0" d="M141.6,23.6h0Z"/>
      <path class="st0" d="M137.8,20.3h0Z"/>
      <path class="st0" d="M139.5,24.7h-.1.1Z"/>
      <path class="st0" d="M141.6,24h0Z"/>
      <path class="st0" d="M137.7,26.5c.3.2.7.6,1,.9h.2c1.1.7,2.1,1.3,3.2,2.1h0c.6.2,1.1.6,1.7.9h0c.6.3,1.1.8,1.8,1.2,0,0-.1-.1-.2-.2s0-.1-.1-.2h0c-.3-.3-.7-.7-1.1-1-.3-.3-.7-.7-1-1h0c-.1,0-.2-.1-.4-.2-.1,0-.2-.1-.3-.2h0c-.2-.2-.4-.4-.6-.7-.2,0-.3,0-.4-.2-.8-.7-1.6-1.3-2.3-2-.1-.1-.3-.2-.3-.4-.4-.2-.8-.6-1.1-1v2.1s.1,0,.1,0Z"/>
      <path class="st0" d="M141.6,23.4h0Z"/>
      <polygon class="st0" points="143.7 26.5 143.7 26.5 143.7 26.5 143.7 26.5"/>
      <polygon class="st0" points="141.7 30.7 141.7 30.7 141.7 30.7 141.7 30.7"/>
      <path class="st0" d="M141.6,31.4h0Z"/>
      <path class="st0" d="M145.5,59.4h0Z"/>
      <path class="st0" d="M146.2,29.7h0Z"/>
      <path class="st0" d="M153.8,44h0Z"/>
      <path class="st0" d="M152.3,36.1h0s-.1-.1-.2-.1c.1.2.2.3.4.6h0c0-.1-.1-.2-.2-.3h0Z"/>
      <path class="st0" d="M148,30.3h0c0-.1,0,0,0,0Z"/>
      <path class="st0" d="M150.3,33.7h0Z"/>
      <path class="st0" d="M152.5,43.2h0Z"/>
      <path class="st0" d="M160.1,46.4h0Z"/>
      <path class="st0" d="M154.9,44.8h0Z"/>
      <path class="st0" d="M154.6,43.3h0Z"/>
      <path class="st0" d="M139.7,54.6h0Z"/>
      <path class="st0" d="M153.1,69.1c-1.4-1.6-3.6-3.8-5-5.8-.3-.2-.6-.4-.7-.8-.7-.8-1.2-1.4-1.9-2.2h-.1s-.1,0-.1-.2h0c0,0,0-.1-.1-.2-.1-.1,0-.1-.1-.2h0c0,.3.2.6.3.9h0c0,.1.1.3.2.4s.1.3.2.4h0v.2c1,1.8,1.9,3.8,2.7,5.7.2.7.6,1.2.8,1.9.4,1.1,1,2.2,1.3,3.3v.2c.1.2.2.4.3.8h0c.4.9.8,1.8,1,2.7h0c.1.1.2.3.2.6.8,1.9,1.3,3.8,1.9,5.8.2.6.3,1.1.4,1.7.1.2.1.3.2.7-.2,0-.3-.2-.3-.3-.8-.9-1.3-2-2-3.1-.4-.6-.8-1.2-1.1-1.9h0c-.4-.8-.9-1.6-1.3-2.2h0c-1.2-2-2.4-4-3.6-6-.7-.8-1-1.8-1.4-2.7,0,0-.1-.2-.1-.3-.3-.7-.8-1.3-1-2.1-1.3-2.6-2.9-5.1-4.2-7.8-.1-.3-.3-.6-.4-.9,0-.1-.1-.2-.2-.3-.2-.3-.4-.7-.4-1.1s-.2-.2-.2-.4c0,0-.1-.1-.1-.2v-.2c0-.2-.1-.3-.2-.6v-.2,93.3h17.9v-75.5c-.9-.9-1.7-1.9-2.6-2.8h0l-.2-.2h0Z"/>
      <path class="st0" d="M142.2,52.5h0c0,0,0-.1-.1-.1-.1,0,.1.1.1.2h0Z"/>
      <path class="st0" d="M139.2,55.3h0Z"/>
      <path class="st0" d="M140.4,51.9h.2-.2Z"/>
      <polygon class="st0" points="150.8 73 150.7 73 150.7 73 150.8 73.1 150.8 73 150.8 73"/>
      <path class="st0" d="M160.6,62.6h0Z"/>
      <path class="st0" d="M173.2,18.7v35.4l-20.2-35.4h-15.3c1.3,1.1,2.7,2.3,4,3.6,1.1,1,2.2,2,3.2,3.1.3.3.8.7,1,1,.2,0,.3.2.4.4,0,0,0,.1.1.1.2.2.6.6.8.9.4.4.9.9,1.3,1.4.4.4.9.9,1.2,1.3,1.1,1.2,2.1,2.4,3,3.9.8,1,1.6,2,2.1,3.1.8,1.1,1.3,2.3,2,3.6.3.8.8,1.4,1.3,2.1.7.7,1.2,1.4,1.8,2.3.6.7,1.1,1.3,1.6,2.1.3.4.7.9,1,1.3.3.4.7.9.9,1.3,1.9,2.4,3.9,4.9,5.9,7.3v.2s.1.2.2.3h0c0,.1-.1.1-.2.1-.2,0-.3-.1-.3-.3-.8-.6-1.4-1.2-2.2-1.8-.7-.4-1.2-.9-1.8-1.4s-1.1-1-1.8-1.6c-1.9-1.6-3.8-3.1-5.7-4.8-1-.9-2.1-1.8-3.1-2.7-.2,0-.3-.2-.4-.3,0,0-.1,0-.1-.1-.7-.6-1.3-1-1.9-1.7-.9-.7-1.8-1.4-2.6-2.2-.2-.1-.4-.3-.7-.6s-.3-.2-.4-.4c-1-.9-2-1.8-2.9-2.8-.7-.6-1.3-1.1-1.9-1.8-1-.7-1.8-1.6-2.7-2.3-.4-.4-1-.9-1.4-1.3-.7-.4-1.2-.9-1.8-1.4v3c1.2,1.3,2.4,2.6,3.8,4,1,.9,2,1.9,2.9,2.9s1.9,2,2.8,3,1.8,2,2.7,3c.3.3.7.8,1,1.1.7.8,1.2,1.4,1.9,2.2.3.3.6.8.9,1.1.2.3.4.6.7.9,1.6,2,3,4.2,4.4,6.3.8,1.1,1.4,2.3,2.1,3.4.3.6.7,1.2,1,1.8.3.6.7,1.2,1,1.8h-.1c-.8-.9-1.6-1.9-2.3-2.8-.1,0-.2-.1-.2-.2h0c-.1-.2-.3-.3-.4-.6-.2-.2-.3-.3-.6-.6s-.4-.4-.7-.7c-.2-.2-.4-.4-.6-.7h-.1c0-.1,15.2,27.3,15.2,27.3v59.8h17.9V18.7h-17.9.2,0Z"/>
      <path class="st0" d="M147.6,29.2h0Z"/>
    </g>
    <g>
      <path class="st0" d="M364.2,64.8h.2-.7.4,0Z"/>
      <path class="st0" d="M369.6,43.7h0Z"/>
      <path class="st0" d="M369.9,46.5c.1,0,.2.2.3.3h.1c-.1,0-.2-.2-.3-.3h-.1c0,.1,0,0,0,0Z"/>
      <path class="st0" d="M371.4,65.6h0Z"/>
      <path class="st0" d="M371.4,55.4h-1.3c-1.3.1-2.8.2-4.2.2h-12.9v4.8c.7,0,1.3-.2,2.1-.3.2-.1.3-.1.6-.1h.2c.8-.1,1.7-.2,2.4-.3,1.1-.2,2.2-.3,3.3-.4.2-.1.6,0,.9,0h.7c1.3-.2,2.7-.3,4.1-.3.9-.1,1.7-.2,2.6-.2.6-.1,1-.2,1.6-.2v-2.7h0l-.2-.2h.2Z"/>
      <path class="st0" d="M369.7,42.4h0Z"/>
      <path class="st0" d="M358.4,42.3h0Z"/>
      <path class="st0" d="M358.5,42.9h0Z"/>
      <path class="st0" d="M367.9,45.8h0Z"/>
      <path class="st0" d="M355.1,52.5h10c2,.1,4.1.2,6.2.4v-3.6c-1.3-.8-2.7-1.4-4-2.3-.2-.1-.3-.2-.6-.3h-3.1c-2.1,0-4.3.1-6.4.4-.8,0-1.4.2-2.2.3-.7,0-1.4.2-2.2.3v5h2.2v-.2h.1Z"/>
      <path class="st0" d="M360.3,45.4s0,.1-.1.2h0v-.2h.1Z"/>
      <path class="st0" d="M358.7,46.4h.1-.2s0,.1.1,0h0Z"/>
      <path class="st0" d="M367.2,64.8h0Z"/>
      <path class="st0" d="M366.4,37.8h0Z"/>
      <path class="st0" d="M354,91.1c-11.7-7-17.3-15.5-17.3-25.8v-2h-1.3.2c.2,0,.3-.1.4,0h.6v-9.3c-.7-.1-1.2-.2-1.9-.4v-.2h1.8v-5.9c-1-.1-1.9-.3-2.8-.6-1.3-.3-2.6-.7-4-.9-2.9-.6-5.9-1.1-8.8-1.7v-.2c1-.2,2-.1,3.1,0h12.4c0-1.6.2-2.9.7-4.1-.2,0-.6-.1-.8-.2h0c-.9-.2-1.8-.6-2.7-1h0c-.2,0-.3,0-.6-.2-1.9-.7-3.8-1.4-5.6-2.3-.6-.2-1.1-.4-1.6-.7-.2,0-.4-.1-.6-.2.1-.2.3,0,.6,0,1.2,0,2.4.3,3.8.6.8,0,1.4.2,2.1.3h0c.9.2,1.7.3,2.6.6h0c1.4.2,2.8.4,4.3.8,1.3-1.2,3.1-1.8,5.7-1.8h.1c4,0,6.4,1.6,7.4,4.8,1.2.2,2.4.6,3.8,1,.3,0,.7.2.9.2h.4c.4,0,.8,0,1.1.3h.7s.1,0,.2.1c.2,0,.3,0,.6.1.7.2,1.4.4,2.1.7.7.2,1.3.6,2,.9.1,0,.2,0,.3.1.3,0,.7.3,1,.6,0,0,.1,0,.1.1.7.2,1.2.6,1.8,1,.3.1.7.2,1.1.4.2,0,.4.1.7.2h.2v-.2c-1.6-1.3-3-2.8-4.6-4.3l-.4-.4c-1-1-2-2.1-2.8-3.2-.2-.2-.6-.6-.8-.9,0,0-.1-.2-.2-.3s-.2-.3-.4-.4c-.3-.3-.7-.8-1-1.2-.6-.7-1.1-1.3-1.7-2-.1-.2-.2-.3-.4-.6h0c-.2-.3-.7-.6-.8-1-.3-.3-.7-.8-1-1.1h0s-.1-.2-.2-.3c-1.2-1.6-2.4-3-3.8-4.8,0-.2-.3-.3-.4-.6.2,0,.3.2.4.3.2,0,.3.3.6.4,1.7,1.3,3.3,2.6,5.1,4,.1.1.3.2.4.4.2,0,.3.2.6.3.4.2.8.6,1.1.8h.2c.1,0,.3.2.4.3h0c2.4,1.8,5.3,4,7.9,6.3,1,.9,2,1.7,2.9,2.7.1,0,.3.2.4.3h0v-1.2c-.1-.2-.3-.6-.6-.8-.7-1.1-1.2-2.2-1.8-3.3-.2-.6-.6-1.1-.8-1.8-.2-.4-.4-.9-.7-1.4-.6-1.2-1-2.4-1.3-3.9-.2-.6-.4-1.2-.6-1.9-.3-.9-.6-1.8-.7-2.7v-.3c-4.6-4.6-11.2-6.8-20-6.8-17.8,0-26.6,9-26.6,27.1v22.2c0,14.9,5.8,26.5,17.3,34.8,11.7,8.3,17.3,15.5,17.3,21.8s-2.7,8.7-8.1,8.7-8.1-2.9-8.1-8.7v-9h-18.7v9c0,18,8.9,27.1,26.8,27.1s26.6-9,26.6-27.1-5.8-23-17.3-31.3h.6v-.2Z"/>
      <path class="st0" d="M366,38.2h0c0,.1,0,0,0,0Z"/>
      <path class="st0" d="M366.9,39.1h0Z"/>
      <path class="st0" d="M357,30.7h0Z"/>
      <path class="st0" d="M365.4,40.6h0Z"/>
      <polygon class="st0" points="367.8 27.9 367.8 27.9 367.8 27.9 367.8 27.9 367.8 27.9 367.8 27.9"/>
      <path class="st0" d="M358.7,60.4h0Z"/>
      <path class="st0" d="M355.8,61h0Z"/>
      <path class="st0" d="M357.3,61.7h0c0-.1,0,0,0,0Z"/>
      <path class="st0" d="M357.1,60.8h0Z"/>
      <path class="st0" d="M371.4,66.7h-1.8c-1.6,0-3.2,0-4.9-.2-1.2,0-2.6-.2-3.9-.6-1.3-.2-2.7-.6-4.1-.9-.8-.2-1.6-.3-2.4-.4h-1.6v10.5h18.7v-8.5h0Z"/>
      <path class="st0" d="M353.9,54.8h0Z"/>
    </g>
    <polygon class="st0" points="128.2 136.4 117.2 125.5 108.6 134.1 100.1 125.5 91.5 134.1 82.9 125.5 72 136.4 82.9 147.4 91.5 138.9 100.1 147.4 108.6 138.9 117.2 147.4 128.2 136.4"/>
  </g>
  <g>
    <path class="st0" d="M448.1,32.8c-.7,0-1.6-.2-2.2-.2.3-.4,1.2-.4,2.2-.4v-4.4c-.2-.1-.6-.1-.6.2-.2,0-.2-.1-.3-.3v-.7c.4,0,.7,0,1-.1v-2.2c-.2.4-.7.6-1.3.7,0-.2.1-.3.3-.3,0-.4-1-.1-1-.7-.3-1.3,1.4-.2,1.3-1.4.9-.1-.2,1.9.6,1.8v-5.7h-53.3v10.4c.9,0,1.8-.2,2.8,0-1,.4-1.9.7-2.8.7v1.3h.2c0,.2-.1.3-.2.4v5.1h17.4v3.6c.6-.6,1.3,0,1.7-.2.9.7-.2,1.3-1,.7.2.3.7.3.6,1.1.9,0,1-.6,1.6-.7-1.3-.7,0-1.8,1-2.1-.9.4.6,1.4-.3,1.8.6,1.2,2.1,1.1,2.9.7.2,1.8-4.6,1.2-6.3.3v-.7,4h1.7c0,.4-.9.9-1.7.9v101.3h6.4c0-.6-.3-1.1-1.1-1,.7-1.1-.7-1.9.7-2.2-.2-1.2-1.1-1.8-2.6-1.9.6-1.1-.2-1.4.3-2.6,2.7.6.2-3.1,1.8-4.2.2.1.6.3,1.1.3.4,2.1-.2,2.9.3,4.2.3.6-2,.2-.7.6-.6,1.2-.6-.7-1.1-.6-1,.7.4,2,1.4,1.3-.3,1.7.6,4.3.1,6.1h2.8v-.6c.6.2.4.4.1.6h1.3c.2-.9,1,0,1.4,0h.9c.1-.2.3-.4,1-.6,0-1-.7-1.3-.7-2.2-.3,0-1,1.4-.3,1.3-.6.7-1.4-.9-.7-1.6-1.2,0,0,.9-1.4,1,0,.7.2,1.1,1.1,1-1.3,1-2.7-.9-3.2-1.6-.2-.9.7-.6.7-1.3-1.1-.6-1.4-6.8.3-7.3-.1-1.1-1.8-1.6,0-1.9,0-.7-1-.6-1.4-1,.2-1.1.6-2,.7-3.2-2-2.2,2-5.9-.7-8.7,1.1-.7.7-1.8,0-2.9,1.2-1.3,1.6,1.8,2.1,1,1.1,0-.9.9.7.6-2.2,2.7.2,7.2-1.8,8.7,2.1,1.8.9,4,.7,6.3,0,1.9,2.4,3.8-.3,4.4,1.3.4.9.9,1.4,2.2.7.1.7-.4.7-1,.4.9,1.4,1.1,1.4,2.2,1.4-.9-.9-3.3-1.1-4.8.3.9,1.9,1,1.4-.6.4,0,1.1,0,1.1-.3,1,.6.7,2.1,1.1,3.2-.6,0-.9-.6-.7-1.3-1.6.7,1.6,1.8,0,2.6.3.9.9-1,1.4,0-1.7,1.9-1.7,3.2-1.3,5.8h3.1V37.2h17.4v-4.3s-.2,0-.2,0ZM410.3,27.3c-.2,1.7-1.9.7-2.6.7,0-.4.6-.6.6-1.1,1-.2,1,.6,1.9.3h.1ZM408.7,24.7c1,1.3-1.8.3-2.2,0,.6-1.7,1.9.7,2.2,0ZM409.4,29.2h-.2c-.3.4-.9.9-.9,1.7-2.1-.3-7.1-1.3-8.7-.3-.9-.7-1.3-.6-1.6-1.4.6.9,2.2-1,2.6.7,2.4-.7,6.2-1.1,8.4-.6h.1c0-.1,0,0,0,.1.1,0,.3,0,.4.1.4-.3,1-.4,1-1.4.2,1,1.2,1,1.3,2.1-.4.2-2.2,0-2.8-.9h.2ZM411.5,34.4c-.9,0-.7-1.1-1.6-1.1.7-.6,1.9-.7,3.2-.7-.3.7-1.2,1-1.6,1.8h-.1ZM412.4,29.7c-.2-1.3,1-1.1,1.9-1.1-.2,1.6-1,.4-1.9,1.1ZM432.5,23.6c.1.3.2.6.6.7-.7,1.8-1.9-1-2.2.7-1-.9,1-1.3,1.6-1.4h.1ZM422.4,21.2c0,1-.4,1.2-1.3,1.1,0-1,.4-1.2,1.3-1.1ZM421.4,25.5c-.9-.3-1.1-1.4-1.3-2.6,1.3-.1.9,1.7,1.3,2.6ZM418,113.7c.6.7.7,1.9.7,3.2-.7-.3-1-1.2-1.8-1.6,0-.9,1.1-.7,1.1-1.6h0ZM415.8,75.5c.6.2,1.9,0,1.8,1-.6,0-1.3-.1-1.4.3-.4,0-.2-.9-.3-1.3h0ZM416.1,132.8c1.1,0,2.6,0,2.6,1-1.2,0-2.6.1-2.6-1ZM418.2,123.1c-.6,0-.6-.2-1.1-.3.3-1.7.6-2.6.7-4.4,1.4.9.4,3.3.3,4.8h.1ZM414.8,33.4c.9-1.4,3.3-.4,4.8-.3,0,.6-.2.6-.3,1.1-1.7-.3-2.6-.6-4.4-.7h0ZM419.8,98.7c-1.4-.3,0-1.3-.3-2.6,1.3.2.6,1.8.3,2.6ZM423.8,74.8c-.4,2-2-.3-3.2,1,0-.2.1-.2.3-.3,0-1.2-1-2.1,0-3.4,1.4-.2,1.3,1.7.7,2.2,0,.9,1.2.6,2.1.6h.1ZM422.7,96.1c-.4,0-1.3.3,0,1-1.3,1.1,0,2.7-.7,4.2-1.7-3.3-.3-6.9-.7-10.5,2.2,0-.4,2.9,1.4,3.4-.7,0-1.1,1.3,0,1.9h-.1ZM421.2,82.9c2.7,2.2-.2,3.6.7,7.7-1.9-1.3-.6-5.6-.7-7.7ZM420.9,76.1c2.2-.2.6,1.2,1.4,2.2-.9.2-1.2.9-1.8,1.3-.2-.7.3-1.8.3-3.4h0ZM422.7,118.1c-1.6-.2-.6-1-1.1-1.9,1.3-.2,1.1,1,1.1,1.9ZM421.2,115.9c-.2-.4,0-2.2.9-2.8v-.2c-.4-.3-.9-.9-1.7-.9.4-2.1,1.3-7.1.3-8.7.7-.9.6-1.3,1.4-1.6-.9.6,1,2.2-.7,2.6.7,2.4,1.1,6.2.6,8.4h.1c0,.1-.1.1-.2.1,0,.1,0,.3-.1.4.3.4.4,1,1.4,1-1,.2-1.1,1.2-2.1,1.3h.1v.2ZM424.1,114c-1.7-.2-.7-1.9-.7-2.6.4,0,.6.6,1.1.6.2,1-.6,1-.3,1.9h-.1ZM423,70h2.1c0,.4-2.4,1.3-2.1,0ZM427,136.9c-1.8-.7,1-1.9-.7-2.2.9-1,1.3,1,1.4,1.6-.3.1-.6.2-.7.6h-.1ZM425.9,125.1c.3-.9,1.3-1.1,2.6-1.3.1,1.3-1.7.9-2.6,1.3ZM426.5,112.4c-1.3,1-.3-1.8,0-2.2,1.7.6-.7,1.9,0,2.2ZM429.5,69.7v1.3c-1.4.2-1.4-1.6,0-1.3ZM430.2,126c-1,0-1.2-.4-1.1-1.3,1,0,1.2.4,1.1,1.3ZM424.5,42.5c.4-1.3,4.6-.7,5.8-.3-1.3.4-4.9.2-5.8.3ZM429.1,35.2c0-1.1,0-2.6,1-2.6,0,1.2.1,2.6-1,2.6ZM430.6,29.1c-.7,0-.6,1-1,1.4-1.1-.2-2-.6-3.2-.7-2.2,2-5.9-2-8.7.7-.7-1.1-1.8-.7-2.9,0-1.3-1.2,1.8-1.6,1-2.1,0-1,.9.9.6-.7,2.7,2.2,7.2-.2,8.7,1.8,1.8-2.1,4-.9,6.3-.7,1.9,0,3.8-2.4,4.4.3.4-1.3.9-.9,2.2-1.4.1-.7-.4-.7-1-.7.9-.4,1.1-1.4,2.2-1.4-.9-1.4-3.3.9-4.8,1.1.9-.3,1-1.9-.6-1.4,0-.4,0-1-.3-1.1.6-1,2.1-.7,3.2-1.1,0,.6-.6.9-1.3.7.7,1.6,1.8-1.6,2.6,0,.9-.3-1-.9,0-1.4,2.2,2,3.8,1.7,7.7,1.1-.2,1.6.7,1.9,1.6,2.1.2,1.2-.4,1.1-.6,1.8-1.2-3.1-2.8,0-3.4-2.6-1,0-1.3.7-2.2.7,0,.3,1.4,1,1.3.3.7.6-.9,1.4-1.6.7,0,1.2.9,0,1,1.4.7,0,1.1-.2,1-1.1,1,1.3-.9,2.7-1.6,3.2-.9.2-.6-.7-1.3-.7-.6,1.1-6.8,1.4-7.3-.3-1.1.1-1.6,1.8-1.9,0h-.1ZM443.3,29.4c.4-1.2.7.7,1.6.3v.7c-.2.2-.4.3-1,.3v-1.4h-.6ZM443.1,33.7c-1.1-.7-1.9.9-2.2-.7-1.2.2-1.8,1.1-1.9,2.6-1.1-.6-1.4.2-2.6-.3.6-2.7-3.1-.2-4.2-1.8.1-.2.3-.6.3-1.1,2.1-.4,2.9.2,4.2-.3.6-.3.2,2,.6.7,1.2.6-.7.6-.6,1.1.7,1,2-.4,1.3-1.4,2.1.4,6-1.3,7.3.7-.4-.4-2.6-.7-2.2.7h-.1ZM445.2,28.3c-.9.4-1-1.4-1.3-.3-1-.3.2-1.2,0-1.8.2,0,.2.1.3.3.2-.1.6-.3.6-.7.9.3-.7,1.4,1,1.1,0,.7-.9.4-.6,1.4h0Z"/>
    <path class="st0" d="M763.3,127.4h0v-61.3c-1.1,0-1.1-1.4,0-1.4v-19.2c0-17.8-8.7-26.5-26.2-26.5s-6.6.3-9.4,1.1h0c-2.6.7-4.9,1.7-6.9,2.9.4-.2,1.1-.2,1.7-.3.2,1.6-1.9.9-2.9,1.4,0-.1,0-.2.1-.3-1.8,1.3-3.3,2.9-4.6,4.8,2.2,2.1.7,4.4.7,7.1s2.8,4.3-.4,5c1.4.6.9,1.1,1.7,2.6.9.1.8-.4.8-1.1.4.9,1.7,1.2,1.7,2.6,1.7-.9-.9-3.8-1.2-5.4.4.9,2.2,1.1,1.7-.7.6,0,1.2,0,1.2-.3,1.1.6.8,2.3,1.2,3.7-.7,0-.9-.6-.8-1.4-1.8.8,1.8,2,0,2.9.3.9.9-1.1,1.7,0-2.2,2.7-1.9,4.3-1.3,8.7-1.8-.2-2.1.8-2.4,1.8-1.3.3-1.3-.6-2.1-.7,3.6-1.4,0-3,2.9-4,0-1.1-.7-1.6-.8-2.6-.3,0-1.1,1.7-.4,1.4-.6.7-1.7-.9-.8-1.8-1.4,0,0,.9-1.7,1.1,0,.8.3,1.2,1.2,1.1-1.6,1.1-3-.9-3.7-1.9-.2-.9.8-.7.8-1.4-1.3-.7-1.7-7.8.4-8.3-.2-1.3-2-1.8,0-2.1-.1-.7-1.1-.7-1.7-1.1.2-1.2.7-2.3.8-3.7,0,0,0-.1-.1-.2-1.2,2.1-2.1,4.6-2.7,7.3.4,2.2-.2,3,.3,4.6.2.3-.7.3-1.1.4v.2h.2c-.1.2-.2.3-.3.4v.6c.2,0,.4,0,.7-.2-.4,2.3,1.6,6.8-.8,8.3v25.2h18.2v-24c-1.3-1.2-.1-3.3-1.4-4.9,3.2-1.1-1.3-8,1.7-10.1v5.6c.7-3.9,3.3-5.9,7.7-6h.1c5.3,0,7.9,2.8,7.9,8.5v45.5c-22.4,2.2-33.6,14-33.6,35.2s1.6,12,4.6,16.4c3,4.4,7.6,6.7,13.5,6.7s4-.3,5.9-.8c0-.7.4-1.3,1.3-.8v.3c1.6-.6,3-1.6,4.3-2.6-.6-1.4.6-3-.2-4.7,1.3,1.1,1.1,2.4.8,4.1,1.7-1.4,3-3.3,4.2-5.4l1.3,7.8h1.2c.3-1.1-.2-1.4.2-2.6,2.9.7.2-3.6,2.1-4.7.3.2.7.3,1.2.3.4,2.3-.2,3.2.3,4.7.3.7-2.3.2-.8.7-.7,1.4-.7-.8-1.2-.7-1.2.8.6,2.3,1.7,1.4v.7h2.6c-.6-2.2-.3-6.4,1.2-6.9-.2-1.3-2-1.8,0-2.2-.1-.7-1.1-.7-1.7-1.1.2-1.2.7-2.3.8-3.7-2.3-2.4,2.3-6.7-.8-9.8,1.3-.8.8-2.1,0-3.3,1.3-1.4,1.8,2.1,2.4,1.1,1.2,0-.9.9.8.7-2.6,2.9.3,8.1-2.1,9.8,2.4,2.1.9,4.4.8,7.3,0,2.1,2.8,4.3-.4,5,1.4.6.9,1.1,1.7,2.6.9.1.8-.4.8-1.1.3.6.9.9,1.3,1.4h.8c0-1.3-1.6-3.2-1.8-4.3.4.9,2.2,1.1,1.7-.7.6,0,1.2,0,1.2-.3,1.1.6.8,2.3,1.2,3.7-.7,0-.9-.6-.8-1.4-1.8.8,1.8,2,0,2.9.3.9.9-1.1,1.7,0-.1.1-.2.2-.2.3h.3v-19c-.1-.2-.1-.6,0-.9h.6-.3ZM720.9,37.4c-2-.8,1.1-2.1-.8-2.6.9-1.2,1.6,1.1,1.7,1.9-.3.1-.7.3-.8.7h-.1ZM711.8,57.4c-1.4-1.2-.3-3.7-.3-5.4,1.1.7.4,3.9.3,5.4ZM714.7,50.9h-.8c-.2-.2-.4-.6-.4-1.1h1.7v-.7c1.4.6-.8.9-.4,1.8h.1-.1ZM716.3,51.3c-.6-.9,1.7-1.2.4-1.4.3-1.1,1.3.2,2.1,0,0,.3-.1.3-.4.3.2.3.3.7.8.7-.3.9-1.7-.8-1.2,1.1-.8,0-.6-.9-1.7-.7h-.1.1ZM717.9,55.3c-.3-.2-.7-.3-1.2-.3.2-.2.6-.9,0-1.1,0-.3.1-.3.4-.3h.8c-.2,1.2.7,1.2,0,1.9h-.1.1ZM720.9,54.6c-.6-.2-.7-.8-.8-1.4.3,0,.3.1.4.3.6,0,.1-1.1.8-1.1,1.6-.3.3,1.7,1.7,1.4.2,1.1-2.2-.2-2.1.7h0ZM724.6,25.3c-1.1,0-1.3-.4-1.2-1.4,1.1,0,1.3.4,1.2,1.4ZM727.9,23.7c-.9-.2-1.2-2.2.4-2.1,0,.9,0,1.8-.4,2.1ZM732.3,23.4c-.9-.4-.1-2.6-.4-3.7,1.2,1.1.7,2.9.4,3.7ZM741.7,93.8c1.4.3-.1,1.4.8,1.8,0,.3-.4.2-.4,0-.7,0-.8.4-1.7.3.1-.9,1.2-1.1,1.2-2.1h.1,0ZM742,104.7c-1.9-.1.1-2.7-.8-2.9,2.1-.7.1,2,.8,2.9ZM737.9,96.3c.6-.6,1.9.2,2.1,1.1-1.2,0-2.2,0-2.1-1.1ZM736.2,100c1.1,0,.9,1.3.4,1.8-1.1,0-.9-1.3-.4-1.8ZM736.2,102.1c1.1,0,.1,1.3,0,1.4-.8-.2-.2-1.7-1.2-1.8.7-1.7.9,1.8,1.2.3ZM740.7,138c-.6-1.4-.2-5.6-.3-6.6,1.6.6.8,5.2.3,6.6ZM745.2,115.1c0,11-4,16.9-11.8,17.5-2.4,0-3.7-2.7-3.7-8.2,0-8.1,5.2-13.4,15.5-16v6.7h-.1ZM750.5,114.8c.7.8.9,2.1.8,3.7-.8-.4-1.2-1.4-2.1-1.8,0-.9,1.3-.8,1.2-1.8h.1,0ZM748.2,71.4c.7.3,2.2,0,2.1,1.1-.6,0-1.6-.2-1.7.3-.6,0-.3-.9-.4-1.4ZM748.5,136.5c1.3,0,2.8,0,2.9,1.1-1.3,0-2.9.1-2.9-1.1ZM751,125.7c-.7,0-.7-.3-1.2-.3.3-2,.7-2.9.8-5,1.7.9.4,3.8.3,5.4h.1ZM754,67.4c1.7-.3,1.4,2,.8,2.6,0,.9,1.4.7,2.4.7-.4,2.2-2.3-.4-3.7,1.1,0-.3.1-.3.4-.3,0-1.4-1.1-2.4,0-4h-.1.1ZM756,94.9c-.4,0-1.4.4,0,1.1-1.4,1.3,0,2.9-.8,4.7-1.9-3.9-.4-7.9-.8-12,2.6,0-.6,3.3,1.7,4-.8-.1-1.3,1.6,0,2.1h-.1ZM754.3,79.7c3,2.6-.2,4,.8,8.7-2.1-1.6-.7-6.2-.8-8.7ZM752.6,97.8c-1.7-.3,0-1.4-.4-2.9,1.4.2.7,2.1.4,2.9ZM754,72c2.6-.2.7,1.3,1.7,2.6-.9.2-1.4.9-2.1,1.4-.3-.7.3-2,.4-4ZM756,120c-1.8-.3-.6-1.2-1.2-2.2,1.6-.2,1.3,1.1,1.2,2.2ZM754.3,117.3c-.3-.4,0-2.6,1.1-3.2v-.2c-.6-.4-.9-.9-1.9-.9.4-2.4,1.4-8,.4-9.8.8-1.1.7-1.6,1.7-1.8-.9.7,1.2,2.7-.8,2.9.8,2.7,1.3,7,.6,9.7h.1c0,.1-.1.1-.2.2,0,.2,0,.4-.1.6.3.4.6,1.2,1.7,1.1-1.1.2-1.2,1.4-2.4,1.4h-.1ZM757.6,115.1c-1.9-.2-.8-2.2-.8-2.9.6.1.6.6,1.2.7.2,1.1-.7,1.1-.4,2.2h.1-.1ZM756.4,65.1h2.4c0,.6-2.7,1.4-2.4,0ZM760.4,110.8c1.9.7-.8,2.1,0,2.6-1.4,1.2-.3-2,0-2.6ZM760.8,141.3c-2-.7,1.1-2.1-.8-2.6.9-1.2,1.6,1.1,1.7,1.9-.3.1-.7.3-.8.7h-.1ZM759.6,127.8c.3-1.1,1.6-1.3,2.9-1.4.2,1.6-1.9.9-2.9,1.4Z"/>
    <path class="st0" d="M928,147.4c-1.7-.2.2-2.6-.7-2.8,2.1-.7.2,2,.8,2.8,5.2-.7,9.3-2.2,12.7-4.9-1.1-3.4,0-7.1-.4-10.9,2.6-.1-.6,3.2,1.7,3.9-.8-.1-1.2,1.6,0,2.2-.4,0-1.4.4,0,1-1,.9-.7,2-.6,3.1,4.9-4.4,7.4-11.1,7.4-20.4s-5.7-22.3-16.9-30.3c-8.2-5-13.4-10.7-15.7-17.2-.2.3-.3.6-.7.8.6-.6.8-2.8-.8-2.6.7-1-.7-2.1.6-2.4v-1c-.4-.7-1.2-1-2.4-1.1.6-1.2-.2-1.7.4-2.9,2.8.6.4-3.2,1.9-4.6v-2.7c-1,0-1.9-.1-1.9-1,.6,0,1.2,0,1.9.1v-11c-.2,0-.3-.2-.7-.2.3-2,.7-2.9.8-5,.2.1.3.3.4.6.6-1.7,1.7-2.8,3.1-3.4-.2-.6,0-2.6,1-3.1v-.2c-.4-.3-.9-.9-1.9-.9.4-2.4,1.4-7.9.4-9.5.8-.9.7-1.6,1.7-1.8-.9.7,1.1,2.7-.8,2.9.8,2.7,1.2,7,.7,9.4h.1c0,.1-.1.1-.2.1,0,.2,0,.4-.2.6.3.4.6,1.1,1.7,1-.7.1-.9.6-1.4.9.8-.2,1.8-.3,2.9-.3h.1c5.2,0,7.9,2.9,7.9,8.4v30.5h2.6c-.8-1.1,0-3.1-1.1-4.6,3.1-1-1.2-7.9,1.7-10,0,6-.1,10.4.7,14.5h14.2v-30.5c0-17.4-8.5-26.2-25.8-26.2s-2,0-3,0c0,.7,0,1.4-.2,2.1-.3-.7-.4-1.2-.7-2-4.9.4-8.9,1.7-12.1,3.7,0,.7-.4,1.8-.1,2.2-1,0-.9-.9-.7-1.7-6,4.3-9,11.4-9,21.8v21.5c0,14.4,5.6,25.6,16.9,33.6,7.9,5.7,13,10.8,15.3,15.5,0,0,.1,0,.2.1v.3c.8,1.8,1.2,3.4,1.2,5.1,0,5.7-2.6,8.4-7.9,8.4s-7.9-2.8-7.9-8.4v-8.8h-18v8.8c0,17.4,8.5,26.2,25.8,26.3,1.9,0,3.6-.1,5.2-.3h0l-.2.3ZM941.1,131.4c-2.1-1.6-.7-6.1-.8-8.5,3,2.6-.2,3.9.8,8.5ZM944.6,108.6c0,.6-2.7,1.4-2.4,0h2.4ZM939.7,110.7c1.7-.3,1.4,2,.8,2.6,0,.9,1.4.7,2.4.7-.4,2.2-2.3-.4-3.6,1,0-.3.1-.3.4-.3,0-1.4-1-2.4,0-3.9h-.1ZM939.7,115.4c2.6-.2.7,1.2,1.7,2.6-.9.2-1.4.9-2.1,1.4-.3-.7.3-2,.4-3.9h0ZM938.2,137.9c1.4.2.7,2.1.4,2.9-1.7-.3,0-1.4-.4-2.9ZM936.2,115.8c-.7,0-1.6-.1-1.7.3-.6-.1-.3-.9-.3-1.4.7.3,2.2,0,2,1h0ZM936.1,43.7c1.1,1,.7,2.9.4,3.6-.9-.4-.1-2.6-.4-3.6ZM932,47.7c-.9-.2-1.1-2.2.3-2.1,0,.9,0,1.8-.3,2.1ZM931.6,33.4c.8,2.4.7,4,.3,5.7-1-1.8-.9-3.9-.3-5.7ZM932,44.2c-.9-1.7-.2-3.2-.8-4.7,2.7.3.7,3.4.8,4.7ZM924.9,31.3c1.9.7-.8,2.1,0,2.6-1.4,1.1-.3-2,0-2.6ZM921.2,32.6c.6.1.7.6,1.2.7.2,1-.7,1-.3,2.1-1.9-.2-.8-2.2-.8-2.9h-.1ZM915,35.2c.7.8.9,2.1.8,3.6-.8-.4-1.1-1.4-2.1-1.8,0-.9,1.2-.8,1.2-1.8h.1ZM900.4,69.5c-.8-.1-.7-2.6.8-1.9.3,1-1.1.7-.8,1.9ZM901.3,39.5c-1.2-.2-1.4-3.9.8-3.2-.8.6-.9,1.9-.8,3.2ZM904.7,33.1c.4,0,.7,0,.8.3.6-.3.9-.9.8-1.8-1.6-.4,0,1.7-1.7,1,.2-1.1.7-2.3,2.1-2.6,1,.9-.9,2.9,1.2,3.2-.7,0-3,1.8-2.8.3-1,.6-.1,2.6,0,3.2-2.1-.4-.8-2.4-.3-3.9h-.2.1ZM905,37.6c.6,0,1.1,0,1.2-.3,1.6.7.6,1.8.8,2.1-.8.9-1.6-.2-.8-1-.4.2-.4.8-1.2.7,0,.9.7,1.1.8,1.8.8-1.6,2.1,0,2.4,1-.6-1-1.7.6-2.1-.3-1.4.7-1.1,2.4-.8,3.2-2.1.3-1.4-5.1-.3-7.2h0ZM905.3,60.9c1.7,1.2.7,3.1.8,5.3-1.8-1.6,0-3.3-.8-5.3ZM905,51.6c1.6.6.8,5.1.3,6.4-.6-1.4-.2-5.4-.3-6.4ZM908.9,77c-1.2-.3-.9,0-2.4,0-.2.9.1,1.2,1.2,1,0,.3-.1.3-.3.3v.7c-2.9-.9-.9-4.9-2.4-6.4.1-.4.7-.6.8-1,.4.1.8.4.8,1,.9-.6-.2-.9.3-1.9-.1-.4-1-.3-1.7-.3.1-1.2.9-2.3.3-3.9.3,0,.3.4.3.7,1.2.4.3-1.1,1.7-.7,0,3-1,7.1,1.7,8.2,0,.9,0,1.8-.3,2.1h0v.2h.1ZM916.2,80.9c-1.4-1.1-.3-3.6-.3-5.3.9.7.4,3.8.3,5.3ZM928.9,113.6c-1.2-.1-.3-2.3-2.4-1.8.8-1,2.6-.2,1.7-2.2,2.4.8,0,1.9.8,3.9h0ZM928.4,138.5c0,.4-.3.2-.3,0-.7,0-.8.4-1.7.3.1-.9,1.1-1,1.2-2.2,1.4.4-.1,1.4.8,1.8h-.1.1ZM928.1,132.5v1.4c-1-.7-2.6-1.1-2.8-2.6.9.3,1.8.8,2.8,1h0ZM924.1,139.2c.7-.6,1.9.1,2.1,1-1.1,0-2.2,0-2.1-1ZM922.4,142.8c1,0,.9,1.2.3,1.8-1,0-.9-1.2-.3-1.8ZM921.2,144.6c.7-1.7.9,1.8,1.2.3,1,0,0,1.2,0,1.4-.8-.2-.2-1.7-1.2-1.8Z"/>
    <path class="st0" d="M625.4,121.3c0,3.6-.3,6.7-1,9.4-1.4,5.6-4.2,9.9-8.3,12.7-2.1,1.4-4.6,2.4-7.2,3.2s-5.9,1.1-9.3,1.1-6.6-.3-9.3-1.1c-11.1-2.9-16.5-11.2-16.5-25.3V19.3h18.1s0-.8,0,3.3c0-.7,0,0,0,1.4v4.7c0,1.6,0,2.8,0,2.7v-4.8c0-2.8,0-3.3,0-2.3v10.8c0,.2,0,0,0-1v-10.7c0-.6,0,0,0,2v10.3c0,.8,0-.4,0-.2v8.2c0-3.1,0,.4,0-.4s0,2.6,0,5.3v7.2c0,.4,0,.3,0-.2v-10.5,4.7c0-2.4,0-.7,0,.4s0,1.7,0-3.2,0-4.7,0-4.6v14.4c0-5,0-2,0-3.6s0-2.9,0-1.9v22.1-11.1,7.3c0,1.2,0,1.9,0,1,0-2.2,0,7.3,0,2.4s0,0,0,2.2,0,4.4,0,3.8c0,2.1,0,2.2,0,1.4v-8.8c0-.9,0-.8,0,1.1,0-.2,0-1,0-.8v10.7c0,2,0,2.3,0,0,0,4.8,0,2.2,0,0,0-3.2,0-1.9,0,.3v32.6c0,3.1,0,3.7,0,1.9v3.3c0,2.9.7,4.9,2,6.3.7.7,1.4,1.2,2.4,1.6s2.1.6,3.4.6,2.4-.2,3.6-.6,1.9-.9,2.4-1.6,1.2-1.6,1.4-2.7c.3-1.1.4-2.3.4-3.8v-61.4c0-3,0-4.7,0-2.9s0-.7,0-3.7v-22.5c0-.9,0-1,0,.4v-11.9h18.1v102.2h0v.2h-.2Z"/>
    <path class="st0" d="M505.7,121.3c0,3.6-.3,6.7-1,9.4-1.4,5.6-4.2,9.9-8.3,12.7-2.1,1.4-4.6,2.4-7.2,3.2-2.7.8-5.9,1.1-9.3,1.1s-6.6-.3-9.3-1.1c-11.1-2.9-16.5-11.2-16.5-25.3V19.3h18.1s0-.8,0,3.3c0-.7,0,0,0,1.4v4.7c0,1.6,0,2.8,0,2.7v-4.8c0-2.8,0-3.3,0-2.3v10.8c0,.2,0,0,0-1v-10.7c0-.6,0,0,0,2v10.3c0,.8,0-.4,0-.2v8.2c0-3.1,0,.4,0-.4s0,2.6,0,5.3v7.2c0,.4,0,.3,0-.2v-10.5,4.7c0-2.4,0-.7,0,.4s0,1.7,0-3.2,0-4.7,0-4.6v14.4c0-5,0-2,0-3.6s0-2.9,0-1.9v22.1-11.1,7.3c0,1.2,0,1.9,0,1,0-2.2,0,7.3,0,2.4s0,0,0,2.2,0,4.4,0,3.8c0,2.1,0,2.2,0,1.4v-8.8c0-.9,0-.8,0,1.1,0-.2,0-1,0-.8v10.7c0,2,0,2.3,0,0,0,4.8,0,2.2,0,0,0-3.2,0-1.9,0,.3v32.6c0,3.1,0,3.7,0,1.9v3.3c0,2.9.7,4.9,2,6.3.7.7,1.4,1.2,2.4,1.6,1,.3,2.1.6,3.4.6s2.4-.2,3.6-.6,1.9-.9,2.4-1.6,1.2-1.6,1.4-2.7c.3-1.1.4-2.3.4-3.8v-61.4c0-3,0-4.7,0-2.9s0-.7,0-3.7v-22.5c0-.9,0-1,0,.4v-11.9h18.1v102.2h0v.2h-.2Z"/>
    <path class="st0" d="M869.7,91.2v-45.6c0-5.8-2.7-8.5-7.9-8.5h-.1c-5.3,0-8,2.9-8,8.5v31.1h-18.3v-31.1c0-17.8,8.8-26.6,26.3-26.6s26.2,8.9,26.2,26.6v102.2h-16.3l-1.3-7.8c-3.7,6.6-9.2,9.9-16.4,9.9s-10.4-2.2-13.4-6.8c-3-4.4-4.6-10-4.6-16.4,0-21.3,11.2-33.1,33.8-35.3h.1ZM869.7,108.6c-10.3,2.6-15.5,7.9-15.5,16s1.2,8.2,3.7,8.2c7.9-.6,11.8-6.4,11.8-17.5v-6.8h.1Z"/>
    <path class="st0" d="M565.7,121.3c0,16.9-8.1,25.8-24.5,26.3h-1.4c-.4-1-.4-2.1-1.7-2.1s-1.2,1.2-2.4,2c-.7,0-1.3-.1-1.9-.2-3.1-.4-5.9-1.3-8.2-2.4-1.9-1-3.6-2.2-5-3.7s-2.3-3.1-3.6-5.1c-.7-2-2.1-4.1-2.3-6.6-.6-2.4-.8-5.1-.4-8,.7,0,.3-3,0-7.9.2-2.4.1-5.3.2-8.5.2-3.2.2-6.7-.2-10.3,1.2-3.7.9-7.4.3-11.2.1-3.8-.1-7.6-.3-11.2-.6-3.7-1.1-7.1,0-10.3,1-3.2.7-6.1,0-8.5.1-4.9-.4-7.9,0-7.9,0-2.9.9-5.6,1-8,0-2.4,1.3-4.6,1.9-6.6,1-1.9,2.1-3.7,3.6-5.1,1.4-1.4,3.1-2.7,5-3.7s4-1.7,6.4-2.2c1.8-.3,3.4-.6,5.4-.7h1.2c1.9.9.7,3.2.7,4.4,2.3,0,0-3.6,1.9-3.9.2-.1.6-.3,1-.6.8,0,1.4,0,2.1.1,4.1.3,7,1.2,9.9,2.8,7.7,3.9,11.4,11.5,11.4,23.3,0,0-.3,3.3,0,7.9.2,4.6.2,10.1,0,14.7s.4,7.9,0,7.9h-9c-4.3,0-10,0-9,0s-.4-3.3,0-7.9c-.1-4.6-1-10.1,0-14.7v-7.9c-.4-2.8-.8-4.9-2-6.3-.9-.9-2.1-1.6-3.4-1.9-.7-.1-1.4-.2-2.3-.2.9,0-.6,0-.1,0-2.1,0-4.8.7-5.8,2.1-1.2,1.4-1.6,3.6-1.9,6.3-.4,0-.2,3,0,7.9.9,4.9-.1,11.5,0,19,.3,4.9.4,10,.3,15.1,0,.7,0,1.2-.2,1.9-1,.9-1,2,0,3.8,0,.7,0,1.2-.1,1.8-.9,7.3.8,14,0,19v7.9c0,5.7,2.6,8.4,7.8,8.4s4.6-.7,5.9-2.1,2-3.6,2-6.3c-.6,0,.8-5.1,0-10.1-.2-5.1,1.1-10.1,0-10.1h18.1c-.6,0,.1,5.1,0,10.1v10.1h-.2v-.6Z"/>
    <path class="st0" d="M667.6,85s-6.1-10.3-10.8-18.3c-.2-.4-.6-.9-.8-1.2-1.1.2-1.1-.9-1.4-2.8-.4-.8-.9-1.6-1.2-2.2-1.1-2.1-2-3.3-2-3.3v33.4c0,13,1.2,27.6,0,41.4v15.8h-17.9v-5.6c0-3.6.1-8.4,0-14.5.3-6,.4-13.1,0-20.5-.2-7.6,0-15.7,0-23.7.2-8,.2-16.1,0-23.7.2-7.6,0-14.5,0-20.5-.3-6,.4-11,0-14.5-.3-3.6,0-5.6,0-5.6h14.5s2.8,4.7,6.2,10.4c.2.4.6,1,.9,1.9-.1,3.7-.1,7.2,4.6,7.3.3.4.6,1,.9,1.4,3.9,6.6,7.1,12,7.1,12l19.7-33.2h14.5v5.6c-.3,3.6.4,8.4,0,14.5.6,6,.6,13.1,0,20.5-.2,3.8.1,7.7,0,11.5-.3,3.9.1,7.9,0,12,0,4,.2,8,0,12-.3,3.9,0,7.8,0,11.5-.4,3.8.3,7.3,0,10.9,0,3.4-.4,6.8,0,9.8-.6,6,0,11,0,14.5v5.6h-17.9s-.3-2.6,0-6.7c.7-4.1.7-10.1,0-16.8-.3-6.7,0-14.2,0-21.8-.8-7.6-.7-15.1,0-21.8.4-6.7.4-12.7,0-16.8-.3-4.2.1-6.7,0-6.7-.2,0-2,3.1-4.2,7.2-2.7,4.1-5,9.3-7.9,13.4-2.4,4.1-4.2,7.2-4.2,7.2h-.1Z"/>
    <polygon class="st0" points="791.4 72.4 791.4 57.7 808.4 87.7 808.4 147.4 826.4 147.4 826.4 19 808.6 19 808.6 54.4 788.5 19 773.2 19 773.2 26.7 773.2 26.7 773.2 26.8 773.5 92.5 773.5 147.6 791.4 147.6 791.4 72.4 791.4 72.4"/>
  </g>
</svg>