<?xml version="1.0" encoding="UTF-8"?>
<svg id="Capa_1" xmlns="http://www.w3.org/2000/svg" version="1.1" viewBox="0 0 370.9 185.4">
  <!-- Generator: Adobe Illustrator 29.3.1, SVG Export Plug-In . SVG Version: 2.1.0 Build 151)  -->
  <defs>
    <style>
      .st0 {
        fill: #fff;
      }
    </style>
  </defs>
  <g id="Capa_11" data-name="Capa_1">
    <g>
      <g>
        <path class="st0" d="M40.9,148.5h-7.9v-6.4h23.1v6.4h-7.9v20h-7.3v-20Z"/>
        <path class="st0" d="M78.7,168.9c-1.9,0-3.6-.2-5.1-.7-1.5-.5-2.8-1.2-3.8-2.2-1.1-1-1.9-2.2-2.4-3.8s-.8-3.3-.8-5.4v-14.8h7.5v14.6c0,1.9.4,3.3,1.3,4.2.9.9,2,1.4,3.5,1.4s2.6-.4,3.5-1.3,1.3-2.2,1.3-4.1v-14.8h7.5v14.6c0,2.1-.3,4-.9,5.5-.6,1.5-1.4,2.8-2.5,3.8s-2.4,1.7-3.9,2.2-3.2.7-5.1.7h0Z"/>
        <path class="st0" d="M115.6,169c-1.9,0-3.7-.3-5.3-1-1.7-.7-3.1-1.6-4.3-2.8-1.2-1.2-2.2-2.7-2.9-4.3s-1.1-3.5-1.1-5.4h0c0-2,.3-3.8,1.1-5.4.7-1.7,1.7-3.1,2.9-4.4,1.2-1.2,2.7-2.2,4.4-2.9,1.7-.7,3.6-1.1,5.6-1.1s2.6.1,3.7.4c1.1.3,2.1.6,3,1.1s1.7,1.1,2.5,1.8c.7.7,1.4,1.4,2,2.2l-5.5,4.3c-.8-.9-1.6-1.7-2.5-2.3-.9-.6-2-.8-3.3-.8s-1.8.2-2.5.6c-.8.4-1.4.9-2,1.5s-1,1.4-1.3,2.2c-.3.9-.5,1.8-.5,2.7h0c0,1.1.2,2,.5,2.9s.8,1.6,1.3,2.2,1.2,1.1,2,1.5c.8.4,1.6.6,2.5.6s1.3,0,1.9-.2c.6-.1,1.1-.4,1.5-.7.5-.3.9-.6,1.3-1,.4-.4.8-.8,1.2-1.3l5.5,3.9c-.6.9-1.3,1.6-2.1,2.4-.7.7-1.6,1.4-2.5,1.9-.9.5-2,.9-3.2,1.2-1.2.3-2.5.4-3.9.4h0Z"/>
        <path class="st0" d="M149.8,168.9c-1.9,0-3.6-.2-5.1-.7s-2.8-1.2-3.8-2.2c-1.1-1-1.9-2.2-2.4-3.8-.6-1.5-.9-3.3-.9-5.4v-14.8h7.5v14.6c0,1.9.4,3.3,1.3,4.2s2,1.4,3.5,1.4,2.6-.4,3.5-1.3,1.3-2.2,1.3-4.1v-14.8h7.5v14.6c0,2.1-.3,4-.9,5.5-.6,1.5-1.4,2.8-2.5,3.8s-2.4,1.7-3.9,2.2c-1.5.5-3.2.7-5.1.7h0Z"/>
        <path class="st0" d="M174,142.1h7.7l6.3,10.2,6.3-10.2h7.7v26.4h-7.3v-15.1l-6.7,10.3h-.1l-6.7-10.2v15.1h-7.2v-26.4h0Z"/>
        <path class="st0" d="M223.4,141.9h7l11.2,26.6h-7.8l-1.9-4.7h-10.2l-1.9,4.7h-7.7l11.2-26.6ZM229.8,158.1l-2.9-7.5-3,7.5h5.9Z"/>
        <path class="st0" d="M251.7,142.1h6.8l10.9,13.9v-13.9h7.2v26.4h-6.4l-11.3-14.5v14.5h-7.2v-26.4h0Z"/>
        <path class="st0" d="M298,141.9h7l11.2,26.6h-7.8l-1.9-4.7h-10.2l-1.9,4.7h-7.7l11.2-26.6ZM304.4,158.1l-2.9-7.5-3,7.5h5.9Z"/>
        <path class="st0" d="M336.7,168.9c-2.4,0-4.6-.4-6.7-1.1-2.1-.7-4-1.8-5.6-3.3l4.1-4.9c2.6,2.1,5.5,3.2,8.5,3.2s1.7-.2,2.2-.5c.5-.3.8-.8.8-1.3h0c0-.4,0-.6-.2-.8-.1-.2-.4-.4-.7-.6-.3-.2-.8-.4-1.4-.6-.6-.2-1.3-.4-2.2-.6-1.4-.3-2.7-.7-3.9-1.1-1.2-.4-2.2-.9-3.1-1.5s-1.6-1.4-2.1-2.3c-.5-.9-.8-2.1-.8-3.4h0c0-1.3.2-2.4.7-3.5.5-1,1.1-1.9,2-2.7.9-.8,2-1.3,3.2-1.8,1.3-.4,2.7-.6,4.3-.6,2.3,0,4.3.3,6,.9,1.8.6,3.4,1.5,4.8,2.6l-3.6,5.2c-1.2-.9-2.4-1.5-3.7-1.9s-2.5-.7-3.7-.7-1.5.2-2,.5-.7.7-.7,1.2h0c0,.4,0,.6.2.9.1.2.4.4.7.6s.8.4,1.4.6,1.3.4,2.2.6c1.5.3,2.9.7,4.1,1.1,1.2.4,2.2,1,3.1,1.6.9.6,1.5,1.4,2,2.3.5.9.7,1.9.7,3.2h0c0,1.4-.3,2.6-.8,3.7s-1.2,1.9-2.2,2.7-2,1.3-3.4,1.7c-1.3.4-2.8.6-4.4.6h0Z"/>
      </g>
      <path class="st0" d="M132.3,87.3c0,3.2-.3,6.1-.9,8.6-1.3,5.1-3.8,9-7.6,11.5-1.9,1.3-4.1,2.2-6.6,2.9s-5.4,1-8.5,1c-3.2,0-6-.3-8.5-1-10.1-2.6-15.1-10.2-15.1-23.1V18.3h16.5s0-.7,0,3c0-.6,0,0,0,1.3v4.3c0,1.4,0,2.5,0,2.4v-4.4c0-2.5,0-3,0-2.1v9.8c0,.2,0,0,0-.9v-9.7c0-.5,0,0,0,1.8v9.4c0,.7,0-.4,0-.2v7.5c0-2.8,0,.4,0-.4s0,2.3,0,4.9v6.6c0,.5,0,.5,0-.2v-9.6,4.3c0-2.2,0-.6,0,.4s0,1.5,0-2.9,0-4.3,0-4.1v13.2c0-4.6,0-1.8,0-3.2s0-2.6,0-1.7v18c0,1.5,0,2.1,0,2.1v-10.1,6.7c0,1.1,0,1.7,0,.9,0-2,0,6.7,0,2.2s0,.1,0,2,0,4,0,3.4c0,1.9,0,2,0,1.3v-8c0-.8,0-.7,0,1,0-.2,0-.9,0-.7v9.7c0,1.8,0,2.1,0,0,0,4.4,0,2,0,0,0-2.9,0-1.7,0,.3v5.8c0,2.8,0,3.3,0,1.7v3c0,2.6.6,4.5,1.8,5.8.6.6,1.3,1.1,2.2,1.4.9.3,1.9.5,3.1.5s2.2-.2,3.2-.5,1.7-.8,2.2-1.4,1.1-1.4,1.3-2.4c.3-1,.4-2.1.4-3.4v-32c0-2.7,0-4.2,0-2.6s0-.6,0-3.3v-20.8c0-.8,0-.9,0,.4v-10.8h16.5v69.1h0Z"/>
      <path class="st0" d="M242.6,110.2c0,16-7.9,24-23.7,24-15.8,0-23.6-8-23.6-24V40.4c0-16,7.9-24,23.6-24s23.7,8,23.7,24v28h-16.5v-28c0-5.1-2.4-7.7-7.2-7.7h-.1c-4.7,0-7.1,2.6-7.1,7.7v69.8c0,5.2,2.4,7.7,7.2,7.7s7.2-2.6,7.2-7.7v-8.1h-7.2v-16.3h23.6v24.4h0Z"/>
      <path class="st0" d="M279.1,81.6v-41.1c0-5.2-2.4-7.7-7.1-7.7h-.1c-4.8,0-7.2,2.6-7.2,7.7v28h-16.5v-28c0-16,7.9-24,23.7-24s23.6,8,23.6,24v92h-14.7l-1.2-7c-3.3,5.9-8.3,8.9-14.8,8.9-5.4,0-9.4-2-12.1-6.1-2.7-4-4.1-9-4.1-14.8,0-19.2,10.1-29.8,30.4-31.8h0ZM279.1,97.2c-9.3,2.3-14,7.1-14,14.4s1.1,7.4,3.3,7.4c7.1-.5,10.6-5.8,10.6-15.8v-6.1h0Z"/>
      <g>
        <path class="st0" d="M39,79.8c.1,0,.3,0,.4,0-.2-.3-.3-.2-.4,0Z"/>
        <path class="st0" d="M43.3,87.2s0,0,0,0h0s0,0,0,0Z"/>
        <path class="st0" d="M48.2,74.3c0,0-.2.2-.3.2h0c-.2.1-.3.2-.5.4-.2.1-.4.3-.6.4-.2.2-.4.3-.6.5s-.5.3-.7.4c-.3.2-.6.5-.9.7,0,0,0,0,0,0-.1.1-.3.2-.4.3-.2.2-.4.3-.6.5,0,0-.2.1-.3.2-.3.2-.5.4-.8.6-.2.1-.3.2-.5.3-.2.2-.4.3-.7.5q-.1.1,0,0c0,0-.1.1-.2.2-1,.8-2,1.6-3,2.3l1.2,4.8c.6-.6,1.2-1.2,1.9-1.7.8-.8,1.7-1.5,2.6-2.2.3-.3.6-.5.9-.7,0,0,.2-.1.3-.2,1.5-1.1,3.1-2.1,4.7-3,.2-.1.4-.3.7-.4s.5-.2.7-.3h0c.2-.2.5-.3.8-.4,1-.5,2-.9,3-1.3,1.1-.4,2.2-.9,3.3-1.3,2.4-1.1,4.8-2.1,7.2-3.2,0,0,0,0,0,.1-.6.7-1.4,1.1-2.2,1.7-1.3,1-2.7,1.9-4.1,2.9l-6.5,4.6c-1.6,1.1-3.7,2.8-5.6,3.8-.2.2-.5.4-.8.5-.7.5-1.4,1-2.1,1.4,0,0,0,0,0,0,0,0-.1,0-.2,0s0,0-.1,0h0s0,0-.2,0c0,0-.1,0-.2,0h0c.3,0,.5-.2.8-.2h0c.1,0,.3,0,.4-.1s.3,0,.4-.1c0,0,0,0,0,0,0,0,0,0,.1,0,0,0,0,0,.1,0,1.7-.7,3.4-1.3,5.2-1.8.6-.2,1.2-.4,1.8-.5,1-.3,2-.7,3.1-.9,0,0,.2,0,.2,0,.2-.1.5-.2.7-.2h0c.8-.3,1.6-.5,2.5-.6h0c.2,0,.3-.1.5-.1,1.7-.5,3.3-.8,5-1.1l15.4-63.4h-17.5l-11.2,59-.8-4.4c-.8.5-1.5,1-2.3,1.5h0Z"/>
        <polygon class="st0" points="56 84 56 84 56 84 56 84 56 84 56 84"/>
        <path class="st0" d="M52.8,79.1h0c0,0,0,0,0,0h0,0Z"/>
        <polygon class="st0" points="40.2 79.6 40.2 79.6 40.2 79.6 40.2 79.6 40.2 79.6"/>
        <path class="st0" d="M46,113.7s0,0,0,0c0,0,0,0,0,0h0Z"/>
        <path class="st0" d="M46.1,100.1s0,0,0,0h0s0,0,0,0Z"/>
        <path class="st0" d="M40.7,79.8h0s0,0,0,0h0Z"/>
        <path class="st0" d="M63.6,83c-.5.4-1.2.6-1.8.8,0,0,0,0,0,0-.7.3-1.4.7-2.2,1,0,0,0,0,0,0-1.9.9-3.8,1.8-5.7,2.6-.8.5-1.7.7-2.6,1.1,0,0-.2,0-.3.1-.7.3-1.3.6-2,.7-2.4.9-4.8,2.1-7.3,2.8-.3,0-.5.2-.8.3,0,0-.1,0-.2,0l1.3,5.4c0,0,.1,0,.2,0,.8.2,1.5.4,2.3.7.2,0,.4.1.6.2h0c.4.1.8.1,1.1.3.4,0,.9.2,1.3.3h0c0,0,.2,0,.3.1,1.7.5,3.4,1,5.1,1.6.2.2.4,0,.6.2-.2.2-.3,0-.5,0-.2,0-.4,0-.6,0-1.9-.1-3.8-.2-5.7-.3-.2,0-.4,0-.5,0-.2,0-.4,0-.6,0-.4,0-.8,0-1.2,0,0,0-.1,0-.2,0-.2,0-.3,0-.5,0h0s0,0,0,0c-.2,0-.5,0-.8,0l.3,1.4v5.9c.3.2.6.5.8.8,0,0,.2.1.3.2,0,0,.2.2.2.2.3.2.6.5.8.8.2.1.3.3.5.5.8.9,1.7,1.7,2.5,2.6.6.6,1.2,1.1,1.7,1.7l-2.2.4c-.3-.2-.5-.3-.7-.6h0c0,0-.2,0-.3,0-1-.6-2-1.2-3-1.8-.1,0-.3-.2-.3-.4,0,0,0,0,0,0,0,0-.2,0-.3-.1v19.9h16.5v-30l4.8-19.7c-.3.1-.5.2-.8.4h0Z"/>
        <path class="st0" d="M36.2,70.8c.4-.2.8-.5,1.3-.7,2.3-1.5,4.7-2.9,7.1-4.4,0,0,.1,0,.2,0,0,0,.2-.1.3-.2,0,0,0,0,.1,0,0,0,0,.1,0,.2,0,.2-.2.3-.3.3-.6.6-1.2,1.2-1.8,1.8-.5.5-1,1-1.5,1.5s-1,.9-1.5,1.4c-1.2,1.2-2.5,2.4-3.8,3.6l1.2,4.9c.2-.1.4-.3.7-.4,2-1.2,4-2.3,6-3.2,1.1-.6,2.2-1.1,3.3-1.6.6-.2,1.1-.5,1.7-.7l1.3-.5-10.3-54.3h-17.5l12.9,53c.2-.1.5-.3.7-.4h0Z"/>
        <path class="st0" d="M47.7,74.2h0,0Z"/>
      </g>
      <g>
        <path class="st0" d="M147,42.3c-.1-.1-.3-.3-.4-.4,0,0-.2-.1-.2-.2,0,0-.1-.2-.2-.3-.2-.2-.4-.4-.6-.6-.2-.2-.3-.4-.5-.7-1.2-1.5-2.4-3-3.5-4.7,0-.1-.2-.2-.2-.3-.1-.1-.3-.3-.3-.5,0,0,0,0,0,0v9c.3.4.6.7.9,1.1,1.3,1.4,2.6,2.8,4.1,4,.5.4,1,.8,1.5,1.3.7.6,1.4,1.2,2.2,1.9.9.8,1.7,1.5,2.4,2.4.3.2.5.5.8.8,0,0,.2.2.2.3,1.3,1.3,2.4,2.8,3.5,4.4,0,.1.2.2.2.3v-7c-.2-.2-.4-.4-.6-.7-.1-.1-.3-.3-.4-.4-.2-.2-.4-.4-.6-.6h0c0,0-.1-.1-.2-.2-1.5-1.3-2.8-2.8-4.1-4.4-1.3-1.5-2.7-3.1-4.1-4.6h0Z"/>
        <path class="st0" d="M142.9,27.8s0,0,0,0c0,0,0,0,0,0,0,0,0,0,0,0h0Z"/>
        <path class="st0" d="M154.9,47.2s0,0-.1,0c0,0,0,0,0,0,0,0,.1,0,.2,0,0,0,0-.1,0-.2h0Z"/>
        <path class="st0" d="M153.4,46.3h0s0,0,0,0h0Z"/>
        <polygon class="st0" points="155.1 50.3 155.1 50.3 155.1 50.3 155.1 50.3 155.1 50.3"/>
        <path class="st0" d="M155,50.8h0s0,0,0,0h0Z"/>
        <path class="st0" d="M154.8,49.6c.3-.2.1-.3,0-.4,0,.1,0,.3,0,.4Z"/>
        <path class="st0" d="M144.5,22.6h0,0Z"/>
        <path class="st0" d="M141.1,19.7h0s0,0,0,0h0Z"/>
        <path class="st0" d="M142.6,23.6s0,0-.1,0c0,0,0,0,0,0s0,0,0,0c0,0,0,0,0,0h0Z"/>
        <path class="st0" d="M144.5,22.9s0,0,0,0h0s0,0,0,0h0Z"/>
        <path class="st0" d="M141,25.2c.3.2.6.5.9.8h0s0,0,.1,0,0,0,.1,0c1,.6,1.9,1.2,2.9,1.9,0,0,0,0,0,.1.5.1,1,.4,1.5.7,0,0,0,0,0,0,.5.3,1,.7,1.6,1.1,0,0-.1-.1-.2-.2s0-.1-.1-.2c0,0,0,0,0,0-.3-.3-.6-.6-1-.9-.3-.3-.6-.6-.9-.9,0,0,0,0,0,0-.1,0-.2-.1-.4-.2-.1,0-.2-.1-.3-.2,0,0,0,0,0,0-.2-.2-.4-.4-.5-.6-.2,0-.3,0-.4-.2-.7-.6-1.4-1.2-2.1-1.8-.1-.1-.3-.2-.3-.4-.4-.2-.7-.5-1-.9v1.9h0Z"/>
        <path class="st0" d="M144.5,22.4h0s0,0,0,0h0c0,0,0,0,0,0Z"/>
        <polygon class="st0" points="146.3 25.2 146.3 25.2 146.3 25.2 146.3 25.2"/>
        <polygon class="st0" points="144.6 28.9 144.6 28.9 144.6 28.9 144.6 28.9"/>
        <path class="st0" d="M144.5,29.5h0s0,0,0,0h0Z"/>
        <path class="st0" d="M147.9,54.3h0s0,0,0,0c0,0,0,0,0,0h0Z"/>
        <path class="st0" d="M148.5,28h0s0,0,0,0c0,0,0,0,0,0h0s0,0,0,0h0s0,0,0,0Z"/>
        <path class="st0" d="M155.3,40.7h0c0,0,0,0,0,0h0s0,0,0,0h0Z"/>
        <path class="st0" d="M153.9,33.6h0c0,0-.1-.1-.2-.1.1.2.2.3.4.5h0c0-.1-.1-.2-.2-.3h0Z"/>
        <path class="st0" d="M150.1,28.5s0,0,0,0c0,0,0,0,0-.1,0,0,0,0,0,0h0Z"/>
        <path class="st0" d="M152.1,31.6h0s0,0,0,0h0Z"/>
        <path class="st0" d="M154.1,39.9s0,0,0,0c0,0,0,0,0,0h0c0,0,0,0,0,0h0Z"/>
        <path class="st0" d="M160.8,42.8s0,0,0,0h0c0,0,0,0,0,0h0Z"/>
        <path class="st0" d="M156.3,41.4s0,0,0,0c0,0,0,0,0,0,0,0,0,0,0,0h0Z"/>
        <path class="st0" d="M156,40s0,0,0,0c0,0,0,0,0,0,0,0,0,0,0,0,0,0,0,0,0,0Z"/>
        <path class="st0" d="M142.8,50.1s0,0,0,0h0s0,0,0,0h0Z"/>
        <path class="st0" d="M154.6,63c-1.3-1.4-3.2-3.3-4.4-5.1-.3-.2-.5-.4-.6-.7-.6-.7-1.1-1.3-1.7-2,0,0,0,0-.1,0,0,0-.1,0-.1-.2,0,0,0,0,0-.1h0s0,0-.1-.1c0,0,0-.1-.1-.2h0c0,.3.2.5.3.8h0c0,.1.1.3.2.4s.1.3.2.4c0,0,0,0,0,0,0,0,0,0,0,.1,0,0,0,0,0,.1.9,1.6,1.7,3.3,2.4,5,.2.6.5,1.1.7,1.7.4,1,.9,2,1.2,3,0,0,0,.2,0,.2.1.2.2.4.3.7h0c.4.8.7,1.6.9,2.4h0c.1.1.2.3.2.5.7,1.7,1.2,3.3,1.7,5.1.2.5.3,1,.4,1.5.1.2.1.3.2.6-.2,0-.3-.2-.3-.3-.7-.8-1.2-1.8-1.8-2.8-.4-.5-.7-1.1-1-1.7,0,0,0,0,0,0-.4-.7-.8-1.4-1.2-2,0,0,0,0,0,0-1.1-1.8-2.2-3.5-3.2-5.3-.6-.7-.9-1.6-1.3-2.4,0,0-.1-.2-.1-.3-.3-.6-.7-1.2-.9-1.9-1.2-2.3-2.6-4.5-3.7-6.9-.1-.3-.3-.5-.4-.8,0-.1-.1-.2-.2-.3-.2-.3-.4-.6-.4-1,0-.1-.2-.2-.2-.4,0,0-.1-.1-.1-.2,0,0,0-.2,0-.2,0-.2-.1-.3-.2-.5,0,0,0-.1,0-.2v82.7h15.9v-66.9c-.8-.8-1.5-1.7-2.3-2.5h0Z"/>
        <path class="st0" d="M144.9,48.2h0s0-.1,0-.1c0,0,0,0-.1,0,0,0,.1.1.1.2h0Z"/>
        <path class="st0" d="M142.3,50.7h0s0,0,0,0h0Z"/>
        <path class="st0" d="M143.4,47.7c0,0,.1,0,.2,0,0,0,0,0-.1,0h0s0,0-.1,0h0Z"/>
        <polygon class="st0" points="152.6 66.4 152.5 66.4 152.5 66.4 152.6 66.5 152.6 66.4 152.6 66.4"/>
        <path class="st0" d="M161.3,57.2h0s0,0,0,0Z"/>
        <path class="st0" d="M172.4,18.3v31.4l-17.9-31.4h-13.6c1.2,1,2.4,2.1,3.5,3.2,1,.9,2,1.8,2.9,2.8.3.3.7.6.9.9.2,0,.3.2.4.4,0,0,0,.1.1.1.2.2.5.5.7.8.4.4.8.8,1.2,1.3.4.4.8.8,1.1,1.2,1,1.1,1.9,2.2,2.7,3.4.7.9,1.4,1.8,1.9,2.8.7,1,1.2,2.1,1.8,3.2.3.7.7,1.3,1.2,1.9.6.6,1.1,1.3,1.6,2.1.5.6,1,1.2,1.4,1.9.3.4.6.8.9,1.2.3.4.6.8.8,1.2,1.7,2.2,3.4,4.3,5.2,6.5,0,0,0,.1,0,.2,0,0,.1.2.2.3,0,0,0,0,0,.1,0,0-.1,0-.2,0-.2,0-.3-.1-.3-.3-.7-.5-1.3-1.1-2-1.6-.6-.4-1.1-.8-1.6-1.3-.5-.5-1-.9-1.6-1.4-1.7-1.4-3.3-2.8-5-4.2-.9-.8-1.9-1.6-2.8-2.4-.2,0-.3-.2-.4-.3,0,0-.1,0-.1-.1-.6-.5-1.2-.9-1.7-1.5-.8-.6-1.6-1.3-2.3-2-.2-.1-.4-.3-.6-.5-.1-.1-.3-.2-.4-.4-.9-.8-1.8-1.6-2.6-2.5-.6-.5-1.2-1-1.7-1.6-.9-.6-1.6-1.4-2.4-2.1-.4-.4-.9-.8-1.3-1.2-.6-.4-1.1-.8-1.6-1.3v2.7c1.1,1.2,2.2,2.3,3.3,3.5.9.8,1.8,1.7,2.6,2.6s1.7,1.8,2.5,2.7c.8.9,1.6,1.8,2.4,2.7.3.3.6.7.9,1,.6.7,1.1,1.3,1.7,2,.3.3.5.7.8,1,.2.3.4.5.6.8,1.4,1.8,2.7,3.7,3.9,5.6.7,1,1.3,2.1,1.9,3.1.3.5.6,1.1.9,1.6.3.5.6,1.1.9,1.6,0,0,0,0-.1,0-.7-.8-1.4-1.7-2.1-2.5-.1,0-.2-.1-.2-.2h0c-.1-.2-.3-.3-.4-.5-.2-.2-.3-.3-.5-.5-.2-.2-.4-.4-.6-.6-.2-.2-.4-.4-.5-.6,0,0,0,0-.1-.1l13.5,24.3v53.1h15.9V18.3h-15.9Z"/>
        <path class="st0" d="M149.8,27.5h0s0,0,0,0c0,0,0,0,0,0h0Z"/>
      </g>
      <g>
        <path class="st0" d="M341.9,59.1h0c.1,0,.2,0,.2,0h-.6c.1,0,.2,0,.3,0h0Z"/>
        <path class="st0" d="M346.6,40.4h0s0,0,0,0c0,0,0,0,0,0h0Z"/>
        <path class="st0" d="M346.9,42.9c.1,0,.2.2.3.3,0,0,0,0,.1,0,0,0,0,0,0,0,0,0,0,0,0,0-.1,0-.2-.2-.3-.3,0,0,0,0-.1,0,0,0,0,0,0,.1,0,0,0,0,0,0h0Z"/>
        <path class="st0" d="M348.2,59.8s0,0,0,0h0s0,0,0,0Z"/>
        <path class="st0" d="M348.2,50.8c-.4,0-.8,0-1.2,0-1.2.1-2.5.2-3.7.2-1.2,0-2.5,0-3.7,0-1.2,0-2.4,0-3.6,0h-1.3c-.9,0-1.8,0-2.6,0,0,0-.2,0-.2,0v4.2c.6,0,1.2-.2,1.9-.3.2-.1.3-.1.5-.1,0,0,.1,0,.2,0,.7-.1,1.5-.2,2.2-.3,1-.2,2-.3,3-.4.2-.1.5,0,.8,0,.2,0,.4,0,.6,0,1.2-.2,2.4-.3,3.6-.3.8-.1,1.5-.2,2.3-.2.5-.1.9-.2,1.4-.2v-2.4h0Z"/>
        <path class="st0" d="M346.7,39.3h0,0Z"/>
        <path class="st0" d="M336.7,39.2s0,0,0,0h0s0,0,0,0Z"/>
        <path class="st0" d="M336.8,39.8s0,0,0,0c0,0,0,0,0,0,0,0,0,0,0,0h0Z"/>
        <path class="st0" d="M345.1,42.3s0,0,0,0h0s0,0,0,0h0Z"/>
        <path class="st0" d="M333.8,48.2c2,0,4.1,0,6.1,0,.2,0,.4,0,.6,0,.1,0,.2,0,.3,0s.2,0,.3,0c.3,0,.5,0,.8,0,.3,0,.5,0,.8,0,1.8.1,3.6.2,5.5.4v-3.2c-1.2-.7-2.4-1.3-3.5-2.1-.2-.1-.3-.2-.5-.3-.1,0-.2,0-.3,0,0,0-.2,0-.3,0s-.2,0-.3,0c-.6,0-1.3,0-1.9,0-1.9,0-3.8.1-5.7.4-.7,0-1.3.2-2,.3-.6,0-1.3.2-2,.3v4.4c.7,0,1.4,0,2,0h0Z"/>
        <path class="st0" d="M338.3,41.9c0,0,0,.1-.1.2,0,0,0,0,0,0h0s0,0,0,0h0Z"/>
        <path class="st0" d="M337,42.8s0,0,.1,0c0,0-.2,0-.2,0h0s0,.1.1,0h0Z"/>
        <path class="st0" d="M344.5,59.1h0s0,0,0,0Z"/>
        <path class="st0" d="M343.8,35.2s0,0,0,0h0s0,0,0,0Z"/>
        <path class="st0" d="M332.8,82.5c-10.3-6.2-15.4-13.8-15.4-22.8v-1.8c-.1,0-.2,0-.4,0,0,0-.1,0-.2,0-.1,0-.2,0-.4,0,0,0,0,0-.2,0,0,0,.1,0,.2,0,.2,0,.3-.1.4,0,.2,0,.3,0,.5,0v-8.3c-.6-.1-1.1-.2-1.7-.4,0,0,0,0,0-.2.5,0,1.1,0,1.6,0v-5.2c-.9-.1-1.7-.3-2.5-.5-1.2-.3-2.3-.6-3.5-.8-2.6-.5-5.2-1-7.8-1.5v-.2c.9-.2,1.8-.1,2.8,0,1.7,0,3.3,0,5,0,2,0,4,0,6,0,0-1.4.2-2.6.6-3.6-.2,0-.5-.1-.7-.2h0c-.8-.2-1.6-.5-2.4-.9h0c-.2,0-.3,0-.5-.2-1.7-.6-3.3-1.3-4.9-2.1-.5-.2-1-.4-1.4-.6-.2,0-.4-.1-.5-.2.1-.2.3,0,.5,0,1.1,0,2.2.3,3.3.5.7,0,1.3.2,1.9.3,0,0,0,0,0,0,.8.2,1.5.3,2.3.5,0,0,0,0,0,0,1.3.2,2.5.4,3.8.7,1.2-1.1,2.8-1.6,5-1.6h.1c3.5,0,5.7,1.4,6.6,4.2,1.1.2,2.2.5,3.3.9.3,0,.6.2.8.2.1,0,.2,0,.4,0,.4,0,.7,0,1,.3.1,0,.3,0,.4,0,0,0,.2,0,.2,0,0,0,.1,0,.2.1.2,0,.3,0,.5.1.6.2,1.3.4,1.9.6.6.2,1.2.5,1.8.8.1,0,.2,0,.3.1.3,0,.6.3.9.5,0,0,.1,0,.1.1.6.2,1.1.5,1.6.9.3.1.6.2,1,.4.2,0,.4.1.6.2,0,0,.1,0,.2,0,0,0,0,0-.1-.2-1.3-1.2-2.6-2.5-3.9-3.8l-.4-.4c-.9-.9-1.8-1.9-2.5-2.9-.2-.2-.5-.5-.7-.8,0,0-.1-.2-.2-.3-.1-.1-.2-.3-.4-.4-.3-.3-.6-.7-.9-1.1-.5-.6-1-1.2-1.5-1.8-.1-.2-.2-.3-.4-.5h0c-.2-.3-.6-.5-.7-.9-.3-.3-.6-.7-.9-1h0c0,0-.1-.2-.2-.3-1.1-1.4-2.2-2.7-3.3-4.2,0-.2-.3-.3-.4-.5.2,0,.3.2.4.3.2,0,.3.3.5.4,1.5,1.2,3,2.3,4.5,3.5.1.1.3.2.4.4.2,0,.3.2.5.3.4.2.7.5,1,.7,0,0,.1,0,.2,0,.1,0,.3.2.4.3h0c2.2,1.6,4.7,3.5,7,5.6.9.8,1.8,1.5,2.6,2.4.1,0,.3.2.4.3,0,0,0,0,0,0,0-.4,0-.8,0-1.1-.1-.2-.3-.5-.5-.7-.6-1-1.1-2-1.6-3-.2-.5-.5-1-.7-1.6-.2-.4-.4-.8-.6-1.3-.5-1.1-.9-2.2-1.2-3.4-.2-.5-.4-1.1-.5-1.7-.3-.8-.5-1.6-.6-2.4,0,0,0-.2,0-.3-4-4-9.9-6-17.7-6-15.8,0-23.6,8-23.6,24v19.7c0,13.2,5.1,23.5,15.4,30.8,10.3,7.4,15.4,13.8,15.4,19.3s-2.4,7.7-7.2,7.7-7.2-2.6-7.2-7.7v-8h-16.5v8c0,16,7.9,24,23.7,24,15.8,0,23.6-8,23.6-24s-5.1-20.4-15.4-27.8h0Z"/>
        <path class="st0" d="M343.5,35.5s0,0,0,0h0s0,0,0,.1c0,0,0,0,0,0h0Z"/>
        <path class="st0" d="M344.2,36.3s0,0,0,0c0,0,0,0,0,0,0,0,0,0,0,0,0,0,0,0,0,0Z"/>
        <path class="st0" d="M335.5,28.9h0s0,0,0,0c0,0,0,0,0,0h0Z"/>
        <path class="st0" d="M342.9,37.7h0s0,0,0,0c0,0,0,0,0,0,0,0,0,0,0,0s0,0,0,0h0Z"/>
        <polygon class="st0" points="345 26.5 345 26.5 345 26.5 345 26.5 345 26.5 345 26.5"/>
        <path class="st0" d="M337,55.2h0c0,0,0,0,0,0,0,0,0,0,0,0h0Z"/>
        <path class="st0" d="M334.4,55.8h0s0,0,0,0c0,0,0,0,0,0Z"/>
        <path class="st0" d="M335.7,56.4s0,0,0,0c0,0,0,0,0-.1h0s0,0,0,0h0Z"/>
        <path class="st0" d="M335.6,55.6h0s0,0,0,0c0,0,0,0,0,0h0Z"/>
        <path class="st0" d="M348.2,60.8c-.5,0-1,0-1.6,0-1.4,0-2.9,0-4.3-.2-1.1,0-2.3-.2-3.4-.5-1.2-.2-2.4-.5-3.6-.8-.7-.2-1.4-.3-2.2-.4-.5,0-1,0-1.4,0v9.4h16.5v-7.6h0Z"/>
        <path class="st0" d="M332.7,50.3h0s0,0,0,0h0s0,0,0,0h0Z"/>
      </g>
      <polygon class="st0" points="132.5 122.7 122.8 113 115.2 120.6 107.6 113 100 120.6 92.4 113 82.7 122.7 92.4 132.4 100 124.8 107.6 132.4 115.2 124.8 122.8 132.4 132.5 122.7"/>
    </g>
  </g>
</svg>